<svg xmlns="http://www.w3.org/2000/svg" width="32" height="32" fill="none" viewBox="0 0 32 32">
  <path fill="var(--tbl--colors--icons--clean--primary)" fill-rule="evenodd" d="M7.5 5a1 1 0 0 0-1-1h-1a3 3 0 0 0-3 3v6.586l-.5.5a2 2 0 0 0 0 2.828l.5.5V25a3 3 0 0 0 3 3h1a1 1 0 1 0 0-2h-1a1 1 0 0 1-1-1v-7.586A2 2 0 0 0 3.914 16l-.5-.5.5-.5a2 2 0 0 0 .586-1.414V7a1 1 0 0 1 1-1h1a1 1 0 0 0 1-1ZM24 5a1 1 0 0 1 1-1h1a3 3 0 0 1 3 3v6.586l.5.5a2 2 0 0 1 0 2.828l-.5.5V25a3 3 0 0 1-3 3h-1a1 1 0 1 1 0-2h1a1 1 0 0 0 1-1v-7.586A2 2 0 0 1 27.586 16l.5-.5-.5-.5A2 2 0 0 1 27 13.586V7a1 1 0 0 0-1-1h-1a1 1 0 0 1-1-1Zm-7 2a1 1 0 1 0-2 0v18a1 1 0 1 0 2 0V7Zm3.617 6.076a1 1 0 0 1 1.09.217l2 2a1 1 0 0 1 0 1.414l-2 2A1 1 0 0 1 20 18v-4a1 1 0 0 1 .617-.924Zm-10.324.217A1 1 0 0 1 12 14v4a1 1 0 0 1-1.707.707l-2-2a1 1 0 0 1 0-1.414l2-2Z" clip-rule="evenodd"/>
</svg>
