<svg xmlns="http://www.w3.org/2000/svg" width="24" height="24" fill="none" viewBox="0 0 24 24">
  <path fill="var(--tbl--colors--icons--clean--primary)" fill-rule="evenodd" d="M12.5 1.5a1 1 0 0 1 1 1v19a1 1 0 1 1-2 0v-19a1 1 0 0 1 1-1ZM17 5a1 1 0 0 1 1-1h1a3 3 0 0 1 3 3v3.586l.5.5a2 2 0 0 1 0 2.828l-.5.5V18a3 3 0 0 1-3 3h-1a1 1 0 1 1 0-2h1a1 1 0 0 0 1-1v-3.586A2 2 0 0 1 20.586 13l.5-.5-.5-.5A2 2 0 0 1 20 10.586V7a1 1 0 0 0-1-1h-1a1 1 0 0 1-1-1ZM6.5 4a1 1 0 1 1 0 2h-1a1 1 0 0 0-1 1v3.586A2 2 0 0 1 3.914 12l-.5.5.5.5a2 2 0 0 1 .586 1.414V18a1 1 0 0 0 1 1h1a1 1 0 1 1 0 2h-1a3 3 0 0 1-3-3v-3.586l-.5-.5a2 2 0 0 1 0-2.828l.5-.5V7a3 3 0 0 1 3-3h1Z" clip-rule="evenodd"/>
</svg>
