<svg xmlns="http://www.w3.org/2000/svg" width="24" height="24" fill="none" viewBox="0 0 24 24">
  <path
    fill="var(--tbl--colors--icons--clean--primary)"
    fill-rule="evenodd"
    d="M6.99997 3C7.55226 3 7.99997 3.44772 7.99997 4C7.99997 4.55228 7.55226 5 6.99997 5H5.99997C5.44769 5 4.99997 5.44772 4.99997 6V10.0858C4.99997 10.6162 4.78926 11.1249 4.41418 11.5L3.91418 12L4.41418 12.5C4.78926 12.8751 4.99997 13.3838 4.99997 13.9142V18C4.99997 18.5523 5.44769 19 5.99997 19H6.99997C7.55226 19 7.99997 19.4477 7.99997 20C7.99997 20.5523 7.55226 21 6.99997 21H5.99997C4.34312 21 2.99997 19.6569 2.99997 18V13.9142L2.49997 13.4142C1.71892 12.6332 1.71892 11.3668 2.49997 10.5858L2.99997 10.0858V6C2.99997 4.34315 4.34312 3 5.99997 3H6.99997ZM12 3C12.5523 3 13 3.44772 13 4V20C13 20.5523 12.5523 21 12 21C11.4477 21 11 20.5523 11 20V4C11 3.44772 11.4477 3 12 3ZM16 4C16 3.44772 16.4477 3 17 3H18C19.6569 3 21 4.34315 21 6V10.0858L21.5 10.5858C22.281 11.3668 22.281 12.6332 21.5 13.4142L21 13.9142V18C21 19.6569 19.6569 21 18 21H17C16.4477 21 16 20.5523 16 20C16 19.4477 16.4477 19 17 19H18C18.5523 19 19 18.5523 19 18V13.9142C19 13.3838 19.2107 12.8751 19.5858 12.5L20.0858 12L19.5858 11.5C19.2107 11.1249 19 10.6162 19 10.0858V6C19 5.44772 18.5523 5 18 5H17C16.4477 5 16 4.55228 16 4Z"
    clip-rule="evenodd"
  />
</svg>
