<svg width="138" height="40" fill="none" xmlns="http://www.w3.org/2000/svg">
  <path
    d="M0 17.312C0 3.056 3.056 0 17.312 0h5.376C36.944 0 40 3.056 40 17.312v5.376C40 36.944 36.944 40 22.688 40h-5.376C3.056 40 0 36.944 0 22.688v-5.376Z"
    fill="#1D1C45"/>
  <path fill-rule="evenodd" clip-rule="evenodd"
        d="M10 14.167c0-1.381 1.087-2.5 2.427-2.5H30c1.34 0 2.5 1.119 2.5 2.5 0 1.38-1.16 2.5-2.5 2.5H12.427c-1.34 0-2.427-1.12-2.427-2.5Z"
        fill="url(#a)"/>
  <path fill-rule="evenodd" clip-rule="evenodd"
        d="M15.7 24.167c1.098 0 2.06-.592 2.344-1.653l1.451-5.407c.854-3.182 3.733-5.44 7.027-5.44H30c1.34 0 2.5 1.16 2.5 2.5s-1.16 2.5-2.5 2.5h-3.472c-1.098 0-2.06.637-2.344 1.698l-1.452 5.408a7.282 7.282 0 0 1-7.032 5.394h-3.084c-1.34 0-2.616-1.16-2.616-2.5s1.275-2.5 2.616-2.5H15.7Z"
        fill="url(#b)"/>
  <path
    d="M59.392 14.72v2.496h-3.008V26h-3.136v-8.784h-2.976V14.72h9.12Zm.648 6.784c0-.928.166-1.739.496-2.432.342-.693.8-1.227 1.376-1.6a3.561 3.561 0 0 1 1.952-.56c.619 0 1.152.123 1.6.368.448.245.795.576 1.04.992v-1.248h3.136V26h-3.136v-1.248a2.638 2.638 0 0 1-1.056.992c-.448.245-.976.368-1.584.368a3.561 3.561 0 0 1-1.952-.56c-.576-.373-1.034-.907-1.376-1.6-.33-.704-.496-1.52-.496-2.448Zm6.464 0c0-.576-.16-1.03-.48-1.36a1.514 1.514 0 0 0-1.152-.496c-.47 0-.858.165-1.168.496-.31.32-.464.773-.464 1.36 0 .576.155 1.035.464 1.376.31.33.699.496 1.168.496.459 0 .843-.165 1.152-.496.32-.33.48-.79.48-1.376Zm8.06-3.232a2.522 2.522 0 0 1 1.04-.992c.447-.245.975-.368 1.583-.368.715 0 1.36.187 1.936.56.587.373 1.046.907 1.376 1.6.342.693.512 1.504.512 2.432 0 .928-.17 1.744-.512 2.448-.33.693-.79 1.227-1.376 1.6a3.483 3.483 0 0 1-1.936.56c-.608 0-1.136-.117-1.584-.352a2.628 2.628 0 0 1-1.04-1.008V26h-3.136V14.16h3.136v4.112Zm3.263 3.232c0-.587-.16-1.04-.48-1.36a1.514 1.514 0 0 0-1.152-.496c-.458 0-.848.165-1.168.496-.31.33-.464.784-.464 1.36 0 .587.155 1.045.464 1.376.32.33.71.496 1.168.496.459 0 .843-.165 1.152-.496.32-.341.48-.8.48-1.376Zm13.66-4.48V26h-3.153v-1.28a3.024 3.024 0 0 1-1.104.992c-.47.245-1.008.368-1.616.368-1.045 0-1.872-.341-2.48-1.024-.597-.693-.896-1.632-.896-2.816v-5.216h3.12v4.816c0 .512.134.917.4 1.216.278.288.64.432 1.088.432.459 0 .822-.144 1.088-.432.267-.299.4-.704.4-1.216v-4.816h3.152Zm4.92-2.864V26h-3.136V14.16h3.136Zm1.274 7.344c0-.928.165-1.739.496-2.432.341-.693.8-1.227 1.376-1.6a3.562 3.562 0 0 1 1.952-.56c.619 0 1.152.123 1.6.368a2.66 2.66 0 0 1 1.04.992v-1.248h3.136V26h-3.136v-1.248a2.632 2.632 0 0 1-1.056.992c-.448.245-.976.368-1.584.368a3.562 3.562 0 0 1-1.952-.56c-.576-.373-1.035-.907-1.376-1.6-.33-.704-.496-1.52-.496-2.448Zm6.464 0c0-.576-.16-1.03-.48-1.36a1.512 1.512 0 0 0-1.152-.496 1.53 1.53 0 0 0-1.168.496c-.309.32-.464.773-.464 1.36 0 .576.155 1.035.464 1.376.309.33.699.496 1.168.496.459 0 .843-.165 1.152-.496.32-.33.48-.79.48-1.376Z"
    fill="#111828"/>
  <rect x="115.5" y="9" width="22" height="22" rx="4.5" stroke="#111828"/>
  <path
    d="M121.968 14.72v6.544c0 .608.139 1.077.416 1.408.288.33.72.496 1.296.496.576 0 1.008-.165 1.296-.496.299-.341.448-.81.448-1.408V14.72h3.136v6.544c0 1.035-.219 1.92-.656 2.656a4.242 4.242 0 0 1-1.792 1.648c-.747.363-1.579.544-2.496.544s-1.739-.181-2.464-.544a4.131 4.131 0 0 1-1.696-1.648c-.405-.725-.608-1.61-.608-2.656V14.72h3.12Zm11.455 0V26h-3.136V14.72h3.136Z"
    fill="#000"/>
  <defs>
    <linearGradient id="a" x1="9.984" y1="13.203" x2="23.735" y2="20.204" gradientUnits="userSpaceOnUse">
      <stop stop-color="#47FFEA"/>
      <stop offset="1" stop-color="#27F4DD" stop-opacity="0"/>
    </linearGradient>
    <linearGradient id="b" x1="32.724" y1="15.281" x2="27.614" y2="29.918" gradientUnits="userSpaceOnUse">
      <stop offset=".005" stop-color="#5CFFF5"/>
      <stop offset="1" stop-color="#58A3F7"/>
    </linearGradient>
  </defs>
</svg>
