<svg xmlns="http://www.w3.org/2000/svg" width="32" height="32" fill="none" viewBox="0 0 32 32">
  <rect width="26" height="24" x="3" y="4" fill="var(--tbl--colors--icons--transformation--primary)" opacity=".1" rx="3"/>
  <path fill="var(--tbl--colors--icons--transformation--primary)" d="M3 7a3 3 0 0 1 3-3h20a3 3 0 0 1 3 3v1H3V7Z"/>
  <path fill="var(--tbl--colors--icons--transformation--tertiary)" fill-rule="evenodd" d="M3 25a3 3 0 0 0 3 3h1v-6h7v6h1v-6h7v6h1v-6h6v-1h-6v-6h6v-1h-6V8h-1v6h-7V8h-1v6H7V8H3v17Zm4-10v6h7v-6H7Zm8 0h7v6h-7v-6Z" clip-rule="evenodd"/>
</svg>
