<svg width="24" height="24" viewBox="0 0 24 24" fill="none" xmlns="http://www.w3.org/2000/svg">
  <rect opacity="0.1" x="2" y="3" width="20" height="18" rx="2" fill="var(--tbl--colors--icons--transformation--primary)"/>
  <path d="M2 5C2 3.89543 2.89543 3 4 3H20C21.1046 3 22 3.89543 22 5V6H2V5Z" fill="var(--tbl--colors--icons--transformation--primary)"/>
  <path fill-rule="evenodd" clip-rule="evenodd" d="M13 11L6 11V15L13 15V11ZM6 16L6 21H5L4 21C2.89543 21 2 20.1046 2 19V16V15V11V10V6H5H6L6 10L13 10V6H14V10L22 10V11L14 11V15L22 15V16L14 16L14 21H13L13 16L6 16Z" fill="var(--tbl--colors--icons--transformation--tertiary)"/>
</svg>
