<svg xmlns="http://www.w3.org/2000/svg" width="24" height="24" fill="none" viewBox="0 0 24 24">
  <rect width="20" height="18" x="2" y="3" fill="var(--tbl--colors--icons--transformation--primary)" opacity=".1" rx="2"/>
  <path fill="var(--tbl--colors--icons--transformation--primary)" d="M2 5a2 2 0 0 1 2-2h16a2 2 0 0 1 2 2v1H2V5Z"/>
  <path fill="var(--tbl--colors--icons--transformation--tertiary)" fill-rule="evenodd" d="M13 11H6v4h7v-4Zm-7 5v5H4a2 2 0 0 1-2-2V6h4v4h7V6h1v4h8v1h-8v4h8v1h-8v5h-1v-5H6Z" clip-rule="evenodd"/>
</svg>
