<svg width="16" height="16" viewBox="0 0 16 16" fill="none" xmlns="http://www.w3.org/2000/svg">
  <rect x="1" y="1" width="14" height="14" rx="2" fill="var(--tbl--ui-node-icon--enrichment--prospeo-primary)"/>
  <path
    d="M4 5.76271L6.89655 7.52542M4 5.76271L6.89655 4L9.87586 5.70847M4 5.76271V9.12542L6.89655 10.8339M6.89655 7.52542L9.87586 5.70847M6.89655 7.52542V10.8339M9.87586 5.70847V6.87458M6.89655 10.8339L7.83448 10.2373M7.83448 10.2373V8.17627M7.83448 10.2373V10.7254L9.95862 12M7.83448 8.17627L9.95862 9.42373M7.83448 8.17627L9.87586 6.87458M9.95862 9.42373V12M9.95862 9.42373L11.9724 8.12203M9.95862 12L12 10.7254L11.9724 8.12203M11.9724 8.12203L9.87586 6.87458"
    stroke="var(--tbl--ui-node-icon--enrichment--prospeo-secondary)"
    stroke-width="0.75"
  />
</svg>
