<svg width="16" height="16" viewBox="0 0 16 16" fill="none" xmlns="http://www.w3.org/2000/svg">
  <path fill-rule="evenodd" clip-rule="evenodd" d="M13 1C13.5523 1 14 1.44772 14 2V4V9V13C14 13.5523 13.5523 14 13 14H6L4 14C3.99954 14 3.99907 14 3.9986 14H3C2.44772 14 2 13.5523 2 13V11C2 10.4477 2.44771 10 3 10C3.55228 10 4 10.4477 4 11V12H6H12L12 4C12 3.99948 12 3.99896 12 3.99844V3H11C10.4477 3 10 2.55228 10 2C10 1.44772 10.4477 1 11 1H13ZM7 3H5.41421L8.70711 6.29289C9.09763 6.68342 9.09763 7.31658 8.70711 7.70711C8.31658 8.09763 7.68342 8.09763 7.29289 7.70711L4 4.41421V6C4 6.55228 3.55229 7 3 7C2.44772 7 2 6.55228 2 6V2C2 1.44772 2.44772 1 3 1H7C7.55228 1 8 1.44772 8 2C8 2.55228 7.55228 3 7 3Z" fill="currentColor"/>
</svg>
