<svg width="32" height="32" viewBox="0 0 32 32" fill="none" xmlns="http://www.w3.org/2000/svg">
  <path
    fill-rule="evenodd"
    clip-rule="evenodd"
    d="M27.2465 2C28.768 2 30 3.03824 30 4.3184V27.6816C30 28.9618 28.7674 30 27.2465 30H4.75352C3.23256 30 2 28.9618 2 27.6816V18.7474C2 17.7651 3.06512 17.153 3.91352 17.6475L5.03184 18.2994C5.32334 18.4671 5.66938 18.5127 5.99436 18.4261C6.31935 18.3395 6.59686 18.1278 6.76628 17.8373C6.9357 17.5468 6.98325 17.201 6.89855 16.8755C6.81385 16.5501 6.60379 16.2713 6.31424 16.1002L2.63168 13.9543C2.4396 13.8423 2.2802 13.6819 2.16938 13.4892C2.05855 13.2964 2.00015 13.078 2 12.8556V12.5952C2 11.5984 3.09424 10.988 3.94208 11.5127L15.3297 18.5564C15.5315 18.6812 15.7642 18.7472 16.0014 18.7468C16.2387 18.7464 16.4712 18.6797 16.6726 18.5542L23.8652 14.0697C24.1517 13.8911 24.3555 13.606 24.4318 13.2771C24.5081 12.9482 24.4506 12.6025 24.272 12.316C24.0934 12.0295 23.8083 11.8257 23.4795 11.7494C23.1506 11.6731 22.8049 11.7306 22.5184 11.9092L16.6675 15.5576C16.4661 15.6831 16.2337 15.7498 15.9964 15.7502C15.7591 15.7506 15.5264 15.6847 15.3246 15.5598L2.60312 7.69184C2.41862 7.57768 2.26636 7.41825 2.16081 7.2287C2.05525 7.03915 1.9999 6.82576 2 6.6088V4.3184C2 3.03824 3.23256 2 4.75352 2H27.2465Z"
    fill="url(#tbl--ui-node-icon--enrichment--never-bounce-l--gradient)"
  />

  <defs>
    <linearGradient id="tbl--ui-node-icon--enrichment--never-bounce-l--gradient" x1="5.18192" y1="5.18192" x2="29.3426" y2="27.3641" gradientUnits="userSpaceOnUse">
      <stop stop-color="var(--tbl--ui-node-icon--enrichment--never-bounce-from)" />
      <stop offset="0.519" stop-color="var(--tbl--ui-node-icon--enrichment--never-bounce-middle)" />
      <stop offset="1" stop-color="var(--tbl--ui-node-icon--enrichment--never-bounce-to)" />
    </linearGradient>
  </defs>
</svg>

