<svg width="16" height="16" viewBox="0 0 16 16" fill="none" xmlns="http://www.w3.org/2000/svg">
  <path
    fill-rule="evenodd"
    clip-rule="evenodd"
    d="M13.6232 1C14.384 1 15 1.51912 15 2.1592V13.8408C15 14.4809 14.3837 15 13.6232 15H2.37676C1.61628 15 1 14.4809 1 13.8408V9.37368C1 8.88256 1.53256 8.57652 1.95676 8.82376L2.51592 9.14968C2.66167 9.23355 2.83469 9.25633 2.99718 9.21304C3.15967 9.16976 3.29843 9.06392 3.38314 8.91866C3.46785 8.77339 3.49163 8.60051 3.44928 8.43777C3.40693 8.27503 3.30189 8.13567 3.15712 8.05012L1.31584 6.97716C1.2198 6.92115 1.1401 6.84097 1.08469 6.74458C1.02927 6.6482 1.00008 6.53898 1 6.4278V6.2976C1 5.7992 1.54712 5.494 1.97104 5.75636L7.66484 9.2782C7.76574 9.34062 7.88208 9.37359 8.00072 9.37339C8.11936 9.37319 8.23559 9.33983 8.33628 9.27708L11.9326 7.03484C12.0758 6.94554 12.1778 6.803 12.2159 6.63856C12.2541 6.47412 12.2253 6.30127 12.136 6.15802C12.0467 6.01477 11.9042 5.91286 11.7397 5.87471C11.5753 5.83657 11.4024 5.8653 11.2592 5.9546L8.33376 7.7788C8.23307 7.84155 8.11684 7.87491 7.9982 7.87511C7.87956 7.87531 7.76322 7.84234 7.66232 7.77992L1.30156 3.84592C1.20931 3.78884 1.13318 3.70913 1.0804 3.61435C1.02762 3.51957 0.999948 3.41288 1 3.3044V2.1592C1 1.51912 1.61628 1 2.37676 1H13.6232Z"
    fill="url(#tbl--ui-node-icon--enrichment--never-bounce-s--gradient)"
  />
  <defs>
    <linearGradient id="tbl--ui-node-icon--enrichment--never-bounce-s--gradient" x1="2.59096" y1="2.59096" x2="14.6713" y2="13.682" gradientUnits="userSpaceOnUse">
      <stop stop-color="var(--tbl--ui-node-icon--enrichment--never-bounce-from)" />
      <stop offset="0.519" stop-color="var(--tbl--ui-node-icon--enrichment--never-bounce-middle)" />
      <stop offset="1" stop-color="var(--tbl--ui-node-icon--enrichment--never-bounce-to)" />
    </linearGradient>
  </defs>
</svg>
