<svg width="16" height="16" viewBox="0 0 16 16" fill="none" xmlns="http://www.w3.org/2000/svg">
  <path fill-rule="evenodd" clip-rule="evenodd" d="M4.5 1a.5.5 0 0 1 .5.5V2h6v-.5a.5.5 0 0 1 1 0V2h1a1 1 0 0 1 1 1v3.416a4.962 4.962 0 0 0-1-.316V6H3v7h4.416c.156.357.352.692.584 1H3a1 1 0 0 1-1-1V3a1 1 0 0 1 1-1h1v-.5a.5.5 0 0 1 .5-.5Zm7 2H3v2h10V3h-1.5Zm.5 11a3 3 0 1 0 0-6 3 3 0 0 0 0 6Zm0 1a4 4 0 1 0 0-8 4 4 0 0 0 0 8Zm-.5-6a.5.5 0 0 0-.5.5v2a.5.5 0 0 0 .5.5h1a.5.5 0 0 0 0-1H12V9.5a.5.5 0 0 0-.5-.5Z" fill="currentColor"/>
</svg>
