<svg xmlns="http://www.w3.org/2000/svg" width="16" height="16" fill="none" viewBox="0 0 16 16">
  <path fill="currentColor" fill-rule="evenodd" d="M8.974 3.658a.5.5 0 1 0-.948-.316L7.473 5H5.5a.5.5 0 1 0 0 1h1.64l-1.334 4H3.5a.5.5 0 0 0 0 1h1.973l-.447 1.342a.5.5 0 0 0 .948.316L6.527 11h3.946l-.447 1.342a.5.5 0 1 0 .948.316L11.527 11H13.5a.5.5 0 0 0 0-1h-1.64l1.334-4H15a.5.5 0 0 0 0-1h-1.473l.447-1.342a.5.5 0 1 0-.948-.316L12.473 5H8.527l.447-1.342ZM12.14 6l-1.334 4H6.86l1.334-4h3.946ZM1 13a1 1 0 1 0 0-2 1 1 0 0 0 0 2Z" clip-rule="evenodd"/>
</svg>
