<svg width="16" height="16" viewBox="0 0 16 16" xmlns="http://www.w3.org/2000/svg">
  <path fill-rule="evenodd" clip-rule="evenodd" d="M11.335 2.555c-.629-.315-1.275-.408-1.876-.175-.582.226-.976.701-1.238 1.209-.468.901-.66 2.166-.693 3.411H6a.75.75 0 0 0 0 1.5h1.508c-.053 1.824-.253 2.642-.628 3.56-.22.54-.44.717-.578.768-.12.045-.386.072-.916-.246a.75.75 0 1 0-.772 1.286c.72.433 1.488.638 2.216.364.71-.267 1.153-.905 1.438-1.604.481-1.179.689-2.235.741-4.128H10.5a.75.75 0 0 0 0-1.5H9.028c.034-1.136.213-2.12.524-2.721.17-.326.333-.455.45-.5.097-.038.292-.068.663.117a.75.75 0 1 0 .67-1.341Z" fill="currentColor"/>
</svg>
