<svg xmlns="http://www.w3.org/2000/svg" width="16" height="16" fill="none" viewBox="0 0 16 16">
  <path fill="currentColor" fill-rule="evenodd" d="M7.658 3.026a.5.5 0 0 1 .316.632L7.527 5h3.946l.553-1.658a.5.5 0 1 1 .948.316L12.527 5H14a.5.5 0 0 1 0 1h-1.806l-1.334 4h1.64a.5.5 0 0 1 0 1h-1.973l-.553 1.658a.5.5 0 1 1-.948-.316L9.473 11H5.527l-.553 1.658a.5.5 0 1 1-.948-.316L4.473 11H2.5a.5.5 0 0 1 0-1h2.306L6.14 6H4.5a.5.5 0 0 1 0-1h1.973l.553-1.658a.5.5 0 0 1 .632-.316ZM9.806 10l1.334-4H7.194L5.86 10h3.946Z" clip-rule="evenodd"/>
</svg>
