<svg xmlns="http://www.w3.org/2000/svg" width="16" height="16" fill="none" viewBox="0 0 16 16">
  <path fill="currentColor" fill-rule="evenodd" d="M1.932 6.112C1.939 6.64 1.943 7 1.5 7a.5.5 0 0 0 0 1c.443 0 .439.359.432.888L1.93 9.1v3.28c0 .507.13.903.39 1.19.267.287.66.43 1.18.43h1a.5.5 0 0 0 0-1h-.3a2.52 2.52 0 0 1-.49-.04c-.566-.113-.71-.636-.71-1.06V8.76c0-.077.002-.15.004-.22.008-.33.014-.584-.184-.76a1.427 1.427 0 0 0-.516-.28c.199-.062.37-.155.516-.28.198-.176.192-.43.184-.76A7.584 7.584 0 0 1 3 6.24V4.1c0-.424.144-.947.71-1.06A2.52 2.52 0 0 1 4.2 3h.3a.5.5 0 0 0 0-1h-1c-.52 0-.913.143-1.18.43-.26.287-.39.683-.39 1.19V5.9c0 .073 0 .144.002.212Zm12.136 0c-.006.529-.011.888.432.888a.5.5 0 0 1 0 1c-.443 0-.438.359-.432.888l.002.212v3.28c0 .507-.13.903-.39 1.19-.267.287-.66.43-1.18.43h-1a.5.5 0 0 1 0-1h.3c.193 0 .357-.013.49-.04.566-.113.71-.636.71-1.06V8.76c0-.077-.002-.15-.004-.22-.008-.33-.014-.584.184-.76a1.43 1.43 0 0 1 .516-.28 1.428 1.428 0 0 1-.516-.28c-.198-.176-.192-.43-.184-.76.002-.07.004-.143.004-.22V4.1c0-.424-.144-.947-.71-1.06A2.547 2.547 0 0 0 11.8 3h-.3a.5.5 0 0 1 0-1h1c.52 0 .913.143 1.18.43.26.287.39.683.39 1.19V5.9c0 .073 0 .144-.002.212Z" clip-rule="evenodd"/>
</svg>
