<svg width="16" height="16" viewBox="0 0 16 16" fill="none" xmlns="http://www.w3.org/2000/svg">
  <path fill-rule="evenodd" clip-rule="evenodd" d="M2.547 10.569a.642.642 0 1 1-1.203-.445l2.548-6.49A1 1 0 0 1 4.822 3h.158a1 1 0 0 1 .931.635l2.548 6.49a.641.641 0 1 1-1.203.443L6.608 8.69h-3.41l-.65 1.879ZM4.87 4.5 3.582 7.582h2.642L4.937 4.5H4.87Zm8.835 5.736c-.242.49-.852.964-1.934.964-1.244 0-2.27-.632-2.27-1.919 0-1.487 1.328-1.81 2.568-1.956l.38-.042c.9-.098 1.274-.14 1.274-.55v-.03c0-.741-.422-1.172-1.245-1.172-.572 0-.975.2-1.235.471-.211.22-.505.391-.802.324-.362-.083-.577-.472-.36-.774.534-.743 1.427-1.052 2.38-1.052 1.04 0 2.54.38 2.54 2.284v3.594a.622.622 0 0 1-1.244 0v-.142h-.052Zm-2.897-.938c0 .631.52.955 1.24.955 1.061 0 1.679-.708 1.679-1.483v-.844c-.166.166-.987.273-1.447.332l-.13.018c-.737.098-1.342.34-1.342 1.022ZM1.5 13a.5.5 0 0 0 0 1h13a.5.5 0 0 0 0-1h-13Z" fill="currentColor"/>
</svg>
