<svg width="16" height="16" viewBox="0 0 16 16" fill="none" xmlns="http://www.w3.org/2000/svg">
  <path fill-rule="evenodd" clip-rule="evenodd" d="M5.061 5.337C5.327 3.939 6.444 3 8 3c1.516 0 3 1.05 3 2.667C11 6.832 9.759 7.68 8.88 8.28c-.036.023-.07.047-.103.07-.312.213-.42.676-.452 1.077-.03.374-.323.705-.698.705A.627.627 0 0 1 7 9.507v-.74c0-.506.564-.882 1.173-1.287.716-.476 1.494-.994 1.494-1.813 0-.824-.89-1.334-1.667-1.334-.543 0-1.306.198-1.572 1.01-.114.35-.393.657-.761.657-.369 0-.675-.301-.606-.663ZM7.75 12.5a.75.75 0 1 1 0-1.5.75.75 0 0 1 0 1.5Z" fill="currentColor"/>
</svg>
