<svg width="16" height="16" viewBox="0 0 16 16" fill="none" xmlns="http://www.w3.org/2000/svg">
  <path fill-rule="evenodd" clip-rule="evenodd" d="M9 2H3L3 14H12V5L10 5C9.44772 5 9 4.55228 9 4V2ZM13 5L9 1H3C2.44772 1 2 1.44772 2 2V14C2 14.5523 2.44772 15 3 15H12C12.5523 15 13 14.5523 13 14L13 5ZM5.14645 10.3536C4.95118 10.1583 4.95118 9.84171 5.14645 9.64645C5.34171 9.45118 5.65829 9.45118 5.85355 9.64645L7 10.7929L7 6C7 5.72386 7.22386 5.5 7.5 5.5C7.77614 5.5 8 5.72386 8 6L8 10.7929L9.14645 9.64645C9.34171 9.45118 9.65829 9.45118 9.85355 9.64645C10.0488 9.84171 10.0488 10.1583 9.85355 10.3536L7.85355 12.3536C7.75979 12.4473 7.63261 12.5 7.5 12.5C7.36739 12.5 7.24022 12.4473 7.14645 12.3536L5.14645 10.3536Z" fill="currentColor"/>
</svg>
