<svg xmlns="http://www.w3.org/2000/svg" width="32" height="32" fill="none" viewBox="0 0 32 32">
  <path fill="var(--tbl--colors--icons--transformation--tertiary)" fill-rule="evenodd" d="M3 6a2.997 2.997 0 0 1 3-3h18a3 3 0 0 1 3 3v2a1 1 0 0 1-1 1H15v3a3 3 0 0 1-3 3H9v12H6a3 3 0 0 1-3-3V6Z" clip-rule="evenodd"/>
  <path fill="var(--tbl--colors--icons--transformation--secondary)" fill-rule="evenodd" d="M21 3h-6v6h6V3ZM9 15H3v6h6v-6Z" clip-rule="evenodd"/>
  <path fill="var(--tbl--colors--icons--transformation--primary)" fill-rule="evenodd" d="M15 3H9v6H3v6h6V9h6V3Z" clip-rule="evenodd" opacity=".5"/>
  <path fill="var(--tbl--colors--icons--transformation--primary)" fill-rule="evenodd" d="M9 9H3V6a3 3 0 0 1 3-3h3v6Zm19.207 2.793a1 1 0 0 0-1.414 0l-2 2a1 1 0 0 0 1.414 1.414l.237-.237c-.212 2.68-1.03 4.871-2.564 6.46-1.443 1.497-3.627 2.569-6.83 2.933l.157-.156a1 1 0 0 0-1.414-1.414l-2 2-.009.009a.997.997 0 0 0 .01 1.405l1.999 2a1 1 0 0 0 1.414-1.414l-.395-.395c3.776-.348 6.58-1.581 8.508-3.579 2.003-2.077 2.933-4.85 3.136-7.949l.337.337a1 1 0 0 0 1.414-1.414l-2-2Z" clip-rule="evenodd"/>
</svg>
