<svg xmlns="http://www.w3.org/2000/svg" width="32" height="32" fill="none" viewBox="0 0 32 32">
  <path
    d="M15.804 3.051C15.099 3.111 13.379 3.407 12.92 3.541C12.838 3.567 12.49 3.667 12.159 3.772C9.14702 4.674 6.32402 6.672 4.54302 9.158C3.39902 10.756 2.64902 12.394 2.26102 14.168C2.03102 15.199 1.99502 15.575 2.00102 16.898C2.00602 18.31 2.08702 18.946 2.40902 20.043C2.69786 21.0779 3.1365 22.065 3.71102 22.973C4.93102 24.963 6.31902 26.31 8.27402 27.413C9.75793 28.2507 11.395 28.7819 13.088 28.975C13.935 29.075 15.61 29.045 16.391 28.925C18.841 28.539 21.046 27.557 23.104 25.939C23.8081 25.3792 24.4699 24.7682 25.084 24.111C25.35 23.835 25.615 23.585 25.676 23.555C25.733 23.525 26.095 23.39 26.473 23.259C27.33 22.964 28.264 22.533 28.8 22.182C29.342 21.827 30.117 21.055 30.408 20.579C30.781 19.973 30.878 19.677 30.883 19.126C30.888 18.701 30.873 18.62 30.745 18.365C30.46 17.789 29.837 17.413 29.178 17.408C28.581 17.408 28.116 17.644 27.897 18.049L27.774 18.285L27.346 18.25C26.846 18.215 26.064 18.03 25.686 17.86C25.186 17.634 24.839 17.228 24.839 16.862C24.839 16.722 24.895 16.642 25.232 16.326C25.707 15.886 27.626 14.618 27.825 14.618C27.841 14.618 27.851 14.653 27.851 14.698C27.851 14.828 28.173 15.104 28.387 15.164C28.683 15.244 28.923 15.234 29.255 15.119C29.668 14.979 29.923 14.819 30.235 14.518C30.745 14.012 30.965 13.401 30.965 12.494C30.965 12.198 30.935 11.863 30.888 11.692C30.705 11.006 30.128 10.24 29.469 9.809C29.193 9.629 29.148 9.569 28.999 9.238C28.581 8.296 28.081 7.625 27.059 6.663C25.937 5.596 24.492 4.719 22.807 4.078C20.582 3.226 18.065 2.856 15.804 3.051ZM18.764 4.479C19.117 4.519 19.76 4.634 20.194 4.734C22.721 5.3 24.839 6.367 26.366 7.845C26.743 8.215 27.412 9.002 27.371 9.042C27.209 9.00435 27.0489 8.9593 26.891 8.907C26.33 8.727 25.595 8.597 25.411 8.637C25.201 8.687 25.094 8.807 25.094 8.977C25.099 9.263 25.15 9.293 25.988 9.483C27.111 9.739 28.336 10.365 28.958 10.996C29.418 11.462 29.648 11.938 29.678 12.479C29.704 12.965 29.576 13.371 29.306 13.656L29.142 13.831L28.816 13.741C28.566 13.671 28.326 13.646 27.8 13.651C26.733 13.656 25.697 13.857 23.614 14.478C23.149 14.613 22.394 14.838 21.929 14.974C19.173 15.79 17.019 16.176 15.681 16.091C15.023 16.051 15.028 16.036 15.834 15.72C16.518 15.45 16.677 15.25 16.386 15.024C16.207 14.884 16.003 14.894 15.518 15.049C14.905 15.244 14.436 15.505 14.088 15.845C12.986 16.922 13.17 18.605 14.456 19.242C14.819 19.417 14.961 19.442 15.14 19.352C15.268 19.287 15.293 19.242 15.293 19.102C15.293 18.946 15.263 18.901 15.053 18.761C14.66 18.495 14.364 18.21 14.267 17.999C14.15 17.754 14.129 17.123 14.237 17.123C14.277 17.123 14.671 17.338 15.11 17.599C17.335 18.911 18.933 19.472 21.393 19.808C22.2 19.923 24.068 19.933 24.916 19.833C26.207 19.683 27.289 19.417 28.386 18.976C29.106 18.691 29.234 18.676 29.433 18.866C29.699 19.131 29.613 19.442 29.091 20.078C28.055 21.336 26.238 22.228 23.691 22.728C22.394 22.978 22.067 23.008 20.449 23.008C18.851 23.008 18.234 22.944 17.304 22.683C16.83 22.548 16.595 22.553 16.498 22.693C16.4539 22.75 16.4257 22.8176 16.416 22.889C16.416 22.999 16.646 23.269 16.763 23.299C16.809 23.314 16.957 23.349 17.095 23.384C17.228 23.42 17.335 23.46 17.335 23.48C17.335 23.525 16.539 23.67 15.931 23.74C15.283 23.815 13.874 23.77 13.328 23.66C12.705 23.535 12.041 23.3 11.613 23.059C11.107 22.773 11.01 22.749 10.837 22.884C10.525 23.129 10.735 23.47 11.439 23.86C12.184 24.276 13.113 24.517 14.267 24.587C15.681 24.672 16.866 24.527 18.331 24.071L18.841 23.916L20.101 23.91C20.796 23.91 21.348 23.925 21.327 23.946C21.261 24.006 20.015 24.472 19.275 24.712C16.36 25.649 15.084 26.19 13.695 27.087L12.996 27.537L12.546 27.462C10.356 27.092 8.24902 26.029 6.72702 24.532L6.24702 24.066L6.44202 23.911C7.03402 23.455 7.78402 22.688 7.94202 22.383C8.07502 22.123 8.19802 21.631 8.19802 21.351C8.19302 20.689 7.60502 20.199 7.04402 20.379C6.91102 20.424 6.57402 20.704 5.94102 21.311C5.43602 21.791 4.99702 22.182 4.96102 22.182C4.90002 22.182 4.64502 21.782 4.40002 21.291L4.26702 21.031L5.20102 20.113C6.03802 19.302 6.16102 19.157 6.32902 18.821C6.48802 18.511 6.52302 18.385 6.51902 18.14C6.51902 17.789 6.45202 17.599 6.26802 17.408C5.98802 17.118 5.60402 17.038 5.27302 17.203C5.18102 17.248 4.76702 17.613 4.35302 18.014C3.92002 18.435 3.58302 18.726 3.55702 18.696C3.39902 18.53 3.34802 16.301 3.48102 15.424C3.87902 12.749 4.99702 10.535 6.93102 8.576C7.29402 8.211 7.78902 7.745 8.02402 7.544C10.244 5.676 13.032 4.614 16.34 4.379C16.789 4.349 18.105 4.399 18.764 4.479ZM17.213 26.596C17.08 26.736 16.891 26.986 16.794 27.146C16.59 27.467 16.605 27.462 15.906 27.537C15.018 27.637 14.936 27.647 14.936 27.622C14.936 27.507 17.146 26.365 17.401 26.345C17.427 26.34 17.341 26.455 17.213 26.595V26.596Z"
    fill="var(--tbl--ui-node-icon--enrichment--muraena)"
  />
  <path
    d="M10.594 7.3C10.379 7.364 10.242 7.45 9.629 7.895C8.067 9.032 7.812 9.348 8.016 9.884C8.179 10.3 8.613 10.465 9.026 10.264C9.149 10.21 9.466 9.989 9.731 9.774C9.996 9.558 10.466 9.198 10.773 8.972C11.416 8.492 11.518 8.372 11.518 8.051C11.518 7.57 11.028 7.169 10.594 7.299V7.3ZM18.16 8.832C17.405 8.992 16.788 9.568 16.517 10.36C16.425 10.625 16.41 10.77 16.425 11.161C16.44 11.572 16.465 11.687 16.609 11.983C16.819 12.423 17.053 12.704 17.395 12.925C17.819 13.2 18.191 13.315 18.655 13.315C19.345 13.315 19.917 13.085 20.351 12.629C20.933 12.023 21.127 11.322 20.933 10.52C20.728 9.679 20.152 9.092 19.279 8.837C18.947 8.742 18.598 8.742 18.16 8.832ZM18.82 9.884C19.32 10.139 19.263 10.876 18.732 11.056C18.467 11.146 18.283 11.101 18.059 10.881C17.89 10.716 17.885 10.695 17.905 10.435C17.946 9.929 18.386 9.668 18.82 9.884ZM6.205 11.121C5.7 11.457 4.985 12.85 4.566 14.312C4.393 14.933 4.383 15.059 4.521 15.324C4.709 15.68 5.061 15.805 5.419 15.64C5.699 15.51 5.838 15.3 6.001 14.753C6.302 13.771 6.471 13.335 6.828 12.629C7.231 11.818 7.272 11.662 7.139 11.417C6.94 11.047 6.522 10.911 6.205 11.121ZM26.24 11.788C26.067 11.953 26.062 12.298 26.23 12.454C26.486 12.689 26.981 12.514 26.981 12.188C26.981 11.752 26.52 11.507 26.24 11.788ZM27.875 11.788C27.712 11.943 27.702 12.243 27.855 12.434C28.003 12.619 28.315 12.619 28.488 12.434C28.636 12.279 28.646 12.124 28.538 11.913C28.396 11.637 28.085 11.577 27.875 11.788Z"
    fill="var(--tbl--ui-node-icon--enrichment--muraena)"
  />
</svg>
