<svg width="16" height="16" viewBox="0 0 16 16" fill="none" xmlns="http://www.w3.org/2000/svg">
  <path
    d="M7.90198 1.5255C7.54948 1.5555 6.68948 1.7035 6.45998 1.7705C6.41898 1.7835 6.24498 1.8335 6.07948 1.886C4.57348 2.337 3.16198 3.336 2.27148 4.579C1.69948 5.378 1.32448 6.197 1.13048 7.084C1.01548 7.5995 0.997481 7.7875 1.00048 8.449C1.00298 9.155 1.04348 9.473 1.20448 10.0215C1.3489 10.539 1.56822 11.0325 1.85548 11.4865C2.46548 12.4815 3.15948 13.155 4.13698 13.7065C4.87893 14.1254 5.69745 14.3909 6.54398 14.4875C6.96748 14.5375 7.80498 14.5225 8.19548 14.4625C9.42048 14.2695 10.523 13.7785 11.552 12.9695C11.904 12.6896 12.2349 12.3841 12.542 12.0555C12.675 11.9175 12.8075 11.7925 12.838 11.7775C12.8665 11.7625 13.0475 11.695 13.2365 11.6295C13.665 11.482 14.132 11.2665 14.4 11.091C14.671 10.9135 15.0585 10.5275 15.204 10.2895C15.3905 9.9865 15.439 9.8385 15.4415 9.563C15.444 9.3505 15.4365 9.31 15.3725 9.1825C15.23 8.8945 14.9185 8.7065 14.589 8.704C14.2905 8.704 14.058 8.822 13.9485 9.0245L13.887 9.1425L13.673 9.125C13.423 9.1075 13.032 9.015 12.843 8.93C12.593 8.817 12.4195 8.614 12.4195 8.431C12.4195 8.361 12.4475 8.321 12.616 8.163C12.8535 7.943 13.813 7.309 13.9125 7.309C13.9205 7.309 13.9255 7.3265 13.9255 7.349C13.9255 7.414 14.0865 7.552 14.1935 7.582C14.3415 7.622 14.4615 7.617 14.6275 7.5595C14.834 7.4895 14.9615 7.4095 15.1175 7.259C15.3725 7.006 15.4825 6.7005 15.4825 6.247C15.4825 6.099 15.4675 5.9315 15.444 5.846C15.3525 5.503 15.064 5.12 14.7345 4.9045C14.5965 4.8145 14.574 4.7845 14.4995 4.619C14.2905 4.148 14.0405 3.8125 13.5295 3.3315C12.9685 2.798 12.246 2.3595 11.4035 2.039C10.291 1.613 9.03248 1.428 7.90198 1.5255ZM9.38198 2.2395C9.55848 2.2595 9.87998 2.317 10.097 2.367C11.3605 2.65 12.4195 3.1835 13.183 3.9225C13.3715 4.1075 13.706 4.501 13.6855 4.521C13.6045 4.50217 13.5244 4.47965 13.4455 4.4535C13.165 4.3635 12.7975 4.2985 12.7055 4.3185C12.6005 4.3435 12.547 4.4035 12.547 4.4885C12.5495 4.6315 12.575 4.6465 12.994 4.7415C13.5555 4.8695 14.168 5.1825 14.479 5.498C14.709 5.731 14.824 5.969 14.839 6.2395C14.852 6.4825 14.788 6.6855 14.653 6.828L14.571 6.9155L14.408 6.8705C14.283 6.8355 14.163 6.823 13.9 6.8255C13.3665 6.828 12.8485 6.9285 11.807 7.239C11.5745 7.3065 11.197 7.419 10.9645 7.487C9.58648 7.895 8.50948 8.088 7.84048 8.0455C7.51148 8.0255 7.51398 8.018 7.91698 7.86C8.25898 7.725 8.33848 7.625 8.19298 7.512C8.10348 7.442 8.00148 7.447 7.75898 7.5245C7.45248 7.622 7.21798 7.7525 7.04398 7.9225C6.49298 8.461 6.58498 9.3025 7.22798 9.621C7.40948 9.7085 7.48048 9.721 7.56998 9.676C7.63398 9.6435 7.64648 9.621 7.64648 9.551C7.64648 9.473 7.63148 9.4505 7.52648 9.3805C7.32998 9.2475 7.18198 9.105 7.13348 8.9995C7.07498 8.877 7.06448 8.5615 7.11848 8.5615C7.13848 8.5615 7.33548 8.669 7.55498 8.7995C8.66748 9.4555 9.46648 9.736 10.6965 9.904C11.1 9.9615 12.034 9.9665 12.458 9.9165C13.1035 9.8415 13.6445 9.7085 14.193 9.488C14.553 9.3455 14.617 9.338 14.7165 9.433C14.8495 9.5655 14.8065 9.721 14.5455 10.039C14.0275 10.668 13.119 11.114 11.8455 11.364C11.197 11.489 11.0335 11.504 10.2245 11.504C9.42548 11.504 9.11698 11.472 8.65198 11.3415C8.41498 11.274 8.29748 11.2765 8.24898 11.3465C8.22694 11.375 8.2128 11.4088 8.20798 11.4445C8.20798 11.4995 8.32298 11.6345 8.38148 11.6495C8.40448 11.657 8.47848 11.6745 8.54748 11.692C8.61398 11.71 8.66748 11.73 8.66748 11.74C8.66748 11.7625 8.26948 11.835 7.96548 11.87C7.64148 11.9075 6.93698 11.885 6.66398 11.83C6.35248 11.7675 6.02048 11.65 5.80648 11.5295C5.55348 11.3865 5.50498 11.3745 5.41848 11.442C5.26248 11.5645 5.36748 11.735 5.71948 11.93C6.09198 12.138 6.55648 12.2585 7.13348 12.2935C7.84048 12.336 8.43298 12.2635 9.16548 12.0355L9.42048 11.958L10.0505 11.955C10.398 11.955 10.674 11.9625 10.6635 11.973C10.6305 12.003 10.0075 12.236 9.63748 12.356C8.17998 12.8245 7.54198 13.095 6.84748 13.5435L6.49798 13.7685L6.27298 13.731C5.17798 13.546 4.12448 13.0145 3.36348 12.266L3.12348 12.033L3.22098 11.9555C3.51698 11.7275 3.89198 11.344 3.97098 11.1915C4.03748 11.0615 4.09898 10.8155 4.09898 10.6755C4.09648 10.3445 3.80248 10.0995 3.52198 10.1895C3.45548 10.212 3.28698 10.352 2.97048 10.6555C2.71798 10.8955 2.49848 11.091 2.48048 11.091C2.44998 11.091 2.32248 10.891 2.19998 10.6455L2.13348 10.5155L2.60048 10.0565C3.01898 9.651 3.08048 9.5785 3.16448 9.4105C3.24398 9.2555 3.26148 9.1925 3.25948 9.07C3.25948 8.8945 3.22598 8.7995 3.13398 8.704C2.99398 8.559 2.80198 8.519 2.63648 8.6015C2.59048 8.624 2.38348 8.8065 2.17648 9.007C1.95998 9.2175 1.79148 9.363 1.77848 9.348C1.69948 9.265 1.67398 8.1505 1.74048 7.712C1.93948 6.3745 2.49848 5.2675 3.46548 4.288C3.64698 4.1055 3.89448 3.8725 4.01198 3.772C5.12198 2.838 6.51598 2.307 8.16998 2.1895C8.39448 2.1745 9.05248 2.1995 9.38198 2.2395ZM8.60648 13.298C8.53998 13.368 8.44548 13.493 8.39698 13.573C8.29498 13.7335 8.30248 13.731 7.95298 13.7685C7.50898 13.8185 7.46798 13.8235 7.46798 13.811C7.46798 13.7535 8.57298 13.1825 8.70048 13.1725C8.71348 13.17 8.67048 13.2275 8.60648 13.2975V13.298Z"
    fill="var(--tbl--ui-node-icon--enrichment--muraena)"
  />
  <path
    d="M5.29697 3.65C5.18947 3.682 5.12097 3.725 4.81447 3.9475C4.03347 4.516 3.90597 4.674 4.00797 4.942C4.08947 5.15 4.30647 5.2325 4.51297 5.132C4.57447 5.105 4.73297 4.9945 4.86547 4.887C4.99797 4.779 5.23297 4.599 5.38647 4.486C5.70797 4.246 5.75897 4.186 5.75897 4.0255C5.75897 3.785 5.51397 3.5845 5.29697 3.6495V3.65ZM9.07997 4.416C8.70247 4.496 8.39397 4.784 8.25847 5.18C8.21247 5.3125 8.20497 5.385 8.21247 5.5805C8.21997 5.786 8.23247 5.8435 8.30447 5.9915C8.40947 6.2115 8.52647 6.352 8.69747 6.4625C8.90947 6.6 9.09547 6.6575 9.32747 6.6575C9.67247 6.6575 9.95847 6.5425 10.1755 6.3145C10.4665 6.0115 10.5635 5.661 10.4665 5.26C10.364 4.8395 10.076 4.546 9.63947 4.4185C9.47347 4.371 9.29897 4.371 9.07997 4.416ZM9.40997 4.942C9.65997 5.0695 9.63147 5.438 9.36597 5.528C9.23347 5.573 9.14147 5.5505 9.02947 5.4405C8.94497 5.358 8.94247 5.3475 8.95247 5.2175C8.97297 4.9645 9.19297 4.834 9.40997 4.942ZM3.10247 5.5605C2.84997 5.7285 2.49247 6.425 2.28297 7.156C2.19647 7.4665 2.19147 7.5295 2.26047 7.662C2.35447 7.84 2.53047 7.9025 2.70947 7.82C2.84947 7.755 2.91897 7.65 3.00047 7.3765C3.15097 6.8855 3.23547 6.6675 3.41397 6.3145C3.61547 5.909 3.63597 5.831 3.56947 5.7085C3.46997 5.5235 3.26097 5.4555 3.10247 5.5605ZM13.12 5.894C13.0335 5.9765 13.031 6.149 13.115 6.227C13.243 6.3445 13.4905 6.257 13.4905 6.094C13.4905 5.876 13.26 5.7535 13.12 5.894ZM13.9375 5.894C13.856 5.9715 13.851 6.1215 13.9275 6.217C14.0015 6.3095 14.1575 6.3095 14.244 6.217C14.318 6.1395 14.323 6.062 14.269 5.9565C14.198 5.8185 14.0425 5.7885 13.9375 5.894Z"
    fill="var(--tbl--ui-node-icon--enrichment--muraena)"
  />
</svg>
