<svg xmlns="http://www.w3.org/2000/svg" width="32" height="32" fill="none" viewBox="0 0 32 32">
  <path
    d="M4.20955 2.39774C3.28788 2.82851 2.59662 3.62377 2.23453 4.60129C1.92182 5.51252 1.92182 26.4876 2.23453 27.3988C2.58016 28.3432 3.25496 29.1385 4.14372 29.5858L4.95018 30H15.9445C26.2804 30 26.9716 29.9669 27.5971 29.6852C28.5352 29.2544 29.1112 28.6414 29.5885 27.5976L30 26.703L29.9506 15.8012C29.9013 4.98235 29.9013 4.89951 29.5392 4.23679C29.3417 3.87229 28.9467 3.34212 28.6339 3.0439C27.5148 1.96698 27.9921 2.00011 15.9609 2.00011H5.04893L4.20955 2.39774ZM16.0432 6.5066C17.8701 7.36814 19.2855 9.09121 19.9274 11.2616C20.1907 12.1231 20.2237 12.1563 21.096 12.4214C22.3468 12.819 22.6924 13.0178 23.7952 14.0782C26.6754 16.845 26.7412 21.2024 23.9433 24.019C22.5278 25.4272 21.4251 25.9243 19.4337 25.9905C18.2322 26.0403 17.6232 25.9905 16.9484 25.7752C14.7101 25.0462 12.8996 23.1574 12.3565 20.9705C12.0932 19.9267 11.9944 19.7941 11.369 19.6616C9.7396 19.3302 7.7975 17.7231 6.90874 15.9338C6.38207 14.89 6.36561 14.7575 6.36561 12.935C6.36561 11.2119 6.41499 10.9303 6.80999 10.0687C7.32021 8.97523 8.68626 7.45098 9.70669 6.85453C10.9082 6.14211 11.6652 5.97643 13.4428 6.02613C14.8253 6.05927 15.2367 6.14211 16.0432 6.5066Z"
    fill="var(--tbl--ui-node-icon--enrichment--their-stack)"
  />
  <path
    d="M16.9155 12.4379C14.0682 13.3492 12.0603 16.0994 12.0438 19.1314V19.9432L13.5086 19.8604C16.1749 19.6947 18.2322 18.3361 19.4008 15.9669C19.8945 14.9562 20.0097 14.5255 20.0756 13.432L20.1579 12.1066L19.0222 12.1231C18.3803 12.1231 17.4587 12.2557 16.9155 12.4379Z"
    fill="var(--tbl--ui-node-icon--enrichment--their-stack)"
  />
</svg>
