<svg width="16" height="16" viewBox="0 0 16 16" fill="none" xmlns="http://www.w3.org/2000/svg">
  <path
    d="M2.10637 1.19887C1.64487 1.41426 1.29874 1.81189 1.11744 2.30064C0.960855 2.75626 0.960855 13.2438 1.11744 13.6994C1.2905 14.1716 1.62838 14.5692 2.0734 14.7929L2.47722 15H7.98228C13.1577 15 13.5038 14.9834 13.817 14.8426C14.2867 14.6272 14.5752 14.3207 14.8142 13.7988L15.0202 13.3515L14.9955 7.90062C14.9707 2.49117 14.9707 2.44975 14.7894 2.11839C14.6905 1.93615 14.4928 1.67106 14.3362 1.52195C13.7758 0.983488 14.0148 1.00006 7.99052 1.00006H2.52667L2.10637 1.19887ZM8.03173 3.2533C8.94649 3.68407 9.65523 4.5456 9.97663 5.63081C10.1085 6.06157 10.125 6.07814 10.5617 6.21069C11.1881 6.4095 11.3611 6.50891 11.9133 7.03909C13.3555 8.42251 13.3885 10.6012 11.9875 12.0095C11.2787 12.7136 10.7266 12.9621 9.7294 12.9953C9.1278 13.0201 8.82288 12.9953 8.48499 12.8876C7.3642 12.5231 6.45768 11.5787 6.18572 10.4852C6.05386 9.96333 6.00442 9.89706 5.69125 9.83079C4.87538 9.66511 3.90293 8.86156 3.45791 7.96689C3.1942 7.445 3.18595 7.37873 3.18595 6.46749C3.18595 5.60596 3.21068 5.46513 3.40846 5.03436C3.66394 4.48762 4.34795 3.72549 4.8589 3.42727C5.4605 3.07105 5.83959 2.98821 6.72963 3.01307C7.42189 3.02963 7.62791 3.07105 8.03173 3.2533Z"
    fill="var(--tbl--ui-node-icon--enrichment--their-stack)"
  />
  <path
    d="M8.46842 6.21896C7.04271 6.67458 6.03729 8.04972 6.02905 9.56569V9.9716L6.76251 9.93018C8.09757 9.84734 9.12771 9.16806 9.71283 7.98345C9.96006 7.47812 10.0178 7.26274 10.0507 6.716L10.0919 6.05328L9.52328 6.06156C9.20188 6.06156 8.74038 6.12783 8.46842 6.21896Z"
    fill="var(--tbl--ui-node-icon--enrichment--their-stack)"
  />
</svg>
