<svg xmlns="http://www.w3.org/2000/svg" width="32" height="32" fill="none" viewBox="0 0 32 32">
  <path fill="var(--tbl--colors--icons--transformation--primary)" fill-rule="evenodd" d="M7.5 27c3.043 0 5.598-3.539 6.305-8.317l-3.776 2.266c-1.333.8-3.029-.16-3.029-1.715v-5.468c0-1.554 1.696-2.515 3.029-1.715l3.902 2.341C13.471 9.08 10.767 5 7.5 5 3.91 5 1 9.925 1 16s2.91 11 6.5 11Zm16 0c-3.043 0-5.598-3.539-6.305-8.317l3.776 2.266c1.333.8 3.029-.16 3.029-1.715v-5.468c0-1.554-1.696-2.515-3.029-1.715l-3.902 2.341C17.529 9.08 20.233 5 23.5 5 27.09 5 30 9.925 30 16s-2.91 11-6.5 11Zm-9.944-10.5L9 13.766v5.468l4.556-2.734Zm3.888 0L22 19.234v-5.468L17.444 16.5ZM15.5 17.647l1.5.844V14.51l-1.5.844-1.5-.844v3.982l1.5-.844Z" clip-rule="evenodd"/>
</svg>
