<svg xmlns="http://www.w3.org/2000/svg" width="16" height="16" fill="none" viewBox="0 0 16 16">
  <path fill="currentColor" fill-rule="evenodd" d="M5.264 11.021A4.71 4.71 0 0 0 5.71 10h1.04c-.463 1.766-1.52 3-2.75 3-1.657 0-3-2.239-3-5s1.343-5 3-5c1.23 0 2.287 1.234 2.75 3H5.71a4.71 4.71 0 0 0-.446-1.021C4.817 4.234 4.339 4 4 4c-.34 0-.817.234-1.264.979C2.301 5.704 2 6.769 2 8c0 1.23.301 2.296.736 3.021.447.745.925.979 1.264.979.34 0 .817-.234 1.264-.979ZM12 13c-1.23 0-2.287-1.234-2.75-3h1.04c.12.387.272.731.446 1.021.447.745.925.979 1.264.979.34 0 .817-.234 1.264-.979.435-.725.736-1.79.736-3.021 0-1.23-.301-2.296-.736-3.021C12.817 4.234 12.339 4 12 4c-.34 0-.817.234-1.264.979-.174.29-.326.634-.447 1.021H9.25C9.714 4.234 10.77 3 12 3c1.657 0 3 2.239 3 5s-1.343 5-3 5ZM4.697 6.04A.5.5 0 0 0 4 6.5v3a.5.5 0 0 0 .697.46L8 8.544l3.303 1.416A.5.5 0 0 0 12 9.5v-3a.5.5 0 0 0-.697-.46L8 7.456 4.697 6.04ZM5 7.258 6.73 8 5 8.742V7.258Zm6 1.484L9.27 8 11 7.258v1.484Z" clip-rule="evenodd"/>
</svg>
