<svg xmlns="http://www.w3.org/2000/svg" width="24" height="24" fill="none" viewBox="0 0 24 24">
  <path fill="var(--tbl--colors--icons--transformation--primary)" fill-rule="evenodd" d="M5 20c2.478 0 4.535-2.884 4.931-6.668l-2.893 1.112A1.5 1.5 0 0 1 5 13.044v-2.088a1.5 1.5 0 0 1 2.038-1.4l2.893 1.113C9.535 6.883 7.478 4 5 4c-2.761 0-5 3.582-5 8s2.239 8 5 8Zm5-8c0-.078 0-.156-.002-.234l-3.319-1.277a.5.5 0 0 0-.679.467v2.088a.5.5 0 0 0 .68.467l3.318-1.277L10 12Zm9 8c-2.478 0-4.535-2.884-4.931-6.668l2.893 1.112a1.5 1.5 0 0 0 2.038-1.4v-2.088a1.5 1.5 0 0 0-2.038-1.4l-2.893 1.113C14.465 6.883 16.522 4 19 4c2.761 0 5 3.582 5 8s-2.239 8-5 8Zm-5-8c0 .078 0 .156.002.234l3.318 1.277a.5.5 0 0 0 .68-.467v-2.088a.5.5 0 0 0-.68-.467l-3.318 1.277L14 12Zm-2 .536 2 .769v-1.072L13.393 12l.607-.233v-1.072l-2 .77-2-.77v1.072l.607.233-.607.233v1.072l2-.77Z" clip-rule="evenodd"/>
</svg>
