<svg width="16" height="16" viewBox="0 0 16 16" fill="none" xmlns="http://www.w3.org/2000/svg">
  <path fill-rule="evenodd" clip-rule="evenodd" d="M2.5 14C2.22386 14 2 13.7761 2 13.5V2.5C2 2.22386 2.22386 2 2.5 2H5.5C5.77614 2 6 2.22386 6 2.5C6 2.77614 5.77614 3 5.5 3H3V13H5.5C5.77614 13 6 13.2239 6 13.5C6 13.7761 5.77614 14 5.5 14H2.5ZM14 13.5C14 13.7761 13.7761 14 13.5 14H10.5C10.2239 14 10 13.7761 10 13.5C10 13.2239 10.2239 13 10.5 13H13V3H10.5C10.2239 3 10 2.77614 10 2.5C10 2.22386 10.2239 2 10.5 2H13.5C13.7761 2 14 2.22386 14 2.5V13.5Z" fill="currentColor"/>
</svg>
