<svg width="16" height="16" viewBox="0 0 16 16" fill="none" xmlns="http://www.w3.org/2000/svg">
  <path fill-rule="evenodd" clip-rule="evenodd" d="M4.5 1C4.77614 1 5 1.22386 5 1.5V2H11V1.5C11 1.22386 11.2239 1 11.5 1C11.7761 1 12 1.22386 12 1.5V2H13C13.5523 2 14 2.44772 14 3V5V6V6.41604C13.6825 6.27732 13.3478 6.17062 13 6.10002V6H3L3 13H7.41604C7.57202 13.357 7.76849 13.6923 7.99963 14H3C2.44772 14 2 13.5523 2 13V6V5V3C2 2.44772 2.44772 2 3 2H4V1.5C4 1.22386 4.22386 1 4.5 1ZM11.5 3H4.5H3L3 5H13V3H11.5ZM12 14C13.6569 14 15 12.6569 15 11C15 9.34315 13.6569 8 12 8C10.3431 8 9 9.34315 9 11C9 12.6569 10.3431 14 12 14ZM12 15C14.2091 15 16 13.2091 16 11C16 8.79086 14.2091 7 12 7C9.79086 7 8 8.79086 8 11C8 13.2091 9.79086 15 12 15ZM11.5 9C11.2239 9 11 9.22386 11 9.5V11V11.5C11 11.7761 11.2239 12 11.5 12H12.5C12.7761 12 13 11.7761 13 11.5C13 11.2239 12.7761 11 12.5 11H12V9.5C12 9.22386 11.7761 9 11.5 9Z" fill="currentColor"/>
</svg>
