<svg width="16" height="16"  viewBox="0 0 16 16" xmlns="http://www.w3.org/2000/svg">
  <path fill-rule="evenodd" clip-rule="evenodd" d="M4.5 1C4.77614 1 5 1.22386 5 1.5V2H11V1.5C11 1.22386 11.2239 1 11.5 1C11.7761 1 12 1.22386 12 1.5V2H13C13.5523 2 14 2.44772 14 3V5V6V13C14 13.5523 13.5523 14 13 14H3C2.44772 14 2 13.5523 2 13V6V5V3C2 2.44772 2.44772 2 3 2H4V1.5C4 1.22386 4.22386 1 4.5 1ZM11.5 3H4.5H3L3 5H13V3H11.5ZM13 6V13H3L3 6H13ZM5 8H7V9H5V8ZM7 10H5V11H7V10ZM9 10H11V11H9V10ZM11 8H9V9H11V8Z" fill="currentColor"/>
</svg>
