<svg width="16" height="16"  width="16" height="16" viewBox="0 0 16 16" xmlns="http://www.w3.org/2000/svg">
  <path fill-rule="evenodd" clip-rule="evenodd" d="M8.97434 3.65813C9.06167 3.39616 8.92009 3.113 8.65811 3.02567C8.39614 2.93835 8.11298 3.07993 8.02566 3.3419L7.47296 5.00001H5.5C5.22386 5.00001 5 5.22386 5 5.50001C5 5.77615 5.22386 6.00001 5.5 6.00001H7.13962L5.80629 10H3.5C3.22386 10 3 10.2239 3 10.5C3 10.7761 3.22386 11 3.5 11H5.47296L5.02566 12.3419C4.93833 12.6039 5.07991 12.887 5.34189 12.9744C5.60386 13.0617 5.88702 12.9201 5.97434 12.6581L6.52705 11H10.473L10.0257 12.3419C9.93833 12.6039 10.0799 12.887 10.3419 12.9744C10.6039 13.0617 10.887 12.9201 10.9743 12.6581L11.527 11H13.5C13.7761 11 14 10.7761 14 10.5C14 10.2239 13.7761 10 13.5 10H11.8604L13.1937 6.00001H15C15.2761 6.00001 15.5 5.77615 15.5 5.50001C15.5 5.22386 15.2761 5.00001 15 5.00001H13.527L13.9743 3.65813C14.0617 3.39616 13.9201 3.113 13.6581 3.02567C13.3961 2.93835 13.113 3.07993 13.0257 3.3419L12.473 5.00001H8.52705L8.97434 3.65813ZM12.1396 6.00001L10.8063 10H6.86038L8.19372 6.00001H12.1396ZM1 13C1.55228 13 2 12.5523 2 12C2 11.4477 1.55228 11 1 11C0.447715 11 0 11.4477 0 12C0 12.5523 0.447715 13 1 13Z" fill="currentColor"/>
</svg>
