<svg width="16" height="16" viewBox="0 0 16 16" xmlns="http://www.w3.org/2000/svg">
  <path fill-rule="evenodd" clip-rule="evenodd" d="M2.5 3C2.22386 3 2 3.22386 2 3.5C2 3.77614 2.22386 4 2.5 4H3.5C3.77614 4 4 3.77614 4 3.5C4 3.22386 3.77614 3 3.5 3H2.5ZM5.5 3C5.22386 3 5 3.22386 5 3.5C5 3.77614 5.22386 4 5.5 4H13.5C13.7761 4 14 3.77614 14 3.5C14 3.22386 13.7761 3 13.5 3H5.5ZM2 7.5C2 7.22386 2.22386 7 2.5 7H3.5C3.77614 7 4 7.22386 4 7.5C4 7.77614 3.77614 8 3.5 8H2.5C2.22386 8 2 7.77614 2 7.5ZM2.5 11C2.22386 11 2 11.2239 2 11.5C2 11.7761 2.22386 12 2.5 12H3.5C3.77614 12 4 11.7761 4 11.5C4 11.2239 3.77614 11 3.5 11H2.5ZM5 7.5C5 7.22386 5.22386 7 5.5 7H13.5C13.7761 7 14 7.22386 14 7.5C14 7.77614 13.7761 8 13.5 8H5.5C5.22386 8 5 7.77614 5 7.5ZM5.5 11C5.22386 11 5 11.2239 5 11.5C5 11.7761 5.22386 12 5.5 12H13.5C13.7761 12 14 11.7761 14 11.5C14 11.2239 13.7761 11 13.5 11H5.5Z" fill="currentColor"/>
</svg>
