<svg width="16" height="16" viewBox="0 0 16 16" xmlns="http://www.w3.org/2000/svg">
  <path fill-rule="evenodd" clip-rule="evenodd" d="M11.3355 2.55457C10.7062 2.23991 10.0605 2.14722 9.45922 2.38023C8.87681 2.60594 8.48346 3.08133 8.22057 3.58866C7.75328 4.49045 7.5604 5.75491 7.5279 7H6C5.58579 7 5.25 7.33579 5.25 7.75C5.25 8.16421 5.58579 8.5 6 8.5H7.50838C7.45533 10.3239 7.25474 11.1421 6.87965 12.0605C6.65937 12.5999 6.43978 12.7766 6.30239 12.8282C6.18273 12.8732 5.91568 12.9001 5.38599 12.5823C5.0308 12.3692 4.57011 12.4843 4.35699 12.8395C4.14388 13.1947 4.25906 13.6554 4.61424 13.8685C5.33455 14.3007 6.10159 14.506 6.82994 14.2324C7.54056 13.9654 7.9829 13.3265 8.26831 12.6276C8.74948 11.4494 8.95704 10.393 9.00913 8.5H10.5C10.9142 8.5 11.25 8.16421 11.25 7.75C11.25 7.33579 10.9142 7 10.5 7H9.0285C9.06171 5.86423 9.24059 4.88049 9.55238 4.27878C9.72131 3.95279 9.88478 3.82401 10.0012 3.77888C10.0988 3.74106 10.294 3.71087 10.6647 3.89621C11.0352 4.08145 11.4857 3.93128 11.6709 3.5608C11.8562 3.19031 11.706 2.73981 11.3355 2.55457Z" fill="currentColor"/>
</svg>
