<svg width="16" height="16"  viewBox="0 0 16 16" xmlns="http://www.w3.org/2000/svg">
  <path fill-rule="evenodd" clip-rule="evenodd" d="M7.65811 3.02567C7.92009 3.113 8.06167 3.39616 7.97434 3.65813L7.52705 5.00001H11.473L12.0257 3.3419C12.113 3.07993 12.3961 2.93835 12.6581 3.02567C12.9201 3.113 13.0617 3.39616 12.9743 3.65813L12.527 5.00001H14C14.2761 5.00001 14.5 5.22386 14.5 5.50001C14.5 5.77615 14.2761 6.00001 14 6.00001H12.1937L10.8604 10H12.5C12.7761 10 13 10.2239 13 10.5C13 10.7761 12.7761 11 12.5 11H10.527L9.97434 12.6581C9.88702 12.9201 9.60386 13.0617 9.34189 12.9744C9.07991 12.887 8.93833 12.6039 9.02566 12.3419L9.47296 11H5.52705L4.97434 12.6581C4.88702 12.9201 4.60386 13.0617 4.34189 12.9744C4.07991 12.887 3.93833 12.6039 4.02566 12.3419L4.47296 11H2.5C2.22386 11 2 10.7761 2 10.5C2 10.2239 2.22386 10 2.5 10H4.80629L6.13962 6.00001H4.5C4.22386 6.00001 4 5.77615 4 5.50001C4 5.22386 4.22386 5.00001 4.5 5.00001H6.47296L7.02566 3.3419C7.11298 3.07993 7.39614 2.93835 7.65811 3.02567ZM9.80629 10L11.1396 6.00001H7.19372L5.86038 10H9.80629Z" fill="currentColor"/>
</svg>
