<svg width="16" height="16" viewBox="0 0 16 16" xmlns="http://www.w3.org/2000/svg">
  <path fill-rule="evenodd" clip-rule="evenodd" d="M13.8536 2.85355C14.0488 2.65829 14.0488 2.34171 13.8536 2.14645C13.6583 1.95118 13.3417 1.95118 13.1464 2.14645L11.8744 3.41847C10.8291 2.53358 9.47685 2 8 2C4.68629 2 2 4.68629 2 8C2 9.47685 2.53358 10.8291 3.41847 11.8744L2.14645 13.1464C1.95118 13.3417 1.95118 13.6583 2.14645 13.8536C2.34171 14.0488 2.65829 14.0488 2.85355 13.8536L13.8536 2.85355ZM4.12853 11.1644L11.1644 4.12853C10.3024 3.42318 9.20064 3 8 3C5.23858 3 3 5.23858 3 8C3 9.20064 3.42318 10.3024 4.12853 11.1644ZM12.2851 5.42205L13.0099 4.69718C13.6357 5.64449 14 6.7797 14 8C14 11.3137 11.3137 14 8 14C6.7797 14 5.64449 13.6357 4.69718 13.0099L5.42205 12.2851C6.17483 12.7389 7.05692 13 8 13C10.7614 13 13 10.7614 13 8C13 7.05692 12.7389 6.17483 12.2851 5.42205Z" fill="currentColor"/>
</svg>
