<svg width="16" height="16" viewBox="0 0 16 16" xmlns="http://www.w3.org/2000/svg">
  <path fill-rule="evenodd" clip-rule="evenodd" d="M1.93177 6.11173C1.93855 6.641 1.94314 7 1.50001 7H1.5C1.22386 7 1 7.22386 1 7.5C1 7.77614 1.22386 8 1.5 8H1.50001C1.94314 8 1.93855 8.359 1.93177 8.88827C1.93091 8.95618 1.93 9.02689 1.93 9.1V12.38C1.93 12.8867 2.06 13.2833 2.32 13.57C2.58667 13.8567 2.98 14 3.5 14H4.5C4.77614 14 5 13.7761 5 13.5C5 13.2239 4.77614 13 4.5 13H4.2C4.00667 13 3.84333 12.9867 3.71 12.96C3.14418 12.8468 3 12.3242 3 11.9V8.76C3 8.68322 3.00183 8.60989 3.00357 8.54001V8.54001V8.54C3.01181 8.20944 3.01812 7.9561 2.82 7.78C2.67475 7.65492 2.50264 7.56159 2.30366 7.5C2.50264 7.43841 2.67475 7.34508 2.82 7.22C3.01812 7.0439 3.01181 6.79056 3.00357 6.46V6.45999V6.45999C3.00183 6.39011 3 6.31678 3 6.24V4.1C3 3.67579 3.14418 3.15316 3.71 3.04C3.84333 3.01333 4.00667 3 4.2 3H4.5C4.77614 3 5 2.77614 5 2.5C5 2.22386 4.77614 2 4.5 2H3.5C2.98 2 2.58667 2.14333 2.32 2.43C2.06 2.71667 1.93 3.11333 1.93 3.62V5.9C1.93 5.97311 1.93091 6.04382 1.93177 6.11173ZM14.0682 6.11173C14.0615 6.641 14.0569 7 14.5 7C14.7761 7 15 7.22386 15 7.5C15 7.77614 14.7761 8 14.5 8C14.0569 8 14.0615 8.359 14.0682 8.88827V8.88836C14.0691 8.95624 14.07 9.02692 14.07 9.1V12.38C14.07 12.8867 13.94 13.2833 13.68 13.57C13.4133 13.8567 13.02 14 12.5 14H11.5C11.2239 14 11 13.7761 11 13.5C11 13.2239 11.2239 13 11.5 13H11.8C11.9933 13 12.1567 12.9867 12.29 12.96C12.8558 12.8468 13 12.3242 13 11.9V8.76C13 8.68322 12.9982 8.60989 12.9964 8.54001V8.54V8.53999C12.9882 8.20943 12.9819 7.9561 13.18 7.78C13.3253 7.65492 13.4974 7.56159 13.6963 7.5C13.4974 7.43841 13.3253 7.34508 13.18 7.22C12.9819 7.0439 12.9882 6.79057 12.9964 6.46001V6.46V6.45999C12.9982 6.39011 13 6.31678 13 6.24V4.1C13 3.67579 12.8558 3.15316 12.29 3.04C12.1567 3.01333 11.9933 3 11.8 3H11.5C11.2239 3 11 2.77614 11 2.5C11 2.22386 11.2239 2 11.5 2H12.5C13.02 2 13.4133 2.14333 13.68 2.43C13.94 2.71667 14.07 3.11333 14.07 3.62V5.9C14.07 5.97308 14.0691 6.04376 14.0682 6.11164V6.11173Z" fill="currentColor"/>
</svg>
