<svg width="16" height="16" viewBox="0 0 16 16" xmlns="http://www.w3.org/2000/svg">
  <path fill-rule="evenodd" clip-rule="evenodd" d="M2.54735 10.5687C2.45778 10.8269 2.21447 11 1.94117 11C1.489 11 1.1787 10.5448 1.34393 10.1239L3.89151 3.63457C4.04179 3.25177 4.4111 3 4.82234 3H4.98021C5.39146 3 5.76077 3.25177 5.91105 3.63457L8.45883 10.1244C8.62396 10.5451 8.31383 11 7.86193 11C7.58839 11 7.34496 10.8265 7.25575 10.5679L6.60795 8.69034H3.19886L2.54735 10.5687ZM4.86932 4.5L3.58239 7.58239H6.22443L4.9375 4.5H4.86932ZM13.7045 10.2358C13.4616 10.7259 12.8523 11.2 11.7699 11.2C10.5256 11.2 9.5 10.5682 9.5 9.28125C9.5 7.79403 10.8281 7.47017 12.0682 7.32528C12.204 7.30954 12.3305 7.29572 12.448 7.28289C13.3482 7.18458 13.7216 7.1438 13.7216 6.73295V6.70312C13.7216 5.96165 13.2997 5.53125 12.4773 5.53125C11.905 5.53125 11.502 5.73101 11.2416 6.00214C11.0306 6.22191 10.7375 6.39344 10.4405 6.32577C10.0777 6.24315 9.8626 5.85365 10.0799 5.55167C10.6142 4.8091 11.5069 4.5 12.4602 4.5C13.5 4.5 15 4.87926 15 6.78409V10.3778C15 10.7214 14.7214 11 14.3778 11C14.0342 11 13.7557 10.7214 13.7557 10.3778V10.2358H13.7045ZM10.8068 9.2983C10.8068 9.92898 11.3267 10.2528 12.0469 10.2528C13.108 10.2528 13.7259 9.54545 13.7259 8.76989V7.92614C13.5598 8.09218 12.7394 8.19874 12.2793 8.2585L12.2793 8.2585C12.2317 8.26469 12.1879 8.27037 12.1491 8.27557C11.4119 8.37358 10.8068 8.61648 10.8068 9.2983ZM1.5 13C1.22386 13 1 13.2239 1 13.5C1 13.7761 1.22386 14 1.5 14H14.5C14.7761 14 15 13.7761 15 13.5C15 13.2239 14.7761 13 14.5 13H1.5Z" fill="currentColor"/>
</svg>
