<svg width="16" height="16" viewBox="0 0 16 16" xmlns="http://www.w3.org/2000/svg">
  <path fill-rule="evenodd" clip-rule="evenodd" d="M5.06101 5.33689C5.32727 3.93891 6.44402 3 7.99999 3C9.51636 3 11 4.04977 11 5.66667C11 6.83243 9.75892 7.67992 8.87929 8.28059C8.84449 8.30435 8.81026 8.32773 8.77669 8.35072C8.46506 8.5642 8.35642 9.0272 8.32454 9.42783C8.29473 9.80246 8.00246 10.1333 7.62665 10.1333C7.28055 10.1333 6.99999 9.85277 6.99999 9.50668V8.76667C6.99999 8.26075 7.56407 7.88531 8.17337 7.47977C8.88884 7.00356 9.66666 6.48586 9.66666 5.66667C9.66666 4.84306 8.77669 4.33333 7.99999 4.33333C7.45727 4.33333 6.69363 4.53097 6.42845 5.34277C6.31412 5.69276 6.03485 6 5.66666 6C5.29847 6 4.99213 5.69858 5.06101 5.33689ZM7.74999 12.5C7.33578 12.5 6.99999 12.1642 6.99999 11.75C6.99999 11.3358 7.33578 11 7.74999 11C8.1642 11 8.49999 11.3358 8.49999 11.75C8.49999 12.1642 8.1642 12.5 7.74999 12.5Z" fill="currentColor"/>
</svg>
