<svg width="16" height="16" viewBox="0 0 16 16" fill="none" xmlns="http://www.w3.org/2000/svg">
  <rect x="1" y="1" width="14" height="14" rx="2" fill="var(--tbl--ui-node-icon--enrichment--lead-magic-primary)"/>
  <path
    fill-rule="evenodd"
    clip-rule="evenodd"
    d="M7.65934 5.367L7.77364 2.99998L7.04198 3.0323L7.65934 5.367ZM11.2883 4.24281L9.46521 5.75681L10.7704 3.72497L11.2883 4.24281ZM7.04184 5.7964L7.35255 6.93568H6.31684L7.04184 7.66068L6.52398 8.59283L7.35255 8.07497L7.5597 9.00711L8.18113 8.38568L8.90613 9.00711L8.69898 8.07497L9.63113 7.86783L8.90613 7.45354L9.63113 6.72854H8.69898V5.7964L7.97398 6.5214L7.04184 5.7964ZM7.79318 10.2595C7.72612 9.93377 7.97491 9.62854 8.30747 9.62854C8.58548 9.62854 8.81531 9.84525 8.83163 10.1228L8.98907 12.7992C9.00027 12.9895 8.84896 13.15 8.65833 13.15C8.5011 13.15 8.36552 13.0395 8.33382 12.8855L7.79318 10.2595ZM9.94184 7.34997L12.2204 7.55711V6.83211L9.94184 7.34997ZM4.65147 4.44997L6.26051 6.18976L4.16197 4.99472L4.65147 4.44997ZM6.00721 7.64609L3.67078 8.33625V7.68L6.00721 7.64609Z"
    fill="var(--tbl--ui-node-icon--enrichment--lead-magic-secondary)"
  />
</svg>
