<svg xmlns="http://www.w3.org/2000/svg" width="16" height="16" fill="none" viewBox="0 0 16 16">
  <path fill="var(--tbl--colors--brand--snowflake)" fill-rule="evenodd" d="M5.91 6.052 2.949 4.347a.867.867 0 1 1 .87-1.504l1.683.969V1.866a.867.867 0 0 1 1.734 0v3.419a.86.86 0 0 1-.28.637.872.872 0 0 1-1.044.13Zm-.247 1.96a.85.85 0 0 0-.425-.75L2.276 5.555a.852.852 0 0 0-1.162.31.848.848 0 0 0 .312 1.159l1.707.983-1.707.983a.839.839 0 0 0-.396.515.84.84 0 0 0 .084.644.853.853 0 0 0 1.162.31l2.962-1.705a.852.852 0 0 0 .425-.744Zm7.368 3.658L10.07 9.963a.873.873 0 0 0-1.302.836v3.337a.866.866 0 0 0 1.734 0v-1.919l1.66.956c.416.24.95.097 1.19-.318a.865.865 0 0 0-.32-1.185ZM9.61 8.15a.335.335 0 0 1-.085.204l-1.174 1.17a.333.333 0 0 1-.204.085h-.3a.333.333 0 0 1-.203-.084L6.468 8.354a.335.335 0 0 1-.084-.204v-.298c0-.067.037-.158.084-.204l1.176-1.173a.333.333 0 0 1 .204-.084h.299c.065 0 .157.038.204.084l1.174 1.173a.329.329 0 0 1 .085.204v.298Zm-1.048-.144v-.012a.248.248 0 0 0-.062-.15l-.347-.345a.237.237 0 0 0-.15-.063H7.99a.243.243 0 0 0-.15.063l-.345.345a.242.242 0 0 0-.062.15v.012c0 .05.028.116.062.15l.345.346a.25.25 0 0 0 .15.062h.013c.05 0 .116-.028.15-.062l.347-.346a.242.242 0 0 0 .062-.15Zm4.47-3.66-2.963 1.706a.872.872 0 0 1-1.302-.835V1.866a.867.867 0 0 1 1.734 0v1.933l1.66-.956a.872.872 0 0 1 1.19.317.867.867 0 0 1-.32 1.187ZM6.504 9.863a.865.865 0 0 0-.594.1L2.948 11.67a.866.866 0 0 0-.32 1.185.87.87 0 0 0 1.19.318l1.683-.969v1.932a.866.866 0 0 0 1.734 0v-3.42a.866.866 0 0 0-.73-.854Zm7.189-4.324a.87.87 0 0 1 1.189.318.865.865 0 0 1-.32 1.185l-1.677.967 1.678.966c.416.24.56.771.319 1.186a.873.873 0 0 1-1.19.318l-2.962-1.707a.866.866 0 0 1-.435-.76.869.869 0 0 1 .435-.767l2.963-1.706Z" clip-rule="evenodd"/>
</svg>
