<svg xmlns="http://www.w3.org/2000/svg" width="24" height="24" fill="none" viewBox="0 0 24 24">
  <path fill="var(--tbl--colors--brand--snowflake)" fill-rule="evenodd" d="M9.015 9.218 4.783 6.78a1.24 1.24 0 0 1-.456-1.695 1.245 1.245 0 0 1 1.699-.453l2.403 1.384v-2.78a1.238 1.238 0 0 1 2.478 0V8.12c0 .36-.153.683-.4.91-.39.38-.998.473-1.492.187Zm-.353 2.798c.007-.44-.225-.85-.607-1.071L3.822 8.508a1.217 1.217 0 0 0-1.659.444 1.211 1.211 0 0 0 .445 1.655l2.44 1.404-2.44 1.405a1.198 1.198 0 0 0-.566.735 1.2 1.2 0 0 0 .121.92 1.219 1.219 0 0 0 1.66.444l4.232-2.437c.378-.219.61-.625.607-1.062Zm10.526 5.227-4.233-2.44a1.247 1.247 0 0 0-1.699.455c-.133.234-.185.491-.16.74v4.767c0 .681.555 1.235 1.24 1.235.682 0 1.237-.554 1.237-1.235v-2.74l2.372 1.365a1.245 1.245 0 0 0 1.698-.454 1.235 1.235 0 0 0-.455-1.693Zm-4.888-5.03a.478.478 0 0 1-.121.292L12.5 14.178a.477.477 0 0 1-.291.12h-.427a.477.477 0 0 1-.292-.12l-1.68-1.673a.478.478 0 0 1-.12-.291v-.426a.47.47 0 0 1 .12-.291l1.68-1.675a.477.477 0 0 1 .292-.12h.427c.093 0 .225.053.291.12l1.678 1.675a.47.47 0 0 1 .12.29v.427Zm-1.498-.204v-.018a.355.355 0 0 0-.088-.214l-.495-.492a.34.34 0 0 0-.215-.09h-.018a.347.347 0 0 0-.214.09l-.494.492a.345.345 0 0 0-.088.214v.018c0 .07.04.165.088.214l.494.494c.05.049.146.088.214.088h.018c.07 0 .166-.04.215-.088l.495-.494a.346.346 0 0 0 .088-.214Zm6.386-5.228-4.233 2.437a1.24 1.24 0 0 1-1.86-1.193V3.236a1.238 1.238 0 0 1 2.478 0v2.762l2.371-1.366a1.245 1.245 0 0 1 1.7.453 1.239 1.239 0 0 1-.456 1.695ZM9.864 14.66a1.236 1.236 0 0 0-.849.144l-4.232 2.438c-.595.342-.8 1.1-.456 1.694a1.244 1.244 0 0 0 1.699.454l2.403-1.384v2.76c0 .68.555 1.234 1.24 1.234.683 0 1.238-.554 1.238-1.235V15.88c0-.616-.452-1.127-1.043-1.22Zm10.27-6.177a1.244 1.244 0 0 1 1.699.454c.344.594.14 1.352-.456 1.693l-2.396 1.38 2.396 1.381c.595.343.8 1.102.456 1.695a1.247 1.247 0 0 1-1.7.455l-4.231-2.44a1.237 1.237 0 0 1-.622-1.085 1.241 1.241 0 0 1 .622-1.096l4.232-2.437Z" clip-rule="evenodd"/>
</svg>
