<svg width="16" height="16" viewBox="0 0 16 16" fill="none" xmlns="http://www.w3.org/2000/svg">
  <path
    fill-rule="evenodd"
    clip-rule="evenodd"
    d="M7.95 9.51586C8.5261 9.50506 8.8372 9.50227 9.40679 9.5C9.4253 9.49993 9.44381 9.50188 9.46506 9.50412L9.46509 9.50413C9.4759 9.50527 9.48742 9.50648 9.5 9.50755V14.5H8.5C8.48067 13.7389 8.48798 12.9774 8.49532 12.2136V12.2136V12.2135C8.50101 11.6212 8.50671 11.0274 8.5 10.4316H7.375C7.49572 10.2716 7.58261 10.1172 7.66855 9.96443C7.75292 9.81449 7.83636 9.66617 7.95 9.51586ZM4.95767 10.4592C5.15732 10.1607 5.35953 9.86393 5.56271 9.56784C5.58173 9.54014 5.61535 9.50365 5.64269 9.50322C5.87686 9.49958 6.1111 9.49987 6.35195 9.50016H6.35201L6.55214 9.50032V12.6261H7V13.5084H6.55822V14.5H5.62682V13.5236H3.50277C3.50277 13.4496 3.50208 13.3749 3.50139 13.3002L3.50139 13.3V13.3C3.50069 13.2252 3.5 13.1503 3.5 13.0761C3.51831 12.7653 3.55047 12.4959 3.74722 12.2426C3.89529 12.052 4.02647 11.8484 4.15768 11.6448L4.15769 11.6447C4.22115 11.5462 4.28462 11.4477 4.35001 11.3507C4.42751 11.2356 4.48574 11.1515 4.54951 11.0593L4.54952 11.0593C4.64517 10.921 4.7533 10.7647 4.95767 10.4592ZM4.83498 12.2211L4.57485 12.6181H5.61422V11.1207L5.59502 11.1114L5.59458 11.112C5.345 11.4776 5.09543 11.8432 4.83498 12.2211ZM12.2818 9.5C11.7122 9.50227 11.4011 9.50506 10.825 9.51586C10.7114 9.66617 10.6279 9.81449 10.5436 9.96443C10.4576 10.1172 10.3707 10.2716 10.25 10.4316H11.375C11.3817 11.0275 11.376 11.6212 11.3703 12.2136C11.363 12.9773 11.3557 13.7389 11.375 14.5H12.375V9.50755C12.3624 9.50648 12.3509 9.50527 12.3401 9.50413C12.3188 9.50188 12.3003 9.49993 12.2818 9.5Z"
    fill="var(--tbl--ui-node-icon--enrichment--lead411-primary)"
  />
  <path
    fill-rule="evenodd"
    clip-rule="evenodd"
    d="M1.15601 2.064H0.156006V8H1.15601V2.064ZM6.15602 6.184C6.16668 6.056 6.17202 5.95733 6.17202 5.888C6.17202 5.45067 6.07868 5.06667 5.89202 4.736C5.71068 4.4 5.45468 4.14133 5.12402 3.96C4.79868 3.77333 4.42802 3.68 4.01202 3.68C3.59068 3.68 3.21202 3.77333 2.87602 3.96C2.54002 4.14667 2.27602 4.408 2.08402 4.744C1.89735 5.07467 1.80402 5.448 1.80402 5.864C1.80402 6.28533 1.90002 6.664 2.09202 7C2.28935 7.33067 2.56668 7.58933 2.92402 7.776C3.28135 7.96267 3.69468 8.056 4.16402 8.056C4.53202 8.056 4.86268 7.99733 5.15602 7.88C5.44935 7.76267 5.69202 7.58933 5.88402 7.36L5.34802 6.744C5.04402 7.05333 4.65735 7.208 4.18802 7.208C3.82002 7.208 3.51068 7.11733 3.26002 6.936C3.01468 6.74933 2.86268 6.49867 2.80402 6.184H6.15602ZM3.19602 4.768C3.42002 4.576 3.69202 4.48 4.01202 4.48C4.33735 4.48 4.60935 4.576 4.82802 4.768C5.04668 4.96 5.17735 5.21067 5.22002 5.52H2.79602C2.84402 5.20533 2.97735 4.95467 3.19602 4.768ZM11.028 8H10.076V7.448C9.91067 7.65067 9.70533 7.80267 9.46 7.904C9.22 8.00533 8.95333 8.056 8.66 8.056C8.244 8.056 7.87067 7.96533 7.54 7.784C7.21467 7.60267 6.95867 7.34667 6.772 7.016C6.59067 6.68533 6.5 6.30133 6.5 5.864C6.5 5.42667 6.59067 5.04533 6.772 4.72C6.95867 4.38933 7.21467 4.13333 7.54 3.952C7.87067 3.77067 8.244 3.68 8.66 3.68C8.93733 3.68 9.19067 3.728 9.42 3.824C9.65467 3.92 9.85733 4.06133 10.028 4.248V3.728H11.028V8ZM8.772 7.2C9.14 7.2 9.444 7.07733 9.684 6.832C9.924 6.58667 10.044 6.264 10.044 5.864C10.044 5.464 9.924 5.14133 9.684 4.896C9.444 4.65067 9.14 4.528 8.772 4.528C8.404 4.528 8.1 4.65067 7.86 4.896C7.62533 5.14133 7.508 5.464 7.508 5.864C7.508 6.264 7.62533 6.58667 7.86 6.832C8.1 7.07733 8.404 7.2 8.772 7.2ZM16.036 8V2.064H15.036V4.256C14.8707 4.064 14.6707 3.92 14.436 3.824C14.2013 3.728 13.9427 3.68 13.66 3.68C13.2493 3.68 12.8787 3.77067 12.548 3.952C12.2227 4.13334 11.9667 4.38934 11.78 4.72C11.5933 5.05067 11.5 5.432 11.5 5.864C11.5 6.296 11.5933 6.68 11.78 7.016C11.9667 7.34667 12.2227 7.60267 12.548 7.784C12.8787 7.96534 13.2493 8.056 13.66 8.056C13.9533 8.056 14.22 8.00534 14.46 7.904C14.7053 7.80267 14.9107 7.65067 15.076 7.448V8H16.036ZM14.428 7.04C14.236 7.14667 14.02 7.2 13.78 7.2C13.54 7.2 13.324 7.14667 13.132 7.04C12.94 6.928 12.788 6.77067 12.676 6.568C12.564 6.36534 12.508 6.13067 12.508 5.864C12.508 5.59734 12.564 5.36267 12.676 5.16C12.788 4.95734 12.94 4.80267 13.132 4.696C13.324 4.584 13.54 4.528 13.78 4.528C14.02 4.528 14.236 4.584 14.428 4.696C14.62 4.80267 14.772 4.95734 14.884 5.16C14.996 5.36267 15.052 5.59734 15.052 5.864C15.052 6.13067 14.996 6.36534 14.884 6.568C14.772 6.77067 14.62 6.928 14.428 7.04Z"
    fill="var(--tbl--ui-node-icon--enrichment--lead411-secondary)"
  />
</svg>
