<svg xmlns="http://www.w3.org/2000/svg" width="24" height="24" fill="none" viewBox="0 0 24 24">
  <path
    fill="var(--tbl--colors--icons--clean--secondary)"
    d="M20 3H2V19.0015C2 19.8985 3.08973 20.3419 3.71596 19.6996L20 3Z"
  />
  <path
    fill="var(--tbl--colors--icons--clean--primary)"
    fill-rule="evenodd"
    d="M3 2C2.44772 2 2 2.44772 2 3C2 3.55228 2.44772 4 3 4H19C19.5523 4 20 3.55228 20 3C20 2.44772 19.5523 2 19 2H3ZM19 10C19 9.44771 18.5523 9 18 9C17.4477 9 17 9.44771 17 10V16.5858L15.7071 15.2929C15.3166 14.9024 14.6834 14.9024 14.2929 15.2929C13.9024 15.6834 13.9024 16.3166 14.2929 16.7071L17.2929 19.7071C17.4804 19.8946 17.7348 20 18 20C18.2652 20 18.5196 19.8946 18.7071 19.7071L21.7071 16.7071C22.0976 16.3166 22.0976 15.6834 21.7071 15.2929C21.3166 14.9024 20.6834 14.9024 20.2929 15.2929L19 16.5858V10Z"
    clip-rule="evenodd"
  />
</svg>
