<svg xmlns="http://www.w3.org/2000/svg" width="32" height="32" fill="none" viewBox="0 0 32 32">
  <path fill="var(--tbl--colors--brand--postgres)" fill-rule="evenodd" d="M18.803 2.47A12.535 12.535 0 0 1 22.116 2v.003c.066 0 .132 0 .198.002 2.134.023 4.89.695 6.852 3.126.628.779.713 1.678.698 2.694-.016 1.016-.205 2.178-.541 3.438-.563 2.114-1.546 4.5-2.914 6.75.143.01.285.025.425.045a7.75 7.75 0 0 0 1.156-.185c.42-.096.843-.193 1.47.27.357.262.572.831.536 1.195a1.634 1.634 0 0 1-.024.165 6 6 0 0 1-7.686 9.21c-.814.736-1.826 1.02-2.655 1.193-1.449.3-2.721-.153-3.37-.881-.553-.619-.755-1.308-.84-1.598-.015-.05-.026-.089-.035-.112-.359-.94-.402-2.008-.449-3.162l-.005-.142-.003-.075c-.015-.356-.03-.709-.042-1.069a4.53 4.53 0 0 1-1.052.315c-.996.165-1.846.004-2.343-.116a3.364 3.364 0 0 1-.817-.31l-.009-.005c-.215-.114-.451-.24-.672-.522-.46.37-.992.62-1.581.644-.84.034-1.552-.377-2.069-.866-1.035-.975-1.698-2.41-2.303-4.008-.605-1.598-1.09-3.349-1.434-4.844-.345-1.496-.554-2.651-.59-3.36-.132-2.566.496-4.452 1.683-5.672C4.89 2.904 6.497 2.47 7.969 2.392c2.114-.112 4.12.45 5.087.775.981-.556 2.198-.89 3.615-.866.69.012 1.377.076 2.056.192l.076-.023Zm9.713 8.555c-.58 2.178-1.637 4.69-3.112 7.004-.51.05-1.003.165-1.467.335a6.93 6.93 0 0 0-.187-.236c-.33-.387-.6-.82-.8-1.282-.098-.191-.2-.38-.31-.564l-.059-.103c-.15-.26-.328-.573-.515-.92-.423-.787-.883-1.742-1.123-2.671-.238-.93-.273-1.89.338-2.568.541-.602 1.491-.852 2.918-.712a4.263 4.263 0 0 1-.033-.1 2.784 2.784 0 0 0-.106-.287 9.067 9.067 0 0 0-1.252-2.058c-1.208-1.5-3.165-2.986-6.188-3.034h-.138v-.002c-1.422.004-2.441.42-3.215 1.044-.797.645-1.332 1.529-1.683 2.433-.418 1.073-.56 2.111-.617 2.816l.015-.01c.43-.233.994-.466 1.598-.601.603-.134 1.254-.176 1.843.045.59.222 1.076.743 1.253 1.534.72 3.228.027 4.733-.449 5.767-.084.183-.162.352-.223.512-.155.387-.288.781-.398 1.182l.03-.007c.042-.01.084-.02.125-.023.289-.023.515.07.65.126.41.166.693.513.846.91.04.104.068.216.085.331a.383.383 0 0 1 .024.149 62.416 62.416 0 0 0 .016 4.36c.028.628.069 1.181.12 1.617.052.436.125.767.172.88.154.372.379.861.785 1.194.407.331.99.553 2.056.331.829-.173 1.373-.406 1.752-.73.162.209.338.406.527.592-.515.438-1.21.715-2.11.902-1.248.26-2.158-.02-2.745-.5-.586-.477-.854-1.112-1.015-1.5-.11-.269-.169-.617-.224-1.081a23.01 23.01 0 0 1-.124-1.673 58.359 58.359 0 0 1-.036-2.944 3.727 3.727 0 0 1-1.866.887c-.829.137-1.568.002-2.01-.105a2.788 2.788 0 0 1-.625-.234c-.204-.107-.4-.227-.53-.463a.636.636 0 0 1-.068-.445.711.711 0 0 1 .262-.386c.239-.188.554-.293 1.029-.389.864-.172 1.166-.29 1.35-.431.105-.082.219-.218.377-.408.077-.093.166-.2.269-.318a1.28 1.28 0 0 1-.004-.048 3.645 3.645 0 0 1-1.6-.418c-.18.185-1.1 1.13-2.224 2.441-.472.549-.994.863-1.545.886-.55.023-1.049-.247-1.472-.644-.845-.797-1.52-2.168-2.108-3.717-.587-1.55-1.064-3.275-1.404-4.745-.34-1.47-.54-2.656-.57-3.227-.126-2.43.46-4.066 1.464-5.099C5.27 3.588 6.648 3.197 7.992 3.122c2.41-.134 4.7.682 5.163.857.893-.588 2.042-.955 3.478-.931.682.009 1.36.094 2.022.254l.024-.01c.291-.1.588-.183.889-.25a11.915 11.915 0 0 1 2.49-.293l.001-.002c2.018-.019 4.596.53 6.447 2.825.416.516.54 1.27.526 2.198-.016.928-.193 2.039-.516 3.255Zm.529 7.804a5.963 5.963 0 0 0-.482-.256c.132.015.257.06.383.154.037.03.07.064.099.102Zm-6.979-15.3h.176v-.002c1.83.014 4.014.524 5.628 2.526.206.254.367.863.355 1.703-.015.84-.18 1.9-.49 3.071-.58 2.174-1.666 4.723-3.174 7.027l-.027-.033a18.244 18.244 0 0 0-.019-.023c-.03-.037-.06-.075-.092-.112.57-.918.676-1.854.633-2.706-.02-.393-.066-.773-.11-1.134-.058-.47-.112-.91-.098-1.31a9.32 9.32 0 0 1 .13-1.175c.073-.474.146-.943.126-1.515l.003-.006a.5.5 0 0 0 .019-.178 1.55 1.55 0 0 0-.048-.275 5.253 5.253 0 0 0-.272-.77 9.784 9.784 0 0 0-1.361-2.24 8.969 8.969 0 0 0-3.428-2.625 10.82 10.82 0 0 1 2.05-.224ZM8.037 3.9a8.506 8.506 0 0 1 .913-.002c1.42.068 2.73.427 3.468.663-.751.714-1.253 1.596-1.59 2.464a11.234 11.234 0 0 0-.711 3.939v.014a.41.41 0 0 0 0 .022c0 .116.01.262.021.445.014.225.032.504.04.846a14.07 14.07 0 0 1-.126 2.306 3.966 3.966 0 0 0 .217 2.011 4.08 4.08 0 0 0 1.186 1.664 50.979 50.979 0 0 0-2.177 2.39c-.383.446-.697.592-.958.604-.26.01-.546-.115-.875-.424-.655-.618-1.344-1.925-1.913-3.427-.567-1.501-1.04-3.2-1.373-4.645-.334-1.445-.529-2.66-.552-3.094-.118-2.293.423-3.678 1.246-4.522.821-.845 1.97-1.187 3.184-1.254Zm13.851 6.63c.241-.266.7-.47 1.516-.48.297 0 .595.018.89.055-.01.367-.06.705-.114 1.067-.059.397-.122.821-.139 1.34-.017.508.046 1.013.109 1.512.042.335.083.667.1.996.033.663-.024 1.299-.34 1.946a3.707 3.707 0 0 1-.214-.422c-.064-.15-.163-.321-.296-.552l-.055-.095-.046-.08c-.15-.263-.331-.578-.517-.924-.409-.762-.844-1.679-1.055-2.499-.211-.819-.179-1.484.161-1.863Zm-9.127-.26c.243-.056.491-.085.74-.087.215-.004.429.029.631.098.36.136.623.376.755.97.67 3.006.128 4.162-.356 5.195-.1.215-.2.426-.284.646l-.06.155c-.147.381-.288.747-.378 1.108-1.754-.003-3.246-1.655-2.959-3.65.133-.918.15-1.766.135-2.431a24.198 24.198 0 0 0-.057-1.191l.027-.024c.131-.1.272-.189.42-.266.436-.233.902-.41 1.386-.523Zm10.322.151h-.06v-.003a1.616 1.616 0 0 0-.193.015 1.372 1.372 0 0 0-.448.135.46.46 0 0 0-.141.105.197.197 0 0 0-.05.15.3.3 0 0 0 .075.148c.045.053.098.1.156.137.144.098.32.141.493.12a.821.821 0 0 0 .465-.247.779.779 0 0 0 .132-.175.274.274 0 0 0 .042-.157l.001-.01a.19.19 0 0 0-.09-.128.502.502 0 0 0-.166-.064 1.088 1.088 0 0 0-.216-.026Zm-9.265.211a1.502 1.502 0 0 0-.2-.015v.005a1.07 1.07 0 0 0-.37.047c-.104.036-.212.101-.23.227a.32.32 0 0 0 .05.207c.037.07.085.134.142.19.132.142.31.236.505.267a.787.787 0 0 0 .538-.132.774.774 0 0 0 .172-.152.349.349 0 0 0 .09-.18.253.253 0 0 0-.064-.198.533.533 0 0 0-.16-.123 1.347 1.347 0 0 0-.473-.143Zm1.013 8.662h.025v.002a.8.8 0 0 1 .245.07c.13.053.314.24.398.459.083.218.072.42-.029.558-.585.797-1.272 1.104-1.932 1.214-.66.108-1.293 0-1.678-.093a2.041 2.041 0 0 1-.435-.166c-.036-.019-.046-.028-.06-.04a.405.405 0 0 0-.024-.022c.108-.05.27-.112.554-.168.896-.179 1.345-.32 1.69-.587.21-.163.347-.333.517-.545.109-.134.23-.286.393-.463.18-.192.272-.213.336-.22ZM26 29a5 5 0 1 0 0-10 5 5 0 0 0 0 10Zm.5-7.5a.5.5 0 0 0-1 0v4.293l-1.146-1.147a.5.5 0 0 0-.708.708l2 2a.5.5 0 0 0 .708 0l2-2a.5.5 0 0 0-.708-.708L26.5 25.793V21.5Z" clip-rule="evenodd"/>
</svg>
