<svg xmlns="http://www.w3.org/2000/svg" width="24" height="24" fill="none" viewBox="0 0 24 24">
  <path fill="var(--tbl--colors--brand--postgres)" fill-rule="evenodd" d="M16.334 1a9.29 9.29 0 0 0-2.526.37l-.057.018a10.014 10.014 0 0 0-1.568-.151c-1.08-.019-2.008.243-2.756.68-.737-.256-2.266-.697-3.877-.609-1.122.061-2.347.402-3.254 1.36-.905.958-1.384 2.44-1.283 4.457.028.557.186 1.464.45 2.64.263 1.175.632 2.55 1.093 3.805.461 1.256.966 2.384 1.755 3.15.395.384.937.707 1.577.68.45-.018.855-.215 1.206-.506.168.222.348.32.512.41l.006.004c.21.114.413.192.624.244.378.094 1.026.22 1.785.091.259-.043.531-.127.802-.247l.032.839.002.059.005.112c.035.907.068 1.745.342 2.484.007.019.015.049.027.089.064.227.218.769.64 1.255.494.572 1.464.928 2.569.692.56-.12 1.228-.309 1.805-.753a5 5 0 0 0 6.044-7.94c-.067-.212-.192-.425-.357-.55-.373-.283-.652-.3-.908-.256a4.966 4.966 0 0 0-1.13-.348 20.988 20.988 0 0 0 1.933-4.8c.257-.99.4-1.904.413-2.702.012-.798-.053-1.505-.532-2.117-1.495-1.91-3.597-2.438-5.223-2.456-.05-.001-.1-.002-.151-.001V1Zm2.857 12.004c.942-1.649 1.627-3.385 2.021-4.913.247-.956.381-1.828.393-2.557.011-.73-.083-1.322-.4-1.727-1.41-1.803-3.376-2.235-4.914-2.22l-.001.002a8.824 8.824 0 0 0-1.899.23c-.23.052-.455.118-.677.196l-.019.008a6.775 6.775 0 0 0-1.54-.2c-1.095-.018-1.971.27-2.651.732-.353-.138-2.099-.779-3.937-.673-1.024.059-2.074.366-2.84 1.177S1.515 5.156 1.61 7.065c.022.449.175 1.38.434 2.535.259 1.155.623 2.511 1.07 3.728.448 1.218.963 2.295 1.607 2.92.323.313.702.525 1.122.507.42-.017.818-.265 1.178-.696a40.226 40.226 0 0 1 1.696-1.918c.375.204.793.317 1.22.329 0 .012 0 .025.002.037-.079.093-.146.177-.205.25-.12.15-.208.257-.287.32-.14.111-.37.204-1.03.34-.362.075-.602.157-.784.305a.56.56 0 0 0-.2.303.513.513 0 0 0 .053.35c.099.186.247.28.403.363.15.081.311.143.477.185.336.084.9.19 1.532.082a2.806 2.806 0 0 0 1.422-.697c-.01.771 0 1.543.028 2.313.02.504.052.95.094 1.315s.086.638.17.849c.123.305.328.803.774 1.18.448.376 1.142.596 2.093.392.538-.116.98-.274 1.334-.503a5.03 5.03 0 0 1-.465-.438c-.255.14-.579.25-.998.34-.812.174-1.257 0-1.567-.26-.31-.261-.481-.645-.598-.939-.036-.088-.092-.348-.131-.69-.04-.343-.071-.777-.092-1.27a50.579 50.579 0 0 1-.012-3.427.308.308 0 0 0-.018-.117 1.254 1.254 0 0 0-.065-.26c-.117-.311-.332-.585-.646-.715a1.003 1.003 0 0 0-.495-.099c-.031.003-.063.01-.094.018l-.024.006c.084-.315.185-.625.303-.929.047-.126.106-.258.17-.402.363-.812.891-1.995.343-4.531-.135-.622-.506-1.031-.955-1.206-.45-.174-.945-.14-1.406-.035-.46.106-.89.29-1.217.473l-.012.007c.043-.554.152-1.37.47-2.213.268-.71.676-1.404 1.284-1.911.59-.49 1.367-.818 2.45-.82v.001h.105c2.305.038 3.796 1.206 4.718 2.384.387.495.708 1.038.954 1.617.039.092.06.16.08.225l.025.079c-1.087-.11-1.811.086-2.223.56-.466.532-.44 1.287-.258 2.017s.533 1.48.856 2.099c.142.272.279.518.392.723l.045.08c.084.146.162.294.236.444.093.22.205.43.334.63.3-.108.612-.188.935-.237.307-.635.366-1.272.337-1.86-.015-.308-.05-.607-.084-.89-.044-.37-.085-.715-.075-1.03.01-.337.055-.63.1-.923.055-.372.111-.74.096-1.19 0-.001 0-.003.002-.005a.021.021 0 0 0 .003-.007c.015-.062.013-.097.011-.132a1.253 1.253 0 0 0-.037-.217 4.218 4.218 0 0 0-.207-.605 7.737 7.737 0 0 0-1.037-1.76 6.869 6.869 0 0 0-2.613-2.062 8.011 8.011 0 0 1 1.562-.176h.134V2.2c1.395.01 3.06.412 4.29 1.985.157.2.28.678.27 1.338-.01.66-.136 1.493-.373 2.413-.407 1.574-1.143 3.399-2.156 5.093a5.051 5.051 0 0 1 .73-.025ZM5.95 2.484a6.29 6.29 0 0 0-.348.01c-.926.052-1.801.321-2.427.985-.627.663-1.04 1.751-.95 3.553.018.34.166 1.296.42 2.43.255 1.136.615 2.471 1.048 3.65.433 1.18.959 2.207 1.457 2.693.251.243.47.341.668.333.198-.01.438-.124.73-.475a39.623 39.623 0 0 1 1.66-1.877 3.206 3.206 0 0 1-1.07-2.888c.094-.677.107-1.31.096-1.811-.006-.27-.02-.488-.03-.665a6.361 6.361 0 0 1-.016-.367v-.011c-.001-1.056.182-2.103.542-3.095.256-.682.639-1.375 1.212-1.936-.563-.185-1.562-.467-2.644-.52a6.963 6.963 0 0 0-.348-.01Zm0 0Zm11.365 4.841c-.622.008-.971.169-1.155.379-.259.298-.284.82-.122 1.464.16.644.492 1.365.803 1.963.142.272.28.52.395.726l.034.062.042.075c.102.182.178.317.226.434.05.123.107.231.163.332.241-.509.284-1.008.26-1.529-.013-.259-.045-.52-.077-.782-.048-.393-.096-.79-.083-1.189.013-.408.061-.74.107-1.052.04-.285.08-.551.086-.839a5.311 5.311 0 0 0-.679-.044Zm-7.547.105c-.19.002-.38.025-.565.068-.37.09-.725.228-1.057.412-.113.06-.22.13-.32.209l-.02.018.008.154c.01.171.027.437.035.782a12.02 12.02 0 0 1-.103 1.91c-.219 1.568.919 2.866 2.255 2.868.069-.284.177-.571.29-.87l.045-.122c.064-.173.14-.338.216-.508.369-.811.782-1.72.271-4.08-.1-.468-.3-.657-.575-.764a1.35 1.35 0 0 0-.48-.077Zm7.257.187h.046c.06.002.116.009.165.02.05.012.091.028.126.051a.15.15 0 0 1 .069.1l-.001.008a.22.22 0 0 1-.032.124.613.613 0 0 1-.1.137.62.62 0 0 1-.355.195.54.54 0 0 1-.376-.095.56.56 0 0 1-.119-.108.239.239 0 0 1-.058-.116.156.156 0 0 1 .039-.118.353.353 0 0 1 .107-.082 1.183 1.183 0 0 1 .489-.118v.002Zm-7.169.154c.049 0 .1.005.153.012.14.02.264.057.36.112a.41.41 0 0 1 .122.097.205.205 0 0 1 .05.156.277.277 0 0 1-.07.141.595.595 0 0 1-.13.12.587.587 0 0 1-.411.103.667.667 0 0 1-.385-.209.65.65 0 0 1-.108-.15.257.257 0 0 1-.038-.162c.014-.1.095-.15.175-.18a.794.794 0 0 1 .282-.036v-.004Zm.944 6.818h-.02c-.048.004-.119.02-.255.172-.124.14-.217.258-.3.364-.13.166-.233.3-.394.428-.263.21-.605.321-1.288.461-.216.044-.34.093-.423.132l.019.017c.01.01.018.017.045.032.1.055.229.103.332.13.294.073.776.159 1.279.073.503-.086 1.027-.327 1.473-.953.077-.108.085-.268.022-.44-.064-.17-.204-.318-.303-.36a.6.6 0 0 0-.187-.054v-.002ZM19 22a4 4 0 1 0 0-8 4 4 0 0 0 0 8Zm0-6.5a.5.5 0 0 1 .5.5v2.793l1.146-1.147a.5.5 0 0 1 .708.708l-2 2a.5.5 0 0 1-.708 0l-2-2a.5.5 0 0 1 .708-.708l1.146 1.147V16a.5.5 0 0 1 .5-.5Z" clip-rule="evenodd"/>
</svg>
