<svg xmlns="http://www.w3.org/2000/svg" width="32" height="32" fill="none" viewBox="0 0 32 32">
  <path
    fill-rule="evenodd"
    clip-rule="evenodd"
    d="M9 9H9.5H18V10H10V12.5H9V9.5V9ZM21.2929 10H20V9H22.5H23V9.5V12H22V10.7071L10.7071 22H13V23H9.5L9.14645 22.1464L21.2929 10ZM22.5 19V22.5V23H22H15V22H21.5V19H22.5Z"
    fill="var(--tbl--ui-node-icon--enrichment--hunter-secondary)"
  />
  <path
    d="M19.2879 13.7346C18.6741 13.9144 17.9997 13.9175 17.3663 13.8896C16.6312 13.8586 15.8523 13.7625 15.1733 13.4555C14.6156 13.1998 14.167 12.7425 14.4004 12.0806C14.5671 11.614 14.9339 11.197 15.3567 10.9614C15.8341 10.6979 16.3569 10.7413 16.8328 10.98C17.3693 11.2482 17.8133 11.6838 18.2165 12.124C18.4286 12.3565 18.6302 12.5952 18.8302 12.837C18.9212 12.9487 19.544 13.5858 19.2879 13.7346ZM29.4797 13.9609C28.5371 13.7377 27.4232 13.8167 26.4775 13.6633C24.9878 13.4183 22.7706 11.6434 21.5672 9.83755C20.7337 8.5835 20.3336 7.3062 19.6956 5.74988C19.2485 4.66324 18.2771 1.22507 16.9177 2.83565C16.3569 3.49755 15.731 5.67857 15.2733 5.64757C14.9354 5.72818 14.8793 5.05232 14.7732 4.764C14.5762 4.23851 14.4747 3.63241 14.2125 3.13637C14.0049 2.74264 13.7306 2.2683 13.3108 2.07609C12.5636 1.68391 11.6634 2.86665 11.2163 4.27261C11.0254 5.02597 9.74022 6.48619 9.17948 6.83962C6.63343 8.44709 1.52162 10.1398 1.00028 15.7792C0.998767 15.8024 1.00028 15.8722 1.08667 15.8102C1.69742 15.3575 8.61117 10.2638 4.17376 20.1102C1.45494 26.1417 14.5808 29.983 15.2552 30C15.3461 30 15.3385 29.9581 15.3415 29.9302C16.3903 20.304 26.7366 21.3162 29.1463 19.0112C31.5332 16.7263 31.5832 14.5158 29.4797 13.9609Z"
    fill="var(--tbl--ui-node-icon--enrichment--hunter-primary)"
  />
</svg>
