<svg width="16" height="16" viewBox="0 0 16 16" fill="none" xmlns="http://www.w3.org/2000/svg">
  <path
    d="M9.64396 6.86728C9.33707 6.95719 8.99987 6.95874 8.68313 6.94479C8.31562 6.92929 7.92613 6.88123 7.58666 6.72777C7.30781 6.59989 7.08351 6.37124 7.2002 6.04029C7.28356 5.807 7.46693 5.59851 7.67835 5.4807C7.91704 5.34894 8.17846 5.37064 8.4164 5.49C8.68464 5.62408 8.90667 5.84188 9.10823 6.06199C9.21431 6.17825 9.3151 6.29761 9.41512 6.41852C9.46058 6.47433 9.77202 6.79288 9.64396 6.86728ZM14.7399 6.98044C14.2685 6.86883 13.7116 6.90836 13.2387 6.83163C12.4939 6.70917 11.3853 5.82172 10.7836 4.91878C10.3669 4.29175 10.1668 3.6531 9.8478 2.87494C9.62426 2.33162 9.13854 0.612535 8.45883 1.41782C8.17846 1.74878 7.86551 2.83929 7.63667 2.82379C7.46769 2.86409 7.43965 2.52616 7.38661 2.382C7.2881 2.11925 7.23733 1.81621 7.10624 1.56819C7.00243 1.37132 6.86528 1.13415 6.65538 1.03804C6.28181 0.841954 5.8317 1.43333 5.60816 2.13631C5.51269 2.51299 4.87011 3.24309 4.58974 3.41981C3.31671 4.22355 0.760809 5.06991 0.500141 7.88959C0.499383 7.90121 0.500141 7.93609 0.543333 7.90509C0.848708 7.67877 4.30558 5.13192 2.08688 10.0551C0.727468 13.0709 7.29038 14.9915 7.62758 15C7.67304 15 7.66925 14.9791 7.67077 14.9651C8.19514 10.152 13.3683 10.6581 14.5732 9.50559C15.7666 8.36315 15.7916 7.25791 14.7399 6.98044Z"
    fill="var(--tbl--ui-node-icon--enrichment--hunter-primary)"
  />
</svg>
