<svg xmlns="http://www.w3.org/2000/svg" width="24" height="24" fill="none" viewBox="0 0 24 24">
  <path
    fill-rule="evenodd"
    clip-rule="evenodd"
    d="M6.625 6.625H7.125H13.5V7.625H7.625V9.375H6.625V7.125V6.625ZM15.6679 7.625H15V6.625H16.875H17.375V7.125V9H16.375V8.33211L8.33211 16.375H9.75V17.375H7.125L6.77145 16.5214L15.6679 7.625ZM17 14.25V16.875V17.375H16.5H11.25V16.375H16V14.25H17Z"
    fill="var(--tbl--ui-node-icon--enrichment--hunter-secondary)"
  />
  <path
    d="M14.4659 10.3009C14.0056 10.4358 13.4998 10.4381 13.0247 10.4172C12.4734 10.3939 11.8892 10.3218 11.38 10.0917C10.9617 9.89983 10.6253 9.55686 10.8003 9.06044C10.9253 8.7105 11.2004 8.39776 11.5175 8.22104C11.8756 8.0234 12.2677 8.05596 12.6246 8.235C13.027 8.43612 13.36 8.76281 13.6623 9.09299C13.8215 9.26738 13.9726 9.44642 14.1227 9.62778C14.1909 9.71149 14.658 10.1893 14.4659 10.3009ZM22.1098 10.4707C21.4028 10.3032 20.5674 10.3625 19.8581 10.2474C18.7408 10.0638 17.0779 8.73258 16.1754 7.37816C15.5503 6.43763 15.2502 5.47965 14.7717 4.31241C14.4364 3.49743 13.7078 0.918803 12.6882 2.12674C12.2677 2.62316 11.7983 4.25893 11.455 4.23568C11.2015 4.29613 11.1595 3.78924 11.0799 3.573C10.9322 3.17888 10.856 2.72431 10.6594 2.35228C10.5036 2.05698 10.2979 1.70123 9.98307 1.55707C9.42271 1.26293 8.74755 2.14999 8.41224 3.20446C8.26903 3.76948 7.30516 4.86464 6.88461 5.12971C4.97507 6.33532 1.14121 7.60487 0.750212 11.8344C0.749075 11.8518 0.750212 11.9041 0.815 11.8576C1.27306 11.5182 6.45837 7.69788 3.13032 15.0827C1.0912 19.6063 10.9356 22.4872 11.4414 22.5C11.5096 22.5 11.5039 22.4686 11.5062 22.4477C12.2927 15.228 20.0525 15.9872 21.8597 14.2584C23.6499 12.5447 23.6874 10.8869 22.1098 10.4707Z"
    fill="var(--tbl--ui-node-icon--enrichment--hunter-primary)"
  />
</svg>
