<svg width="32" height="32" viewBox="0 0 32 32" fill="none" xmlns="http://www.w3.org/2000/svg">
  <path
    d="M15.8896 14C17.378 14 18.1226 14.0004 18.7587 14.1709C20.1854 14.5534 21.3704 15.5473 21.9951 16.8857C22.2735 17.4824 22.4024 18.2154 22.6611 19.6807L23.0107 21.6602C23.4422 24.1044 23.6583 25.3271 23.082 26.2881C22.9626 26.4871 22.7975 26.698 22.6337 26.8623C21.8427 27.6559 20.678 27.74 18.3486 27.9082C17.5931 27.9628 16.8517 27.9986 16.1904 28C15.384 28.0018 14.4318 27.9513 13.4677 27.876C11.2335 27.7013 10.1163 27.6137 9.34565 26.8838C9.1513 26.6997 8.96239 26.4628 8.82612 26.2324C8.32757 25.3891 8.43599 24.3301 8.72553 22.3369C8.26828 22.7931 7.95351 23.3957 7.8642 24.0781C7.73744 25.0473 6.86315 25.7406 5.89057 25.6436L4.04584 25.458C3.77951 25.4157 3.57947 25.3702 3.40619 25.3037C2.21848 24.8475 1.44703 23.6917 1.48237 22.4199C1.49315 22.0339 1.6277 21.575 1.89545 20.6572L2.08979 19.9893C2.19795 19.6185 2.25223 19.4328 2.31244 19.2695C2.99339 17.424 4.6938 16.1485 6.65619 16.0117C6.82969 15.9997 7.02312 16 7.40912 16C7.85234 16 8.07424 15.9996 8.26752 16.0146C8.86815 16.0613 9.44068 16.2148 9.96576 16.4561C10.6226 15.3448 11.6892 14.5228 12.9492 14.1777C13.5975 14.0003 14.3616 14 15.8896 14Z"
    fill="var(--tbl--ui-node-icon--search-people-l)"
  />
  <path
    d="M25.8359 16.0078C27.2614 16.0953 28.5321 16.936 29.1699 18.2139C29.2246 18.3234 29.2766 18.4462 29.3808 18.6914L30.0458 20.2549C30.6728 21.7308 30.9863 22.4693 30.8271 23.1162C30.7573 23.3997 30.6254 23.6651 30.4423 23.8926C30.0245 24.4113 29.2476 24.6094 27.6943 25.0059L25.29 25.6191C25.4427 24.6343 25.1838 23.2837 24.7792 21.1934L24.4247 19.3594C24.1553 17.9675 23.9536 16.9231 23.7206 16.1055C23.9128 16.0655 24.1095 16.036 24.3095 16.0186C24.5257 15.9998 24.7884 16 25.3134 16C25.5799 16 25.7136 16.0003 25.8359 16.0078Z"
    fill="var(--tbl--ui-node-icon--search-people-l)"
  />
  <path
    d="M7.10151 9.4541C8.48185 9.45437 9.60127 10.5738 9.60151 11.9541C9.60151 13.3347 8.48199 14.4538 7.10151 14.4541C5.7208 14.4541 4.60151 13.3348 4.60151 11.9541C4.60175 10.5736 5.72094 9.4541 7.10151 9.4541Z"
    fill="var(--tbl--ui-node-icon--search-people-l)"
  />
  <path
    d="M24.5566 9.4541C25.9369 9.45437 27.0563 10.5738 27.0566 11.9541C27.0566 13.3347 25.9371 14.4538 24.5566 14.4541C23.1759 14.4541 22.0566 13.3348 22.0566 11.9541C22.0568 10.5736 23.176 9.4541 24.5566 9.4541Z"
    fill="var(--tbl--ui-node-icon--search-people-l)"
  />
  <path
    d="M15.9999 4.36328C18.209 4.36328 19.9998 6.15431 19.9999 8.36328C19.9999 10.5724 18.2091 12.3633 15.9999 12.3633C13.7908 12.3633 11.9999 10.5724 11.9999 8.36328C12.0001 6.15432 13.7909 4.3633 15.9999 4.36328Z"
    fill="var(--tbl--ui-node-icon--search-people-l)"
  />

  <defs>
    <linearGradient id="tbl--ui-node-icon--search-people-l" x1="16.1748" y1="4.36328" x2="16.1748" y2="28" gradientUnits="userSpaceOnUse">
      <stop stop-color="#A190F5"/>
      <stop offset="1" stop-color="#816BE6"/>
    </linearGradient>
  </defs>
</svg>
