<svg width="16" height="16" viewBox="0 0 16 16" fill="none" xmlns="http://www.w3.org/2000/svg">
  <path
    d="M10 2.66675C11.365 2.66675 12.4706 3.77234 12.4706 5.13734C12.4706 6.50234 11.365 7.60792 10 7.60792C9.56454 7.60792 9.15548 7.4954 8.80029 7.29783C8.80271 7.24464 8.80393 7.19113 8.80393 7.13734C8.80393 6.09043 8.34081 5.15204 7.60818 4.51581C7.88362 3.45191 8.8497 2.66675 10 2.66675ZM10.776 12.0001H13.8431C14.3922 12.0001 14.6667 12.0001 14.6667 11.1766C14.6667 8.98047 11.6471 8.43145 10 8.43145C9.56744 8.43145 9.04019 8.46932 8.49783 8.56495C8.29845 9.0064 8.00943 9.39861 7.65395 9.71841C8.00135 9.80699 8.34778 9.9197 8.67824 10.0613C9.50945 10.4176 10.3776 11.0296 10.776 12.0001ZM6.90212 9.04638C6.66717 9.15669 6.44691 9.28466 6.24997 9.43246C6.48784 9.33743 6.70745 9.20651 6.90212 9.04638ZM9.64072 12.0001H6.15687C5.60785 12.0001 5.33334 12.0001 5.33334 11.1766C5.33334 10.9039 5.3799 10.6566 5.4646 10.4326C5.70825 10.4368 5.97728 10.4526 6.2591 10.4832C7.49298 10.6172 8.97218 11.0348 9.64072 12.0001Z"
    fill="var(--tbl--colors--icons--enrich--tertiary)"
  />
  <path
    d="M7.80391 7.13734C7.80391 5.77234 6.69832 4.66675 5.33332 4.66675C3.96832 4.66675 2.86273 5.77234 2.86273 7.13734C2.86273 8.50234 3.96832 9.60792 5.33332 9.60792C6.69832 9.60792 7.80391 8.50234 7.80391 7.13734ZM0.666656 13.1766C0.666656 14.0001 0.941166 14.0001 1.49019 14.0001H9.17646C9.72548 14.0001 9.99999 14.0001 9.99999 13.1766C9.99999 10.9805 6.98038 10.4315 5.33332 10.4315C3.68626 10.4315 0.666656 10.9805 0.666656 13.1766Z"
    fill="var(--tbl--colors--icons--enrich--primary)"
  />
</svg>
