<svg width="24" height="24" viewBox="0 0 24 24" fill="none" xmlns="http://www.w3.org/2000/svg">
  <path
    d="M11.9179 10.5C12.8348 10.5 13.2934 10.4998 13.6903 10.5811C15.0135 10.8519 16.1104 11.7725 16.6073 13.0283C16.7564 13.4052 16.8365 13.8573 16.996 14.7607L17.161 15.6963C17.4438 17.2981 17.5856 18.0993 17.3603 18.8047C17.1509 19.4598 16.6313 20.1141 16.0409 20.4668C15.4052 20.8466 14.6718 20.8869 13.205 20.9668C12.834 20.987 12.4746 20.9993 12.1425 21C11.6922 21.001 11.1812 20.9803 10.6513 20.9463C9.23097 20.8551 8.52054 20.8096 7.913 20.459C7.30192 20.1062 6.77704 19.4564 6.55949 18.7852C6.35938 18.1676 6.44076 17.4654 6.63273 16.1494C5.72987 16.3569 5.02311 17.1054 4.89835 18.0586C4.824 18.6271 4.40599 19.0675 3.87882 19.1982C3.04904 19.1057 2.61697 19.0517 2.30656 18.8916C1.64662 18.551 1.22948 17.8725 1.22355 17.1299C1.2206 16.7601 1.38439 16.3221 1.71183 15.4463L2.3339 13.7812C2.50668 13.3191 2.59347 13.0879 2.71769 12.8994C3.00115 12.4693 3.44014 12.1656 3.9423 12.0508C4.1623 12.0005 4.40913 12 4.90226 12H5.24015C5.71622 12 5.95454 11.9998 6.16691 12.0303C6.63112 12.0971 7.06476 12.2707 7.43937 12.5283C8.00088 11.5375 8.96453 10.8222 10.0995 10.585C10.5044 10.5003 10.9759 10.5 11.9179 10.5Z"
    fill="var(--tbl--ui-node-icon--search-people-m)"
  />
  <path
    d="M19.3876 12C20.4734 12.0001 21.4543 12.6491 21.8788 13.6484L22.3564 14.7744C22.7779 15.7667 22.9891 16.2627 22.9745 16.7041C22.9555 17.2813 22.6876 17.8223 22.2402 18.1875C21.898 18.4667 21.3756 18.6006 20.331 18.8672L18.6698 19.29C18.7444 19.1273 18.8067 18.958 18.8515 18.7822C19.0172 18.1314 18.8652 17.346 18.5614 15.7764L18.3183 14.5195C18.1162 13.4753 18.0155 12.953 17.8456 12.5225C17.8171 12.4501 17.7835 12.3801 17.7519 12.3096C18.2576 12.1099 18.8092 12 19.3876 12Z"
    fill="var(--tbl--ui-node-icon--search-people-m)"
  />
  <path
    d="M5.45109 7.09082C6.55563 7.09082 7.45104 7.98629 7.45109 9.09082C7.45109 10.1954 6.55566 11.0908 5.45109 11.0908C4.34662 11.0907 3.45109 10.1953 3.45109 9.09082C3.45114 7.98637 4.34665 7.09094 5.45109 7.09082Z"
    fill="var(--tbl--ui-node-icon--search-people-m)"
  />
  <path
    d="M18.5419 7.09082C19.6464 7.09085 20.5419 7.98631 20.5419 9.09082C20.5419 10.1954 19.6465 11.0908 18.5419 11.0908C17.4373 11.0908 16.5419 10.1954 16.5419 9.09082C16.542 7.98629 17.4374 7.09082 18.5419 7.09082Z"
    fill="var(--tbl--ui-node-icon--search-people-m)"
  />
  <path
    d="M11.9999 3.27246C13.6567 3.27246 14.9998 4.61573 14.9999 6.27246C14.9999 7.92932 13.6568 9.27246 11.9999 9.27246C10.3431 9.2724 8.99992 7.92928 8.99992 6.27246C9.00006 4.61577 10.3432 3.27252 11.9999 3.27246Z"
    fill="var(--tbl--ui-node-icon--search-people-m)"
  />

  <defs>
    <linearGradient id="tbl--ui-node-icon--search-people-m" x1="12.2921" y1="3.27246" x2="12.2921" y2="21" gradientUnits="userSpaceOnUse">
      <stop stop-color="#A190F5"/>
      <stop offset="1" stop-color="#816BE6"/>
    </linearGradient>
  </defs>
</svg>
