<svg width="24" height="24" viewBox="0 0 24 24" fill="none" xmlns="http://www.w3.org/2000/svg">
  <path
    fill-rule="evenodd"
    clip-rule="evenodd"
    d="M15 4C17.0475 4 18.7059 5.65838 18.7059 7.70588C18.7059 9.75338 17.0475 11.4118 15 11.4118C14.1332 11.4118 13.3361 11.1145 12.705 10.6164C12.6813 9.34301 12.1523 8.19363 11.31 7.36026C11.4842 5.47496 13.069 4 15 4ZM15.6159 18H20.7647C21.5882 18 22 18 22 16.7647C22 13.4706 17.4706 12.6471 15 12.6471C14.1864 12.6471 13.1495 12.7364 12.1247 12.9738C11.6932 13.7571 11.0452 14.4041 10.2611 14.8343C11.1127 14.9737 12.0038 15.2015 12.8204 15.5514C13.9448 16.0333 15.0521 16.8125 15.6159 18ZM10.3532 13.5694C10.0007 13.7349 9.67035 13.9269 9.37494 14.1486C9.73174 14.006 10.0612 13.8096 10.3532 13.5694ZM14.4611 18H9.23529C8.41176 18 8 18 8 16.7647C8 16.3557 8.06983 15.9848 8.19688 15.6488C10.1624 15.6823 13.2292 16.2214 14.4611 18Z"
    fill="var(--tbl--colors--icons--enrich--tertiary)"
  />
  <path
    fill-rule="evenodd"
    clip-rule="evenodd"
    d="M11.7059 10.7059C11.7059 8.65838 10.0475 7 8 7C5.9525 7 4.29412 8.65838 4.29412 10.7059C4.29412 12.7534 5.9525 14.4118 8 14.4118C10.0475 14.4118 11.7059 12.7534 11.7059 10.7059ZM1 19.7647C1 21 1.41176 21 2.23529 21H13.7647C14.5882 21 15 21 15 19.7647C15 16.4706 10.4706 15.6471 8 15.6471C5.52941 15.6471 1 16.4706 1 19.7647Z"
    fill="var(--tbl--colors--icons--enrich--primary)"
  />
</svg>

