<svg width="32" height="32" viewBox="0 0 32 32" fill="none" xmlns="http://www.w3.org/2000/svg">
  <path
    fill-rule="evenodd"
    clip-rule="evenodd"
    d="M17.5 5C20.2787 5 22.5294 7.25066 22.5294 10.0294C22.5294 12.8082 20.2787 15.0588 17.5 15.0588C17.1432 15.0588 16.7952 15.0217 16.4595 14.9512C16.5055 14.6507 16.5294 14.3428 16.5294 14.0294C16.5294 11.4867 14.9571 9.31266 12.7313 8.42603C13.4003 6.43405 15.2819 5 17.5 5ZM19.317 24H9.67647C8.55882 24 8 24 8 22.3235C8 21.7992 8.08455 21.321 8.23922 20.8854C9.05641 20.7795 9.83342 20.7353 10.5 20.7353C13.1734 20.7353 17.6232 21.4458 19.317 24ZM20.4725 24H25.3235C26.4412 24 27 24 27 22.3235C27 17.8529 20.8529 16.7353 17.5 16.7353C17.0014 16.7353 16.441 16.76 15.8483 16.8168C15.0973 18.2553 13.7831 19.3527 12.1977 19.8167C13.6894 19.9557 15.3957 20.2886 16.9013 20.9338C18.3573 21.5578 19.7449 22.537 20.4725 24ZM14.5705 16.9849C13.6564 18.242 12.174 19.0588 10.5 19.0588C10.1948 19.0588 9.89605 19.0317 9.6059 18.9797C10.8963 17.8934 12.7822 17.2863 14.5705 16.9849ZM15.4925 14.6425C13.7135 13.8678 12.4706 12.0944 12.4706 10.0294C12.4706 9.82185 12.4831 9.61724 12.5075 9.41629C14.2865 10.1911 15.5294 11.9644 15.5294 14.0294C15.5294 14.237 15.5169 14.4416 15.4925 14.6425Z"
    fill="var(--tbl--colors--icons--enrich--tertiary)"
  />
  <path
    d="M15.5294 14.0294C15.5294 11.2507 13.2787 9 10.5 9C7.72125 9 5.47059 11.2507 5.47059 14.0294C5.47059 16.8082 7.72125 19.0588 10.5 19.0588C13.2787 19.0588 15.5294 16.8082 15.5294 14.0294ZM1 26.3235C1 28 1.55882 28 2.67647 28H18.3235C19.4412 28 20 28 20 26.3235C20 21.8529 13.8529 20.7353 10.5 20.7353C7.14706 20.7353 1 21.8529 1 26.3235Z"
    fill="var(--tbl--colors--icons--enrich--primary)"
  />
</svg>
