<svg xmlns="http://www.w3.org/2000/svg" width="24" height="24" fill="none" viewBox="0 0 24 24">
  <path fill="var(--tbl--colors--icons--clean--secondary)" fill-rule="evenodd" d="M11 4a2 2 0 0 0-2-2H5a2 2 0 0 0-2 2v15a2 2 0 0 0 2 2h4c.293 0 .571-.063.822-.176A8.003 8.003 0 0 1 11 6.582V4Z" clip-rule="evenodd"/>
  <path fill="var(--tbl--colors--icons--clean--primary)" fill-rule="evenodd" d="M14 22a8 8 0 1 0 0-16 8 8 0 0 0 0 16Zm-1.293-11.707a1 1 0 0 1 0 1.414L10.414 14l2.293 2.293a1 1 0 0 1-1.414 1.414l-3-3a1 1 0 0 1 0-1.414l3-3a1 1 0 0 1 1.414 0Zm2.586 0a1 1 0 0 0 0 1.414L17.586 14l-2.293 2.293a1 1 0 0 0 1.414 1.414l3-3a1 1 0 0 0 0-1.414l-3-3a1 1 0 0 0-1.414 0Z" clip-rule="evenodd"/>
</svg>
