<svg xmlns="http://www.w3.org/2000/svg" width="24" height="24" fill="none" viewBox="0 0 24 24">
  <path
    fill="var(--tbl--colors--icons--clean--secondary)"
    fill-rule="evenodd"
    d="M12 4C12 2.89543 11.1046 2 10 2H4C2.89543 2 2 2.89543 2 4L2 20C2 21.1046 2.89543 22 4 22L10 22C10.4912 22 10.9411 21.8229 11.2892 21.5291C8.20512 20.4185 6 17.4668 6 14C6 10.2723 8.54955 7.14012 12 6.25204V4Z"
    clip-rule="evenodd"
  />
  <path
    fill="var(--tbl--colors--icons--clean--primary)"
    fill-rule="evenodd"
    d="M14 22C18.4183 22 22 18.4183 22 14C22 9.58172 18.4183 6 14 6C9.58172 6 6 9.58172 6 14C6 18.4183 9.58172 22 14 22ZM12.7071 10.2929C13.0976 10.6834 13.0976 11.3166 12.7071 11.7071L10.4142 14L12.7071 16.2929C13.0976 16.6834 13.0976 17.3166 12.7071 17.7071C12.3166 18.0976 11.6834 18.0976 11.2929 17.7071L8.29291 14.7071C7.90238 14.3166 7.90238 13.6834 8.29291 13.2929L11.2929 10.2929C11.6834 9.90236 12.3166 9.90236 12.7071 10.2929ZM15.2929 10.2929C14.9024 10.6834 14.9024 11.3166 15.2929 11.7071L17.5858 14L15.2929 16.2929C14.9024 16.6834 14.9024 17.3166 15.2929 17.7071C15.6834 18.0976 16.3166 18.0976 16.7071 17.7071L19.7071 14.7071C20.0976 14.3166 20.0976 13.6834 19.7071 13.2929L16.7071 10.2929C16.3166 9.90236 15.6834 9.90236 15.2929 10.2929Z"
    clip-rule="evenodd"
  />
</svg>
