<svg xmlns="http://www.w3.org/2000/svg" width="32" height="32" fill="none" viewBox="0 0 32 32">
  <path fill="var(--tbl--colors--icons--clean--secondary)" fill-rule="evenodd" d="M17 6a3 3 0 0 0-3-3H8a3 3 0 0 0-3 3v20a3 3 0 0 0 3 3h6c.109 0 .216-.006.322-.017A9.004 9.004 0 0 1 17 13.513V6Z" clip-rule="evenodd"/>
  <path fill="var(--tbl--colors--icons--clean--primary)" fill-rule="evenodd" d="M29 22a9 9 0 1 1-18 0 9 9 0 0 1 18 0Zm-7.159-4.753a1 1 0 0 0-.094 1.412L24.671 22l-2.924 3.341a1 1 0 0 0 1.506 1.317l3.5-4a1 1 0 0 0 0-1.317l-3.5-4a1 1 0 0 0-1.412-.094Zm-3.588 8.095a1 1 0 0 1-1.506 1.317l-3.5-4a1 1 0 0 1 0-1.317l3.5-4a1 1 0 0 1 1.506 1.317L15.329 22l2.924 3.341Z" clip-rule="evenodd"/>
</svg>
