<svg width="16" height="16" viewBox="0 0 16 16" fill="none" xmlns="http://www.w3.org/2000/svg">
  <path
    d="M1.34278 5.55258C1.34278 5.55258 6.20239 8.97107 8.13929 9.43703C7.20678 10.539 4.6208 12.7028 4.65527 12.6808C7.411 11.0498 13.1959 6.15348 13.1959 6.15348C13.3753 6.03909 13.5607 6.12398 13.6097 6.3415L14.9909 12.4755C15.0399 12.693 14.8855 12.9051 14.6456 12.9493L3.54299 14.9943C3.3033 15.0384 3.0525 14.8233 2.9828 14.5137L1.01738 5.78533C0.947688 5.47583 1.09388 5.37318 1.34278 5.55258ZM1.94648 4.66336C1.94648 4.66336 8.2706 0.857051 9.03459 1.00416C9.78038 1.14776 12.678 5.18849 12.8155 5.38082L12.8206 5.38791C12.9359 5.51657 12.86 5.61034 12.651 5.5979L1.90834 4.96182C1.69902 4.94949 1.71655 4.81535 1.94648 4.66336Z"
    fill="var(--tbl--ui-node-icon--enrichment--anymail-finder)"
  />
</svg>
