<svg width="24" height="24" viewBox="0 0 24 24" fill="none" xmlns="http://www.w3.org/2000/svg">
  <path
    d="M22.7685 10.091C22.7685 10.6364 18.6781 11.8393 13.5757 11.8393C8.47334 11.8393 4.29114 10.6364 4.29114 10.091C4.83459 9.54551 8.42744 8.45459 13.5298 8.45459C18.6322 8.45459 22.7685 9.54551 22.7685 10.091Z"
    fill="var(--tbl--ui-node-icon--enrichment--enrichley-secondary)"
  />
  <path
    d="M19.4774 15.5456C19.4774 16.091 15.387 17.2939 10.2846 17.2939C5.1822 17.2939 1 16.091 1 15.5456C1.54345 15.0001 5.1363 13.9092 10.2387 13.9092C15.3411 13.9092 19.4774 15.0001 19.4774 15.5456Z"
    fill="var(--tbl--ui-node-icon--enrichment--enrichley-secondary)"
  />
  <path
    d="M21.5004 11.0949C17.5821 12.4313 9.69202 12.3222 4.8345 10.8767C4.21725 10.7131 4.21725 10.7404 4.29776 12.4313L4.37827 14.1768L5.80064 14.6677C9.04793 15.7586 16.2671 15.895 20.3732 14.9677C22.9227 14.3949 23.0837 14.204 22.9764 12.2677L22.8959 10.6313L21.5004 11.0949Z"
    fill="var(--tbl--ui-node-icon--enrichment--enrichley-primary)"
  />
  <path
    d="M1 17.6677V19.4404L2.01981 19.8495C5.53547 21.2677 14.3649 21.4041 18.2563 20.095L19.6518 19.6313L19.7323 17.9132C19.786 16.9859 19.7055 16.2222 19.5981 16.2222C19.4908 16.2222 18.8198 16.4131 18.1221 16.6313C15.8946 17.3131 10.8761 17.6404 7.44091 17.3131C4.59617 17.0677 1.99297 16.5495 1.29521 16.1131C1.08051 15.9768 1 16.4677 1 17.6677Z"
    fill="var(--tbl--ui-node-icon--enrichment--enrichley-primary)"
  />
  <path
    d="M1 6.75853V8.53127L2.01981 8.94036C5.50864 10.3586 14.3917 10.4949 18.2563 9.18582L19.6518 8.72218L19.7323 7.00398C19.786 6.0767 19.7591 5.12821 19.6518 5.12821C19.5445 5.12821 18.5448 5.50911 17.847 5.72729C15.7 6.38185 10.7419 6.70398 7.3604 6.40398C4.59617 6.15852 1.99297 5.64034 1.29521 5.20397C1.08051 5.06761 1 5.55852 1 6.75853Z"
    fill="var(--tbl--ui-node-icon--enrichment--enrichley-primary)"
  />
  <path
    d="M19.4774 4.63638C19.4774 5.18183 15.3411 6.27275 10.2387 6.27275C5.1363 6.27275 1 5.18183 1 4.63638C1.54345 4.09092 5.1363 3 10.2387 3C15.3411 3 19.4774 4.09092 19.4774 4.63638Z"
    fill="var(--tbl--ui-node-icon--enrichment--enrichley-secondary)"
  />
</svg>
