<svg width="16" height="16" viewBox="0 0 16 16" fill="none" xmlns="http://www.w3.org/2000/svg">
  <path
    d="M14.8527 6.33337C14.8527 6.6667 12.2497 7.40179 9.00273 7.40179C5.75576 7.40179 3.09436 6.6667 3.09436 6.33337C3.44019 6.00003 5.72655 5.33336 8.97352 5.33336C12.2205 5.33336 14.8527 6.00003 14.8527 6.33337Z"
    fill="var(--tbl--ui-node-icon--enrichment--enrichley-secondary)"
  />
  <path
    d="M12.7583 9.66673C12.7583 10.0001 10.1553 10.7351 6.90837 10.7351C3.6614 10.7351 1 10.0001 1 9.66673C1.34583 9.33339 3.63219 8.66672 6.87916 8.66672C10.1261 8.66672 12.7583 9.33339 12.7583 9.66673Z"
    fill="var(--tbl--ui-node-icon--enrichment--enrichley-secondary)"
  />
  <path
    d="M14.0457 6.9469C11.5523 7.76357 6.53129 7.6969 3.44014 6.81356C3.04734 6.71356 3.04734 6.73023 3.09857 7.76357L3.14981 8.83024L4.05495 9.13025C6.12141 9.79692 10.7154 9.88025 13.3284 9.31358C14.9508 8.96358 15.0533 8.84691 14.985 7.66357L14.9337 6.66356L14.0457 6.9469Z"
    fill="var(--tbl--ui-node-icon--enrichment--enrichley-primary)"
  />
  <path
    d="M1 10.9636V12.0469L1.64897 12.2969C3.88621 13.1636 9.50493 13.2469 11.9813 12.4469L12.8693 12.1636L12.9206 11.1136C12.9547 10.5469 12.9035 10.0803 12.8352 10.0803C12.7669 10.0803 12.3399 10.1969 11.8959 10.3303C10.4784 10.7469 7.28477 10.9469 5.09876 10.7469C3.28847 10.5969 1.63189 10.2803 1.18786 10.0136C1.05123 9.93025 1 10.2303 1 10.9636Z"
    fill="var(--tbl--ui-node-icon--enrichment--enrichley-primary)"
  />
  <path
    d="M1 4.29688V5.38022L1.64897 5.63022C3.86913 6.4969 9.52201 6.58023 11.9813 5.78022L12.8693 5.49689L12.9206 4.44688C12.9547 3.88021 12.9376 3.30057 12.8693 3.30057C12.801 3.30057 12.1649 3.53335 11.7208 3.66668C10.3546 4.06668 7.19938 4.26354 5.04753 4.08021C3.28847 3.93021 1.63189 3.61354 1.18786 3.34687C1.05123 3.26354 1 3.56354 1 4.29688Z"
    fill="var(--tbl--ui-node-icon--enrichment--enrichley-primary)"
  />
  <path
    d="M12.7583 3.00001C12.7583 3.33334 10.1261 4.00002 6.87916 4.00002C3.63219 4.00002 1 3.33334 1 3.00001C1.34583 2.66667 3.63219 2 6.87916 2C10.1261 2 12.7583 2.66667 12.7583 3.00001Z"
    fill="var(--tbl--ui-node-icon--enrichment--enrichley-secondary)"
  />
</svg>
