<svg xmlns="http://www.w3.org/2000/svg" width="32" height="32" fill="none" viewBox="0 0 32 32">
  <path fill="var(--tbl--colors--icons--transformation--primary)" fill-rule="evenodd" d="M15.675 13.12a.5.5 0 0 1 .65 0l3.5 3a.5.5 0 1 1-.65.76L17 15.016V20h8a3 3 0 0 1 3 3v3a3 3 0 0 1-3 3H7a3 3 0 0 1-3-3v-3a3 3 0 0 1 3-3h8v-4.984l-2.175 1.864a.5.5 0 1 1-.65-.76l3.5-3Z" clip-rule="evenodd"/>
  <rect width="24" height="9" x="4" y="3" fill="var(--tbl--colors--icons--transformation--tertiary)" rx="3"/>
</svg>
