<svg xmlns="http://www.w3.org/2000/svg" width="32" height="32" fill="none" viewBox="0 0 32 32">
  <path
    d="M27.7303 2.0619C26.1415 2.0619 24.5527 2.0619 22.9845 2.04127C19.745 2.04127 16.5262 2.02063 13.2867 2.02063C10.6662 2.02063 8.04569 2 5.44584 2H4.35225C3.09359 2.02063 2.08254 3.03169 2.0619 4.29035C2.0619 5.87915 2.0619 7.46794 2.04127 9.03611C2.04127 12.2756 2.02063 15.4945 2.02063 18.734C2.02063 21.3338 2 23.9543 2 26.5542V27.6478C2.02063 28.9064 3.03169 29.9175 4.29035 29.9381C5.87915 29.9381 7.46794 29.9381 9.03611 29.9587C12.2756 29.9587 15.4945 29.9794 18.734 29.9794C21.3338 29.9794 23.9543 30 26.5542 30H27.6478C28.9064 29.9794 29.9175 28.9683 29.9381 27.7097C29.9381 26.1209 29.9381 24.5321 29.9587 22.9639C29.9587 19.7244 29.9794 16.5055 29.9794 13.266C29.9794 10.6662 30 8.04569 30 5.44584V4.35225C30 3.09359 28.9889 2.08254 27.7303 2.0619ZM5.98231 20.0752V14.3596H9.30435C10.8106 14.3596 11.7185 15.2675 11.7185 16.7738V20.0958L5.98231 20.0752ZM16.7325 25.7701C16.3405 26.5954 15.2675 27.2763 14.2977 27.3176H14.2564L11.2233 27.2144L21.8909 4.68239H26.5542L16.7325 25.7701Z"
    fill="var(--tbl--ui-node-icon--enrichment--kickbox)"
  />
</svg>
