<svg width="32" height="32" viewBox="0 0 32 32" fill="none" xmlns="http://www.w3.org/2000/svg">
  <path
    fill-rule="evenodd"
    clip-rule="evenodd"
    d="M5 5C3.34315 5 2 6.34315 2 8V18C2 21.7712 2 23.6569 3.17157 24.8284C4.34315 26 6.22876 26 10 26H22C25.7712 26 27.6569 26 28.8284 24.8284C30 23.6569 30 21.7712 30 18V16C30 12.2288 30 10.3431 28.8284 9.17157C27.6569 8 25.7712 8 22 8H17L15.8906 6.3359C15.3342 5.5013 14.3975 5 13.3944 5H5Z"
    fill="var(--tbl--colors--brand--tomat-drive)"
  />
  <path
    d="M5.75 17.7197V19.2502C5.75 20.907 7.09315 22.2502 8.75 22.2502H11.75"
    stroke="var(--tbl--colors--icons--tomat--secondary)"
    stroke-width="1.5"
    stroke-linecap="round"
  />
  <path
    d="M21.4373 11.5207C21.6306 10.9983 22.3694 10.9983 22.5627 11.5207L23.5248 14.1207C23.5856 14.2849 23.7151 14.4144 23.8793 14.4752L26.4793 15.4373C27.0017 15.6306 27.0017 16.3694 26.4793 16.5627L23.8793 17.5248C23.7151 17.5856 23.5856 17.7151 23.5248 17.8793L22.5627 20.4793C22.3694 21.0017 21.6306 21.0017 21.4373 20.4793L20.4752 17.8793C20.4144 17.7151 20.2849 17.5856 20.1207 17.5248L17.5207 16.5627C16.9983 16.3694 16.9983 15.6306 17.5207 15.4373L20.1207 14.4752C20.2849 14.4144 20.4144 14.2849 20.4752 14.1207L21.4373 11.5207Z"
    fill="var(--tbl--colors--icons--tomat--primary)"
  />
</svg>
