<svg width="24" height="24" viewBox="0 0 24 24" fill="none" xmlns="http://www.w3.org/2000/svg">
  <path
    fill-rule="evenodd"
    clip-rule="evenodd"
    d="M4 4C2.89543 4 2 4.89543 2 6V7V12C2 15.7712 2 17.6569 3.17157 18.8284C4.34315 20 6.22876 20 10 20H15C17.8089 20 19.2134 20 20.2223 19.3259C20.659 19.034 21.034 18.659 21.3259 18.2223C22 17.2134 22 15.8089 22 13C22 10.1911 22 8.78661 21.3259 7.77772C21.034 7.34096 20.659 6.96596 20.2223 6.67412C19.2134 6 17.8089 6 15 6H12.3333L11.8906 5.3359C11.3342 4.5013 10.3975 4 9.39445 4H4Z"
    fill="var(--tbl--colors--brand--tomat-drive)"
  />
  <path
    d="M5.5 13.5V14.5C5.5 15.6046 6.39543 16.5 7.5 16.5H9.5"
    stroke="var(--tbl--colors--icons--tomat--secondary)"
    stroke-linecap="round"
  />
  <path
    d="M15.4373 8.5207C15.6306 7.99833 16.3694 7.99833 16.5627 8.5207L17.2547 10.3908C17.3155 10.555 17.445 10.6845 17.6092 10.7453L19.4793 11.4373C20.0017 11.6306 20.0017 12.3694 19.4793 12.5627L17.6092 13.2547C17.445 13.3155 17.3155 13.445 17.2547 13.6092L16.5627 15.4793C16.3694 16.0017 15.6306 16.0017 15.4373 15.4793L14.7453 13.6092C14.6845 13.445 14.555 13.3155 14.3908 13.2547L12.5207 12.5627C11.9983 12.3694 11.9983 11.6306 12.5207 11.4373L14.3908 10.7453C14.555 10.6845 14.6845 10.555 14.7453 10.3908L15.4373 8.5207Z"
    fill="var(--tbl--colors--icons--tomat--primary)"
  />
</svg>
