<svg width="32" height="32" viewBox="0 0 32 32" fill="none" xmlns="http://www.w3.org/2000/svg">
  <path
    fill-rule="evenodd"
    clip-rule="evenodd"
    d="M16.4541 7.99993C18.756 7.99993 19.9077 8.00026 20.707 8.59856C20.9359 8.76991 21.1392 8.97323 21.3105 9.20208C21.9088 10.0014 21.9092 11.1524 21.9092 13.454V22.9091C21.9092 25.2108 21.9088 26.3618 21.3105 27.1611C21.1392 27.3899 20.9359 27.5932 20.707 27.7646C19.9077 28.363 18.7561 28.3632 16.4541 28.3632C14.1523 28.3632 13.0014 28.3629 12.2021 27.7646C11.9733 27.5932 11.77 27.39 11.5986 27.1611C11.0004 26.3618 11 25.2108 11 22.9091V18.9999L10.377 19.0038C9.83283 19.0176 9.51265 19.0733 9.29297 19.2929C9.00025 19.5858 9 20.0575 9 20.9999V26.0907C9 26.8113 9.00109 27.4406 9.01562 27.9921C8.71114 27.9967 8.37415 27.9999 8 27.9999H7C5.11453 27.9999 4.17173 27.9996 3.58594 27.414C3.00031 26.8282 3 25.8852 3 23.9999V16.2167C3 14.9101 3.00009 14.2558 3.3418 13.749C3.68365 13.2422 4.28966 12.9974 5.50098 12.5077L7.19336 11.8232C8.03754 11.4819 8.46015 11.312 8.88574 11.3271C9.07426 11.3338 9.26126 11.3667 9.44043 11.4257C9.84497 11.559 10.1827 11.8657 10.8564 12.4784C10.9073 12.5247 10.9553 12.5686 11.001 12.6103C11.0099 10.8581 11.0783 9.8971 11.5986 9.20208C11.77 8.97319 11.9733 8.76993 12.2021 8.59856C13.0014 8.0003 14.1524 7.99993 16.4541 7.99993ZM15 18.9999C14.4478 18.9999 14.0001 19.4477 14 19.9999V21.9999C14.0001 22.5521 14.4478 22.9999 15 22.9999C15.5522 22.9999 15.9999 22.5521 16 21.9999V19.9999C15.9999 19.4477 15.5522 18.9999 15 18.9999ZM15 11.9999C14.4478 11.9999 14.0001 12.4477 14 12.9999V14.9999C14.0001 15.5521 14.4478 15.9999 15 15.9999C15.5522 15.9999 15.9999 15.5521 16 14.9999V12.9999C15.9999 12.4477 15.5522 11.9999 15 11.9999Z"
    fill="var(--tbl--ui-node-icon--search-company-l)"
  />
  <path
    d="M22.2275 3.92864C23.4545 3.41498 24.9053 4.84184 27.8057 7.69524C28.3947 8.27472 28.6894 8.56479 28.8447 8.93548C29 9.30626 29 9.72023 29 10.5468V23.9999C29 25.8853 28.9997 26.8282 28.4141 27.414C27.8283 27.9997 26.8855 27.9999 25 27.9999H23C22.8008 27.9999 22.6227 27.9988 22.4629 27.996C22.4841 27.9592 22.5073 27.9232 22.5273 27.8857C22.9996 27.0021 23 25.8344 23 23.4999V13.4999C23 11.1656 22.9996 9.99778 22.5273 9.11419C22.1806 8.46559 21.6611 7.92785 21.0293 7.55559C21.1004 5.44288 21.3496 4.29654 22.2275 3.92864Z"
    fill="var(--tbl--ui-node-icon--search-company-l)"
  />

  <defs>
    <linearGradient id="tbl--ui-node-icon--search-company-l" x1="16" y1="3.8252" x2="16" y2="28.3639" gradientUnits="userSpaceOnUse">
      <stop stop-color="#A190F5"/>
      <stop offset="1" stop-color="#816BE6"/>
    </linearGradient>
  </defs>
</svg>
