<svg width="24" height="24" viewBox="0 0 24 24" fill="none" xmlns="http://www.w3.org/2000/svg">
  <path
    d="M12.25 6C14.1355 6 15.0783 6.00026 15.6641 6.58594C16.2497 7.17171 16.25 8.11465 16.25 10V17C16.25 18.8853 16.2497 19.8283 15.6641 20.4141C15.0783 20.9997 14.1355 21 12.25 21C10.3645 21 9.42173 20.9997 8.83594 20.4141C8.25028 19.8283 8.25 18.8853 8.25 17V14.2539C7.63019 14.2629 7.27872 14.3072 7.04297 14.543C6.75015 14.8359 6.75 15.3073 6.75 16.25V18.8867C6.75 19.7487 6.75321 20.4286 6.78906 20.9824C6.43753 20.9992 6.01622 21 5.5 21C4.09556 21 3.39312 21.0001 2.88867 20.6631C2.67035 20.5172 2.48281 20.3297 2.33691 20.1113C1.99986 19.6069 2 18.9044 2 17.5V13.2725C2 11.9317 2.00033 11.261 2.35645 10.7471C2.71259 10.2332 3.34025 9.99717 4.5957 9.52637L5.43164 9.21289C5.78146 9.08171 5.95667 9.01645 6.12793 8.98438C6.6168 8.89297 7.12261 8.98695 7.5459 9.24805C7.69422 9.33956 7.83401 9.46367 8.11328 9.71191C8.16513 9.758 8.2105 9.79862 8.25098 9.83496C8.25149 8.05912 8.26763 7.15436 8.83594 6.58594C9.42173 6.00026 10.3645 6 12.25 6ZM16.3545 2.15234C16.9586 1.8921 17.6799 2.57352 19.123 3.93652L20.7461 5.46973C21.3638 6.05314 21.6736 6.34469 21.8369 6.72363C22.0001 7.10244 22 7.5277 22 8.37695V17C22 18.8854 21.9998 19.8293 21.4141 20.415C20.8282 21.0003 19.8851 21 18 21H17.75C16.914 21 16.4493 20.9991 16.1504 20.7949C16.5349 20.2466 16.786 19.597 16.8555 18.8926C16.8747 18.6971 16.875 18.4641 16.875 18V9C16.875 8.53625 16.8747 8.30382 16.8555 8.1084C16.7643 7.18315 16.3594 6.35337 15.75 5.72266V5.39062C15.75 3.40554 15.7505 2.41285 16.3545 2.15234ZM11.25 14.25C10.8359 14.25 10.5001 14.5859 10.5 15V16.5C10.5001 16.9141 10.8359 17.25 11.25 17.25C11.6641 17.25 11.9999 16.9141 12 16.5V15C11.9999 14.5859 11.6641 14.25 11.25 14.25ZM11.25 9C10.8359 9 10.5001 9.33589 10.5 9.75V11.25C10.5001 11.6641 10.8359 12 11.25 12C11.6641 12 11.9999 11.6641 12 11.25V9.75C11.9999 9.33589 11.6641 9 11.25 9Z"
    fill="var(--tbl--ui-node-icon--search-company-m)"
  />

  <defs>
    <linearGradient id="tbl--ui-node-icon--search-company-m" x1="12" y1="2.09766" x2="12" y2="21" gradientUnits="userSpaceOnUse">
      <stop stop-color="#A190F5"/>
      <stop offset="1" stop-color="#816BE6"/>
    </linearGradient>
  </defs>
</svg>
