<svg width="32" height="32" viewBox="0 0 32 32" fill="none" xmlns="http://www.w3.org/2000/svg">
  <path
    fill-rule="evenodd"
    clip-rule="evenodd"
    d="M7 10C5.34315 10 4 11.3431 4 13V26C4 27.6569 5.34315 29 7 29H13V10H7ZM6.99988 14.0001C6.99988 13.4478 7.44759 13.0001 7.99988 13.0001H8.99988C9.55216 13.0001 9.99988 13.4478 9.99988 14.0001V16.0001C9.99988 16.5524 9.55216 17.0001 8.99988 17.0001H7.99988C7.44759 17.0001 6.99988 16.5524 6.99988 16.0001V14.0001ZM6.99988 21.0001C6.99988 20.4478 7.44759 20.0001 7.99988 20.0001H8.99988C9.55216 20.0001 9.99988 20.4478 9.99988 21.0001V23.0001C9.99988 23.5524 9.55216 24.0001 8.99988 24.0001H7.99988C7.44759 24.0001 6.99988 23.5524 6.99988 23.0001V21.0001Z"
    fill="var(--tbl--colors--icons--enrich--tertiary)"
  />
  <path
    fill-rule="evenodd"
    clip-rule="evenodd"
    d="M18 3C16.3431 3 15 4.34315 15 6V29H24C25.6569 29 27 27.6569 27 26V6C27 4.34315 25.6569 3 24 3H18ZM17.9999 7.00016C17.9999 6.44788 18.4476 6.00016 18.9999 6.00016H19.9999C20.5522 6.00016 20.9999 6.44788 20.9999 7.00016V9.00016C20.9999 9.55245 20.5522 10.0002 19.9999 10.0002H18.9999C18.4476 10.0002 17.9999 9.55245 17.9999 9.00016V7.00016ZM17.9999 13.9997C17.9999 13.4474 18.4476 12.9997 18.9999 12.9997H19.9999C20.5522 12.9997 20.9999 13.4474 20.9999 13.9997V15.9997C20.9999 16.552 20.5522 16.9997 19.9999 16.9997H18.9999C18.4476 16.9997 17.9999 16.552 17.9999 15.9997V13.9997Z"
    fill="var(--tbl--colors--icons--enrich--primary)"
  />
</svg>
