<svg width="24" height="24" viewBox="0 0 24 24" fill="none" xmlns="http://www.w3.org/2000/svg">
  <path
    fill-rule="evenodd"
    clip-rule="evenodd"
    d="M5 7C3.89543 7 3 7.89543 3 9V19C3 20.1046 3.89543 21 5 21H10V7H5ZM5 10C5 9.44772 5.44772 9 6 9C6.55228 9 7 9.44772 7 10V11C7 11.5523 6.55228 12 6 12C5.44772 12 5 11.5523 5 11V10ZM5 15C5 14.4477 5.44772 14 6 14C6.55228 14 7 14.4477 7 15V16C7 16.5523 6.55228 17 6 17C5.44772 17 5 16.5523 5 16V15Z"
    fill="var(--tbl--colors--icons--enrich--tertiary)"
  />
  <path
    fill-rule="evenodd"
    clip-rule="evenodd"
    d="M14 3C12.8954 3 12 3.89543 12 5V21H19C20.1046 21 21 20.1046 21 19V5C21 3.89543 20.1046 3 19 3H14ZM14 6C14 5.44772 14.4477 5 15 5C15.5523 5 16 5.44772 16 6V7C16 7.55228 15.5523 8 15 8C14.4477 8 14 7.55228 14 7V6ZM14 11C14 10.4477 14.4477 10 15 10C15.5523 10 16 10.4477 16 11V12C16 12.5523 15.5523 13 15 13C14.4477 13 14 12.5523 14 12V11Z"
    fill="var(--tbl--colors--icons--enrich--primary)"
  />
</svg>

