<svg width="16" height="16" viewBox="0 0 16 16" fill="none" xmlns="http://www.w3.org/2000/svg">
  <path fill-rule="evenodd" clip-rule="evenodd" d="M9 2H3L3 14H12V5L10 5C9.44772 5 9 4.55228 9 4V2ZM13 5L9 1H3C2.44772 1 2 1.44772 2 2V14C2 14.5523 2.44772 15 3 15H12C12.5523 15 13 14.5523 13 14L13 5ZM10 9V7H8V9H10ZM5 7H7V9H5V7ZM5 12V10H7V12H5ZM10 10V12H8V10H10ZM5 6C4.44772 6 4 6.44772 4 7V12C4 12.5523 4.44772 13 5 13H10C10.5523 13 11 12.5523 11 12V7C11 6.44772 10.5523 6 10 6H5Z" fill="currentColor"/>
</svg>
