<svg width="24" height="24" viewBox="0 0 24 24" fill="none" xmlns="http://www.w3.org/2000/svg">
  <path
    fill-rule="evenodd"
    clip-rule="evenodd"
    d="M8.7842 5.244C8.7482 5.22 9.0602 4.404 9.4682 3.432C9.8762 2.472 10.2242 1.692 10.2362 1.704C10.3442 1.824 11.7362 5.208 11.7002 5.244C11.6642 5.268 11.3522 4.956 10.9802 4.56C10.6082 4.164 10.2602 3.84 10.2122 3.84C10.1522 3.84 9.8162 4.164 9.4682 4.572C9.1202 4.968 8.8082 5.268 8.7842 5.244ZM11.4963 16.188C8.02826 12.66 9.80426 6.756 14.6523 5.7C15.5763 5.496 15.7803 5.496 16.8363 5.64C18.5283 5.88 20.4123 7.128 21.2643 8.568C22.9923 11.52 22.1163 15.192 19.2483 17.064C18.2403 17.712 17.2323 18 15.9363 18C14.1123 18 12.7203 17.424 11.4963 16.188ZM21.6603 11.4C21.5163 8.892 19.8963 6.936 17.3883 6.192C16.6803 5.988 15.3243 5.952 14.5683 6.132C12.9723 6.504 11.4123 7.776 10.7043 9.276C9.98426 10.812 9.93626 12.348 10.5363 13.956C11.1603 15.624 12.6723 16.944 14.4603 17.4C15.5523 17.688 16.2123 17.7 17.2323 17.46C18.3483 17.196 19.1403 16.74 20.0163 15.852C21.3003 14.556 21.7803 13.26 21.6603 11.4ZM14.2922 10.224L15.9362 11.82L14.3162 13.368C13.4162 14.208 12.7082 14.928 12.7322 14.952C12.7562 14.976 13.9322 14.508 15.3482 13.908C15.8644 13.6893 16.4093 13.4578 16.9213 13.2402C17.8138 12.8611 18.6062 12.5245 18.9722 12.372C19.5602 12.132 20.0402 11.88 20.0282 11.82C20.0282 11.748 19.4882 11.472 18.8522 11.208C14.5802 9.396 12.9722 8.724 12.8162 8.676C12.7202 8.652 13.3802 9.336 14.2922 10.224ZM6.39622 9.168L5.95222 8.064C5.71222 7.452 5.56822 6.96 5.62822 6.96C5.80822 6.96 7.59622 7.692 7.71622 7.824C7.80022 7.908 7.62022 7.932 7.17622 7.896L6.51622 7.86L6.45622 8.52L6.39622 9.168ZM1.68014 11.184C0.744141 11.592 -0.0118591 11.928 0.000140907 11.94C0.108141 12.036 3.50414 13.44 3.54014 13.404C3.56414 13.38 3.25214 13.044 2.85614 12.672C2.46014 12.288 2.13614 11.952 2.13614 11.916C2.13614 11.88 2.47214 11.532 2.89214 11.148C3.30014 10.764 3.58814 10.452 3.51614 10.452C3.45614 10.452 2.62814 10.788 1.68014 11.184ZM5.65784 16.3227C5.58748 16.2514 5.67462 16.0246 5.84002 15.5942L5.84003 15.5942C5.8743 15.505 5.91192 15.4071 5.9522 15.3L6.3962 14.148L6.4322 14.808L6.4682 15.48H7.2122H7.9562L6.9482 15.9C6.817 15.9537 6.69731 16.0033 6.58843 16.0485L6.58807 16.0486L6.58806 16.0486C6.00979 16.2885 5.73618 16.402 5.65784 16.3227ZM20.6402 16.584C20.5322 16.692 20.8442 17.064 22.0322 18.264C23.3522 19.584 23.9762 20.052 23.9762 19.704C23.9762 19.656 23.2562 18.9 22.3802 18.024C21.1442 16.788 20.7602 16.464 20.6402 16.584ZM10.2242 22.02C10.1402 22.02 8.72416 18.78 8.73616 18.612C8.74816 18.576 9.07216 18.888 9.46816 19.308L10.1882 20.088L10.9562 19.32C11.3882 18.888 11.7362 18.576 11.7362 18.612C11.7362 18.792 10.2962 22.02 10.2242 22.02Z"
    fill="var(--tbl--ui-node-icon--enrichment--disco-like)"
  />
</svg>
