<svg width="16" height="16" viewBox="0 0 16 16" fill="none" xmlns="http://www.w3.org/2000/svg">
  <path
    fill-rule="evenodd"
    clip-rule="evenodd"
    d="M5.85613 3.496C5.83213 3.48 6.04013 2.936 6.31213 2.288C6.58413 1.648 6.81613 1.128 6.82413 1.136C6.89613 1.216 7.82413 3.472 7.80013 3.496C7.77613 3.512 7.56813 3.304 7.32013 3.04C7.07213 2.776 6.84013 2.56 6.80813 2.56C6.76813 2.56 6.54413 2.776 6.31213 3.048C6.08013 3.312 5.87213 3.512 5.85613 3.496ZM7.66409 10.792C5.35209 8.44 6.53609 4.504 9.76809 3.8C10.3841 3.664 10.5201 3.664 11.2241 3.76C12.3521 3.92 13.6081 4.752 14.1761 5.712C15.3281 7.68 14.7441 10.128 12.8321 11.376C12.1601 11.808 11.4881 12 10.6241 12C9.40809 12 8.48009 11.616 7.66409 10.792ZM14.4401 7.6C14.3441 5.928 13.2641 4.624 11.5921 4.128C11.1201 3.992 10.2161 3.968 9.71209 4.088C8.64809 4.336 7.60809 5.184 7.13609 6.184C6.65609 7.208 6.62409 8.232 7.02409 9.304C7.44009 10.416 8.44809 11.296 9.64009 11.6C10.3681 11.792 10.8081 11.8 11.4881 11.64C12.2321 11.464 12.7601 11.16 13.3441 10.568C14.2001 9.704 14.5201 8.84 14.4401 7.6ZM9.52819 6.816L10.6242 7.88L9.54419 8.912C8.94419 9.472 8.47219 9.952 8.48819 9.968C8.50419 9.984 9.28819 9.672 10.2322 9.27201C10.5763 9.12621 10.9394 8.97192 11.2807 8.82695L11.2807 8.82693C11.8758 8.57415 12.4042 8.34969 12.6482 8.248C13.0402 8.088 13.3602 7.92 13.3522 7.88C13.3522 7.832 12.9922 7.648 12.5682 7.472C9.72019 6.264 8.64819 5.816 8.54419 5.784C8.48019 5.768 8.92019 6.224 9.52819 6.816ZM4.26411 6.112L3.96811 5.376C3.80811 4.968 3.71211 4.64 3.75211 4.64C3.87211 4.64 5.06411 5.128 5.14411 5.216C5.20011 5.272 5.08011 5.288 4.78411 5.264L4.34411 5.24L4.30411 5.68L4.26411 6.112ZM1.12009 7.456C0.496094 7.728 -0.00790606 7.952 9.39378e-05 7.96C0.0720939 8.024 2.33609 8.96 2.36009 8.936C2.37609 8.92 2.16809 8.696 1.90409 8.448C1.64009 8.192 1.42409 7.968 1.42409 7.944C1.42409 7.92 1.64809 7.688 1.92809 7.432C2.20009 7.176 2.39209 6.968 2.34409 6.968C2.30409 6.968 1.75209 7.192 1.12009 7.456ZM3.77185 10.8818C3.72495 10.8343 3.78304 10.6831 3.89331 10.3961L3.89334 10.3961C3.91618 10.3366 3.94125 10.2714 3.9681 10.2L4.2641 9.43201L4.2881 9.87201L4.3121 10.32H4.8081H5.3041L4.6321 10.6C4.54453 10.6358 4.46466 10.669 4.39201 10.6991C4.00649 10.859 3.82408 10.9347 3.77185 10.8818ZM13.7601 11.056C13.6881 11.128 13.8961 11.376 14.6881 12.176C15.5681 13.056 15.9841 13.368 15.9841 13.136C15.9841 13.104 15.5041 12.6 14.9201 12.016C14.0961 11.192 13.8401 10.976 13.7601 11.056ZM6.81615 14.68C6.76015 14.68 5.81615 12.52 5.82415 12.408C5.83215 12.384 6.04815 12.592 6.31215 12.872L6.79215 13.392L7.30415 12.88C7.59215 12.592 7.82415 12.384 7.82415 12.408C7.82415 12.528 6.86415 14.68 6.81615 14.68Z"
    fill="var(--tbl--ui-node-icon--enrichment--disco-like)"
  />
</svg>
