<svg xmlns="http://www.w3.org/2000/svg" width="32" height="32" fill="none" viewBox="0 0 32 32">
  <path
    fill-rule="evenodd"
    clip-rule="evenodd"
    d="M11.7121 6.992C11.6641 6.96 12.0801 5.872 12.6241 4.576C13.1681 3.296 13.6321 2.256 13.6481 2.272C13.7921 2.432 15.6481 6.944 15.6001 6.992C15.5521 7.024 15.1361 6.608 14.6401 6.08C14.1441 5.552 13.6801 5.12 13.6161 5.12C13.5361 5.12 13.0881 5.552 12.6241 6.096C12.1601 6.624 11.7441 7.024 11.7121 6.992ZM15.3282 21.584C10.7042 16.88 13.0722 9.008 19.5362 7.6C20.7682 7.328 21.0402 7.328 22.4482 7.52C24.7042 7.84 27.2162 9.504 28.3522 11.424C30.6562 15.36 29.4882 20.256 25.6642 22.752C24.3202 23.616 22.9762 24 21.2482 24C18.8162 24 16.9602 23.232 15.3282 21.584ZM28.8802 15.2C28.6882 11.856 26.5282 9.248 23.1842 8.256C22.2402 7.984 20.4322 7.936 19.4242 8.176C17.2962 8.672 15.2162 10.368 14.2722 12.368C13.3122 14.416 13.2482 16.464 14.0482 18.608C14.8802 20.832 16.8962 22.592 19.2802 23.2C20.7362 23.584 21.6162 23.6 22.9762 23.28C24.4642 22.928 25.5202 22.32 26.6882 21.136C28.4002 19.408 29.0402 17.68 28.8802 15.2ZM19.0561 13.632L21.2481 15.76L19.0881 17.824C17.8881 18.944 16.9441 19.904 16.9761 19.936C17.0081 19.968 18.5761 19.344 20.4641 18.544C21.1523 18.2524 21.8787 17.9438 22.5612 17.6539L22.5613 17.6539C23.7513 17.1483 24.8081 16.6994 25.2961 16.496C26.0801 16.176 26.7201 15.84 26.7041 15.76C26.7041 15.664 25.9841 15.296 25.1361 14.944C19.4401 12.528 17.2961 11.632 17.0881 11.568C16.9601 11.536 17.8401 12.448 19.0561 13.632ZM8.5281 12.224L7.9361 10.752C7.6161 9.936 7.4241 9.28 7.5041 9.28C7.7441 9.28 10.1281 10.256 10.2881 10.432C10.4001 10.544 10.1601 10.576 9.5681 10.528L8.6881 10.48L8.6081 11.36L8.5281 12.224ZM2.24019 14.912C0.992188 15.456 -0.0158121 15.904 0.000187876 15.92C0.144188 16.048 4.67219 17.92 4.72019 17.872C4.75219 17.84 4.33619 17.392 3.80819 16.896C3.28019 16.384 2.84819 15.936 2.84819 15.888C2.84819 15.84 3.29619 15.376 3.85619 14.864C4.40019 14.352 4.78419 13.936 4.68819 13.936C4.60819 13.936 3.50419 14.384 2.24019 14.912ZM7.5437 21.7635C7.4499 21.6685 7.56608 21.3662 7.78661 20.7923L7.78667 20.7921C7.83235 20.6733 7.8825 20.5427 7.93619 20.4L8.52819 18.864L8.57619 19.744L8.62419 20.64H9.61619H10.6082L9.26419 21.2C9.08905 21.2716 8.92932 21.3379 8.78401 21.3982C8.01297 21.718 7.64816 21.8693 7.5437 21.7635ZM27.5201 22.112C27.3761 22.256 27.7921 22.752 29.3761 24.352C31.1361 26.112 31.9681 26.736 31.9681 26.272C31.9681 26.208 31.0081 25.2 29.8401 24.032C28.1921 22.384 27.6801 21.952 27.5201 22.112ZM13.6322 29.36C13.5202 29.36 11.6322 25.04 11.6482 24.816C11.6642 24.768 12.0962 25.184 12.6242 25.744L13.5842 26.784L14.6082 25.76C15.1842 25.184 15.6482 24.768 15.6482 24.816C15.6482 25.056 13.7282 29.36 13.6322 29.36Z"
    fill="var(--tbl--ui-node-icon--enrichment--disco-like)"
  />
</svg>
