<svg xmlns="http://www.w3.org/2000/svg" width="24" height="24" fill="none" viewBox="0 0 24 24">
  <path fill="var(--tbl--colors--icons--transformation--primary)" fill-rule="evenodd" d="M4 5a3 3 0 0 1 3-3h8l5 5v12a3 3 0 0 1-3 3H7a3 3 0 0 1-3-3V5Zm4.5 4A1.5 1.5 0 0 0 7 10.5v1.266l-1.02.85v.768l1.02.85V15.5A1.5 1.5 0 0 0 8.5 17h1a.5.5 0 0 0 0-1h-1a.5.5 0 0 1-.5-.5v-1.734l-.18-.15L7.081 13l.74-.616.179-.15V10.5a.5.5 0 0 1 .5-.5h1a.5.5 0 0 0 0-1h-1Zm6.8 0a1.5 1.5 0 0 1 1.5 1.5v1.266l1.02.85v.768l-1.02.85V15.5a1.5 1.5 0 0 1-1.5 1.5h-1a.5.5 0 0 1 0-1h1a.5.5 0 0 0 .5-.5v-1.734l.18-.15.739-.616-.74-.616-.179-.15V10.5a.5.5 0 0 0-.5-.5h-1a.5.5 0 0 1 0-1h1ZM13 11a1 1 0 1 1-2 0 1 1 0 0 1 2 0Zm-1 2a1 1 0 0 1 1 1c0 1.33-1.574 1.874-1.93 1.98.123-.056.365-.275.42-1.12A1 1 0 0 1 12 13Zm-1 3s.028 0 .07-.02c-.045.014-.07.02-.07.02Z" clip-rule="evenodd"/>
  <path fill="#fff" fill-opacity=".5" d="m20 7-5-5v3a2 2 0 0 0 2 2h3Z"/>
</svg>
