<svg xmlns="http://www.w3.org/2000/svg" width="16" height="16" fill="none" viewBox="0 0 16 16">
  <path fill="currentColor" fill-rule="evenodd" d="M2.5 5.5A2.5 2.5 0 0 1 5 3h1a.5.5 0 0 1 0 1H5a1.5 1.5 0 0 0-1.5 1.5v1.086a1.5 1.5 0 0 1-.44 1.06l-.853.854.854.854a1.5 1.5 0 0 1 .439 1.06V11.5A1.5 1.5 0 0 0 5 13h1a.5.5 0 0 1 0 1H5a2.5 2.5 0 0 1-2.5-2.5v-1.086a.5.5 0 0 0-.146-.353L1.146 8.854a.5.5 0 0 1 0-.708L2.354 6.94a.5.5 0 0 0 .146-.353V5.5Zm11 0A2.5 2.5 0 0 0 11 3h-1a.5.5 0 0 0 0 1h1a1.5 1.5 0 0 1 1.5 1.5v1.086c0 .398.158.78.44 1.06l.853.854-.854.854a1.5 1.5 0 0 0-.439 1.06V11.5A1.5 1.5 0 0 1 11 13h-1a.5.5 0 0 0 0 1h1a2.5 2.5 0 0 0 2.5-2.5v-1.086a.5.5 0 0 1 .146-.353l1.208-1.207a.5.5 0 0 0 0-.708L13.646 6.94a.5.5 0 0 1-.146-.353V5.5ZM8 8a1 1 0 1 0 0-2 1 1 0 0 0 0 2Zm1 2a1 1 0 1 0-1.51.86c-.055.845-.297 1.064-.42 1.12-.045.014-.07.02-.07.02s.028 0 .07-.02C7.427 11.874 9 11.33 9 10Z" clip-rule="evenodd"/>
</svg>
