<svg xmlns="http://www.w3.org/2000/svg" width="32" height="32" fill="none" viewBox="0 0 32 32">
  <path fill="var(--tbl--colors--icons--transformation--primary)" fill-rule="evenodd" d="M5 7a4 4 0 0 1 4-4h14.008H21l6 6v16a4 4 0 0 1-4 4H9a4 4 0 0 1-4-4V7Zm7 4a2.5 2.5 0 0 0-2.5 2.5v1.086a.5.5 0 0 1-.146.353l-1.208 1.207a.5.5 0 0 0 0 .708l1.208 1.207a.5.5 0 0 1 .146.353V19.5A2.5 2.5 0 0 0 12 22h1a.5.5 0 0 0 0-1h-1a1.5 1.5 0 0 1-1.5-1.5v-1.086a1.5 1.5 0 0 0-.44-1.06l-.853-.854.854-.854a1.5 1.5 0 0 0 .439-1.06V13.5A1.5 1.5 0 0 1 12 12h1a.5.5 0 0 0 0-1h-1Zm8 0a2.5 2.5 0 0 1 2.5 2.5v1.086a.5.5 0 0 0 .146.353l1.208 1.207a.5.5 0 0 1 0 .708l-1.208 1.207a.5.5 0 0 0-.146.353V19.5A2.5 2.5 0 0 1 20 22h-1a.5.5 0 0 1 0-1h1a1.5 1.5 0 0 0 1.5-1.5v-1.086c0-.398.158-.78.44-1.06l.853-.854-.854-.854a1.5 1.5 0 0 1-.439-1.06V13.5A1.5 1.5 0 0 0 20 12h-1a.5.5 0 0 1 0-1h1Zm-3 3a1 1 0 1 1-2 0 1 1 0 0 1 2 0Zm-1.51 4.86A1 1 0 1 1 17 18v1c0 1.5-2 2-2 2s.42-.842.49-2.14Z" clip-rule="evenodd"/>
  <path fill="#fff" fill-opacity=".5" d="M21 7V3l6 6h-4a2 2 0 0 1-2-2Z"/>
</svg>
