<svg xmlns="http://www.w3.org/2000/svg" width="32" height="32" fill="none" viewBox="0 0 32 32">
  <path
    fill-rule="evenodd"
    clip-rule="evenodd"
    d="M31.7788 5.34542V4.16663H29.9234C29.5958 4.16663 29.3303 4.27214 29.1266 4.48316C28.9156 4.6869 28.8101 4.95249 28.8101 5.27994V8.66351C28.8101 8.87455 28.7117 8.98004 28.5154 8.98004H27.26V10.2898H28.5154C28.7117 10.2898 28.8101 10.3954 28.8101 10.6064V13.99C28.8101 14.3174 28.9156 14.583 29.1266 14.7867C29.3303 14.9978 29.5958 15.1033 29.9234 15.1033H31.7788V13.9245H30.4365C30.2398 13.9245 30.1417 13.8153 30.1417 13.597V10.6064C30.1417 10.359 30.0652 10.1516 29.9125 9.98421C29.7523 9.81684 29.5451 9.73318 29.2904 9.73318H29.1158V9.5367H29.2904C29.5451 9.5367 29.7523 9.45301 29.9125 9.28566C30.0652 9.11829 30.1417 8.91091 30.1417 8.66351V5.67287C30.1417 5.45457 30.2398 5.34542 30.4365 5.34542H31.7788ZM1.00757 7.67199V15.4576H2.41704V12.5827H2.6184C2.70043 12.7095 2.80858 12.8363 2.94279 12.9631C3.08448 13.0824 3.26721 13.1793 3.49093 13.2539C3.72212 13.3359 4.00548 13.3769 4.34108 13.3769C4.78853 13.3769 5.20242 13.2688 5.58276 13.0526C5.9631 12.8288 6.26886 12.5044 6.50005 12.0793C6.73123 11.6543 6.84681 11.1397 6.84681 10.5356V10.3566C6.84681 9.75264 6.73123 9.23806 6.50005 8.81298C6.26886 8.38789 5.9631 8.06721 5.58276 7.85097C5.20242 7.62724 4.78853 7.51538 4.34108 7.51538C3.84144 7.51538 3.45736 7.60113 3.18889 7.77265C2.92041 7.93672 2.7228 8.12687 2.59602 8.34315H2.39467V7.67199H1.00757ZM5.00106 11.7326C4.7177 12.0085 4.35599 12.1465 3.91602 12.1465C3.48348 12.1465 3.12177 12.0085 2.83095 11.7326C2.54009 11.4492 2.39467 11.039 2.39467 10.5021V10.3902C2.39467 9.8533 2.54009 9.44687 2.83095 9.17094C3.12177 8.88755 3.48348 8.74586 3.91602 8.74586C4.34854 8.74586 4.71024 8.88755 5.00106 9.17094C5.29191 9.44687 5.43735 9.8533 5.43735 10.3902V10.5021C5.43735 11.039 5.29191 11.4492 5.00106 11.7326ZM8.14102 7.67199V13.2203H9.55049V10.0658C9.55049 9.6706 9.66609 9.37976 9.89725 9.19331C10.1284 8.99942 10.423 8.90247 10.781 8.90247H11.4745V7.64961H10.8033C10.5498 7.64961 10.326 7.70182 10.1321 7.80622C9.94574 7.91063 9.8115 8.07467 9.72947 8.2984H9.52812V7.67199H8.14102ZM13.5317 13.0414C13.9717 13.2651 14.4677 13.3769 15.0195 13.3769C15.5714 13.3769 16.0673 13.2651 16.5073 13.0414C16.9473 12.8176 17.294 12.4932 17.5476 12.0682C17.8012 11.6431 17.9279 11.1322 17.9279 10.5356V10.3566C17.9279 9.76009 17.8012 9.24923 17.5476 8.82418C17.294 8.39909 16.9473 8.07467 16.5073 7.85097C16.0673 7.62724 15.5714 7.51538 15.0195 7.51538C14.4677 7.51538 13.9717 7.62724 13.5317 7.85097C13.0917 8.07467 12.7449 8.39909 12.4914 8.82418C12.2379 9.24923 12.1111 9.76009 12.1111 10.3566V10.5356C12.1111 11.1322 12.2379 11.6431 12.4914 12.0682C12.7449 12.4932 13.0917 12.8176 13.5317 13.0414ZM16.0934 11.7102C15.81 11.9861 15.452 12.1241 15.0195 12.1241C14.587 12.1241 14.229 11.9861 13.9456 11.7102C13.6622 11.4268 13.5205 11.0241 13.5205 10.5021V10.3902C13.5205 9.86822 13.6622 9.46925 13.9456 9.19331C14.229 8.90993 14.587 8.76823 15.0195 8.76823C15.4595 8.76823 15.8175 8.90993 16.0934 9.19331C16.3768 9.46925 16.5185 9.86822 16.5185 10.3902V10.5021C16.5185 11.0241 16.3768 11.4268 16.0934 11.7102ZM18.9605 10.2895V10.4685C18.9605 11.0502 19.0761 11.5499 19.3073 11.9675C19.5384 12.3776 19.8442 12.6946 20.2245 12.9183C20.6123 13.1346 21.0337 13.2427 21.4886 13.2427C21.8316 13.2427 22.115 13.2017 22.3388 13.1197C22.5625 13.0376 22.7414 12.9369 22.8757 12.8176C23.0099 12.6908 23.1143 12.5678 23.1889 12.4485H23.3903V13.8915C23.3903 14.1153 23.2858 14.2271 23.077 14.2271H19.8554V15.4576H23.5692C23.9421 15.4576 24.2404 15.342 24.4642 15.1108C24.6879 14.8871 24.7997 14.5851 24.7997 14.2047V7.67199H23.4126V8.34315H23.2113C23.092 8.14925 22.9018 7.96281 22.6408 7.78385C22.3798 7.60487 21.9957 7.51538 21.4886 7.51538C21.0337 7.51538 20.6123 7.62724 20.2245 7.85097C19.8442 8.06721 19.5384 8.38418 19.3073 8.8018C19.0761 9.21195 18.9605 9.70789 18.9605 10.2895ZM22.9764 11.5983C22.6855 11.8743 22.3238 12.0122 21.8913 12.0122C21.4588 12.0122 21.0971 11.8743 20.8062 11.5983C20.5154 11.3224 20.37 10.9346 20.37 10.435V10.3231C20.37 9.81601 20.5154 9.42822 20.8062 9.15974C21.0971 8.88384 21.4588 8.74586 21.8913 8.74586C22.3313 8.74586 22.693 8.88384 22.9764 9.15974C23.2672 9.42822 23.4126 9.81601 23.4126 10.3231V10.435C23.4126 10.9346 23.2672 11.3224 22.9764 11.5983ZM1.13064 25.3732C1.33945 25.5671 1.59301 25.664 1.89131 25.664C2.19707 25.664 2.45063 25.5671 2.65198 25.3732C2.85335 25.1718 2.95401 24.9146 2.95401 24.6013C2.95401 24.2881 2.85335 24.0346 2.65198 23.8407C2.45063 23.6393 2.19707 23.5386 1.89131 23.5386C1.59301 23.5386 1.33945 23.6393 1.13064 23.8407C0.929289 24.0346 0.828613 24.2881 0.828613 24.6013C0.828613 24.9146 0.929289 25.1718 1.13064 25.3732ZM4.99943 25.4627C5.31265 25.5969 5.66688 25.664 6.06213 25.664C6.44993 25.664 6.75569 25.6081 6.97942 25.4962C7.20315 25.3844 7.36722 25.2576 7.47162 25.1159C7.57603 24.9668 7.64315 24.8474 7.67295 24.7579H7.88551V24.7691C7.88551 24.9928 7.975 25.1718 8.15398 25.3061C8.33297 25.4403 8.56041 25.5074 8.83634 25.5074H9.776V24.344H9.32855C9.11973 24.344 9.01532 24.2322 9.01532 24.0085V21.939C9.01532 21.2454 8.80277 20.716 8.37771 20.3505C7.95263 19.9851 7.37467 19.8024 6.64383 19.8024C6.16654 19.8024 5.76011 19.877 5.42452 20.0261C5.09638 20.1678 4.83165 20.358 4.63029 20.5966C4.4364 20.8278 4.2947 21.0851 4.20521 21.3685L5.50284 21.8047C5.55501 21.5512 5.66688 21.3461 5.8384 21.1895C6.00993 21.0254 6.27095 20.9434 6.62145 20.9434C6.97942 20.9434 7.24044 21.0292 7.4045 21.2007C7.56857 21.3647 7.65061 21.5773 7.65061 21.8383V22.1515H6.12925C5.71162 22.1515 5.33877 22.2186 5.01063 22.3529C4.68996 22.4796 4.4364 22.6735 4.24996 22.9346C4.07097 23.1881 3.98148 23.5051 3.98148 23.8854C3.98148 24.2657 4.07097 24.5901 4.24996 24.8586C4.4364 25.1196 4.68621 25.321 4.99943 25.4627ZM7.27027 24.1986C7.02417 24.4149 6.70349 24.523 6.30823 24.523C6.00993 24.523 5.78249 24.4596 5.62587 24.3329C5.46926 24.2061 5.39097 24.042 5.39097 23.8407C5.39097 23.6393 5.46555 23.4827 5.61467 23.3708C5.76383 23.259 5.96893 23.203 6.22994 23.203H7.65061V23.3149C7.65061 23.6803 7.52383 23.9749 7.27027 24.1986ZM10.8065 19.959V25.5074H12.216V19.959H10.8065ZM10.8625 19.0641C11.0414 19.2282 11.2577 19.3102 11.5113 19.3102C11.7723 19.3102 11.9886 19.2282 12.1601 19.0641C12.3316 18.9 12.4174 18.6838 12.4174 18.4153C12.4174 18.1468 12.3316 17.9306 12.1601 17.7665C11.9886 17.6024 11.7723 17.5204 11.5113 17.5204C11.2577 17.5204 11.0414 17.6024 10.8625 17.7665C10.6909 17.9306 10.6052 18.1468 10.6052 18.4153C10.6052 18.6838 10.6909 18.9 10.8625 19.0641ZM14.2805 26.9202V25.7414H15.623C15.8195 25.7414 15.9177 25.6323 15.9177 25.414V22.4233C15.9177 22.1759 15.9941 21.9685 16.1469 21.8012C16.307 21.6338 16.5144 21.5501 16.769 21.5501H16.9437V21.3537H16.769C16.5144 21.3537 16.307 21.27 16.1469 21.1026C15.9941 20.9353 15.9177 20.7279 15.9177 20.4805V17.4898C15.9177 17.2715 15.8195 17.1624 15.623 17.1624H14.2805V15.9836H16.136C16.4634 15.9836 16.729 16.0891 16.9328 16.3001C17.1438 16.5039 17.2493 16.7695 17.2493 17.0969V20.4805C17.2493 20.6915 17.3475 20.797 17.544 20.797H18.7992V22.1068H17.544C17.3475 22.1068 17.2493 22.2123 17.2493 22.4233V25.8069C17.2493 26.1343 17.1438 26.3999 16.9328 26.6037C16.729 26.8147 16.4634 26.9202 16.136 26.9202H14.2805Z"
    fill="var(--tbl--ui-node-icon--enrichment--progai)"
  />
</svg>
