<svg xmlns="http://www.w3.org/2000/svg" width="24" height="24" fill="none" viewBox="0 0 24 24">
  <path
    fill-rule="evenodd"
    clip-rule="evenodd"
    d="M23.8342 4.0091V3.125H22.4426C22.1969 3.125 21.9978 3.20414 21.8451 3.3624C21.6868 3.51521 21.6077 3.7144 21.6077 3.95998V6.49766C21.6077 6.65594 21.5339 6.73506 21.3866 6.73506H20.4451V7.71739H21.3866C21.5339 7.71739 21.6077 7.79653 21.6077 7.95479V10.4925C21.6077 10.738 21.6868 10.9372 21.8451 11.0901C21.9978 11.2483 22.1969 11.3274 22.4426 11.3274H23.8342V10.4434H22.8275C22.68 10.4434 22.6064 10.3615 22.6064 10.1978V7.95479C22.6064 7.76924 22.549 7.6137 22.4345 7.48819C22.3143 7.36266 22.1589 7.29991 21.9679 7.29991H21.8369V7.15256H21.9679C22.1589 7.15256 22.3143 7.08979 22.4345 6.96428C22.549 6.83875 22.6064 6.68322 22.6064 6.49766V4.25468C22.6064 4.09096 22.68 4.0091 22.8275 4.0091H23.8342ZM0.755859 5.75393V11.5932H1.81296V9.43702H1.96398C2.0255 9.53211 2.10661 9.62718 2.20727 9.72227C2.31354 9.81176 2.45058 9.88447 2.61838 9.94038C2.79177 10.0019 3.00429 10.0327 3.25599 10.0327C3.59158 10.0327 3.902 9.95158 4.18725 9.78939C4.4725 9.62159 4.70183 9.37827 4.87522 9.05948C5.04861 8.74067 5.13529 8.35474 5.13529 7.90168V7.76745C5.13529 7.31442 5.04861 6.92848 4.87522 6.60967C4.70183 6.29086 4.4725 6.05035 4.18725 5.88817C3.902 5.72037 3.59158 5.63647 3.25599 5.63647C2.88126 5.63647 2.5932 5.70078 2.39185 5.82943C2.19049 5.95249 2.04228 6.09509 1.9472 6.2573H1.79618V5.75393H0.755859ZM3.75098 8.79939C3.53846 9.00634 3.26717 9.10983 2.9372 9.10983C2.61279 9.10983 2.34151 9.00634 2.12339 8.79939C1.90525 8.58685 1.79618 8.27925 1.79618 7.87653V7.79263C1.79618 7.38993 1.90525 7.08509 2.12339 6.87815C2.34151 6.6656 2.61279 6.55933 2.9372 6.55933C3.26158 6.55933 3.53286 6.6656 3.75098 6.87815C3.96911 7.08509 4.07819 7.38993 4.07819 7.79263V7.87653C4.07819 8.27925 3.96911 8.58685 3.75098 8.79939ZM6.10595 5.75393V9.91522H7.16305V7.54931C7.16305 7.25289 7.24975 7.03476 7.42312 6.89493C7.59651 6.7495 7.81745 6.67679 8.08593 6.67679H8.60608V5.73715H8.10271C7.91254 5.73715 7.74474 5.7763 7.59932 5.85461C7.45949 5.93291 7.35881 6.05594 7.29728 6.22374H7.14627V5.75393H6.10595ZM10.149 9.78099C10.479 9.94878 10.8509 10.0327 11.2648 10.0327C11.6787 10.0327 12.0506 9.94878 12.3806 9.78099C12.7106 9.61319 12.9707 9.36991 13.1609 9.05108C13.3511 8.73228 13.4461 8.34914 13.4461 7.90168V7.76745C13.4461 7.32001 13.3511 6.93686 13.1609 6.61807C12.9707 6.29926 12.7106 6.05594 12.3806 5.88817C12.0506 5.72037 11.6787 5.63647 11.2648 5.63647C10.8509 5.63647 10.479 5.72037 10.149 5.88817C9.81901 6.05594 9.55892 6.29926 9.36877 6.61807C9.1786 6.93686 9.08351 7.32001 9.08351 7.76745V7.90168C9.08351 8.34914 9.1786 8.73228 9.36877 9.05108C9.55892 9.36991 9.81901 9.61319 10.149 9.78099ZM12.0702 8.78262C11.8577 8.98956 11.5892 9.09304 11.2648 9.09304C10.9404 9.09304 10.6719 8.98956 10.4594 8.78262C10.2469 8.57007 10.1406 8.26805 10.1406 7.87653V7.79263C10.1406 7.4011 10.2469 7.10187 10.4594 6.89493C10.6719 6.68238 10.9404 6.57611 11.2648 6.57611C11.5948 6.57611 11.8633 6.68238 12.0702 6.89493C12.2828 7.10187 12.389 7.4011 12.389 7.79263V7.87653C12.389 8.26805 12.2828 8.57007 12.0702 8.78262ZM14.2206 7.71711V7.85135C14.2206 8.28762 14.3073 8.66236 14.4806 8.97558C14.654 9.28319 14.8833 9.52091 15.1686 9.68871C15.4594 9.85091 15.7754 9.932 16.1166 9.932C16.3739 9.932 16.5865 9.90125 16.7543 9.83974C16.9221 9.7782 17.0563 9.70269 17.157 9.6132C17.2576 9.51812 17.3359 9.42584 17.3919 9.33635H17.5429V10.4186C17.5429 10.5864 17.4646 10.6703 17.308 10.6703H14.8917V11.5932H17.6771C17.9568 11.5932 18.1805 11.5065 18.3483 11.3331C18.5161 11.1653 18.6 10.9388 18.6 10.6536V5.75393H17.5597V6.2573H17.4086C17.3192 6.11187 17.1765 5.97204 16.9808 5.83783C16.785 5.70359 16.497 5.63647 16.1166 5.63647C15.7754 5.63647 15.4594 5.72037 15.1686 5.88817C14.8833 6.05035 14.654 6.28807 14.4806 6.60129C14.3073 6.9089 14.2206 7.28086 14.2206 7.71711ZM17.2325 8.69872C17.0143 8.90566 16.7431 9.00914 16.4187 9.00914C16.0943 9.00914 15.823 8.90566 15.6049 8.69872C15.3867 8.49177 15.2777 8.20093 15.2777 7.82619V7.74229C15.2777 7.36195 15.3867 7.07111 15.6049 6.86975C15.823 6.66282 16.0943 6.55933 16.4187 6.55933C16.7487 6.55933 17.0199 6.66282 17.2325 6.86975C17.4506 7.07111 17.5597 7.36195 17.5597 7.74229V7.82619C17.5597 8.20093 17.4506 8.49177 17.2325 8.69872ZM0.848103 19.0299C1.00471 19.1753 1.19488 19.248 1.4186 19.248C1.64792 19.248 1.83809 19.1753 1.9891 19.0299C2.14013 18.8789 2.21563 18.6859 2.21563 18.451C2.21563 18.2161 2.14013 18.0259 1.9891 17.8805C1.83809 17.7295 1.64792 17.654 1.4186 17.654C1.19488 17.654 1.00471 17.7295 0.848103 17.8805C0.697088 18.0259 0.621582 18.2161 0.621582 18.451C0.621582 18.6859 0.697088 18.8789 0.848103 19.0299ZM3.7497 19.097C3.98461 19.1977 4.25028 19.248 4.54672 19.248C4.83757 19.248 5.06689 19.2061 5.23469 19.1222C5.40248 19.0383 5.52553 18.9432 5.60384 18.8369C5.68214 18.7251 5.73248 18.6356 5.75483 18.5685H5.91425V18.5768C5.91425 18.7446 5.98137 18.8789 6.11561 18.9795C6.24984 19.0802 6.42043 19.1306 6.62738 19.1306H7.33212V18.258H6.99653C6.83992 18.258 6.76161 18.1741 6.76161 18.0063V16.4542C6.76161 15.9341 6.6022 15.537 6.2834 15.2629C5.96459 14.9888 5.53113 14.8518 4.98299 14.8518C4.62502 14.8518 4.3202 14.9077 4.06851 15.0196C3.82241 15.1259 3.62386 15.2685 3.47284 15.4475C3.32742 15.6209 3.22115 15.8138 3.15403 16.0264L4.12725 16.3536C4.16638 16.1634 4.25028 16.0096 4.37892 15.8921C4.50757 15.7691 4.70333 15.7076 4.96621 15.7076C5.23469 15.7076 5.43045 15.7719 5.5535 15.9005C5.67655 16.0236 5.73808 16.183 5.73808 16.3787V16.6137H4.59706C4.28384 16.6137 4.0042 16.664 3.7581 16.7647C3.51759 16.8597 3.32742 17.0052 3.18759 17.2009C3.05335 17.3911 2.98623 17.6288 2.98623 17.914C2.98623 18.1993 3.05335 18.4426 3.18759 18.644C3.32742 18.8397 3.51478 18.9907 3.7497 19.097ZM5.45282 18.149C5.26824 18.3112 5.02774 18.3923 4.7313 18.3923C4.50757 18.3923 4.33698 18.3447 4.21953 18.2496C4.10207 18.1546 4.04335 18.0315 4.04335 17.8805C4.04335 17.7295 4.09928 17.612 4.21113 17.5281C4.32299 17.4442 4.47681 17.4023 4.67258 17.4023H5.73808V17.4862C5.73808 17.7602 5.64299 17.9812 5.45282 18.149ZM8.10502 14.9693V19.1306H9.16212V14.9693H8.10502ZM8.14696 14.2981C8.2812 14.4211 8.4434 14.4827 8.63357 14.4827C8.82934 14.4827 8.99154 14.4211 9.12016 14.2981C9.24881 14.175 9.31314 14.0128 9.31314 13.8115C9.31314 13.6101 9.24881 13.4479 9.12016 13.3249C8.99154 13.2018 8.82934 13.1403 8.63357 13.1403C8.4434 13.1403 8.2812 13.2018 8.14696 13.3249C8.01832 13.4479 7.95401 13.6101 7.95401 13.8115C7.95401 14.0128 8.01832 14.175 8.14696 14.2981ZM10.7104 20.1902V19.306H11.7174C11.8647 19.306 11.9384 19.2242 11.9384 19.0605V16.8175C11.9384 16.6319 11.9957 16.4764 12.1103 16.3509C12.2303 16.2254 12.3859 16.1626 12.5769 16.1626H12.7079V16.0152H12.5769C12.3859 16.0152 12.2303 15.9525 12.1103 15.827C11.9957 15.7014 11.9384 15.5459 11.9384 15.3604V13.1174C11.9384 12.9537 11.8647 12.8718 11.7174 12.8718H10.7104V11.9877H12.1021C12.3477 11.9877 12.547 12.0668 12.6997 12.2251C12.858 12.3779 12.9372 12.5771 12.9372 12.8227V15.3604C12.9372 15.5186 13.0107 15.5978 13.1581 15.5978H14.0995V16.5801H13.1581C13.0107 16.5801 12.9372 16.6592 12.9372 16.8175V19.3552C12.9372 19.6008 12.858 19.8 12.6997 19.9528C12.547 20.111 12.3477 20.1902 12.1021 20.1902H10.7104Z"
    fill="var(--tbl--ui-node-icon--enrichment--progai)"
  />
</svg>
