<svg xmlns="http://www.w3.org/2000/svg" width="24" height="24" fill="none" viewBox="0 0 24 24">
  <path
    fill-rule="evenodd"
    clip-rule="evenodd"
    d="M10.2882 11.1317V3.75H12.539V11.3573C12.539 12.9368 12.0756 14.1617 11.1157 14.9998C10.0896 15.8702 8.7656 16.3537 7.4085 16.2892C6.0514 16.3537 4.72739 15.8702 3.70129 14.9998C2.70829 14.1617 2.24489 12.9368 2.24489 11.3573V8.90752L3.63509 8.16612H-0.00592041L4.56189 3.75V7.65037V11.1317C4.56189 13.2592 5.68729 14.2907 7.4416 14.2907C9.1959 14.2907 10.2882 13.2592 10.2882 11.1317ZM17.1821 13.6225C16.0893 12.4965 16.0893 10.7413 17.1821 9.61526C17.712 9.08539 18.4406 8.78733 19.1692 8.78733C19.8977 8.75421 20.6263 9.05227 21.1231 9.58215C22.1497 10.7413 22.1497 12.4634 21.1231 13.5893C20.5932 14.1192 19.8977 14.4173 19.1692 14.4173C18.4406 14.4504 17.712 14.1523 17.1821 13.6225ZM16.5198 19.716V14.8809C16.8841 15.742 18.0101 16.3712 19.401 16.4374C20.6263 16.4705 21.8186 15.9407 22.6796 15.0465C23.5738 14.1192 24.0374 12.8939 24.0043 11.6354C24.0374 10.377 23.5738 9.15162 22.6796 8.22434C21.8186 7.29705 20.6263 6.80029 19.401 6.83341C17.9438 6.83341 16.8841 7.29705 16.2548 8.25746C16.1886 7.82693 15.9237 7.42952 15.5263 7.16458C15.162 6.93276 14.6983 6.83341 14.2678 6.86653C13.9035 6.83341 13.5392 6.89964 13.208 6.999V8.75422C13.3736 8.7211 13.5061 8.7211 13.6717 8.7211C14.1685 8.7211 14.334 8.98604 14.334 9.78085V19.716H16.5198Z"
    fill="var(--tbl--ui-node-icon--enrichment--up-lead)"
  />
</svg>
