<svg xmlns="http://www.w3.org/2000/svg" width="32" height="32" fill="none" viewBox="0 0 32 32">
  <path
    fill-rule="evenodd"
    clip-rule="evenodd"
    d="M13.7176 14.8423V5H16.7187V15.1431C16.7187 17.2491 16.1008 18.8823 14.821 19.9998C13.4528 21.1602 11.6875 21.8049 9.87802 21.719C8.06855 21.8049 6.30321 21.1602 4.93507 19.9998C3.61107 18.8823 2.9932 17.2491 2.9932 15.1431V11.8767L4.84681 10.8882H-0.00787354L6.08254 5V10.2005V14.8423C6.08254 17.6789 7.58308 19.0542 9.92215 19.0542C12.2612 19.0542 13.7176 17.6789 13.7176 14.8423ZM22.9095 18.1633C21.4524 16.662 21.4524 14.3217 22.9095 12.8204C23.616 12.1139 24.5875 11.7164 25.5589 11.7164C26.5303 11.6723 27.5018 12.0697 28.1641 12.7762C29.533 14.3217 29.533 16.6178 28.1641 18.1191C27.4576 18.8256 26.5303 19.223 25.5589 19.223C24.5875 19.2672 23.616 18.8698 22.9095 18.1633ZM22.0264 26.2881V19.8412C22.5121 20.9893 24.0134 21.8283 25.868 21.9166C27.5018 21.9607 29.0914 21.2542 30.2395 20.062C31.4317 18.8256 32.0499 17.1918 32.0057 15.5139C32.0499 13.8359 31.4317 12.2022 30.2395 10.9658C29.0914 9.72941 27.5018 9.06706 25.868 9.11121C23.9251 9.11121 22.5121 9.7294 21.6731 11.0099C21.5848 10.4359 21.2316 9.90603 20.7017 9.55278C20.216 9.24368 19.5978 9.11121 19.0238 9.15537C18.538 9.11121 18.0523 9.19953 17.6108 9.332V11.6723C17.8315 11.6281 18.0082 11.6281 18.2289 11.6281C18.8913 11.6281 19.1121 11.9814 19.1121 13.0411V26.2881H22.0264Z"
    fill="var(--tbl--ui-node-icon--enrichment--up-lead)"
  />
</svg>
