<svg width="32" height="32" viewBox="0 0 32 32" fill="none" xmlns="http://www.w3.org/2000/svg">
  <path fill-rule="evenodd" clip-rule="evenodd" d="M11 27C4.92487 27 0 22.0751 0 16C0 9.92487 4.92487 5 11 5C12.8004 5 14.4999 5.43256 16 6.19942C17.5001 5.43256 19.1996 5 21 5C27.0751 5 32 9.92487 32 16C32 22.0751 27.0751 27 21 27C19.1996 27 17.5001 26.5674 16 25.8006C14.4999 26.5674 12.8004 27 11 27Z" fill="#B7D8FD"/>
  <path fill-rule="evenodd" clip-rule="evenodd" d="M16 25.8005C12.4383 23.9798 10 20.2746 10 15.9999C10 11.7252 12.4383 8.02006 16 6.19934C19.5617 8.02004 22 11.7252 22 15.9999C22 20.2746 19.5617 23.9798 16 25.8005Z" fill="#127FF9"/>
</svg>
