<svg width="16" height="16" viewBox="0 0 16 16" fill="none" xmlns="http://www.w3.org/2000/svg">
  <g filter="var(--tbl--ui-node-icon--enrichment--emailable-s)">
    <path d="M8.00002 13.4445V15C7.0804 15.0025 6.16941 14.8226 5.31978 14.4707C4.47015 14.1188 3.69876 13.6019 3.05026 12.9498C2.61721 12.5177 2.24247 12.0309 1.93555 11.5016L3.28608 10.722C3.76402 11.5494 4.45118 12.2365 5.27859 12.7143C6.106 13.1922 7.04454 13.444 8.00002 13.4445Z" fill="#FFCB60"/>
    <path d="M14.0649 4.49891L12.7147 5.27875C12.2368 4.45124 11.5496 3.76401 10.7221 3.28602C9.89463 2.80803 8.95598 2.55612 8.00037 2.55555V1.00003C8.91999 0.997494 9.83098 1.17739 10.6806 1.52931C11.5302 1.88122 12.3016 2.39816 12.9501 3.05021C13.3831 3.4826 13.7579 3.96961 14.0649 4.49891Z" fill="#7E61FF"/>
    <path d="M8.00025 1.00003V2.55555C7.04474 2.55601 6.10616 2.80777 5.27869 3.28556C4.45122 3.76336 3.76397 4.45039 3.2859 5.2777L1.93567 4.49788C2.24275 3.9689 2.61751 3.48224 3.05049 3.0502C3.69899 2.39816 4.47038 1.88122 5.32 1.52931C6.16963 1.17739 7.08062 0.997495 8.00025 1.00003Z" fill="#FF5F7D"/>
    <path d="M15 8.00001C15.0017 8.96609 14.8029 9.92201 14.4161 10.8073V10.8083L13.0555 10.0222C13.3613 9.25731 13.4895 8.43296 13.4304 7.6113C13.3713 6.78964 13.1265 5.99212 12.7144 5.27884L14.0646 4.49899C14.6804 5.56278 15.0032 6.77083 15 8.00001Z" fill="#5A3DBE"/>
    <path d="M14.4161 10.8083C14.2072 11.2844 13.9456 11.7356 13.6362 12.1533L11.2075 10.7513C10.9417 10.5973 10.7211 10.3762 10.5677 10.1101C10.4142 9.84399 10.3334 9.54227 10.3333 9.23512V8.03423C10.3407 7.51794 10.1767 7.01376 9.86685 6.60071C9.55701 6.18765 9.1189 5.88906 8.62115 5.75173C8.1234 5.6144 7.59416 5.64608 7.11635 5.84182C6.63854 6.03755 6.23918 6.38628 5.98084 6.83335L4.63269 6.05453C5.0609 5.31337 5.72169 4.73419 6.51258 4.40681C7.30347 4.07943 8.18028 4.02213 9.00705 4.2438C9.83382 4.46547 10.5644 4.95372 11.0854 5.63285C11.6064 6.31198 11.8888 7.14404 11.8888 8.00001V8.94371C11.889 9.06656 11.9213 9.18722 11.9826 9.29366C12.044 9.40011 12.1321 9.48862 12.2383 9.55038L13.0555 10.0222L14.4161 10.8083Z" fill="#5FD7AA"/>
    <path d="M10.1322 11.2522C9.40036 11.7318 8.52819 11.9506 7.65663 11.8733C6.78507 11.7959 5.96506 11.4269 5.32915 10.8259C4.69324 10.2249 4.27859 9.42699 4.15222 8.56117C4.02586 7.69536 4.19517 6.81223 4.63278 6.05453L5.98093 6.83335C5.74128 7.24459 5.6341 7.71965 5.67397 8.19394C5.72475 8.78316 5.9967 9.33131 6.43514 9.7282C6.87358 10.1251 7.44602 10.3413 8.03736 10.3333C8.19031 10.3357 8.34304 10.3207 8.49262 10.2888C8.72975 10.2338 8.95708 10.1429 9.16669 10.0191L10.1322 11.2522Z" fill="#3FB3A3"/>
    <path d="M2.55555 8.00017C2.55431 8.95605 2.80636 9.8952 3.28604 10.722L1.93551 11.5016C1.32248 10.4363 0.999891 9.22873 1 7.99962C1.00011 6.77051 1.32291 5.56297 1.93613 4.49776L3.28635 5.2777C2.80643 6.10465 2.55427 7.04404 2.55555 8.00017Z" fill="#FF9C5B"/>
  </g>
  <defs>
    <filter id="tbl--ui-node-icon--enrichment--emailable-s--disabled">
      <feColorMatrix type="saturate" values="0.01" />
    </filter>
  </defs>
</svg>

