<svg width="24" height="24" viewBox="0 0 24 24" fill="none" xmlns="http://www.w3.org/2000/svg">
  <g filter="var(--tbl--ui-node-icon--enrichment--emailable-m)">
    <path d="M12.0001 19.7778V22C10.6863 22.0036 9.38493 21.7466 8.17117 21.2439C6.95741 20.7412 5.85542 20.0027 4.92899 19.0712C4.31035 18.4539 3.775 17.7584 3.33655 17.0023L5.26588 15.8886C5.94866 17.0705 6.93032 18.0521 8.11233 18.7347C9.29434 19.4174 10.6351 19.7771 12.0001 19.7778Z" fill="#FFCB60"/>
    <path d="M20.6642 6.99844L18.7353 8.11249C18.0525 6.93034 17.0708 5.94858 15.8887 5.26574C14.7066 4.58291 13.3656 4.22302 12.0005 4.22221V2.00004C13.3142 1.99642 14.6157 2.25342 15.8294 2.75615C17.0432 3.25889 18.1452 3.99737 19.0716 4.92886C19.6901 5.54657 20.2255 6.24229 20.6642 6.99844Z" fill="#7E61FF"/>
    <path d="M12.0004 2.00004V4.22221C10.6353 4.22287 9.29452 4.58252 8.11241 5.26509C6.93031 5.94766 5.94852 6.92913 5.26557 8.111L3.33667 6.99697C3.77535 6.24128 4.31074 5.54605 4.92927 4.92886C5.8557 3.99737 6.95768 3.25889 8.17144 2.75615C9.3852 2.25342 10.6866 1.99642 12.0004 2.00004Z" fill="#FF5F7D"/>
    <path d="M21.9999 12C22.0024 13.3801 21.7184 14.7457 21.1659 16.0104V16.0119L19.2222 14.8889C19.659 13.7962 19.8421 12.6185 19.7577 11.4447C19.6732 10.2709 19.3235 9.1316 18.7347 8.11263L20.6636 6.99855C21.5434 8.51826 22.0045 10.244 21.9999 12Z" fill="#5A3DBE"/>
    <path d="M21.1658 16.0119C20.8675 16.692 20.4938 17.3365 20.0518 17.9333L16.5821 15.9304C16.2025 15.7104 15.8873 15.3945 15.6681 15.0144C15.4489 14.6343 15.3335 14.2032 15.3333 13.7645V12.0489C15.3439 11.3113 15.1096 10.5911 14.667 10.001C14.2243 9.41094 13.5984 8.98438 12.8874 8.78819C12.1763 8.592 11.4202 8.63726 10.7377 8.91689C10.0551 9.19651 9.48456 9.69469 9.1155 10.3334L7.18958 9.22076C7.80131 8.16196 8.74529 7.33457 9.87513 6.86688C11.005 6.39919 12.2576 6.31733 13.4387 6.634C14.6198 6.95067 15.6634 7.64818 16.4077 8.61837C17.152 9.58855 17.5555 10.7772 17.5555 12V13.3482C17.5557 13.5237 17.6019 13.696 17.6895 13.8481C17.7771 14.0002 17.903 14.1266 18.0547 14.2148L19.2221 14.8889L21.1658 16.0119Z" fill="#5FD7AA"/>
    <path d="M15.0459 16.6459C14.0004 17.3311 12.7545 17.6437 11.5094 17.5332C10.2643 17.4227 9.09284 16.8956 8.18439 16.037C7.27595 15.1784 6.68359 14.0385 6.50307 12.8017C6.32256 11.5648 6.56442 10.3032 7.18958 9.22076L9.11551 10.3334C8.77316 10.9208 8.62005 11.5995 8.677 12.2771C8.74954 13.1188 9.13803 13.9019 9.76438 14.4689C10.3907 15.0358 11.2085 15.3447 12.0533 15.3334C12.2718 15.3367 12.49 15.3154 12.7036 15.2696C13.0424 15.1911 13.3672 15.0612 13.6666 14.8844L15.0459 16.6459Z" fill="#3FB3A3"/>
    <path d="M4.22222 12.0002C4.22045 13.3658 4.58052 14.7074 5.26577 15.8886L3.33644 17.0023C2.46069 15.4805 1.99984 13.7553 2 11.9995C2.00016 10.2436 2.46131 8.51852 3.33733 6.9968L5.26622 8.11099C4.58061 9.29236 4.22038 10.6343 4.22222 12.0002Z" fill="#FF9C5B"/>
  </g>
  <defs>
    <filter id="tbl--ui-node-icon--enrichment--emailable-m--disabled">
      <feColorMatrix type="saturate" values="0.01" />
    </filter>
  </defs>
</svg>
