<svg width="24" height="24" viewBox="0 0 24 24" fill="none" xmlns="http://www.w3.org/2000/svg">
  <path
    d="M13.4996 1.99951C13.9095 1.99951 14.3026 2.16288 14.5924 2.45264C14.8822 2.74247 15.0455 3.13553 15.0455 3.54541V3.61475C15.0465 3.8634 15.1202 4.10665 15.2574 4.31396C15.3947 4.52116 15.5896 4.68381 15.818 4.78174C16.051 4.88457 16.3096 4.91502 16.5602 4.86963C16.8107 4.8242 17.0422 4.70487 17.2242 4.52686L17.2711 4.47998C17.4145 4.33652 17.5848 4.22274 17.7721 4.14502C17.9596 4.0673 18.1609 4.02691 18.3639 4.02686C18.5669 4.02686 18.7682 4.06733 18.9557 4.14502C19.1432 4.22276 19.3141 4.33638 19.4576 4.47998C19.6013 4.62351 19.7158 4.79432 19.7936 4.98193C19.8713 5.1695 19.9108 5.3707 19.9108 5.57373C19.9108 5.77677 19.8713 5.97796 19.7936 6.16553C19.7158 6.35314 19.6013 6.52395 19.4576 6.66748L19.4117 6.71338C19.2336 6.89547 19.1135 7.12681 19.068 7.37744C19.0226 7.62799 19.0531 7.88665 19.1559 8.11963V8.18213C19.2538 8.41058 19.4174 8.60543 19.6246 8.74268C19.8318 8.87976 20.0745 8.95355 20.3229 8.95459H20.4547C20.8645 8.95464 21.2577 9.117 21.5475 9.40674C21.8372 9.69649 21.9995 10.0898 21.9996 10.4995C21.9996 10.9093 21.8371 11.3025 21.5475 11.5923C21.2577 11.8821 20.8645 12.0454 20.4547 12.0454H20.3854C20.1367 12.0464 19.8935 12.12 19.6862 12.2573C19.4789 12.3946 19.3163 12.5894 19.2184 12.8179C19.1155 13.0509 19.0851 13.3094 19.1305 13.5601C19.1759 13.8107 19.2952 14.042 19.4733 14.2241L19.5192 14.271C19.6628 14.4145 19.7773 14.5845 19.8551 14.772C19.9328 14.9595 19.9722 15.1608 19.9723 15.3638C19.9723 15.5667 19.9328 15.7681 19.8551 15.9556C19.7773 16.1432 19.6629 16.314 19.5192 16.4575C19.3757 16.6011 19.2057 16.7157 19.0182 16.7935C18.8307 16.8712 18.6294 16.9106 18.4264 16.9106C18.2234 16.9106 18.0221 16.8711 17.8346 16.7935C17.647 16.7157 17.4762 16.6012 17.3326 16.4575L17.2867 16.4116C17.1047 16.2336 16.8732 16.1134 16.6227 16.0679C16.372 16.0224 16.1126 16.0529 15.8795 16.1558C15.6511 16.2537 15.4562 16.4173 15.319 16.6245C15.1819 16.8317 15.1081 17.0743 15.1071 17.3228V17.4546C15.107 17.8644 14.9446 18.2576 14.6549 18.5474C14.5351 18.6671 14.3966 18.7635 14.2477 18.8374C14.2479 18.8085 14.2496 18.7795 14.2496 18.7505C14.2496 15.2934 12.8956 12.3342 10.9762 11.1069C11.6153 10.33 11.9995 9.335 11.9996 8.25049C11.9996 6.94676 11.4451 5.77252 10.5592 4.95068C10.7511 4.95761 10.9427 4.92139 11.1198 4.84326H11.1823C11.4106 4.74529 11.6056 4.58266 11.7428 4.37549C11.88 4.16821 11.9537 3.92485 11.9547 3.67627V3.54541C11.9547 3.13563 12.1172 2.74244 12.4069 2.45264C12.6966 2.16289 13.0899 1.9996 13.4996 1.99951Z"
    fill="var(--tbl--colors--icons--enrich--tertiary)"
  />
  <path
    d="M7.43207 12.75C9.32009 12.75 10.2643 12.75 10.9916 13.2021C11.1707 13.3135 11.3379 13.4435 11.4897 13.5898C12.1065 14.1843 12.3365 15.0959 12.7973 16.9189L12.8354 17.0693C13.1255 18.2171 13.2707 18.7909 12.9252 19.4629C12.8902 19.531 12.8156 19.6536 12.7709 19.7158C12.33 20.3293 11.8766 20.433 10.9702 20.6406C10.0896 20.8423 8.97985 20.9971 7.64301 21C6.17947 21.0032 4.94777 20.8199 3.9809 20.5898C3.11962 20.3849 2.68886 20.2823 2.26313 19.7725C2.17273 19.6642 2.04333 19.4602 1.98383 19.332C1.7043 18.729 1.8181 18.1892 2.04535 17.1104C2.44311 15.222 2.6415 14.2776 3.25141 13.6533C3.41281 13.4882 3.59265 13.3417 3.78754 13.2178C4.52413 12.7495 5.49392 12.75 7.43207 12.75Z"
    fill="var(--tbl--ui-node-icon--search-developer-m)"
  />
  <path
    d="M7.50043 5.25C9.15709 5.25023 10.5004 6.59329 10.5004 8.25C10.5004 9.90671 9.15709 11.2498 7.50043 11.25C5.84358 11.25 4.50043 9.90685 4.50043 8.25C4.50043 6.59315 5.84358 5.25 7.50043 5.25Z"
    fill="var(--tbl--ui-node-icon--search-developer-m)"
  />

  <defs>
    <linearGradient id="tbl--ui-node-icon--search-developer-m" x1="7.82562" y1="5.49877" x2="7.82562" y2="21" gradientUnits="userSpaceOnUse">
      <stop stop-color="#A190F5"/>
      <stop offset="1" stop-color="#816BE6"/>
    </linearGradient>
  </defs>
</svg>
