<svg width="32" height="32" viewBox="0 0 32 32" fill="none" xmlns="http://www.w3.org/2000/svg">
  <path
    fill-rule="evenodd"
    clip-rule="evenodd"
    d="M25.5067 18.0804C25.4461 17.7462 25.4871 17.4015 25.6242 17.0907C25.7548 16.786 25.9717 16.5261 26.2481 16.3431C26.5245 16.16 26.8484 16.0618 27.18 16.0604H27.2727C27.8192 16.0604 28.3433 15.8433 28.7298 15.4569C29.1162 15.0705 29.3333 14.5463 29.3333 13.9998C29.3333 13.4533 29.1162 12.9292 28.7298 12.5428C28.3433 12.1563 27.8192 11.9392 27.2727 11.9392H27.0975C26.766 11.9379 26.4421 11.8397 26.1657 11.6566C25.8892 11.4736 25.6724 11.2137 25.5418 10.9089V10.8265C25.4046 10.5157 25.3637 10.171 25.4243 9.83681C25.4849 9.50258 25.6443 9.19417 25.8818 8.95135L25.9436 8.88953C26.1352 8.69816 26.2872 8.4709 26.3909 8.22074C26.4946 7.97059 26.5479 7.70245 26.5479 7.43166C26.5479 7.16086 26.4946 6.89272 26.3909 6.64257C26.2872 6.39241 26.1352 6.16515 25.9436 5.97378C25.7522 5.78219 25.525 5.6302 25.2748 5.5265C25.0247 5.4228 24.7565 5.36943 24.4857 5.36943C24.2149 5.36943 23.9468 5.4228 23.6966 5.5265C23.4465 5.6302 23.2192 5.78219 23.0278 5.97378L22.966 6.03559C22.7232 6.27312 22.4148 6.43245 22.0806 6.49305C21.7463 6.55366 21.4016 6.51274 21.0909 6.37559C20.7861 6.24499 20.5262 6.02813 20.3432 5.75171C20.1601 5.47529 20.0619 5.15137 20.0606 4.81984V4.72711C20.0606 4.1806 19.8435 3.65648 19.457 3.27004C19.0706 2.8836 18.5465 2.6665 18 2.6665C17.4535 2.6665 16.9293 2.8836 16.5429 3.27004C16.1565 3.65648 15.9394 4.1806 15.9394 4.72711V4.90226C15.938 5.2338 15.8398 5.55771 15.6567 5.83413C15.4737 6.11055 15.2138 6.32741 14.909 6.45802H14.8266C14.5159 6.59517 14.1712 6.63608 13.8369 6.57548C13.5027 6.51488 13.1943 6.35554 12.9515 6.11802L12.8897 6.0562C12.6983 5.86461 12.471 5.71262 12.2209 5.60893C11.9707 5.50523 11.7026 5.45185 11.4318 5.45185C11.161 5.45185 10.8928 5.50523 10.6427 5.60893C10.3925 5.71262 10.1653 5.86461 9.9739 6.0562C9.78231 6.24758 9.63032 6.47484 9.52662 6.72499C9.42293 6.97514 9.36955 7.24328 9.36955 7.51408C9.36955 7.70957 9.39737 7.90367 9.45185 8.09063C9.79226 8.03101 10.1425 7.99992 10.5 7.99992C13.8311 7.99992 16.5295 10.6983 16.5295 14.0293C16.5295 16.7708 14.7017 19.0838 12.1978 19.8166C13.6894 19.9556 15.3958 20.2885 16.9013 20.9337C18.1576 21.4721 19.3629 22.275 20.1374 23.4248C20.1411 23.3743 20.143 23.3235 20.143 23.2726V23.0974C20.1443 22.7659 20.2425 22.442 20.4256 22.1655C20.6087 21.8891 20.8686 21.6723 21.1733 21.5417C21.484 21.4045 21.8288 21.3636 22.163 21.4242C22.4972 21.4848 22.8056 21.6441 23.0484 21.8817L23.1103 21.9435C23.3016 22.1351 23.5289 22.287 23.7791 22.3907C24.0292 22.4944 24.2973 22.5478 24.5681 22.5478C24.8389 22.5478 25.1071 22.4944 25.3572 22.3907C25.6074 22.287 25.8346 22.1351 26.026 21.9435C26.2176 21.7521 26.3696 21.5248 26.4733 21.2747C26.577 21.0245 26.6304 20.7564 26.6304 20.4856C26.6304 20.2148 26.577 19.9467 26.4733 19.6965C26.3696 19.4464 26.2176 19.2191 26.026 19.0277L25.9642 18.9659C25.7267 18.7231 25.5673 18.4147 25.5067 18.0804ZM18.8089 25.2008C18.4217 24.1379 17.4653 23.3513 16.1135 22.772C16.0564 22.7475 15.9989 22.7236 15.9409 22.7001C15.9905 22.8545 16.0179 23.016 16.0218 23.1798V23.2726C16.0218 23.8191 16.2389 24.3432 16.6253 24.7296C17.0118 25.1161 17.5359 25.3332 18.0824 25.3332C18.333 25.3332 18.5789 25.2875 18.8089 25.2008ZM13.061 21.9381C12.1419 21.795 11.2511 21.7352 10.5 21.7352C10.2855 21.7352 10.0597 21.7401 9.82495 21.7504C9.89373 21.8486 9.97111 21.9408 10.0563 22.0259C10.2477 22.2175 10.475 22.3695 10.7251 22.4732C10.9753 22.5769 11.2434 22.6302 11.5142 22.6302C11.785 22.6302 12.0531 22.5769 12.3033 22.4732C12.5534 22.3695 12.7807 22.2175 12.9721 22.0259L13.0339 21.9641C13.0429 21.9553 13.0519 21.9467 13.061 21.9381ZM10.5913 18.0577C12.7756 18.0093 14.5295 16.2253 14.5295 14.0293C14.5295 11.8048 12.7296 10.003 10.5058 9.99992C10.5466 10.3086 10.5019 10.6231 10.3757 10.9089C10.258 11.2291 10.0466 11.5064 9.76918 11.7048C9.49172 11.9033 9.16098 12.0137 8.81996 12.0217H8.72723C8.18073 12.0217 7.6566 12.2388 7.27016 12.6252C6.88372 13.0116 6.66663 13.5358 6.66663 14.0823C6.66663 14.6288 6.88372 15.1529 7.27016 15.5393C7.6566 15.9258 8.18073 16.1429 8.72723 16.1429H8.90238C9.23392 16.1442 9.55784 16.2424 9.83426 16.4255C10.1107 16.6085 10.3275 16.8684 10.4581 17.1732C10.5809 17.4514 10.6266 17.7569 10.5913 18.0577Z"
    fill="var(--tbl--colors--icons--enrich--tertiary)"
  />
  <path
    d="M15.5294 14.0294C15.5294 11.2507 13.2787 9 10.5 9C7.72125 9 5.47059 11.2507 5.47059 14.0294C5.47059 16.8082 7.72125 19.0588 10.5 19.0588C13.2787 19.0588 15.5294 16.8082 15.5294 14.0294ZM1 26.3235C1 28 1.55882 28 2.67647 28H18.3235C19.4412 28 20 28 20 26.3235C20 21.8529 13.8529 20.7353 10.5 20.7353C7.14706 20.7353 1 21.8529 1 26.3235Z"
    fill="var(--tbl--colors--icons--enrich--primary)"
  />
</svg>
