<svg width="16" height="16" viewBox="0 0 16 16" fill="none" xmlns="http://www.w3.org/2000/svg">
  <path
    d="M12.7534 9.04022C12.7231 8.87311 12.7436 8.70075 12.8121 8.54537C12.8774 8.39301 12.9859 8.26306 13.1241 8.17153C13.2623 8.08 13.4242 8.03088 13.59 8.03022H13.6364C13.9096 8.03022 14.1717 7.92167 14.3649 7.72845C14.5581 7.53523 14.6667 7.27317 14.6667 6.99992C14.6667 6.72667 14.5581 6.4646 14.3649 6.27139C14.1717 6.07817 13.9096 5.96962 13.6364 5.96962H13.5488C13.383 5.96896 13.2211 5.91984 13.0829 5.82831C12.9447 5.73678 12.8362 5.60683 12.7709 5.45446V5.41325C12.7023 5.25787 12.6819 5.08552 12.7122 4.9184C12.7425 4.75129 12.8222 4.59709 12.9409 4.47568L12.9718 4.44477C13.0676 4.34908 13.1436 4.23545 13.1955 4.11037C13.2473 3.9853 13.274 3.85123 13.274 3.71583C13.274 3.58043 13.2473 3.44636 13.1955 3.32128C13.1436 3.19621 13.0676 3.08258 12.9718 2.98689C12.8761 2.89109 12.7625 2.8151 12.6374 2.76325C12.5124 2.7114 12.3783 2.68471 12.2429 2.68471C12.1075 2.68471 11.9734 2.7114 11.8483 2.76325C11.7233 2.8151 11.6096 2.89109 11.5139 2.98689L11.483 3.0178C11.3616 3.13656 11.2074 3.21623 11.0403 3.24653C10.8732 3.27683 10.7008 3.25637 10.5455 3.1878C10.3931 3.1225 10.2632 3.01407 10.1716 2.87586C10.0801 2.73765 10.031 2.57569 10.0303 2.40992V2.36356C10.0303 2.0903 9.92176 1.82824 9.72854 1.63502C9.53532 1.4418 9.27326 1.33325 9.00001 1.33325C8.72676 1.33325 8.4647 1.4418 8.27148 1.63502C8.07826 1.82824 7.96971 2.0903 7.96971 2.36356V2.45113C7.96905 2.6169 7.91993 2.77886 7.8284 2.91707C7.73687 3.05528 7.60692 3.16371 7.45456 3.22901H7.41334C7.25797 3.29758 7.08561 3.31804 6.91849 3.28774C6.75138 3.25744 6.59718 3.17777 6.47577 3.05901L6.44486 3.0281C6.34917 2.93231 6.23554 2.85631 6.11046 2.80446C5.98539 2.75261 5.85132 2.72593 5.71592 2.72593C5.58052 2.72593 5.44645 2.75261 5.32137 2.80446C5.1963 2.85631 5.08267 2.93231 4.98698 3.0281C4.89119 3.12379 4.81519 3.23742 4.76334 3.3625C4.71533 3.47832 4.68889 3.60186 4.68524 3.72703C4.8952 3.6874 5.11184 3.66667 5.33334 3.66667C7.25063 3.66667 8.80393 5.21997 8.80393 7.13725C8.80393 8.16219 8.36004 9.08311 7.65395 9.71833C8.00135 9.80691 8.34778 9.91962 8.67824 10.0612C9.216 10.2917 9.76922 10.6292 10.2007 11.1016C10.2047 11.0953 10.2087 11.089 10.2128 11.0828C10.3044 10.9446 10.4343 10.8361 10.5867 10.7708C10.7421 10.7023 10.9144 10.6818 11.0815 10.7121C11.2486 10.7424 11.4028 10.8221 11.5243 10.9408L11.5552 10.9717C11.6508 11.0675 11.7645 11.1435 11.8896 11.1954C12.0146 11.2472 12.1487 11.2739 12.2841 11.2739C12.4195 11.2739 12.5536 11.2472 12.6786 11.1954C12.8037 11.1435 12.9174 11.0675 13.013 10.9717C13.1088 10.876 13.1848 10.7624 13.2367 10.6373C13.2885 10.5123 13.3152 10.3782 13.3152 10.2428C13.3152 10.1074 13.2885 9.97333 13.2367 9.84825C13.1848 9.72318 13.1088 9.60955 13.013 9.51386L12.9821 9.48295C12.8634 9.36154 12.7837 9.20733 12.7534 9.04022ZM9.81869 12.3123C9.27613 11.1228 7.61869 10.6308 6.2591 10.4831C5.92565 10.4469 5.61012 10.4314 5.33334 10.4314C5.15048 10.4314 4.95069 10.4381 4.74 10.4532C4.75284 10.5303 4.77446 10.606 4.80455 10.6786C4.8564 10.8036 4.9324 10.9173 5.02819 11.0129C5.12388 11.1087 5.23751 11.1847 5.36259 11.2366C5.48766 11.2884 5.62173 11.3151 5.75713 11.3151C5.89253 11.3151 6.0266 11.2884 6.15168 11.2366C6.27675 11.1847 6.39038 11.1087 6.48607 11.0129L6.51698 10.982C6.63839 10.8633 6.79259 10.7836 6.95971 10.7533C7.12682 10.723 7.29918 10.7435 7.45456 10.812C7.61463 10.8709 7.75329 10.9766 7.85252 11.1153C7.95174 11.254 8.00693 11.4194 8.01092 11.5899V11.6363C8.01092 11.9095 8.11947 12.1716 8.31269 12.3648C8.50591 12.558 8.76797 12.6666 9.04122 12.6666C9.31448 12.6666 9.57654 12.558 9.76976 12.3648C9.78673 12.3478 9.80305 12.3303 9.81869 12.3123ZM4.99901 9.58544C5.10834 9.60021 5.21995 9.60784 5.33334 9.60784C5.62132 9.60784 5.89774 9.55864 6.15468 9.46817C7.11562 9.12981 7.80393 8.21428 7.80393 7.13725C7.80393 5.77225 6.69834 4.66667 5.33334 4.66667C5.26802 4.66667 5.2033 4.6692 5.13926 4.67417C5.19169 4.76161 5.22824 4.85824 5.24662 4.95962C5.27692 5.12673 5.25646 5.29909 5.18789 5.45446C5.12902 5.61454 5.02335 5.7532 4.88462 5.85242C4.74589 5.95165 4.58052 6.00684 4.41001 6.01083H4.36365C4.09039 6.01083 3.82833 6.11938 3.63511 6.3126C3.44189 6.50582 3.33334 6.76788 3.33334 7.04113C3.33334 7.31438 3.44189 7.57645 3.63511 7.76967C3.82833 7.96288 4.09039 8.07143 4.36365 8.07143H4.45122C4.61699 8.0721 4.77895 8.12121 4.91716 8.21274C5.05537 8.30427 5.1638 8.43422 5.2291 8.58659C5.29768 8.74196 5.31813 8.91432 5.28783 9.08143C5.25753 9.24855 5.17786 9.40275 5.0591 9.52416L5.02819 9.55507C5.01825 9.565 5.00852 9.57513 4.99901 9.58544Z"
    fill="var(--tbl--colors--icons--enrich--tertiary)"
  />
  <path
    d="M7.80391 7.13734C7.80391 5.77234 6.69832 4.66675 5.33332 4.66675C3.96832 4.66675 2.86273 5.77234 2.86273 7.13734C2.86273 8.50234 3.96832 9.60792 5.33332 9.60792C6.69832 9.60792 7.80391 8.50234 7.80391 7.13734ZM0.666656 13.1766C0.666656 14.0001 0.941166 14.0001 1.49019 14.0001H9.17646C9.72548 14.0001 9.99999 14.0001 9.99999 13.1766C9.99999 10.9805 6.98038 10.4315 5.33332 10.4315C3.68626 10.4315 0.666656 10.9805 0.666656 13.1766Z"
    fill="var(--tbl--colors--icons--enrich--primary)"
  />
</svg>
