<svg width="32" height="32" viewBox="0 0 32 32" fill="none" xmlns="http://www.w3.org/2000/svg">
  <path
    d="M17.9996 2.6665C18.5461 2.6665 19.0702 2.8837 19.4567 3.27002C19.8431 3.65644 20.0602 4.18057 20.0602 4.72705V4.81982C20.0615 5.15133 20.1604 5.47506 20.3434 5.75146C20.5264 6.02777 20.7859 6.24487 21.0905 6.37549C21.4012 6.51264 21.7465 6.55328 22.0807 6.49268C22.4148 6.43205 22.7237 6.27312 22.9664 6.03564L23.028 5.97412C23.2193 5.78253 23.4467 5.63055 23.6969 5.52686C23.947 5.42319 24.2152 5.36963 24.486 5.36963C24.7567 5.36966 25.0249 5.42319 25.275 5.52686C25.5251 5.63055 25.7527 5.78261 25.944 5.97412C26.1353 6.16535 26.2876 6.3922 26.3912 6.64209C26.4949 6.89224 26.5475 7.16133 26.5475 7.43213C26.5474 7.70276 26.4949 7.97118 26.3912 8.22119C26.2876 8.47108 26.1353 8.69793 25.944 8.88916L25.8815 8.95166C25.6442 9.19434 25.4851 9.50249 25.4244 9.83643C25.3638 10.1707 25.4045 10.5159 25.5416 10.8267V10.9087C25.6722 11.2134 25.8892 11.4737 26.1656 11.6567C26.442 11.8397 26.7659 11.9376 27.0973 11.939H27.2731C27.8194 11.9391 28.3438 12.1561 28.7301 12.5425C29.1164 12.9288 29.3335 13.4531 29.3336 13.9995C29.3336 14.5459 29.1163 15.0701 28.7301 15.4565C28.3438 15.8429 27.8194 16.06 27.2731 16.0601H27.1803C26.8488 16.0614 26.5241 16.1602 26.2477 16.3433C25.9716 16.5262 25.7552 16.786 25.6246 17.0903C25.4875 17.4011 25.4459 17.7463 25.5065 18.0806C25.5671 18.4148 25.727 18.7235 25.9645 18.9663L26.026 19.0278C26.2176 19.2192 26.3696 19.4466 26.4733 19.6968C26.5769 19.9469 26.6305 20.2151 26.6305 20.4858C26.6305 20.7566 26.5769 21.0248 26.4733 21.2749C26.3696 21.525 26.2175 21.7525 26.026 21.9438C25.8347 22.1353 25.6071 22.2875 25.3571 22.3911C25.107 22.4947 24.8387 22.5474 24.568 22.5474C24.2973 22.5473 24.029 22.4948 23.7789 22.3911C23.5288 22.2874 23.3013 22.1354 23.11 21.9438L23.0485 21.8813C22.8057 21.6439 22.4969 21.4849 22.1627 21.4243C21.8286 21.3638 21.4841 21.4045 21.1735 21.5415C20.8687 21.6721 20.6085 21.8891 20.4254 22.1655C20.2424 22.4419 20.1446 22.7657 20.1432 23.0972V23.2729C20.1431 23.8193 19.926 24.3436 19.5397 24.73C19.3802 24.8894 19.1959 25.0173 18.9977 25.1157C18.9979 25.0774 18.9996 25.0389 18.9996 25.0005C18.9996 20.3907 17.1939 16.4452 14.6344 14.8091C15.4867 13.7731 15.9995 12.4467 15.9996 11.0005C15.9996 9.26191 15.2593 7.69688 14.0778 6.60107C14.334 6.6105 14.5903 6.56286 14.8268 6.4585H14.9088C15.2135 6.32792 15.4738 6.11081 15.6569 5.83447C15.8399 5.55805 15.9378 5.23339 15.9391 4.90186V4.72705C15.9391 4.18063 16.1563 3.65643 16.5426 3.27002C16.929 2.88366 17.4532 2.66659 17.9996 2.6665Z"
    fill="var(--tbl--colors--icons--enrich--tertiary)"
  />
  <path
    d="M9.92456 17C11.6768 17 12.5535 16.9997 13.3035 17.2422C14.4214 17.6036 15.3763 18.3475 16.0007 19.3428C16.4196 20.0104 16.6339 20.8599 17.0632 22.5586L17.1716 22.9854C17.4144 23.9459 17.536 24.4263 17.3855 25.1162C17.2758 25.6193 16.7837 26.4362 16.3904 26.7686C15.8513 27.2241 15.5191 27.3048 14.8552 27.4668C13.6466 27.7617 12.0904 27.9958 10.1902 28C8.1239 28.0045 6.40464 27.7303 5.08374 27.3984C4.45382 27.2402 4.13874 27.1608 3.65405 26.7959C3.17213 26.4329 2.6284 25.563 2.51343 24.9707C2.39776 24.3748 2.49179 23.9289 2.67944 23.0381L2.71948 22.8457C3.09454 21.0652 3.28266 20.1747 3.69312 19.4736C4.30517 18.4284 5.27566 17.6403 6.42456 17.2568C7.19511 16.9996 8.10509 17 9.92456 17ZM9.99976 7C12.2089 7 13.9998 8.79086 13.9998 11C13.9998 13.2091 12.2089 15 9.99976 15C7.79074 14.9999 5.99976 13.209 5.99976 11C5.99976 8.79095 7.79074 7.00015 9.99976 7Z"
    fill="var(--tbl--ui-node-icon--search-developer-l)"
  />

  <defs>
    <linearGradient id="tbl--ui-node-icon--search-developer-l" x1="10.4693" y1="7.33169" x2="10.4693" y2="28" gradientUnits="userSpaceOnUse">
      <stop stop-color="#A190F5"/>
      <stop offset="1" stop-color="#816BE6"/>
    </linearGradient>
  </defs>
</svg>
