<svg width="24" height="24" viewBox="0 0 24 24" fill="none" xmlns="http://www.w3.org/2000/svg">
  <path
    fill-rule="evenodd"
    clip-rule="evenodd"
    d="M19.1301 13.5605C19.0846 13.3098 19.1153 13.0512 19.2182 12.8182C19.3161 12.5896 19.4788 12.3947 19.6861 12.2574C19.8934 12.1201 20.1363 12.0464 20.385 12.0455H20.4545C20.8644 12.0455 21.2575 11.8826 21.5473 11.5928C21.8372 11.303 22 10.9099 22 10.5C22 10.0901 21.8372 9.69703 21.5473 9.4072C21.2575 9.11737 20.8644 8.95455 20.4545 8.95455H20.3232C20.0745 8.95355 19.8316 8.87988 19.6243 8.74258C19.417 8.60529 19.2543 8.41037 19.1564 8.18182V8.12C19.0535 7.88693 19.0228 7.6284 19.0683 7.37773C19.1137 7.12706 19.2332 6.89575 19.4114 6.71364L19.4577 6.66727C19.6014 6.52374 19.7154 6.3533 19.7932 6.16568C19.871 5.97807 19.911 5.77696 19.911 5.57386C19.911 5.37077 19.871 5.16966 19.7932 4.98205C19.7154 4.79443 19.6014 4.62399 19.4577 4.48045C19.3142 4.33676 19.1437 4.22277 18.9561 4.145C18.7685 4.06722 18.5674 4.02719 18.3643 4.02719C18.1612 4.02719 17.9601 4.06722 17.7725 4.145C17.5849 4.22277 17.4144 4.33676 17.2709 4.48045L17.2245 4.52682C17.0424 4.70496 16.8111 4.82446 16.5605 4.86991C16.3098 4.91536 16.0512 4.88468 15.8182 4.78182C15.5896 4.68386 15.3947 4.52122 15.2574 4.31391C15.1201 4.10659 15.0464 3.86365 15.0455 3.615V3.54545C15.0455 3.13557 14.8826 2.74248 14.5928 2.45265C14.303 2.16282 13.9099 2 13.5 2C13.0901 2 12.697 2.16282 12.4072 2.45265C12.1174 2.74248 11.9545 3.13557 11.9545 3.54545V3.67682C11.9536 3.92547 11.8799 4.16841 11.7426 4.37572C11.6053 4.58304 11.4104 4.74568 11.1818 4.84364H11.12C10.8869 4.9465 10.6284 4.97718 10.3777 4.93173C10.1271 4.88628 9.89575 4.76678 9.71363 4.58864L9.66727 4.54227C9.52374 4.39858 9.35329 4.28459 9.16568 4.20682C8.97806 4.12904 8.77696 4.08901 8.57386 4.08901C8.37076 4.08901 8.16966 4.12904 7.98204 4.20682C7.79443 4.28459 7.62398 4.39858 7.48045 4.54227C7.33676 4.6858 7.22277 4.85625 7.145 5.04386C7.06722 5.23148 7.02719 5.43259 7.02719 5.63568C7.02719 5.78892 7.04998 5.94103 7.09458 6.08707C7.38756 6.03001 7.69028 6.00012 8 6.00012C10.5998 6.00012 12.7059 8.10622 12.7059 10.706C12.7059 12.4862 11.7184 14.0349 10.2611 14.8344C11.1127 14.9738 12.0038 15.2016 12.8204 15.5516C13.6703 15.9158 14.5105 16.4499 15.1135 17.2019C15.134 16.9961 15.2044 16.7977 15.3192 16.6243C15.4565 16.417 15.6514 16.2543 15.88 16.1564C16.1131 16.0535 16.3716 16.0228 16.6223 16.0683C16.8729 16.1137 17.1042 16.2332 17.2864 16.4114L17.3327 16.4577C17.4763 16.6014 17.6467 16.7154 17.8343 16.7932C18.0219 16.871 18.223 16.911 18.4261 16.911C18.6292 16.911 18.8303 16.871 19.018 16.7932C19.2056 16.7154 19.376 16.6014 19.5195 16.4577C19.6632 16.3142 19.7772 16.1438 19.855 15.9561C19.9328 15.7685 19.9728 15.5674 19.9728 15.3643C19.9728 15.1612 19.9328 14.9601 19.855 14.7725C19.7772 14.5849 19.6632 14.4144 19.5195 14.2709L19.4732 14.2245C19.295 14.0424 19.1755 13.8111 19.1301 13.5605ZM14.728 18.4686C13.7146 16.2467 10.1079 15.6472 8 15.6472C7.7257 15.6472 7.42602 15.6573 7.10998 15.6799C7.12925 15.7956 7.16167 15.9091 7.20681 16.018C7.28459 16.2056 7.39858 16.376 7.54227 16.5195C7.6858 16.6632 7.85625 16.7772 8.04386 16.855C8.23148 16.9328 8.43258 16.9728 8.63568 16.9728C8.83878 16.9728 9.03988 16.9328 9.2275 16.855C9.41511 16.7772 9.58556 16.6632 9.72909 16.5195L9.77545 16.4732C9.95757 16.295 10.1889 16.1755 10.4395 16.1301C10.6902 16.0846 10.9487 16.1153 11.1818 16.2182C11.4219 16.3065 11.6299 16.465 11.7788 16.6731C11.9276 16.8812 12.0104 17.1292 12.0164 17.385V17.4545C12.0164 17.8644 12.1792 18.2575 12.469 18.5473C12.7588 18.8372 13.1519 19 13.5618 19C13.9717 19 14.3648 18.8372 14.6546 18.5473C14.6801 18.5219 14.7046 18.4956 14.728 18.4686ZM7.70887 7.01138C7.78751 7.14253 7.84234 7.28748 7.86991 7.43955C7.91536 7.69021 7.88468 7.94875 7.78182 8.18182C7.69351 8.42193 7.535 8.62992 7.32691 8.77876C7.11882 8.92759 6.87077 9.01038 6.615 9.01636H6.54545C6.13557 9.01636 5.74248 9.17919 5.45265 9.46902C5.16282 9.75885 5 10.1519 5 10.5618C5 10.9717 5.16282 11.3648 5.45265 11.6546C5.74248 11.9444 6.13557 12.1073 6.54545 12.1073H6.67682C6.92547 12.1083 7.16841 12.1819 7.37572 12.3192C7.58304 12.4565 7.74568 12.6515 7.84363 12.88C7.9465 13.1131 7.97718 13.3716 7.93173 13.6223C7.88628 13.8729 7.76678 14.1042 7.58863 14.2864L7.54227 14.3327C7.52736 14.3476 7.51276 14.3628 7.4985 14.3783C7.66249 14.4004 7.82991 14.4119 8 14.4119C10.0475 14.4119 11.7059 12.7535 11.7059 10.706C11.7059 8.6585 10.0475 7.00012 8 7.00012C7.90202 7.00012 7.80493 7.00392 7.70887 7.01138Z"
    fill="var(--tbl--colors--icons--enrich--tertiary)"
  />
  <path
    fill-rule="evenodd"
    clip-rule="evenodd"
    d="M11.7059 10.7059C11.7059 8.65838 10.0475 7 8 7C5.9525 7 4.29412 8.65838 4.29412 10.7059C4.29412 12.7534 5.9525 14.4118 8 14.4118C10.0475 14.4118 11.7059 12.7534 11.7059 10.7059ZM1 19.7647C1 21 1.41176 21 2.23529 21H13.7647C14.5882 21 15 21 15 19.7647C15 16.4706 10.4706 15.6471 8 15.6471C5.52941 15.6471 1 16.4706 1 19.7647Z"
    fill="var(--tbl--colors--icons--enrich--primary)"
  />
</svg>

