<svg width="24" height="24" viewBox="0 0 24 24" fill="none" xmlns="http://www.w3.org/2000/svg">
  <path
    fill-rule="evenodd"
    clip-rule="evenodd"
    d="M12.2501 1.56694L12.0001 1.42261L11.7501 1.56695L3.08984 6.56695L2.83984 6.71128V6.99996V17V17.2886L3.08984 17.433L11.7501 22.433L12.0001 22.5773L12.2501 22.433L20.9104 17.433L21.1604 17.2886V17V6.99996V6.71128L20.9104 6.56694L12.2501 1.56694ZM12.5001 2.86598L19.6604 6.99996L15.3812 9.47051C15.3691 9.94637 15.2587 10.3977 15.0696 10.8051L20.1604 7.86598V16.1339L17.4352 14.5606C17.4773 14.7623 17.5 14.9771 17.5 15.2058C17.5 15.3535 17.4943 15.5366 17.4603 15.7298L19.6604 17L12.5001 21.1339V17H11.5001V21.1339L4.33984 17L6.53971 15.7299C6.50566 15.5366 6.5 15.3535 6.5 15.2058C6.5 14.9772 6.5227 14.7624 6.56474 14.5607L3.83984 16.1339V7.86598L8.93031 10.805C8.74127 10.3976 8.63093 9.94624 8.61877 9.4704L4.33984 6.99996L11.5001 2.86598V6.03661C11.6632 6.01247 11.8301 5.99996 12 5.99996C12.1699 5.99996 12.3369 6.01248 12.5001 6.03664V2.86598ZM12.5001 7.05248C12.3389 7.01807 12.1716 6.99996 12 6.99996C11.8285 6.99996 11.6613 7.01805 11.5001 7.05244V11.1339L9.73166 10.1129C9.9508 10.7943 10.4683 11.3416 11.1305 11.6012C11.3999 11.7067 11.6931 11.7647 12 11.7647C12.3069 11.7647 12.6001 11.7067 12.8695 11.6012C13.5316 11.3417 14.0491 10.7944 14.2683 10.1131L12.5001 11.1339V7.05248ZM8.47904 13.4555L8.9693 13.1724C9.59699 12.8692 10.3394 12.6999 11.0152 12.6192C11.3707 12.5767 11.7078 12.5588 12 12.5588C12.2922 12.5588 12.6293 12.5767 12.9848 12.6192C13.661 12.6999 14.404 12.8694 15.0319 13.173L15.52 13.4548C16.0943 13.8518 16.4895 14.4081 16.4998 15.1752L12.5001 12.866V16H11.5001V12.866L7.5002 15.1753C7.51041 14.4086 7.90516 13.8524 8.47904 13.4555Z"
    fill="var(--tbl--colors--icons--enrich--tertiary)"
  />
  <path
    fill-rule="evenodd"
    clip-rule="evenodd"
    d="M12 3C12.5523 3 13 2.55228 13 2C13 1.44772 12.5523 1 12 1C11.4477 1 11 1.44772 11 2C11 2.55228 11.4477 3 12 3ZM12 23C12.5523 23 13 22.5523 13 22C13 21.4477 12.5523 21 12 21C11.4477 21 11 21.4477 11 22C11 22.5523 11.4477 23 12 23ZM21.5 7C21.5 7.55228 21.0523 8 20.5 8C19.9477 8 19.5 7.55228 19.5 7C19.5 6.44772 19.9477 6 20.5 6C21.0523 6 21.5 6.44772 21.5 7ZM20.5 18C21.0523 18 21.5 17.5523 21.5 17C21.5 16.4477 21.0523 16 20.5 16C19.9477 16 19.5 16.4477 19.5 17C19.5 17.5523 19.9477 18 20.5 18ZM5 7C5 7.55228 4.55228 8 4 8C3.44772 8 3 7.55228 3 7C3 6.44772 3.44772 6 4 6C4.55228 6 5 6.44772 5 7ZM4 18C4.55228 18 5 17.5523 5 17C5 16.4477 4.55228 16 4 16C3.44772 16 3 16.4477 3 17C3 17.5523 3.44772 18 4 18ZM12 7C13.3163 7 14.3824 8.0661 14.3824 9.38235C14.3824 10.6986 13.3163 11.7647 12 11.7647C10.6838 11.7647 9.61765 10.6986 9.61765 9.38235C9.61765 8.0661 10.6838 7 12 7ZM8.29412 16C7.76471 16 7.5 16 7.5 15.2059C7.5 13.0882 10.4118 12.5588 12 12.5588C13.5882 12.5588 16.5 13.0882 16.5 15.2059C16.5 16 16.2353 16 15.7059 16H8.29412Z"
    fill="var(--tbl--colors--icons--enrich--primary)"
  />
</svg>
