<svg width="24" height="24" viewBox="0 0 24 24" fill="none" xmlns="http://www.w3.org/2000/svg">
  <path
    d="M12.25 1.56718L20.9102 6.56718L21.1602 6.71074V17.2889L20.9102 17.4324L12.25 22.4324L12 22.577L11.75 22.4324L3.08984 17.4324L2.83984 17.2889V6.71074L3.08984 6.56718L11.75 1.56718L12 1.42265L12.25 1.56718ZM12.5 5.0623C12.2868 5.02172 12.0668 4.9998 11.8418 4.9998C11.7265 4.99982 11.6125 5.00548 11.5 5.0164V2.86504L4.33887 6.9998L8.45312 9.3748C8.63217 10.0687 9.01828 10.6792 9.54199 11.1365C9.53353 11.1388 9.52505 11.141 9.5166 11.1434L3.83984 7.86504V16.1336L6.57422 14.5545C6.55564 14.6313 6.53643 14.7106 6.5166 14.7928C6.44189 15.1023 6.37104 15.3762 6.37793 15.7752C6.37819 15.7902 6.38028 15.8051 6.38086 15.8201L4.33887 16.9998L11.5 21.1336V18.9881C11.7016 18.995 11.9087 19.0002 12.1211 18.9998C12.2497 18.9996 12.376 18.9969 12.5 18.9939V21.1336L19.6602 16.9998L17.5449 15.7781C17.5471 15.335 17.4565 15.0352 17.3594 14.7C17.3375 14.6243 17.3157 14.5509 17.2949 14.4793L20.1602 16.1336V7.86504L14.4355 11.1697C14.3714 11.1504 14.3065 11.1331 14.2412 11.117C14.2211 11.112 14.1999 11.1079 14.1797 11.1033C14.6292 10.6994 14.9727 10.1806 15.166 9.59355L19.6602 6.9998L12.5 2.86504V5.0623Z"
    fill="var(--tbl--colors--icons--enrich--tertiary)"
  />
  <path
    d="M12 21C12.5523 21 13 21.4477 13 22C13 22.5523 12.5523 23 12 23C11.4477 23 11 22.5523 11 22C11 21.4477 11.4477 21 12 21ZM4 16C4.55228 16 5 16.4477 5 17C5 17.5523 4.55228 18 4 18C3.44772 18 3 17.5523 3 17C3 16.4477 3.44772 16 4 16ZM12.4355 12C13.2429 12 13.6469 12.0005 14.001 12.0879C14.793 12.2834 15.4717 12.7927 15.8799 13.499C16.0624 13.8149 16.1748 14.2029 16.3994 14.9785C16.5024 15.3339 16.5536 15.5121 16.5449 15.8242C16.5291 16.386 16.017 17.2348 15.5273 17.5107C15.2553 17.6639 15.155 17.6847 14.9561 17.7256C14.2122 17.8786 13.266 17.9978 12.1191 18C10.8552 18.0024 9.79883 17.8594 8.98047 17.6836C8.79947 17.6447 8.70857 17.6244 8.48047 17.5098C7.92817 17.2321 7.38965 16.3759 7.37891 15.7578C7.37447 15.5023 7.41288 15.3438 7.48926 15.0273C7.65693 14.3327 7.74098 13.9854 7.87988 13.6973C8.28165 12.8641 9.04505 12.2624 9.94922 12.0674C10.2618 12 10.6194 12 11.334 12H12.4355ZM20.5 16C21.0523 16 21.5 16.4477 21.5 17C21.5 17.5523 21.0523 18 20.5 18C19.9477 18 19.5 17.5523 19.5 17C19.5 16.4477 19.9477 16 20.5 16ZM11.8428 6C13.2233 6.00022 14.3428 7.11942 14.3428 8.5C14.3428 9.88058 13.2233 10.9998 11.8428 11C10.4621 11 9.34277 9.88071 9.34277 8.5C9.34277 7.11929 10.4621 6 11.8428 6ZM4 6C4.55228 6 5 6.44772 5 7C5 7.55228 4.55228 8 4 8C3.44772 8 3 7.55228 3 7C3 6.44772 3.44772 6 4 6ZM20.5 6C21.0523 6 21.5 6.44772 21.5 7C21.5 7.55228 21.0523 8 20.5 8C19.9477 8 19.5 7.55228 19.5 7C19.5 6.44772 19.9477 6 20.5 6ZM12 1C12.5523 1 13 1.44772 13 2C13 2.55228 12.5523 3 12 3C11.4477 3 11 2.55228 11 2C11 1.44772 11.4477 1 12 1Z"
    fill="var(--tbl--ui-node-icon--enrichment-people-m)"
  />

  <defs>
    <linearGradient id="tbl--ui-node-icon--enrichment-people-m" x1="4.88575" y1="17.9498" x2="2.48909" y2="16.5794" gradientUnits="userSpaceOnUse">
      <stop stop-color="#836EE7"/>
      <stop offset="1" stop-color="#B1A2FB"/>
    </linearGradient>
  </defs>
</svg>
