<svg width="32" height="32" viewBox="0 0 32 32" fill="none" xmlns="http://www.w3.org/2000/svg">
  <path
    d="M16.25 1.56714L28.25 8.49487L28.5 8.6394V23.073L28.25 23.2175L16.25 30.1453L16 30.2898L15.75 30.1453L3.75 23.2175L3.5 23.073V8.6394L3.75 8.49487L15.75 1.56714L16 1.42261L16.25 1.56714ZM16.5 6.51147C16.4711 6.50945 16.4421 6.50709 16.4131 6.50562L16.1816 6.49976C15.9499 6.49976 15.7223 6.51676 15.5 6.55054V2.86499L5 8.92749L12.1904 13.0789C12.3938 13.4679 12.6527 13.8235 12.9561 14.1355C12.7796 14.1723 12.6076 14.2198 12.4404 14.2791L12.3359 14.3181L4.5 9.7937V21.9177L9.18652 19.2107C9.09845 19.5903 9.02779 19.9984 9.04785 20.446L5 22.7839L15.5 28.8464V24.2302C15.7679 24.2417 16.0436 24.2504 16.3271 24.2498C16.3851 24.2496 16.4427 24.2465 16.5 24.2458V28.8464L26.999 22.7839L23.2412 20.614C23.2763 20.1698 23.2158 19.7667 23.126 19.3923L27.5 21.9177V9.7937L19.7305 14.2791C19.6107 14.2376 19.4911 14.202 19.3711 14.1726C19.7644 13.7772 20.0839 13.3086 20.3096 12.7898L26.999 8.92749L16.5 2.86499V6.51147Z"
    fill="var(--tbl--colors--icons--enrich--tertiary)"
  />
  <path
    d="M16.167 28C16.9953 28.0002 17.667 28.6717 17.667 29.5C17.6669 30.3283 16.9952 30.9998 16.167 31C15.3386 31 14.667 30.3284 14.667 29.5C14.667 28.6716 15.3386 28 16.167 28ZM4.5 21.333C5.32835 21.333 5.99987 22.0047 6 22.833C6 23.6614 5.32843 24.333 4.5 24.333C3.67157 24.333 3 23.6614 3 22.833C3.00013 22.0047 3.67165 21.333 4.5 21.333ZM27.5 21.333C28.3283 21.333 28.9999 22.0047 29 22.833C29 23.6614 28.3284 24.333 27.5 24.333C26.6716 24.333 26 23.6614 26 22.833C26.0001 22.0047 26.6717 21.333 27.5 21.333ZM16.2793 15.5C17.3827 15.5 17.9352 15.5004 18.4189 15.623C19.4492 15.8844 20.3337 16.5449 20.876 17.459C21.1305 17.8882 21.2871 18.4182 21.5996 19.4766C21.708 19.8435 21.7624 20.0275 21.7568 20.335C21.7471 20.8628 21.3014 21.674 20.8613 21.9658C20.6051 22.1356 20.4987 22.1667 20.2871 22.2275C19.3282 22.5031 18.0058 22.7463 16.3242 22.75C14.5134 22.754 13.0573 22.4723 12.0186 22.1699C11.8341 22.1162 11.7416 22.0887 11.5283 21.9639C11.0198 21.666 10.5423 20.8384 10.5391 20.249C10.5378 20.0013 10.5764 19.8428 10.6543 19.5264C10.8839 18.5932 10.999 18.1258 11.1885 17.7393C11.7262 16.6427 12.7353 15.8517 13.9287 15.5918C14.3492 15.5003 14.8303 15.5 15.791 15.5H16.2793ZM16.1816 8C17.8382 8.00036 19.1816 9.34337 19.1816 11C19.1816 12.6566 17.8382 13.9996 16.1816 14C14.5248 14 13.1816 12.6569 13.1816 11C13.1816 9.34315 14.5248 8 16.1816 8ZM4.5 8C5.32843 8 6 8.67157 6 9.5C6 10.3284 5.32843 11 4.5 11C3.67157 11 3 10.3284 3 9.5C3 8.67157 3.67157 8 4.5 8ZM27.5 8C28.3284 8 29 8.67157 29 9.5C29 10.3284 28.3284 11 27.5 11C26.6716 11 26 10.3284 26 9.5C26 8.67157 26.6716 8 27.5 8ZM16.167 1C16.9953 1.00017 17.667 1.67168 17.667 2.5C17.667 3.32832 16.9953 3.99983 16.167 4C15.3386 4 14.667 3.32843 14.667 2.5C14.667 1.67157 15.3386 1 16.167 1Z"
    fill="var(--tbl--ui-node-icon--enrichment-people-l)"
  />

  <defs>
    <linearGradient id="tbl--ui-node-icon--enrichment-people-l" x1="27.5148" y1="30.2468" x2="-5.67729" y2="13.7981" gradientUnits="userSpaceOnUse">
      <stop stop-color="#836EE7"/>
      <stop offset="1" stop-color="#B1A2FB"/>
    </linearGradient>
  </defs>
</svg>
