<svg width="32" height="32" viewBox="0 0 32 32" fill="none" xmlns="http://www.w3.org/2000/svg">
  <path
    fill-rule="evenodd"
    clip-rule="evenodd"
    d="M16.25 1.56694L16 1.42261L15.75 1.56694L3.75 8.49515L3.5 8.63948V8.92816V22.7846V23.0732L3.75 23.2176L15.75 30.1458L16 30.2901L16.25 30.1458L28.25 23.2176L28.5 23.0732V22.7846V8.92816V8.63948L28.25 8.49515L16.25 1.56694ZM16.5 2.86598L27 8.92816L20.1606 12.8769C20.1186 13.3586 19.995 13.8169 19.8036 14.2377L27.5 9.79418V21.9185L22.8604 19.2399C22.9504 19.5563 23 19.9005 23 20.2744C23 20.3381 22.9991 20.4046 22.9965 20.4731L27 22.7846L16.5 28.8467V22.3332H15.5V28.8467L5 22.7846L9.00351 20.4731C9.00091 20.4046 9 20.3381 9 20.2744C9 19.9005 9.04965 19.5563 9.13956 19.2399L4.5 21.9185V9.79418L12.1964 14.2377C12.005 13.8169 11.8814 13.3586 11.8394 12.8769L5 8.92816L15.5 2.86598V8.3628C15.6639 8.34326 15.8308 8.33321 16 8.33321C16.1692 8.33321 16.3361 8.34326 16.5 8.3628V2.86598ZM16.5 9.37229C16.3371 9.34657 16.1701 9.33321 16 9.33321C15.8299 9.33321 15.6629 9.34657 15.5 9.37229V14.9903L12.9957 13.5445C13.4247 14.7911 14.6074 15.6862 16 15.6862C17.3927 15.6862 18.5753 14.7911 19.0043 13.5445L16.5 14.9903V9.37229ZM11.0334 18.1465L12.3224 17.4023C13.3247 16.9957 14.4828 16.8121 15.4337 16.7607L10.0262 19.8827C10.1255 19.1572 10.5011 18.5884 11.0334 18.1465ZM15.5 21.3332H16.5V16.7573C16.3251 16.7489 16.1577 16.745 16 16.745C15.8423 16.745 15.6749 16.7489 15.5 16.7573V21.3332ZM16.5663 16.7607L21.9738 19.8827C21.8745 19.1572 21.4989 18.5884 20.9666 18.1465L19.6776 17.4023C18.6753 16.9957 17.5172 16.8121 16.5663 16.7607Z"
    fill="var(--tbl--colors--icons--enrich--tertiary)"
  />
  <path
    fill-rule="evenodd"
    clip-rule="evenodd"
    d="M17.6667 2.5C17.6667 3.32843 16.9951 4 16.1667 4C15.3382 4 14.6667 3.32843 14.6667 2.5C14.6667 1.67157 15.3382 1 16.1667 1C16.9951 1 17.6667 1.67157 17.6667 2.5ZM17.6667 29.4999C17.6667 30.3283 16.9951 30.9999 16.1667 30.9999C15.3382 30.9999 14.6667 30.3283 14.6667 29.4999C14.6667 28.6715 15.3382 27.9999 16.1667 27.9999C16.9951 27.9999 17.6667 28.6715 17.6667 29.4999ZM27.5 10.9999C28.3284 10.9999 29 10.3283 29 9.49992C29 8.67149 28.3284 7.99992 27.5 7.99992C26.6716 7.99992 26 8.67149 26 9.49992C26 10.3283 26.6716 10.9999 27.5 10.9999ZM29 22.8333C29 23.6617 28.3284 24.3333 27.5 24.3333C26.6716 24.3333 26 23.6617 26 22.8333C26 22.0048 26.6716 21.3333 27.5 21.3333C28.3284 21.3333 29 22.0048 29 22.8333ZM4.5 11C5.32843 11 6 10.3284 6 9.5C6 8.67157 5.32843 8 4.5 8C3.67157 8 3 8.67157 3 9.5C3 10.3284 3.67157 11 4.5 11ZM6 22.8333C6 23.6617 5.32843 24.3333 4.5 24.3333C3.67157 24.3333 3 23.6617 3 22.8333C3 22.0048 3.67157 21.3333 4.5 21.3333C5.32843 21.3333 6 22.0048 6 22.8333ZM16 9.33325C17.755 9.33325 19.1765 10.7547 19.1765 12.5097C19.1765 14.2647 17.755 15.6862 16 15.6862C14.245 15.6862 12.8235 14.2647 12.8235 12.5097C12.8235 10.7547 14.245 9.33325 16 9.33325ZM11.0588 21.3333C10.3529 21.3333 10 21.3333 10 20.2744C10 17.4509 13.8824 16.745 16 16.745C18.1176 16.745 22 17.4509 22 20.2744C22 21.3333 21.6471 21.3333 20.9412 21.3333H11.0588Z"
    fill="var(--tbl--colors--icons--enrich--primary)"
  />
</svg>
