<svg width="16" height="16" viewBox="0 0 16 16" fill="none" xmlns="http://www.w3.org/2000/svg">
  <path fill-rule="evenodd" clip-rule="evenodd" d="M7 3H10V6H7V3ZM11 6V3H14V6H11ZM7 7H10V10H7V7ZM7 14L7 11H10C10.5523 11 11 10.5523 11 10V7H14C14.5523 7 15 6.55228 15 6V3C15 2.44772 14.5523 2 14 2H6H3C2.48223 2 2.05637 2.3935 2.00516 2.89776C2.00175 2.93137 2 2.96548 2 3V6V14C2 14.5523 2.44772 15 3 15H6C6.55228 15 7 14.5523 7 14ZM6 7V10H3L3 7H6ZM3 11L3 14H6L6 11H3ZM6 3L3 3L3 6H6L6 3ZM14.5 9C14.2239 9 14 9.22386 14 9.5V10H14.0012C14.0012 10.5254 13.8977 11.0457 13.6966 11.5312C13.4956 12.0166 13.2008 12.4577 12.8293 12.8293C12.4577 13.2008 12.0166 13.4956 11.5312 13.6966C11.0457 13.8977 10.5254 14.0012 10 14.0012V14H9.5C9.22386 14 9 14.2239 9 14.5C9 14.7761 9.22386 15 9.5 15H10C10.6566 15 11.3068 14.8707 11.9134 14.6194C12.52 14.3681 13.0712 13.9998 13.5355 13.5355C13.9998 13.0712 14.3681 12.52 14.6194 11.9134C14.8707 11.3068 15 10.6566 15 10V9.5C15 9.22386 14.7761 9 14.5 9Z" fill="currentColor"/>
</svg>
