<svg xmlns="http://www.w3.org/2000/svg" width="32" height="32" fill="none" viewBox="0 0 32 32">
  <path fill="var(--tbl--colors--icons--clean--secondary)" d="M22.927 6H9.37C7.658 6 6.737 8.011 7.856 9.307l6.158 7.13a2 2 0 0 1 .486 1.307v7.638a1 1 0 0 0 1.447.894l2-1a1 1 0 0 0 .553-.894v-6.7a2 2 0 0 1 .417-1.222l5.593-7.237C25.525 7.908 24.588 6 22.927 6Z"/>
  <path fill="var(--tbl--colors--icons--clean--primary)" d="M18.5 24.382v-6.7a2 2 0 0 1 .417-1.222L23.91 10l-12.863 3 2.968 3.437a2 2 0 0 1 .486 1.307v7.638a1 1 0 0 0 1.447.894l2-1a1 1 0 0 0 .553-.894Z"/>
</svg>
