<svg xmlns="http://www.w3.org/2000/svg" width="24" height="24" fill="none" viewBox="0 0 24 24">
  <path
    fill="var(--tbl--colors--icons--clean--secondary)"
    d="M19.1079 2L4.89219 2C4.08876 2 3.61336 2.89955 4.06598 3.56336L10.1528 12.4903C10.3792 12.8224 10.5004 13.215 10.5004 13.617L10.5004 20.1315C10.5004 20.9302 11.3905 21.4066 12.0551 20.9635L13.0551 20.2969C13.3333 20.1114 13.5004 19.7992 13.5004 19.4648L13.5004 13.6169C13.5004 13.215 13.6215 12.8224 13.8479 12.4903L19.9342 3.56332C20.3867 2.89951 19.9113 2 19.1079 2Z"
  />
  <path
    fill="var(--tbl--colors--icons--clean--primary)"
    d="M13.5004 19.4648L13.5004 13.6169C13.5004 13.215 13.6215 12.8224 13.8479 12.4903L19 4.93347L7.09109 7.99999L10.1528 12.4902C10.3792 12.8224 10.5004 13.215 10.5004 13.617L10.5004 20.1315C10.5004 20.9302 11.3905 21.4066 12.0551 20.9635L13.0551 20.2969C13.3333 20.1114 13.5004 19.7992 13.5004 19.4648Z"
  />
</svg>
