<svg xmlns="http://www.w3.org/2000/svg" width="24" height="24" fill="none" viewBox="0 0 24 24">
  <path fill="var(--tbl--colors--icons--clean--secondary)" d="M18.045 4H5.956a1 1 0 0 0-.81 1.585l4.976 6.89a2 2 0 0 1 .378 1.172v5.484a1 1 0 0 0 1.555.832l1-.666a1 1 0 0 0 .445-.832v-4.818a2 2 0 0 1 .379-1.171l4.976-6.89A1 1 0 0 0 18.045 4Z"/>
  <path fill="var(--tbl--colors--icons--clean--primary)" d="M13.5 18.465v-4.818a2 2 0 0 1 .379-1.171L17.834 7 7.61 9l2.51 3.476a2 2 0 0 1 .38 1.17v5.485a1 1 0 0 0 1.554.832l1-.666a1 1 0 0 0 .445-.832Z"/>
</svg>
