<svg width="16" height="16" viewBox="0 0 16 16" fill="none" xmlns="http://www.w3.org/2000/svg">
  <rect x="1" y="1" width="14" height="14" rx="2.25" fill="var(--tbl--ui-node-icon--enrichment--clearout-secondary)" />
  <path
    d="M12.0293 9.26333C12.1695 9.12115 12.3984 9.12149 12.5361 9.26431L13.6172 10.3834C13.7504 10.5219 13.7478 10.7436 13.6123 10.8815L12.9443 11.5573L12.8896 11.6051C12.7711 11.6845 12.6151 11.6847 12.4971 11.6061L12.4424 11.5602L11.3506 10.4508C11.2148 10.3127 11.2147 10.0898 11.3516 9.95083L12.0293 9.26333ZM11.6279 10.2008L12.6943 11.2848L13.3369 10.6325L13.335 10.6295C13.3127 10.641 13.2874 10.6471 13.2588 10.6452L12.582 10.5973C12.4423 10.5869 12.3289 10.4776 12.3105 10.3366L12.2158 9.60415L11.6279 10.2008ZM4.8418 10.4694L2 10.7506L4.67871 9.52602L4.8418 10.4694ZM10.4678 3.94692C11.3374 3.73264 12.2098 4.29108 12.3789 5.17056L12.6709 6.69399C12.7251 6.97667 12.5404 7.2499 12.2578 7.30434C11.9752 7.35852 11.702 7.17372 11.6475 6.89126L11.3545 5.36684C11.3413 5.29885 11.3147 5.23681 11.2793 5.18227L9.53613 7.30434L6.10059 6.30434C6.05656 6.40213 6.04045 6.51396 6.06445 6.62661L6.60156 9.1354C6.6679 9.44507 6.99259 9.6248 7.29004 9.51626L8.41309 9.10513C8.61374 9.03193 8.82988 9.09079 8.96875 9.23598L8.91211 9.13442C8.81728 8.96515 8.87603 8.74927 9.04395 8.652L9.73047 8.25552L9.7959 8.22622C9.9301 8.18138 10.0799 8.22204 10.1738 8.32778L10.2158 8.3854L10.877 9.53091C10.975 9.70067 10.9168 9.91822 10.7471 10.0163L10.0479 10.4196C9.87688 10.518 9.65742 10.4587 9.56055 10.2868L9.0918 9.45376C9.16566 9.71379 9.02927 9.99 8.77148 10.0846L7.64844 10.4958C6.75584 10.8221 5.78012 10.2835 5.58105 9.35415L5.04492 6.84536C4.86827 6.0191 5.37982 5.201 6.2002 4.99868L10.4678 3.94692ZM9.35254 8.90298L9.85352 9.13638C9.97127 9.19133 10.0403 9.31711 10.0234 9.44595L9.94434 10.0475L10.5449 9.70083L9.90137 8.58755L9.35254 8.90298ZM4.49805 8.85122L2.25 9.00063L4.30859 7.85903L4.49805 8.85122ZM11.2432 7.42837C11.3072 7.24149 11.5121 7.14266 11.6982 7.20864L12.6641 7.55141C12.8472 7.61643 12.9446 7.81671 12.8818 8.00063L12.6904 8.5602L12.6602 8.62563C12.5882 8.74737 12.4489 8.81581 12.3086 8.79751L12.2393 8.78188L11.2686 8.44888C11.0838 8.38538 10.9854 8.18362 11.0479 7.99868L11.2432 7.42837ZM11.4062 8.10122L12.3438 8.42251L12.4951 7.98403L12.1338 8.08755C12.0092 8.12298 11.8755 8.07439 11.8037 7.96645L11.5732 7.61782L11.4062 8.10122ZM4.17969 7.3063L2.5 7.50063L3.93848 6.37856L4.17969 7.3063Z"
    fill="var(--tbl--ui-node-icon--enrichment--clearout-primary)"
  />
</svg>
