<svg width="24" height="24" viewBox="0 0 24 24" fill="none" xmlns="http://www.w3.org/2000/svg">
  <rect x="1.5" y="1.5" width="21" height="21" rx="3" fill="var(--tbl--ui-node-icon--enrichment--clearout-secondary)" />
  <path
    d="M18.0859 13.895C18.2728 13.7053 18.5781 13.7066 18.7617 13.897L20.4209 15.6177C20.5987 15.8024 20.5971 16.0979 20.416 16.2817L19.377 17.3364L19.3018 17.3979C19.1436 17.5039 18.9358 17.5048 18.7783 17.3999L18.7041 17.3374L17.0283 15.6353C16.847 15.4511 16.8468 15.1536 17.0293 14.9683L18.0859 13.895ZM17.3984 15.3013L19.042 16.9712L20.042 15.9556C20.0145 15.9677 19.9834 15.9766 19.9492 15.9741L18.834 15.8921C18.6473 15.8785 18.4953 15.7337 18.4707 15.5454L18.3184 14.3667L17.3984 15.3013ZM7.26172 15.7036L3 16.1255L7.01855 14.2886L7.26172 15.7036ZM15.9014 5.96142C17.0609 5.67572 18.2229 6.42049 18.4482 7.59326L18.9219 10.0581C18.994 10.435 18.747 10.7991 18.3701 10.8716C17.9934 10.9437 17.6294 10.6973 17.5566 10.3208L17.083 7.85498C17.0695 7.78484 17.0425 7.72043 17.0107 7.66064L14.3037 10.9565L9.00195 9.41357C8.95948 9.53166 8.9485 9.66312 8.97656 9.79443L9.85938 13.9175C9.94799 14.3304 10.3817 14.5704 10.7783 14.4253L12.6494 13.7407C13.0099 13.6089 13.409 13.7944 13.541 14.1548C13.6725 14.5152 13.4872 14.9145 13.127 15.0464L11.2559 15.731C10.0656 16.1664 8.76548 15.4477 8.5 14.2085L7.61719 10.0854C7.38148 8.98364 8.06324 7.89325 9.15723 7.62353L15.9014 5.96142ZM14.7256 12.3579C14.934 12.2889 15.1699 12.3725 15.2842 12.5698L16.3047 14.3374C16.4346 14.5635 16.3565 14.8532 16.1309 14.9839L15.0332 15.6177C14.8054 15.749 14.5142 15.6687 14.3848 15.4399L13.3828 13.6616C13.2561 13.4358 13.3344 13.1497 13.5586 13.02L14.6377 12.397L14.7256 12.3579ZM13.9961 13.3394L14.8154 13.7212C14.9719 13.7947 15.0636 13.9618 15.041 14.1333L14.9121 15.1128L15.8613 14.5649L14.8652 12.8374L13.9961 13.3394ZM6.74707 13.2759L3.375 13.5005L6.46289 11.7886L6.74707 13.2759ZM16.9033 11.1245C16.9887 10.8757 17.2608 10.744 17.5088 10.8315L19.0127 11.3638C19.2568 11.4505 19.3855 11.7182 19.3018 11.9634L18.9971 12.855L18.9561 12.9429C18.8444 13.1323 18.6116 13.2236 18.3955 13.1499L16.8867 12.6333C16.64 12.5483 16.5073 12.2787 16.5918 12.0317L16.9033 11.1245ZM17.0703 12.1704L18.5352 12.6724L18.7773 11.9663L18.167 12.1421C18.0008 12.1898 17.8225 12.1238 17.7266 11.98L17.3369 11.394L17.0703 12.1704ZM6.26953 10.9585L3.75 11.2505L5.90723 9.56689L6.26953 10.9585Z"
    fill="var(--tbl--ui-node-icon--enrichment--clearout-primary)"
  />
</svg>
