<svg width="32" height="32" viewBox="0 0 32 32" fill="none" xmlns="http://www.w3.org/2000/svg">
  <rect x="2" y="2" width="28" height="28" rx="4" fill="var(--tbl--ui-node-icon--enrichment--clearout-secondary)" />
  <path
    d="M24.1152 18.5275C24.3643 18.275 24.7708 18.2752 25.0156 18.5285L27.2285 20.8234C27.4655 21.0696 27.4629 21.463 27.2217 21.7082L25.835 23.1144L25.7363 23.1964C25.5253 23.3381 25.2482 23.3386 25.0381 23.1984L24.9395 23.1183L22.7021 20.8468C22.4609 20.6013 22.4638 20.2051 22.707 19.9582L24.1152 18.5275ZM23.1963 20.4025L25.3896 22.6271L26.7227 21.2756C26.6863 21.2915 26.6457 21.3011 26.6006 21.298L25.1123 21.1896C24.8635 21.1715 24.6607 20.9787 24.6279 20.7277L24.4248 19.1564L23.1963 20.4025ZM9.68359 20.9367L4 21.4992L9.3584 19.05L9.68359 20.9367ZM21.2021 7.9484C22.7482 7.56767 24.2983 8.56044 24.5986 10.1242L25.2295 13.4113C25.3256 13.9137 24.9964 14.3995 24.4941 14.4963C23.9917 14.5926 23.506 14.2632 23.4092 13.7609L22.7783 10.4738C22.7602 10.3795 22.7275 10.2913 22.6846 10.2111L19.0723 14.6086L12.0029 12.5519C11.9463 12.7092 11.9313 12.8837 11.9688 13.0588L13.1465 18.5568C13.2646 19.1074 13.8422 19.4271 14.3711 19.2336L16.8662 18.3205C17.3468 18.1449 17.8797 18.3918 18.0557 18.8722C18.2311 19.3526 17.984 19.8856 17.5039 20.0617L15.0078 20.9748C13.4209 21.5553 11.6871 20.5976 11.333 18.9455L10.1562 13.4464C9.84209 11.9775 10.7514 10.5248 12.21 10.1652L21.2021 7.9484ZM19.6328 16.4777C19.8714 16.3982 20.1368 16.4693 20.3037 16.6574L20.3779 16.7619L21.7383 19.1173C21.9118 19.419 21.8093 19.8055 21.5078 19.9797L20.0439 20.8244C19.7401 20.9997 19.3512 20.8923 19.1787 20.5871L17.8438 18.217C17.6741 17.9156 17.7787 17.5335 18.0781 17.3605L19.5166 16.5304L19.6328 16.4777ZM18.6621 17.7863L19.7529 18.2951C19.962 18.3929 20.0838 18.615 20.0537 18.8439L19.8809 20.1525L21.1484 19.4211L19.8193 17.1193L18.6621 17.7863ZM8.99707 17.7004L4.50098 17.9992L8.61816 15.717L8.99707 17.7004ZM22.5381 14.8322C22.6519 14.5004 23.015 14.3256 23.3457 14.4425L25.3496 15.1525C25.6755 15.2681 25.8473 15.6242 25.7354 15.9513L25.3291 17.1408L25.2754 17.257C25.1478 17.4737 24.9008 17.5948 24.6514 17.5627L24.5273 17.5334L22.5156 16.8449C22.1862 16.7319 22.0104 16.3727 22.123 16.0431L22.5381 14.8322ZM22.7598 16.2287L24.7139 16.8966L25.0361 15.9552L24.2227 16.1886C24.0008 16.2523 23.7636 16.165 23.6357 15.9728L23.1152 15.1916L22.7598 16.2287ZM8.36035 14.6105L5.00098 14.9992L7.87793 12.755L8.36035 14.6105Z"
    fill="var(--tbl--ui-node-icon--enrichment--clearout-primary)"
  />
</svg>
