<svg xmlns="http://www.w3.org/2000/svg" width="24" height="24" fill="none" viewBox="0 0 24 24">
  <path
    d="M8.10914 14.9855C8.10914 14.5746 7.95505 14.2408 7.64686 13.9839C7.35152 13.7271 6.97271 13.496 6.51043 13.2905C6.06099 13.0722 5.56661 12.8539 5.02728 12.6356C4.5008 12.4045 4.00641 12.1284 3.54413 11.8074C3.0947 11.4735 2.71588 11.0626 2.4077 10.5746C2.11235 10.0867 1.96468 9.46388 1.96468 8.70626C1.96468 8.05136 2.07383 7.48635 2.29213 7.01123C2.51043 6.52327 2.81861 6.11878 3.21669 5.79775C3.6276 5.47672 4.10914 5.23916 4.66131 5.08507C5.21348 4.93097 5.82985 4.85393 6.51043 4.85393C7.29373 4.85393 8.0321 4.92455 8.72551 5.06581C9.41893 5.19422 9.99036 5.38683 10.4398 5.64365L9.61155 7.85874C9.32905 7.67897 8.90529 7.51845 8.34028 7.3772C7.77527 7.22311 7.16532 7.14606 6.51043 7.14606C5.89405 7.14606 5.41893 7.26805 5.08507 7.51203C4.76404 7.75601 4.60352 8.08346 4.60352 8.49438C4.60352 8.87961 4.7512 9.20064 5.04654 9.45746C5.35473 9.71428 5.73354 9.95184 6.18298 10.1701C6.64526 10.3884 7.13964 10.6132 7.66612 10.8443C8.20545 11.0754 8.69983 11.3579 9.14927 11.6918C9.61155 12.0128 9.99036 12.4173 10.2857 12.9053C10.5939 13.3804 10.748 13.9775 10.748 14.6966C10.748 15.4157 10.626 16.0385 10.382 16.565C10.1509 17.0786 9.81701 17.5088 9.38041 17.8555C8.95665 18.2022 8.43659 18.4591 7.82022 18.626C7.21669 18.7929 6.54895 18.8764 5.81701 18.8764C4.85393 18.8764 4.00641 18.7865 3.27447 18.6067C2.54253 18.427 2.0032 18.2472 1.65649 18.0674L2.50401 15.8138C2.64526 15.8908 2.82503 15.9743 3.04333 16.0642C3.27447 16.1541 3.53129 16.2376 3.8138 16.3146C4.0963 16.3916 4.39165 16.4559 4.69983 16.5072C5.02086 16.5586 5.34831 16.5843 5.68218 16.5843C6.46548 16.5843 7.06259 16.4559 7.47351 16.199C7.89726 15.9294 8.10914 15.5249 8.10914 14.9855Z"
    fill="var(--tbl--colors--icons--enrichment--signal-hire-primary)"
  />
  <path
    d="M19.7047 13.1172H14.7737V18.8764H12.1349V5.11717H14.7737V10.7159H19.7047V5.11717H22.3436V18.8764H19.7047V13.1172Z"
    fill="var(--tbl--colors--icons--enrichment--signal-hire-secondary)"
  />
</svg>
