<svg xmlns="http://www.w3.org/2000/svg" width="32" height="32" fill="none" viewBox="0 0 32 32">
  <path
    d="M10.8122 19.9807C10.8122 19.4329 10.6067 18.9877 10.1958 18.6453C9.80203 18.3028 9.29695 17.9947 8.68058 17.7207C8.08133 17.4296 7.42215 17.1386 6.70305 16.8475C6.00107 16.5393 5.34189 16.1712 4.72552 15.7432C4.12627 15.298 3.62119 14.7501 3.21027 14.0995C2.81648 13.4489 2.61958 12.6185 2.61958 11.6083C2.61958 10.7352 2.76512 9.98181 3.05618 9.34831C3.34724 8.6977 3.75816 8.15837 4.28892 7.73034C4.83681 7.3023 5.47887 6.98555 6.21509 6.7801C6.95131 6.57464 7.77314 6.47191 8.68058 6.47191C9.72499 6.47191 10.7095 6.56608 11.634 6.75441C12.5586 6.92563 13.3205 7.18245 13.9197 7.52488L12.8154 10.4783C12.4387 10.2386 11.8737 10.0246 11.1204 9.83628C10.367 9.63082 9.55377 9.52809 8.68058 9.52809C7.85875 9.52809 7.22525 9.69074 6.7801 10.0161C6.35206 10.3414 6.13804 10.778 6.13804 11.3258C6.13804 11.8395 6.33494 12.2675 6.72873 12.61C7.13965 12.9524 7.64473 13.2691 8.24398 13.5602C8.86035 13.8513 9.51953 14.1509 10.2215 14.4591C10.9406 14.7673 11.5998 15.1439 12.199 15.5891C12.8154 16.0171 13.3205 16.5564 13.7143 17.2071C14.1252 17.8406 14.3307 18.6367 14.3307 19.5955C14.3307 20.5543 14.168 21.3847 13.8427 22.0867C13.5345 22.7715 13.0894 23.3451 12.5072 23.8074C11.9422 24.2697 11.2488 24.6121 10.427 24.8347C9.62226 25.0572 8.73194 25.1685 7.75602 25.1685C6.47191 25.1685 5.34189 25.0487 4.36597 24.809C3.39005 24.5693 2.67095 24.3296 2.20867 24.0899L3.33868 21.0851C3.52702 21.1878 3.76672 21.2991 4.05778 21.4189C4.36597 21.5388 4.7084 21.6501 5.08507 21.7528C5.46174 21.8555 5.85554 21.9411 6.26645 22.0096C6.69449 22.0781 7.13109 22.1124 7.57624 22.1124C8.62065 22.1124 9.4168 21.9411 9.96469 21.5987C10.5297 21.2392 10.8122 20.6998 10.8122 19."
    fill="var(--tbl--ui-node-icon--enrichment--signal-hire-primary)"
  />
  <path
    d="M26.2729 17.4896H19.6982V25.1685H16.1798V6.8229H19.6982V14.2879H26.2729V6.8229H29.7913V25.1685H26.2729V17.4896Z"
    fill="var(--tbl--ui-node-icon--enrichment--signal-hire-secondary)"
  />
</svg>
