<svg xmlns="http://www.w3.org/2000/svg" width="32" height="32" fill="none" viewBox="0 0 32 32">
  <path
    d="M10.8122 19.9807C10.8122 19.4328 10.6067 18.9877 10.1958 18.6453C9.80198 18.3028 9.2969 17.9946 8.68053 17.7207C8.08128 17.4296 7.4221 17.1386 6.703 16.8475C6.00102 16.5393 5.34184 16.1712 4.72547 15.7432C4.12622 15.298 3.62114 14.7501 3.21022 14.0995C2.81643 13.4489 2.61953 12.6185 2.61953 11.6083C2.61953 10.7352 2.76507 9.98181 3.05613 9.34831C3.3472 8.6977 3.75811 8.15837 4.28888 7.73034C4.83676 7.3023 5.47882 6.98555 6.21504 6.78009C6.95126 6.57464 7.77309 6.47191 8.68053 6.47191C9.72494 6.47191 10.7094 6.56608 11.634 6.75441C12.5585 6.92563 13.3204 7.18245 13.9197 7.52488L12.8154 10.4783C12.4387 10.2386 11.8737 10.0246 11.1203 9.83627C10.367 9.63082 9.55372 9.52809 8.68053 9.52809C7.8587 9.52809 7.2252 9.69074 6.78005 10.016C6.35201 10.3414 6.13799 10.778 6.13799 11.3258C6.13799 11.8395 6.33489 12.2675 6.72868 12.6099C7.1396 12.9524 7.64468 13.2691 8.24393 13.5602C8.8603 13.8513 9.51948 14.1509 10.2215 14.4591C10.9406 14.7673 11.5997 15.1439 12.199 15.5891C12.8154 16.0171 13.3204 16.5564 13.7142 17.2071C14.1252 17.8406 14.3306 18.6367 14.3306 19.5955C14.3306 20.5543 14.168 21.3847 13.8426 22.0867C13.5345 22.7715 13.0893 23.3451 12.5072 23.8074C11.9422 24.2697 11.2487 24.6121 10.4269 24.8347C9.62221 25.0572 8.73189 25.1685 7.75597 25.1685C6.47186 25.1685 5.34184 25.0487 4.36592 24.809C3.39 24.5693 2.6709 24.3296 2.20862 24.0899L3.33863 21.0851C3.52697 21.1878 3.76667 21.2991 4.05774 21.4189C4.36592 21.5388 4.70835 21.6501 5.08502 21.7528C5.46169 21.8555 5.85549 21.9411 6.2664 22.0096C6.69444 22.0781 7.13104 22.1124 7.57619 22.1124C8.6206 22.1124 9.41675 21.9411 9.96464 21.5987C10.5296 21.2392 10.8122 20.6998 10.8122 19.9807Z"
    fill="var(--tbl--colors--icons--enrichment--signal-hire-primary)"
  />
  <path
    d="M26.2729 17.4896H19.6983V25.1685H16.1798V6.82291H19.6983V14.2879H26.2729V6.82291H29.7914V25.1685H26.2729V17.4896Z"
    fill="var(--tbl--colors--icons--enrichment--signal-hire-secondary)"
  />
</svg>
