<svg xmlns="http://www.w3.org/2000/svg" width="24" height="24" fill="none" viewBox="0 0 24 24">
  <path
    d="M8.10915 14.9856C8.10915 14.5746 7.95506 14.2408 7.64687 13.9839C7.35153 13.7271 6.97271 13.496 6.51043 13.2905C6.061 13.0722 5.56661 12.8539 5.02729 12.6356C4.5008 12.4045 4.00642 12.1284 3.54414 11.8074C3.0947 11.4735 2.71589 11.0626 2.40771 10.5746C2.11236 10.0867 1.96469 9.46388 1.96469 8.70626C1.96469 8.05136 2.07384 7.48636 2.29214 7.01123C2.51043 6.52327 2.81862 6.11878 3.21669 5.79775C3.62761 5.47672 4.10915 5.23916 4.66132 5.08507C5.21348 4.93098 5.82986 4.85393 6.51043 4.85393C7.29374 4.85393 8.0321 4.92456 8.72552 5.06581C9.41894 5.19422 9.99037 5.38684 10.4398 5.64366L9.61156 7.85875C9.32905 7.67897 8.9053 7.51846 8.34029 7.37721C7.77528 7.22311 7.16533 7.14607 6.51043 7.14607C5.89406 7.14607 5.41894 7.26806 5.08507 7.51204C4.76405 7.75602 4.60353 8.08347 4.60353 8.49438C4.60353 8.87961 4.7512 9.20064 5.04655 9.45746C5.35474 9.71428 5.73355 9.95185 6.18299 10.1701C6.64527 10.3884 7.13965 10.6132 7.66613 10.8443C8.20546 11.0754 8.69984 11.3579 9.14928 11.6918C9.61156 12.0128 9.99037 12.4173 10.2857 12.9053C10.5939 13.3804 10.748 13.9775 10.748 14.6966C10.748 15.4157 10.626 16.0385 10.382 16.565C10.1509 17.0787 9.81702 17.5088 9.38042 17.8555C8.95666 18.2022 8.4366 18.4591 7.82023 18.626C7.21669 18.7929 6.54896 18.8764 5.81702 18.8764C4.85393 18.8764 4.00642 18.7865 3.27448 18.6067C2.54254 18.427 2.00321 18.2472 1.6565 18.0674L2.50401 15.8138C2.64527 15.8908 2.82504 15.9743 3.04334 16.0642C3.27448 16.1541 3.5313 16.2376 3.81381 16.3146C4.09631 16.3917 4.39165 16.4559 4.69984 16.5072C5.02087 16.5586 5.34832 16.5843 5.68218 16.5843C6.46549 16.5843 7.0626 16.4559 7.47352 16.199C7.89727 15.9294 8.10915 15.5249 8.10915 14."
    fill="var(--tbl--ui-node-icon--enrichment--signal-hire-primary)"
  />
  <path
    d="M19.7047 13.1172H14.7737V18.8764H12.1348V5.11718H14.7737V10.7159H19.7047V5.11718H22.3435V18.8764H19.7047V13.1172Z"
    fill="var(--tbl--ui-node-icon--enrichment--signal-hire-secondary)"
  />
</svg>
