<svg width="16" height="16" viewBox="0 0 16 16" fill="none" xmlns="http://www.w3.org/2000/svg">
  <path
    d="M5.4061 9.99037C5.4061 9.71642 5.30337 9.49385 5.09791 9.32263C4.90101 9.15142 4.64847 8.99732 4.34029 8.86035C4.04066 8.71482 3.71107 8.56929 3.35152 8.42376C3.00053 8.26966 2.67095 8.08561 2.36276 7.87159C2.06313 7.64901 1.81059 7.37507 1.60513 7.04976C1.40824 6.72445 1.30979 6.30926 1.30979 5.80417C1.30979 5.36758 1.38256 4.9909 1.52809 4.67416C1.67362 4.34885 1.87908 4.07919 2.14446 3.86517C2.4184 3.65115 2.73943 3.49278 3.10754 3.39005C3.47565 3.28732 3.88657 3.23595 4.34029 3.23595C4.86249 3.23595 5.35473 3.28304 5.81701 3.37721C6.27929 3.46281 6.66024 3.59122 6.95987 3.76244L6.4077 5.23916C6.21937 5.11931 5.93686 5.01231 5.56019 4.91814C5.18352 4.81541 4.77688 4.76404 4.34029 4.76404C3.92937 4.76404 3.61263 4.84537 3.39005 5.00802C3.17603 5.17068 3.06902 5.38898 3.06902 5.66292C3.06902 5.91974 3.16747 6.13376 3.36436 6.30497C3.56982 6.47619 3.82236 6.63456 4.12199 6.7801C4.43017 6.92563 4.75976 7.07544 5.11075 7.22953C5.4703 7.38363 5.79989 7.57196 6.09952 7.79454C6.4077 8.00856 6.66024 8.27822 6.85714 8.60353C7.0626 8.92028 7.16533 9.31835 7.16533 9.79775C7.16533 10.2772 7.084 10.6923 6.92135 11.0433C6.76725 11.3858 6.54467 11.6726 6.25361 11.9037C5.97111 12.1348 5.6244 12.306 5.21348 12.4173C4.81113 12.5286 4.36597 12.5843 3.87801 12.5843C3.23595 12.5843 2.67095 12.5243 2.18298 12.4045C1.69502 12.2846 1.33547 12.1648 1.10433 12.0449L1.66934 10.5425C1.76351 10.5939 1.88336 10.6495 2.02889 10.7095C2.18298 10.7694 2.3542 10.825 2.54253 10.8764C2.73087 10.9278 2.92777 10.9706 3.13322 11.0048C3.34724 11.0391 3.56554 11.0562 3.78812 11.0562C4.31032 11.0562 4.7084 10.9706 4.98234 10.7994C5.26485 10.6196 5.4061 10.3499 5.4061 9.99037Z"
    fill="var(--tbl--ui-node-icon--enrichment--signal-hire-primary)"
  />
  <path
    d="M13.1364 8.74479H9.84912V12.5843H8.08989V3.41145H9.84912V7.14393H13.1364V3.41145H14.8957V12.5843H13.1364V8.74479Z"
    fill="var(--tbl--ui-node-icon--enrichment--signal-hire-secondary)"
  />
</svg>
