<svg xmlns="http://www.w3.org/2000/svg" width="32" height="32" fill="none" viewBox="0 0 32 32">
  <path fill="var(--tbl--colors--icons--transformation--primary)" fill-rule="evenodd" d="M9 3a4 4 0 0 0-4 4v18a4 4 0 0 0 4 4h11.682A6 6 0 1 0 27 18.803V9l-6-6h2.008H9Zm14.335 11.084-1.284 4.24a5.99 5.99 0 0 0-1.807.997l-1.583-5.237h1.241l1.09 4.202 1.101-4.202h1.242Zm-10.27 4.799c.11-.235.174-.5.193-.793h-1.126c-.018.35-.113.603-.284.76-.171.155-.403.233-.697.233-.35 0-.606-.138-.77-.413-.16-.275-.24-.7-.24-1.274v-.793c0-.267.02-.504.06-.713.04-.21.102-.388.185-.532a.901.901 0 0 1 .32-.329.882.882 0 0 1 .453-.112c.165 0 .307.023.424.068.12.043.22.109.297.197.08.085.14.193.18.324.043.13.07.283.08.457h1.122a2.743 2.743 0 0 0-.193-.821 1.797 1.797 0 0 0-.416-.617 1.803 1.803 0 0 0-.641-.389 2.475 2.475 0 0 0-.853-.136c-.331 0-.63.064-.897.192a1.93 1.93 0 0 0-.677.533c-.187.23-.331.505-.433.825-.101.32-.152.674-.152 1.061v.785c0 .385.048.738.144 1.058.096.32.235.595.417.825.181.227.406.405.673.533.267.125.572.188.917.188.304 0 .582-.044.833-.132a1.822 1.822 0 0 0 1.081-.985Zm4.042-.781a.76.76 0 0 1 .056.292c0 .104-.021.2-.064.288a.63.63 0 0 1-.184.22.902.902 0 0 1-.297.145 1.373 1.373 0 0 1-.396.052c-.169 0-.324-.019-.465-.056a.99.99 0 0 1-.36-.177.82.82 0 0 1-.233-.308 1.194 1.194 0 0 1-.092-.453h-1.105c0 .214.029.409.088.585.061.176.144.334.248.473.107.139.232.26.377.364a2.329 2.329 0 0 0 .989.413c.184.035.368.052.553.052.296 0 .57-.035.82-.104.252-.072.468-.176.65-.313a1.48 1.48 0 0 0 .424-.504c.104-.2.156-.429.156-.685 0-.24-.045-.458-.136-.653a1.61 1.61 0 0 0-.376-.525 2.306 2.306 0 0 0-.577-.4 4.36 4.36 0 0 0-.737-.285 4.886 4.886 0 0 1-.505-.164 2.053 2.053 0 0 1-.376-.192.856.856 0 0 1-.24-.24.56.56 0 0 1-.08-.297.646.646 0 0 1 .244-.52.82.82 0 0 1 .292-.153 1.32 1.32 0 0 1 .4-.056 1.2 1.2 0 0 1 .425.068.788.788 0 0 1 .489.465c.043.11.067.23.072.36h1.097a1.666 1.666 0 0 0-.577-1.286c-.181-.16-.399-.284-.652-.372a2.502 2.502 0 0 0-.833-.132c-.294 0-.567.039-.818.116a1.994 1.994 0 0 0-.652.325 1.531 1.531 0 0 0-.433.512c-.104.2-.156.423-.156.67 0 .253.052.477.156.672.107.195.248.366.425.513.176.147.379.272.608.376.233.104.476.191.73.26.208.057.381.118.52.185.142.064.255.136.34.216.089.078.15.162.185.253ZM24 29a5 5 0 1 0 0-10 5 5 0 0 0 0 10Zm.5-7.5a.5.5 0 0 0-1 0v4.293l-1.146-1.147a.5.5 0 0 0-.708.708l2 2a.5.5 0 0 0 .708 0l2-2a.5.5 0 0 0-.708-.708L24.5 25.793V21.5Z" clip-rule="evenodd"/>
  <path fill="#fff" fill-opacity=".5" d="M21 7V3l6 6h-4a2 2 0 0 1-2-2Z"/>
</svg>
