<svg width="32" height="32" viewBox="0 0 32 32" fill="none" xmlns="http://www.w3.org/2000/svg">
  <path
    d="M29.7054 13.9917C29.7054 14.6833 24.4994 16.2086 18.0055 16.2086C11.5115 16.2086 6.18872 14.6833 6.18872 13.9917C6.88039 13.3 11.4531 11.9167 17.947 11.9167C24.441 11.9167 29.7054 13.3 29.7054 13.9917Z"
    fill="var(--tbl--ui-node-icon--enrichment--enrichley-secondary)"
  />
  <path
    d="M25.5166 20.9083C25.5166 21.6 20.3107 23.1253 13.8167 23.1253C7.3228 23.1253 2 21.6 2 20.9083C2.69167 20.2166 7.26438 18.8333 13.7583 18.8333C20.2523 18.8333 25.5166 20.2166 25.5166 20.9083Z"
    fill="var(--tbl--ui-node-icon--enrichment--enrichley-secondary)"
  />
  <path
    d="M28.0914 15.2647C23.1045 16.9593 13.0626 16.821 6.88027 14.988C6.09468 14.7805 6.09468 14.8151 6.19715 16.9593L6.29962 19.1726L8.1099 19.7951C12.2428 21.1785 21.4309 21.3514 26.6568 20.1755C29.9016 19.4493 30.1066 19.2072 29.97 16.7518L29.8675 14.6768L28.0914 15.2647Z"
    fill="var(--tbl--ui-node-icon--enrichment--enrichley-primary)"
  />
  <path
    d="M2 23.5993V25.8472L3.29794 26.3659C7.77242 28.1643 19.0098 28.3372 23.9625 26.6772L25.7386 26.0893L25.8411 23.9105C25.9094 22.7347 25.807 21.7664 25.6703 21.7664C25.5337 21.7664 24.6798 22.0085 23.7917 22.2851C20.9568 23.1497 14.5695 23.5647 10.1975 23.1497C6.57695 22.8385 3.26378 22.1814 2.37572 21.628C2.10247 21.4551 2 22.0776 2 23.5993Z"
    fill="var(--tbl--ui-node-icon--enrichment--enrichley-primary)"
  />
  <path
    d="M2 9.76598V12.0139L3.29794 12.5326C7.73826 14.331 19.044 14.5039 23.9625 12.8439L25.7386 12.256L25.8411 10.0772C25.9094 8.9014 25.8753 7.69866 25.7386 7.69866C25.602 7.69866 24.3297 8.18166 23.4416 8.45833C20.7091 9.28833 14.3987 9.69681 10.095 9.3164C6.57695 9.00515 3.26378 8.34806 2.37572 7.79473C2.10247 7.62182 2 8.24431 2 9.76598Z"
    fill="var(--tbl--ui-node-icon--enrichment--enrichley-primary)"
  />
  <path
    d="M25.5166 7.075C25.5166 7.76666 20.2523 9.14999 13.7583 9.14999C7.26438 9.14999 2 7.76666 2 7.075C2.69167 6.38333 7.26438 5 13.7583 5C20.2523 5 25.5166 6.38333 25.5166 7.075Z"
    fill="var(--tbl--ui-node-icon--enrichment--enrichley-secondary)"
  />
</svg>

