<svg width="24" height="24" viewBox="0 0 24 24" fill="none" xmlns="http://www.w3.org/2000/svg">
  <path
    fill-rule="evenodd"
    clip-rule="evenodd"
    d="M19.0833 16.5V17H20C20.3644 17 20.7059 16.9026 21.0002 16.7323L20.7498 16.2996L20.4994 15.8668C20.3533 15.9513 20.1838 16 20 16H19.0833V16.5ZM21.5 4.91667H22V4C22 3.63565 21.9026 3.29405 21.7323 2.99984L21.2996 3.25024L20.8668 3.50065C20.9513 3.64673 21 3.81616 21 4V4.91667H21.5ZM9 2H9.91667V2.5V3H9C8.81616 3 8.64673 3.04869 8.50065 3.13322L8.25025 2.70044L7.99984 2.26766C8.29405 2.09743 8.63565 2 9 2ZM8 7V5.83333H7.5H7V7H5C3.34315 7 2 8.34314 2 10V19C2 20.6568 3.34315 22 5 22H14C15.6569 22 17 20.6568 17 19V17H18.1667V16.5V16H17V10C17 8.34315 15.6569 7 14 7H8ZM7.5 4.91667H7V4C7 3.63565 7.09743 3.29405 7.26766 2.99984L7.70044 3.25024L8.13322 3.50065C8.04869 3.64673 8 3.81616 8 4V4.91667H7.5ZM10.8333 2.5V2H12.6667V2.5V3H10.8333V2.5ZM13.5833 2.5V2H15.4167V2.5V3H13.5833V2.5ZM16.3333 2.5V2H18.1667V2.5V3H16.3333V2.5ZM19.0833 2.5V2H20C20.3644 2 20.7059 2.09743 21.0002 2.26766L20.7498 2.70044L20.4994 3.13322C20.3533 3.04869 20.1838 3 20 3H19.0833V2.5ZM21.5 5.83333H22V7.66666H21.5H21V5.83333H21.5ZM21.5 8.58333H22V10.4167H21.5H21V8.58333H21.5ZM21.5 11.3333H22V13.1667H21.5H21V11.3333H21.5ZM21.5 14.0833H22V15C22 15.3643 21.9026 15.7059 21.7323 16.0002L21.2996 15.7498L20.8668 15.4993C20.9513 15.3533 21 15.1838 21 15V14.0833H21.5Z"
    fill="var(--tbl--colors--icons--clean--primary)"
  />
  <path
    fill-rule="evenodd"
    clip-rule="evenodd"
    d="M8 7H14C15.6569 7 17 8.34315 17 10V16H10C8.89543 16 8 15.1046 8 14V7Z"
    fill="var(--tbl--colors--icons--clean--secondary)"
  />
</svg>
