<svg width="32" height="32" viewBox="0 0 32 32" fill="none" xmlns="http://www.w3.org/2000/svg">
  <path
    fill-rule="evenodd"
    clip-rule="evenodd"
    d="M24 21.5V22H25C25.2686 22 25.529 21.9647 25.7767 21.8985L25.6476 21.4154L25.5185 20.9324C25.3542 20.9763 25.1807 21 25 21H24V21.5ZM26.2498 21.1657L26.5002 21.5985C26.9555 21.3351 27.3351 20.9555 27.5985 20.5002L27.1657 20.2498L26.733 19.9994C26.5571 20.3033 26.3033 20.5571 25.9994 20.733L26.2498 21.1657ZM27.5 8H28V7C28 6.73138 27.9647 6.471 27.8985 6.22326L27.4154 6.35238L26.9324 6.4815C26.9763 6.64576 27 6.81935 27 7V8H27.5ZM27.1657 5.75016L27.5985 5.49976C27.3351 5.0445 26.9555 4.66489 26.5002 4.40149L26.2498 4.83427L25.9994 5.26704C26.3033 5.44286 26.5571 5.6967 26.733 6.00057L27.1657 5.75016ZM13 4H14V4.5V5H13C12.8193 5 12.6458 5.0237 12.4815 5.06761L12.3524 4.58457L12.2233 4.10153C12.471 4.0353 12.7314 4 13 4ZM11.7502 4.83426L11.4998 4.40148C11.0445 4.66489 10.6649 5.0445 10.4015 5.49976L10.8343 5.75016L11.267 6.00057C11.4429 5.6967 11.6967 5.44286 12.0006 5.26704L11.7502 4.83426ZM11 10V9H10.5H10V10H8C5.79086 10 4 11.7909 4 14V24C4 26.2091 5.79086 28 8 28H18C20.2091 28 22 26.2091 22 24V22H23V21.5V21H22V14C22 11.7909 20.2091 10 18 10H11ZM10.5 8H10V7C10 6.73138 10.0353 6.471 10.1015 6.22326L10.5846 6.35238L11.0676 6.4815C11.0237 6.64576 11 6.81934 11 7V8H10.5ZM15 4.5V4H17V4.5V5H15V4.5ZM18 4.5V4H20V4.5V5H18V4.5ZM21 4.5V4H23V4.5V5H21V4.5ZM24 4.5V4H25C25.2686 4 25.529 4.0353 25.7767 4.10153L25.6476 4.58457L25.5185 5.06761C25.3542 5.0237 25.1807 5 25 5H24V4.5ZM27.5 9H28V11H27.5H27V9H27.5ZM27.5 12H28V14H27.5H27V12H27.5ZM27.5 15H28V17H27.5H27V15H27.5ZM27.5 18H28V19C28 19.2686 27.9647 19.529 27.8985 19.7767L27.4154 19.6476L26.9324 19.5185C26.9763 19.3542 27 19.1807 27 19V18H27.5Z"
    fill="var(--tbl--colors--icons--clean--primary)"
  />
  <path
    fill-rule="evenodd"
    clip-rule="evenodd"
    d="M22 21H15C12.7909 21 11 19.2091 11 17V10H18C20.2091 10 22 11.7909 22 14V21Z"
    fill="var(--tbl--colors--icons--clean--secondary)"
  />
</svg>
