<svg width="16" height="16" viewBox="0 0 16 16" fill="none" xmlns="http://www.w3.org/2000/svg">
  <path
    fill-rule="evenodd"
    clip-rule="evenodd"
    d="M14 2H6V10H14V2ZM5 10C5 10.0896 5.01178 10.1764 5.03387 10.259L2 13.2929L2 10.2071L5 7.20711V10ZM6.29289 14H2.70711L5.74098 10.9661C5.82359 10.9882 5.91042 11 6 11H9.29289L6.29289 14ZM7.70711 14H10V11.7071L7.70711 14ZM6 1C5.44772 1 5 1.44772 5 2V5H2C1.44772 5 1 5.44771 1 6V14C1 14.5523 1.44772 15 2 15H10C10.5523 15 11 14.5523 11 14V11H14C14.5523 11 15 10.5523 15 10V2C15 1.44772 14.5523 1 14 1H6ZM4.79289 6H2L2 8.79289L4.79289 6Z"
    fill="currentColor"
  />
</svg>
