<svg width="24" height="24" viewBox="0 0 24 24" fill="none" xmlns="http://www.w3.org/2000/svg">
  <path
    d="M12 0.75C18.2132 0.75 23.25 5.7868 23.25 12C23.25 18.2132 18.2132 23.25 12 23.25C5.7868 23.25 0.75 18.2132 0.75 12C0.75 5.7868 5.7868 0.75 12 0.75ZM12 2.625C6.82233 2.625 2.625 6.82233 2.625 12C2.625 17.1777 6.82233 21.375 12 21.375C17.1777 21.375 21.375 17.1777 21.375 12C21.375 6.82233 17.1777 2.625 12 2.625ZM12.1787 6.1875C13.2711 6.18755 14.2735 6.54312 15.0195 7.10547C15.7488 7.65522 16.3299 8.48735 16.3301 9.45801C16.3301 9.97577 15.9103 10.3955 15.3926 10.3955C14.8749 10.3954 14.4551 9.97571 14.4551 9.45801C14.4549 9.26209 14.3218 8.92754 13.8906 8.60254C13.476 8.29012 12.8716 8.06255 12.1787 8.0625C11.2491 8.0625 10.5499 8.28947 10.1133 8.58398C9.68413 8.87357 9.54504 9.19177 9.54492 9.45801C9.54492 9.82163 9.62316 10.046 9.71387 10.1943C9.80595 10.3448 9.94953 10.4808 10.1768 10.6064C10.6785 10.8839 11.3985 11.0199 12.334 11.1768C13.1755 11.3179 14.2377 11.4814 15.0684 11.916C15.5079 12.146 15.9278 12.4717 16.2324 12.9463C16.5397 13.4252 16.6875 13.9896 16.6875 14.625C16.6875 15.9671 16.005 16.9086 15.0791 17.4688C14.201 17.9999 13.1212 18.1875 12.1787 18.1875C11.214 18.1875 10.1644 17.9744 9.27832 17.5029C8.38661 17.0285 7.59003 16.2481 7.33496 15.1074C7.22198 14.6021 7.54061 14.1013 8.0459 13.9883C8.55106 13.8755 9.05208 14.1931 9.16504 14.6982C9.26713 15.1547 9.59563 15.5478 10.1592 15.8477C10.7285 16.1505 11.4649 16.3125 12.1787 16.3125C12.9145 16.3125 13.6205 16.1594 14.1084 15.8643C14.5485 15.598 14.8125 15.2272 14.8125 14.625C14.8125 14.2884 14.7375 14.0887 14.6543 13.959C14.5683 13.8249 14.4293 13.6975 14.1992 13.5771C13.6907 13.3111 12.9675 13.1847 12.0234 13.0264C11.1732 12.8838 10.1071 12.7103 9.26953 12.2471C8.82735 12.0025 8.41278 11.6608 8.11426 11.1729C7.81433 10.6825 7.66992 10.1066 7.66992 9.45801C7.67004 8.43084 8.24425 7.58271 9.06445 7.0293C9.87787 6.48059 10.9655 6.1875 12.1787 6.1875Z"
    fill="var(--tbl--ui-node-icon--enrichment--serper)"
  />
</svg>
