<svg width="32" height="32" viewBox="0 0 32 32" fill="none" xmlns="http://www.w3.org/2000/svg">
  <path
    d="M16 1C24.2843 1 31 7.71573 31 16C31 24.2843 24.2843 31 16 31C7.71573 31 1 24.2843 1 16C1 7.71573 7.71573 1 16 1ZM16 3.5C9.09644 3.5 3.5 9.09644 3.5 16C3.5 22.9036 9.09644 28.5 16 28.5C22.9036 28.5 28.5 22.9036 28.5 16C28.5 9.09644 22.9036 3.5 16 3.5ZM16.2383 8.25C17.6949 8.25007 19.0317 8.72381 20.0264 9.47363C20.9988 10.2067 21.7734 11.3169 21.7734 12.6113C21.7733 13.3016 21.2137 13.8613 20.5234 13.8613C19.8333 13.8612 19.2736 13.3015 19.2734 12.6113C19.2734 12.3502 19.0964 11.9042 18.5215 11.4707C17.9687 11.054 17.1624 10.7501 16.2383 10.75C14.9988 10.75 14.0665 11.0526 13.4844 11.4453C12.9119 11.8316 12.7266 12.2563 12.7266 12.6113C12.7266 13.0956 12.8304 13.3941 12.9512 13.5918C13.074 13.7925 13.2662 13.9739 13.5693 14.1416C14.2383 14.5116 15.1973 14.6932 16.4443 14.9023C17.5665 15.0905 18.9841 15.3082 20.0918 15.8877C20.6778 16.1943 21.2365 16.6291 21.6426 17.2617C22.0524 17.9003 22.25 18.6527 22.25 19.5C22.25 21.2896 21.3401 22.5451 20.1055 23.292C18.9346 24.0002 17.495 24.25 16.2383 24.25C14.952 24.25 13.5525 23.9655 12.3711 23.3369C11.1823 22.7044 10.1204 21.6642 9.78027 20.1436C9.62963 19.4698 10.0538 18.801 10.7275 18.6504C11.4012 18.4999 12.0691 18.924 12.2197 19.5977C12.3558 20.2063 12.7945 20.7301 13.5459 21.1299C14.3049 21.5337 15.2866 21.75 16.2383 21.75C17.2194 21.75 18.161 21.5459 18.8115 21.1523C19.3981 20.7974 19.75 20.3028 19.75 19.5C19.75 19.0514 19.65 18.7853 19.5391 18.6123C19.4243 18.4336 19.2394 18.263 18.9326 18.1025C18.2546 17.7478 17.2901 17.5793 16.0312 17.3682C14.8977 17.1781 13.476 16.9475 12.3594 16.3301C11.7697 16.004 11.2174 15.5472 10.8193 14.8965C10.4195 14.2428 10.2256 13.476 10.2256 12.6113C10.2256 11.2414 10.993 10.11 12.0869 9.37207C13.1714 8.64063 14.6208 8.25 16.2383 8.25Z"
    fill="var(--tbl--ui-node-icon--enrichment--serper)"
  />
</svg>
