<svg width="18" height="18" viewBox="0 0 18 18" fill="none" xmlns="http://www.w3.org/2000/svg">
  <path
    d="M9 0.5625C13.6599 0.5625 17.4375 4.3401 17.4375 9C17.4375 13.6599 13.6599 17.4375 9 17.4375C4.3401 17.4375 0.5625 13.6599 0.5625 9C0.5625 4.3401 4.3401 0.5625 9 0.5625ZM9 1.96875C5.11675 1.96875 1.96875 5.11675 1.96875 9C1.96875 12.8833 5.11675 16.0312 9 16.0312C12.8833 16.0312 16.0312 12.8833 16.0312 9C16.0312 5.11675 12.8833 1.96875 9 1.96875ZM9.13379 4.64062C9.95318 4.64062 10.7051 4.90731 11.2646 5.3291C11.8117 5.74146 12.248 6.36565 12.248 7.09375C12.248 7.48196 11.9331 7.79669 11.5449 7.79688C11.1566 7.79688 10.8418 7.48208 10.8418 7.09375C10.8418 6.94685 10.7415 6.69604 10.418 6.45215C10.107 6.21776 9.65359 6.04688 9.13379 6.04688C8.43663 6.04689 7.91239 6.21663 7.58496 6.4375C7.26281 6.65481 7.1582 6.89398 7.1582 7.09375C7.1582 7.36636 7.21716 7.53429 7.28516 7.64551C7.35422 7.75842 7.46227 7.86076 7.63281 7.95508C8.0091 8.16311 8.54861 8.2652 9.25 8.38281C9.88119 8.48865 10.6787 8.61053 11.3018 8.93652C11.6314 9.109 11.9454 9.35409 12.1738 9.70996C12.4043 10.0691 12.5156 10.4922 12.5156 10.9688C12.5156 11.9752 12.0039 12.6814 11.3096 13.1016C10.6509 13.5 9.84073 13.6406 9.13379 13.6406C8.4103 13.6406 7.6235 13.4805 6.95898 13.127C6.29017 12.7711 5.69228 12.1856 5.50098 11.3301C5.41655 10.9513 5.65538 10.5759 6.03418 10.4912C6.41309 10.4065 6.78923 10.6446 6.87402 11.0234C6.95057 11.3658 7.19655 11.6609 7.61914 11.8857C8.04608 12.1129 8.59847 12.2344 9.13379 12.2344C9.6856 12.2344 10.2151 12.1197 10.5811 11.8984C10.9111 11.6988 11.1094 11.4204 11.1094 10.9688C11.1094 10.7162 11.0527 10.566 10.9902 10.4688C10.9257 10.3684 10.8217 10.2728 10.6494 10.1826C10.268 9.98314 9.72559 9.88826 9.01758 9.76953C8.37993 9.66261 7.58026 9.53289 6.95215 9.18555C6.62045 9.0021 6.30984 8.74496 6.08594 8.37891C5.86109 8.0112 5.75195 7.58011 5.75195 7.09375C5.75195 6.32317 6.18348 5.68658 6.79883 5.27148C7.40884 4.8601 8.22405 4.64064 9.13379 4.64062Z"
    fill="var(--tbl--ui-node-icon--enrichment--serper)"
  />
</svg>
