<svg xmlns="http://www.w3.org/2000/svg" width="16" height="16" fill="none" viewBox="0 0 16 16">
  <path fill="currentColor" fill-rule="evenodd" d="M12 2h1a1 1 0 1 1 0 2h-1a1 1 0 1 1 0-2Zm-2 1a2 2 0 0 1 2-2h1a2 2 0 1 1 0 4h-1a2 2 0 0 1-2-2Zm2 4h1a1 1 0 1 1 0 2h-1a1 1 0 1 1 0-2Zm-2 1a2 2 0 0 1 2-2h1a2 2 0 1 1 0 4h-1a2 2 0 0 1-2-2Zm3 4h-1a1 1 0 1 0 0 2h1a1 1 0 1 0 0-2Zm-1-1a2 2 0 1 0 0 4h1a2 2 0 1 0 0-4h-1ZM2 9V6h2v3H2Zm2 1H2v3.5a.5.5 0 0 1-1 0v-11a.5.5 0 0 1 1 0V5h2V2.5a.5.5 0 0 1 1 0V7h2.293l-.147-.146a.5.5 0 1 1 .708-.708l1 1a.5.5 0 0 1 0 .708l-1 1a.5.5 0 1 1-.708-.708L7.293 8H5v5.5a.5.5 0 0 1-1 0V10Z" clip-rule="evenodd"/>
</svg>
