<svg xmlns="http://www.w3.org/2000/svg" width="32" height="32" fill="none" viewBox="0 0 32 32">
  <path fill="var(--tbl--colors--icons--clean--secondary)" fill-rule="evenodd" d="M20 6a2 2 0 0 1 2-2h6a2 2 0 0 1 2 2v3a2 2 0 0 1-2 2h-6a2 2 0 0 1-2-2V6Zm0 8a2 2 0 0 1 2-2h6a2 2 0 0 1 2 2v3a2 2 0 0 1-2 2h-6a2 2 0 0 1-2-2v-3Zm2 6a2 2 0 0 0-2 2v3a2 2 0 0 0 2 2h6a2 2 0 0 0 2-2v-3a2 2 0 0 0-2-2h-6Z" clip-rule="evenodd"/>
  <path fill="var(--tbl--colors--icons--clean--primary)" fill-rule="evenodd" d="M4 7a2 2 0 0 0-2 2v15a2 2 0 0 0 2 2h6a2 2 0 0 0 2-2V9a2 2 0 0 0-2-2H4Zm16 7a2 2 0 0 1 2-2h6a2 2 0 0 1 2 2v3a2 2 0 0 1-2 2h-6a2 2 0 0 1-2-2v-3Zm-3.793-1.207 2 2a1 1 0 0 1 0 1.414l-2 2A1 1 0 0 1 14.5 17.5v-4a1 1 0 0 1 1.707-.707Z" clip-rule="evenodd"/>
</svg>
