<svg xmlns="http://www.w3.org/2000/svg" width="24" height="24" fill="none" viewBox="0 0 24 24">
  <path fill="var(--tbl--colors--icons--clean--secondary)" fill-rule="evenodd" d="M16 3a2 2 0 0 0-2 2v1a2 2 0 0 0 2 2h4a2 2 0 0 0 2-2V5a2 2 0 0 0-2-2h-4Zm0 12a2 2 0 0 0-2 2v1a2 2 0 0 0 2 2h4a2 2 0 0 0 2-2v-1a2 2 0 0 0-2-2h-4Z" clip-rule="evenodd"/>
  <path fill="var(--tbl--colors--icons--clean--primary)" fill-rule="evenodd" d="M2 7a2 2 0 0 1 2-2h3a2 2 0 0 1 2 2v9a2 2 0 0 1-2 2H4a2 2 0 0 1-2-2V7Zm12 4a2 2 0 0 1 2-2h4a2 2 0 0 1 2 2v1a2 2 0 0 1-2 2h-4a2 2 0 0 1-2-2v-1Zm-2.168-1.555A1 1 0 0 0 10 10v3a1 1 0 0 0 1.832.555l1-1.5a1 1 0 0 0 0-1.11l-1-1.5Z" clip-rule="evenodd"/>
</svg>
