<svg xmlns="http://www.w3.org/2000/svg" width="32" height="32" fill="none" viewBox="0 0 32 32">
  <path fill="var(--tbl--colors--icons--transformation--primary)" fill-rule="evenodd" d="M5 7a4 4 0 0 1 4-4h14.008H21l6 6v16a4 4 0 0 1-4 4H9a4 4 0 0 1-4-4V7Zm8.258 11.09a2.191 2.191 0 0 1-.193.793 1.822 1.822 0 0 1-1.081.985 2.502 2.502 0 0 1-.833.132c-.345 0-.65-.063-.917-.188a1.905 1.905 0 0 1-.673-.533 2.448 2.448 0 0 1-.417-.825A3.668 3.668 0 0 1 9 17.396v-.785c0-.387.05-.74.152-1.06.102-.321.246-.596.433-.826a1.93 1.93 0 0 1 .677-.533c.267-.128.566-.192.897-.192.32 0 .605.045.853.136.251.091.465.22.64.389.177.168.316.373.417.617.102.242.166.516.193.82H12.14a1.843 1.843 0 0 0-.08-.456.815.815 0 0 0-.18-.324.696.696 0 0 0-.297-.197 1.179 1.179 0 0 0-.424-.068.882.882 0 0 0-.453.112.901.901 0 0 0-.32.329 1.71 1.71 0 0 0-.184.532c-.04.209-.06.446-.06.713v.793c0 .575.08 1 .24 1.274.163.275.42.413.769.413.294 0 .526-.078.697-.232.17-.158.265-.412.284-.761h1.126Zm3.905.304a.76.76 0 0 0-.056-.292.646.646 0 0 0-.184-.253 1.248 1.248 0 0 0-.34-.216 3.05 3.05 0 0 0-.522-.184 5.02 5.02 0 0 1-.729-.26 2.665 2.665 0 0 1-.608-.377 1.77 1.77 0 0 1-.425-.513 1.406 1.406 0 0 1-.156-.673c0-.245.052-.468.156-.669.104-.2.248-.37.433-.512.184-.142.402-.25.652-.325.252-.077.524-.116.818-.116.304 0 .582.044.833.132.253.088.471.213.653.373a1.666 1.666 0 0 1 .576 1.285h-1.097a1.112 1.112 0 0 0-.072-.36.788.788 0 0 0-.489-.465 1.2 1.2 0 0 0-.424-.068c-.15 0-.283.019-.401.056a.82.82 0 0 0-.292.152.646.646 0 0 0-.165.818.856.856 0 0 0 .24.24c.105.07.23.133.377.192.15.059.318.114.505.164.267.078.513.173.737.285.224.112.416.245.577.4.163.152.288.327.376.525.091.195.136.412.136.653 0 .256-.052.485-.156.685a1.48 1.48 0 0 1-.424.504c-.182.137-.398.24-.65.313-.25.07-.524.104-.82.104a2.98 2.98 0 0 1-1.078-.204 2.329 2.329 0 0 1-.464-.26 1.809 1.809 0 0 1-.377-.365 1.733 1.733 0 0 1-.248-.473 1.843 1.843 0 0 1-.088-.585h1.105c.005.177.036.328.092.453a.82.82 0 0 0 .232.308.99.99 0 0 0 .361.177c.142.037.296.056.465.056.15 0 .281-.018.396-.052a.902.902 0 0 0 .297-.145.63.63 0 0 0 .184-.22.652.652 0 0 0 .064-.288Zm4.93-4.31-1.101 4.202-1.09-4.202h-1.241l1.762 5.832h1.146l1.766-5.832h-1.242Z" clip-rule="evenodd"/>
  <path fill="#fff" fill-opacity=".5" d="M21 7V3l6 6h-4a2 2 0 0 1-2-2Z"/>
</svg>
