<svg width="16" height="16" viewBox="0 0 16 16" fill="none" xmlns="http://www.w3.org/2000/svg">
  <path fill-rule="evenodd" clip-rule="evenodd" d="M8 2H3L3 14H4H11H12C12 14.5523 11.5523 15 11 15H3C2.44772 15 2 14.5523 2 14V2C2 1.44772 2.44772 1 3 1H8L12 5V7H11V5L9 5C8.44772 5 8 4.55228 8 4V2ZM6 9C6 8.44772 6.44772 8 7 8H8V9H7V11H8V12H7C6.44772 12 6 11.5523 6 11V9ZM11 8C9.89543 8 9 8.89543 9 10H10C10 9.44772 10.4477 9 11 9H12V8H11ZM12 10C12 11.1046 11.1046 12 10 12H9V11H10C10.5523 11 11 10.5523 11 10H12ZM14 8H13V10.1514L14.084 11.7774C14.1767 11.9164 14.3328 12 14.5 12C14.6672 12 14.8233 11.9164 14.916 11.7774L16 10.1514V8H15V9.84861L14.5 10.5986L14 9.84861V8Z" fill="currentColor"/>
</svg>
