<svg xmlns="http://www.w3.org/2000/svg" width="24" height="24" fill="none" viewBox="0 0 24 24">
  <path fill="var(--tbl--colors--icons--transformation--primary)" fill-rule="evenodd" d="M4 5a3 3 0 0 1 3-3h8l5 5v12a3 3 0 0 1-3 3H7a3 3 0 0 1-3-3V5Zm5.548 8.408a1.827 1.827 0 0 1-.16.66 1.519 1.519 0 0 1-.901.822c-.21.073-.44.11-.695.11-.287 0-.541-.052-.764-.157a1.588 1.588 0 0 1-.56-.444 2.042 2.042 0 0 1-.348-.687c-.08-.267-.12-.561-.12-.882v-.654c0-.322.042-.617.127-.884.084-.267.205-.496.36-.688a1.61 1.61 0 0 1 .564-.444c.223-.107.472-.16.748-.16.267 0 .504.038.711.114a1.5 1.5 0 0 1 .534.323c.147.14.263.312.347.514.085.203.138.43.16.684h-.934a1.534 1.534 0 0 0-.067-.38.68.68 0 0 0-.15-.27.58.58 0 0 0-.247-.164.984.984 0 0 0-.354-.057.735.735 0 0 0-.377.094.751.751 0 0 0-.267.274c-.07.12-.12.268-.154.443-.033.174-.05.372-.05.595v.66c0 .479.067.833.2 1.062.136.23.35.344.641.344.245 0 .439-.065.581-.194.143-.131.222-.343.237-.634h.938Zm3.254.254a.634.634 0 0 0-.046-.244.538.538 0 0 0-.154-.21 1.038 1.038 0 0 0-.284-.18 2.536 2.536 0 0 0-.434-.154 4.172 4.172 0 0 1-.607-.217 2.22 2.22 0 0 1-.507-.314 1.476 1.476 0 0 1-.354-.427 1.172 1.172 0 0 1-.13-.56c0-.206.043-.391.13-.558.087-.167.207-.31.36-.428.154-.117.335-.208.544-.27a2.3 2.3 0 0 1 .681-.097c.254 0 .485.037.695.11.211.074.392.177.544.31a1.391 1.391 0 0 1 .48 1.072h-.914a.924.924 0 0 0-.06-.3.657.657 0 0 0-.407-.387 1.001 1.001 0 0 0-.354-.057 1.1 1.1 0 0 0-.334.047.686.686 0 0 0-.244.127.54.54 0 0 0-.137.68c.047.074.114.14.2.2.087.059.192.112.314.161.125.049.265.095.42.137.223.064.428.143.615.237.187.093.347.204.48.334.136.126.241.272.315.437.075.162.113.344.113.544 0 .213-.043.404-.13.57a1.235 1.235 0 0 1-.354.421 1.65 1.65 0 0 1-.54.26c-.21.058-.438.087-.685.087a2.476 2.476 0 0 1-.898-.17 1.94 1.94 0 0 1-.387-.217 1.502 1.502 0 0 1-.314-.304 1.442 1.442 0 0 1-.207-.393 1.532 1.532 0 0 1-.073-.488h.921c.005.147.03.273.077.377.047.105.111.19.193.257a.825.825 0 0 0 .3.147c.119.031.248.047.388.047.125 0 .235-.014.33-.043a.752.752 0 0 0 .247-.12.526.526 0 0 0 .154-.184.544.544 0 0 0 .053-.24Zm4.11-3.592-.919 3.501-.908-3.5h-1.034l1.468 4.859h.955l1.472-4.86H16.91Z" clip-rule="evenodd"/>
  <path fill="#fff" fill-opacity=".5" d="m20 7-5-5v3a2 2 0 0 0 2 2h3Z"/>
</svg>
