<svg xmlns="http://www.w3.org/2000/svg" width="24" height="24" fill="none" viewBox="0 0 24 24">
  <path
    d="M9.91025 2.18015C7.07983 2.79792 4.30231 5.02726 3.05905 7.74007C2.42419 9.13676 2 10.1269 2 12.1802C2 14.2335 2.37128 15.019 3.24421 16.6306C4.96363 19.8268 7.7676 21.707 11.2858 21.9756C14.3014 22.2173 17.2905 21.143 16.9202 19.9611C16.6556 19.1554 16.0737 19.0479 14.8304 19.5851C13.1639 20.2835 10.3599 20.176 8.69343 19.3434C5.01653 17.5706 3.19131 13.2194 4.48748 9.32478C5.06944 7.57891 7.13274 5.34958 8.8786 4.59751C10.8096 3.76486 13.2433 3.76486 15.1214 4.59751C16.8673 5.34958 18.9306 7.60577 19.5125 9.32478C20.3325 11.7959 19.9093 15.1264 18.6925 15.6905C18.1105 15.9591 17.9518 15.9054 17.5286 15.3682C17.1582 14.9116 17.0789 14.5624 17.2111 14.1595C17.3434 13.8372 17.4228 12.7897 17.4228 11.7959C17.4228 10.238 17.317 9.86197 16.6292 8.84131C13.8781 4.91982 8.16438 5.77933 6.7095 10.3454C5.59849 13.8103 8.27019 17.5975 11.7884 17.5975C14.1427 17.5975 14.222 16.174 11.8942 15.8248C10.3864 15.6099 9.51346 15.0727 8.8257 13.9178C7.37081 11.5004 9.16958 8.35784 12 8.35784C13.402 8.35784 14.7246 9.19048 15.3066 10.426C15.7827 11.4198 15.8092 11.9302 15.4124 13.6492C15.0156 15.3413 15.5711 16.7111 16.8937 17.3289C18.0576 17.893 18.8248 17.8661 19.8564 17.2215C21.2848 16.3351 22 14.069 22 12.3448C22 10.2759 21.5758 9.13676 20.9674 7.82065C19.9093 5.56445 18.5867 4.19462 16.4176 3.12024C14.3014 2.09958 11.9735 1.7504 9.91025 2.18015Z"
    fill="var(--tbl--ui-node-icon--enrichment--debounce)"
  />
</svg>
