<svg xmlns="http://www.w3.org/2000/svg" width="32" height="32" fill="none" viewBox="0 0 32 32">
  <path
    d="M13.0744 2.2527C9.11176 3.11758 5.22324 6.23866 3.48266 10.0366C2.59386 11.992 2 13.3781 2 16.2527C2 19.1273 2.51979 20.2271 3.7419 22.4833C6.14908 26.9581 10.0746 29.5903 15.0001 29.9663C19.2219 30.3048 23.4067 28.8006 22.8882 27.1461C22.5179 26.018 21.7032 25.8676 19.9626 26.6196C17.6295 27.5973 13.7039 27.4469 11.3708 26.2812C6.22315 23.7994 3.66783 17.7077 5.48248 12.2552C6.29721 9.81097 9.18583 6.68989 11.63 5.637C14.3335 4.4713 17.7406 4.4713 20.37 5.637C22.8142 6.68989 25.7028 9.84857 26.5175 12.2552C27.6656 15.7147 27.073 20.3775 25.3695 21.1672C24.5547 21.5432 24.3325 21.468 23.74 20.7159C23.2215 20.0767 23.1104 19.5878 23.2956 19.0238C23.4808 18.5725 23.5919 17.106 23.5919 15.7147C23.5919 13.5337 23.4437 13.0072 22.4809 11.5783C18.6294 6.08824 10.6301 7.29155 8.59329 13.6841C7.03788 18.5349 10.7783 23.837 15.7037 23.837C18.9997 23.837 19.1108 21.844 15.8519 21.3552C13.741 21.0544 12.5188 20.3023 11.556 18.6853C9.51913 15.301 12.0374 10.9015 16 10.9015C17.9628 10.9015 19.8145 12.0672 20.6292 13.7969C21.2958 15.1882 21.3328 15.9027 20.7773 18.3093C20.2218 20.6783 20.9995 22.5961 22.8512 23.461C24.4807 24.2506 25.5547 24.213 26.999 23.3105C28.9988 22.0696 30 18.897 30 16.4833C30 13.5867 29.4061 11.992 28.5544 10.1494C27.073 6.99072 25.2214 5.07295 22.1846 3.56882C19.2219 2.13989 15.963 1.65105 13.0744 2.2527Z"
    fill="var(--tbl--ui-node-icon--enrichment--debounce)"
  />
</svg>
