<svg xmlns="http://www.w3.org/2000/svg" width="32" height="32" fill="none" viewBox="0 0 32 32">
  <path fill="var(--tbl--colors--icons--clean--secondary)" d="M17 3a3 3 0 0 1 3 3v20a3 3 0 0 1-3 3h-6a3 3 0 0 1-3-3V6a3 3 0 0 1 3-3h6Z"/>
  <path fill="var(--tbl--colors--icons--clean--primary)" fill-rule="evenodd" d="M21.793 9.793a1 1 0 0 0 0 1.414l2.293 2.293H18.5a4 4 0 0 0-4 4v1a1 1 0 1 0 2 0v-1a2 2 0 0 1 2-2h5.586l-2.293 2.293a1 1 0 1 0 1.414 1.414l4-4a1 1 0 0 0 0-1.414l-4-4a1 1 0 0 0-1.414 0Z" clip-rule="evenodd"/>
</svg>
