<svg xmlns="http://www.w3.org/2000/svg" width="24" height="24" fill="none" viewBox="0 0 24 24">
  <path
    fill="var(--tbl--colors--icons--clean--secondary)"
    d="M4 4C4 2.89543 4.89543 2 6 2H12C13.1046 2 14 2.89543 14 4V20C14 21.1046 13.1046 22 12 22H6C4.89543 22 4 21.1046 4 20V4Z"
  />
  <path
    fill="var(--tbl--colors--icons--clean--primary)"
    fill-rule="evenodd"
    d="M9.5 16.5C10.0523 16.5 10.5 16.0523 10.5 15.5V14.5C10.5 13.3954 11.3954 12.5 12.5 12.5H16.5V14C16.5 14.4045 16.7436 14.7691 17.1173 14.9239C17.491 15.0787 17.9211 14.9931 18.2071 14.7071L20.7071 12.2071C20.8946 12.0196 21 11.7652 21 11.5C21 11.2348 20.8946 10.9804 20.7071 10.7929L18.2071 8.29291C17.9211 8.00691 17.491 7.92135 17.1173 8.07613C16.7436 8.23091 16.5 8.59555 16.5 9.00001V10.5H12.5C10.2909 10.5 8.5 12.2909 8.5 14.5V15.5C8.5 16.0523 8.94772 16.5 9.5 16.5Z"
    clip-rule="evenodd"
  />
</svg>
