<svg width="32" height="32" viewBox="0 0 32 32" fill="none" xmlns="http://www.w3.org/2000/svg">
  <path d="M25.5 25H4V6.83521C4 5.95573 5.05357 5.50456 5.69008 6.11147L25.5 25Z" fill="#B2E9E3"/>
  <path fill-rule="evenodd" clip-rule="evenodd" d="M25 6C25 5.44772 24.5523 5 24 5C23.4477 5 23 5.44772 23 6V14.5858L21.7071 13.2929C21.3166 12.9024 20.6834 12.9024 20.2929 13.2929C19.9024 13.6834 19.9024 14.3166 20.2929 14.7071L23.2929 17.7071C23.4804 17.8946 23.7348 18 24 18C24.2652 18 24.5196 17.8946 24.7071 17.7071L27.7071 14.7071C28.0976 14.3166 28.0976 13.6834 27.7071 13.2929C27.3166 12.9024 26.6834 12.9024 26.2929 13.2929L25 14.5858V6ZM5 24C4.44772 24 4 24.4477 4 25C4 25.5523 4.44772 26 5 26H24.5C25.0523 26 25.5 25.5523 25.5 25C25.5 24.4477 25.0523 24 24.5 24H5Z" fill="#00B7A2"/>
</svg>
