<svg xmlns="http://www.w3.org/2000/svg" width="32" height="32" fill="none" viewBox="0 0 32 32">
  <path
    fill-rule="evenodd"
    clip-rule="evenodd"
    d="M13.3113 3.92547C13.3113 3.4263 13.7164 3.02004 14.2213 3H17.7774C18.2842 3.02004 18.6883 3.4263 18.6883 3.92547C18.6883 4.43739 18.2637 4.85185 17.7391 4.85185H14.2596C13.7369 4.85185 13.3113 4.43739 13.3113 3.92547ZM9.49668 7.18495C9.51441 6.58644 10.0446 6.12534 10.6531 6.12534H21.3941C22.0195 6.12534 22.5235 6.63255 22.5048 7.25228C22.4861 7.85079 21.956 8.31189 21.3484 8.31189H18.6949C18.3262 8.31189 18.0294 8.62543 18.0658 8.99801C18.0966 9.32354 18.3925 9.5624 18.7219 9.5624H26.9046C27.473 9.5624 27.9985 9.86303 28.2795 10.3509C28.5296 10.7834 28.7564 11.2307 28.9599 11.6908C29.2315 12.3087 28.7676 12.9994 28.0862 12.9994H24.2483C23.7854 12.9994 23.4158 13.3923 23.4606 13.858C23.5007 14.2647 23.8684 14.5626 24.281 14.5626H28.7359C29.5087 14.5626 30.0939 15.2394 29.9875 15.9947C29.8745 16.8156 29.686 17.6132 29.434 18.3823C29.2632 18.8988 28.7769 19.2492 28.2281 19.2492H16.9486C16.4156 19.2492 15.9844 19.6854 16.0003 20.2166C16.0152 20.7294 16.4698 21.125 16.9896 21.125H27.0204C27.5309 21.125 27.8352 21.694 27.5412 22.1044C24.9857 25.6705 20.7697 28 16.0003 28C11.2318 28 7.0149 25.6705 4.45938 22.1044C4.16351 21.694 4.47058 21.125 4.97926 21.125H7.2781C7.81198 21.125 8.24226 20.6897 8.22639 20.1585C8.21146 19.6457 7.75785 19.2492 7.23797 19.2492H3.77337C3.22269 19.2492 2.73735 18.8988 2.56654 18.3823C2.31361 17.6132 2.12694 16.8156 2.01213 15.9947C2.00467 15.9477 2.00093 15.8997 2 15.8528V15.7854C2.01773 15.1178 2.56374 14.5626 3.26469 14.5626H16.3204C16.7824 14.5626 17.152 14.1697 17.1072 13.704C17.0671 13.2973 16.6984 12.9994 16.2849 12.9994H3.91337C3.23109 12.9994 2.76908 12.3087 3.04069 11.6908C3.24322 11.2307 3.47003 10.7834 3.7211 10.3509C4.00297 9.86303 4.52752 9.5624 5.09593 9.5624H13.3048C13.6753 9.5624 13.9702 9.24792 13.9348 8.87628C13.903 8.55074 13.609 8.31189 13.2777 8.31189H10.6064C9.98202 8.31189 9.47801 7.80375 9.49668 7.18495Z"
    fill="var(--tbl--ui-node-icon--enrichment--ocean)"
  />
</svg>
