<svg width="16" height="16" viewBox="0 0 16 16" fill="none" xmlns="http://www.w3.org/2000/svg">
  <path
    fill-rule="evenodd"
    clip-rule="evenodd"
    d="M6.65564 2.48125C6.65564 2.22167 6.85818 2.01042 7.11065 2H8.88869C9.14209 2.01042 9.34416 2.22167 9.34416 2.48125C9.34416 2.74744 9.13183 2.96296 8.86955 2.96296H7.12979C6.86845 2.96296 6.65564 2.74744 6.65564 2.48125ZM4.74834 4.17617C4.75721 3.86495 5.02228 3.62518 5.32655 3.62518H10.6971C11.0097 3.62518 11.2617 3.88893 11.2524 4.21118C11.2431 4.52241 10.978 4.76218 10.6742 4.76218H9.34743C9.16309 4.76218 9.01469 4.92523 9.03289 5.11896C9.04829 5.28824 9.19623 5.41245 9.36096 5.41245H13.4523C13.7365 5.41245 13.9993 5.56878 14.1397 5.82246C14.2648 6.04738 14.3782 6.27994 14.4799 6.51924C14.6157 6.84053 14.3838 7.19971 14.0431 7.19971H12.1242C11.8927 7.19971 11.7079 7.40401 11.7303 7.64614C11.7503 7.85766 11.9342 8.01255 12.1405 8.01255H14.3679C14.7543 8.01255 15.0469 8.36451 14.9937 8.75726C14.9373 9.18409 14.843 9.59889 14.717 9.99881C14.6316 10.2674 14.3885 10.4496 14.1141 10.4496H8.47428C8.20781 10.4496 7.9922 10.6764 8.00014 10.9526C8.0076 11.2193 8.23488 11.425 8.49481 11.425H13.5102C13.7655 11.425 13.9176 11.7209 13.7706 11.9343C12.4928 13.7886 10.3849 15 8.00014 15C5.61589 15 3.50745 13.7886 2.22969 11.9343C2.08175 11.7209 2.23529 11.425 2.48963 11.425H3.63905C3.90599 11.425 4.12113 11.1987 4.11319 10.9224C4.10573 10.6558 3.87892 10.4496 3.61898 10.4496H1.88668C1.61135 10.4496 1.36867 10.2674 1.28327 9.99881C1.1568 9.59889 1.06347 9.18409 1.00607 8.75726C1.00233 8.7328 1.00047 8.70786 1 8.68345V8.64839C1.00887 8.30125 1.28187 8.01255 1.63235 8.01255H8.16021C8.39121 8.01255 8.57602 7.80826 8.55362 7.56607C8.53355 7.35461 8.34921 7.19971 8.14247 7.19971H1.95669C1.61555 7.19971 1.38454 6.84053 1.52034 6.51924C1.62161 6.27994 1.73501 6.04738 1.86055 5.82246C2.00149 5.56878 2.26376 5.41245 2.54796 5.41245H6.65238C6.83765 5.41245 6.98512 5.24892 6.96738 5.05566C6.95152 4.88638 6.80451 4.76218 6.63884 4.76218H5.30322C4.99101 4.76218 4.73901 4.49795 4.74834 4.17617Z"
    fill="var(--tbl--ui-node-icon--enrichment--ocean)"
  />
</svg>
