<svg xmlns="http://www.w3.org/2000/svg" width="24" height="24" fill="none" viewBox="0 0 24 24">
  <path
    fill-rule="evenodd"
    clip-rule="evenodd"
    d="M10.0795 3.66634C10.0795 3.30693 10.3688 3.01443 10.7295 3H13.2696C13.6316 3.01443 13.9202 3.30693 13.9202 3.66634C13.9202 4.03492 13.6169 4.33333 13.2422 4.33333H10.7568C10.3835 4.33333 10.0795 4.03492 10.0795 3.66634ZM7.35477 6.01317C7.36744 5.58224 7.74611 5.25025 8.18079 5.25025H15.8529C16.2996 5.25025 16.6596 5.61544 16.6463 6.06164C16.633 6.49257 16.2543 6.82456 15.8203 6.82456H13.9249C13.6616 6.82456 13.4496 7.05031 13.4756 7.31857C13.4976 7.55295 13.7089 7.72493 13.9442 7.72493H19.789C20.195 7.72493 20.5704 7.94138 20.771 8.29263C20.9497 8.60407 21.1117 8.92607 21.257 9.2574C21.451 9.70227 21.1197 10.1996 20.633 10.1996H17.8916C17.561 10.1996 17.297 10.4825 17.329 10.8177C17.3576 11.1106 17.6203 11.3251 17.915 11.3251H21.097C21.6491 11.3251 22.0671 11.8124 21.9911 12.3562C21.9104 12.9472 21.7757 13.5215 21.5957 14.0753C21.4737 14.4471 21.1264 14.6994 20.7344 14.6994H12.6775C12.2969 14.6994 11.9889 15.0135 12.0002 15.3959C12.0109 15.7651 12.3355 16.05 12.7069 16.05H19.8717C20.2364 16.05 20.4537 16.4597 20.2437 16.7551C18.4183 19.3227 15.4069 21 12.0002 21C8.59413 21 5.58207 19.3227 3.7567 16.7551C3.54536 16.4597 3.7647 16.05 4.12804 16.05H5.77007C6.15141 16.05 6.45875 15.7366 6.44742 15.3541C6.43675 14.9849 6.11275 14.6994 5.74141 14.6994H3.26669C2.87335 14.6994 2.52668 14.4471 2.40467 14.0753C2.224 13.5215 2.09067 12.9472 2.00867 12.3562C2.00333 12.3223 2.00067 12.2878 2 12.254V12.2055C2.01267 11.7248 2.40267 11.3251 2.90335 11.3251H12.2289C12.5589 11.3251 12.8229 11.0422 12.7909 10.7069C12.7622 10.4141 12.4989 10.1996 12.2035 10.1996H3.36669C2.87935 10.1996 2.54934 9.70227 2.74335 9.2574C2.88802 8.92607 3.05002 8.60407 3.22936 8.29263C3.43069 7.94138 3.80537 7.72493 4.21138 7.72493H10.0748C10.3395 7.72493 10.5502 7.49851 10.5248 7.23092C10.5022 6.99653 10.2922 6.82456 10.0555 6.82456H8.14745C7.70145 6.82456 7.34144 6.4587 7.35477 6.01317Z"
    fill="var(--tbl--ui-node-icon--enrichment--ocean)"
  />
</svg>
