<svg xmlns="http://www.w3.org/2000/svg" width="32" height="32" fill="none" viewBox="0 0 32 32">
  <path fill="var(--tbl--colors--icons--clean--secondary)" fill-rule="evenodd" d="M6 4a3 3 0 0 0-3 3v18a3 3 0 0 0 3 3h13.708A8 8 0 0 1 29 15.07V7a3 3 0 0 0-3-3H6Z" clip-rule="evenodd"/>
  <path fill="var(--tbl--colors--icons--clean--primary)" fill-rule="evenodd" d="M6 4a3 3 0 0 0-3 3v1h26V7a3 3 0 0 0-3-3H6Zm25 18a6 6 0 1 1-1.949-4.426l-4.15 4.93-1.178-1.28a1 1 0 1 0-1.446 1.381l1.947 2.086a1 1 0 0 0 1.488-.047l4.592-5.452c.444.838.696 1.793.696 2.808Z" clip-rule="evenodd"/>
</svg>
