<svg xmlns="http://www.w3.org/2000/svg" width="24" height="24" fill="none" viewBox="0 0 24 24">
  <path
    fill="var(--tbl--colors--icons--clean--secondary)"
    fill-rule="evenodd"
    d="M4 3C2.89543 3 2 3.89543 2 5V17C2 18.1046 2.89543 19 4 19H11.0218C10.375 17.9897 10 16.7886 10 15.5C10 11.9101 12.9101 9 16.5 9C18.2465 9 19.8321 9.6888 21 10.8096V5C21 3.89543 20.1046 3 19 3H4Z"
    clip-rule="evenodd"
  />
  <path
    fill="var(--tbl--colors--icons--clean--primary)"
    fill-rule="evenodd"
    d="M4 3C2.89543 3 2 3.89543 2 5V6H21V5C21 3.89543 20.1046 3 19 3H4ZM23 15.5C23 19.0899 20.0899 22 16.5 22C12.9101 22 10 19.0899 10 15.5C10 11.9101 12.9101 9 16.5 9C18.163 9 19.6802 9.62455 20.8298 10.6519L16.2228 16.1911L14.9146 14.7515C14.4907 14.3022 13.7874 14.2859 13.3437 14.7151C12.8999 15.1442 12.8838 15.8563 13.3076 16.3056L15.4714 18.652C15.6894 18.8831 15.9941 19.0094 16.3096 18.9994C16.6251 18.9895 16.9214 18.8441 17.1247 18.5997L22.2407 12.4485C22.7253 13.3584 23 14.3971 23 15.5Z"
    clip-rule="evenodd"
  />
</svg>
