<svg xmlns="http://www.w3.org/2000/svg" width="24" height="24" fill="none" viewBox="0 0 24 24">
  <path fill="var(--tbl--colors--icons--clean--secondary)" fill-rule="evenodd" d="M3 3a2 2 0 0 0-2 2v14a2 2 0 0 0 2 2h8.255A7 7 0 0 1 21 11.255V5a2 2 0 0 0-2-2H3Z" clip-rule="evenodd"/>
  <path fill="var(--tbl--colors--icons--clean--primary)" fill-rule="evenodd" d="M3 3a2 2 0 0 0-2 2v1h20V5a2 2 0 0 0-2-2H3Zm19 14a5 5 0 1 1-1.594-3.66l-3.505 4.163-1.178-1.28a1 1 0 1 0-1.446 1.382l1.947 2.086a1 1 0 0 0 1.488-.047l3.885-4.613c.26.604.403 1.27.403 1.969Z" clip-rule="evenodd"/>
</svg>
