<svg width="24" height="24" viewBox="0 0 24 24" fill="none" xmlns="http://www.w3.org/2000/svg">
  <path
    fill-rule="evenodd"
    clip-rule="evenodd"
    d="M12.2501 1.56694L12.0001 1.42261L11.7501 1.56695L3.08984 6.56695L2.83984 6.71128V6.99996V17V17.2886L3.08984 17.433L11.7501 22.433L12.0001 22.5773L12.2501 22.433L20.9104 17.433L21.1604 17.2886V17V6.99996V6.71128L20.9104 6.56694L12.2501 1.56694ZM12.5001 2.86598L19.6604 6.99996L17.9996 7.9588C17.9999 7.97249 18 7.98621 18 7.99996V9.11326L20.1604 7.86598V16.1339L18 14.8867V16C18 16.0137 17.9999 16.0274 17.9996 16.0411L19.6604 17L12.5001 21.1339V18H11.5001V21.1339L4.33984 17L6.00042 16.0412C6.00014 16.0275 6 16.0137 6 16V14.8868L3.83984 16.1339V7.86598L7.60392 10.0392C7.73195 10.0135 7.8644 9.99996 8 9.99996H9.536L4.33984 6.99996L11.5001 2.86598V6.06294C11.6599 6.02182 11.8274 5.99996 12 5.99996H12.5001V2.86598ZM12.5001 6.99996H12C11.8179 6.99996 11.6472 7.04863 11.5001 7.13368V11.1339L11 10.8452V11H10H9.26805L11.0001 12L7 14.3094V15.4641L11.5001 12.866V17H12.5001V12.866L17 15.464V14.3093L13.0001 12L17 9.69061V8.53591L12.5001 11.1339V6.99996Z"
    fill="var(--tbl--colors--icons--enrich--tertiary)"
  />
  <path
    fill-rule="evenodd"
    clip-rule="evenodd"
    d="M13 2C13 2.55228 12.5523 3 12 3C11.4477 3 11 2.55228 11 2C11 1.44772 11.4477 1 12 1C12.5523 1 13 1.44772 13 2ZM12 7C11.4477 7 11 7.44772 11 8V11H8C7.44772 11 7 11.4477 7 12V16C7 16.5523 7.44772 17 8 17H11H16C16.5523 17 17 16.5523 17 16V8C17 7.44772 16.5523 7 16 7H12ZM12 23C12.5523 23 13 22.5523 13 22C13 21.4477 12.5523 21 12 21C11.4477 21 11 21.4477 11 22C11 22.5523 11.4477 23 12 23ZM21.5 7C21.5 7.55228 21.0523 8 20.5 8C19.9477 8 19.5 7.55228 19.5 7C19.5 6.44772 19.9477 6 20.5 6C21.0523 6 21.5 6.44772 21.5 7ZM20.5 18C21.0523 18 21.5 17.5523 21.5 17C21.5 16.4477 21.0523 16 20.5 16C19.9477 16 19.5 16.4477 19.5 17C19.5 17.5523 19.9477 18 20.5 18ZM4.5 7C4.5 7.55228 4.05228 8 3.5 8C2.94772 8 2.5 7.55228 2.5 7C2.5 6.44772 2.94772 6 3.5 6C4.05228 6 4.5 6.44772 4.5 7ZM3.5 18C4.05228 18 4.5 17.5523 4.5 17C4.5 16.4477 4.05228 16 3.5 16C2.94772 16 2.5 16.4477 2.5 17C2.5 17.5523 2.94772 18 3.5 18Z"
    fill="var(--tbl--colors--icons--enrich--primary)"
  />
</svg>
