<svg width="32" height="32" viewBox="0 0 32 32" fill="none" xmlns="http://www.w3.org/2000/svg">
  <path
    d="M16.25 1.56714L28.25 8.49487L28.5 8.6394V23.073L28.25 23.2175L16.25 30.1453L16 30.2898L15.75 30.1453L3.75 23.2175L3.5 23.073V8.6394L3.75 8.49487L15.75 1.56714L16 1.42261L16.25 1.56714ZM16.5 8.33374H15.666C15.6101 8.33377 15.5548 8.33702 15.5 8.34155V2.86499L5 8.92749L13.208 13.6667H11.207L4.5 9.7937V21.9177L8.33301 19.7039V20.8591L5 22.7839L15.5 28.8464V23.6667H16.5V28.8464L26.999 22.7839L23.666 20.8591V19.7039L27.5 21.9177V9.7937L23.666 12.0066V10.8513L26.999 8.92749L16.5 2.86499V8.33374ZM16.5 14.99L22.666 11.4294V12.5847L17 15.8562L22.666 19.1267V20.281L16.5 16.7214V22.6667H15.5V16.7214L9.33301 20.282V19.1267L14.999 15.8562L12.9395 14.6667H14.666V14.5076L15.5 14.99V9.34741C15.554 9.33835 15.6094 9.33378 15.666 9.33374H16.5V14.99Z"
    fill="var(--tbl--colors--icons--enrich--tertiary)"
  />
  <path
    fill-rule="evenodd"
    clip-rule="evenodd"
    d="M16.1667 4C16.9951 4 17.6667 3.32843 17.6667 2.5C17.6667 1.67157 16.9951 1 16.1667 1C15.3382 1 14.6667 1.67157 14.6667 2.5C14.6667 3.32843 15.3382 4 16.1667 4ZM16.1667 30.9999C16.9951 30.9999 17.6667 30.3283 17.6667 29.4999C17.6667 28.6715 16.9951 27.9999 16.1667 27.9999C15.3382 27.9999 14.6667 28.6715 14.6667 29.4999C14.6667 30.3283 15.3382 30.9999 16.1667 30.9999ZM29 9.49992C29 10.3283 28.3284 10.9999 27.5 10.9999C26.6716 10.9999 26 10.3283 26 9.49992C26 8.67149 26.6716 7.99992 27.5 7.99992C28.3284 7.99992 29 8.67149 29 9.49992ZM27.5 24.3333C28.3284 24.3333 29 23.6617 29 22.8333C29 22.0048 28.3284 21.3333 27.5 21.3333C26.6716 21.3333 26 22.0048 26 22.8333C26 23.6617 26.6716 24.3333 27.5 24.3333ZM6 9.5C6 10.3284 5.32843 11 4.5 11C3.67157 11 3 10.3284 3 9.5C3 8.67157 3.67157 8 4.5 8C5.32843 8 6 8.67157 6 9.5ZM4.5 24.3333C5.32843 24.3333 6 23.6617 6 22.8333C6 22.0048 5.32843 21.3333 4.5 21.3333C3.67157 21.3333 3 22.0048 3 22.8333C3 23.6617 3.67157 24.3333 4.5 24.3333ZM14.6667 11.3333C14.6667 10.2287 15.5621 9.33325 16.6667 9.33325H20.6667C21.7712 9.33325 22.6667 10.2287 22.6667 11.3333V20.6666C22.6667 21.7712 21.7712 22.6666 20.6667 22.6666H14.6667L14.6667 22.6665H11.3333C10.2288 22.6665 9.33333 21.7711 9.33333 20.6665V16.6665C9.33333 15.5619 10.2288 14.6665 11.3333 14.6665H14.6667L14.6667 11.3333Z"
    fill="var(--tbl--ui-node-icon--enrichment-companies-l)"
  />

  <defs>
    <linearGradient id="tbl--ui-node-icon--enrichment-companies-l" x1="27.5148" y1="30.2468" x2="-5.67729" y2="13.7981" gradientUnits="userSpaceOnUse">
      <stop stop-color="#836EE7"/>
      <stop offset="1" stop-color="#B1A2FB"/>
    </linearGradient>
  </defs>
</svg>
