<svg width="32" height="32" viewBox="0 0 32 32" fill="none" xmlns="http://www.w3.org/2000/svg">
  <path
    fill-rule="evenodd"
    clip-rule="evenodd"
    d="M16.25 1.56694L16 1.42261L15.75 1.56694L3.75 8.49515L3.5 8.63948V8.92816V22.7846V23.0732L3.75 23.2176L15.75 30.1458L16 30.2901L16.25 30.1458L28.25 23.2176L28.5 23.0732V22.7846V8.92816V8.63948L28.25 8.49515L16.25 1.56694ZM16.5 2.86598L27 8.92816L23.6667 10.8527V12.0074L27.5 9.79418V21.9185L23.6667 19.7054V20.8601L27 22.7846L16.5 28.8467V23.6666H15.5V28.8467L5 22.7846L8.33333 20.8601V19.7054L4.5 21.9185V9.79418L11.2072 13.6666H13.2072L5 8.92816L15.5 2.86598V8.3401C15.555 8.33556 15.6105 8.33325 15.6667 8.33325H16.5V2.86598ZM16.5 9.33325H15.6667C15.6099 9.33325 15.5542 9.33799 15.5 9.34708V14.9903L14.6667 14.5092V14.6666H13.6667H12.9392L15 15.8564L9.33333 19.128V20.2827L15.5 16.7224V22.6666H16.5V16.7224L22.6667 20.2827V19.128L17 15.8564L22.6667 12.5847V11.43L16.5 14.9903V9.33325Z"
    fill="var(--tbl--colors--icons--enrich--tertiary)"
  />
  <path
    fill-rule="evenodd"
    clip-rule="evenodd"
    d="M16.1667 4C16.9951 4 17.6667 3.32843 17.6667 2.5C17.6667 1.67157 16.9951 1 16.1667 1C15.3382 1 14.6667 1.67157 14.6667 2.5C14.6667 3.32843 15.3382 4 16.1667 4ZM16.1667 30.9999C16.9951 30.9999 17.6667 30.3283 17.6667 29.4999C17.6667 28.6715 16.9951 27.9999 16.1667 27.9999C15.3382 27.9999 14.6667 28.6715 14.6667 29.4999C14.6667 30.3283 15.3382 30.9999 16.1667 30.9999ZM29 9.49992C29 10.3283 28.3284 10.9999 27.5 10.9999C26.6716 10.9999 26 10.3283 26 9.49992C26 8.67149 26.6716 7.99992 27.5 7.99992C28.3284 7.99992 29 8.67149 29 9.49992ZM27.5 24.3333C28.3284 24.3333 29 23.6617 29 22.8333C29 22.0048 28.3284 21.3333 27.5 21.3333C26.6716 21.3333 26 22.0048 26 22.8333C26 23.6617 26.6716 24.3333 27.5 24.3333ZM6 9.5C6 10.3284 5.32843 11 4.5 11C3.67157 11 3 10.3284 3 9.5C3 8.67157 3.67157 8 4.5 8C5.32843 8 6 8.67157 6 9.5ZM4.5 24.3333C5.32843 24.3333 6 23.6617 6 22.8333C6 22.0048 5.32843 21.3333 4.5 21.3333C3.67157 21.3333 3 22.0048 3 22.8333C3 23.6617 3.67157 24.3333 4.5 24.3333ZM14.6667 10.3333C14.6667 9.78097 15.1144 9.33325 15.6667 9.33325H21.6667C22.2189 9.33325 22.6667 9.78097 22.6667 10.3333V21.6666C22.6667 22.2189 22.2189 22.6666 21.6667 22.6666H14.6667L14.6667 22.6665H10.3333C9.78104 22.6665 9.33333 22.2188 9.33333 21.6665V15.6665C9.33333 15.1142 9.78104 14.6665 10.3333 14.6665H14.6667L14.6667 10.3333Z"
    fill="var(--tbl--colors--icons--enrich--primary)"
  />
</svg>
