<svg width="24" height="24" viewBox="0 0 24 24" fill="none" xmlns="http://www.w3.org/2000/svg">
  <path
    d="M12.25 1.56714L20.9102 6.56714L21.1602 6.71069V17.2888L20.9102 17.4324L12.25 22.4324L12 22.5769L11.75 22.4324L3.08984 17.4324L2.83984 17.2888V6.71069L3.08984 6.56714L11.75 1.56714L12 1.42261L12.25 1.56714ZM12.5 6.04175C12.1406 6.10205 11.804 6.22802 11.5 6.40405V2.86499L4.33887 6.99976L9.53613 9.99976H9C8.61192 9.99976 8.2418 10.0756 7.90137 10.2097L3.83984 7.86499V16.1335L6 14.8855V14.9998L6.00391 15.1541C6.01794 15.431 6.0711 15.6978 6.15527 15.95L4.33887 16.9998L11.5 21.1335V17.9998H12.5V21.1335L19.6602 16.9998L17.8438 15.95C17.9435 15.6512 18 15.3321 18 14.9998V14.8865L20.1602 16.1335V7.86499L18 9.11206V8.99976L17.9961 8.84546C17.982 8.56788 17.9273 8.30123 17.8428 8.04858L19.6602 6.99976L12.5 2.86499V6.04175ZM12.5 11.1335L16.9502 8.56323C16.9816 8.70387 17 8.84967 17 8.99976V9.68921L12.999 11.9998L17 14.3093V14.9998C17 15.1491 16.9812 15.2943 16.9502 15.4343L12.5 12.865V16.9998H11.5V12.865L7.04883 15.4343C7.01781 15.2944 7 15.149 7 14.9998V14.3083L11 11.9998L9.26855 10.9998H11V10.8445L11.5 11.1335V7.67944C11.7606 7.38369 12.1065 7.16658 12.5 7.06519V11.1335Z"
    fill="var(--tbl--colors--icons--enrich--tertiary)"
  />
  <path
    d="M12 21C12.5523 21 13 21.4477 13 22C13 22.5523 12.5523 23 12 23C11.4477 23 11 22.5523 11 22C11 21.4477 11.4477 21 12 21ZM3.5 16C4.05228 16 4.5 16.4477 4.5 17C4.5 17.5523 4.05228 18 3.5 18C2.94772 18 2.5 17.5523 2.5 17C2.5 16.4477 2.94772 16 3.5 16ZM20.5 16C21.0523 16 21.5 16.4477 21.5 17C21.5 17.5523 21.0523 18 20.5 18C19.9477 18 19.5 17.5523 19.5 17C19.5 16.4477 19.9477 16 20.5 16ZM15 7C16.1046 7 17 7.89543 17 9V15C17 16.1046 16.1046 17 15 17H9C7.89543 17 7 16.1046 7 15V13C7 11.8954 7.89543 11 9 11H11V9C11 7.89543 11.8954 7 13 7H15ZM3.5 6C4.05228 6 4.5 6.44772 4.5 7C4.5 7.55228 4.05228 8 3.5 8C2.94772 8 2.5 7.55228 2.5 7C2.5 6.44772 2.94772 6 3.5 6ZM20.5 6C21.0523 6 21.5 6.44772 21.5 7C21.5 7.55228 21.0523 8 20.5 8C19.9477 8 19.5 7.55228 19.5 7C19.5 6.44772 19.9477 6 20.5 6ZM12 1C12.5523 1 13 1.44772 13 2C13 2.55228 12.5523 3 12 3C11.4477 3 11 2.55228 11 2C11 1.44772 11.4477 1 12 1Z"
    fill="var(--tbl--ui-node-icon--enrichment-companies-m)"
  />

  <defs>
    <linearGradient id="tbl--ui-node-icon--enrichment-companies-m" x1="20.4146" y1="22.4477" x2="-3.87455" y2="10.4531" gradientUnits="userSpaceOnUse">
      <stop stop-color="#836EE7"/>
      <stop offset="1" stop-color="#B1A2FB"/>
    </linearGradient>
  </defs>
</svg>
