<svg width="16" height="16" viewBox="0 0 16 16" fill="none" xmlns="http://www.w3.org/2000/svg">
  <path
    d="M14 3.5V8.5C14 11.8137 11 14 8 15C4.5 14 2 11.8137 2 8.5V3.5L8 1L14 3.5Z"
    fill="var(--tbl--ui-node-icon--enrichment--bouncify-secondary)"
  />
  <path
    d="M8.09424 9.76758C7.75944 9.76758 7.45784 9.68734 7.18945 9.52686C6.92383 9.36361 6.71354 9.1464 6.55859 8.87524C6.40365 8.60132 6.32617 8.29696 6.32617 7.96216C6.32617 7.66056 6.40365 7.37834 6.55859 7.11548C6.71631 6.85262 6.92383 6.63957 7.18115 6.47632C7.43848 6.3103 7.71517 6.22729 8.01123 6.22729C8.37923 6.22729 8.70573 6.3186 8.99072 6.50122C9.02116 6.41821 9.07096 6.35042 9.14014 6.29785C9.21208 6.24528 9.29232 6.21899 9.38086 6.21899C9.4943 6.21899 9.59115 6.2605 9.67139 6.34351C9.75439 6.42375 9.7959 6.52059 9.7959 6.63403V8.66772C9.7959 8.73966 9.83464 8.80607 9.91211 8.86694C9.98958 8.92505 10.0795 8.9541 10.1819 8.9541C10.3756 8.9541 10.5181 8.86418 10.6094 8.68433C10.7035 8.50171 10.7505 8.30111 10.7505 8.08252C10.7505 7.72835 10.6799 7.39494 10.5388 7.08228C10.4005 6.76961 10.2123 6.49569 9.97437 6.2605C9.73641 6.02254 9.46663 5.83716 9.16504 5.70435C8.86621 5.56877 8.55632 5.50098 8.23535 5.50098C7.85905 5.50098 7.5118 5.57015 7.1936 5.7085C6.87817 5.84408 6.60286 6.03084 6.36768 6.2688C6.13525 6.50399 5.95402 6.77238 5.82397 7.07397C5.6967 7.3728 5.63306 7.68408 5.63306 8.00781C5.63306 8.35091 5.69255 8.67741 5.81152 8.9873C5.93327 9.29443 6.10343 9.56698 6.32202 9.80493C6.54338 10.0429 6.80485 10.2297 7.10645 10.3652C7.41081 10.5008 7.74422 10.5686 8.10669 10.5686C8.38892 10.5686 8.69189 10.5133 9.01562 10.4026C9.06543 10.386 9.11247 10.3722 9.15674 10.3611C9.20101 10.35 9.2439 10.3445 9.2854 10.3445C9.39608 10.3445 9.47909 10.3805 9.53442 10.4524C9.58976 10.5271 9.61743 10.6198 9.61743 10.7305C9.61743 10.9546 9.51229 11.1068 9.302 11.187C8.90356 11.3392 8.50513 11.4153 8.10669 11.4153C7.62801 11.4153 7.18669 11.324 6.78271 11.1414C6.38151 10.9587 6.03288 10.7083 5.73682 10.3901C5.44076 10.0747 5.2111 9.71362 5.04785 9.30688C4.88737 8.89738 4.80713 8.46851 4.80713 8.02026C4.80713 7.59692 4.89014 7.18465 5.05615 6.78345C5.22493 6.38224 5.46151 6.01978 5.76587 5.69604C6.073 5.37231 6.43547 5.11499 6.85327 4.92407C7.27108 4.73315 7.73177 4.6377 8.23535 4.6377C8.65592 4.6377 9.05575 4.7207 9.43481 4.88672C9.81388 5.05273 10.1556 5.28239 10.46 5.57568C10.7643 5.86621 11.0133 6.19963 11.207 6.57593C11.4035 6.95223 11.5252 7.35067 11.5723 7.77124C11.5778 7.82381 11.5819 7.87638 11.5847 7.92896C11.5875 7.98153 11.5889 8.03133 11.5889 8.07837C11.5889 8.36613 11.5349 8.64144 11.427 8.9043C11.3219 9.16715 11.1641 9.38159 10.9539 9.54761C10.7463 9.71362 10.489 9.79663 10.1819 9.79663C9.9799 9.79663 9.79728 9.75651 9.63403 9.67627C9.47078 9.59326 9.33105 9.47705 9.21484 9.32764C9.07373 9.45215 8.9091 9.55729 8.72095 9.64307C8.5328 9.72607 8.32389 9.76758 8.09424 9.76758ZM8.06104 7.06567C7.89779 7.06567 7.74699 7.10856 7.60864 7.19434C7.4703 7.28011 7.35962 7.39355 7.27661 7.53467C7.19637 7.67301 7.15625 7.82658 7.15625 7.99536C7.15625 8.24438 7.23926 8.46297 7.40527 8.65112C7.57406 8.83927 7.79264 8.93335 8.06104 8.93335C8.32389 8.93335 8.5411 8.84481 8.71265 8.66772C8.88696 8.48787 8.9755 8.2679 8.97827 8.00781C8.9755 7.74495 8.88558 7.52222 8.7085 7.3396C8.53141 7.15698 8.31559 7.06567 8.06104 7.06567Z"
    fill="var(--tbl--ui-node-icon--enrichment--bouncify-primary)"
  />
</svg>
