<svg width="32" height="32" viewBox="0 0 32 32" fill="none" xmlns="http://www.w3.org/2000/svg">
  <path
    d="M28 7V17C28 23.6274 22 28 16 30C9 28 4 23.6274 4 17V7L16 2L28 7Z"
    fill="var(--tbl--ui-node-icon--enrichment--bouncify-secondary)"
  />
  <path
    d="M16.1885 19.5352C15.5189 19.5352 14.9157 19.3747 14.3789 19.0537C13.8477 18.7272 13.4271 18.2928 13.1172 17.7505C12.8073 17.2026 12.6523 16.5939 12.6523 15.9243C12.6523 15.3211 12.8073 14.7567 13.1172 14.231C13.4326 13.7052 13.8477 13.2791 14.3623 12.9526C14.877 12.6206 15.4303 12.4546 16.0225 12.4546C16.7585 12.4546 17.4115 12.6372 17.9814 13.0024C18.0423 12.8364 18.1419 12.7008 18.2803 12.5957C18.4242 12.4906 18.5846 12.438 18.7617 12.438C18.9886 12.438 19.1823 12.521 19.3428 12.687C19.5088 12.8475 19.5918 13.0412 19.5918 13.2681V17.3354C19.5918 17.4793 19.6693 17.6121 19.8242 17.7339C19.9792 17.8501 20.159 17.9082 20.3638 17.9082C20.7511 17.9082 21.0361 17.7284 21.2188 17.3687C21.4069 17.0034 21.501 16.6022 21.501 16.165C21.501 15.4567 21.3599 14.7899 21.0776 14.1646C20.8009 13.5392 20.4246 12.9914 19.9487 12.521C19.4728 12.0451 18.9333 11.6743 18.3301 11.4087C17.7324 11.1375 17.1126 11.002 16.4707 11.002C15.7181 11.002 15.0236 11.1403 14.3872 11.417C13.7563 11.6882 13.2057 12.0617 12.7354 12.5376C12.2705 13.008 11.908 13.5448 11.6479 14.1479C11.3934 14.7456 11.2661 15.3682 11.2661 16.0156C11.2661 16.7018 11.3851 17.3548 11.623 17.9746C11.8665 18.5889 12.2069 19.134 12.644 19.6099C13.0868 20.0858 13.6097 20.4593 14.2129 20.7305C14.8216 21.0016 15.4884 21.1372 16.2134 21.1372C16.7778 21.1372 17.3838 21.0265 18.0312 20.8052C18.1309 20.772 18.2249 20.7443 18.3135 20.7222C18.402 20.7 18.4878 20.689 18.5708 20.689C18.7922 20.689 18.9582 20.7609 19.0688 20.9048C19.1795 21.0542 19.2349 21.2396 19.2349 21.4609C19.2349 21.9092 19.0246 22.2135 18.604 22.374C17.8071 22.6784 17.0103 22.8306 16.2134 22.8306C15.256 22.8306 14.3734 22.6479 13.5654 22.2827C12.763 21.9175 12.0658 21.4167 11.4736 20.7803C10.8815 20.1494 10.4222 19.4272 10.0957 18.6138C9.77474 17.7948 9.61426 16.937 9.61426 16.0405C9.61426 15.1938 9.78027 14.3693 10.1123 13.5669C10.4499 12.7645 10.923 12.0396 11.5317 11.3921C12.146 10.7446 12.8709 10.23 13.7065 9.84814C14.5422 9.46631 15.4635 9.27539 16.4707 9.27539C17.3118 9.27539 18.1115 9.44141 18.8696 9.77344C19.6278 10.1055 20.3112 10.5648 20.9199 11.1514C21.5286 11.7324 22.0267 12.3993 22.4141 13.1519C22.807 13.9045 23.0505 14.7013 23.1445 15.5425C23.1556 15.6476 23.1639 15.7528 23.1694 15.8579C23.175 15.9631 23.1777 16.0627 23.1777 16.1567C23.1777 16.7323 23.0698 17.2829 22.854 17.8086C22.6437 18.3343 22.3283 18.7632 21.9077 19.0952C21.4927 19.4272 20.978 19.5933 20.3638 19.5933C19.9598 19.5933 19.5946 19.513 19.2681 19.3525C18.9416 19.1865 18.6621 18.9541 18.4297 18.6553C18.1475 18.9043 17.8182 19.1146 17.4419 19.2861C17.0656 19.4521 16.6478 19.5352 16.1885 19.5352ZM16.1221 14.1313C15.7956 14.1313 15.494 14.2171 15.2173 14.3887C14.9406 14.5602 14.7192 14.7871 14.5532 15.0693C14.3927 15.346 14.3125 15.6532 14.3125 15.9907C14.3125 16.4888 14.4785 16.9259 14.8105 17.3022C15.1481 17.6785 15.5853 17.8667 16.1221 17.8667C16.6478 17.8667 17.0822 17.6896 17.4253 17.3354C17.7739 16.9757 17.951 16.5358 17.9565 16.0156C17.951 15.4899 17.7712 15.0444 17.417 14.6792C17.0628 14.314 16.6312 14.1313 16.1221 14.1313Z"
    fill="var(--tbl--ui-node-icon--enrichment--bouncify-primary)"
  />
</svg>
