<svg width="24" height="24" viewBox="0 0 24 24" fill="none" xmlns="http://www.w3.org/2000/svg">
  <path
    d="M21 5.25V12.75C21 17.7206 16.5 21 12 22.5C6.75 21 3 17.7206 3 12.75V5.25L12 1.5L21 5.25Z"
    fill="var(--tbl--ui-node-icon--enrichment--bouncify-secondary)"
  />
  <path
    d="M12.1414 14.6514C11.6392 14.6514 11.1868 14.531 10.7842 14.2903C10.3857 14.0454 10.0703 13.7196 9.83789 13.3129C9.60547 12.902 9.48926 12.4454 9.48926 11.9432C9.48926 11.4908 9.60547 11.0675 9.83789 10.6732C10.0745 10.2789 10.3857 9.95935 10.7717 9.71448C11.1577 9.46545 11.5728 9.34094 12.0168 9.34094C12.5688 9.34094 13.0586 9.47791 13.4861 9.75183C13.5317 9.62732 13.6064 9.52563 13.7102 9.44678C13.8181 9.36792 13.9385 9.32849 14.0713 9.32849C14.2415 9.32849 14.3867 9.39075 14.5071 9.51526C14.6316 9.63562 14.6938 9.78088 14.6938 9.95105V13.0016C14.6938 13.1095 14.752 13.2091 14.8682 13.3004C14.9844 13.3876 15.1193 13.4312 15.2728 13.4312C15.5634 13.4312 15.7771 13.2963 15.9141 13.0265C16.0552 12.7526 16.1257 12.4517 16.1257 12.1238C16.1257 11.5925 16.0199 11.0924 15.8082 10.6234C15.6007 10.1544 15.3185 9.74353 14.9615 9.39075C14.6046 9.03381 14.2 8.75574 13.7476 8.55652C13.2993 8.35315 12.8345 8.25146 12.353 8.25146C11.7886 8.25146 11.2677 8.35522 10.7904 8.56274C10.3173 8.76611 9.9043 9.04626 9.55151 9.4032C9.20288 9.75598 8.93103 10.1586 8.73596 10.611C8.54504 11.0592 8.44958 11.5261 8.44958 12.0117C8.44958 12.5264 8.53882 13.0161 8.71729 13.481C8.8999 13.9417 9.15515 14.3505 9.48303 14.7074C9.81506 15.0643 10.2073 15.3445 10.6597 15.5479C11.1162 15.7512 11.6163 15.8529 12.16 15.8529C12.5834 15.8529 13.0378 15.7699 13.5234 15.6039C13.5981 15.579 13.6687 15.5582 13.7351 15.5416C13.8015 15.525 13.8658 15.5167 13.9281 15.5167C14.0941 15.5167 14.2186 15.5707 14.3016 15.6786C14.3846 15.7906 14.4261 15.9297 14.4261 16.0957C14.4261 16.4319 14.2684 16.6602 13.953 16.7805C13.3553 17.0088 12.7577 17.1229 12.16 17.1229C11.442 17.1229 10.78 16.986 10.1741 16.712C9.57227 16.4381 9.04932 16.0625 8.60522 15.5852C8.16113 15.1121 7.81665 14.5704 7.57178 13.9603C7.33105 13.3461 7.21069 12.7028 7.21069 12.0304C7.21069 11.3954 7.33521 10.777 7.58423 10.1752C7.8374 9.57336 8.19226 9.02966 8.6488 8.54407C9.1095 8.05847 9.6532 7.67249 10.2799 7.38611C10.9066 7.09973 11.5977 6.95654 12.353 6.95654C12.9839 6.95654 13.5836 7.08105 14.1522 7.33008C14.7208 7.5791 15.2334 7.92358 15.6899 8.36353C16.1465 8.79932 16.52 9.29944 16.8105 9.86389C17.1052 10.4283 17.2878 11.026 17.3584 11.6569C17.3667 11.7357 17.3729 11.8146 17.3771 11.8934C17.3812 11.9723 17.3833 12.047 17.3833 12.1176C17.3833 12.5492 17.3024 12.9622 17.1405 13.3564C16.9828 13.7507 16.7462 14.0724 16.4308 14.3214C16.1195 14.5704 15.7335 14.6949 15.2728 14.6949C14.9698 14.6949 14.6959 14.6348 14.451 14.5144C14.2062 14.3899 13.9966 14.2156 13.8223 13.9915C13.6106 14.1782 13.3636 14.3359 13.0814 14.4646C12.7992 14.5891 12.4858 14.6514 12.1414 14.6514ZM12.0916 10.5985C11.8467 10.5985 11.6205 10.6628 11.413 10.7915C11.2054 10.9202 11.0394 11.0903 10.9149 11.302C10.7946 11.5095 10.7344 11.7399 10.7344 11.993C10.7344 12.3666 10.8589 12.6945 11.1079 12.9767C11.3611 13.2589 11.689 13.4 12.0916 13.4C12.4858 13.4 12.8116 13.2672 13.069 13.0016C13.3304 12.7318 13.4633 12.4019 13.4674 12.0117C13.4633 11.6174 13.3284 11.2833 13.0627 11.0094C12.7971 10.7355 12.4734 10.5985 12.0916 10.5985Z"
    fill="var(--tbl--ui-node-icon--enrichment--bouncify-primary)"
  />
</svg>
