<svg xmlns="http://www.w3.org/2000/svg" width="16" height="16" fill="none" viewBox="0 0 16 16">
  <path fill="currentColor" fill-rule="evenodd" d="M7.5 2.975a3 3 0 0 0-.182 5.994l.433.026.036.431c.014.167.03.326.047.485l.002.017c.051.496.103.996.044 1.58a5.554 5.554 0 0 1-.154.847A11.71 11.71 0 0 0 9.174 10.3c.77-1.373 1.326-2.947 1.326-4.324a3 3 0 0 0-3-3Zm-4 3a4 4 0 1 1 8 0c0 1.614-.64 3.361-1.454 4.813-.811 1.446-1.847 2.69-2.723 3.262a.649.649 0 0 1-.821-.077.685.685 0 0 1-.137-.76c.335-.775.473-1.334.52-1.805.048-.475.007-.884-.046-1.394v-.002l-.01-.093A4.001 4.001 0 0 1 3.5 5.975Z" clip-rule="evenodd"/>
</svg>
