<svg width="24" height="25" viewBox="0 0 24 25" fill="none" xmlns="http://www.w3.org/2000/svg">
  <path
    d="M11.416 8.36C11.324 8.388 11.236 8.462 11.198 8.548C11.162 8.628 11.16 8.846 11.16 15.582V22.534L11.206 22.622C11.236 22.676 11.282 22.726 11.332 22.754L11.41 22.8H12.846C14.436 22.8 14.346 22.808 14.454 22.668C14.502 22.602 14.51 22.572 14.522 22.392C14.538 22.128 14.566 22.064 14.7 21.982C14.79 21.928 14.946 21.926 15.03 21.978C15.064 21.998 15.174 22.078 15.276 22.154C15.834 22.576 16.528 22.842 17.27 22.922C17.568 22.954 18.19 22.934 18.548 22.88C19.554 22.73 20.38 22.332 21.058 21.672C21.43 21.308 21.688 20.96 21.93 20.494C22.242 19.892 22.44 19.22 22.534 18.44C22.576 18.086 22.582 17.184 22.544 16.85C22.388 15.484 21.922 14.404 21.134 13.586C20.402 12.828 19.464 12.372 18.33 12.228C17.968 12.182 17.26 12.182 16.99 12.228C16.29 12.346 15.708 12.6 15.17 13.02C15.008 13.146 14.97 13.164 14.86 13.164C14.76 13.164 14.698 13.14 14.624 13.072C14.514 12.974 14.52 13.088 14.52 10.806C14.52 9.376 14.512 8.666 14.498 8.614C14.468 8.5 14.358 8.39 14.25 8.362C14.146 8.336 11.502 8.334 11.416 8.36ZM17.31 14.828C18.014 14.98 18.534 15.39 18.868 16.054C19.296 16.906 19.296 18.114 18.868 18.966C18.438 19.824 17.67 20.29 16.75 20.254C16.182 20.232 15.726 20.032 15.328 19.632C14.84 19.142 14.578 18.478 14.546 17.65C14.512 16.74 14.774 15.95 15.288 15.424C15.618 15.084 16.048 14.868 16.524 14.8C16.698 14.776 17.142 14.792 17.31 14.828Z"
    fill="var(--tbl--ui-node-icon--enrichment--zero-bounce-primary)"
  />
  <path
    d="M0.533976 12.43C0.439976 12.462 0.371976 12.522 0.331976 12.61C0.303976 12.668 0.299976 12.812 0.299976 13.676C0.299976 14.336 0.307976 14.696 0.321976 14.734C0.349976 14.81 0.435976 14.9 0.513976 14.932C0.567976 14.956 0.921976 14.96 2.56398 14.96C4.54398 14.96 4.54798 14.96 4.63598 15.002C4.75798 15.062 4.82798 15.174 4.82798 15.308C4.82798 15.364 4.81398 15.434 4.79798 15.464C4.78198 15.494 3.73998 16.708 2.47998 18.16C1.21998 19.614 0.169976 20.84 0.143976 20.884C0.0999756 20.966 0.0999756 20.972 0.0999756 21.808C0.0999756 22.582 0.103976 22.656 0.137976 22.73C0.181976 22.826 0.225976 22.868 0.325976 22.91C0.389976 22.936 0.895976 22.94 4.92398 22.94C9.30198 22.94 9.45197 22.938 9.53197 22.902C9.69197 22.83 9.77798 22.638 9.72198 22.478C9.70998 22.444 9.42397 21.98 9.08797 21.448C8.59597 20.67 8.46198 20.472 8.40398 20.436L8.32998 20.39L6.64998 20.38C5.38598 20.372 4.95998 20.364 4.92798 20.346C4.85398 20.304 4.76198 20.184 4.74798 20.11C4.73198 20.022 4.74998 19.926 4.79798 19.85C4.81798 19.816 5.86598 18.594 7.12797 17.132C8.91597 15.058 9.42397 14.456 9.43997 14.396C9.45397 14.348 9.45998 14.018 9.45597 13.484C9.44998 12.654 9.44998 12.65 9.40397 12.576C9.37797 12.536 9.32397 12.482 9.28397 12.456L9.20998 12.41L4.90998 12.406C1.30398 12.402 0.597976 12.406 0.533976 12.43Z"
    fill="var(--tbl--ui-node-icon--enrichment--zero-bounce-primary)"
  />
  <path
    d="M18.1895 10.6429C14.2452 2.14582 5.17586 1.96747 0.850777 2.98502C0.692321 3.0223 0.536238 2.91863 0.509895 2.75799C0.492882 2.65425 0.535204 2.54946 0.623978 2.49315C2.31767 1.41879 7.61893 0.0987133 11.5 1.5C15.0964 2.7985 17.3824 5.18927 17.8821 7.18742C17.9171 7.32747 18.1236 7.32252 18.1895 7.18742C19.193 5.12966 21.187 4.30065 22.456 4.02515C22.8987 3.92905 23.2182 4.35296 23.0735 4.78217C23.0259 4.92326 22.9327 5.04385 22.8075 5.12457L22.787 5.13782C21.4548 5.99722 19.4738 7.27519 18.1895 10.6429Z"
    fill="var(--tbl--ui-node-icon--enrichment--zero-bounce-secondary)"
  />
</svg>
