<svg width="24" height="24" viewBox="0 0 24 24" fill="none" xmlns="http://www.w3.org/2000/svg">
  <path
    fill-rule="evenodd"
    clip-rule="evenodd"
    d="M5 3C3.89543 3 3 3.89543 3 5V19C3 20.1046 3.89543 21 5 21H11V3H5ZM7 6C7 5.44772 7.44772 5 8 5C8.55228 5 9 5.44772 9 6V7C9 7.55228 8.55228 8 8 8C7.44772 8 7 7.55228 7 7V6ZM8 10C7.44772 10 7 10.4477 7 11V12C7 12.5523 7.44772 13 8 13C8.55228 13 9 12.5523 9 12V11C9 10.4477 8.55228 10 8 10ZM8 15C7.44772 15 7 15.4477 7 16V17C7 17.5523 7.44772 18 8 18C8.55228 18 9 17.5523 9 17V16C9 15.4477 8.55228 15 8 15Z"
    fill="var(--tbl--colors--icons--enrich--tertiary)"
  />
  <path
    fill-rule="evenodd"
    clip-rule="evenodd"
    d="M19 3H13V21H19C20.1046 21 21 20.1046 21 19V5C21 3.89543 20.1046 3 19 3ZM16 5C15.4477 5 15 5.44772 15 6V7C15 7.55228 15.4477 8 16 8C16.5523 8 17 7.55228 17 7V6C17 5.44772 16.5523 5 16 5ZM16 10C15.4477 10 15 10.4477 15 11V12C15 12.5523 15.4477 13 16 13C16.5523 13 17 12.5523 17 12V11C17 10.4477 16.5523 10 16 10ZM15 16C15 15.4477 15.4477 15 16 15C16.5523 15 17 15.4477 17 16V17C17 17.5523 16.5523 18 16 18C15.4477 18 15 17.5523 15 17V16Z"
    fill="var(--tbl--colors--icons--enrich--primary)"
  />
</svg>

