<svg width="32" height="32" viewBox="0 0 32 32" fill="none" xmlns="http://www.w3.org/2000/svg">
  <path
    d="M17 3.71265C17.2352 3.22669 17.8451 2.99046 18.3662 3.2644L25.3965 6.95972C26.3825 7.47828 26.9999 8.50094 27 9.61499V25.0007C26.9996 27.2095 25.2089 29.0007 23 29.0007H15.6445C16.4753 28.2679 16.9998 27.1956 17 26.0007V3.71265ZM21 16.9998C20.4478 16.9998 20.0002 17.4476 20 17.9998V20.9998C20.0001 21.552 20.4477 21.9998 21 21.9998C21.5523 21.9998 21.9999 21.552 22 20.9998V17.9998C21.9998 17.4476 21.5522 16.9998 21 16.9998ZM21 8.99976C20.4478 8.99976 20.0002 9.44765 20 9.99976V12.9998C20.0001 13.552 20.4477 13.9998 21 13.9998C21.5523 13.9998 21.9999 13.552 22 12.9998V9.99976C21.9998 9.44765 21.5522 8.99976 21 8.99976Z"
    fill="var(--tbl--ui-node-icon--search-lookalike-company-l)"
  />
  <path
    d="M13.668 3.2749C14.3344 2.87577 15.1825 3.35648 15.1826 4.1333V25.9995C15.1826 27.6563 13.8393 28.9993 12.1826 28.9995H9C6.79102 28.9993 5 27.2085 5 24.9995V10.1675C5.00007 9.113 5.55438 8.13612 6.45898 7.59424L13.668 3.2749ZM11.001 21.0005C10.4487 21.0005 10 21.4482 10 22.0005V25.0005C10.0003 25.5525 10.4489 26.0005 11.001 26.0005C11.5526 26 12.0006 25.5522 12.001 25.0005V22.0005C12.0009 21.4486 11.5528 21.001 11.001 21.0005ZM11.001 13.0005C10.4487 13.0005 10 13.4482 10 14.0005V17.0005C10.0003 17.5525 10.4489 18.0005 11.001 18.0005C11.5526 18 12.0006 17.5522 12.001 17.0005V14.0005C12.0009 13.4486 11.5528 13.001 11.001 13.0005Z"
    fill="var(--tbl--colors--icons--enrich--secondary)"
  />

  <defs>
    <linearGradient id="tbl--ui-node-icon--search-lookalike-company-l" x1="21.3223" y1="3.14819" x2="21.3223" y2="29.0006" gradientUnits="userSpaceOnUse">
      <stop stop-color="#A190F5"/>
      <stop offset="1" stop-color="#816BE6"/>
    </linearGradient>
  </defs>
</svg>
