<svg width="32" height="32" viewBox="0 0 32 32" fill="none" xmlns="http://www.w3.org/2000/svg">
  <path
    fill-rule="evenodd"
    clip-rule="evenodd"
    d="M6 4C4.34315 4 3 5.34315 3 7V25C3 26.6569 4.34315 28 6 28H15V4H6ZM9 8C9 7.44772 9.44772 7 10 7H11C11.5523 7 12 7.44772 12 8V10C12 10.5523 11.5523 11 11 11H10C9.44772 11 9 10.5523 9 10V8ZM10 14C9.44772 14 9 14.4477 9 15V17C9 17.5523 9.44772 18 10 18H11C11.5523 18 12 17.5523 12 17V15C12 14.4477 11.5523 14 11 14H10ZM10 21C9.44772 21 9 21.4477 9 22V24C9 24.5523 9.44772 25 10 25H11C11.5523 25 12 24.5523 12 24V22C12 21.4477 11.5523 21 11 21H10Z"
    fill="var(--tbl--colors--icons--enrich--tertiary)"
  />
  <path
    fill-rule="evenodd"
    clip-rule="evenodd"
    d="M26 4H17V28H26C27.6569 28 29 26.6569 29 25V7C29 5.34315 27.6569 4 26 4ZM21 7C20.4477 7 20 7.44772 20 8V10C20 10.5523 20.4477 11 21 11H22C22.5523 11 23 10.5523 23 10V8C23 7.44772 22.5523 7 22 7H21ZM21 13.6665C20.4477 13.6665 20 14.1142 20 14.6665V16.6665C20 17.2188 20.4477 17.6665 21 17.6665H22C22.5523 17.6665 23 17.2188 23 16.6665V14.6665C23 14.1142 22.5523 13.6665 22 13.6665H21ZM20 20.3335H23V24.3335H20V20.3335Z"
    fill="var(--tbl--colors--icons--enrich--primary)"
  />
</svg>
