<svg width="24" height="24" viewBox="0 0 24 24" fill="none" xmlns="http://www.w3.org/2000/svg">
  <path
    fill-rule="evenodd"
    clip-rule="evenodd"
    d="M13 3.04119C13.2286 2.55871 13.8259 2.31607 14.3467 2.57244L19.8838 5.30193C20.5666 5.63853 20.9996 6.33468 21 7.09587V19.9992C20.9997 21.1035 20.1044 21.9992 19 21.9992H12.041C12.632 21.3611 12.9999 20.5047 13 19.548V3.04119ZM16 12.0002C15.4478 12.0002 15.0002 12.448 15 13.0002V15.0002C15.0001 15.5523 15.4478 16.0002 16 16.0002C16.5522 16.0002 16.9999 15.5523 17 15.0002V13.0002C16.9998 12.448 16.5522 12.0002 16 12.0002ZM16 6.00017C15.4478 6.00017 15.0001 6.44797 15 7.00017V9.00017C15.0001 9.55234 15.4478 10.0002 16 10.0002C16.5522 10.0002 16.9999 9.55234 17 9.00017V7.00017C16.9999 6.44797 16.5522 6.00017 16 6.00017Z"
    fill="var(--tbl--ui-node-icon--search-lookalike-company-m)"
  />
  <path
    fill-rule="evenodd"
    clip-rule="evenodd"
    d="M10.5039 2.63246C11.1704 2.25157 11.9997 2.73301 12 3.50063V20.0006C11.9995 21.1048 11.1043 22.0006 10 22.0006L6 21.9997C4.89569 21.9995 4.00021 21.1039 4 19.9997V7.51137C4.00015 6.79407 4.38514 6.13115 5.00781 5.77504L10.5039 2.63246ZM9.00098 15.9997C8.44894 15.9997 8.00137 16.4477 8.00098 16.9997V18.9997C8.00117 19.5518 8.44882 19.9996 9.00098 19.9997C9.5527 19.9991 10.0008 19.5514 10.001 18.9997V16.9997C10.0006 16.448 9.55258 16.0002 9.00098 15.9997ZM9.00098 9.99965C8.44894 9.99966 8.00137 10.4477 8.00098 10.9997V12.9997C8.00111 13.5518 8.44878 13.9996 9.00098 13.9997C9.55274 13.9991 10.0008 13.5515 10.001 12.9997V10.9997C10.0006 10.448 9.55258 10.0002 9.00098 9.99965Z"
    fill="var(--tbl--colors--icons--enrich--secondary)"
  />

  <defs>
    <linearGradient id="tbl--ui-node-icon--search-lookalike-company-m" x1="16.5205" y1="2.46924" x2="16.5205" y2="21.9997" gradientUnits="userSpaceOnUse">
      <stop stop-color="#A190F5"/>
      <stop offset="1" stop-color="#816BE6"/>
    </linearGradient>
  </defs>
</svg>
