<svg width="32" height="32" viewBox="0 0 32 32" fill="none" xmlns="http://www.w3.org/2000/svg">
  <path fill-rule="evenodd" clip-rule="evenodd" d="M22 7.71423C22 7.16195 21.5523 6.71423 21 6.71423H16L16 28.9998H22V7.71423ZM10 28.9999L10 19.0952H5C4.44772 19.0952 4 19.5429 4 20.0952V28.9999H10Z" fill="#88BFFC"/>
  <path d="M27 10C27.5523 10 28 10.4477 28 11L28 29L22 29C22 21.58 22 17.42 22 10L27 10Z" fill="#B7D8FD"/>
  <path d="M15 3C15.5523 3 16 3.44772 16 4L16 29L10 29C10 19.1848 10 13.5381 10 4.00074C10 3.44846 10.4477 3 11 3L15 3Z" fill="#127FF9"/>
</svg>
