<svg width="32" height="32" viewBox="0 0 32 32" fill="none" xmlns="http://www.w3.org/2000/svg">
  <path
    fill-rule="evenodd"
    clip-rule="evenodd"
    d="M15.8528 17.4965C15.5216 17.7626 15.5 17.9775 15.5 18C15.5 18.5053 15.6888 18.9854 16.0392 19.3358C16.3708 19.6674 16.9658 20 18 20C19.5064 20 20.6158 19.7464 21.4309 19.3956C21.0827 18.7666 20.6804 18.2634 20.2264 17.8894C19.5854 17.3614 18.7347 17 17.5 17C16.7158 17 16.1677 17.2434 15.8528 17.4965ZM22.6483 23.2182C22.921 24.8303 23 26.5199 23 28H27C27 25.5139 26.8053 21.9478 25.6236 18.9406C25.0246 17.4161 24.1289 15.9218 22.7697 14.8021C21.3764 13.6543 19.6148 13 17.5 13C14.4259 13 11.5 15.0093 11.5 18C11.5 19.4947 12.0612 21.0146 13.2108 22.1642C14.3792 23.3326 16.0342 24 18 24C19.8036 24 21.3465 23.7179 22.6483 23.2182Z"
    fill="var(--tbl--ui-node-icon--enrichment--reverse-contact-l-gradient-one)"
  />
  <path
    fill-rule="evenodd"
    clip-rule="evenodd"
    d="M9.62307 10.9186C8.42044 12.5889 8 14.6534 8 16V28H4V16C4 14.0133 4.57956 11.0777 6.37693 8.58139C8.24773 5.98306 11.3482 4 16 4C20.4913 4 23.7362 5.56688 25.7443 8.057C27.7063 10.4899 28.2842 13.5532 27.9878 16.2209C27.8605 17.3661 27.4294 19.0907 26.1806 20.6472C26.8703 23.2236 27 25.9713 27 28H23C23 26.5159 22.9206 24.8212 22.6461 23.2052C21.3615 23.71 19.823 24 18 24C16.0342 24 14.3792 23.3326 13.2108 22.1642C12.0612 21.0146 11.5 19.4947 11.5 18C11.5 15.0093 14.4259 13 17.5 13C19.6148 13 21.3764 13.6543 22.7697 14.8021C23.2215 15.1742 23.622 15.5878 23.9775 16.03C23.9919 15.9431 24.0033 15.8592 24.0122 15.7791C24.2158 13.9468 23.7937 12.0101 22.6307 10.568C21.5138 9.18312 19.5087 8 16 8C12.6518 8 10.7523 9.35027 9.62307 10.9186ZM21.4229 19.3812C21.0765 18.7589 20.6769 18.2606 20.2264 17.8894C19.5854 17.3614 18.7347 17 17.5 17C16.7158 17 16.1677 17.2434 15.8528 17.4965C15.5216 17.7626 15.5 17.9775 15.5 18C15.5 18.5053 15.6888 18.9854 16.0392 19.3358C16.3708 19.6674 16.9658 20 18 20C19.5183 20 20.6188 19.7429 21.4229 19.3812Z"
    fill="var(--tbl--ui-node-icon--enrichment--reverse-contact-l-gradient-two)"
  />
  <path
    fill-rule="evenodd"
    clip-rule="evenodd"
    d="M15.8528 17.4965C15.5216 17.7626 15.5 17.9775 15.5 18C15.5 18.5053 15.6888 18.9854 16.0392 19.3358C16.3708 19.6674 16.9658 20 18 20V24C16.0342 24 14.3792 23.3326 13.2108 22.1642C12.0612 21.0146 11.5 19.4947 11.5 18C11.5 15.0093 14.4259 13 17.5 13C19.6148 13 21.3764 13.6543 22.7697 14.8021C24.1289 15.9218 25.0246 17.4161 25.6236 18.9406C26.8053 21.9478 27 25.5139 27 28H23C23 25.6114 22.7943 22.6775 21.9007 20.4034C21.4621 19.2872 20.9014 18.4455 20.2264 17.8894C19.5854 17.3614 18.7347 17 17.5 17C16.7158 17 16.1677 17.2434 15.8528 17.4965Z"
    fill="var(--tbl--ui-node-icon--enrichment--reverse-contact-l-gradient-three)"
  />
  <path
    fill-rule="evenodd"
    clip-rule="evenodd"
    d="M22.9572 18.3649C23.7637 17.5249 24 16.5381 24 16H28C28 17.4619 27.4363 19.4751 25.8428 21.1351C24.2006 22.8457 21.6429 24 18 24C16.0342 24 14.3792 23.3326 13.2108 22.1642C12.0612 21.0146 11.5 19.4947 11.5 18H15.5C15.5 18.5053 15.6888 18.9854 16.0392 19.3358C16.3708 19.6674 16.9658 20 18 20C20.7571 20 22.1994 19.1543 22.9572 18.3649Z"
    fill="var(--tbl--ui-node-icon--enrichment--reverse-contact-l-gradient-four)"
  />
  <defs>
    <linearGradient id="tbl--ui-node-icon--enrichment--reverse-contact-l--gradient-1" x1="22.5" y1="18" x2="14" y2="16" gradientUnits="userSpaceOnUse">
      <stop stop-color="#7E0DB0"/>
      <stop offset="1" stop-color="#6334C6" stop-opacity="0"/>
    </linearGradient>
    <linearGradient id="tbl--ui-node-icon--enrichment--reverse-contact-l--gradient-2" x1="29" y1="19.5" x2="-1.66218e-07" y2="21" gradientUnits="userSpaceOnUse">
      <stop stop-color="#4E52D2"/>
      <stop offset="1" stop-color="#0EABFF"/>
    </linearGradient>
    <linearGradient id="tbl--ui-node-icon--enrichment--reverse-contact-l--gradient-3" x1="25" y1="25" x2="12" y2="17" gradientUnits="userSpaceOnUse">
      <stop stop-color="#7E0DB0"/>
      <stop offset="1" stop-color="#5843CB"/>
    </linearGradient>
    <linearGradient id="tbl--ui-node-icon--enrichment--reverse-contact-l--gradient-4" x1="25.5" y1="18" x2="13.5" y2="21" gradientUnits="userSpaceOnUse">
      <stop stop-color="#4A58D5"/>
      <stop offset="1" stop-color="#5842CB"/>
    </linearGradient>

    <linearGradient id="tbl--ui-node-icon--enrichment--reverse-contact-l--gradient-disabled" x1="25.5" y1="18" x2="13.5" y2="21" gradientUnits="userSpaceOnUse">
      <stop stop-color="var(--tbl--ui-node-icon--enrichment--bouncer-primary)"/>
      <stop offset="1" stop-color="var(--tbl--colors--icons--disabled--primary)"/>
    </linearGradient>
  </defs>
</svg>
