<svg xmlns="http://www.w3.org/2000/svg" width="24" height="24" fill="none" viewBox="0 0 24 24">
  <path fill="var(--tbl--colors--icons--clean--secondary)" d="M13 5a2 2 0 0 1 2-2h5a2 2 0 0 1 2 2v4a2 2 0 0 1-2 2h-5a2 2 0 0 1-2-2V5Z"/>
  <path fill="var(--tbl--colors--icons--clean--primary)" fill-rule="evenodd" d="M7 5.5a1 1 0 0 0-1 1V8h1a1 1 0 0 1 .707 1.707l-2 2a1 1 0 0 1-1.414 0l-2-2A1 1 0 0 1 3 8h1V6.5a3 3 0 0 1 3-3h2a1 1 0 0 1 0 2H7ZM2 16a2 2 0 0 1 2-2h5a2 2 0 0 1 2 2v4a2 2 0 0 1-2 2H4a2 2 0 0 1-2-2v-4Zm16 2.5a1 1 0 0 1-1 1h-2a1 1 0 1 0 0 2h2a3 3 0 0 0 3-3V17h1a1 1 0 0 0 .707-1.707l-2-2a1 1 0 0 0-1.414 0l-2 2A1 1 0 0 0 17 17h1v1.5Z" clip-rule="evenodd"/>
</svg>
