<svg xmlns="http://www.w3.org/2000/svg" width="16" height="16" fill="none" viewBox="0 0 16 16">
  <path fill="currentColor" fill-rule="evenodd" d="M10 7.5a.5.5 0 0 0 1 0v-.335h.075c.202.398.889.945 1.826.945C14.187 8.11 15 7.09 15 5.294c0-1.818-.842-2.805-2.102-2.805-.963 0-1.65.617-1.845 1.011H11v-2a.5.5 0 0 0-1 0v6Zm1.26-2.213c0-1.058.455-1.744 1.283-1.744.855 0 1.307.757 1.307 1.457 0 1.043-.459 2.055-1.307 2.055-.82 0-1.282-.71-1.282-1.768ZM5.5 4a4 4 0 1 0 0 8h.293l-1.147 1.146a.5.5 0 0 0 .708.708l2-2a.5.5 0 0 0 0-.708l-2-2a.5.5 0 1 0-.708.708L5.793 11H5.5a3 3 0 0 1 0-6H7a.5.5 0 0 0 0-1H5.5Zm9.306 9.34c-.315.899-1.1 1.66-2.2 1.66C10.977 15 10 13.651 10 12c0-1.665 1.008-2.5 2.607-2.5.998 0 1.795.46 2.168 1.188.21.407-.165.812-.623.812-.378 0-.662-.29-.847-.62-.128-.227-.33-.38-.68-.38-.793 0-1.322.378-1.322 1.479 0 1.115.519 1.857 1.321 1.857.4 0 .727-.294.924-.673.143-.274.397-.502.707-.502.374 0 .675.325.55.679Z" clip-rule="evenodd"/>
</svg>
