<svg xmlns="http://www.w3.org/2000/svg" width="32" height="32" fill="none" viewBox="0 0 32 32">
  <path fill="var(--tbl--colors--icons--clean--secondary)" d="M16 7a2 2 0 0 1 2-2h7a2 2 0 0 1 2 2v6a2 2 0 0 1-2 2h-7a2 2 0 0 1-2-2V7Z"/>
  <path fill="var(--tbl--colors--icons--clean--primary)" fill-rule="evenodd" d="M10 7.5a1 1 0 0 0-1 1V10h1a1 1 0 0 1 .707 1.707l-2 2a1 1 0 0 1-1.414 0l-2-2A1 1 0 0 1 6 10h1V8.5a3 3 0 0 1 3-3h2a1 1 0 1 1 0 2h-2ZM5 19a2 2 0 0 1 2-2h7a2 2 0 0 1 2 2v6a2 2 0 0 1-2 2H7a2 2 0 0 1-2-2v-6Zm19 4.5a1 1 0 0 1-1 1h-2a1 1 0 1 0 0 2h2a3 3 0 0 0 3-3V22h1a1 1 0 0 0 .707-1.707l-2-2a1 1 0 0 0-1.414 0l-2 2A1 1 0 0 0 23 22h1v1.5Z" clip-rule="evenodd"/>
</svg>
