<svg xmlns="http://www.w3.org/2000/svg" width="24" height="24" fill="none" viewBox="0 0 24 24">
  <path
    fill="var(--tbl--colors--icons--clean--secondary)"
    d="M12 5C12 3.89543 12.8954 3 14 3H19C20.1046 3 21 3.89543 21 5V9C21 10.1046 20.1046 11 19 11H14C12.8954 11 12 10.1046 12 9V5Z"
  />
  <path
    fill="var(--tbl--colors--icons--clean--primary)"
    fill-rule="evenodd"
    d="M7 5C6.44772 5 6 5.44772 6 6V6.5H7.00003C7.40449 6.5 7.76913 6.74364 7.92391 7.11732C8.07869 7.49099 7.99313 7.92111 7.70714 8.20711L6 9.91424V10H5.91424L5.70714 10.2071C5.31661 10.5976 4.68345 10.5976 4.29292 10.2071L4.08582 10H4V9.91418L2.29292 8.20711C2.00692 7.92111 1.92137 7.49099 2.07615 7.11732C2.23093 6.74364 2.59557 6.5 3.00003 6.5H4V6C4 4.34315 5.34315 3 7 3H9C9.55228 3 10 3.44771 10 4C10 4.55228 9.55229 5 9 5L7 5ZM2 15C2 13.8954 2.89543 13 4 13H9C10.1046 13 11 13.8954 11 15V19C11 20.1046 10.1046 21 9 21H4C2.89543 21 2 20.1046 2 19V15ZM18 18C18 18.5523 17.5523 19 17 19L15 19C14.4477 19 14 19.4477 14 20C14 20.5523 14.4477 21 15 21H17C18.6569 21 20 19.6569 20 18V17.5H21C21.4044 17.5 21.7691 17.2564 21.9239 16.8827C22.0786 16.509 21.9931 16.0789 21.7071 15.7929L20 14.0858V14H19.9142L19.7071 13.7929C19.3166 13.4024 18.6834 13.4024 18.2929 13.7929L18.0858 14H18V14.0858L16.2929 15.7929C16.0069 16.0789 15.9213 16.509 16.0761 16.8827C16.2309 17.2564 16.5955 17.5 17 17.5H18V18Z"
    clip-rule="evenodd"
  />
</svg>
