<svg width="32" height="32" viewBox="0 0 32 32" fill="none" xmlns="http://www.w3.org/2000/svg">
  <path fill-rule="evenodd" fill-opacity=".4" clip-rule="evenodd" d="M5 7a4 4 0 0 1 4-4h14.008H21l6 6v9.803A6 6 0 1 1 20.682 29H9a4 4 0 0 1-4-4V7Zm19 22a5 5 0 1 0 0-10 5 5 0 0 0 0 10Zm.5-7.5a.5.5 0 0 0-1 0v4.293l-1.146-1.147a.5.5 0 0 0-.708.708l2 2a.5.5 0 0 0 .708 0l2-2a.5.5 0 0 0-.708-.708L24.5 25.793V21.5Z" fill="var(--tbl--colors--icons--transformation--primary)"/>
  <path d="M21 7V3l6 6h-4a2 2 0 0 1-2-2Z" fill="#fff" fill-opacity=".5"/>
</svg>
