<svg width="24" height="24" viewBox="0 0 24 24" fill="none" xmlns="http://www.w3.org/2000/svg">
  <path fill-rule="evenodd" fill-opacity=".4" clip-rule="evenodd" d="M6 2a3 3 0 0 0-3 3v14a3 3 0 0 0 3 3h10c.148 0 .294-.01.436-.032A5 5 0 0 0 19 12.416V7l-5-5H6Zm11 19a4 4 0 1 0 0-8 4 4 0 0 0 0 8Zm0-6.5a.5.5 0 0 1 .5.5v2.793l1.146-1.147a.5.5 0 0 1 .708.708l-2 2a.5.5 0 0 1-.708 0l-2-2a.5.5 0 0 1 .708-.708l1.146 1.147V15a.5.5 0 0 1 .5-.5Z" fill="var(--tbl--colors--icons--transformation--primary)"/>
  <path d="m19 7-5-5v3a2 2 0 0 0 2 2h3Z" fill="#fff" fill-opacity=".5"/>
</svg>
