<svg xmlns="http://www.w3.org/2000/svg" width="16" height="16" fill="none" viewBox="0 0 16 16">
  <g clip-path="url(#a)">
    <path fill="var(--tbl--colors--brand--postgres)" d="M11.419 0a6.756 6.756 0 0 0-1.837.269L9.54.282A7.281 7.281 0 0 0 8.4.172C7.615.159 6.94.349 6.396.667 5.86.48 4.748.16 3.576.224c-.816.045-1.707.293-2.367.99C.551 1.91.203 2.987.277 4.453c.02.405.135 1.065.326 1.92A22.6 22.6 0 0 0 1.4 9.142c.335.913.702 1.733 1.276 2.29.287.28.682.515 1.147.495.327-.013.622-.156.877-.368.124.164.256.235.377.301.152.083.3.14.453.177.276.069.747.161 1.299.067.188-.031.386-.093.583-.18l.025.653c.027.691.045 1.329.252 1.888.033.092.125.562.485.978.36.416 1.065.675 1.868.503.567-.121 1.288-.34 1.766-1.021.474-.674.687-1.64.729-3.206.01-.085.023-.157.037-.224l.112.01h.014c.604.027 1.26-.059 1.808-.314.486-.224.853-.452 1.12-.855.067-.1.14-.22.16-.429.02-.208-.099-.533-.297-.683-.397-.301-.646-.187-.913-.131a4.18 4.18 0 0 1-.802.097 15.334 15.334 0 0 0 1.639-3.897c.187-.72.291-1.384.3-1.964.009-.581-.039-1.095-.387-1.54C14.24.4 12.711.016 11.53.003c-.037-.001-.074-.002-.11-.001V0Zm-.032.427c1.119-.011 2.548.303 3.574 1.614.231.295.3.726.292 1.256-.009.53-.107 1.165-.286 1.86a14.948 14.948 0 0 1-1.932 4.326.504.504 0 0 0 .106.057c.193.08.634.149 1.513-.032.221-.047.383-.078.551.05a.346.346 0 0 1 .122.283.469.469 0 0 1-.086.224c-.17.256-.506.498-.936.697-.38.177-.926.27-1.41.275a2.162 2.162 0 0 1-.657-.075l-.012-.005c-.073.707-.242 2.102-.352 2.739-.088.513-.242.921-.536 1.227-.293.305-.709.489-1.267.609-.692.149-1.197-.011-1.522-.285-.325-.274-.474-.636-.563-.858-.061-.154-.093-.352-.124-.618-.03-.265-.053-.59-.069-.956-.02-.56-.027-1.12-.02-1.682a2.04 2.04 0 0 1-1.034.507 2.73 2.73 0 0 1-1.114-.06 1.518 1.518 0 0 1-.347-.134.64.64 0 0 1-.293-.265.373.373 0 0 1-.038-.254.407.407 0 0 1 .145-.22c.132-.108.307-.168.57-.222.48-.099.647-.166.749-.247.086-.07.184-.21.358-.415a.757.757 0 0 1-.002-.027 1.973 1.973 0 0 1-.887-.239c-.1.106-.61.646-1.233 1.395-.262.313-.552.493-.857.506-.305.013-.581-.14-.816-.368-.469-.455-.843-1.239-1.169-2.124a22.206 22.206 0 0 1-.778-2.711C.84 5.415.727 4.737.711 4.41c-.07-1.388.255-2.324.812-2.914C2.08.907 2.844.684 3.589.641c1.336-.076 2.606.39 2.862.49C6.946.795 7.583.585 8.38.599c.378.005.754.054 1.121.145l.013-.006a4.57 4.57 0 0 1 .493-.143 6.418 6.418 0 0 1 1.38-.167l.001-.001Zm.102.446h-.098a5.828 5.828 0 0 0-1.136.128c.831.368 1.458.935 1.9 1.5.307.392.561.822.755 1.28.073.176.123.325.15.44a.91.91 0 0 1 .027.158.29.29 0 0 1-.008.096l-.004.008c.02.584-.124.98-.142 1.538-.013.404.09.878.116 1.396.024.487-.035 1.022-.351 1.546.027.032.05.064.076.096a14.565 14.565 0 0 0 1.76-4.015c.172-.669.263-1.275.271-1.755.007-.48-.082-.828-.196-.973-.895-1.144-2.106-1.435-3.12-1.443Zm-3.194.171c-.788.002-1.353.24-1.782.597-.442.368-.738.873-.933 1.39a5.896 5.896 0 0 0-.342 1.609l.009-.005c.238-.134.55-.267.885-.344.335-.077.695-.101 1.022.026.327.126.597.424.695.876.469 2.172-.146 2.979-.373 3.588-.086.221-.16.447-.22.676.028-.007.057-.015.085-.018a.73.73 0 0 1 .36.072.876.876 0 0 1 .47.52c.022.06.038.124.047.19.01.027.014.056.013.084-.025.83-.022 1.662.009 2.492.015.359.038.675.067.924.028.249.069.438.095.502.085.214.21.493.435.683.226.19.549.316 1.14.19.512-.11.828-.263 1.039-.483.21-.219.337-.524.417-.992.121-.7.364-2.73.393-3.112-.013-.288.03-.509.121-.678a.79.79 0 0 1 .368-.336c.064-.029.123-.048.172-.062a3.978 3.978 0 0 0-.162-.217 2.97 2.97 0 0 1-.444-.733 5.522 5.522 0 0 0-.172-.322c-.088-.16-.2-.36-.318-.584-.234-.45-.49-.996-.622-1.527-.132-.53-.152-1.08.187-1.467.3-.344.827-.487 1.617-.407-.023-.07-.037-.128-.076-.221a5.213 5.213 0 0 0-.694-1.176c-.67-.857-1.755-1.706-3.431-1.734h-.077v-.001Zm-4.428.035c-.084 0-.169.002-.253.007-.673.039-1.31.234-1.765.717-.456.482-.756 1.274-.691 2.584.013.248.12.942.306 1.768.185.825.447 1.796.761 2.654.316.858.698 1.605 1.06 1.958.183.177.342.248.486.242.144-.006.318-.09.531-.345.388-.468.79-.923 1.207-1.365a2.331 2.331 0 0 1-.778-2.1c.068-.493.078-.954.07-1.318-.008-.354-.034-.59-.034-.738v-.02c0-.768.133-1.53.394-2.251.187-.496.465-1 .882-1.408-.41-.135-1.136-.34-1.923-.379a5.072 5.072 0 0 0-.253-.006ZM12.133 4.6c-.453.006-.707.123-.84.275-.189.217-.207.597-.09 1.065.117.469.358.993.585 1.428.113.218.223.414.312.573.09.16.155.274.195.37.036.09.077.168.118.242.176-.37.207-.734.189-1.112-.023-.469-.132-.948-.116-1.434.018-.567.13-.936.14-1.375a3.863 3.863 0 0 0-.493-.032Zm-5.49.077a1.88 1.88 0 0 0-.41.049 3.11 3.11 0 0 0-.769.3c-.082.043-.16.094-.233.151l-.014.014c.004.097.023.333.031.68.008.38-.001.865-.075 1.39-.159 1.14.668 2.084 1.64 2.085.057-.234.15-.471.244-.721.27-.73.803-1.262.354-3.338-.073-.34-.218-.477-.418-.554a.982.982 0 0 0-.35-.056Zm5.278.136h.034a.586.586 0 0 1 .12.014c.036.008.066.02.092.037a.11.11 0 0 1 .05.073l-.001.006a.16.16 0 0 1-.023.09.446.446 0 0 1-.074.1.451.451 0 0 1-.257.141.393.393 0 0 1-.273-.069.404.404 0 0 1-.087-.078.173.173 0 0 1-.042-.085.114.114 0 0 1 .028-.085.257.257 0 0 1 .078-.06.858.858 0 0 1 .355-.086v.002Zm-5.213.112c.035 0 .073.003.11.008a.73.73 0 0 1 .263.082.297.297 0 0 1 .088.07.149.149 0 0 1 .036.114.201.201 0 0 1-.05.102.433.433 0 0 1-.095.087.427.427 0 0 1-.299.075.485.485 0 0 1-.28-.152.473.473 0 0 1-.078-.109.187.187 0 0 1-.028-.118c.01-.072.07-.11.128-.13a.577.577 0 0 1 .204-.027l.001-.002Zm6.04 4.895h-.002c-.098.036-.179.05-.247.08a.302.302 0 0 0-.159.143c-.042.077-.078.213-.067.444.03.021.063.037.098.047.114.035.306.057.519.054.425-.005.949-.104 1.227-.233.228-.106.44-.244.628-.41-.929.192-1.454.14-1.776.008a.878.878 0 0 1-.221-.134v.001Zm-5.354.063H7.38c-.035.003-.087.015-.186.125-.232.26-.313.423-.505.576-.191.152-.44.233-.936.335a1.282 1.282 0 0 0-.308.096c.02.016.018.02.047.036.073.04.166.075.241.094.214.054.564.116.93.054.366-.063.747-.238 1.072-.694.056-.078.062-.194.016-.319a.495.495 0 0 0-.221-.262.435.435 0 0 0-.136-.04v-.001Z"/>
  </g>
  <defs>
    <clipPath id="a">
      <path fill="#fff" d="M0 0h16v16H0z"/>
    </clipPath>
  </defs>
</svg>
