<svg xmlns="http://www.w3.org/2000/svg" width="32" height="32" fill="none" viewBox="0 0 32 32">
  <path fill="var(--tbl--colors--brand--postgres)" d="M22.116 2a12.535 12.535 0 0 0-3.313.47l-.076.023c-.68-.116-1.367-.18-2.056-.192-1.417-.023-2.634.31-3.615.866-.967-.326-2.973-.887-5.087-.775-1.472.078-3.079.512-4.27 1.731-1.186 1.22-1.814 3.106-1.682 5.673.036.708.245 1.863.59 3.359.345 1.495.83 3.246 1.434 4.844.605 1.598 1.268 3.033 2.303 4.008.517.49 1.23.9 2.069.866.589-.023 1.122-.274 1.581-.644.224.286.463.41.68.526.275.146.542.245.818.31.497.12 1.347.282 2.343.117a4.53 4.53 0 0 0 1.052-.315c.013.385.029.762.045 1.143.049 1.21.08 2.326.454 3.305.06.16.225.983.875 1.71.649.728 1.921 1.182 3.37.88 1.022-.212 2.322-.594 3.186-1.787.854-1.178 1.238-2.868 1.314-5.61.02-.148.042-.274.066-.392l.204.017h.024c1.09.048 2.274-.102 3.262-.548.876-.393 1.538-.791 2.02-1.497.12-.175.253-.386.29-.75.035-.364-.18-.933-.537-1.196-.716-.527-1.166-.326-1.648-.23-.475.102-.959.16-1.445.17 1.39-2.27 2.387-4.684 2.956-6.819.336-1.26.525-2.422.54-3.438.016-1.016-.069-1.915-.697-2.694-1.961-2.431-4.718-3.103-6.852-3.126a5.607 5.607 0 0 0-.198-.002V2Zm-.057.747c2.018-.019 4.596.53 6.447 2.825.416.516.54 1.27.526 2.198-.016.928-.193 2.039-.516 3.255-.628 2.357-1.814 5.105-3.484 7.57.059.04.123.074.19.1.349.14 1.144.26 2.73-.056.399-.081.691-.136.994.088a.608.608 0 0 1 .22.495.807.807 0 0 1-.156.392c-.307.447-.912.87-1.687 1.22-.687.31-1.672.472-2.545.482-.438.004-.842-.028-1.184-.132l-.022-.009c-.132 1.237-.436 3.679-.635 4.793-.159.899-.437 1.613-.967 2.147-.529.534-1.278.856-2.286 1.066-1.248.26-2.158-.02-2.745-.5-.586-.477-.854-1.112-1.015-1.5-.11-.269-.169-.617-.224-1.081a23.01 23.01 0 0 1-.124-1.673 58.359 58.359 0 0 1-.036-2.944 3.727 3.727 0 0 1-1.866.887c-.829.137-1.568.002-2.01-.105a2.788 2.788 0 0 1-.625-.234c-.204-.107-.4-.227-.53-.463a.636.636 0 0 1-.068-.445.711.711 0 0 1 .262-.386c.239-.188.554-.293 1.029-.389.864-.172 1.166-.29 1.35-.431.156-.122.333-.367.646-.726a1.28 1.28 0 0 1-.004-.048 3.645 3.645 0 0 1-1.6-.418c-.18.185-1.1 1.13-2.224 2.441-.472.549-.994.863-1.545.886-.55.023-1.049-.247-1.472-.644-.845-.797-1.52-2.168-2.108-3.717-.587-1.55-1.064-3.275-1.404-4.745-.34-1.47-.54-2.656-.57-3.227-.126-2.43.46-4.066 1.464-5.099C5.27 3.588 6.648 3.197 7.992 3.122c2.41-.134 4.7.682 5.163.857.893-.588 2.042-.955 3.478-.931.682.009 1.36.094 2.022.254l.024-.01c.291-.1.588-.183.889-.25a11.915 11.915 0 0 1 2.49-.293l.001-.002Zm.183.781h-.176a10.82 10.82 0 0 0-2.049.224 8.969 8.969 0 0 1 3.428 2.625 9.784 9.784 0 0 1 1.36 2.24c.133.308.222.569.273.77.025.102.042.187.048.276a.5.5 0 0 1-.015.168c0 .003-.006.011-.007.015.036 1.022-.225 1.715-.256 2.69-.024.707.162 1.538.208 2.444.043.852-.063 1.788-.633 2.706.049.056.092.112.138.168 1.508-2.304 2.595-4.853 3.174-7.027.31-1.17.475-2.23.49-3.07.012-.84-.15-1.45-.355-1.704-1.614-2.002-3.798-2.512-5.628-2.526v.001Zm-5.76.299c-1.422.004-2.441.42-3.215 1.044-.797.645-1.332 1.529-1.683 2.433-.418 1.073-.56 2.111-.617 2.816l.015-.01c.43-.233.994-.466 1.598-.601.603-.134 1.254-.176 1.843.045.59.222 1.076.743 1.253 1.534.847 3.8-.263 5.213-.672 6.28-.155.386-.288.78-.398 1.181.052-.011.103-.025.155-.03.289-.023.515.07.65.126.41.166.693.513.846.91.04.104.068.216.085.331a.383.383 0 0 1 .024.149 62.416 62.416 0 0 0 .016 4.36c.028.628.069 1.181.12 1.617.052.436.125.767.172.88.154.372.379.861.785 1.194.407.331.99.553 2.056.331.923-.192 1.493-.46 1.874-.843.38-.384.608-.919.753-1.737.218-1.224.656-4.777.709-5.445-.025-.505.052-.892.218-1.187.171-.303.436-.489.664-.59.114-.05.221-.083.31-.108a6.974 6.974 0 0 0-.293-.379c-.33-.387-.6-.82-.8-1.282-.098-.191-.2-.38-.31-.564-.16-.28-.362-.63-.574-1.023-.423-.787-.883-1.742-1.123-2.671-.238-.93-.273-1.89.338-2.568.541-.602 1.491-.852 2.918-.712-.043-.122-.068-.224-.139-.387a9.067 9.067 0 0 0-1.252-2.058c-1.208-1.5-3.165-2.986-6.188-3.034h-.138v-.002Zm-7.988.06c-.152 0-.305.005-.457.014-1.214.067-2.363.409-3.184 1.254-.823.844-1.364 2.23-1.246 4.522.023.434.218 1.65.552 3.094.333 1.444.806 3.144 1.373 4.645.57 1.502 1.258 2.809 1.913 3.427.329.31.615.434.875.424.26-.012.575-.158.958-.605.7-.818 1.426-1.615 2.177-2.39a4.08 4.08 0 0 1-1.186-1.662 3.966 3.966 0 0 1-.217-2.012c.123-.862.14-1.669.126-2.306-.014-.62-.06-1.033-.06-1.291a.41.41 0 0 1 0-.022v-.006l-.001-.007v-.001c-.001-1.343.24-2.676.711-3.939.337-.868.839-1.75 1.59-2.464-.738-.236-2.049-.595-3.468-.663a9.436 9.436 0 0 0-.457-.011h.001Zm14.91 6.163c-.817.01-1.275.215-1.516.482-.34.38-.372 1.044-.16 1.863.21.82.645 1.737 1.054 2.5.204.38.403.724.563 1.003.16.28.279.478.35.647.067.156.14.294.215.422.316-.647.373-1.283.34-1.946-.042-.82-.238-1.659-.209-2.508.032-.993.235-1.64.253-2.407a7.174 7.174 0 0 0-.89-.056Zm-9.902.134c-.25.003-.498.032-.741.087-.484.114-.95.29-1.386.523a2.921 2.921 0 0 0-.42.266l-.027.024c.008.17.042.583.057 1.19a14.85 14.85 0 0 1-.135 2.432c-.287 1.995 1.205 3.647 2.959 3.65.102-.41.27-.825.438-1.263.489-1.276 1.45-2.207.64-5.84-.132-.595-.394-.835-.755-.97a1.827 1.827 0 0 0-.63-.099Zm9.52.238h.06c.08.003.153.01.217.026.065.014.12.035.166.064a.195.195 0 0 1 .09.128l-.001.01h.001-.001a.274.274 0 0 1-.042.157.779.779 0 0 1-.132.175.821.821 0 0 1-.465.248.726.726 0 0 1-.493-.12.724.724 0 0 1-.156-.138.3.3 0 0 1-.076-.148.194.194 0 0 1 .05-.15.46.46 0 0 1 .142-.105c.115-.063.271-.11.448-.135.066-.01.131-.014.193-.015v.003Zm-9.403.196c.063 0 .13.006.2.015.183.025.347.073.472.143.06.03.115.073.16.123a.258.258 0 0 1 .065.199.349.349 0 0 1-.09.18.774.774 0 0 1-.173.151.787.787 0 0 1-.538.132.883.883 0 0 1-.505-.266.827.827 0 0 1-.142-.191.32.32 0 0 1-.05-.207c.018-.126.125-.191.23-.227a1.07 1.07 0 0 1 .37-.047v-.005Zm10.895 8.567-.004.001c-.177.062-.322.088-.445.14a.538.538 0 0 0-.287.25c-.076.134-.141.372-.122.777a.624.624 0 0 0 .178.082c.206.06.55.1.936.094.767-.008 1.711-.182 2.213-.408a4.768 4.768 0 0 0 1.133-.718c-1.676.336-2.622.247-3.203.014a1.59 1.59 0 0 1-.4-.233v.001Zm-9.658.11h-.025c-.064.006-.157.027-.336.22-.418.454-.565.74-.91 1.007-.345.266-.794.409-1.69.587a2.356 2.356 0 0 0-.554.168c.035.028.031.035.084.062.131.07.3.132.435.166.385.093 1.018.201 1.678.093.66-.11 1.347-.417 1.932-1.213.101-.138.112-.341.03-.56-.085-.217-.269-.405-.399-.458a.8.8 0 0 0-.245-.07v-.002Z"/>
</svg>
