<svg xmlns="http://www.w3.org/2000/svg" width="24" height="24" fill="none" viewBox="0 0 24 24">
  <path fill="var(--tbl--colors--brand--postgres)" d="M16.334 1a9.29 9.29 0 0 0-2.526.37l-.057.018a10.014 10.014 0 0 0-1.568-.151c-1.08-.019-2.008.243-2.756.68-.737-.256-2.266-.697-3.877-.609-1.122.061-2.347.402-3.254 1.36-.905.958-1.384 2.44-1.283 4.457.028.557.186 1.464.45 2.64.263 1.175.632 2.55 1.093 3.805.461 1.256.966 2.384 1.755 3.15.395.384.937.707 1.577.68.45-.018.855-.215 1.206-.506.17.225.352.323.518.414.21.114.413.192.624.244.378.094 1.026.22 1.785.091.259-.043.531-.127.802-.247.01.302.022.598.034.898.038.95.062 1.827.347 2.596.046.126.171.773.666 1.344.495.572 1.465.928 2.57.692.779-.167 1.77-.468 2.428-1.404.65-.926.944-2.255 1.002-4.409.015-.116.032-.215.05-.308l.155.014h.019c.831.038 1.733-.08 2.487-.43.667-.31 1.172-.622 1.54-1.177.091-.137.192-.303.22-.59.027-.285-.137-.733-.41-.939-.545-.414-.887-.257-1.255-.18-.362.08-.731.124-1.102.133 1.06-1.784 1.82-3.68 2.253-5.358.257-.99.4-1.903.413-2.701.012-.798-.053-1.505-.532-2.117-1.495-1.91-3.597-2.438-5.223-2.456-.05-.001-.1-.002-.151-.001V1Zm-.043.587c1.538-.015 3.503.417 4.914 2.22.317.405.412.997.4 1.727-.012.729-.146 1.601-.393 2.557-.478 1.852-1.382 4.01-2.655 5.948a.696.696 0 0 0 .144.079c.266.11.872.204 2.081-.044.305-.065.527-.108.758.068a.477.477 0 0 1 .168.39.646.646 0 0 1-.119.308c-.234.351-.695.684-1.286.958-.524.244-1.274.371-1.94.379-.334.003-.642-.023-.903-.104l-.016-.006c-.101.971-.333 2.89-.484 3.765-.121.706-.333 1.267-.737 1.687-.404.42-.975.673-1.743.838-.951.204-1.645-.016-2.093-.393-.446-.375-.65-.874-.773-1.18-.085-.21-.129-.483-.17-.848a18.596 18.596 0 0 1-.095-1.315 47.05 47.05 0 0 1-.028-2.313 2.806 2.806 0 0 1-1.422.697c-.632.107-1.196.002-1.532-.082a2.085 2.085 0 0 1-.477-.185c-.156-.083-.304-.177-.403-.363a.513.513 0 0 1-.052-.35.56.56 0 0 1 .2-.303c.18-.148.421-.23.783-.306.66-.135.89-.228 1.03-.339.119-.095.254-.287.492-.57a1.039 1.039 0 0 1-.003-.037 2.714 2.714 0 0 1-1.22-.329c-.137.145-.839.888-1.695 1.918-.36.431-.758.678-1.178.696-.42.018-.8-.194-1.122-.506-.644-.626-1.159-1.703-1.607-2.92-.447-1.218-.811-2.574-1.07-3.729-.259-1.155-.412-2.086-.434-2.535-.096-1.909.35-3.195 1.116-4.006.766-.811 1.816-1.118 2.84-1.177 1.838-.106 3.584.535 3.937.673.68-.462 1.556-.75 2.65-.732.52.007 1.037.075 1.541.2l.019-.008c.222-.078.448-.144.677-.196a8.824 8.824 0 0 1 1.899-.23v-.002Zm.139.614h-.134a8.011 8.011 0 0 0-1.562.176 6.869 6.869 0 0 1 2.613 2.062c.422.539.77 1.13 1.037 1.76.101.242.169.447.207.605.02.08.032.147.037.217.002.035.004.07-.01.132l-.006.012c.027.803-.172 1.347-.196 2.113-.018.556.124 1.209.159 1.92.033.67-.048 1.405-.482 2.127.036.044.07.088.104.132 1.15-1.81 1.978-3.814 2.42-5.521.237-.92.362-1.753.373-2.413.01-.66-.113-1.139-.27-1.338-1.23-1.573-2.895-1.974-4.29-1.985Zm-4.391.235c-1.083.002-1.86.33-2.45.82-.608.507-1.016 1.2-1.284 1.911a8.107 8.107 0 0 0-.47 2.213l.012-.007A4.75 4.75 0 0 1 9.064 6.9c.46-.106.957-.139 1.406.035.449.175.82.584.955 1.206.645 2.986-.2 4.096-.513 4.933-.118.304-.22.614-.303.929.04-.01.079-.02.118-.024.22-.018.393.055.495.1.314.13.53.402.646.714.03.082.052.17.065.26.013.038.02.077.018.117a50.579 50.579 0 0 0 .012 3.426c.021.494.052.928.092 1.271.039.342.095.602.13.69.118.294.29.678.6.939.31.26.754.434 1.566.26.704-.151 1.138-.36 1.429-.663.29-.301.463-.72.574-1.363.166-.963.5-3.754.54-4.28-.019-.395.04-.7.167-.932.13-.238.331-.384.506-.463.087-.04.168-.066.235-.085a5.52 5.52 0 0 0-.223-.298 4.086 4.086 0 0 1-.61-1.007 7.593 7.593 0 0 0-.236-.443c-.122-.22-.276-.495-.437-.804-.323-.619-.674-1.369-.856-2.1-.182-.729-.208-1.484.258-2.017.412-.473 1.136-.669 2.223-.559-.032-.096-.051-.176-.105-.304a7.167 7.167 0 0 0-.954-1.617c-.922-1.178-2.413-2.346-4.718-2.384h-.105v-.001Zm-6.089.047c-.116 0-.232.004-.348.01-.926.053-1.801.322-2.427.986-.627.663-1.04 1.751-.95 3.553.018.34.166 1.296.42 2.43.255 1.136.615 2.471 1.048 3.65.433 1.18.959 2.207 1.457 2.693.251.243.47.341.668.333.198-.01.438-.124.73-.475a39.623 39.623 0 0 1 1.66-1.877 3.206 3.206 0 0 1-1.07-2.888c.094-.677.107-1.31.096-1.811-.011-.488-.046-.812-.046-1.015V8.044c-.001-1.056.182-2.103.542-3.095.256-.682.639-1.375 1.212-1.936-.563-.185-1.562-.467-2.644-.52a6.965 6.965 0 0 0-.348-.01Zm11.365 4.842c-.622.008-.971.169-1.155.379-.259.298-.284.82-.122 1.464.16.644.492 1.365.803 1.963.156.3.308.57.43.788.122.22.212.376.267.51.05.122.107.23.163.331.241-.509.284-1.008.26-1.529-.032-.644-.182-1.303-.16-1.97.025-.78.179-1.289.193-1.892a5.311 5.311 0 0 0-.679-.044Zm-7.547.105c-.19.002-.38.025-.565.068-.37.09-.725.228-1.057.412-.113.06-.22.13-.32.209l-.02.018c.005.134.032.459.043.936a12.02 12.02 0 0 1-.103 1.91c-.219 1.568.919 2.866 2.255 2.868.078-.322.207-.648.335-.992.372-1.003 1.104-1.734.487-4.589-.1-.467-.3-.656-.575-.763a1.35 1.35 0 0 0-.48-.077Zm7.257.187h.046c.06.002.116.009.165.02.05.012.091.028.126.051a.15.15 0 0 1 .069.1l-.001.008a.22.22 0 0 1-.032.124.613.613 0 0 1-.1.137.62.62 0 0 1-.355.195.54.54 0 0 1-.376-.095.56.56 0 0 1-.119-.108.239.239 0 0 1-.058-.116.156.156 0 0 1 .039-.118.353.353 0 0 1 .107-.082 1.183 1.183 0 0 1 .489-.118v.002Zm-7.169.154c.049 0 .1.005.153.012.14.02.264.057.36.112a.41.41 0 0 1 .122.097.205.205 0 0 1 .05.156.277.277 0 0 1-.07.141.595.595 0 0 1-.13.12.587.587 0 0 1-.411.103.667.667 0 0 1-.385-.209.65.65 0 0 1-.108-.15.257.257 0 0 1-.038-.162c.014-.1.095-.15.175-.18a.794.794 0 0 1 .282-.036v-.004Zm8.306 6.732h-.003c-.135.05-.246.07-.34.11a.414.414 0 0 0-.218.197c-.058.105-.108.292-.093.61.041.029.087.05.136.064.156.048.42.08.713.075.585-.007 1.304-.143 1.686-.321a3.62 3.62 0 0 0 .865-.564h-.001c-1.277.264-1.998.194-2.441.011a1.204 1.204 0 0 1-.305-.183Zm-7.362.086h-.02c-.048.004-.119.02-.255.172-.32.358-.431.582-.694.792-.263.21-.605.321-1.288.461-.216.044-.34.093-.423.132.027.022.024.028.064.049.1.055.229.103.332.13.294.073.776.159 1.279.073.503-.086 1.027-.327 1.473-.953.077-.108.085-.268.022-.44-.064-.17-.204-.318-.303-.36a.6.6 0 0 0-.187-.054v-.002Z"/>
</svg>
