<svg xmlns="http://www.w3.org/2000/svg" width="24" height="24" fill="none" viewBox="0 0 24 24">
  <path
    fill-rule="evenodd"
    clip-rule="evenodd"
    d="M6.625 6.625H7.125H13.5V7.625H7.625V9.375H6.625V7.125V6.625ZM15.6679 7.625H15V6.625H16.875H17.375V7.125V9H16.375V8.33211L8.33211 16.375H9.75V17.375H7.125L6.77145 16.5214L15.6679 7.625ZM17 14.25V16.875V17.375H16.5H11.25V16.375H16V14.25H17Z"
    fill="var(--tbl--ui-node-icon--enrichment--lead-magic-secondary)"
  />
  <rect x="2" y="2" width="20" height="20" rx="3" fill="var(--tbl--ui-node-icon--enrichment--lead-magic-primary)"/>
  <path
    fill-rule="evenodd"
    clip-rule="evenodd"
    d="M11.489 8.0505L11.6605 4.49996L10.563 4.54844L11.489 8.0505ZM16.9325 6.36422L14.1978 8.63521L16.1556 5.58745L16.9325 6.36422ZM10.5628 8.69459L11.0288 10.4035H9.47526L10.5628 11.491L9.78597 12.8892L11.0288 12.1124L11.3395 13.5107L12.2717 12.5785L13.3592 13.5107L13.0485 12.1124L14.4467 11.8017L13.3592 11.1803L14.4467 10.0928H13.0485V8.69459L11.961 9.78209L10.5628 8.69459ZM11.6898 15.3892C11.5892 14.9007 11.9624 14.4428 12.4612 14.4428C12.8782 14.4428 13.223 14.7679 13.2475 15.1842L13.4836 19.1988C13.5004 19.4842 13.2734 19.725 12.9875 19.725C12.7516 19.725 12.5483 19.5592 12.5007 19.3282L11.6898 15.3892ZM14.9128 11.0249L18.3306 11.3357V10.2482L14.9128 11.0249ZM6.9772 6.67495L9.39076 9.28464L6.24295 7.49208L6.9772 6.67495ZM9.01081 11.4691L5.50616 12.5044V11.52L9.01081 11.4691Z"
    fill="var(--tbl--ui-node-icon--enrichment--lead-magic-secondary)"
  />
</svg>
