<svg xmlns="http://www.w3.org/2000/svg" width="32" height="32" fill="none" viewBox="0 0 32 32">
  <path
    fill-rule="evenodd"
    clip-rule="evenodd"
    d="M9 9H9.5H18V10H10V12.5H9V9.5V9ZM21.2929 10H20V9H22.5H23V9.5V12H22V10.7071L10.7071 22H13V23H9.5L9.14645 22.1464L21.2929 10ZM22.5 19V22.5V23H22H15V22H21.5V19H22.5Z"
    fill="var(--tbl--ui-node-icon--enrichment--lead-magic-secondary)"
  />
  <rect x="2" y="2" width="28" height="28" rx="4" fill="var(--tbl--ui-node-icon--enrichment--lead-magic-primary)"/>
  <path
    fill-rule="evenodd"
    clip-rule="evenodd"
    d="M15.3187 10.734L15.5473 5.99995L14.084 6.06459L15.3187 10.734ZM22.5766 8.48562L18.9304 11.5136L21.5409 7.44993L22.5766 8.48562ZM14.0837 11.5928L14.7051 13.8714H12.6337L14.0837 15.3214L13.048 17.1856L14.7051 16.1499L15.1194 18.0142L16.3622 16.7714L17.8123 18.0142L17.398 16.1499L19.2622 15.7356L17.8123 14.9071L19.2622 13.4571H17.398V11.5928L15.948 13.0428L14.0837 11.5928ZM15.5864 20.519C15.4522 19.8675 15.9498 19.2571 16.6149 19.2571C17.171 19.2571 17.6306 19.6905 17.6633 20.2456L17.9781 25.5984C18.0005 25.979 17.6979 26.2999 17.3167 26.2999C17.0022 26.2999 16.731 26.0789 16.6676 25.7709L15.5864 20.519ZM19.8837 14.6999L24.4408 15.1142V13.6642L19.8837 14.6999ZM9.30294 8.89994L12.521 12.3795L8.32394 9.98944L9.30294 8.89994ZM12.0144 15.2922L7.34155 16.6725L7.34155 15.36L12.0144 15.2922Z"
    fill="var(--tbl--ui-node-icon--enrichment--lead-magic-secondary)"
  />
</svg>
