<svg width="16" height="16" viewBox="0 0 16 16" fill="none" xmlns="http://www.w3.org/2000/svg">
  <path fill-rule="evenodd" clip-rule="evenodd" d="M1.5 3.5C1.5 3.22386 1.72386 3 2 3H3.5C3.88418 3 4.23462 3.14443 4.5 3.38195C4.76538 3.14443 5.11582 3 5.5 3H7C7.27614 3 7.5 3.22386 7.5 3.5C7.5 3.77614 7.27614 4 7 4H5.5C5.22386 4 5 4.22386 5 4.5V5V6V10V11V11.5C5 11.7761 5.22386 12 5.5 12H7C7.27614 12 7.5 12.2239 7.5 12.5C7.5 12.7761 7.27614 13 7 13H5.5C5.11582 13 4.76538 12.8556 4.5 12.6181C4.23462 12.8556 3.88418 13 3.5 13H2C1.72386 13 1.5 12.7761 1.5 12.5C1.5 12.2239 1.72386 12 2 12H3.5C3.77614 12 4 11.7761 4 11.5V11H2C1.44772 11 1 10.5523 1 10V6C1 5.44772 1.44772 5 2 5H4V4.5C4 4.22386 3.77614 4 3.5 4H2C1.72386 4 1.5 3.77614 1.5 3.5ZM4 6H2V10H4V6ZM14 6H6V5H14C14.5523 5 15 5.44772 15 6V10C15 10.5523 14.5523 11 14 11H6V10H14V6Z" fill="currentColor"/>
</svg>
