<svg xmlns="http://www.w3.org/2000/svg" width="24" height="24" fill="none" viewBox="0 0 24 24">
  <path fill="var(--tbl--colors--icons--clean--secondary)" fill-rule="evenodd" d="M13 6H3a2 2 0 0 0-2 2v7a2 2 0 0 0 2 2h10V6Zm4 11h4a2 2 0 0 0 2-2V8a2 2 0 0 0-2-2h-4v11Z" clip-rule="evenodd"/>
  <path fill="var(--tbl--colors--icons--clean--primary)" fill-rule="evenodd" d="M13 2a1 1 0 1 0 0 2h1a1 1 0 0 1 1 .999V18a1 1 0 0 1-1 1h-1a1 1 0 1 0 0 2h1c.768 0 1.47-.289 2-.764.53.475 1.232.764 2 .764h1a1 1 0 1 0 0-2h-1a1 1 0 0 1-1-1V4.999A1 1 0 0 1 18 4h1a1 1 0 1 0 0-2h-1c-.768 0-1.47.289-2 .764A2.989 2.989 0 0 0 14 2h-1Z" clip-rule="evenodd"/>
</svg>
