<svg xmlns="http://www.w3.org/2000/svg" width="32" height="32" fill="none" viewBox="0 0 32 32">
  <path fill="var(--tbl--colors--icons--clean--secondary)" fill-rule="evenodd" d="M4 10a2 2 0 0 0-2 2v8a2 2 0 0 0 2 2h13V10H4Zm17 0v12h6a2 2 0 0 0 2-2v-8a2 2 0 0 0-2-2h-6Z" clip-rule="evenodd"/>
  <path fill="var(--tbl--colors--icons--clean--primary)" fill-rule="evenodd" d="M17 6a1 1 0 1 0 0 2h1a1 1 0 0 1 1 1v14a1 1 0 0 1-1 1h-1a1 1 0 1 0 0 2h1c.768 0 1.47-.289 2-.764.53.475 1.232.764 2 .764h1a1 1 0 1 0 0-2h-1a1 1 0 0 1-1-1V9a1 1 0 0 1 1-1h1a1 1 0 1 0 0-2h-1c-.768 0-1.47.289-2 .764A2.989 2.989 0 0 0 18 6h-1Z" clip-rule="evenodd"/>
</svg>
