<svg xmlns="http://www.w3.org/2000/svg" width="16" height="16" fill="none" viewBox="0 0 16 16">
  <path fill="currentColor" fill-rule="evenodd" d="M1.5 3.5A.5.5 0 0 1 2 3h1.5c.384 0 .735.144 1 .382A1.494 1.494 0 0 1 5.5 3H7a.5.5 0 0 1 0 1H5.5a.5.5 0 0 0-.5.5v7a.5.5 0 0 0 .5.5H7a.5.5 0 0 1 0 1H5.5c-.384 0-.735-.144-1-.382a1.494 1.494 0 0 1-1 .382H2a.5.5 0 0 1 0-1h1.5a.5.5 0 0 0 .5-.5V11H2a1 1 0 0 1-1-1V6a1 1 0 0 1 1-1h2v-.5a.5.5 0 0 0-.5-.5H2a.5.5 0 0 1-.5-.5ZM4 6H2v4h2V6Zm10 0H6V5h8a1 1 0 0 1 1 1v4a1 1 0 0 1-1 1H6v-1h8V6Z" clip-rule="evenodd"/>
</svg>
