<svg xmlns="http://www.w3.org/2000/svg" width="24" height="24" fill="none" viewBox="0 0 24 24">
  <path fill="var(--tbl--colors--icons--clean--secondary)" fill-rule="evenodd" d="M7 5H6a3 3 0 0 0-3 3v10a3 3 0 0 0 3 3h10a3 3 0 0 0 3-3v-1h-9a3 3 0 0 1-3-3V5Z" clip-rule="evenodd"/>
  <path fill="var(--tbl--colors--icons--clean--primary)" fill-rule="evenodd" d="M10 1a3 3 0 0 0-3 3v10a3 3 0 0 0 3 3h10a3 3 0 0 0 3-3V4a3 3 0 0 0-3-3H10Zm8.316 3.051a1 1 0 0 1 .633 1.265L18.72 6h1.029a.75.75 0 0 1 0 1.5h-1.53l-.833 2.5h.863a.75.75 0 0 1 0 1.5h-1.363l-.438 1.316a1 1 0 0 1-1.898-.632l.228-.684h-1.892l-.438 1.316a1 1 0 0 1-1.898-.632l.228-.684H9.75a.75.75 0 0 1 0-1.5h1.53l.833-2.5h-.363a.75.75 0 0 1 0-1.5h.863l.438-1.316a1 1 0 0 1 1.898.632L14.72 6h1.892l.438-1.316a1 1 0 0 1 1.265-.633ZM14.221 7.5h1.892l-.834 2.5h-1.892l.834-2.5Z" clip-rule="evenodd"/>
</svg>
