<svg xmlns="http://www.w3.org/2000/svg" width="32" height="32" fill="none" viewBox="0 0 32 32">
  <path fill="var(--tbl--colors--icons--clean--secondary)" fill-rule="evenodd" d="M10 10H8a4 4 0 0 0-4 4v10a4 4 0 0 0 4 4h10a4 4 0 0 0 4-4v-2h-8a4 4 0 0 1-4-4v-8Z" clip-rule="evenodd"/>
  <path fill="var(--tbl--colors--icons--clean--primary)" fill-rule="evenodd" d="M14 4a4 4 0 0 0-4 4v10a4 4 0 0 0 4 4h10a4 4 0 0 0 4-4V8a4 4 0 0 0-4-4H14Zm8.316 4.051a1 1 0 0 1 .633 1.265L22.72 10h1.029a.75.75 0 0 1 0 1.5h-1.53l-.833 2.5h.863a.75.75 0 0 1 0 1.5h-1.363l-.438 1.316a1 1 0 0 1-1.898-.632l.228-.684h-1.892l-.438 1.316a1 1 0 0 1-1.898-.632l.228-.684H13.75a.75.75 0 0 1 0-1.5h1.53l.833-2.5h-.363a.75.75 0 0 1 0-1.5h.863l.438-1.316a1 1 0 0 1 1.898.632L18.72 10h1.892l.438-1.316a1 1 0 0 1 1.265-.633ZM18.221 11.5h1.892l-.834 2.5h-1.892l.834-2.5Z" clip-rule="evenodd"/>
</svg>
