<svg xmlns="http://www.w3.org/2000/svg" width="24" height="24" fill="none" viewBox="0 0 24 24">
  <path
    fill="var(--tbl--colors--icons--clean--secondary)"
    fill-rule="evenodd"
    d="M6 6H5C3.34315 6 2 7.34314 2 9V19C2 20.6568 3.34315 22 5 22H15C16.6569 22 18 20.6568 18 19V18H9C7.34315 18 6 16.6568 6 15V6Z"
    clip-rule="evenodd"
  />
  <path
    fill="var(--tbl--colors--icons--clean--primary)"
    fill-rule="evenodd"
    d="M9 2C7.34315 2 6 3.34314 6 5V15C6 16.6568 7.34315 18 9 18H19C20.6569 18 22 16.6568 22 15V5C22 3.34315 20.6569 2 19 2H9ZM17.3162 5.05133C17.8402 5.22598 18.1233 5.7923 17.9487 6.31624L17.7208 7.00001H18.75C19.1642 7.00001 19.5 7.3358 19.5 7.75001C19.5 8.16423 19.1642 8.50001 18.75 8.50001H17.2208L16.3874 11H17.25C17.6642 11 18 11.3358 18 11.75C18 12.1642 17.6642 12.5 17.25 12.5H15.8874L15.4487 13.8162C15.274 14.3402 14.7077 14.6233 14.1838 14.4487C13.6598 14.2741 13.3767 13.7077 13.5513 13.1838L13.7792 12.5H11.8874L11.4487 13.8162C11.274 14.3401 10.7077 14.6233 10.1838 14.4486C9.65983 14.274 9.37667 13.7077 9.55132 13.1837L9.77922 12.5H8.75C8.33579 12.5 8 12.1642 8 11.75C8 11.3358 8.33579 11 8.75 11H10.2792L11.1126 8.50001H10.75C10.3358 8.50001 10 8.16423 10 7.75001C10 7.3358 10.3358 7.00001 10.75 7.00001H11.6126L12.0513 5.68379C12.226 5.15985 12.7923 4.87669 13.3162 5.05134C13.8402 5.22599 14.1233 5.79231 13.9487 6.31625L13.7208 7.00001H15.6126L16.0513 5.68379C16.226 5.15985 16.7923 4.87669 17.3162 5.05133ZM13.2208 8.50001H15.1126L14.2792 11H12.3874L13.2208 8.50001Z"
    clip-rule="evenodd"
  />
</svg>
