<svg xmlns="http://www.w3.org/2000/svg" width="16" height="16" fill="none" viewBox="0 0 16 16">
  <path fill="currentColor" fill-rule="evenodd" d="M4 2h10v10H4V2ZM3 5V2a1 1 0 0 1 1-1h10a1 1 0 0 1 1 1v10a1 1 0 0 1-1 1h-3v1a1 1 0 0 1-1 1H2a1 1 0 0 1-1-1V6a1 1 0 0 1 1-1h1Zm0 1H2v8h8v-1H4a1 1 0 0 1-1-1V6Zm4-2.5a.5.5 0 0 1 1 0V5h2v-.5a.5.5 0 0 1 1 0V5h1.5a.5.5 0 0 1 0 1H11v2h.5a.5.5 0 0 1 0 1H11v1.5a.5.5 0 0 1-1 0V9H8v.5a.5.5 0 0 1-1 0V9H5.5a.5.5 0 0 1 0-1H7V6h-.5a.5.5 0 0 1 0-1H7V3.5ZM8 8h2V6H8v2Z" clip-rule="evenodd"/>
</svg>
