<svg width="16" height="16" viewBox="0 0 16 16" fill="none" xmlns="http://www.w3.org/2000/svg">
  <path fill-rule="evenodd" clip-rule="evenodd" d="M3 3H13V6H3V5.5V3ZM13 7H3V10.5C3 10.7761 3.22386 11 3.5 11H5V9C5 8.44772 5.44772 8 6 8H13C13.5523 8 14 8.44772 14 9V11V12V14C14 14.5523 13.5523 15 13 15H6C5.44772 15 5 14.5523 5 14V12H3.5C2.67157 12 2 11.3284 2 10.5V6V5.5V3C2 2.44772 2.44772 2 3 2H13C13.5523 2 14 2.44772 14 3V6C14 6.55229 13.5523 7 13 7ZM13 11V9H6V11H13ZM13 12V14H6V12H13Z" fill="currentColor"/>
</svg>
