<svg width="16" height="16" viewBox="0 0 16 16" fill="none" xmlns="http://www.w3.org/2000/svg">
  <path
    d="M15.3725 10.1072L14.9153 6.17519V6.17209V6.16899C14.9153 6.16589 14.9153 6.16278 14.9153 6.16278C14.9153 6.16278 14.9153 6.16278 14.9153 6.15968C14.9153 6.15657 14.9153 6.15347 14.9123 6.15347V6.15037C14.9123 6.14727 14.9092 6.14416 14.9092 6.14416C14.9092 6.14416 14.9092 6.14416 14.9092 6.14105C14.9092 6.13795 14.9061 6.13795 14.9061 6.13485C14.9061 6.13175 14.9031 6.13175 14.9031 6.12865C14.9031 6.12865 14.9031 6.12554 14.9 6.12554C14.9 6.12243 14.8969 6.12243 14.8969 6.11933C14.8969 6.11933 14.8969 6.11933 14.8969 6.11623C14.8969 6.11313 14.8939 6.11313 14.8908 6.11002C14.8877 6.10692 14.8877 6.10692 14.8847 6.10382C14.8847 6.10382 14.8847 6.10382 14.8816 6.10071L14.8785 6.09761L11.7674 2.68076C11.7674 2.67766 11.7643 2.67766 11.7643 2.67766C11.7612 2.67145 11.7551 2.66835 11.7489 2.66524C11.7459 2.66524 11.7459 2.66214 11.7428 2.66214H11.7397C11.7367 2.65904 11.7367 2.65904 11.7336 2.65904C11.7305 2.65904 11.7305 2.65593 11.7275 2.65593C11.7244 2.65593 11.7213 2.65283 11.7183 2.65283C11.7152 2.65283 11.7121 2.64973 11.7121 2.64973H11.7091C11.706 2.64973 11.706 2.64973 11.7029 2.64973C11.7029 2.64973 11.7029 2.64973 11.6999 2.64973L4.75042 1.18492H4.74735C4.74122 1.18182 4.73201 1.18182 4.7228 1.18182C4.71974 1.18182 4.71667 1.18182 4.7136 1.18182C4.71054 1.18182 4.70746 1.18182 4.70746 1.18182C4.70133 1.18182 4.69826 1.18492 4.69212 1.18492C4.68906 1.18492 4.68599 1.18802 4.68292 1.18802C4.67678 1.18802 4.67372 1.19112 4.66758 1.19423H4.66451C4.66144 1.19423 4.65838 1.19733 4.6553 1.19733C4.65224 1.19733 4.64917 1.20044 4.64917 1.20044C4.6461 1.20354 4.64304 1.20354 4.63996 1.20664C4.6369 1.20974 4.63383 1.20974 4.63383 1.21285L4.63076 1.21595L0.700417 4.95556C0.697344 4.95866 0.697344 4.95866 0.694277 4.96176C0.691211 4.96487 0.691211 4.96487 0.691211 4.96797C0.691211 4.97107 0.688144 4.97107 0.688144 4.97418C0.685071 4.97728 0.682004 4.98038 0.682004 4.98348C0.682004 4.98659 0.678937 4.98659 0.678937 4.9897C0.675871 4.9928 0.675871 4.999 0.672797 5.00211C0.672797 5.00521 0.669731 5.00521 0.669731 5.00832C0.666664 5.01142 0.666664 5.01762 0.666664 5.02073C0.666664 5.02383 0.666664 5.02383 0.666664 5.02694C0.666664 5.03004 0.666664 5.03004 0.666664 5.03314C0.666664 5.03624 0.666664 5.03935 0.666664 5.04245C0.666664 5.04556 0.666664 5.04866 0.666664 5.05176C0.666664 5.05486 0.666664 5.05797 0.666664 5.06107C0.666664 5.06418 0.666664 5.06728 0.666664 5.07038C0.666664 5.07348 0.666664 5.07659 0.666664 5.0797C0.666664 5.0828 0.666664 5.0859 0.669731 5.089V5.0921L1.62394 8.8162V8.82241C1.62394 8.82547 1.627 8.82861 1.627 8.83168C1.63621 8.85657 1.64848 8.87518 1.66996 8.89066C1.67303 8.89379 1.67303 8.89379 1.6761 8.89686C1.67916 8.9 1.68224 8.9 1.6853 8.90307C1.68837 8.90307 1.69144 8.9062 1.69144 8.9062C1.69758 8.90927 1.70371 8.91241 1.70678 8.91241C1.70985 8.91241 1.71292 8.91547 1.71598 8.91547C1.71905 8.91547 1.72212 8.91547 1.72519 8.91861H1.72826L3.28996 9.23204L4.82099 11.1593C4.82406 11.1623 4.82712 11.1655 4.82712 11.1685C4.82712 11.1685 4.82712 11.1685 4.8302 11.1717C4.83326 11.1747 4.83633 11.1779 4.8394 11.1779C4.8486 11.1841 4.85781 11.1903 4.86701 11.1965C4.87008 11.1965 4.87008 11.1996 4.87315 11.1996C4.87622 11.1996 4.87622 11.2027 4.87928 11.2027C4.88235 11.2027 4.88235 11.2027 4.88542 11.2058C4.88849 11.2058 4.88849 11.2058 4.89156 11.2089C4.89462 11.2089 4.89769 11.2089 4.90076 11.212C4.90383 11.212 4.90383 11.212 4.9069 11.212C4.90996 11.212 4.90996 11.212 4.91304 11.212L7.12213 11.4851L8.47826 13.6606C8.4844 13.6699 8.49053 13.6792 8.49973 13.6854C8.5028 13.6885 8.5028 13.6885 8.50586 13.6885C8.512 13.6947 8.5212 13.701 8.52733 13.7041C8.5304 13.7041 8.5304 13.7072 8.53346 13.7072C8.53966 13.7103 8.54273 13.7103 8.54886 13.7134C8.55193 13.7134 8.555 13.7165 8.55806 13.7165C8.56113 13.7165 8.56113 13.7165 8.5642 13.7165C8.5734 13.7196 8.57953 13.7196 8.58873 13.7196C8.59793 13.7196 8.6102 13.7196 8.62246 13.7165C8.63473 13.7134 8.647 13.7072 8.6562 13.701L8.65926 13.7072L9.38033 14.7654C9.40486 14.8026 9.44473 14.8213 9.48773 14.8213C9.49693 14.8213 9.50613 14.8213 9.51533 14.8182L10.7733 14.5326C10.8316 14.5202 10.8715 14.4706 10.8745 14.4085L10.9328 13.1175L12.9793 12.5899H12.9824C12.9855 12.5899 12.9855 12.5899 12.9885 12.5899C12.9916 12.5899 12.9916 12.5899 12.9947 12.5869C13.0039 12.5837 13.0131 12.5807 13.0192 12.5744C13.0223 12.5744 13.0223 12.5713 13.0253 12.5713C13.0284 12.5713 13.0284 12.5682 13.0315 12.5682C13.0376 12.5651 13.0407 12.5589 13.0468 12.5558L13.0499 12.5527C13.056 12.5465 13.0621 12.5372 13.0652 12.5279C13.0652 12.5279 13.0652 12.5247 13.0683 12.5247C13.0683 12.5217 13.0713 12.5185 13.0713 12.5155L13.507 11.4479L15.3203 10.2375C15.3571 10.2065 15.3786 10.1569 15.3725 10.1072ZM14.5502 6.12865L13.3107 6.53208C13.1971 6.32726 12.9824 6.19071 12.7339 6.19071C12.7216 6.19071 12.7093 6.19071 12.697 6.19071L11.9331 3.25179L14.5502 6.12865ZM11.7367 9.26307C11.7152 9.26 11.6937 9.26 11.6723 9.26C11.4789 9.26 11.3071 9.35927 11.2028 9.50825L8.38313 8.39722C8.38926 8.36307 8.39233 8.32897 8.39233 8.29175C8.39233 8.2762 8.39233 8.26066 8.38926 8.24825L12.1478 7.16208C12.2031 7.2707 12.2889 7.36379 12.3902 7.42584L11.7367 9.26307ZM12.0005 9.83722C12.0005 9.92102 11.9699 9.99547 11.9208 10.0545C11.8625 10.1227 11.7797 10.1662 11.6845 10.1724C11.6784 10.1724 11.6753 10.1724 11.6692 10.1724C11.6231 10.1724 11.5833 10.1631 11.5434 10.1475C11.4605 10.1134 11.3931 10.0451 11.3624 9.95825C11.3501 9.92409 11.3439 9.89 11.3409 9.8527C11.3409 9.84963 11.3409 9.84343 11.3409 9.84029C11.3409 9.75029 11.3777 9.6665 11.436 9.60445C11.4912 9.54861 11.5679 9.51138 11.6508 9.50518C11.6569 9.50518 11.6631 9.50518 11.6723 9.50518C11.7581 9.50518 11.8379 9.53927 11.8993 9.59518C11.9607 9.65409 12.0005 9.74102 12.0005 9.83722ZM9.99393 11.302C9.87733 11.2182 9.73313 11.1685 9.57666 11.1685C9.50613 11.1685 9.43553 11.1779 9.37113 11.1996L8.15613 8.79445C8.20826 8.75416 8.2512 8.70445 8.28806 8.64861L11.1077 9.75963C11.1047 9.78445 11.1016 9.81241 11.1016 9.84029C11.1016 9.94891 11.1323 10.0482 11.1813 10.1351L9.99393 11.302ZM10.0369 11.8979C10.0369 11.9693 10.0216 12.0407 9.99086 12.1027C9.91726 12.2579 9.75773 12.3665 9.5736 12.3665C9.53373 12.3665 9.49693 12.3603 9.457 12.351C9.36806 12.3293 9.29133 12.2796 9.23306 12.2145C9.15633 12.1307 9.11033 12.0189 9.11033 11.8979C9.11033 11.7645 9.16553 11.6434 9.25453 11.5596C9.31893 11.4975 9.39873 11.4572 9.48773 11.4385C9.51533 11.4323 9.54293 11.4293 9.5736 11.4293C9.65646 11.4293 9.73313 11.451 9.80066 11.4882C9.87733 11.5317 9.9418 11.5969 9.98166 11.6775C10.0062 11.7272 10.0247 11.7799 10.0308 11.8389C10.0369 11.8575 10.0369 11.8761 10.0369 11.8979ZM8.14386 8.29482C8.14386 8.39416 8.107 8.48102 8.04873 8.54927C8.04566 8.55241 8.0426 8.55547 8.03953 8.55861C7.9812 8.62066 7.9076 8.66416 7.82166 8.67657L7.8186 8.69825L7.8094 8.67963C7.79406 8.68277 7.77873 8.68277 7.76033 8.68277C7.68973 8.68277 7.62226 8.66416 7.56393 8.63C7.4504 8.56175 7.37373 8.43759 7.37373 8.29482C7.37373 8.17379 7.42893 8.06204 7.51793 7.99066C7.58233 7.93795 7.66826 7.90379 7.76033 7.90379C7.7634 7.90379 7.7634 7.90379 7.76646 7.90379C7.8002 7.90379 7.83086 7.91 7.86153 7.9162C7.94746 7.94102 8.02113 7.99379 8.07326 8.06518L8.08246 8.06204L8.07633 8.06825C8.1162 8.13657 8.14386 8.21416 8.14386 8.29482ZM8.00886 7.70825C7.93213 7.67416 7.84926 7.65554 7.76033 7.65554C7.7358 7.65554 7.70813 7.65861 7.6836 7.66175L7.297 6.52278C7.44733 6.42347 7.5486 6.25278 7.5486 6.05727C7.5486 6.02313 7.54553 5.98589 7.5394 5.95175L9.7792 4.90901C9.8068 4.95245 9.84053 4.9897 9.87426 5.02694L8.00886 7.70825ZM6.52383 6.32726L5.26588 7.52204L6.64349 4.14247L6.64963 4.12695L6.6527 4.14247L6.8092 5.539C6.60054 5.61658 6.45326 5.8183 6.45326 6.05727C6.45326 6.15657 6.48088 6.24657 6.52383 6.32726ZM9.66873 4.67005L7.42893 5.71279C7.34306 5.60417 7.21726 5.52969 7.07306 5.51107L6.91653 4.11453C7.04233 4.06799 7.14666 3.97178 7.20806 3.85075L9.64726 4.41556C9.64726 4.43108 9.64726 4.4466 9.64726 4.46212C9.64113 4.53349 9.65033 4.60177 9.66873 4.67005ZM6.98713 3.69247C6.97486 3.72661 6.95646 3.75764 6.935 3.78557C6.9196 3.80419 6.90426 3.81661 6.88586 3.83212C6.83986 3.86316 6.78766 3.88178 6.7294 3.88178C6.64349 3.88178 6.56679 3.84143 6.51463 3.77937C6.47474 3.72971 6.45326 3.67075 6.45326 3.60248C6.45326 3.56834 6.4594 3.5373 6.47167 3.50626C6.50236 3.41937 6.57599 3.3511 6.66806 3.33248C6.68953 3.32627 6.711 3.32627 6.73246 3.32627C6.82146 3.32627 6.9012 3.36972 6.95033 3.43489C6.9718 3.46282 6.98713 3.49696 6.9994 3.5311C7.00553 3.55592 7.0086 3.58075 7.0086 3.60558C6.9994 3.6335 6.99633 3.66454 6.98713 3.69247ZM6.83986 5.78727C6.88586 5.75934 6.9442 5.74072 7.00246 5.74072C7.0362 5.74072 7.07 5.74692 7.10066 5.75624C7.14053 5.76865 7.17733 5.79037 7.20806 5.8152C7.27553 5.87416 7.31846 5.95796 7.31846 6.05727C7.31846 6.14727 7.28166 6.22795 7.22033 6.28692C7.16506 6.33967 7.0884 6.37381 7.00553 6.37381C6.99633 6.37381 6.98406 6.37381 6.97486 6.37071C6.9442 6.36761 6.91653 6.3614 6.88893 6.34899C6.80613 6.31485 6.7386 6.24347 6.711 6.15657C6.7018 6.12554 6.69566 6.0914 6.69566 6.05416C6.68646 5.94244 6.7478 5.84002 6.83986 5.78727ZM10.0891 5.179C10.1934 5.22866 10.3069 5.25659 10.4297 5.25659C10.5953 5.25659 10.7487 5.20383 10.8776 5.11383L12.1939 6.47933C12.1202 6.58794 12.0773 6.71519 12.0773 6.85795C12.0773 6.87657 12.0773 6.89208 12.0803 6.9107L8.3218 7.99686C8.29726 7.94723 8.26346 7.90066 8.22666 7.86036L10.0891 5.179ZM9.92646 4.45901C9.92646 4.37212 9.94793 4.29142 9.98473 4.22005C10.0707 4.05867 10.2363 3.95005 10.4297 3.95005C10.7058 3.95005 10.9328 4.1766 10.9328 4.45901C10.9328 4.55522 10.9083 4.64211 10.8623 4.7197C10.8162 4.79729 10.7518 4.85935 10.6751 4.9028C10.6015 4.94314 10.5186 4.96797 10.4297 4.96797C10.3683 4.96797 10.31 4.95866 10.2578 4.93694C10.0921 4.87487 9.96633 4.72591 9.93566 4.54591C9.9326 4.52418 9.92953 4.50246 9.92953 4.48074C9.92646 4.47453 9.92646 4.46832 9.92646 4.45901ZM12.3902 7.09691C12.3442 7.02863 12.3197 6.94795 12.3197 6.85795C12.3197 6.85173 12.3197 6.84553 12.3197 6.84243C12.3227 6.77726 12.3381 6.71829 12.3657 6.66243C12.3994 6.59726 12.4485 6.5414 12.5099 6.50416C12.5252 6.49484 12.5375 6.48554 12.5528 6.47933C12.6081 6.4514 12.6694 6.43588 12.7369 6.43588C12.7461 6.43588 12.7553 6.43588 12.7615 6.43588C12.8903 6.44209 13.0039 6.51036 13.0744 6.60967C13.1235 6.68105 13.1542 6.76484 13.1542 6.85795V6.86105C13.1542 7.02553 13.0591 7.16829 12.9241 7.23656C12.8689 7.26449 12.8044 7.28 12.7369 7.28C12.7339 7.28 12.7277 7.28 12.7247 7.28C12.7031 7.28 12.6847 7.2769 12.6663 7.2738C12.5958 7.26139 12.5313 7.23346 12.4792 7.19001C12.4455 7.16518 12.4147 7.13105 12.3902 7.09691ZM12.4455 6.25899C12.4209 6.2714 12.3994 6.28381 12.3779 6.29623L11.0647 4.93073C11.1599 4.80039 11.2181 4.63591 11.2181 4.45901C11.2181 4.01833 10.8653 3.66144 10.4297 3.66144C10.1013 3.66144 9.81906 3.86626 9.70246 4.15488L7.40133 3.6211L11.5771 2.91972L12.4455 6.25899ZM10.9605 2.75524L7.21726 3.38523C7.1344 3.19283 6.9442 3.05627 6.72326 3.05627C6.63429 3.05627 6.54838 3.07799 6.47474 3.11834L5.08178 1.52319L10.9605 2.75524ZM4.78724 1.58836L6.27838 3.29523C6.22008 3.38213 6.18326 3.48764 6.18326 3.60248C6.18326 3.78247 6.26917 3.94075 6.4011 4.04005L4.99281 7.49416C4.9652 7.49102 4.94065 7.48795 4.91304 7.48795C4.87315 7.48795 4.83326 7.49102 4.79644 7.50036L4.1061 6.09761C4.28406 5.96416 4.40065 5.74692 4.40065 5.50486C4.40065 5.20693 4.22576 4.94935 3.97417 4.83453L4.78724 1.58836ZM3.98644 5.84934C3.92201 5.9083 3.84224 5.95175 3.75326 5.96727C3.72564 5.97347 3.7011 5.97347 3.67348 5.97347C3.6336 5.97347 3.59372 5.96727 3.5569 5.95796C3.46792 5.93624 3.39121 5.88658 3.33292 5.8214C3.26848 5.75313 3.22553 5.66313 3.21326 5.56383C3.21019 5.54521 3.21019 5.52348 3.21019 5.50175C3.21019 5.43037 3.22553 5.3621 3.25314 5.30314C3.32371 5.14797 3.47712 5.03935 3.65508 5.03314C3.66122 5.03314 3.66735 5.03314 3.67348 5.03314C3.7594 5.03314 3.83917 5.05797 3.90974 5.09832C4.04474 5.179 4.13678 5.33107 4.13678 5.50175C4.13372 5.64141 4.07849 5.76554 3.98644 5.84934ZM4.48656 1.72181L3.72258 4.77245C3.70724 4.77245 3.68883 4.76935 3.67348 4.76935C3.3544 4.76935 3.0844 4.97728 2.98314 5.2659L1.07473 4.96487L4.48656 1.72181ZM0.964277 5.21314L2.94019 5.52348C2.94632 5.73762 3.04144 5.93002 3.19178 6.06037L1.79269 8.44379L0.964277 5.21314ZM3.41576 6.20002C3.49553 6.23105 3.58144 6.24657 3.67042 6.24657C3.74099 6.24657 3.80849 6.23727 3.87292 6.21865L4.56326 7.62138C4.44667 7.72073 4.37303 7.86963 4.36996 8.03416L2.01053 8.58657L3.41576 6.20002ZM2.36644 8.77277L4.25951 8.32897L3.32678 8.96518L2.36644 8.77277ZM4.78417 10.6969L3.54462 9.13584L4.55099 8.44686C4.61542 8.50584 4.69519 8.54927 4.78417 8.57416V10.6969ZM4.9161 8.33518C4.87008 8.33518 4.82406 8.32277 4.78417 8.30416L4.7719 8.29795C4.74122 8.27927 4.7136 8.25759 4.68906 8.22963C4.6553 8.1862 4.63076 8.13657 4.62462 8.07759C4.62156 8.06518 4.62156 8.05277 4.62156 8.04036C4.62156 8.01554 4.62462 7.99379 4.63076 7.97204C4.63996 7.93175 4.65838 7.89759 4.67985 7.86343C4.72894 7.79825 4.80565 7.75175 4.89156 7.74554L4.90076 7.72072L4.91304 7.74554C4.94678 7.74554 4.98054 7.75175 5.01122 7.76416C5.05724 7.78277 5.1002 7.81066 5.13088 7.84795C5.15849 7.87897 5.1769 7.9162 5.18917 7.95657C5.19838 7.98445 5.20144 8.01241 5.20144 8.04036C5.20144 8.09 5.18917 8.13963 5.16462 8.18C5.13701 8.23277 5.09406 8.2762 5.03883 8.30102C5.01122 8.31657 4.98054 8.32584 4.94985 8.32897C4.94372 8.33204 4.92838 8.33518 4.9161 8.33518ZM5.04804 10.9545V8.57416C5.06951 8.56795 5.09099 8.56175 5.11246 8.55547L6.91653 11.1903L5.04804 10.9545ZM5.32417 8.40343C5.41008 8.30722 5.45917 8.18 5.45917 8.04036C5.45917 7.94102 5.43462 7.85102 5.3886 7.77036L6.7018 6.52278C6.78773 6.57864 6.88893 6.61278 6.9994 6.61278C7.01473 6.61278 7.03006 6.61278 7.04846 6.60967L7.43506 7.74861C7.251 7.86036 7.12826 8.06518 7.12826 8.29795C7.12826 8.56482 7.2878 8.79138 7.51793 8.88759L7.11906 11.0196L5.32417 8.40343ZM8.57646 13.3317L7.32773 11.3299L7.7726 8.93722C7.82473 8.93722 7.87386 8.92788 7.92293 8.91547L9.13793 11.3207C8.96613 11.4541 8.85566 11.662 8.85566 11.8979C8.85566 12.1151 8.9508 12.3107 9.10113 12.4441L8.57646 13.3317ZM10.6107 14.2937L9.5368 14.5388L8.92006 13.6327L10.6628 13.1827L10.6107 14.2937ZM8.85566 13.3751L9.32506 12.5775C9.4018 12.6085 9.48773 12.6241 9.57666 12.6241C9.88966 12.6241 10.1535 12.4223 10.2547 12.1431L12.3105 12.4875L8.85566 13.3751ZM10.2947 11.8823C10.2916 11.7365 10.2486 11.6031 10.175 11.4913L11.3655 10.3213C11.4544 10.3772 11.5587 10.4113 11.6723 10.4113C11.7152 10.4113 11.7581 10.4051 11.7981 10.3958L12.7155 12.2827L10.2947 11.8823ZM12.9333 12.1369L12.0312 10.281C12.157 10.1755 12.2399 10.0141 12.2399 9.83722C12.2399 9.63547 12.1355 9.45861 11.9821 9.35307L12.6387 7.51897C12.6602 7.52204 12.6817 7.52518 12.7031 7.52518L13.2647 11.3361L12.9333 12.1369ZM13.4947 11.1313L12.9609 7.48795C13.2155 7.39482 13.3966 7.14966 13.3966 6.85795C13.3966 6.83312 13.3966 6.80829 13.3935 6.78346L14.676 6.3645L15.1055 10.0545L13.4947 11.1313Z"
    fill="var(--tbl--ui-node-icon--enrichment--people-data-labs)"
    stroke="var(--tbl--ui-node-icon--enrichment--people-data-labs)"
    stroke-width="0.325758"
    stroke-linejoin="round"
  />
</svg>
