<svg xmlns="http://www.w3.org/2000/svg" width="24" height="24" fill="none" viewBox="0 0 24 24">
  <path
    d="M23.0587 15.1608L22.373 9.26279V9.25814V9.25349C22.373 9.24883 22.373 9.24418 22.373 9.24418C22.373 9.24418 22.373 9.24418 22.373 9.23952C22.373 9.23486 22.373 9.23021 22.3684 9.23021V9.22556C22.3684 9.2209 22.3638 9.21625 22.3638 9.21625C22.3638 9.21625 22.3638 9.21625 22.3638 9.21158C22.3638 9.20693 22.3592 9.20693 22.3592 9.20228C22.3592 9.19762 22.3546 9.19762 22.3546 9.19297C22.3546 9.19297 22.3546 9.18832 22.35 9.18832C22.35 9.18365 22.3454 9.18365 22.3454 9.179C22.3454 9.179 22.3454 9.179 22.3454 9.17435C22.3454 9.16969 22.3408 9.16969 22.3362 9.16504C22.3316 9.16039 22.3316 9.16039 22.327 9.15573C22.327 9.15573 22.327 9.15573 22.3224 9.15107L22.3178 9.14642L17.6511 4.02114C17.6511 4.01649 17.6465 4.01649 17.6465 4.01649C17.6418 4.00718 17.6326 4.00253 17.6234 3.99787C17.6188 3.99787 17.6188 3.99321 17.6142 3.99321H17.6096C17.605 3.98856 17.605 3.98856 17.6004 3.98856C17.5958 3.98856 17.5958 3.9839 17.5912 3.9839C17.5866 3.9839 17.582 3.97925 17.5774 3.97925C17.5728 3.97925 17.5682 3.9746 17.5682 3.9746H17.5636C17.559 3.9746 17.559 3.9746 17.5544 3.9746C17.5544 3.9746 17.5544 3.9746 17.5498 3.9746L7.12564 1.77738H7.12103C7.11183 1.77273 7.09802 1.77273 7.08421 1.77273C7.07961 1.77273 7.07501 1.77273 7.07041 1.77273C7.06581 1.77273 7.0612 1.77273 7.0612 1.77273C7.052 1.77273 7.0474 1.77738 7.03819 1.77738C7.03359 1.77738 7.02899 1.78203 7.02438 1.78203C7.01518 1.78203 7.01058 1.78669 7.00137 1.79135H6.99677C6.99217 1.79135 6.98757 1.79601 6.98296 1.79601C6.97836 1.79601 6.97376 1.80066 6.97376 1.80066C6.96916 1.80531 6.96456 1.80531 6.95995 1.80997C6.95535 1.81462 6.95075 1.81462 6.95075 1.81928L6.94615 1.82394L1.05063 7.43334C1.04602 7.43799 1.04602 7.43799 1.04142 7.44265C1.03682 7.44731 1.03682 7.44731 1.03682 7.45196C1.03682 7.45662 1.03222 7.45662 1.03222 7.46127C1.02761 7.46592 1.02301 7.47058 1.02301 7.47523C1.02301 7.47989 1.01841 7.47989 1.01841 7.48455C1.01381 7.4892 1.01381 7.49851 1.0092 7.50317C1.0092 7.50782 1.0046 7.50782 1.0046 7.51248C1 7.51713 1 7.52644 1 7.53109C1 7.53575 1 7.53575 1 7.54041C1 7.54506 1 7.54506 1 7.54971C1 7.55437 1 7.55902 1 7.56369C1 7.56834 1 7.57299 1 7.57765C1 7.5823 1 7.58696 1 7.59162C1 7.59627 1 7.60092 1 7.60558C1 7.61023 1 7.61489 1 7.61955C1 7.6242 1 7.62885 1.0046 7.63351V7.63816L2.43591 13.2243V13.2336C2.43591 13.2382 2.44051 13.2429 2.44051 13.2475C2.45432 13.2849 2.47273 13.3128 2.50495 13.336C2.50955 13.3407 2.50955 13.3407 2.51415 13.3453C2.51875 13.35 2.52336 13.35 2.52796 13.3546C2.53256 13.3546 2.53716 13.3593 2.53716 13.3593C2.54637 13.3639 2.55557 13.3686 2.56017 13.3686C2.56478 13.3686 2.56938 13.3732 2.57398 13.3732C2.57858 13.3732 2.58318 13.3732 2.58779 13.3779H2.59239L4.93495 13.8481L7.23149 16.7389C7.23609 16.7435 7.24069 16.7482 7.24069 16.7528C7.24069 16.7528 7.24069 16.7528 7.2453 16.7575C7.2499 16.7621 7.2545 16.7668 7.2591 16.7668C7.27291 16.7761 7.28672 16.7854 7.30052 16.7947C7.30512 16.7947 7.30512 16.7995 7.30973 16.7995C7.31433 16.7995 7.31433 16.8041 7.31893 16.8041C7.32353 16.8041 7.32353 16.8041 7.32814 16.8088C7.33274 16.8088 7.33274 16.8088 7.33734 16.8134C7.34194 16.8134 7.34654 16.8134 7.35115 16.8181C7.35575 16.8181 7.35575 16.8181 7.36035 16.8181C7.36495 16.8181 7.36495 16.8181 7.36956 16.8181L10.6832 17.2277L12.7174 20.4909C12.7266 20.5049 12.7358 20.5188 12.7496 20.5281C12.7542 20.5328 12.7542 20.5328 12.7588 20.5328C12.768 20.5421 12.7818 20.5514 12.791 20.5561C12.7956 20.5561 12.7956 20.5607 12.8002 20.5607C12.8095 20.5654 12.8141 20.5654 12.8233 20.57C12.8279 20.57 12.8325 20.5747 12.8371 20.5747C12.8417 20.5747 12.8417 20.5747 12.8463 20.5747C12.8601 20.5793 12.8693 20.5794 12.8831 20.5794C12.8969 20.5794 12.9153 20.5793 12.9337 20.5747C12.9521 20.57 12.9705 20.5607 12.9843 20.5514L12.9889 20.5607L14.0705 22.1481C14.1073 22.204 14.1671 22.232 14.2316 22.232C14.2454 22.232 14.2592 22.232 14.273 22.2273L16.1599 21.799C16.2474 21.7803 16.3072 21.7059 16.3118 21.6128L16.3992 19.6763L19.469 18.8849H19.4736C19.4782 18.8849 19.4782 18.8849 19.4828 18.8849C19.4874 18.8849 19.4874 18.8849 19.492 18.8803C19.5058 18.8756 19.5196 18.871 19.5288 18.8616C19.5334 18.8616 19.5334 18.857 19.538 18.857C19.5426 18.857 19.5426 18.8523 19.5472 18.8523C19.5564 18.8477 19.561 18.8384 19.5702 18.8337L19.5748 18.8291C19.584 18.8197 19.5932 18.8057 19.5978 18.7918C19.5978 18.7918 19.5978 18.7871 19.6024 18.7871C19.6024 18.7825 19.607 18.7778 19.607 18.7732L20.2605 17.1718L22.9805 15.3563C23.0357 15.3097 23.0679 15.2353 23.0587 15.1608ZM21.8253 9.19297L19.966 9.79813C19.7957 9.49089 19.4736 9.28607 19.1008 9.28607C19.0824 9.28607 19.064 9.28607 19.0455 9.28607L17.8996 4.87769L21.8253 9.19297ZM17.605 13.8946C17.5728 13.89 17.5406 13.89 17.5084 13.89C17.2184 13.89 16.9607 14.0389 16.8042 14.2624L12.5747 12.5958C12.5839 12.5446 12.5885 12.4935 12.5885 12.4376C12.5885 12.4143 12.5885 12.391 12.5839 12.3724L18.2217 10.7431C18.3046 10.906 18.4334 11.0457 18.5853 11.1388L17.605 13.8946ZM18.0008 14.7558C18.0008 14.8815 17.9548 14.9932 17.8812 15.0817C17.7937 15.1841 17.6695 15.2493 17.5268 15.2586C17.5176 15.2586 17.513 15.2586 17.5038 15.2586C17.4347 15.2586 17.3749 15.2446 17.3151 15.2213C17.1908 15.1701 17.0896 15.0677 17.0436 14.9374C17.0251 14.8861 17.0159 14.835 17.0113 14.7791C17.0113 14.7745 17.0113 14.7651 17.0113 14.7604C17.0113 14.6254 17.0666 14.4997 17.154 14.4067C17.2368 14.3229 17.3519 14.2671 17.4762 14.2578C17.4854 14.2578 17.4946 14.2578 17.5084 14.2578C17.6372 14.2578 17.7569 14.3089 17.8489 14.3928C17.941 14.4811 18.0008 14.6115 18.0008 14.7558ZM14.9909 16.9531C14.816 16.8274 14.5997 16.7528 14.365 16.7528C14.2592 16.7528 14.1533 16.7668 14.0567 16.7995L12.2342 13.1917C12.3124 13.1312 12.3768 13.0567 12.4321 12.9729L16.6616 14.6395C16.657 14.6767 16.6524 14.7186 16.6524 14.7604C16.6524 14.9234 16.6984 15.0724 16.772 15.2027L14.9909 16.9531ZM15.0554 17.8468C15.0554 17.9539 15.0324 18.061 14.9863 18.1541C14.8759 18.3868 14.6366 18.5497 14.3604 18.5497C14.3006 18.5497 14.2454 18.5404 14.1855 18.5264C14.0521 18.4939 13.937 18.4194 13.8496 18.3217C13.7345 18.196 13.6655 18.0284 13.6655 17.8468C13.6655 17.6467 13.7483 17.465 13.8818 17.3395C13.9784 17.2463 14.0981 17.1858 14.2316 17.1578C14.273 17.1485 14.3144 17.1439 14.3604 17.1439C14.4847 17.1439 14.5997 17.1764 14.701 17.2324C14.816 17.2975 14.9127 17.3953 14.9725 17.5163C15.0093 17.5907 15.037 17.6699 15.0462 17.7584C15.0554 17.7863 15.0554 17.8142 15.0554 17.8468ZM12.2158 12.4422C12.2158 12.5912 12.1605 12.7215 12.0731 12.8239C12.0685 12.8286 12.0639 12.8332 12.0593 12.8379C11.9718 12.931 11.8614 12.9962 11.7325 13.0149L11.7279 13.0474L11.7141 13.0195C11.6911 13.0242 11.6681 13.0242 11.6405 13.0242C11.5346 13.0242 11.4334 12.9962 11.3459 12.945C11.1756 12.8426 11.0606 12.6564 11.0606 12.4422C11.0606 12.2607 11.1434 12.0931 11.2769 11.986C11.3735 11.9069 11.5024 11.8557 11.6405 11.8557C11.6451 11.8557 11.6451 11.8557 11.6497 11.8557C11.7003 11.8557 11.7463 11.865 11.7923 11.8743C11.9212 11.9115 12.0317 11.9907 12.1099 12.0978L12.1237 12.0931L12.1145 12.1024C12.1743 12.2049 12.2158 12.3212 12.2158 12.4422ZM12.0133 11.5624C11.8982 11.5112 11.7739 11.4833 11.6405 11.4833C11.6037 11.4833 11.5622 11.4879 11.5254 11.4926L10.9455 9.78417C11.171 9.63521 11.3229 9.37917 11.3229 9.0859C11.3229 9.03469 11.3183 8.97883 11.3091 8.92762L14.6688 7.36352C14.7102 7.42869 14.7608 7.48455 14.8114 7.54041L12.0133 11.5624ZM9.78575 9.49089L7.89882 11.2831L9.96524 6.21371L9.97445 6.19043L9.97905 6.21371L10.2138 8.3085C9.90081 8.42487 9.6799 8.72746 9.6799 9.0859C9.6799 9.23486 9.72132 9.36986 9.78575 9.49089ZM14.5031 7.00507L11.1434 8.56919C11.0146 8.40626 10.8259 8.29454 10.6096 8.26661L10.3748 6.1718C10.5635 6.10198 10.72 5.95767 10.8121 5.77612L14.4709 6.62335C14.4709 6.64663 14.4709 6.6699 14.4709 6.69318C14.4617 6.80024 14.4755 6.90266 14.5031 7.00507ZM10.4807 5.53871C10.4623 5.58991 10.4347 5.63647 10.4025 5.67836C10.3794 5.70629 10.3564 5.72491 10.3288 5.74819C10.2598 5.79475 10.1815 5.82268 10.0941 5.82268C9.96524 5.82268 9.85019 5.76215 9.77195 5.66905C9.71212 5.59457 9.6799 5.50612 9.6799 5.40372C9.6799 5.35251 9.68911 5.30595 9.70751 5.2594C9.75354 5.12906 9.86399 5.02665 10.0021 4.99872C10.0343 4.98941 10.0665 4.98941 10.0987 4.98941C10.2322 4.98941 10.3518 5.05458 10.4255 5.15234C10.4577 5.19423 10.4807 5.24544 10.4991 5.29665C10.5083 5.33388 10.5129 5.37112 10.5129 5.40837C10.4991 5.45026 10.4945 5.49682 10.4807 5.53871ZM10.2598 8.6809C10.3288 8.63901 10.4163 8.61108 10.5037 8.61108C10.5543 8.61108 10.605 8.62039 10.651 8.63436C10.7108 8.65298 10.766 8.68557 10.8121 8.7228C10.9133 8.81125 10.9777 8.93694 10.9777 9.0859C10.9777 9.2209 10.9225 9.34193 10.8305 9.43038C10.7476 9.50952 10.6326 9.56072 10.5083 9.56072C10.4945 9.56072 10.4761 9.56072 10.4623 9.55607C10.4163 9.55142 10.3748 9.5421 10.3334 9.52349C10.2092 9.47228 10.1079 9.36521 10.0665 9.23486C10.0527 9.18832 10.0435 9.13711 10.0435 9.08125C10.0297 8.91366 10.1217 8.76004 10.2598 8.6809ZM15.1336 7.76851C15.2901 7.84299 15.4604 7.88488 15.6445 7.88488C15.893 7.88488 16.1231 7.80574 16.3164 7.67074L18.2908 9.719C18.1803 9.88192 18.1159 10.0728 18.1159 10.2869C18.1159 10.3149 18.1159 10.3381 18.1205 10.3661L12.4827 11.9953C12.4459 11.9208 12.3952 11.851 12.34 11.7905L15.1336 7.76851ZM14.8897 6.68852C14.8897 6.55818 14.9219 6.43714 14.9771 6.33008C15.106 6.08801 15.3545 5.92508 15.6445 5.92508C16.0587 5.92508 16.3992 6.2649 16.3992 6.68852C16.3992 6.83283 16.3624 6.96317 16.2934 7.07955C16.2243 7.19593 16.1277 7.28903 16.0126 7.3542C15.9022 7.41471 15.7779 7.45196 15.6445 7.45196C15.5524 7.45196 15.465 7.43799 15.3867 7.40541C15.1382 7.31231 14.9495 7.08886 14.9035 6.81886C14.8989 6.78628 14.8943 6.7537 14.8943 6.72111C14.8897 6.71179 14.8897 6.70249 14.8897 6.68852ZM18.5853 10.6454C18.5163 10.543 18.4795 10.4219 18.4795 10.2869C18.4795 10.2776 18.4795 10.2683 18.4795 10.2636C18.4841 10.1659 18.5071 10.0774 18.5485 9.99364C18.5991 9.89589 18.6728 9.8121 18.7648 9.75624C18.7878 9.74227 18.8062 9.72831 18.8292 9.719C18.9121 9.6771 19.0041 9.65382 19.1054 9.65382C19.1192 9.65382 19.133 9.65382 19.1422 9.65382C19.3355 9.66314 19.5058 9.76555 19.6116 9.91452C19.6853 10.0216 19.7313 10.1473 19.7313 10.2869V10.2916C19.7313 10.5383 19.5886 10.7524 19.3861 10.8548C19.3033 10.8967 19.2066 10.92 19.1054 10.92C19.1008 10.92 19.0916 10.92 19.087 10.92C19.0547 10.92 19.0271 10.9154 18.9995 10.9107C18.8937 10.8921 18.797 10.8502 18.7188 10.785C18.6682 10.7478 18.6221 10.6966 18.5853 10.6454ZM18.6682 9.38849C18.6313 9.4071 18.5991 9.42572 18.5669 9.44435L16.5971 7.3961C16.7398 7.20059 16.8272 6.95386 16.8272 6.68852C16.8272 6.0275 16.298 5.49216 15.6445 5.49216C15.152 5.49216 14.7286 5.7994 14.5537 6.23232L11.102 5.43165L17.3657 4.37959L18.6682 9.38849ZM16.4407 4.13287L10.8259 5.07785C10.7016 4.78924 10.4163 4.58441 10.0849 4.58441C9.95144 4.58441 9.82257 4.61699 9.71212 4.67752L7.62268 2.28479L16.4407 4.13287ZM7.18086 2.38255L9.41757 4.94285C9.33013 5.0732 9.2749 5.23147 9.2749 5.40372C9.2749 5.67371 9.40376 5.91112 9.60166 6.06008L7.48922 11.2412C7.4478 11.2365 7.41098 11.2319 7.36956 11.2319C7.30973 11.2319 7.2499 11.2365 7.19467 11.2505L6.15916 9.14642C6.42609 8.94625 6.60098 8.62039 6.60098 8.25729C6.60098 7.8104 6.33864 7.42403 5.96126 7.25179L7.18086 2.38255ZM5.97967 8.77401C5.88302 8.86246 5.76336 8.92762 5.62989 8.9509C5.58847 8.96021 5.55166 8.96021 5.51023 8.96021C5.45041 8.96021 5.39058 8.9509 5.33535 8.93694C5.20188 8.90436 5.08682 8.82987 4.99938 8.73211C4.90273 8.6297 4.8383 8.4947 4.81989 8.34574C4.81529 8.31781 4.81529 8.28522 4.81529 8.25263C4.81529 8.14557 4.8383 8.04316 4.87972 7.95471C4.98557 7.72195 5.21569 7.55902 5.48262 7.54971C5.49183 7.54971 5.50103 7.54971 5.51023 7.54971C5.6391 7.54971 5.75876 7.58695 5.86461 7.64748C6.06711 7.76851 6.20518 7.99661 6.20518 8.25263C6.20058 8.46212 6.11774 8.64832 5.97967 8.77401ZM6.72984 2.58272L5.58387 7.15869C5.56086 7.15869 5.53325 7.15403 5.51023 7.15403C5.0316 7.15403 4.6266 7.46592 4.47472 7.89885L1.6121 7.44731L6.72984 2.58272ZM1.44642 7.81971L4.41029 8.28522C4.41949 8.60643 4.56217 8.89504 4.78768 9.09055L2.68904 12.6657L1.44642 7.81971ZM5.12364 9.30004C5.2433 9.34658 5.37217 9.36986 5.50563 9.36986C5.61149 9.36986 5.71274 9.3559 5.80938 9.32797L6.8449 11.4321C6.67001 11.5811 6.55955 11.8045 6.55495 12.0512L3.0158 12.8799L5.12364 9.30004ZM3.54966 13.1592L6.38927 12.4935L4.99018 13.4478L3.54966 13.1592ZM7.17626 16.0453L5.31694 13.7038L6.82649 12.6703C6.92314 12.7588 7.04279 12.8239 7.17626 12.8612V16.0453ZM7.37416 12.5028C7.30512 12.5028 7.23609 12.4842 7.17626 12.4562L7.15785 12.4469C7.11183 12.4189 7.07041 12.3864 7.03359 12.3445C6.98296 12.2793 6.94615 12.2049 6.93694 12.1164C6.93234 12.0978 6.93234 12.0792 6.93234 12.0605C6.93234 12.0233 6.93694 11.9907 6.94615 11.9581C6.95995 11.8976 6.98757 11.8464 7.01978 11.7951C7.09342 11.6974 7.20848 11.6276 7.33734 11.6183L7.35115 11.5811L7.36956 11.6183C7.42018 11.6183 7.47081 11.6276 7.51683 11.6462C7.58586 11.6742 7.6503 11.716 7.69632 11.7719C7.73774 11.8185 7.76535 11.8743 7.78376 11.9349C7.79757 11.9767 7.80217 12.0186 7.80217 12.0605C7.80217 12.135 7.78376 12.2095 7.74694 12.27C7.70552 12.3492 7.64109 12.4143 7.55825 12.4515C7.51683 12.4749 7.47081 12.4888 7.42478 12.4935C7.41558 12.4981 7.39257 12.5028 7.37416 12.5028ZM7.57206 16.4317V12.8612C7.60427 12.8519 7.63649 12.8426 7.6687 12.8332L10.3748 16.7854L7.57206 16.4317ZM7.98626 12.6051C8.11513 12.4608 8.18876 12.27 8.18876 12.0605C8.18876 11.9115 8.15194 11.7765 8.08291 11.6555L10.0527 9.78417C10.1816 9.86796 10.3334 9.91917 10.4991 9.91917C10.5221 9.91917 10.5451 9.91917 10.5727 9.91452L11.1526 11.6229C10.8765 11.7905 10.6924 12.0978 10.6924 12.4469C10.6924 12.8472 10.9317 13.1871 11.2769 13.3314L10.6786 16.5295L7.98626 12.6051ZM12.8647 19.9975L10.9916 16.9949L11.6589 13.4058C11.7371 13.4058 11.8108 13.3918 11.8844 13.3732L13.7069 16.981C13.4492 17.1811 13.2835 17.4931 13.2835 17.8468C13.2835 18.1727 13.4262 18.466 13.6517 18.6661L12.8647 19.9975ZM15.916 21.4406L14.3052 21.8083L13.3801 20.4491L15.9942 19.7741L15.916 21.4406ZM13.2835 20.0627L13.9876 18.8663C14.1027 18.9128 14.2316 18.9361 14.365 18.9361C14.8345 18.9361 15.2303 18.6335 15.3821 18.2146L18.4657 18.7313L13.2835 20.0627ZM15.442 17.8235C15.4374 17.6047 15.3729 17.4046 15.2625 17.237L17.0482 15.482C17.1816 15.5658 17.3381 15.617 17.5084 15.617C17.5728 15.617 17.6372 15.6077 17.6971 15.5938L19.0732 18.4241L15.442 17.8235ZM19.3999 18.2053L18.0468 15.4215C18.2355 15.2632 18.3598 15.0211 18.3598 14.7558C18.3598 14.4532 18.2033 14.1879 17.9732 14.0296L18.9581 11.2785C18.9903 11.2831 19.0225 11.2878 19.0547 11.2878L19.897 17.0042L19.3999 18.2053ZM20.2421 16.697L19.4413 11.2319C19.8233 11.0922 20.0949 10.7245 20.0949 10.2869C20.0949 10.2497 20.0949 10.2124 20.0903 10.1752L22.014 9.54675L22.6583 15.0817L20.2421 16.697Z"
    fill="var(--tbl--ui-node-icon--enrichment--people-data-labs)"
    stroke="var(--tbl--ui-node-icon--enrichment--people-data-labs)"
    stroke-width="0.325758"
    stroke-linejoin="round"
  />
</svg>
