<svg xmlns="http://www.w3.org/2000/svg" width="24" height="24" fill="none" viewBox="0 0 24 24">
  <rect x="2" y="2" width="20" height="20" rx="3" fill="var(--tbl--ui-node-icon--enrichment--prospeo-primary)"/>
  <path
    d="M6 8.64407L10.3448 11.2881M6 8.64407L10.3448 6L14.8138 8.56271M6 8.64407V13.6881L10.3448 16.2508M10.3448 11.2881L14.8138 8.56271M10.3448 11.2881V16.2508M14.8138 8.56271V10.3119M10.3448 16.2508L11.7517 15.3559M11.7517 15.3559V12.2644M11.7517 15.3559V16.0881L14.9379 18M11.7517 12.2644L14.9379 14.1356M11.7517 12.2644L14.8138 10.3119M14.9379 14.1356V18M14.9379 14.1356L17.9586 12.1831M14.9379 18L18 16.0881L17.9586 12.1831M17.9586 12.1831L14.8138 10.3119"
    stroke="var(--tbl--ui-node-icon--enrichment--prospeo-secondary)"
    stroke-width="0.75"
  />
</svg>
