<svg xmlns="http://www.w3.org/2000/svg" width="32" height="32" fill="none" viewBox="0 0 32 32">
  <rect x="2" y="2" width="28" height="28" rx="4" fill="var(--tbl--ui-node-icon--enrichment--prospeo-primary)"/>
  <path
    d="M8 11.5254L13.7931 15.0508M8 11.5254L13.7931 8L19.7517 11.4169M8 11.5254V18.2508L13.7931 21.6678M13.7931 15.0508L19.7517 11.4169M13.7931 15.0508V21.6678M19.7517 11.4169V13.7492M13.7931 21.6678L15.669 20.4746M15.669 20.4746V16.3525M15.669 20.4746V21.4508L19.9172 24M15.669 16.3525L19.9172 18.8475M15.669 16.3525L19.7517 13.7492M19.9172 18.8475V24M19.9172 18.8475L23.9448 16.2441M19.9172 24L24 21.4508L23.9448 16.2441M23.9448 16.2441L19.7517 13.7492"
    stroke="var(--tbl--ui-node-icon--enrichment--prospeo-secondary)"
    stroke-width="0.75"
  />
</svg>
