<svg width="24" height="24" viewBox="0 0 24 24" fill="none" xmlns="http://www.w3.org/2000/svg">
  <ellipse cx="12" cy="19" rx="6" ry="3" fill="var(--tbl--colors--icons--enrich--tertiary)" />
  <path
    d="M12 2C15.866 2 19 5.07734 19 8.87305C18.9998 12.5138 15.7793 16.9327 12.4277 18.7783C12.1607 18.9253 11.8393 18.9253 11.5723 18.7783C8.22074 16.9327 5.00018 12.5138 5 8.87305C5 5.07734 8.13401 2 12 2ZM12 7.09082C10.7951 7.09082 9.8185 8.0676 9.81836 9.27246C9.81836 10.4774 10.795 11.4541 12 11.4541C13.205 11.4541 14.1816 10.4774 14.1816 9.27246C14.1815 8.0676 13.2049 7.09082 12 7.09082Z"
    fill="var(--tbl--ui-node-icon--search-local-businesses-m)"
  />

  <defs>
    <linearGradient id="tbl--ui-node-icon--search-local-businesses-m" x1="12" y1="2" x2="12" y2="18.8886" gradientUnits="userSpaceOnUse">
      <stop stop-color="#A190F5"/>
      <stop offset="1" stop-color="#816BE6"/>
    </linearGradient>
  </defs>
</svg>
