<svg xmlns="http://www.w3.org/2000/svg" width="16" height="16" fill="none" viewBox="0 0 16 16">
  <path fill="currentColor" fill-rule="evenodd" d="M7.776 1.838a.5.5 0 0 1 .448 0l5.714 2.858a.5.5 0 0 1 0 .894L8.224 8.447a.5.5 0 0 1-.448 0L2.062 5.59a.5.5 0 0 1 0-.894l5.714-2.858ZM3.404 5.143 8 7.44l4.596-2.298L8 2.845 3.404 5.143ZM1.838 7.776a.5.5 0 0 1 .671-.223L8 10.298l5.49-2.745a.5.5 0 0 1 .448.894l-5.714 2.857a.5.5 0 0 1-.448 0L2.062 8.447a.5.5 0 0 1-.224-.67Zm0 2.857a.5.5 0 0 1 .671-.223L8 13.155l5.49-2.745a.5.5 0 0 1 .448.894l-5.714 2.857a.5.5 0 0 1-.448 0l-5.714-2.857a.5.5 0 0 1-.224-.67Z" clip-rule="evenodd"/>
</svg>
