<svg xmlns="http://www.w3.org/2000/svg" width="24" height="24" fill="none" viewBox="0 0 24 24">
  <path fill="var(--tbl--colors--icons--clean--secondary)" fill-rule="evenodd" d="M3.876 11.106a1 1 0 1 0-.895 1.789l8.572 4.285a1 1 0 0 0 .894 0l8.572-4.285a1 1 0 0 0-.895-1.79L12 15.169l-8.124-4.062Zm0 4a1 1 0 1 0-.895 1.789l8.572 4.285a1 1 0 0 0 .894 0l8.572-4.285a1 1 0 0 0-.895-1.79L12 19.169l-8.124-4.062Z" clip-rule="evenodd"/>
  <path fill="var(--tbl--colors--icons--clean--primary)" d="M12.447 3.224a1 1 0 0 0-.894 0L3.789 7.106a1 1 0 0 0 0 1.788l7.764 3.882a1 1 0 0 0 .894 0l7.764-3.882a1 1 0 0 0 0-1.788l-7.764-3.882Z"/>
</svg>
