<svg xmlns="http://www.w3.org/2000/svg" width="32" height="32" fill="none" viewBox="0 0 32 32">
  <path fill="var(--tbl--colors--icons--transformation--tertiary)" d="M3 6a3 3 0 0 1 3-3h20a3 3 0 0 1 3 3v1a3 3 0 0 1-3 3H6a3 3 0 0 1-3-3V6Z"/>
  <path fill="var(--tbl--colors--icons--transformation--primary)" fill-rule="evenodd" d="M10 26V3H6a3 3 0 0 0-3 3v20a3 3 0 0 0 3 3h1a3 3 0 0 0 3-3Zm2.793-2.207a1 1 0 0 0 0 1.414l3 3a1 1 0 0 0 1.414-1.414l-1.33-1.33c2.854-.158 5.583-.852 7.696-2.59 2.49-2.05 3.927-5.38 3.927-10.373a1 1 0 1 0-2 0c0 4.608-1.313 7.277-3.198 8.828-1.62 1.334-3.806 1.962-6.342 2.127l1.247-1.248a1 1 0 0 0-1.414-1.414l-3 3Z" clip-rule="evenodd"/>
</svg>
