<svg xmlns="http://www.w3.org/2000/svg" width="24" height="24" fill="none" viewBox="0 0 24 24">
  <path fill="var(--tbl--colors--icons--transformation--tertiary)" d="M3 4.5A1.5 1.5 0 0 1 4.5 3h15A1.5 1.5 0 0 1 21 4.5v2A1.5 1.5 0 0 1 19.5 8H3V4.5Z"/>
  <path fill="var(--tbl--colors--icons--transformation--primary)" fill-rule="evenodd" d="M3 4.5A1.5 1.5 0 0 1 4.5 3H8v16.5A1.5 1.5 0 0 1 6.5 21h-2A1.5 1.5 0 0 1 3 19.5v-15ZM14 16v1c1.565 0 2.795-.445 3.627-1.228C18.448 14.999 19 13.785 19 12a1 1 0 1 1 2 0c0 2.215-.699 4.001-2.002 5.228C17.704 18.445 15.934 19 14 19v1a1 1 0 0 1-1.707.707l-2-2a1 1 0 0 1 0-1.414l2-2A1 1 0 0 1 14 16Z" clip-rule="evenodd"/>
</svg>
