<svg xmlns="http://www.w3.org/2000/svg" width="32" height="32" fill="none" viewBox="0 0 32 32">
  <path fill="var(--tbl--colors--icons--transformation--tertiary)" d="M3 5C3 3.89543 3.89543 3 5 3H27C28.1046 3 29 3.89543 29 5V8C29 9.10457 28.1046 10 27 10H6C4.34315 10 3 8.65685 3 7V5Z" />
  <path fill="var(--tbl--colors--icons--transformation--primary)" fill-rule="evenodd" d="M10 27L10 3H5C3.89543 3 3 3.89543 3 5V27C3 28.1046 3.89543 29 5 29H8C9.10457 29 10 28.1046 10 27ZM12.7929 23.7929C12.4024 24.1834 12.4024 24.8166 12.7929 25.2071L15.7929 28.2071C16.1834 28.5976 16.8166 28.5976 17.2071 28.2071C17.5976 27.8166 17.5976 27.1834 17.2071 26.7929L15.8773 25.463C18.7313 25.3047 21.4602 24.6106 23.5729 22.8722C26.0627 20.8234 27.5 17.4921 27.5 12.5C27.5 11.9477 27.0523 11.5 26.5 11.5C25.9477 11.5 25.5 11.9477 25.5 12.5C25.5 17.1079 24.1873 19.7766 22.3021 21.3278C20.6812 22.6616 18.4956 23.2896 15.9597 23.4545L17.2071 22.2071C17.5976 21.8166 17.5976 21.1834 17.2071 20.7929C16.8166 20.4024 16.1834 20.4024 15.7929 20.7929L12.7929 23.7929Z" clip-rule="evenodd" />
</svg>
