<svg width="16" height="16" viewBox="0 0 16 16" fill="none" xmlns="http://www.w3.org/2000/svg">
  <rect
    x="2.1333"
    y="4"
    width="11.2"
    height="8"
    rx="2"
    stroke="var(--tbl--ui-node-icon--enrichment--mails-secondary)"
    stroke-opacity="0.8"
  />
  <path
    d="M1.66835 5.94496C0.897157 6.46506 0.0721634 8.04331 0.0183595 9.13732C-0.0354445 9.83677 0.0183595 9.94438 0.323249 9.94438C0.592268 9.94438 0.699876 9.78297 0.807484 9.19113C1.04063 7.75636 1.9553 6.44713 2.69062 6.44713C3.80257 6.44713 4.19713 7.07484 4.34061 9.04765C4.43028 10.3031 4.48409 10.4824 4.78898 10.4824C5.02213 10.4824 5.32702 10.1058 5.77538 9.227C6.65418 7.55907 7.3895 7.4156 7.40744 8.90417C7.40744 9.72917 7.71232 10.3927 8.07102 10.3927C8.23243 10.3927 8.66286 10.1058 9.02155 9.76504L9.6672 9.13732L10.4025 9.42428C11.102 9.6933 11.2455 9.6933 12.3215 9.42428C12.9672 9.26287 14.0074 9.13732 14.653 9.13732C15.765 9.13732 16.2313 8.92211 15.8905 8.58135C15.6394 8.33026 13.5411 8.33026 12.2319 8.59928C11.1916 8.8145 10.9585 8.79656 10.3128 8.54548C9.6134 8.25853 9.57753 8.25853 8.96775 8.68896C8.28623 9.13732 8.12482 9.04765 8.12482 8.16885C8.12482 7.5232 7.62265 6.98517 7.01287 6.98517C6.63625 6.98517 6.29549 7.16451 5.84712 7.61288C5.48843 7.97157 5.18354 8.22266 5.1656 8.20472C5.14767 8.16885 5.04006 7.82809 4.93245 7.43353C4.48409 5.83735 2.8879 5.11996 1.66835 5.94496Z"
    fill="var(--tbl--ui-node-icon--enrichment--mails-primary)"
  />
</svg>
