<svg width="24" height="24" viewBox="0 0 24 24" fill="none" xmlns="http://www.w3.org/2000/svg">
  <path
    fill-rule="evenodd"
    clip-rule="evenodd"
    d="M21.9873 15.25C22.3201 14.2267 22.5 13.1343 22.5 12C22.5 11.0031 22.3611 10.0387 22.1015 9.125H16.5603C16.6838 10.0387 16.75 11.0031 16.75 12C16.75 13.1343 16.6643 14.2267 16.5059 15.25H21.9873ZM21.6043 16.25H16.3235C15.5568 19.8831 13.8372 22.432 11.8306 22.4987C11.887 22.4996 11.9434 22.5 12 22.5C16.2863 22.5 19.9727 19.9317 21.6043 16.25ZM11.5227 22.4893C9.57926 22.3068 7.92447 19.7943 7.17652 16.25H2.39569C3.96639 19.7943 7.44144 22.3068 11.5227 22.4893ZM2.01266 15.25C1.67987 14.2267 1.5 13.1343 1.5 12C1.5 11.0031 1.63892 10.0387 1.89846 9.125H6.93974C6.81615 10.0387 6.75 11.0031 6.75 12C6.75 13.1343 6.83565 14.2267 6.99412 15.25H2.01266ZM2.23818 8.125H7.10151C7.80926 4.38402 9.51139 1.69961 11.5227 1.51065C7.29892 1.69961 3.72445 4.38402 2.23818 8.125ZM11.8306 1.50134C13.9056 1.57024 15.6736 4.29344 16.3985 8.125H21.7618C20.2199 4.2439 16.4304 1.5 12 1.5C11.9434 1.5 11.887 1.50045 11.8306 1.50134ZM15.75 12C15.75 13.1461 15.6586 14.2392 15.4933 15.25H8.00669C7.8414 14.2392 7.75 13.1461 7.75 12C7.75 10.9943 7.82039 10.0293 7.94932 9.125H15.5507C15.6796 10.0293 15.75 10.9943 15.75 12ZM9.11733 18.9947C8.74593 18.2148 8.43257 17.2872 8.19991 16.25H15.3001C15.0674 17.2872 14.7541 18.2148 14.3827 18.9947C13.5194 20.8076 12.5221 21.5 11.75 21.5C10.9779 21.5 9.98064 20.8076 9.11733 18.9947ZM8.1203 8.125C8.35878 6.93573 8.70172 5.87808 9.11733 5.00531C9.98064 3.19236 10.9779 2.5 11.75 2.5C12.5221 2.5 13.5194 3.19236 14.3827 5.00531C14.7983 5.87808 15.1412 6.93573 15.3797 8.125H8.1203Z"
    fill="var(--tbl--colors--icons--enrich--primary)"
  />
  <path
    fill-rule="evenodd"
    clip-rule="evenodd"
    d="M13.8575 21.5245C13.2399 22.1281 12.5539 22.4746 11.8306 22.4987C11.887 22.4996 11.9434 22.5 12 22.5C12.6817 22.5 13.3076 22.1505 13.8575 21.5245ZM11.5227 22.4893C7.44144 22.3068 3.96639 19.7943 2.39569 16.25H7.17652C7.92447 19.7943 9.57926 22.3068 11.5227 22.4893ZM2.01266 15.25H6.99412C6.83565 14.2267 6.75 13.1343 6.75 12C6.75 11.0031 6.81615 10.0387 6.93974 9.125H1.89846C1.63892 10.0387 1.5 11.0031 1.5 12C1.5 13.1343 1.67987 14.2267 2.01266 15.25ZM2.23818 8.125H7.10151C7.80926 4.38402 9.51139 1.69961 11.5227 1.51065C7.29892 1.69961 3.72445 4.38402 2.23818 8.125ZM11.8306 1.50134C11.887 1.50045 11.9434 1.5 12 1.5C12.6817 1.5 13.3076 1.84951 13.8575 2.47548C13.2399 1.8719 12.5539 1.52536 11.8306 1.50134ZM15.75 12C15.75 13.1461 15.6586 14.2392 15.4933 15.25H8.00669C7.8414 14.2392 7.75 13.1461 7.75 12C7.75 10.9943 7.82039 10.0293 7.94932 9.125H15.5507C15.6796 10.0293 15.75 10.9943 15.75 12ZM8.19991 16.25H15.3001C15.0674 17.2872 14.7541 18.2148 14.3827 18.9947C13.5194 20.8076 12.5221 21.5 11.75 21.5C10.9779 21.5 9.98064 20.8076 9.11733 18.9947C8.74593 18.2148 8.43257 17.2872 8.19991 16.25ZM8.1203 8.125C8.35878 6.93573 8.70172 5.87808 9.11733 5.00531C9.98064 3.19236 10.9779 2.5 11.75 2.5C12.5221 2.5 13.5194 3.19236 14.3827 5.00531C14.7983 5.87808 15.1412 6.93573 15.3797 8.125H8.1203Z"
    fill="var(--tbl--colors--icons--enrich--secondary)"
  />
</svg>
