<svg width="32" height="32" viewBox="0 0 32 32" fill="none" xmlns="http://www.w3.org/2000/svg">
  <path
    fill-rule="evenodd"
    clip-rule="evenodd"
    d="M29.2611 20.5C29.7402 19.0877 30 17.5742 30 16C30 14.6101 29.7974 13.2674 29.4202 12H22.7101C22.8987 13.2674 23 14.6101 23 16C23 17.5742 22.8701 19.0877 22.6305 20.5H29.2611ZM28.8783 21.5H22.4392C21.3705 26.4979 18.8898 30 16 30C13.1102 30 10.6295 26.4979 9.56085 21.5H3.1217C5.25893 26.4979 10.2205 30 16 30C21.7795 30 26.7411 26.4979 28.8783 21.5ZM2.73891 20.5C2.25982 19.0877 2 17.5742 2 16C2 14.6101 2.20256 13.2674 2.57976 12H9.28988C9.10128 13.2674 9 14.6101 9 16C9 17.5742 9.12991 19.0877 9.36945 20.5H2.73891ZM2.91926 11H9.45963C10.4661 5.73726 13.0148 2 16 2C18.9852 2 21.5339 5.73726 22.5404 11H29.0807C27.0679 5.73726 21.9704 2 16 2C10.0296 2 4.9321 5.73726 2.91926 11ZM22 16C22 17.587 21.8633 19.1014 21.6157 20.5H10.3843C10.1367 19.1014 10 17.587 10 16C10 14.6003 10.1063 13.2571 10.3013 12H21.6987C21.8937 13.2571 22 14.6003 22 16ZM11.9447 25.4523C11.3848 24.3325 10.9195 22.995 10.5845 21.5H21.4155C21.0805 22.995 20.6152 24.3325 20.0553 25.4523C18.8417 27.8795 17.3502 29 16 29C14.6498 29 13.1583 27.8795 11.9447 25.4523ZM10.4786 11C10.818 9.3025 11.3231 7.79093 11.9447 6.54772C13.1583 4.12052 14.6498 3 16 3C17.3502 3 18.8417 4.12052 20.0553 6.54772C20.6769 7.79093 21.182 9.3025 21.5214 11H10.4786Z"
    fill="var(--tbl--colors--icons--enrich--primary)"
  />
  <path
    fill-rule="evenodd"
    clip-rule="evenodd"
    d="M22.6438 20.5C22.8756 19.0877 23 17.5742 23 16C23 14.6101 22.9031 13.2674 22.7208 12H22.7101C22.8987 13.2674 23 14.6101 23 16C23 17.5742 22.8701 19.0877 22.6305 20.5H22.6438ZM22.4583 21.5H22.4392C21.3705 26.4979 18.8898 30 16 30C13.1102 30 10.6295 26.4979 9.56085 21.5H3.1217C5.25893 26.4979 10.2205 30 16 30C18.9899 30 21.4211 26.4979 22.4583 21.5ZM2.73891 20.5C2.25982 19.0877 2 17.5742 2 16C2 14.6101 2.20256 13.2674 2.57976 12H9.28988C9.10128 13.2674 9 14.6101 9 16C9 17.5742 9.12991 19.0877 9.36945 20.5H2.73891ZM2.91926 11H9.45963C10.4661 5.73726 13.0148 2 16 2C18.9852 2 21.5339 5.73726 22.5404 11H22.5565C21.5811 5.73726 19.0887 2 16 2C10.0296 2 4.9321 5.73726 2.91926 11ZM22 16C22 17.587 21.8633 19.1014 21.6157 20.5H10.3843C10.1367 19.1014 10 17.587 10 16C10 14.6003 10.1063 13.2571 10.3013 12H21.6987C21.8937 13.2571 22 14.6003 22 16ZM11.9447 25.4523C11.3848 24.3325 10.9195 22.995 10.5845 21.5H21.4155C21.0805 22.995 20.6152 24.3325 20.0553 25.4523C18.8417 27.8795 17.3502 29 16 29C14.6498 29 13.1583 27.8795 11.9447 25.4523ZM10.4786 11C10.818 9.3025 11.3231 7.79093 11.9447 6.54772C13.1583 4.12052 14.6498 3 16 3C17.3502 3 18.8417 4.12052 20.0553 6.54772C20.6769 7.79093 21.182 9.3025 21.5214 11H10.4786Z"
    fill="var(--tbl--colors--icons--enrich--secondary)"
  />
</svg>
