<svg width="32" height="32" viewBox="0 0 32 32" fill="none" xmlns="http://www.w3.org/2000/svg">
  <path
    d="M16.4121 1.23145L28.5703 8.0625L29 8.30371V23.6914L28.5703 23.9326L16.4121 30.7637L16 30.9951L15.5869 30.7637L3.42969 23.9326L3 23.6914V8.30371L3.42969 8.0625L15.5869 1.23145L16 1L16.4121 1.23145ZM4.68359 9.28809V22.7061L15.999 29.0625L27.3154 22.7061V9.28809L15.999 2.93164L4.68359 9.28809ZM21.5508 8.7832L24.7842 10.9316L25.1602 11.1816V16.7715H23.4756V13.2656L17.2627 17.6895L16.8281 17.999L16.3623 17.7383L8.99414 13.6064V20.1885L11.8193 21.8867L12.541 22.3213L11.6729 23.7646L10.9512 23.3301L7.71875 21.3867L7.31055 21.1416V10.7324L8.56445 11.4355L16.7188 16.0078L22.8311 11.6562L20.6191 10.1855L19.917 9.71973L20.8496 8.31738L21.5508 8.7832Z"
    fill="var(--tbl--ui-node-icon--enrichment--mail-checker)"
  />
</svg>
