<svg width="18" height="18" viewBox="0 0 18 18" fill="none" xmlns="http://www.w3.org/2000/svg">
  <path
    d="M9.23169 0.692627L16.0696 4.53442L16.3118 4.67017V13.3264L16.0696 13.4622L9.23169 17.304L8.99927 17.4348L8.76685 17.304L1.92798 13.4622L1.68677 13.3264V4.67017L1.92798 4.53442L8.76685 0.692627L8.99927 0.562744L9.23169 0.692627ZM2.63403 5.22485V12.7708L8.99927 16.3479L15.3645 12.7708V5.22485L8.99927 1.64868L2.63403 5.22485ZM12.1233 4.94067L13.9417 6.14868L14.1526 6.28931V9.43384H13.2053V7.46216L9.71021 9.95044L9.46606 10.1252L9.20435 9.97778L5.05981 7.65356V11.3557L6.64868 12.3118L7.05493 12.5559L6.56665 13.3674L6.1604 13.1233L4.34204 12.0305L4.11255 11.8918V6.03735L4.81763 6.43286L9.40552 9.00415L12.843 6.55591L11.5989 5.72974L11.2043 5.46802L11.7288 4.67896L12.1233 4.94067Z"
    fill="var(--tbl--ui-node-icon--enrichment--mail-checker)"
  />
</svg>
