<svg width="24" height="24" viewBox="0 0 24 24" fill="none" xmlns="http://www.w3.org/2000/svg">
  <path
    d="M12.3086 0.922852L21.4268 6.0459L21.749 6.22656V17.7676L21.4268 17.9492L12.3086 23.0723L11.999 23.2451L11.6904 23.0723L2.57129 17.9492L2.24902 17.7676V6.22656L2.57129 6.0459L11.6904 0.922852L11.999 0.749023L12.3086 0.922852ZM3.5127 6.96582V17.0283L11.999 21.7969L20.4863 17.0283V6.96582L11.999 2.19727L3.5127 6.96582ZM16.1631 6.58691L18.5879 8.19824L18.8701 8.38574V12.5791H17.6064V9.94922L12.9473 13.2676L12.6211 13.499L12.2715 13.3037L6.74609 10.2051V15.1406L8.86426 16.415L9.40625 16.7402L8.75488 17.8232L8.21387 17.498L5.78906 16.04L5.48242 15.8564V8.04883L6.42285 8.57617L12.5391 12.0059L17.123 8.74219L15.4639 7.63965L14.9385 7.29004L15.6367 6.2373L16.1631 6.58691Z"
    fill="var(--tbl--ui-node-icon--enrichment--mail-checker)"
  />
</svg>
