<svg xmlns="http://www.w3.org/2000/svg" width="16" height="16" fill="none" viewBox="0 0 16 16">
  <path fill="currentColor" fill-rule="evenodd" d="m2.973 7.512 4.968-5.677c1.026-1.173 2.939-.197 2.59 1.322L9.882 6h1.912c1.336 0 2.006 1.616 1.06 2.56l-5.716 5.717c-1.107 1.107-2.957-.01-2.493-1.505l.955.296c-.155.499.462.87.831.502l5.716-5.716A.5.5 0 0 0 11.793 7H8.626l.229-1 .702-3.066c.116-.506-.522-.832-.864-.44L3.726 8.17A.5.5 0 0 0 4.102 9H6.86l-.31 1-.952 3.068-.955-.296.86-2.772H4.101c-1.289 0-1.978-1.518-1.129-2.488Z" clip-rule="evenodd"/>
</svg>
