<svg xmlns="http://www.w3.org/2000/svg" width="32" height="32" fill="none" viewBox="0 0 32 32">
  <path
    d="M27 2H5C3.34315 2 2 3.34315 2 5V27C2 28.6569 3.34315 30 5 30H27C28.6569 30 30 28.6569 30 27V5C30 3.34315 28.6569 2 27 2Z"
    fill="var(--tbl--ui-node-icon--enrichment--company-enrich-primary)"
  />
  <path
    d="M14.7494 22.9999C14.1735 22.9999 13.5976 22.7713 13.1589 22.3163L8.65945 17.6498C7.77981 16.7375 7.77981 15.2629 8.65945 14.3506L13.1589 9.68413C14.0386 8.77187 15.4603 8.77187 16.34 9.68413C17.2197 10.5965 17.2197 12.0711 16.34 12.9833L13.4311 16.0002L16.34 19.0171C17.2197 19.9294 17.2197 21.404 16.34 22.3163C15.9013 22.7713 15.3253 22.9999 14.7494 22.9999Z"
    fill="var(--tbl--ui-node-icon--enrichment--company-enrich-secondary)"
  />
  <path
    d="M17.2503 22.9999C16.6744 22.9999 16.0985 22.7713 15.6597 22.3163C14.7802 21.404 14.7802 19.9294 15.6597 19.0171L18.5686 16.0002L15.6597 12.9833C14.7802 12.0711 14.7802 10.5965 15.6597 9.68413C16.5394 8.77187 17.9613 8.77187 18.8408 9.68413L23.3403 14.3506C24.2199 15.2629 24.2199 16.7375 23.3403 17.6498L18.8408 22.3163C18.4022 22.7713 17.8263 22.9999 17.2503 22.9999Z"
    fill="var(--tbl--ui-node-icon--enrichment--company-enrich-secondary)"
    fill-opacity="0.71"
  />
</svg>
