<svg width="16" height="16" viewBox="0 0 16 16" fill="none" xmlns="http://www.w3.org/2000/svg">
  <path
    d="M13.5 1H2.5C1.67157 1 1 1.67157 1 2.5V13.5C1 14.3284 1.67157 15 2.5 15H13.5C14.3284 15 15 14.3284 15 13.5V2.5C15 1.67157 14.3284 1 13.5 1Z"
    fill="var(--tbl--ui-node-icon--enrichment--company-enrich-primary)"
  />
  <path
    d="M7.37472 11.4999C7.08677 11.4999 6.79878 11.3857 6.57945 11.1582L4.32973 8.82491C3.8899 8.36874 3.8899 7.63144 4.32973 7.17531L6.57945 4.84207C7.01928 4.38594 7.73016 4.38594 8.17 4.84207C8.60983 5.29824 8.60983 6.03554 8.17 6.49167L6.71556 8.00009L8.17 9.50854C8.60983 9.96468 8.60983 10.702 8.17 11.1582C7.95067 11.3857 7.66267 11.4999 7.37472 11.4999Z"
    fill="var(--tbl--ui-node-icon--enrichment--company-enrich-secondary)"
  />
  <path
    d="M8.62515 11.4999C8.3372 11.4999 8.04925 11.3857 7.82987 11.1582C7.39008 10.702 7.39008 9.96468 7.82987 9.50854L9.28431 8.00009L7.82987 6.49167C7.39008 6.03554 7.39008 5.29824 7.82987 4.84207C8.26971 4.38594 8.98063 4.38594 9.42042 4.84207L11.6701 7.17531C12.11 7.63144 12.11 8.36874 11.6701 8.82491L9.42042 11.1582C9.20109 11.3857 8.91314 11.4999 8.62515 11.4999Z"
    fill="var(--tbl--ui-node-icon--enrichment--company-enrich-secondary)"
    fill-opacity="0.71"
  />
</svg>
