<svg xmlns="http://www.w3.org/2000/svg" width="32" height="32" fill="none" viewBox="0 0 32 32">
  <svg width="32" height="32" viewBox="0 0 32 32" fill="none" xmlns="http://www.w3.org/2000/svg">
    <path d="M5.89932 2.09359C5.62996 2.15021 5.09833 2.34129 4.72973 2.52529C4.16974 2.80129 3.95709 2.95699 3.44672 3.45946C2.96471 3.94778 2.78041 4.1884 2.54649 4.66964C1.95815 5.86566 2.00068 4.97395 2.00068 15.9929C2.00068 27.0119 1.95815 26.1202 2.54649 27.3162C2.78041 27.7974 2.96471 28.0381 3.44672 28.5264C3.95709 29.0289 4.16974 29.1846 4.72973 29.4606C5.92058 30.0409 5.26136 30.0126 16.2484 29.9913C27.0796 29.963 26.2148 30.0055 27.2922 29.4676C28.5043 28.859 29.3266 27.9107 29.8015 26.5731L30 26.007V15.9929V5.97889L29.8015 5.41273C29.3266 4.07516 28.5043 3.12684 27.2922 2.51821C26.2148 1.98036 27.0937 2.01574 16.1776 2.00159C7.8699 1.99451 6.31754 2.00867 5.89932 2.09359ZM20.3668 7.43677C22.3232 7.77646 24.0032 9.06449 24.8254 10.8479C25.5414 12.3978 25.5414 14.2803 24.8254 15.8302C24.1804 17.2243 22.9328 18.392 21.5222 18.9228C20.5724 19.2767 20.1613 19.3191 17.5952 19.3191H15.2206L15.2561 19.0502C15.2773 18.9087 15.3907 17.7763 15.5041 16.5308C15.6247 15.2923 15.7522 14.2166 15.7948 14.1458C15.8586 14.0255 15.9578 14.0113 16.8793 14.0113H17.9L18.0843 14.3227C18.46 14.9597 19.0271 15.2852 19.7927 15.2852C20.9481 15.2852 21.742 14.4926 21.742 13.339C21.742 12.1855 20.9481 11.3999 19.7927 11.3928C19.0058 11.3928 18.375 11.7679 18.0205 12.4544L17.9071 12.6667H16.4965C15.7239 12.6667 15.008 12.695 14.9087 12.7375C14.8095 12.7729 14.6819 12.8719 14.6252 12.9639C14.5472 13.0843 14.3771 14.6412 13.9801 18.7884C13.6824 21.9023 13.4272 24.4925 13.4131 24.5349C13.3918 24.6057 12.8105 24.6269 10.8258 24.6269H8.27394L8.04711 24.4217C7.83446 24.2306 7.8132 24.1811 7.82737 23.8343C7.8699 22.8718 9.35139 7.93924 9.41518 7.76231C9.59239 7.33769 9.33012 7.35892 14.8662 7.35892C18.0985 7.35892 20.0975 7.38723 20.3668 7.43677Z" fill="#2C6EE8"/>
  </svg>


  <path
    fill-rule="evenodd"
    clip-rule="evenodd"
    d="M5.89932 2.09359C5.62996 2.15021 5.09833 2.34129 4.72973 2.52529C4.16974 2.80129 3.95709 2.95699 3.44672 3.45946C2.96471 3.94778 2.78041 4.1884 2.54649 4.66964C1.95815 5.86566 2.00068 4.97395 2.00068 15.9929C2.00068 27.0119 1.95815 26.1202 2.54649 27.3162C2.78041 27.7974 2.96471 28.0381 3.44672 28.5264C3.95709 29.0289 4.16974 29.1846 4.72973 29.4606C5.92058 30.0409 5.26136 30.0126 16.2484 29.9913C27.0796 29.963 26.2148 30.0055 27.2922 29.4676C28.5043 28.859 29.3266 27.9107 29.8015 26.5731L30 26.007V15.9929V5.97889L29.8015 5.41273C29.3266 4.07516 28.5043 3.12684 27.2922 2.51821C26.2148 1.98036 27.0937 2.01574 16.1776 2.00159C7.8699 1.99451 6.31754 2.00867 5.89932 2.09359ZM20.3668 7.43677C22.3232 7.77646 24.0032 9.06449 24.8254 10.8479C25.5414 12.3978 25.5414 14.2803 24.8254 15.8302C24.1804 17.2243 22.9328 18.392 21.5222 18.9228C20.5724 19.2767 20.1613 19.3191 17.5952 19.3191H15.2206L15.2561 19.0502C15.2773 18.9087 15.3907 17.7763 15.5041 16.5308C15.6247 15.2923 15.7522 14.2166 15.7948 14.1458C15.8586 14.0255 15.9578 14.0113 16.8793 14.0113H17.9L18.0843 14.3227C18.46 14.9597 19.0271 15.2852 19.7927 15.2852C20.9481 15.2852 21.742 14.4926 21.742 13.339C21.742 12.1855 20.9481 11.3999 19.7927 11.3928C19.0058 11.3928 18.375 11.7679 18.0205 12.4544L17.9071 12.6667H16.4965C15.7239 12.6667 15.008 12.695 14.9087 12.7375C14.8095 12.7729 14.6819 12.8719 14.6252 12.9639C14.5472 13.0843 14.3771 14.6412 13.9801 18.7884C13.6824 21.9023 13.4272 24.4925 13.4131 24.5349C13.3918 24.6057 12.8105 24.6269 10.8258 24.6269H8.27394L8.04711 24.4217C7.83446 24.2306 7.8132 24.1811 7.82737 23.8343C7.8699 22.8718 9.35139 7.93924 9.41518 7.76231C9.59239 7.33769 9.33012 7.35892 14.8662 7.35892C18.0985 7.35892 20.0975 7.38723 20.3668 7.43677Z"
    fill="var(--tbl--ui-node-icon--enrichment--nubela)"
  />
</svg>
