<svg width="24" height="24" viewBox="0 0 24 24" fill="none" xmlns="http://www.w3.org/2000/svg">
  <path
    fill-rule="evenodd"
    clip-rule="evenodd"
    d="M12.75 9.61765C12.75 7.20452 12.75 5.25 12.75 5.25C15.1631 5.25 17.1176 7.20452 17.1176 9.61765C17.1176 12.0308 15.1631 13.9853 12.75 13.9853C12.75 13.9853 12.75 12.0308 12.75 9.61765ZM21 20.2941C21 21.75 20.5147 21.75 19.5441 21.75H12.75C12.75 21.75 12.75 20.6006 12.75 19.1447C12.75 15.2624 12.75 15.4412 12.75 15.4412C15.6618 15.4412 21 16.4118 21 20.2941Z"
    fill="var(--tbl--colors--icons--enrich--tertiary)"
  />
  <path
    fill-rule="evenodd"
    clip-rule="evenodd"
    d="M12 9.61765C12 7.20452 12 5.25 12 5.25C9.58688 5.25 7.63235 7.20452 7.63235 9.61765C7.63235 12.0308 9.58688 13.9853 12 13.9853C12 13.9853 12 12.0308 12 9.61765ZM3.75 20.2941C3.75 21.75 4.23529 21.75 5.20588 21.75H12C12 21.75 12 20.6006 12 19.1447C12 15.2624 12 15.4412 12 15.4412C9.08824 15.4412 3.75 16.4118 3.75 20.2941Z"
    fill="var(--tbl--colors--icons--enrich--primary)"
  />
</svg>

