<svg width="16" height="16" viewBox="0 0 16 16" fill="none" xmlns="http://www.w3.org/2000/svg">
  <path
    d="M8.5 6.91176C8.5 5.30301 8.5 4 8.5 4C10.1087 4 11.4118 5.30301 11.4118 6.91176C11.4118 8.52051 10.1087 9.82353 8.5 9.82353C8.5 9.82353 8.5 8.52051 8.5 6.91176ZM14 14.0294C14 15 13.6765 15 13.0294 15H8.5C8.5 15 8.5 14.2337 8.5 13.2632C8.5 10.6749 8.5 10.7941 8.5 10.7941C10.4412 10.7941 14 11.4412 14 14.0294Z"
    fill="var(--tbl--colors--icons--enrich--tertiary)"
  />
  <path
    d="M8 6.91176C8 5.30301 8 4 8 4C6.39125 4 5.08824 5.30301 5.08824 6.91176C5.08824 8.52051 6.39125 9.82353 8 9.82353C8 9.82353 8 8.52051 8 6.91176ZM2.5 14.0294C2.5 15 2.82353 15 3.47059 15H8C8 15 8 14.2337 8 13.2632C8 10.6749 8 10.7941 8 10.7941C6.05882 10.7941 2.5 11.4412 2.5 14.0294Z"
    fill="var(--tbl--colors--icons--enrich--primary)"
  />
</svg>
