<svg width="24" height="24" viewBox="0 0 24 24" fill="none" xmlns="http://www.w3.org/2000/svg">
  <path
    d="M8.17928 10.5C9.18468 10.5 9.68834 10.4998 10.1246 10.5986C10.4493 10.6723 10.7596 10.7859 11.0504 10.9336C10.4786 11.4002 10.0052 11.9865 9.66951 12.6611C9.30387 13.3961 9.16711 14.2744 8.97322 15.3936L8.75642 16.6426C8.6013 17.538 8.39509 18.4898 8.7242 19.4951C8.61566 19.4961 8.50534 19.4998 8.39314 19.5C7.10679 19.5028 6.03722 19.4537 5.17146 19.3838C4.27879 19.3116 3.83179 19.2753 3.37361 18.9375C3.11372 18.7458 2.82646 18.3747 2.70564 18.0752C2.49294 17.5472 2.5805 17.0421 2.75545 16.0322L2.95174 14.8994C3.12887 13.877 3.21767 13.3656 3.39607 12.9434C3.89462 11.7636 4.92785 10.8933 6.17537 10.6035C6.62186 10.4999 7.14178 10.5 8.17928 10.5Z"
    fill="var(--tbl--colors--icons--enrich--secondary)"
  />
  <path
    d="M8.25057 3C9.90716 3.0003 11.2506 4.34333 11.2506 6C11.2506 7.65667 9.90716 8.9997 8.25057 9C6.59371 9 5.25057 7.65685 5.25057 6C5.25057 4.34315 6.59371 3 8.25057 3Z"
    fill="var(--tbl--colors--icons--enrich--secondary)"
  />
  <path
    d="M15.6779 11.25C17.4647 11.25 18.3587 11.25 19.0559 11.6533C19.3302 11.8121 19.5779 12.0137 19.7893 12.25C20.3263 12.8505 20.5085 13.7259 20.8723 15.4756L21.1975 17.0371C21.4592 18.2959 21.5898 18.9258 21.1486 19.6133C20.7074 20.3008 20.2094 20.4141 19.2141 20.6416C18.3344 20.8427 17.2269 20.9971 15.8928 21C14.4948 21.0031 13.3086 20.8356 12.3625 20.6201C11.2994 20.378 10.7678 20.2568 10.3254 19.5928C9.88324 18.9288 9.99722 18.2718 10.2248 16.958L10.4514 15.6494C10.7661 13.8326 10.9233 12.924 11.4611 12.2969C11.6727 12.0503 11.9233 11.8392 12.2024 11.6729C12.9121 11.2499 13.8342 11.25 15.6779 11.25Z"
    fill="var(--tbl--ui-node-icon--search-lookalike-people-m)"
  />
  <path
    d="M15.7502 3.75C17.407 3.75012 18.7502 5.09322 18.7502 6.75C18.7502 8.40678 17.407 9.74988 15.7502 9.75C14.0934 9.75 12.7502 8.40685 12.7502 6.75C12.7502 5.09315 14.0934 3.75 15.7502 3.75Z"
    fill="var(--tbl--ui-node-icon--search-lookalike-people-m)"
  />

  <defs>
    <linearGradient id="tbl--ui-node-icon--search-lookalike-people-m" x1="16.0934" y1="4.02246" x2="16.0934" y2="21" gradientUnits="userSpaceOnUse">
      <stop stop-color="#A190F5"/>
      <stop offset="1" stop-color="#816BE6"/>
    </linearGradient>
  </defs>
</svg>
