<svg width="32" height="32" viewBox="0 0 32 32" fill="none" xmlns="http://www.w3.org/2000/svg">
  <path
    d="M10.9055 14C12.5042 14 13.3043 14.0002 13.9885 14.1992C14.2726 14.2819 14.5462 14.3901 14.8078 14.5195C14.0124 15.151 13.3547 15.9534 12.8928 16.8818C12.4052 17.8618 12.2235 19.0322 11.965 20.5244L11.676 22.1904C11.469 23.3849 11.1942 24.6539 11.634 25.9951C11.4886 25.9964 11.3409 25.9997 11.1906 26C9.70678 26.0032 8.43932 25.9544 7.37714 25.8809C6.06545 25.79 5.40878 25.7442 4.71503 25.2441C4.31781 24.9576 3.87219 24.3886 3.68866 23.9346C3.36833 23.1416 3.49721 22.3945 3.75604 20.9004L3.93573 19.8662C4.21741 18.2402 4.35845 17.4264 4.68378 16.7725C5.30051 15.5333 6.40333 14.605 7.72968 14.209C8.42945 14.0002 9.25558 14 10.9055 14ZM16.4377 15.8057C16.6546 16.0667 16.8464 16.3509 17.008 16.6553C17.3421 17.2846 17.5048 18.0682 17.8303 19.6338L18.0773 20.8213C18.4001 22.3737 18.5616 23.1509 18.1887 24.0195C18.0243 24.4022 17.6285 24.9207 17.3029 25.1807C16.5639 25.7704 15.8817 25.8137 14.5187 25.8994C14.2902 25.9138 14.0514 25.9258 13.8029 25.9375C13.7489 25.8507 13.7004 25.7679 13.6672 25.6992C13.353 25.0487 13.349 24.4548 13.4787 23.5518L13.6467 22.5312L13.9348 20.8662C14.2164 19.2402 14.3575 18.4264 14.6828 17.7725C15.0851 16.964 15.6944 16.288 16.4377 15.8057ZM11.0002 4C13.2091 4.00028 15.0002 5.79103 15.0002 8C15.0002 10.209 13.2091 11.9997 11.0002 12C8.79119 11.9998 7.00018 10.209 7.00018 8C7.00018 5.79097 8.79119 4.00017 11.0002 4Z"
    fill="var(--tbl--colors--icons--enrich--secondary)"
  />
  <path
    d="M20.9042 15C22.5037 15 23.3038 15.0001 23.9882 15.1992C25.2848 15.5766 26.3734 16.4625 27.0067 17.6553C27.341 18.2847 27.5044 19.0677 27.83 20.6338L28.2186 22.5039C28.5527 24.1111 28.7198 24.9149 28.2147 25.8701C28.1502 25.9921 28.0043 26.2158 27.9188 26.3242C27.2501 27.1729 26.636 27.305 25.4081 27.5693C24.2707 27.8142 22.8641 27.9963 21.1903 28C19.3651 28.004 17.8107 27.7904 16.5624 27.5117C15.3705 27.2456 14.774 27.1128 14.1317 26.3945C13.9829 26.2281 13.764 25.9003 13.6669 25.6992C13.2479 24.8317 13.3807 24.0646 13.6464 22.5312L13.9354 20.8662C14.2171 19.2402 14.3572 18.4264 14.6825 17.7725C15.2992 16.533 16.4028 15.605 17.7294 15.209C18.4292 15.0001 19.2542 15 20.9042 15ZM20.9999 5C23.209 5 24.9999 6.79086 24.9999 9C24.9999 11.2091 23.209 13 20.9999 13C18.7908 12.9999 16.9999 11.2091 16.9999 9C16.9999 6.79089 18.7908 5.00005 20.9999 5Z"
    fill="var(--tbl--ui-node-icon--search-lookalike-people-l)"
  />

  <defs>
    <linearGradient id="tbl--ui-node-icon--search-lookalike-people-l" x1="21.4837" y1="5.36328" x2="21.4837" y2="28" gradientUnits="userSpaceOnUse">
      <stop stop-color="#A190F5"/>
      <stop offset="1" stop-color="#816BE6"/>
    </linearGradient>
  </defs>
</svg>
