<svg width="32" height="32" viewBox="0 0 32 32" fill="none" xmlns="http://www.w3.org/2000/svg">
  <path
    fill-rule="evenodd"
    clip-rule="evenodd"
    d="M17 12.5588C17 9.48757 17 7 17 7C20.2175 7 22.8235 9.48757 22.8235 12.5588C22.8235 15.6301 20.2175 18.1176 17 18.1176C17 18.1176 17 15.6301 17 12.5588ZM28 26.1471C28 28 27.3529 28 26.0588 28H17C17 28 17 26.5372 17 24.6842C17 19.743 17 19.9706 17 19.9706C20.8824 19.9706 28 21.2059 28 26.1471Z"
    fill="var(--tbl--colors--icons--enrich--tertiary)"
  />
  <path
    fill-rule="evenodd"
    clip-rule="evenodd"
    d="M16 12.5588C16 9.48757 16 7 16 7C12.7825 7 10.1765 9.48757 10.1765 12.5588C10.1765 15.6301 12.7825 18.1176 16 18.1176C16 18.1176 16 15.6301 16 12.5588ZM5 26.1471C5 28 5.64706 28 6.94118 28H16C16 28 16 26.5372 16 24.6842C16 19.743 16 19.9706 16 19.9706C12.1176 19.9706 5 21.2059 5 26.1471Z"
    fill="var(--tbl--colors--icons--enrich--primary)"
  />
</svg>
