<svg xmlns="http://www.w3.org/2000/svg" width="16" height="16" fill="none" viewBox="0 0 16 16">
  <path fill="currentColor" fill-rule="evenodd" d="M3 4a2 2 0 1 0 0 4h1a1 1 0 0 1 0 2H3a1 1 0 0 1-1-1 .5.5 0 0 0-1 0 2 2 0 0 0 2 2h1a2 2 0 1 0 0-4H3a1 1 0 0 1 0-2h1a1 1 0 0 1 1 1 .5.5 0 0 0 1 0 2 2 0 0 0-2-2H3Zm6 0a2 2 0 0 0-2 2v3a2 2 0 0 0 2 2h.691l.362.724a.5.5 0 1 0 .894-.448l-.208-.417A2 2 0 0 0 12 9V6a2 2 0 0 0-2-2H9Zm1.288 5.958A1 1 0 0 0 11 9V6a1 1 0 0 0-1-1H9a1 1 0 0 0-1 1v3a1 1 0 0 0 1 1h.191l-.138-.276a.5.5 0 1 1 .894-.448l.341.682ZM13.5 4a.5.5 0 0 1 .5.5V10h1.5a.5.5 0 0 1 0 1H13V4.5a.5.5 0 0 1 .5-.5Z" clip-rule="evenodd"/>
</svg>
