<svg xmlns="http://www.w3.org/2000/svg" width="32" height="32" fill="none" viewBox="0 0 32 32">
  <path fill="var(--tbl--colors--icons--transformation--primary)" fill-rule="evenodd" d="M6 7a4 4 0 0 0-4 4v10a4 4 0 0 0 4 4h20a4 4 0 0 0 4-4V11a4 4 0 0 0-4-4H6Zm0 6.5A2.5 2.5 0 0 1 8.5 11H10a2 2 0 0 1 2 2 .5.5 0 0 1-1 0 1 1 0 0 0-1-1H8.5a1.5 1.5 0 0 0 0 3h1a2.5 2.5 0 0 1 0 5H8a2 2 0 0 1-2-2 .5.5 0 0 1 1 0 1 1 0 0 0 1 1h1.5a1.5 1.5 0 0 0 0-3h-1A2.5 2.5 0 0 1 6 13.5Zm8 0a2.5 2.5 0 0 1 2.5-2.5h1a2.5 2.5 0 0 1 2.5 2.5v4c0 .687-.277 1.309-.725 1.76l.641.963a.5.5 0 0 1-.832.554l-.64-.961c-.292.119-.61.184-.944.184h-1a2.5 2.5 0 0 1-2.5-2.5v-4Zm5 4c0 .337-.111.649-.3.9l-.784-1.177a.5.5 0 1 0-.832.554l.785 1.177c-.118.03-.242.046-.369.046h-1a1.5 1.5 0 0 1-1.5-1.5v-4a1.5 1.5 0 0 1 1.5-1.5h1a1.5 1.5 0 0 1 1.5 1.5v4Zm4-6a.5.5 0 0 0-1 0V20h4.5a.5.5 0 0 0 0-1H23v-7.5Z" clip-rule="evenodd"/>
</svg>
