<svg width="16" height="16" viewBox="0 0 16 16" fill="none" xmlns="http://www.w3.org/2000/svg">
  <path fill-rule="evenodd" clip-rule="evenodd" d="M3 4C1.89543 4 1 4.89543 1 6C1 7.10457 1.89543 8 3 8H4C4.55228 8 5 8.44772 5 9C5 9.55228 4.55228 10 4 10H3C2.44772 10 2 9.55228 2 9C2 8.72386 1.77614 8.5 1.5 8.5C1.22386 8.5 1 8.72386 1 9C1 10.1046 1.89543 11 3 11H4C5.10457 11 6 10.1046 6 9C6 7.89543 5.10457 7 4 7H3C2.44772 7 2 6.55228 2 6C2 5.44772 2.44772 5 3 5H4C4.55228 5 5 5.44772 5 6C5 6.27614 5.22386 6.5 5.5 6.5C5.77614 6.5 6 6.27614 6 6C6 4.89543 5.10457 4 4 4H3ZM9 4C7.89543 4 7 4.89543 7 6V9C7 10.1046 7.89543 11 9 11H9.69098L10.0528 11.7236C10.1763 11.9706 10.4766 12.0707 10.7236 11.9472C10.9706 11.8237 11.0707 11.5234 10.9472 11.2764L10.7386 10.8592C11.4776 10.5654 12 9.84368 12 9V6C12 4.89543 11.1046 4 10 4H9ZM10.288 9.95791C10.6999 9.83426 11 9.45218 11 9V6C11 5.44772 10.5523 5 10 5H9C8.44772 5 8 5.44772 8 6V9C8 9.55228 8.44772 10 9 10H9.19098L9.05279 9.72361C8.92929 9.47662 9.0294 9.17628 9.27639 9.05279C9.52338 8.92929 9.82372 9.0294 9.94721 9.27639L10.288 9.95791ZM13.5 4C13.7761 4 14 4.22386 14 4.5V10H15.5C15.7761 10 16 10.2239 16 10.5C16 10.7761 15.7761 11 15.5 11H13.5H13V10.5V4.5C13 4.22386 13.2239 4 13.5 4Z" fill="currentColor"/>
</svg>
