<svg width="32" height="32" viewBox="0 0 32 32" fill="none" xmlns="http://www.w3.org/2000/svg">
  <path
    d="M22 1.99997C23.6569 1.99997 25 3.34312 25 4.99997V23.584L23.1758 21.748C23.6956 20.9594 24 20.015 24 19C24 16.2385 21.7614 14 19 14C16.2386 14 14 16.2385 14 19C14 21.7614 16.2386 24 19 24C20.0218 24 20.9719 23.6912 21.7637 23.165L23.791 25.205C24.1181 25.5339 24.6165 25.5862 25 25.3642V26C24.9999 27.6568 23.6568 29 22 29H7C5.34316 29 4.00003 27.6568 4 26V11C4 9.34312 5.34315 7.99997 7 7.99997H13V4.99997C13 3.34312 14.3431 1.99997 16 1.99997H22Z"
    fill="var(--tbl--colors--icons--enrich--tertiary)"
  />
  <path
    d="M19 16C20.6569 16 22 17.3431 22 19C22 19.8254 21.6681 20.5718 21.1279 21.1152C20.5834 21.663 19.8319 22 19 22C17.3431 22 16 20.6569 16 19C16 17.3431 17.3431 16 19 16Z"
    fill="var(--tbl--ui-node-icon--api-search-l)"
  />
  <path
    fill-rule="evenodd"
    clip-rule="evenodd"
    d="M20 10C25.5228 10 30 14.4772 30 20C30 25.5228 25.5228 30 20 30C14.4772 30 10 25.5228 10 20C10 14.4772 14.4772 10 20 10ZM19 14C16.2386 14 14 16.2386 14 19C14 21.7614 16.2386 24 19 24C20.0218 24 20.9719 23.6912 21.7637 23.165L23.791 25.2051C24.1803 25.5965 24.8134 25.5981 25.2051 25.209C25.5965 24.8197 25.5981 24.1866 25.209 23.7949L23.1758 21.748C23.6956 20.9595 24 20.015 24 19C24 16.2386 21.7614 14 19 14Z"
    fill="var(--tbl--ui-node-icon--api-search-l)"
  />

  <defs>
    <linearGradient id="tbl--ui-node-icon--api-search-l" x1="28.8575" y1="29.4979" x2="4.89091" y2="15.7938" gradientUnits="userSpaceOnUse">
      <stop stop-color="#836EE7"/>
      <stop offset="1" stop-color="#B1A2FB"/>
    </linearGradient>
  </defs>
</svg>
