<svg width="24" height="24" viewBox="0 0 24 24" fill="none" xmlns="http://www.w3.org/2000/svg">
  <path
    d="M15 2C16.1046 2 17 2.89543 17 4V11.8164C16.716 11.6118 16.3947 11.4576 16.0488 11.3613C15.5818 11.1304 15.0562 11 14.5 11C12.567 11 11 12.567 11 14.5C11 16.433 12.567 18 14.5 18C15.3611 18 16.1491 17.6886 16.7588 17.1729L16.793 17.207L16.293 17.707L17 18.4141V20C17 21.1046 16.1046 22 15 22H4C2.89543 22 2 21.1046 2 20V8C2 6.89543 2.89543 6 4 6H8V4C8 2.89543 8.89543 2 10 2H15Z"
    fill="var(--tbl--colors--icons--enrich--tertiary)"
  />
  <path
    d="M14.5 13C15.3284 13 16 13.6716 16 14.5C16 15.3284 15.3284 16 14.5 16C13.6716 16 13 15.3284 13 14.5C13 13.6716 13.6716 13 14.5 13Z"
    fill="var(--tbl--ui-node-icon--api-search-m)"
  />
  <path
    fill-rule="evenodd"
    clip-rule="evenodd"
    d="M15.5 7C20.1944 7 24 10.8056 24 15.5C24 20.1944 20.1944 24 15.5 24C10.8056 24 7 20.1944 7 15.5C7 10.8056 10.8056 7 15.5 7ZM14.5 11C12.567 11 11 12.567 11 14.5C11 16.433 12.567 18 14.5 18C15.1026 18 15.669 17.8463 16.1641 17.5781L18.293 19.707C18.6835 20.0976 19.3165 20.0976 19.707 19.707C20.0976 19.3165 20.0976 18.6835 19.707 18.293L17.5781 16.1641C17.8463 15.669 18 15.1026 18 14.5C18 12.567 16.433 11 14.5 11Z"
    fill="var(--tbl--ui-node-icon--api-search-m)"
  />

  <defs>
    <linearGradient id="tbl--ui-node-icon--api-search-m" x1="23.0289" y1="23.5733" x2="2.65727" y2="11.9248" gradientUnits="userSpaceOnUse">
      <stop stop-color="#836EE7"/>
      <stop offset="1" stop-color="#B1A2FB"/>
    </linearGradient>
  </defs>
</svg>
