<svg width="32" height="32" viewBox="0 0 32 32" fill="none" xmlns="http://www.w3.org/2000/svg">
  <path
    fill-rule="evenodd"
    clip-rule="evenodd"
    d="M11 5C11 3.34315 12.3431 2 14 2H20C21.6569 2 23 3.34315 23 5V19C23 16.7909 21.2091 15 19 15C16.7909 15 15 16.7909 15 19C15 21.2091 16.7909 23 19 23C19.7418 23 20.4365 22.7981 21.032 22.4462L23 24.4142V26C23 27.6569 21.6569 29 20 29H11H5C3.34315 29 2 27.6569 2 26V11C2 9.34315 3.34315 8 5 8H11V5ZM23 21.5858L22.4462 21.032C22.7981 20.4365 23 19.7418 23 19V21.5858ZM8 12H5V17H8V12ZM8 19H5V24H8V19ZM21 19C21 20.1046 20.1046 21 19 21C17.8954 21 17 20.1046 17 19C17 17.8954 17.8954 17 19 17C20.1046 17 21 17.8954 21 19Z"
    fill="var(--tbl--colors--icons--enrich--tertiary)"
  />
  <path
    fill-rule="evenodd"
    clip-rule="evenodd"
    d="M20 30C25.5228 30 30 25.5228 30 20C30 14.4772 25.5228 10 20 10C14.4772 10 10 14.4772 10 20C10 25.5228 14.4772 30 20 30ZM19 21C20.1046 21 21 20.1046 21 19C21 17.8954 20.1046 17 19 17C17.8954 17 17 17.8954 17 19C17 20.1046 17.8954 21 19 21ZM19 23C19.7418 23 20.4365 22.7981 21.032 22.4462L23.2929 24.7071C23.6834 25.0976 24.3166 25.0976 24.7071 24.7071C25.0976 24.3166 25.0976 23.6834 24.7071 23.2929L22.4462 21.032C22.7981 20.4365 23 19.7418 23 19C23 16.7909 21.2091 15 19 15C16.7909 15 15 16.7909 15 19C15 21.2091 16.7909 23 19 23Z"
    fill="var(--tbl--colors--icons--enrich--primary)"
  />
</svg>
