<svg width="16" height="16" viewBox="0 0 16 16" fill="none" xmlns="http://www.w3.org/2000/svg">
  <path
    fill-rule="evenodd"
    clip-rule="evenodd"
    d="M10 7C10 8.65685 8.65685 10 7 10C5.34315 10 4 8.65685 4 7C4 5.34315 5.34315 4 7 4C8.65685 4 10 5.34315 10 7ZM9.51274 10.1124C8.82599 10.6676 7.95182 11 7 11C4.79086 11 3 9.20914 3 7C3 4.79086 4.79086 3 7 3C9.20914 3 11 4.79086 11 7C11 7.95182 10.6676 8.82599 10.1124 9.51274C10.2008 9.53304 10.2847 9.57761 10.3536 9.64645L13.8536 13.1464C14.0488 13.3417 14.0488 13.6583 13.8536 13.8536C13.6583 14.0488 13.3417 14.0488 13.1464 13.8536L9.64645 10.3536C9.57761 10.2847 9.53304 10.2008 9.51274 10.1124Z"
    fill="currentColor"
  />
</svg>
