<svg width="24" height="24" viewBox="0 0 24 24" fill="none" xmlns="http://www.w3.org/2000/svg">
  <path
    fill-rule="evenodd"
    clip-rule="evenodd"
    d="M8 4C8 2.89543 8.89543 2 10 2H15C16.1046 2 17 2.89543 17 4V11.813C16.5074 11.4587 15.9031 11.25 15.25 11.25C13.5931 11.25 12.25 12.5931 12.25 14.25C12.25 15.9069 13.5931 17.25 15.25 17.25C15.7131 17.25 16.1518 17.145 16.5434 16.9576L17 17.4142V20C17 21.1046 16.1046 22 15 22H8H4C2.89543 22 2 21.1046 2 20V8C2 6.89543 2.89543 6 4 6H8V4ZM15.25 15.25C15.8023 15.25 16.25 14.8023 16.25 14.25C16.25 13.6977 15.8023 13.25 15.25 13.25C14.6977 13.25 14.25 13.6977 14.25 14.25C14.25 14.8023 14.6977 15.25 15.25 15.25Z"
    fill="var(--tbl--colors--icons--enrich--tertiary)"
  />
  <path
    fill-rule="evenodd"
    clip-rule="evenodd"
    d="M15.5 24C20.1944 24 24 20.1944 24 15.5C24 10.8056 20.1944 7 15.5 7C10.8056 7 7 10.8056 7 15.5C7 20.1944 10.8056 24 15.5 24ZM14.5 16C15.3284 16 16 15.3284 16 14.5C16 13.6716 15.3284 13 14.5 13C13.6716 13 13 13.6716 13 14.5C13 15.3284 13.6716 16 14.5 16ZM14.5 18C15.1028 18 15.6699 17.8476 16.1651 17.5793L18.2929 19.7071C18.6834 20.0976 19.3166 20.0976 19.7071 19.7071C20.0976 19.3166 20.0976 18.6834 19.7071 18.2929L17.5793 16.1651C17.8476 15.6699 18 15.1028 18 14.5C18 12.567 16.433 11 14.5 11C12.567 11 11 12.567 11 14.5C11 16.433 12.567 18 14.5 18Z"
    fill="var(--tbl--colors--icons--enrich--primary)"
  />
</svg>

