<svg xmlns="http://www.w3.org/2000/svg" width="32" height="32" fill="none" viewBox="0 0 32 32">
  <path fill="var(--tbl--colors--icons--output--primary)" fill-rule="evenodd" d="M10.113 11.252C10.603 8.708 12.65 7 15.5 7c2.78 0 5.5 1.913 5.5 4.86 0 2.124-2.275 3.669-3.888 4.764l-.188.127c-.613.418-.798 1.36-.84 2.122-.033.6-.501 1.127-1.101 1.127h-.316a1 1 0 0 1-1-1v-1.49c0-.923 1.034-1.607 2.15-2.346 1.313-.868 2.738-1.811 2.738-3.304 0-1.501-1.631-2.43-3.055-2.43-.993 0-2.39.359-2.879 1.833-.212.64-.724 1.204-1.399 1.204s-1.237-.553-1.109-1.215ZM15 25a1 1 0 1 1 0-2h1a1 1 0 1 1 0 2h-1Z" clip-rule="evenodd"/>
</svg>
