<svg xmlns="http://www.w3.org/2000/svg" width="24" height="24" fill="none" viewBox="0 0 24 24">
  <path
    fill="var(--tbl--colors--icons--clean--secondary)"
    d="M20 20H2V4.00759C2 3.11073 3.08946 2.6673 3.71577 3.30925L20 20Z"
  />
  <path
    fill="var(--tbl--colors--icons--clean--primary)"
    fill-rule="evenodd"
    d="M19 4C19 3.44772 18.5523 3 18 3C17.4477 3 17 3.44772 17 4V10.5858L15.7071 9.29288C15.3166 8.90235 14.6834 8.90235 14.2929 9.29288C13.9024 9.6834 13.9024 10.3166 14.2929 10.7071L17.2929 13.7071C17.4804 13.8946 17.7348 14 18 14C18.2652 14 18.5196 13.8946 18.7071 13.7071L21.7071 10.7071C22.0976 10.3166 22.0976 9.6834 21.7071 9.29288C21.3166 8.90235 20.6834 8.90235 20.2929 9.29288L19 10.5858V4ZM3 19C2.44772 19 2 19.4477 2 20C2 20.5523 2.44772 21 3 21H19C19.5523 21 20 20.5523 20 20C20 19.4477 19.5523 19 19 19H3Z"
    clip-rule="evenodd"
  />
</svg>
