<svg xmlns="http://www.w3.org/2000/svg" width="24" height="24" fill="none" viewBox="0 0 24 24">
  <path
    fill-rule="evenodd"
    clip-rule="evenodd"
    d="M4.78523 2.06685C4.59283 2.10729 4.21309 2.24378 3.9498 2.37521C3.54981 2.57235 3.39792 2.68357 3.03337 3.04247C2.68908 3.39127 2.55743 3.56314 2.39035 3.90688C1.97011 4.76118 2.00048 4.12425 2.00048 11.9949C2.00048 19.8656 1.97011 19.2287 2.39035 20.083C2.55743 20.4267 2.68908 20.5986 3.03337 20.9474C3.39792 21.3063 3.54981 21.4175 3.9498 21.6147C4.80042 22.0292 4.32954 22.009 12.1775 21.9938C19.914 21.9736 19.2963 22.0039 20.0659 21.6197C20.9317 21.185 21.519 20.5076 21.8582 19.5522L22 19.1478V11.9949V4.84207L21.8582 4.43766C21.519 3.48226 20.9317 2.80489 20.0659 2.37015C19.2963 1.98597 19.9241 2.01124 12.1268 2.00113C6.19279 1.99608 5.08395 2.00619 4.78523 2.06685ZM15.1192 5.8834C16.5166 6.12605 17.7166 7.04606 18.3039 8.31993C18.8153 9.42699 18.8153 10.7716 18.3039 11.8787C17.8431 12.8745 16.952 13.7086 15.9444 14.0877C15.266 14.3405 14.9723 14.3708 13.1395 14.3708H11.4433L11.4686 14.1787C11.4838 14.0776 11.5648 13.2688 11.6458 12.3791C11.7319 11.4945 11.823 10.7261 11.8534 10.6756C11.899 10.5896 11.9699 10.5795 12.6281 10.5795H13.3572L13.4888 10.802C13.7572 11.2569 14.1622 11.4894 14.709 11.4894C15.5343 11.4894 16.1014 10.9233 16.1014 10.0993C16.1014 9.27533 15.5343 8.71422 14.709 8.70917C14.147 8.70917 13.6964 8.97709 13.4432 9.46743L13.3622 9.61908H12.3547C11.8028 9.61908 11.2914 9.6393 11.2205 9.66963C11.1496 9.6949 11.0585 9.76567 11.018 9.83139C10.9623 9.91732 10.8408 11.0294 10.5572 13.9917C10.3446 16.2159 10.1623 18.066 10.1522 18.0964C10.137 18.1469 9.72182 18.1621 8.30413 18.1621H6.48139L6.31937 18.0155C6.16747 17.879 6.15228 17.8436 6.16241 17.5959C6.19279 16.9084 7.25099 6.24231 7.29656 6.11594C7.42314 5.81263 7.2358 5.8278 11.1901 5.8278C13.4989 5.8278 14.9268 5.84802 15.1192 5.8834Z"
    fill="var(--tbl--ui-node-icon--enrichment--nubela)"
  />
</svg>
