<svg width="16" height="16" viewBox="0 0 16 16" fill="none" xmlns="http://www.w3.org/2000/svg">
  <path
    fill-rule="evenodd"
    clip-rule="evenodd"
    d="M2.94966 1.04679C2.81498 1.0751 2.54916 1.17064 2.36486 1.26264C2.08487 1.40065 1.97854 1.47849 1.72336 1.72973C1.48235 1.97389 1.3902 2.0942 1.27324 2.33482C0.979074 2.93283 1.00034 2.48697 1.00034 7.99646C1.00034 13.5059 0.979074 13.0601 1.27324 13.6581C1.3902 13.8987 1.48235 14.019 1.72336 14.2632C1.97854 14.5144 2.08487 14.5923 2.36486 14.7303C2.96029 15.0204 2.63068 15.0063 8.12422 14.9957C13.5398 14.9815 13.1074 15.0027 13.6461 14.7338C14.2522 14.4295 14.6633 13.9553 14.9008 13.2866L15 13.0035V7.99646V2.98945L14.9008 2.70636C14.6633 2.03758 14.2522 1.56342 13.6461 1.25911C13.1074 0.990177 13.5469 1.00787 8.08878 1.00079C3.93495 0.997254 3.15877 1.00433 2.94966 1.04679ZM10.1834 3.71838C11.1616 3.88823 12.0016 4.53224 12.4127 5.42395C12.7707 6.19889 12.7707 7.14014 12.4127 7.91508C12.0902 8.61216 11.4664 9.19602 10.7611 9.46141C10.2862 9.63834 10.0806 9.65957 8.79762 9.65957H7.61031L7.62803 9.5251C7.63866 9.45433 7.69537 8.88817 7.75207 8.26539C7.81233 7.64615 7.87612 7.10829 7.89739 7.07291C7.92929 7.01275 7.9789 7.00567 8.43965 7.00567H8.95002L9.04217 7.16137C9.23001 7.47984 9.51355 7.64261 9.89633 7.64261C10.474 7.64261 10.871 7.24629 10.871 6.66951C10.871 6.09273 10.474 5.69996 9.89633 5.69642C9.50292 5.69642 9.18748 5.88396 9.01027 6.2272L8.95356 6.33335H8.24826C7.86195 6.33335 7.50398 6.34751 7.45436 6.36874C7.40474 6.38643 7.34095 6.43597 7.31259 6.48197C7.2736 6.54213 7.18854 7.3206 6.99007 9.39418C6.84121 10.9511 6.71362 12.2462 6.70653 12.2675C6.6959 12.3028 6.40527 12.3135 5.41289 12.3135H4.13697L4.02356 12.2108C3.91723 12.1153 3.9066 12.0905 3.91369 11.9171C3.93495 11.4359 4.67569 3.96962 4.70759 3.88115C4.7962 3.66884 4.66506 3.67946 7.43309 3.67946C9.04926 3.67946 10.0487 3.69361 10.1834 3.71838Z"
    fill="var(--tbl--ui-node-icon--enrichment--nubela)"
  />
</svg>
