<svg width="16" height="16" viewBox="0 0 16 16" fill="none" xmlns="http://www.w3.org/2000/svg">
  <path
    d="M6.53718 1.1261C4.55588 1.55854 2.61162 3.11908 1.74133 5.01804C1.29693 5.99573 1 6.68879 1 8.1261C1 9.56342 1.2599 10.1133 1.87095 11.2414C3.07454 13.4788 5.03732 14.7949 7.50005 14.9829C9.61096 15.1521 11.7034 14.4001 11.4441 13.5728C11.259 13.0087 10.8516 12.9335 9.98129 13.3096C8.81474 13.7984 6.85196 13.7232 5.6854 13.1404C3.11157 11.8994 1.83392 8.85358 2.74124 6.12734C3.14861 4.90523 4.59291 3.3447 5.81502 2.81825C7.16675 2.2354 8.87029 2.2354 10.185 2.81825C11.4071 3.3447 12.8514 4.92404 13.2588 6.12734C13.8328 7.85709 13.5365 10.1885 12.6847 10.5833C12.2774 10.7713 12.1663 10.7337 11.87 10.3577C11.6108 10.0381 11.5552 9.79366 11.6478 9.51164C11.7404 9.28602 11.7959 8.55275 11.7959 7.85709C11.7959 6.7666 11.7219 6.50337 11.2404 5.78891C9.31469 3.04387 5.31507 3.64552 4.29665 6.8418C3.51894 9.26722 5.38914 11.9182 7.85187 11.9182C9.49986 11.9182 9.55541 10.9218 7.92593 10.6773C6.87048 10.5269 6.25942 10.1509 5.77799 9.34242C4.75957 7.65027 6.01871 5.45048 8 5.45048C8.98139 5.45048 9.90723 6.03333 10.3146 6.89821C10.6479 7.59387 10.6664 7.9511 10.3887 9.15441C10.1109 10.3389 10.4998 11.2978 11.4256 11.7302C12.2403 12.1251 12.7773 12.1063 13.4995 11.655C14.4994 11.0346 15 9.44828 15 8.24138C15 6.7931 14.7031 5.99573 14.2772 5.07445C13.5365 3.49511 12.6107 2.53623 11.0923 1.78416C9.61096 1.0697 7.98148 0.825276 6.53718 1.1261Z"
    fill="var(--tbl--ui-node-icon--enrichment--debounce)"
  />
</svg>
