<svg xmlns="http://www.w3.org/2000/svg" width="24" height="24" fill="none" viewBox="0 0 24 24">
  <path fill="var(--tbl--colors--icons--clean--primary)" fill-rule="evenodd" d="M4 5a3 3 0 0 1 3-3h8l5 5v12a3 3 0 0 1-3 3H7a3 3 0 0 1-3-3V5Zm5 5h2.5v3H8v-2a1 1 0 0 1 1-1Zm3.5 3v-3H15a1 1 0 0 1 1 1v2h-3.5ZM8 14h3.5v3H9a1 1 0 0 1-1-1v-2Zm4.5 0v3H15a1 1 0 0 0 1-1v-2h-3.5Zm-1 4H15a2 2 0 0 0 2-2v-5a2 2 0 0 0-2-2H9a2 2 0 0 0-2 2v5a2 2 0 0 0 2 2h2.5Z" clip-rule="evenodd"/>
  <path fill="#fff" fill-opacity=".5" d="m20 7-5-5v3a2 2 0 0 0 2 2h3Z"/>
</svg>
