<svg width="32" height="32" viewBox="0 0 32 32" fill="none" xmlns="http://www.w3.org/2000/svg">
  <path
    d="M8.99902 3.00049C6.78988 3.00049 4.99902 4.79135 4.99902 7.00049V25.0005C4.99902 27.2096 6.78988 29.0005 8.99902 29.0005H22.999C25.2082 29.0005 26.999 27.2096 26.999 25.0005L26.999 9.0005L20.999 3.0005H23.0069C23.0043 3.00049 23.0017 3.00049 22.999 3.00049H8.99902Z"
    fill="var(--tbl--colors--icons--clean--primary)"
  />
  <path d="M21 7V3L27 9H23C21.8954 9 21 8.10457 21 7Z" fill="white" fill-opacity="0.5"/>
  <path
    fill-rule="evenodd"
    clip-rule="evenodd"
    d="M20.999 12.0005C22.1036 12.0005 22.999 12.8959 22.999 14.0005V21.0005C22.999 22.1051 22.1036 23.0005 20.999 23.0005H10.999C9.89445 23.0005 8.99902 22.1051 8.99902 21.0005V14.0005C8.99902 12.8959 9.89445 12.0005 10.999 12.0005H20.999ZM15.499 13.0005H10.999C10.4467 13.0005 9.99902 13.4482 9.99902 14.0005V17.0005H15.499V13.0005ZM16.499 22.0005H20.999C21.5513 22.0005 21.999 21.5528 21.999 21.0005V18.0005H16.499V22.0005ZM15.499 18.0005V22.0005H10.999C10.4467 22.0005 9.99902 21.5528 9.99902 21.0005V18.0005H15.499ZM16.499 17.0005H21.999V14.0005C21.999 13.4482 21.5513 13.0005 20.999 13.0005H16.499V17.0005Z"
    fill="white"
  />
</svg>
