<svg xmlns="http://www.w3.org/2000/svg" width="32" height="32" fill="none" viewBox="0 0 32 32">
  <path fill="var(--tbl--colors--icons--clean--primary)" fill-rule="evenodd" d="M5 7a4 4 0 0 1 4-4h14.008H21l6 6v16a4 4 0 0 1-4 4H9a4 4 0 0 1-4-4V7Zm6 6h4.5v4H10v-3a1 1 0 0 1 1-1Zm5.5-1H11a2 2 0 0 0-2 2v7a2 2 0 0 0 2 2h10a2 2 0 0 0 2-2v-7a2 2 0 0 0-2-2h-4.5ZM21 22h-4.5v-4H22v3a1 1 0 0 1-1 1Zm-5.5 0v-4H10v3a1 1 0 0 0 1 1h4.5Zm6.5-5h-5.5v-4H21a1 1 0 0 1 1 1v3Z" clip-rule="evenodd"/>
  <path fill="#fff" fill-opacity=".5" d="M21 7V3l6 6h-4a2 2 0 0 1-2-2Z"/>
</svg>
