<svg width="24" height="24" viewBox="0 0 24 24" fill="none" xmlns="http://www.w3.org/2000/svg">
  <path
    d="M19.8611 12.1865L15.1599 16.9297L10.8308 12.5605C11.9842 12.5251 13.1237 12.2821 14.1912 11.8359C15.3477 11.3525 16.3988 10.6432 17.2839 9.75L17.365 9.66797L19.8611 12.1865ZM9.98804 11.5918L0.730225 2.25H9.98804V11.5918Z"
    fill="var(--tbl--ui-node-icon--enrichment--explorium-primary)"
  />
  <path
    d="M21.0203 6L23.2703 8.25H21.0203V6Z"
    fill="var(--tbl--ui-node-icon--enrichment--explorium-tertiary)"
  />
  <path
    d="M14.8083 17.4395L10.5369 21.75V13.1299L14.8083 17.4395ZM16.8923 9.21582C16.0583 10.0574 15.068 10.7252 13.9783 11.1807C12.8886 11.6361 11.7202 11.8701 10.5408 11.8701V2.80762L16.8923 9.21582ZM20.2136 11.5918L16.0681 7.40918L17.3123 6.01465H20.2136V11.5918Z"
    fill="var(--tbl--ui-node-icon--enrichment--explorium-secondary)"
  />
</svg>
