<svg width="16" height="16" viewBox="0 0 16 16" fill="none" xmlns="http://www.w3.org/2000/svg">
  <path
    d="M13.241 8.12402L10.1072 11.2861L7.22046 8.37402C7.98935 8.35043 8.74903 8.18806 9.46069 7.89062C10.2317 7.56831 10.9331 7.09544 11.5232 6.5L11.5769 6.44531L13.241 8.12402ZM6.65894 7.72754L0.487061 1.5H6.65894V7.72754Z"
    fill="var(--tbl--ui-node-icon--enrichment--explorium-primary)"
  />
  <path
    d="M14.0137 4L15.5137 5.5H14.0137V4Z"
    fill="var(--tbl--ui-node-icon--enrichment--explorium-tertiary)"
  />
  <path
    d="M9.8728 11.627L7.02417 14.5L7.02515 8.75293L9.8728 11.627ZM11.2615 6.14453C10.7055 6.70542 10.0454 7.15052 9.31909 7.4541C8.5926 7.75773 7.81344 7.91406 7.0271 7.91406V1.87207L11.2615 6.14453ZM13.4763 7.72754L10.7126 4.93945L11.5417 4.00977H13.4763V7.72754Z"
    fill="var(--tbl--ui-node-icon--enrichment--explorium-secondary)"
  />
</svg>
