<svg width="24" height="24" viewBox="0 0 24 24" fill="none" xmlns="http://www.w3.org/2000/svg">
  <path
    fill-rule="evenodd"
    clip-rule="evenodd"
    d="M20.0332 2C21.12 2 22 2.7416 22 3.656V20.344C22 21.2584 21.1196 22 20.0332 22H3.9668C2.8804 22 2 21.2584 2 20.344V13.9624C2 13.2608 2.7608 12.8236 3.3668 13.1768L4.1656 13.6424C4.37381 13.7622 4.62099 13.7948 4.85312 13.7329C5.08525 13.6711 5.28347 13.5199 5.40448 13.3124C5.5255 13.1048 5.55947 12.8579 5.49897 12.6254C5.43847 12.3929 5.28842 12.1938 5.0816 12.0716L2.4512 10.5388C2.314 10.4588 2.20015 10.3442 2.12098 10.2065C2.04182 10.0689 2.00011 9.91283 2 9.754V9.568C2 8.856 2.7816 8.42 3.3872 8.7948L11.5212 13.826C11.6653 13.9152 11.8315 13.9623 12.001 13.962C12.1705 13.9617 12.3366 13.914 12.4804 13.8244L17.618 10.6212C17.8226 10.4936 17.9682 10.29 18.0227 10.0551C18.0772 9.82018 18.0362 9.57324 17.9086 9.3686C17.781 9.16396 17.5774 9.01838 17.3425 8.96388C17.1076 8.90938 16.8606 8.95043 16.656 9.078L12.4768 11.684C12.333 11.7736 12.1669 11.8213 11.9974 11.8216C11.8279 11.8219 11.6617 11.7748 11.5176 11.6856L2.4308 6.0656C2.29902 5.98406 2.19026 5.87018 2.11486 5.73479C2.03946 5.59939 1.99993 5.44697 2 5.292V3.656C2 2.7416 2.8804 2 3.9668 2H20.0332Z"
    fill="url(#tbl--ui-node-icon--enrichment--never-bounce-m--gradient)"
  />
  <defs>
    <linearGradient id="tbl--ui-node-icon--enrichment--never-bounce-m--gradient" x1="4.2728" y1="4.2728" x2="21.5304" y2="20.1172" gradientUnits="userSpaceOnUse">
      <stop stop-color="var(--tbl--ui-node-icon--enrichment--never-bounce-from)" />
      <stop offset="0.519" stop-color="var(--tbl--ui-node-icon--enrichment--never-bounce-middle)" />
      <stop offset="1" stop-color="var(--tbl--ui-node-icon--enrichment--never-bounce-to)" />
    </linearGradient>
  </defs>
</svg>
