<svg width="32" height="32" viewBox="0 0 32 32" fill="none" xmlns="http://www.w3.org/2000/svg">
  <rect x="2" y="2" width="28" height="28" rx="11" fill="var(--tbl--ui-node-icon--enrichment--bouncer-secondary)" />
  <path
    d="M16.9708 7.84564H3.32361H0.594167V10.5751L-3.5 17.3987L6.96287 32.4106L21.065 28.7714L18.7905 15.1242L16.9708 7.84564Z"
    fill="white"
  />
  <path
    d="M12.5026 2.01847C11.3775 2.10242 7.92436 2.29132 7.20622 2.43824C4.57307 2.98394 1.72448 6.45297 0.695161 8.02712L0.264282 8.65678L7.18838 8.74073C12.4786 8.86667 14.2021 9.13951 15.806 10.147C16.7395 10.7137 17.5295 12.1619 17.5295 13.2323C17.5295 14.1348 16.6198 15.9608 15.8538 16.5695C15.423 16.9263 15.423 16.9263 15.8778 17.577C16.7635 18.8573 17.314 20.8932 17.4577 23.3908C17.5774 25.5946 16.338 29.8257 15.8832 30.8542C15.7395 31.169 15.931 31.19 17.87 31.064C20.2638 30.8961 22.8915 29.7429 23.7054 29.3861C24.4475 29.0503 25.1896 25.8675 25.1896 24.0415C25.1896 22.3204 24.7826 21.0821 23.3703 18.4165C22.341 16.4646 22.317 16.3386 22.4846 15.1213C22.7479 13.3163 22.6522 12.8755 21.8143 12.2039C21.192 11.7001 21.0483 11.3853 20.8568 10.168C20.1912 5.60525 17.1177 1.69731 12.5026 2.01847Z"
    fill="var(--tbl--ui-node-icon--enrichment--bouncer-primary)"
  />
  <path
    d="M1.85016 11.1964C1.08415 11.3433 0.988398 11.5742 0.65327 13.862L0.509644 14.9534L1.65865 14.6385C2.90342 14.2817 7.35583 14.1348 8.48091 14.4286C9.10329 14.5756 9.12723 14.5546 8.9836 13.8829C8.72028 12.4347 10.7789 11.5532 11.8322 12.6656C12.3349 13.2113 12.4546 13.9879 11.9758 13.5681C11.521 13.1693 10.6353 13.2743 10.3481 13.736C9.96505 14.3657 10.3959 14.8484 11.7604 15.2892L12.9573 15.667L13.5557 15.0583C15.0398 13.5891 14.968 12.4557 13.3642 11.8261C11.6407 11.1544 4.21999 10.7556 1.85016 11.1964Z"
    fill="var(--tbl--ui-node-icon--enrichment--bouncer-primary)"
  />
  <path
    d="M2.90348 15.4571C1.61084 15.751 0.820894 17.1362 1.61084 17.7239C2.16141 18.1227 3.50192 17.8078 4.69881 16.9893L5.75207 16.2757L6.20688 16.7164C7.14045 17.6399 9.27091 18.0387 9.89329 17.3881C10.1566 17.1152 10.1327 16.9473 9.77361 16.3596C9.43848 15.8139 9.10335 15.604 8.28947 15.4361C7.06864 15.1633 4.10036 15.1633 2.90348 15.4571Z"
    fill="var(--tbl--ui-node-icon--enrichment--bouncer-primary)"
  />
  <path
    d="M13.3403 20.1166C12.9333 20.3685 12.9094 20.4734 13.1727 20.9771C13.3403 21.313 13.3882 21.6278 13.2924 21.7327C12.9333 22.0266 9.03148 22.7192 7.11647 22.8451C6.06321 22.9081 4.36363 22.8871 3.33431 22.8032L1.46716 22.6353L1.61079 23.16C1.70654 23.4538 1.89804 23.7686 2.04167 23.8736C2.20923 23.9575 4.05244 23.9995 6.15896 23.9365C8.98361 23.8736 10.4917 23.7267 11.8801 23.4118C12.9094 23.16 13.7951 22.9711 13.843 22.9711C13.8669 22.9711 13.9387 23.3279 13.9866 23.7477C14.0584 24.4403 14.1302 24.5452 14.6568 24.5452C15.2314 24.5452 15.2553 24.5032 15.1835 23.3069C15.1117 22.0895 14.3217 19.8228 13.9627 19.8228C13.8669 19.8228 13.5797 19.9487 13.3403 20.1166Z"
    fill="var(--tbl--ui-node-icon--enrichment--bouncer-primary)"
  />
</svg>
