<svg width="16" height="16" viewBox="0 0 16 16" fill="none" xmlns="http://www.w3.org/2000/svg">
  <rect x="1" y="1" width="14" height="14" rx="6" fill="var(--tbl--ui-node-icon--enrichment--bouncer-secondary)"/>
  <path
    d="M8.48542 3.92282H1.66181H0.297084V5.28754L-1.75 8.69935L3.48144 16.2053L10.5325 14.3857L9.39523 7.56208L8.48542 3.92282Z"
    fill="white"
  />
  <path
    d="M6.25122 1.00923C5.68868 1.05121 3.96212 1.14566 3.60305 1.21912C2.28648 1.49197 0.862181 3.22648 0.34752 4.01356L0.13208 4.32839L3.59413 4.37036C6.23925 4.43333 7.10101 4.56975 7.90292 5.07348C8.36971 5.35683 8.76468 6.08094 8.76468 6.61615C8.76468 7.0674 8.30986 7.98041 7.92686 8.28475C7.71142 8.46315 7.71142 8.46315 7.93883 8.78847C8.38167 9.42863 8.65696 10.4466 8.72877 11.6954C8.78862 12.7973 8.16893 14.9129 7.94152 15.4271C7.86971 15.5845 7.96546 15.595 8.93494 15.532C10.1318 15.4481 11.4457 14.8715 11.8526 14.6931C12.2237 14.5251 12.5947 12.9337 12.5947 12.0207C12.5947 11.1602 12.3912 10.541 11.6851 9.20825C11.1704 8.23228 11.1585 8.16931 11.2422 7.56064C11.3739 6.65813 11.326 6.43775 10.9071 6.10193C10.5959 5.85006 10.5241 5.69265 10.4284 5.08398C10.0955 2.80262 8.55879 0.848653 6.25122 1.00923Z"
    fill="var(--tbl--ui-node-icon--enrichment--bouncer-primary)"
  />
  <path
    d="M0.925139 5.5982C0.542136 5.67166 0.49426 5.7871 0.326696 6.93098L0.254883 7.47668L0.829388 7.31927C1.45177 7.14086 3.67798 7.0674 4.24051 7.21432C4.5517 7.28778 4.56367 7.27729 4.49186 6.94147C4.3602 6.21736 5.38953 5.7766 5.91616 6.3328C6.1675 6.60565 6.22735 6.99394 5.98797 6.78406C5.76056 6.58466 5.31771 6.63714 5.17409 6.86801C4.98258 7.18284 5.19802 7.42421 5.88025 7.64459L6.47869 7.83349L6.77791 7.52915C7.51998 6.79455 7.48408 6.22786 6.68216 5.91303C5.8204 5.57721 2.11006 5.37782 0.925139 5.5982Z"
    fill="var(--tbl--ui-node-icon--enrichment--bouncer-primary)"
  />
  <path
    d="M1.45174 7.72855C0.805419 7.87547 0.410447 8.5681 0.80542 8.86194C1.0807 9.06133 1.75096 8.90392 2.3494 8.49464L2.87603 8.13783L3.10344 8.35821C3.57023 8.81996 4.63546 9.01936 4.94665 8.69403C5.0783 8.5576 5.06634 8.47365 4.8868 8.17981C4.71924 7.90696 4.55167 7.80201 4.14473 7.71806C3.53432 7.58163 2.05018 7.58163 1.45174 7.72855Z"
    fill="var(--tbl--ui-node-icon--enrichment--bouncer-primary)"
  />
  <path
    d="M6.6702 10.0583C6.46673 10.1842 6.45476 10.2367 6.58642 10.4886C6.6702 10.6565 6.69414 10.8139 6.64626 10.8664C6.46673 11.0133 4.5158 11.3596 3.55829 11.4226C3.03166 11.4541 2.18187 11.4436 1.66721 11.4016L0.733643 11.3176L0.805456 11.58C0.853331 11.7269 0.949082 11.8843 1.0209 11.9368C1.10468 11.9788 2.02628 11.9998 3.07954 11.9683C4.49187 11.9368 5.2459 11.8633 5.9401 11.7059C6.45476 11.58 6.89761 11.4855 6.92155 11.4855C6.93351 11.4855 6.96942 11.6639 6.99336 11.8738C7.02926 12.2201 7.06517 12.2726 7.32849 12.2726C7.61574 12.2726 7.62771 12.2516 7.5918 11.6534C7.55589 11.0448 7.16092 9.91139 6.98139 9.91139C6.93351 9.91139 6.78989 9.97436 6.6702 10.0583Z"
    fill="var(--tbl--ui-node-icon--enrichment--bouncer-primary)"
  />
</svg>
