<svg xmlns="http://www.w3.org/2000/svg" width="16" height="16" fill="none" viewBox="0 0 16 16">
  <path fill="currentColor" fill-rule="evenodd" d="M8.091 2c.312.008.577.23.638.536.28 1.4.83 2.477 1.607 3.27.775.792 1.814 1.339 3.135 1.617a.667.667 0 0 1 0 1.304c-2.568.541-4.338 2.718-4.742 4.737a.667.667 0 0 1-1.299.039c-.552-2.1-2.196-4.235-4.894-4.774a.667.667 0 0 1-.031-1.3c1.418-.355 2.463-.908 3.24-1.684.776-.777 1.329-1.822 1.683-3.24A.667.667 0 0 1 8.091 2ZM4 8.07c1.532.772 3.34 2.582 4.046 3.93.679-1.332 2.49-3.125 3.954-3.897-.73-.346-1.947-1.039-2.5-1.603-.552-.564-1.117-1.745-1.46-2.5-.355.736-.988 1.948-1.54 2.5-.568.568-1.737 1.21-2.5 1.57Z" clip-rule="evenodd"/>
</svg>
