<svg xmlns="http://www.w3.org/2000/svg" width="24" height="24" fill="none" viewBox="0 0 24 24">
  <path fill="var(--tbl--colors--icons--clean--primary)" fill-rule="evenodd" d="M20.72 10.48c.506.192.515 1.16.017 1.372-3.328 1.412-5.774 4.174-6.967 7.084-.2.49-1.126.51-1.337.024-1.304-3.006-3.738-5.819-7.3-7.2-.497-.192-.508-1.088-.009-1.276 3.643-1.374 5.986-3.717 7.36-7.36.188-.5 1.059-.481 1.232.023C14.95 6.745 17.32 9.19 20.72 10.48ZM7.04 14.902a.5.5 0 0 0-.976-.023c-.23.922-.589 1.597-1.088 2.097-.5.5-1.175.858-2.097 1.088a.5.5 0 0 0 .023.976c1.742.348 2.806 1.727 3.164 3.087a.5.5 0 0 0 .974-.029c.26-1.303 1.405-2.71 3.063-3.06a.5.5 0 0 0 0-.978c-.857-.18-1.527-.534-2.026-1.044-.5-.51-.856-1.205-1.037-2.114Zm-.51 5.716a5.146 5.146 0 0 0-2.061-2.07c.46-.23.864-.515 1.214-.865.338-.338.616-.728.842-1.168.22.453.499.855.838 1.201.34.348.733.632 1.174.855a5.174 5.174 0 0 0-2.007 2.047Z" clip-rule="evenodd"/>
</svg>
