<svg xmlns="http://www.w3.org/2000/svg" width="32" height="32" fill="none" viewBox="0 0 32 32">
  <path fill="var(--tbl--colors--icons--clean--primary)" fill-rule="evenodd" d="M25 9a2 2 0 1 0 0-4 2 2 0 0 0 0 4Zm-1.28 6.48c.506.192.515 1.16.017 1.372-3.328 1.412-5.774 4.174-6.967 7.084-.2.49-1.126.51-1.337.024-1.304-3.006-3.738-5.819-7.3-7.2-.497-.192-.508-1.088-.009-1.276 3.643-1.374 5.986-3.717 7.36-7.36.188-.499 1.059-.481 1.232.023 1.235 3.598 3.604 6.042 7.005 7.333ZM6.561 21.5a.5.5 0 0 1 .479.402c.181.909.538 1.604 1.037 2.114.5.51 1.17.864 2.026 1.044a.5.5 0 0 1 0 .979c-1.658.349-2.803 1.756-3.063 3.06a.5.5 0 0 1-.974.028c-.358-1.36-1.422-2.74-3.164-3.087a.5.5 0 0 1-.023-.976c.922-.23 1.597-.589 2.097-1.088.5-.5.858-1.175 1.088-2.097a.5.5 0 0 1 .497-.379ZM4.47 25.548a5.146 5.146 0 0 1 2.06 2.07 5.173 5.173 0 0 1 2.008-2.047 4.43 4.43 0 0 1-1.174-.855 4.532 4.532 0 0 1-.838-1.201c-.226.44-.504.83-.842 1.168-.35.35-.755.635-1.214.865Z" clip-rule="evenodd"/>
</svg>
