<svg xmlns="http://www.w3.org/2000/svg" width="32" height="32" fill="none" viewBox="0 0 32 32">
  <g filter="var(--tbl--ui-node-icon--enrichment-contact-out-l)">
    <path d="M9.10252 24.1515L9.10252 13.1818H22.8974V24.1515H9.10252ZM8.10252 9.66667C6.70727 9.66667 5.66663 10.844 5.66663 12.1818V25.1515C5.66663 26.4893 6.70727 27.6667 8.10252 27.6667H23.8974C25.2926 27.6667 26.3333 26.4893 26.3333 25.1515V12.1818C26.3333 10.844 25.2926 9.66667 23.8974 9.66667H8.10252Z" fill="#146030" stroke="white" stroke-width="2" stroke-linejoin="round"/>
    <rect x="8" y="12" width="16" height="13.3333" fill="#29DF6E"/>
    <path fill-rule="evenodd" clip-rule="evenodd" d="M11.6298 18.6744C11.8945 18.6533 12.1542 18.6753 12.4088 18.7403C13.8263 19.9001 15.4882 20.2513 17.3947 19.7937C18.2417 19.4691 19.0468 19.0959 19.8098 18.6744C20.3186 18.6876 20.6044 18.9071 20.6667 19.3328C20.1656 20.052 19.4385 20.5567 18.4854 20.8471C15.8464 21.7603 13.5093 21.3872 11.474 19.7278C11.2441 19.3403 11.2961 18.9893 11.6298 18.6744Z" fill="#116230"/>
    <circle cx="8.00004" cy="10.6667" r="6.66667" fill="white"/>
    <circle cx="24" cy="10.6667" r="6.66667" fill="white"/>
    <path fill-rule="evenodd" clip-rule="evenodd" d="M10.9018 13.1351C10.203 13.9557 9.16234 14.4762 8.00008 14.4762C5.89614 14.4762 4.19056 12.7706 4.19056 10.6666C4.19056 8.5627 5.89614 6.85712 8.00008 6.85712C9.37663 6.85712 10.5827 7.58724 11.252 8.68134L12.3514 7.58199C11.385 6.22119 9.79621 5.33331 8.00008 5.33331C5.05456 5.33331 2.66675 7.72113 2.66675 10.6666C2.66675 13.6122 5.05456 16 8.00008 16C9.58309 16 11.005 15.3103 11.9818 14.2151L10.9018 13.1351Z" fill="#1C1C1F"/>
    <path fill-rule="evenodd" clip-rule="evenodd" d="M24 14.5C26.1171 14.5 27.8333 12.7838 27.8333 10.6667C27.8333 8.54957 26.1171 6.83333 24 6.83333C21.8829 6.83333 20.1666 8.54957 20.1666 10.6667C20.1666 12.7838 21.8829 14.5 24 14.5ZM24 16C26.9455 16 29.3333 13.6122 29.3333 10.6667C29.3333 7.72114 26.9455 5.33333 24 5.33333C21.0544 5.33333 18.6666 7.72114 18.6666 10.6667C18.6666 13.6122 21.0544 16 24 16Z" fill="#1C1C1F"/>
    <circle cx="8" cy="10.6667" r="2" fill="#1A6233"/>
    <circle cx="24" cy="10.6667" r="2" fill="#1A6233"/>
  </g>
  <defs>
  <filter id="tbl--ui-node-icon--enrichment-contact-out-l--disabled">
    <feColorMatrix type="saturate" values="0.01" />
  </filter>
  </defs>
</svg>
