<svg xmlns="http://www.w3.org/2000/svg" width="24" height="24" fill="none" viewBox="0 0 24 24">
  <g filter="var(--tbl--ui-node-icon--enrichment-contact-out-m)">
    <path d="M7.07692 17.8636L7.07692 10.1364H16.9231V17.8636H7.07692ZM6.07692 7C4.87993 7 4 8.00778 4 9.13636V18.8636C4 19.9922 4.87993 21 6.07692 21H17.9231C19.1201 21 20 19.9922 20 18.8636V9.13636C20 8.00778 19.1201 7 17.9231 7H6.07692Z" fill="#146030" stroke="white" stroke-width="2" stroke-linejoin="round"/>
    <rect x="6" y="9" width="12" height="10" fill="#29DF6E"/>
    <path fill-rule="evenodd" clip-rule="evenodd" d="M8.72232 14.0058C8.92088 13.99 9.11565 14.0065 9.3066 14.0552C10.3697 14.9251 11.6161 15.1884 13.046 14.8453C13.6812 14.6018 14.285 14.3219 14.8573 14.0058C15.2389 14.0157 15.4533 14.1803 15.5 14.4996C15.1242 15.039 14.5788 15.4176 13.864 15.6353C11.8848 16.3202 10.1319 16.0404 8.60546 14.7959C8.43307 14.5052 8.47202 14.2419 8.72232 14.0058Z" fill="#116230"/>
    <circle cx="6" cy="8" r="5" fill="white"/>
    <circle cx="18" cy="8" r="5" fill="white"/>
    <path fill-rule="evenodd" clip-rule="evenodd" d="M8.17628 9.8513C7.65222 10.4668 6.8717 10.8571 6 10.8571C4.42204 10.8571 3.14286 9.57794 3.14286 7.99998C3.14286 6.42203 4.42204 5.14284 6 5.14284C7.03241 5.14284 7.93693 5.69043 8.43897 6.51101L9.26348 5.68649C8.53867 4.66589 7.3471 3.99998 6 3.99998C3.79086 3.99998 2 5.79085 2 7.99998C2 10.2091 3.79086 12 6 12C7.18725 12 8.25369 11.4827 8.98627 10.6613L8.17628 9.8513Z" fill="#1C1C1F"/>
    <path fill-rule="evenodd" clip-rule="evenodd" d="M18 11C19.6569 11 21 9.65685 21 8C21 6.34315 19.6569 5 18 5C16.3431 5 15 6.34315 15 8C15 9.65685 16.3431 11 18 11ZM18 12C20.2091 12 22 10.2091 22 8C22 5.79086 20.2091 4 18 4C15.7909 4 14 5.79086 14 8C14 10.2091 15.7909 12 18 12Z" fill="#1C1C1F"/>
    <circle cx="6" cy="8" r="1.5" fill="#1A6233"/>
    <circle cx="18" cy="8" r="1.5" fill="#1A6233"/>
  </g>
  <defs>
    <filter id="tbl--ui-node-icon--enrichment-contact-out-m--disabled">
      <feColorMatrix type="saturate" values="0.01" />
    </filter>
  </defs>
</svg>
