<svg width="16" height="16" viewBox="0 0 16 16" fill="none" xmlns="http://www.w3.org/2000/svg">
  <g filter="var(--tbl--ui-node-icon--enrichment--contact-out-s)">
    <path d="M11.3077 12.5372H4.6923L4.6923 7.46281H11.3077V12.5372ZM3.6923 4.63637C2.65752 4.63637 1.90909 5.5054 1.90909 6.46281V13.5372C1.90909 14.4946 2.65752 15.3636 3.6923 15.3636H12.3077C13.3425 15.3636 14.0909 14.4946 14.0909 13.5372V6.46281C14.0909 5.5054 13.3425 4.63637 12.3077 4.63637H3.6923Z" fill="#146030" stroke="white" stroke-width="2" stroke-linejoin="round"/>
    <rect x="3.63637" y="6.36364" width="8.72727" height="7.27273" fill="#29DF6E"/>
    <path fill-rule="evenodd" clip-rule="evenodd" d="M5.61623 10.0042C5.76064 9.99272 5.90229 10.0047 6.04116 10.0401C6.81431 10.6728 7.72083 10.8643 8.76073 10.6147C9.22272 10.4377 9.66185 10.2341 10.078 10.0042C10.3556 10.0114 10.5115 10.1311 10.5455 10.3633C10.2721 10.7557 9.8755 11.031 9.35564 11.1893C7.9162 11.6874 6.6414 11.4839 5.53124 10.5788C5.40587 10.3674 5.4342 10.176 5.61623 10.0042Z" fill="#116230"/>
    <ellipse cx="3.63636" cy="5.63636" rx="3.63636" ry="3.63636" fill="white"/>
    <ellipse cx="12.3636" cy="5.63636" rx="3.63636" ry="3.63636" fill="white"/>
    <path fill-rule="evenodd" clip-rule="evenodd" d="M5.21914 6.98277C4.838 7.43037 4.27035 7.71428 3.63639 7.71428C2.48878 7.71428 1.55846 6.78396 1.55846 5.63636C1.55846 4.48875 2.48878 3.55843 3.63639 3.55843C4.38723 3.55843 5.04507 3.95668 5.41018 4.55346L6.00983 3.95381C5.48269 3.21156 4.61609 2.72726 3.63639 2.72726C2.02974 2.72726 0.727295 4.02971 0.727295 5.63636C0.727295 7.243 2.02974 8.54545 3.63639 8.54545C4.49984 8.54545 5.27544 8.16926 5.80822 7.57185L5.21914 6.98277Z" fill="#1C1C1F"/>
    <path fill-rule="evenodd" clip-rule="evenodd" d="M12.3637 7.72727C13.5184 7.72727 14.4546 6.79114 14.4546 5.63636C14.4546 4.48159 13.5184 3.54545 12.3637 3.54545C11.2089 3.54545 10.2727 4.48159 10.2727 5.63636C10.2727 6.79114 11.2089 7.72727 12.3637 7.72727ZM12.3637 8.54545C13.9703 8.54545 15.2727 7.24301 15.2727 5.63636C15.2727 4.02972 13.9703 2.72727 12.3637 2.72727C10.757 2.72727 9.45456 4.02972 9.45456 5.63636C9.45456 7.24301 10.757 8.54545 12.3637 8.54545Z" fill="#1C1C1F"/>
    <ellipse cx="3.63636" cy="5.63637" rx="1.09091" ry="1.09091" fill="#1A6233"/>
    <ellipse cx="12.3636" cy="5.63637" rx="1.09091" ry="1.09091" fill="#1A6233"/>
  </g>
  <defs>
    <filter id="tbl--ui-node-icon--enrichment--contact-out-s--disabled">
      <feColorMatrix type="saturate" values="0.01" />
    </filter>
  </defs>
</svg>

