<svg width="32" height="32" viewBox="0 0 32 32" fill="none" xmlns="http://www.w3.org/2000/svg">
  <g filter="var(--tbl--ui-node-icon--enrichment-contact-out-l)">
    <path d="M8.38462 26.0744L8.38462 13.9256H23.6154V26.0744H8.38462ZM7.38462 10.2727C5.91728 10.2727 4.81819 11.5118 4.81819 12.9256V27.0744C4.81819 28.4882 5.91728 29.7273 7.38462 29.7273H24.6154C26.0827 29.7273 27.1818 28.4882 27.1818 27.0744V12.9256C27.1818 11.5118 26.0827 10.2727 24.6154 10.2727H7.38462Z" fill="#146030" stroke="white" stroke-width="2" stroke-linejoin="round"/>
    <rect x="7.27274" y="12.7273" width="17.4545" height="14.5455" fill="#29DF6E"/>
    <path fill-rule="evenodd" clip-rule="evenodd" d="M11.2325 20.0085C11.5213 19.9854 11.8046 20.0094 12.0823 20.0803C13.6286 21.3455 15.4417 21.7286 17.5215 21.2295C18.4454 20.8754 19.3237 20.4683 20.1561 20.0085C20.7112 20.0228 21.0229 20.2623 21.0909 20.7267C20.5443 21.5113 19.751 22.0619 18.7113 22.3786C15.8324 23.3748 13.2828 22.9679 11.0625 21.1576C10.8117 20.7349 10.8684 20.3519 11.2325 20.0085Z" fill="#116230"/>
    <circle cx="7.27273" cy="11.2727" r="7.27273" fill="white"/>
    <circle cx="24.7273" cy="11.2727" r="7.27273" fill="white"/>
    <path fill-rule="evenodd" clip-rule="evenodd" d="M10.4383 13.9655C9.676 14.8607 8.5407 15.4286 7.27277 15.4286C4.97756 15.4286 3.11693 13.5679 3.11693 11.2727C3.11693 8.9775 4.97756 7.11687 7.27277 7.11687C8.77447 7.11687 10.0901 7.91335 10.8204 9.10692L12.0197 7.90763C10.9654 6.42312 9.23219 5.45453 7.27277 5.45453C4.05948 5.45453 1.45459 8.05942 1.45459 11.2727C1.45459 14.486 4.05948 17.0909 7.27277 17.0909C8.99969 17.0909 10.5509 16.3385 11.6164 15.1437L10.4383 13.9655Z" fill="#1C1C1F"/>
    <path fill-rule="evenodd" clip-rule="evenodd" d="M24.7273 15.4545C27.0368 15.4545 28.9091 13.5823 28.9091 11.2727C28.9091 8.96317 27.0368 7.09091 24.7273 7.09091C22.4177 7.09091 20.5455 8.96317 20.5455 11.2727C20.5455 13.5823 22.4177 15.4545 24.7273 15.4545ZM24.7273 17.0909C27.9406 17.0909 30.5455 14.486 30.5455 11.2727C30.5455 8.05943 27.9406 5.45455 24.7273 5.45455C21.514 5.45455 18.9091 8.05943 18.9091 11.2727C18.9091 14.486 21.514 17.0909 24.7273 17.0909Z" fill="#1C1C1F"/>
    <ellipse cx="7.27273" cy="11.2727" rx="2.18182" ry="2.18182" fill="#1A6233"/>
    <ellipse cx="24.7273" cy="11.2727" rx="2.18182" ry="2.18182" fill="#1A6233"/>
  </g>
  <defs>
    <filter id="tbl--ui-node-icon--enrichment-contact-out-l--disabled">
      <feColorMatrix type="saturate" values="0.01" />
    </filter>
  </defs>
</svg>
