<svg width="24" height="24" viewBox="0 0 24 24" fill="none" xmlns="http://www.w3.org/2000/svg">
  <path
    fill-rule="evenodd"
    clip-rule="evenodd"
    d="M11.8896 13.1224C11.6412 13.322 11.625 13.4831 11.625 13.5C11.625 13.879 11.7666 14.239 12.0294 14.5018C12.2781 14.7505 12.7244 15 13.5 15C14.6298 15 15.4619 14.8098 16.0732 14.5467C15.812 14.075 15.5103 13.6976 15.1698 13.4171C14.6891 13.021 14.051 12.75 13.125 12.75C12.5368 12.75 12.1258 12.9326 11.8896 13.1224ZM16.9862 17.4136C17.1907 18.6227 17.25 19.8899 17.25 21H20.25C20.25 19.1354 20.104 16.4609 19.2177 14.2054C18.7685 13.0621 18.0967 11.9414 17.0773 11.1016C16.0323 10.2407 14.7111 9.75 13.125 9.75C10.8194 9.75 8.625 11.257 8.625 13.5C8.625 14.621 9.0459 15.761 9.90809 16.6232C10.7844 17.4995 12.0256 18 13.5 18C14.8527 18 16.0099 17.7885 16.9862 17.4136Z"
    fill="var(--tbl--ui-node-icon--enrichment--reverse-contact-m-gradient-one)"
  />
  <path
    fill-rule="evenodd"
    clip-rule="evenodd"
    d="M7.2173 8.18896C6.31533 9.4417 6 10.99 6 12V21H3V12C3 10.51 3.43467 8.3083 4.7827 6.43604C6.18579 4.4873 8.51112 3 12 3C15.3684 3 17.8021 4.17516 19.3082 6.04275C20.7797 7.86739 21.2131 10.1649 20.9908 12.1656C20.8954 13.0246 20.572 14.318 19.6354 15.4854C20.1528 17.4177 20.25 19.4785 20.25 21H17.25C17.25 19.8869 17.1904 18.6159 16.9846 17.4039C16.0211 17.7825 14.8673 18 13.5 18C12.0256 18 10.7844 17.4995 9.90809 16.6232C9.0459 15.761 8.625 14.621 8.625 13.5C8.625 11.257 10.8194 9.75 13.125 9.75C14.7111 9.75 16.0323 10.2407 17.0773 11.1016C17.4161 11.3807 17.7165 11.6908 17.9831 12.0225C17.9939 11.9573 18.0025 11.8944 18.0092 11.8344C18.1619 10.4601 17.8453 9.00761 16.973 7.926C16.1354 6.88734 14.6316 6 12 6C9.48888 6 8.06421 7.0127 7.2173 8.18896ZM16.0672 14.5359C15.8074 14.0692 15.5077 13.6954 15.1698 13.4171C14.6891 13.021 14.051 12.75 13.125 12.75C12.5368 12.75 12.1258 12.9326 11.8896 13.1224C11.6412 13.322 11.625 13.4831 11.625 13.5C11.625 13.879 11.7666 14.239 12.0294 14.5018C12.2781 14.7505 12.7244 15 13.5 15C14.6387 15 15.4641 14.8072 16.0672 14.5359Z"
    fill="var(--tbl--ui-node-icon--enrichment--reverse-contact-m-gradient-two)"
  />
  <path
    fill-rule="evenodd"
    clip-rule="evenodd"
    d="M11.8896 13.1224C11.6412 13.322 11.625 13.4831 11.625 13.5C11.625 13.879 11.7666 14.239 12.0294 14.5018C12.2781 14.7505 12.7244 15 13.5 15V18C12.0256 18 10.7844 17.4995 9.90809 16.6232C9.0459 15.761 8.625 14.621 8.625 13.5C8.625 11.257 10.8194 9.75 13.125 9.75C14.7111 9.75 16.0323 10.2407 17.0773 11.1016C18.0967 11.9414 18.7685 13.0621 19.2177 14.2054C20.104 16.4609 20.25 19.1354 20.25 21H17.25C17.25 19.2086 17.0957 17.0081 16.4255 15.3026C16.0966 14.4654 15.6761 13.8341 15.1698 13.4171C14.6891 13.021 14.051 12.75 13.125 12.75C12.5368 12.75 12.1258 12.9326 11.8896 13.1224Z"
    fill="var(--tbl--ui-node-icon--enrichment--reverse-contact-m-gradient-three)"
  />
  <path
    fill-rule="evenodd"
    clip-rule="evenodd"
    d="M17.2179 13.7737C17.8227 13.1437 18 12.4036 18 12H21C21 13.0964 20.5773 14.6063 19.3821 15.8513C18.1504 17.1342 16.2322 18 13.5 18C12.0256 18 10.7844 17.4995 9.90809 16.6232C9.0459 15.761 8.625 14.621 8.625 13.5H11.625C11.625 13.879 11.7666 14.239 12.0294 14.5018C12.2781 14.7505 12.7244 15 13.5 15C15.5678 15 16.6496 14.3658 17.2179 13.7737Z"
    fill="var(--tbl--ui-node-icon--enrichment--reverse-contact-m-gradient-four)"
  />
  <defs>
    <linearGradient id="tbl--ui-node-icon--enrichment--reverse-contact-m--gradient-1" x1="16.875" y1="13.5" x2="10.5" y2="12" gradientUnits="userSpaceOnUse">
      <stop stop-color="#7E0DB0"/>
      <stop offset="1" stop-color="#6334C6" stop-opacity="0"/>
    </linearGradient>
    <linearGradient id="tbl--ui-node-icon--enrichment--reverse-contact-m--gradient-2" x1="21.75" y1="14.625" x2="-4.84586e-08" y2="15.75" gradientUnits="userSpaceOnUse">
      <stop stop-color="#4E52D2"/>
      <stop offset="1" stop-color="#0EABFF"/>
    </linearGradient>
    <linearGradient id="tbl--ui-node-icon--enrichment--reverse-contact-m--gradient-3" x1="18.75" y1="18.75" x2="9" y2="12.75" gradientUnits="userSpaceOnUse">
      <stop stop-color="#7E0DB0"/>
      <stop offset="1" stop-color="#5843CB"/>
    </linearGradient>
    <linearGradient id="tbl--ui-node-icon--enrichment--reverse-contact-m--gradient-4" x1="19.125" y1="13.5" x2="10.125" y2="15.75" gradientUnits="userSpaceOnUse">
      <stop stop-color="#4A58D5"/>
      <stop offset="1" stop-color="#5842CB"/>
    </linearGradient>

    <linearGradient id="tbl--ui-node-icon--enrichment--reverse-contact-m--gradient-disabled" x1="25.5" y1="18" x2="13.5" y2="21" gradientUnits="userSpaceOnUse">
      <stop stop-color="var(--tbl--ui-node-icon--enrichment--bouncer-primary)"/>
      <stop offset="1" stop-color="var(--tbl--colors--icons--disabled--primary)"/>
    </linearGradient>
  </defs>
</svg>
