<svg width="16" height="16" viewBox="0 0 16 16" fill="none" xmlns="http://www.w3.org/2000/svg">
  <path
    fill-rule="evenodd"
    clip-rule="evenodd"
    d="M7.92639 8.74826C7.76081 8.88131 7.75 8.98875 7.75 9C7.75 9.25264 7.8444 9.49269 8.01961 9.66789C8.1854 9.83369 8.48292 10 9 10C9.75319 10 10.3079 9.87319 10.7154 9.69782C10.5413 9.38331 10.3402 9.13171 10.1132 8.9447C9.79271 8.68069 9.36736 8.5 8.75 8.5C8.35789 8.5 8.08387 8.62171 7.92639 8.74826ZM11.3241 11.6091C11.4605 12.4152 11.5 13.2599 11.5 14H13.5C13.5 12.7569 13.4026 10.9739 12.8118 9.47028C12.5123 8.70807 12.0645 7.96091 11.3849 7.40104C10.6882 6.82714 9.80741 6.5 8.75 6.5C7.21296 6.5 5.75 7.50464 5.75 9C5.75 9.74736 6.0306 10.5073 6.60539 11.0821C7.1896 11.6663 8.01708 12 9 12C9.90182 12 10.6733 11.859 11.3241 11.6091Z"
    fill="var(--tbl--ui-node-icon--enrichment--reverse-contact-s-gradient-one)"
  />
  <path
    fill-rule="evenodd"
    clip-rule="evenodd"
    d="M4.81153 5.4593C4.21022 6.29447 4 7.32669 4 8V14H2V8C2 7.00664 2.28978 5.53887 3.18847 4.2907C4.12386 2.99153 5.67408 2 8 2C10.2456 2 11.8681 2.78344 12.8722 4.0285C13.8532 5.24493 14.1421 6.77661 13.9939 8.11043C13.9303 8.68307 13.7147 9.54534 13.0903 10.3236C13.4352 11.6118 13.5 12.9857 13.5 14H11.5C11.5 13.2579 11.4603 12.4106 11.323 11.6026C10.6808 11.855 9.91151 12 9 12C8.01708 12 7.1896 11.6663 6.60539 11.0821C6.0306 10.5073 5.75 9.74736 5.75 9C5.75 7.50464 7.21296 6.5 8.75 6.5C9.80741 6.5 10.6882 6.82714 11.3849 7.40104C11.6107 7.58712 11.811 7.79388 11.9887 8.01501C11.9959 7.97154 12.0017 7.92962 12.0061 7.88957C12.1079 6.97339 11.8968 6.00507 11.3153 5.284C10.7569 4.59156 9.75437 4 8 4C6.32592 4 5.37614 4.67513 4.81153 5.4593ZM10.7114 9.69061C10.5383 9.37946 10.3385 9.13028 10.1132 8.9447C9.79271 8.68069 9.36736 8.5 8.75 8.5C8.35789 8.5 8.08387 8.62171 7.92639 8.74826C7.76081 8.88131 7.75 8.98875 7.75 9C7.75 9.25264 7.8444 9.49269 8.01961 9.66789C8.1854 9.83369 8.48292 10 9 10C9.75915 10 10.3094 9.87143 10.7114 9.69061Z"
    fill="var(--tbl--ui-node-icon--enrichment--reverse-contact-s-gradient-two)"
  />
  <path
    fill-rule="evenodd"
    clip-rule="evenodd"
    d="M7.92639 8.74826C7.76081 8.88131 7.75 8.98875 7.75 9C7.75 9.25264 7.8444 9.49269 8.01961 9.66789C8.1854 9.83369 8.48292 10 9 10V12C8.01708 12 7.1896 11.6663 6.60539 11.0821C6.0306 10.5073 5.75 9.74736 5.75 9C5.75 7.50464 7.21296 6.5 8.75 6.5C9.80741 6.5 10.6882 6.82714 11.3849 7.40104C12.0645 7.96091 12.5123 8.70807 12.8118 9.47028C13.4026 10.9739 13.5 12.7569 13.5 14H11.5C11.5 12.8057 11.3971 11.3387 10.9504 10.2017C10.731 9.64359 10.4507 9.22275 10.1132 8.9447C9.79271 8.68069 9.36736 8.5 8.75 8.5C8.35789 8.5 8.08387 8.62171 7.92639 8.74826Z"
    fill="var(--tbl--ui-node-icon--enrichment--reverse-contact-s-gradient-three)"
  />
  <path
    fill-rule="evenodd"
    clip-rule="evenodd"
    d="M11.4786 9.18247C11.8818 8.76245 12 8.26907 12 8H14C14 8.73093 13.7182 9.73755 12.9214 10.5675C12.1003 11.4228 10.8215 12 9 12C8.01708 12 7.1896 11.6663 6.60539 11.0821C6.0306 10.5073 5.75 9.74736 5.75 9H7.75C7.75 9.25264 7.8444 9.49269 8.01961 9.66789C8.1854 9.83369 8.48292 10 9 10C10.3785 10 11.0997 9.57717 11.4786 9.18247Z"
    fill="var(--tbl--ui-node-icon--enrichment--reverse-contact-s-gradient-four)"
  />
  <defs>
    <linearGradient id="tbl--ui-node-icon--enrichment--reverse-contact-s--gradient-1" x1="11.25" y1="9" x2="7" y2="8" gradientUnits="userSpaceOnUse">
      <stop stop-color="#7E0DB0"/>
      <stop offset="1" stop-color="#6334C6" stop-opacity="0"/>
    </linearGradient>
    <linearGradient id="tbl--ui-node-icon--enrichment--reverse-contact-s--gradient-2" x1="14.5" y1="9.75" x2="-8.3109e-08" y2="10.5" gradientUnits="userSpaceOnUse">
      <stop stop-color="#4E52D2"/>
      <stop offset="1" stop-color="#0EABFF"/>
    </linearGradient>
    <linearGradient id="tbl--ui-node-icon--enrichment--reverse-contact-s--gradient-3" x1="12.5" y1="12.5" x2="6" y2="8.5" gradientUnits="userSpaceOnUse">
      <stop stop-color="#7E0DB0"/>
      <stop offset="1" stop-color="#5843CB"/>
    </linearGradient>
    <linearGradient id="tbl--ui-node-icon--enrichment--reverse-contact-s--gradient-4" x1="12.75" y1="9" x2="6.75" y2="10.5" gradientUnits="userSpaceOnUse">
      <stop stop-color="#4A58D5"/>
      <stop offset="1" stop-color="#5842CB"/>
    </linearGradient>

    <linearGradient id="tbl--ui-node-icon--enrichment--reverse-contact-s--gradient-disabled" x1="25.5" y1="18" x2="13.5" y2="21" gradientUnits="userSpaceOnUse">
      <stop stop-color="var(--tbl--ui-node-icon--enrichment--bouncer-primary)"/>
      <stop offset="1" stop-color="var(--tbl--colors--icons--disabled--primary)"/>
    </linearGradient>
  </defs>
</svg>
