<svg width="24" height="24" viewBox="0 0 24 24" fill="none" xmlns="http://www.w3.org/2000/svg">
  <path fill-rule="evenodd" clip-rule="evenodd" d="M4 5C4 3.34315 5.34315 2 7 2H15L20 7V19C20 20.6569 18.6569 22 17 22H7C5.34315 22 4 20.6569 4 19V5ZM9 10L11.5 10V13H8V11C8 10.4477 8.44772 10 9 10ZM12.5 13V10L15 10C15.5523 10 16 10.4477 16 11V13H12.5ZM8 14H11.5V17H9C8.44772 17 8 16.5523 8 16V14ZM12.5 14V17H15C15.5523 17 16 16.5523 16 16V14H12.5ZM11.5 18H12.5H15C16.1046 18 17 17.1046 17 16V14V13V11C17 9.89543 16.1046 9 15 9H9C7.89543 9 7 9.89543 7 11V13V14V16C7 17.1046 7.89543 18 9 18H11.5Z" fill="#00B7A2"/>
  <path d="M20 7L15 2V5C15 6.10457 15.8954 7 17 7H20Z" fill="white" fill-opacity="0.5"/>
</svg>
