<svg width="24" height="24" viewBox="0 0 24 24" fill="none" xmlns="http://www.w3.org/2000/svg">
  <rect width="24" height="24" rx="12" fill="url(#paint0_linear_2392_53908)"/>
  <path fill-rule="evenodd" clip-rule="evenodd" d="M12.111 4.953a1.071 1.071 0 0 1 .675-.239.214.214 0 1 0 0-.428 1.07 1.07 0 0 1-1.072-1.072.214.214 0 0 0-.428 0 1.068 1.068 0 0 1-.83 1.044 1.07 1.07 0 0 1-.242.028.214.214 0 1 0 0 .428 1.07 1.07 0 0 1 1.072 1.072.214.214 0 0 0 .428 0 1.068 1.068 0 0 1 .397-.833ZM11 7.5a.357.357 0 0 1-.357.357 1.786 1.786 0 0 0-1.786 1.786.357.357 0 1 1-.714 0 1.786 1.786 0 0 0-1.786-1.786.357.357 0 1 1 0-.714 1.786 1.786 0 0 0 1.786-1.786.357.357 0 1 1 .714 0 1.786 1.786 0 0 0 1.786 1.786A.357.357 0 0 1 11 7.5Zm7 5.5a.715.715 0 0 1-.714.714 3.572 3.572 0 0 0-3.572 3.572.715.715 0 0 1-1.428 0 3.572 3.572 0 0 0-3.572-3.572.715.715 0 0 1 0-1.428 3.572 3.572 0 0 0 3.572-3.572.715.715 0 0 1 1.428 0 3.572 3.572 0 0 0 3.572 3.572A.715.715 0 0 1 18 13Z" fill="#fff"/>
  <defs>
    <linearGradient id="paint0_linear_2392_53908" x1="0" y1="14" x2="12" y2="14" gradientUnits="userSpaceOnUse">
      <stop stop-color="#01B7A3"/>
      <stop offset="1" stop-color="#3595FF"/>
    </linearGradient>
  </defs>
</svg>
