<svg width="24" height="24" viewBox="0 0 24 24" fill="none" xmlns="http://www.w3.org/2000/svg">
  <rect width="24" height="24" rx="12" fill="currentColor"/>
  <path fill-rule="evenodd" clip-rule="evenodd" d="M11.236 8.569A.333.333 0 0 0 11 8a1.667 1.667 0 0 1-1.667-1.667.333.333 0 0 0-.666 0A1.667 1.667 0 0 1 7 8a.333.333 0 1 0 0 .667 1.667 1.667 0 0 1 1.667 1.666.333.333 0 1 0 .666 0A1.667 1.667 0 0 1 11 8.667a.333.333 0 0 0 .236-.098Zm5.916 4.869a.619.619 0 0 0-.438-1.057 3.095 3.095 0 0 1-3.095-3.095.619.619 0 1 0-1.238 0 3.095 3.095 0 0 1-3.095 3.095.619.619 0 1 0 0 1.238 3.095 3.095 0 0 1 3.095 3.095.619.619 0 1 0 1.238 0 3.095 3.095 0 0 1 3.095-3.095.62.62 0 0 0 .438-.181Z" fill="#fff"/>
</svg>
