<svg width="24" height="24" viewBox="0 0 24 24" fill="none" xmlns="http://www.w3.org/2000/svg">
  <g clip-path="url(#clip0_15_587)">
    <path fill-rule="evenodd" clip-rule="evenodd" d="M12 24C18.6274 24 24 18.6274 24 12C24 5.37258 18.6274 0 12 0C5.37258 0 0 5.37258 0 12C0 18.6274 5.37258 24 12 24ZM10 10C10.5523 10 11 9.55229 11 9C11 8.44771 10.5523 8 10 8C9.44771 8 9 8.44771 9 9C9 9.55229 9.44771 10 10 10ZM17.5105 14.3736C17.6572 14.033 17.4535 13.656 17.0987 13.5483C16.7439 13.4405 16.3732 13.6437 16.2156 13.9794C16.0279 14.3792 15.7837 14.7512 15.4898 15.0839C15.0472 15.5848 14.5019 15.9845 13.8911 16.2559C13.2803 16.5273 12.6182 16.6641 11.9498 16.6569C11.5059 16.6521 11.0662 16.5839 10.6437 16.4553C10.2889 16.3473 9.88969 16.4862 9.73185 16.8217C9.574 17.1573 9.71725 17.5612 10.0683 17.6805C10.6685 17.8846 11.2986 17.9928 11.9354 17.9997C12.7965 18.0089 13.6495 17.8327 14.4364 17.4831C15.2234 17.1334 15.9258 16.6184 16.496 15.9731C16.9177 15.496 17.2598 14.9558 17.5105 14.3736ZM15 9C15 9.55229 14.5523 10 14 10C13.4477 10 13 9.55229 13 9C13 8.44771 13.4477 8 14 8C14.5523 8 15 8.44771 15 9Z" fill="url(#paint0_linear_15_587)"/>
  </g>
  <defs>
    <linearGradient id="paint0_linear_15_587" x1="12" y1="0" x2="12" y2="24" gradientUnits="userSpaceOnUse">
      <stop stop-color="#8ACED2"/>
      <stop offset="1" stop-color="#82DAC5"/>
    </linearGradient>
    <clipPath id="clip0_15_587">
      <rect width="24" height="24" fill="white"/>
    </clipPath>
  </defs>
</svg>
