<svg xmlns="http://www.w3.org/2000/svg" width="24" height="24" fill="none" viewBox="0 0 24 24">
  <path
    fill="var(--tbl--colors--icons--clean--primary)"
    fill-rule="evenodd"
    d="M4 5C4 3.34315 5.34315 2 7 2H15L20 7V12.9996C21.2144 13.9118 22 15.3642 22 17C22 19.7614 19.7614 22 17 22H7C5.34315 22 4 20.6569 4 19V5ZM12.1 18C12.0344 17.6769 12 17.3425 12 17C12 16.2177 12.1797 15.4773 12.5 14.8179V14H12.9996C13.284 13.6214 13.6209 13.2844 13.9995 13H12.5V10L15 10C15.5523 10 16 10.4477 16 11V12.1C16.3231 12.0344 16.6575 12 17 12V11C17 9.89543 16.1046 9 15 9H9C7.89543 9 7 9.89543 7 11V13V14V16C7 17.1046 7.89543 18 9 18H11.5H12.1ZM9 10L11.5 10V13H8V11C8 10.4477 8.44772 10 9 10ZM8 14H11.5V17H9C8.44772 17 8 16.5523 8 16V14ZM17 21C19.2091 21 21 19.2091 21 17C21 14.7909 19.2091 13 17 13C14.7909 13 13 14.7909 13 17C13 19.2091 14.7909 21 17 21ZM17 14.5C17.2761 14.5 17.5 14.7239 17.5 15V17.7929L18.6464 16.6464C18.8417 16.4512 19.1583 16.4512 19.3536 16.6464C19.5488 16.8417 19.5488 17.1583 19.3536 17.3536L17.3536 19.3536C17.1583 19.5488 16.8417 19.5488 16.6464 19.3536L14.6464 17.3536C14.4512 17.1583 14.4512 16.8417 14.6464 16.6464C14.8417 16.4512 15.1583 16.4512 15.3536 16.6464L16.5 17.7929V15C16.5 14.7239 16.7239 14.5 17 14.5Z"
    clip-rule="evenodd"
  />
  <path
    fill="white"
    fill-opacity="0.5"
    d="M20 7L15 2V5C15 6.10457 15.8954 7 17 7H20Z"
  />
</svg>
