<svg xmlns="http://www.w3.org/2000/svg" width="32" height="32" fill="none" viewBox="0 0 32 32">
  <path fill="var(--tbl--colors--icons--clean--primary)" fill-rule="evenodd" d="M9 3C6.79086 3 5 4.79086 5 7V25C5 27.2091 6.79086 29 9 29H20.6822C21.6325 29.6318 22.7733 30 24 30C27.3137 30 30 27.3137 30 24C30 21.7792 28.7934 19.8401 27 18.8027L27 9.00001L21 3.00001H23.0079L23 3H9ZM18.3414 22C18.2277 22.3216 18.1407 22.6558 18.083 23H16.5H15.5H11C9.89543 23 9 22.1046 9 21V18V17V14C9 12.8954 9.89543 12 11 12H15.5H16.5H21C22.1046 12 23 12.8954 23 14V17V18V18.083C22.6558 18.1407 22.3216 18.2277 22 18.3414V18H16.5V22H18.3414ZM15.5 13H11C10.4477 13 10 13.4477 10 14V17H15.5V13ZM15.5 18V22H11C10.4477 22 10 21.5523 10 21V18H15.5ZM16.5 17H22V14C22 13.4477 21.5523 13 21 13H16.5V17ZM24 29C26.7614 29 29 26.7614 29 24C29 21.2386 26.7614 19 24 19C21.2386 19 19 21.2386 19 24C19 26.7614 21.2386 29 24 29ZM24.5 21.5C24.5 21.2239 24.2761 21 24 21C23.7239 21 23.5 21.2239 23.5 21.5V25.7929L22.3536 24.6464C22.1583 24.4512 21.8417 24.4512 21.6464 24.6464C21.4512 24.8417 21.4512 25.1583 21.6464 25.3536L23.6464 27.3536C23.8417 27.5488 24.1583 27.5488 24.3536 27.3536L26.3536 25.3536C26.5488 25.1583 26.5488 24.8417 26.3536 24.6464C26.1583 24.4512 25.8417 24.4512 25.6464 24.6464L24.5 25.7929V21.5Z" clip-rule="evenodd" />
  <path fill="#fff" fill-opacity="0.5" d="M21 7V3L27 9H23C21.8954 9 21 8.10457 21 7Z" />
</svg>
