<svg xmlns="http://www.w3.org/2000/svg" width="24" height="24" fill="none" viewBox="0 0 24 24">
  <path
    d="M3.57825 2.2841C2.91991 2.59179 2.42616 3.15984 2.16752 3.85806C1.94416 4.50895 1.94416 19.4911 2.16752 20.142C2.4144 20.8166 2.8964 21.3846 3.53123 21.7041L4.10727 22H11.9603C19.3431 22 19.8369 21.9763 20.2836 21.7751C20.9537 21.4675 21.3652 21.0296 21.7061 20.284L22 19.645L21.9647 11.858C21.9295 4.13025 21.9295 4.07108 21.6708 3.59771C21.5298 3.33735 21.2476 2.95866 21.0242 2.74564C20.2248 1.97641 20.5658 2.00008 11.9721 2.00008H4.17781L3.57825 2.2841ZM12.0309 5.219C13.3358 5.83438 14.3468 7.06515 14.8053 8.61544C14.9934 9.23082 15.0169 9.25449 15.64 9.44384C16.5334 9.72786 16.7803 9.86987 17.568 10.6273C19.6253 12.6036 19.6723 15.716 17.6738 17.7278C16.6627 18.7337 15.8751 19.0888 14.4526 19.1361C13.5944 19.1716 13.1594 19.1361 12.6774 18.9823C11.0786 18.4616 9.78545 17.1124 9.3975 15.5503C9.2094 14.8048 9.13887 14.7101 8.69214 14.6154C7.52829 14.3787 6.14107 13.2308 5.50625 11.9527C5.13005 11.2071 5.1183 11.1125 5.1183 9.8107C5.1183 8.57994 5.15356 8.37875 5.43571 7.76337C5.80015 6.98231 6.7759 5.89355 7.50478 5.46752C8.36297 4.95865 8.90375 4.84031 10.1734 4.87581C11.1609 4.89948 11.4548 4.95865 12.0309 5.219Z"
    fill="var(--tbl--ui-node-icon--enrichment--their-stack)"
  />
  <path
    d="M12.6539 9.45565C10.6201 10.1065 9.18583 12.071 9.17407 14.2367V14.8166L10.2204 14.7574C12.1248 14.6391 13.5944 13.6686 14.429 11.9763C14.7817 11.2545 14.864 10.9468 14.911 10.1657L14.9698 9.21896L14.1586 9.2308C13.7002 9.2308 13.0418 9.32547 12.6539 9.45565Z"
    fill="var(--tbl--ui-node-icon--enrichment--their-stack)"
  />
</svg>
