<svg xmlns="http://www.w3.org/2000/svg" width="24" height="24" fill="none" viewBox="0 0 24 24">
  <path fill="var(--tbl--colors--icons--clean--secondary)" fill-rule="evenodd" d="M6.223 9H5a3 3 0 0 0-3 3v3h4.936A8.963 8.963 0 0 1 6 11c0-.687.077-1.357.223-2ZM15 20c1.85 0 3.57-.558 5-1.515V19a3 3 0 0 1-3 3H5a3 3 0 0 1-3-3v-3h5.516A8.991 8.991 0 0 0 15 20Z" clip-rule="evenodd"/>
  <path fill="var(--tbl--colors--icons--clean--primary)" fill-rule="evenodd" d="M15 19a8 8 0 1 0 0-16 8 8 0 0 0 0 16ZM13.207 7.793a1 1 0 1 0-1.414 1.414L13.586 11l-1.793 1.793a1 1 0 0 0 1.414 1.414L15 12.414l1.793 1.793a1 1 0 0 0 1.414-1.414L16.414 11l1.793-1.793a1 1 0 0 0-1.414-1.414L15 9.586l-1.793-1.793Z" clip-rule="evenodd"/>
</svg>
