<svg xmlns="http://www.w3.org/2000/svg" width="24" height="24" fill="none" viewBox="0 0 24 24">
  <path
    fill="var(--tbl--colors--icons--clean--secondary)"
    fill-rule="evenodd"
    d="M5.05493 9H5C3.34315 9 2 10.3431 2 12V15H6.51555C5.55827 13.5699 5 11.8501 5 10C5 9.66199 5.01863 9.32833 5.05493 9ZM7.29168 16H2V19C2 20.6569 3.34315 22 5 22H17C18.6569 22 20 20.6569 20 19V16.7083C18.4077 18.1334 16.3051 19 14 19C11.3345 19 8.93964 17.8412 7.29168 16Z"
    clip-rule="evenodd"
  />
  <path
    fill="var(--tbl--colors--icons--clean--primary)"
    fill-rule="evenodd"
    d="M14 18C18.4183 18 22 14.4183 22 10C22 5.58172 18.4183 2 14 2C9.58172 2 6 5.58172 6 10C6 14.4183 9.58172 18 14 18ZM12.2071 6.79289C11.8166 6.40237 11.1834 6.40237 10.7929 6.79289C10.4024 7.18342 10.4024 7.81658 10.7929 8.20711L12.5858 10L10.7929 11.7929C10.4024 12.1834 10.4024 12.8166 10.7929 13.2071C11.1834 13.5976 11.8166 13.5976 12.2071 13.2071L14 11.4142L15.7929 13.2071C16.1834 13.5976 16.8166 13.5976 17.2071 13.2071C17.5976 12.8166 17.5976 12.1834 17.2071 11.7929L15.4142 10L17.2071 8.20711C17.5976 7.81658 17.5976 7.18342 17.2071 6.79289C16.8166 6.40237 16.1834 6.40237 15.7929 6.79289L14 8.58579L12.2071 6.79289Z"
    clip-rule="evenodd"
  />
</svg>
