<svg xmlns="http://www.w3.org/2000/svg" width="16" height="16" fill="none" viewBox="0 0 16 16">
  <path fill="currentColor" fill-rule="evenodd" d="M11 8a3 3 0 1 0 0-6 3 3 0 0 0 0 6Zm0 1v4a1 1 0 0 1-1 1H2a1 1 0 0 1-1-1V6a1 1 0 0 1 1-1h5a4 4 0 1 1 4 4Zm-1-.126V9H2V6h5.126A4.007 4.007 0 0 0 10 8.874Zm2.854-5.02a.5.5 0 0 0-.708-.708L11 4.293 9.854 3.146a.5.5 0 1 0-.708.708L10.293 5 9.146 6.146a.5.5 0 1 0 .708.708L11 5.707l1.146 1.147a.5.5 0 0 0 .708-.708L11.707 5l1.147-1.146ZM2 10v3h8v-3H2Z" clip-rule="evenodd"/>
</svg>
