<svg xmlns="http://www.w3.org/2000/svg" width="32" height="32" fill="none" viewBox="0 0 32 32">
  <path fill="var(--tbl--colors--icons--clean--secondary)" fill-rule="evenodd" d="M10.2 12H6a3 3 0 0 0-3 3v4h8.338A9.955 9.955 0 0 1 10 14c0-.685.069-1.354.2-2ZM20 24c1.045 0 2.053-.16 3-.458V24a3 3 0 0 1-3 3H6a3 3 0 0 1-3-3v-4h9a9.985 9.985 0 0 0 8 4Z" clip-rule="evenodd"/>
  <path fill="var(--tbl--colors--icons--clean--primary)" fill-rule="evenodd" d="M20 23a9 9 0 1 0 0-18 9 9 0 0 0 0 18Zm-1.793-12.207a1 1 0 0 0-1.414 1.414L18.586 14l-1.793 1.793a1 1 0 0 0 1.414 1.414L20 15.414l1.793 1.793a1 1 0 0 0 1.414-1.414L21.414 14l1.793-1.793a1 1 0 0 0-1.414-1.414L20 12.586l-1.793-1.793Z" clip-rule="evenodd"/>
</svg>
