<svg xmlns="http://www.w3.org/2000/svg" width="32" height="32" fill="none" viewBox="0 0 32 32">
  <path fill="var(--tbl--colors--icons--clean--secondary)" d="M12 19a2 2 0 0 1 2-2h13a2 2 0 0 1 2 2v5a2 2 0 0 1-2 2H14a2 2 0 0 1-2-2v-5Z"/>
  <path fill="var(--tbl--colors--icons--clean--primary)" fill-rule="evenodd" d="M6.972 5.618A1 1 0 0 1 7.5 6.5v7a1 1 0 1 1-2 0V8.369l-1.445.963a1 1 0 0 1-1.11-1.664l3-2a1 1 0 0 1 1.027-.05Zm-2.26 14.216c-.152.21-.212.493-.212.666a1 1 0 1 1-2 0c0-.493.14-1.211.588-1.834C3.574 17.99 4.374 17.5 5.5 17.5s1.926.491 2.412 1.166c.448.623.588 1.34.588 1.834 0 .887-.352 1.701-.783 2.375-.388.607-.878 1.157-1.358 1.625H7.5a1 1 0 1 1 0 2h-4a1 1 0 0 1-.53-1.848l.53.848-.53-.848.005-.003.027-.018c.025-.016.064-.04.113-.074a13.737 13.737 0 0 0 1.7-1.349c.466-.436.903-.92 1.218-1.411.318-.498.467-.934.467-1.297 0-.173-.06-.456-.212-.666-.114-.159-.314-.334-.788-.334-.474 0-.674.175-.788.334ZM14 6a2 2 0 0 0-2 2v5a2 2 0 0 0 2 2h13a2 2 0 0 0 2-2V8a2 2 0 0 0-2-2H14Z" clip-rule="evenodd"/>
</svg>
