<svg xmlns="http://www.w3.org/2000/svg" width="24" height="24" fill="none" viewBox="0 0 24 24">
  <path fill="var(--tbl--colors--icons--clean--primary)" fill-rule="evenodd" d="M5.9 3.727V11H4.144V5.368h-.043l-1.626.994v-1.52l1.793-1.115H5.9ZM2.535 20v-1.264l2.653-2.323c.199-.18.368-.344.508-.493.14-.152.246-.303.32-.455.073-.154.11-.32.11-.5a.963.963 0 0 0-.132-.515.882.882 0 0 0-.362-.334 1.153 1.153 0 0 0-.53-.117c-.2 0-.377.041-.528.124a.861.861 0 0 0-.356.351 1.17 1.17 0 0 0-.124.562H2.43c0-.495.111-.923.333-1.282.223-.36.536-.637.938-.832.405-.196.875-.294 1.41-.294.551 0 1.03.092 1.438.277.407.184.722.443.945.774.225.329.337.711.337 1.147 0 .277-.056.552-.167.824-.111.272-.311.573-.6.902-.287.329-.694.723-1.222 1.182l-.87.803v.046H7.92V20H2.536ZM11 4a2 2 0 0 0-2 2v3a2 2 0 0 0 2 2h9a2 2 0 0 0 2-2V6a2 2 0 0 0-2-2h-9Z" clip-rule="evenodd"/>
  <path fill="var(--tbl--colors--icons--clean--secondary)" d="M9 15a2 2 0 0 1 2-2h9a2 2 0 0 1 2 2v3a2 2 0 0 1-2 2h-9a2 2 0 0 1-2-2v-3Z"/>
</svg>
