<svg xmlns="http://www.w3.org/2000/svg" width="16" height="16" fill="none" viewBox="0 0 16 16">
  <path fill="currentColor" fill-rule="evenodd" d="M4 2.5a.5.5 0 0 0-.854-.354l-1 1a.5.5 0 1 0 .708.708L3 3.707V6.5a.5.5 0 1 0 1 0v-4Zm9 .5v3H7V3h6Zm0-1a1 1 0 0 1 1 1v3a1 1 0 0 1-1 1H7a1 1 0 0 1-1-1V3a1 1 0 0 1 1-1h6Zm0 11v-3H7v3h6Zm1-3a1 1 0 0 0-1-1H7a1 1 0 0 0-1 1v3a1 1 0 0 0 1 1h6a1 1 0 0 0 1-1v-3ZM1.5 9a.5.5 0 0 0 0 1H3v1.293l-1.854 1.853A.5.5 0 0 0 1.5 14h2a.5.5 0 0 0 0-1h-.793l1.147-1.146A.5.5 0 0 0 4 11.5v-2a.5.5 0 0 0-.5-.5h-2Z" clip-rule="evenodd"/>
</svg>
