<svg width="16" height="16" viewBox="0 0 16 16" fill="none" xmlns="http://www.w3.org/2000/svg">
  <path
    fill-rule="evenodd"
    clip-rule="evenodd"
    d="M2.7895 6.62123C2.90082 6.51034 3.08131 6.51034 3.19263 6.62123L6.15927 9.57646C6.27059 9.68735 6.27059 9.86714 6.15927 9.97803C6.04795 10.0889 5.86747 10.0889 5.75615 9.97803L2.7895 7.0228C2.67818 6.91191 2.67818 6.73212 2.7895 6.62123ZM6.85898 7.56666C6.96584 7.46021 7.13645 7.45595 7.24842 7.55389L7.2621 7.56666L7.65708 7.96012C7.7684 8.07101 7.7684 8.2508 7.65708 8.36169C7.55021 8.46815 7.3796 8.47241 7.26764 8.37447L7.25396 8.36169L6.85898 7.96823C6.74766 7.85734 6.74766 7.67755 6.85898 7.56666ZM1.84311 8.89026C1.95443 8.77937 2.13492 8.77937 2.24624 8.89026L4.50346 11.1388C4.61478 11.2497 4.61478 11.4295 4.50346 11.5404C4.39214 11.6513 4.21165 11.6513 4.10033 11.5404L1.84311 9.29183C1.73179 9.18094 1.73179 9.00115 1.84311 8.89026ZM8.27856 2.55588C8.38988 2.44499 8.57036 2.44499 8.68168 2.55588L10.9389 4.80441C11.0502 4.9153 11.0502 5.09509 10.9389 5.20599C10.8276 5.31688 10.6471 5.31688 10.5358 5.20599L8.27856 2.95745C8.16724 2.84656 8.16724 2.66677 8.27856 2.55588ZM1.5592 2.27225C1.67052 2.16136 1.851 2.16136 1.96232 2.27225L6.32949 6.62261C6.44081 6.7335 6.44081 6.91329 6.32949 7.02418C6.21817 7.13508 6.03768 7.13508 5.92637 7.02418L1.5592 2.67383C1.44788 2.56293 1.44788 2.38315 1.5592 2.27225ZM4.58764 2.08317C4.69896 1.97228 4.87945 1.97228 4.99077 2.08317L7.02629 4.11086C7.13761 4.22175 7.13761 4.40154 7.02629 4.51243C6.91497 4.62332 6.73449 4.62332 6.62317 4.51243L4.58764 2.48474C4.47632 2.37385 4.47632 2.19406 4.58764 2.08317ZM11.407 5.67906L14.3334 8.59417L11.6738 11.2434L13.8842 13.4453C14.178 13.7379 14.178 14.2123 13.8842 14.505C13.5904 14.7976 13.1142 14.7976 12.8204 14.505L10.61 12.3031L7.95058 14.9524L5.0242 12.0373L11.407 5.67906Z"
    fill="var(--tbl--ui-node-icon--enrichment--cleanify-primary)"
  />
  <path
    fill-rule="evenodd"
    clip-rule="evenodd"
    d="M5.02417 12.0373L11.407 5.67911L12.2051 6.47414L5.82227 12.8324L5.02417 12.0373Z"
    fill="var(--tbl--ui-node-icon--enrichment--cleanify-secondary)"
  />
  <path
    fill-rule="evenodd"
    clip-rule="evenodd"
    d="M8.30373 5.79948L8.0556 6.4241L7.80554 5.79871L7.17773 5.54961L7.80477 5.30244L8.05289 4.67782L8.30296 5.30321L8.93076 5.55231L8.30373 5.79948Z"
    fill="var(--tbl--ui-node-icon--enrichment--cleanify-tertiary)"
  />
  <path
    fill-rule="evenodd"
    clip-rule="evenodd"
    d="M2.12599 5.98852L1.87787 6.61314L1.6278 5.98775L1 5.73865L1.62703 5.49148L1.87516 4.86686L2.12522 5.49225L2.75303 5.74135L2.12599 5.98852Z"
    fill="var(--tbl--ui-node-icon--enrichment--cleanify-tertiary)"
  />
</svg>
