<svg xmlns="http://www.w3.org/2000/svg" width="24" height="24" fill="none" viewBox="0 0 24 24">
  <path
    fill-rule="evenodd"
    clip-rule="evenodd"
    d="M4.68419 8.93185C4.85117 8.76551 5.1219 8.76551 5.28888 8.93185L9.73884 13.3647C9.90582 13.531 9.90582 13.8007 9.73884 13.967C9.57186 14.1334 9.30114 14.1334 9.13416 13.967L4.68419 9.5342C4.51722 9.36787 4.51722 9.09818 4.68419 8.93185ZM10.7884 10.35C10.9487 10.1903 11.2046 10.1839 11.3726 10.3308L11.3931 10.35L11.9856 10.9402C12.1525 11.1065 12.1525 11.3762 11.9856 11.5425C11.8253 11.7022 11.5693 11.7086 11.4014 11.5617L11.3809 11.5425L10.7884 10.9523C10.6214 10.786 10.6214 10.5163 10.7884 10.35ZM3.26461 12.3354C3.43159 12.1691 3.70232 12.1691 3.8693 12.3354L7.25512 15.7082C7.4221 15.8745 7.4221 16.1442 7.25512 16.3105C7.08814 16.4769 6.81742 16.4769 6.65044 16.3105L3.26461 12.9378C3.09763 12.7714 3.09763 12.5017 3.26461 12.3354ZM12.9178 2.83382C13.0848 2.66749 13.3555 2.66749 13.5225 2.83382L16.9083 6.20662C17.0753 6.37296 17.0753 6.64264 16.9083 6.80898C16.7413 6.97531 16.4706 6.97531 16.3036 6.80898L12.9178 3.43618C12.7508 3.26985 12.7508 3.00016 12.9178 2.83382ZM2.83874 2.40838C3.00571 2.24204 3.27644 2.24204 3.44342 2.40838L9.99417 8.93392C10.1612 9.10026 10.1612 9.36994 9.99417 9.53628C9.82719 9.70261 9.55647 9.70261 9.38949 9.53628L2.83874 3.01074C2.67176 2.8444 2.67176 2.57472 2.83874 2.40838ZM7.3814 2.12475C7.54838 1.95842 7.81911 1.95842 7.98609 2.12475L11.0394 5.16629C11.2064 5.33262 11.2064 5.60231 11.0394 5.76864C10.8724 5.93498 10.6017 5.93498 10.4347 5.76864L7.3814 2.72711C7.21442 2.56077 7.21442 2.29109 7.3814 2.12475ZM17.6104 7.51859L22 11.8913L18.0106 15.8652L21.3262 19.1679C21.7669 19.6068 21.7669 20.3185 21.3262 20.7574C20.8856 21.1964 20.1712 21.1964 19.7305 20.7574L16.415 17.4547L12.4258 21.4286L8.03624 17.0559L17.6104 7.51859Z"
    fill="var(--tbl--ui-node-icon--enrichment--cleanify-primary)"
  />
  <path
    fill-rule="evenodd"
    clip-rule="evenodd"
    d="M8.03625 17.056L17.6104 7.51866L18.8076 8.71121L9.23341 18.2485L8.03625 17.056Z"
    fill="var(--tbl--ui-node-icon--enrichment--cleanify-secondary)"
  />
  <path
    fill-rule="evenodd"
    clip-rule="evenodd"
    d="M12.9556 7.69922L12.5834 8.63615L12.2083 7.69807L11.2666 7.32441L12.2072 6.95366L12.5793 6.01673L12.9544 6.95481L13.8961 7.32846L12.9556 7.69922Z"
    fill="var(--tbl--ui-node-icon--enrichment--cleanify-tertiary)"
  />
  <path
    fill-rule="evenodd"
    clip-rule="evenodd"
    d="M3.68899 7.98278L3.3168 8.91971L2.94171 7.98163L2 7.60798L2.94055 7.23722L3.31274 6.30029L3.68783 7.23837L4.62954 7.61203L3.68899 7.98278Z"
    fill="var(--tbl--ui-node-icon--enrichment--cleanify-tertiary)"
  />
</svg>
