<svg width="16" height="16" viewBox="0 0 16 16" fill="none" xmlns="http://www.w3.org/2000/svg">
  <path
    d="M7.07851 8.91293L1.5 5.75921L9.20495 5.5083C9.47462 5.49952 9.68868 5.27837 9.68868 5.00856V1.49255L14.7899 4.53561C15.1128 4.72821 15.1156 5.19485 14.795 5.39131L9.10793 8.87708C8.48822 9.25691 7.71124 9.27063 7.07851 8.91293Z"
    fill="var(--tbl--ui-node-icon--enrichment--bounce-ban-four)"
  />
  <path
    d="M8.51388 4.75605L1.15604 4.96043C0.887172 4.9679 0.79778 4.60366 1.03956 4.48581L7.84761 1.16719C8.07766 1.05505 8.34195 1.03538 8.58606 1.11223L9 1.24255V4.25624C9 4.52698 8.78451 4.74853 8.51388 4.75605Z"
    fill="var(--tbl--ui-node-icon--enrichment--bounce-ban-three)"
  />
  <path
    d="M14.7744 7.45153C15.0818 7.6578 15.0656 8.11337 14.7441 8.29723L8.70605 11.7504C8.24444 12.0144 7.67718 12.0163 7.21387 11.7552L1.23438 8.38415C0.911973 8.20203 0.893014 7.74732 1.19922 7.53942L2.24023 6.83337L7.27051 9.69079C7.73305 9.95349 8.30113 9.95347 8.76367 9.69079L13.8262 6.81579L14.7744 7.45153Z"
    fill="var(--tbl--ui-node-icon--enrichment--bounce-ban-two)"
  />
  <path
    d="M14.7744 10.1083C15.0816 10.3146 15.0654 10.7691 14.7441 10.953L8.70605 14.4071C8.24457 14.671 7.67705 14.6729 7.21387 14.412L1.23438 11.0409C0.911666 10.8588 0.892749 10.4031 1.19922 10.1952L2.23926 9.48913L7.27051 12.3465C7.73306 12.6093 8.30112 12.6093 8.76367 12.3465L13.8252 9.47155L14.7744 10.1083Z"
    fill="var(--tbl--ui-node-icon--enrichment--bounce-ban-one)"
  />
</svg>
