<svg width="32" height="32" viewBox="0 0 32 32" fill="none" xmlns="http://www.w3.org/2000/svg">
  <path
    d="M14.157 17.8259L3 11.5184L18.4099 11.0166C18.9492 10.999 19.3774 10.5567 19.3774 10.0171V2.9851L29.5798 9.07122C30.2255 9.45642 30.2311 10.3897 29.5901 10.7826L18.2159 17.7542C16.9764 18.5138 15.4225 18.5413 14.157 17.8259Z"
    fill="var(--tbl--ui-node-icon--enrichment--bounce-ban-four)"
  />
  <path
    d="M17.0278 9.5121L2.31209 9.92087C1.77434 9.93581 1.59556 9.20733 2.07912 8.97162L15.6952 2.33438C16.1553 2.11011 16.6839 2.07077 17.1721 2.22447L18 2.4851V8.51249C18 9.05396 17.569 9.49707 17.0278 9.5121Z"
    fill="var(--tbl--ui-node-icon--enrichment--bounce-ban-three)"
  />
  <path
    d="M29.5493 14.9031C30.1639 15.3156 30.1314 16.2257 29.4888 16.5935L17.4136 23.5017C16.4901 24.03 15.354 24.033 14.4272 23.5105L2.47021 16.7693C1.82444 16.4052 1.78649 15.4936 2.3999 15.0779L4.48096 13.6667L14.5425 19.3816C15.4675 19.9068 16.6028 19.9068 17.5278 19.3816L27.6528 13.6316L29.5493 14.9031Z"
    fill="var(--tbl--ui-node-icon--enrichment--bounce-ban-two)"
  />
  <path
    d="M29.5493 20.2156C30.164 20.6281 30.1315 21.5382 29.4888 21.906L17.4136 28.8142C16.4901 29.3425 15.354 29.3455 14.4272 28.823L2.47021 22.0818C1.82444 21.7177 1.78649 20.8061 2.3999 20.3904L4.48096 18.9792L14.5425 24.6941C15.4674 25.2192 16.6029 25.2193 17.5278 24.6941L27.6528 18.9431L29.5493 20.2156Z"
    fill="var(--tbl--ui-node-icon--enrichment--bounce-ban-one)"
  />
</svg>
