<svg width="24" height="24" viewBox="0 0 24 24" fill="none" xmlns="http://www.w3.org/2000/svg">
  <path
    d="M10.6178 13.3694L2.25 8.63882L13.8074 8.26245C14.2119 8.24928 14.533 7.91756 14.533 7.51285V2.23882L22.1848 6.80342C22.6691 7.09232 22.6733 7.79228 22.1925 8.08696L13.6619 13.3156C12.7323 13.8854 11.5669 13.906 10.6178 13.3694Z"
    fill="var(--tbl--ui-node-icon--enrichment--bounce-ban-four)"
  />
  <path
    d="M12.7708 7.13408L1.73407 7.44065C1.33076 7.45186 1.19667 6.9055 1.55934 6.72871L11.7714 1.75079C12.1165 1.58258 12.5129 1.55308 12.8791 1.66835L13.5 1.86382V6.38437C13.5 6.79047 13.1768 7.1228 12.7708 7.13408Z"
    fill="var(--tbl--ui-node-icon--enrichment--bounce-ban-three)"
  />
  <path
    d="M22.1621 11.1778C22.6227 11.4873 22.5981 12.1696 22.1162 12.4454L13.0596 17.626C12.367 18.0222 11.5153 18.0247 10.8203 17.6329L1.85156 12.5772C1.36742 12.3041 1.33909 11.6205 1.79883 11.3086L3.36035 10.2501L10.9062 14.5362C11.6 14.9302 12.4517 14.9302 13.1455 14.5362L20.7393 10.2237L22.1621 11.1778Z"
    fill="var(--tbl--ui-node-icon--enrichment--bounce-ban-two)"
  />
  <path
    d="M22.1621 15.1614C22.6229 15.4708 22.598 16.1531 22.1162 16.429L13.0596 21.6106C12.3671 22.0068 11.5153 22.0092 10.8203 21.6175L1.85156 16.5608C1.36772 16.2877 1.33937 15.6051 1.79883 15.2933L3.36035 14.2347L10.9062 18.5208C11.6 18.9147 12.4518 18.9147 13.1455 18.5208L20.7393 14.2073L22.1621 15.1614Z"
    fill="var(--tbl--ui-node-icon--enrichment--bounce-ban-one)"
  />
</svg>
