<svg width="32" height="32" viewBox="0 0 32 32" fill="none" xmlns="http://www.w3.org/2000/svg">
  <path
    d="M4.01367 20.0029C7.0906 20.7098 10.7326 21.404 14 21.6572V22C14 23.1046 14.8954 24 16 24C17.1046 24 18 23.1046 18 22V21.708C21.184 21.515 24.8617 20.8032 27.9854 20.0654C27.9292 23.7443 27.6504 25.8368 26.2441 27.2432C24.4868 29.0005 21.658 29 16.001 29C10.344 29 7.51518 29.0005 5.75781 27.2432C4.34351 25.8289 4.06757 23.7207 4.01367 20.0029Z"
    fill="var(--tbl--ui-node-icon--search-jobs-l)"
  />
  <path
    fill-rule="evenodd"
    clip-rule="evenodd"
    d="M16 5C17.0153 5 17.524 4.99992 17.9766 5.08398C19.4656 5.36078 20.7494 6.29789 21.4668 7.63184C21.6848 8.03727 21.84 8.52131 22.1494 9.48828L22.3135 10H25C27.2091 10 29 11.7909 29 14V14.2578C29 16.6042 27.3685 18.6363 25.0566 19.0371C22.9541 19.4015 20.3265 19.7888 17.9932 19.9365C17.9904 19.8855 17.9882 19.8433 17.9805 19.8047C17.9015 19.4082 17.5918 19.0985 17.1953 19.0195C17.0987 19.0003 16.9823 19 16.75 19H15.25C15.0177 19 14.9013 19.0003 14.8047 19.0195C14.4082 19.0985 14.0985 19.4082 14.0195 19.8047C14.0128 19.8385 14.0107 19.8752 14.0078 19.918C11.6259 19.7562 9.02829 19.379 6.95508 19.0264C4.63696 18.6319 3 16.5976 3 14.2461V14C3 11.7909 4.79086 10 7 10H9.6875L9.85156 9.48828C10.161 8.52132 10.3152 8.03727 10.5332 7.63184C11.2058 6.38116 12.3763 5.47939 13.7471 5.14355L14.0244 5.08398C14.4769 5.00004 14.9851 5 16 5ZM16 8C14.8647 8 14.6875 8.0119 14.5723 8.0332C13.9766 8.14384 13.4628 8.51916 13.1758 9.05273C13.1281 9.14146 13.0757 9.27548 12.8408 10H19.1592C18.9246 9.27631 18.8729 9.14146 18.8252 9.05273C18.5383 8.5192 18.0242 8.14401 17.4287 8.0332C17.3135 8.01181 17.1375 8 16 8Z"
    fill="var(--tbl--ui-node-icon--search-jobs-l)"
  />

  <defs>
    <linearGradient id="tbl--ui-node-icon--search-jobs-l" x1="16" y1="5" x2="16" y2="29" gradientUnits="userSpaceOnUse">
      <stop stop-color="#A190F5"/>
      <stop offset="1" stop-color="#816BE6"/>
    </linearGradient>
  </defs>
</svg>
