<svg width="24" height="24" viewBox="0 0 24 24" fill="none" xmlns="http://www.w3.org/2000/svg">
  <path
    d="M3 14.001C5.46909 14.5887 8.42278 15.1652 11 15.3232V15.5C11 16.3284 11.6716 17 12.5 17C13.3284 17 14 16.3284 14 15.5V15.29C16.2705 15.1001 18.8157 14.5834 21 14.0488C20.9688 16.4858 20.8165 17.8948 20.0508 18.9453C19.7448 19.365 19.3758 19.7351 18.9561 20.041C17.6397 21.0004 15.76 21 12.001 21C8.24208 21 6.36222 21.0002 5.0459 20.041C4.62618 19.7351 4.25615 19.365 3.9502 18.9453C3.17957 17.888 3.02984 16.4673 3 14.001Z"
    fill="var(--tbl--ui-node-icon--search-jobs-m)"
  />
  <path
    fill-rule="evenodd"
    clip-rule="evenodd"
    d="M12 3C12.5867 3 12.8811 2.99999 13.1445 3.03516C14.4879 3.21472 15.6501 4.06225 16.2305 5.28711C16.3161 5.46799 16.3857 5.67203 16.4922 6H19C20.6569 6 22 7.34315 22 9V9.43359C22 11.2981 20.7123 12.9174 18.877 13.2461C17.4138 13.508 15.6349 13.7809 13.9951 13.915C13.9519 13.4026 13.5236 13 13 13H12C11.4598 13 11.02 13.4283 11.001 13.9639C9.06502 13.8626 6.87088 13.5424 5.13379 13.2373C3.29324 12.914 2.00013 11.2935 2 9.4248V9C2 7.34315 3.34315 6 5 6H7.50781C7.61438 5.67192 7.68479 5.46803 7.77051 5.28711C8.31466 4.13879 9.36971 3.32162 10.6064 3.07617L10.8564 3.03516C11.1198 3.00006 11.4137 3 12 3ZM12 5C11.3559 5 11.2208 5.00431 11.1211 5.01758C10.5034 5.10007 9.96299 5.46561 9.6543 6H14.3457C14.0371 5.46574 13.4974 5.1002 12.8799 5.01758C12.7801 5.00426 12.6453 5 12 5Z"
    fill="var(--tbl--ui-node-icon--search-jobs-m)"
  />

  <defs>
    <linearGradient id="tbl--ui-node-icon--search-jobs-m" x1="12" y1="3" x2="12" y2="21" gradientUnits="userSpaceOnUse">
      <stop stop-color="#A190F5"/>
      <stop offset="1" stop-color="#816BE6"/>
    </linearGradient>
  </defs>
</svg>
