<svg width="32" height="32" viewBox="0 0 32 32" fill="none" xmlns="http://www.w3.org/2000/svg">
  <path d="M22.927 6H9.3699C7.65768 6 6.73711 8.01139 7.85625 9.30724L14.0136 16.4369C14.3274 16.8001 14.5 17.2641 14.5 17.7441V25.382C14.5 26.1253 15.2823 26.6088 15.9472 26.2764L17.9472 25.2764C18.286 25.107 18.5 24.7607 18.5 24.382V17.6827C18.5 17.2401 18.6468 16.81 18.9174 16.4598L24.5096 9.2229C25.5254 7.90827 24.5884 6 22.927 6Z" fill="#B2E9E3"/>
  <path d="M18.5 24.382V17.6827C18.5 17.2401 18.6468 16.81 18.9174 16.4598L23.9091 10L11.0455 13L14.0137 16.4369C14.3274 16.8001 14.5 17.2641 14.5 17.7441V25.382C14.5 26.1253 15.2823 26.6088 15.9472 26.2764L17.9472 25.2764C18.286 25.107 18.5 24.7607 18.5 24.382Z" fill="#00B7A2"/>
</svg>
