<svg width="32" height="32" viewBox="0 0 32 32" fill="none" xmlns="http://www.w3.org/2000/svg">
  <g filter="var(--tbl--ui-node-icon--enrichment--emailable-l)">
    <path d="M15.9999 26.889V30.0001C14.1607 30.0052 12.3387 29.6454 10.6394 28.9415C8.94018 28.2377 7.3974 27.2038 6.10039 25.8997C5.23429 25.0355 4.48481 24.0618 3.87097 23.0033L6.57203 21.4441C7.52793 23.0988 8.90225 24.473 10.5571 25.4287C12.2119 26.3844 14.089 26.888 15.9999 26.889Z" fill="#FFCB60"/>
    <path d="M28.1298 8.99784L25.4293 10.5575C24.4734 8.9025 23.0991 7.52802 21.4441 6.57205C19.7891 5.61608 17.9118 5.11224 16.0006 5.1111V2.00005C17.8399 1.99499 19.6618 2.35479 21.3611 3.05862C23.0604 3.76245 24.6031 4.79633 25.9001 6.10042C26.7661 6.96521 27.5156 7.93923 28.1298 8.99784Z" fill="#7E61FF"/>
    <path d="M16.0006 2.00005V5.1111C14.0896 5.11202 12.2124 5.61554 10.5575 6.57114C8.90256 7.52674 7.52806 8.9008 6.57192 10.5554L3.87146 8.99577C4.48562 7.93781 5.23515 6.96448 6.1011 6.10042C7.3981 4.79633 8.94088 3.76245 10.6401 3.05862C12.3394 2.35479 14.1614 1.99499 16.0006 2.00005Z" fill="#FF5F7D"/>
    <path d="M30 16.0001C30.0035 17.9322 29.6059 19.8441 28.8323 21.6146V21.6167L26.1111 20.0445C26.7227 18.5147 26.979 16.866 26.8608 15.2226C26.7426 13.5793 26.2529 11.9843 25.4287 10.5577L28.1292 8.998C29.3608 11.1256 30.0064 13.5417 30 16.0001Z" fill="#5A3DBE"/>
    <path d="M28.8322 21.6167C28.4145 22.5688 27.8913 23.4712 27.2725 24.3067L22.415 21.5026C21.8835 21.1946 21.4422 20.7524 21.1353 20.2202C20.8285 19.688 20.6668 19.0846 20.6665 18.4703V16.0685C20.6815 15.0359 20.3534 14.0276 19.7337 13.2015C19.114 12.3753 18.2378 11.7782 17.2423 11.5035C16.2468 11.2288 15.1883 11.2922 14.2327 11.6837C13.2771 12.0751 12.4784 12.7726 11.9617 13.6667L9.26538 12.1091C10.1218 10.6268 11.4434 9.46841 13.0252 8.81364C14.6069 8.15888 16.3606 8.04428 18.0141 8.48762C19.6676 8.93096 21.1287 9.90747 22.1708 11.2657C23.2128 12.624 23.7777 14.2881 23.7777 16.0001V17.8875C23.778 18.1332 23.8427 18.3745 23.9653 18.5874C24.0879 18.8003 24.2642 18.9773 24.4766 19.1008L26.111 20.0445L28.8322 21.6167Z" fill="#5FD7AA"/>
    <path d="M20.2644 22.5044C18.8007 23.4636 17.0564 23.9013 15.3133 23.7466C13.5701 23.5919 11.9301 22.8539 10.6583 21.6519C9.38647 20.4498 8.55717 18.854 8.30445 17.1224C8.05172 15.3908 8.39034 13.6245 9.26556 12.1091L11.9619 13.6667C11.4826 14.4892 11.2682 15.4393 11.3479 16.3879C11.4495 17.5664 11.9934 18.6627 12.8703 19.4565C13.7472 20.2502 14.892 20.6826 16.0747 20.6667C16.3806 20.6715 16.6861 20.6416 16.9853 20.5776C17.4595 20.4676 17.9142 20.2858 18.3334 20.0383L20.2644 22.5044Z" fill="#3FB3A3"/>
    <path d="M5.11111 16.0004C5.10863 17.9121 5.61272 19.7904 6.57208 21.4441L3.87102 23.0033C2.64496 20.8727 1.99978 18.4575 2 15.9993C2.00022 13.541 2.64583 11.126 3.87227 8.99553L6.57271 10.5554C5.61286 12.2093 5.10854 14.0881 5.11111 16.0004Z" fill="#FF9C5B"/>
  </g>
  <defs>
    <filter id="tbl--ui-node-icon--enrichment--emailable-l--disabled">
      <feColorMatrix type="saturate" values="0.01" />
    </filter>
  </defs>
</svg>
