<svg xmlns="http://www.w3.org/2000/svg" width="24" height="24" fill="none" viewBox="0 0 24 24">
  <path
    fill="var(--tbl--colors--icons--clean--primary)"
    fill-rule="evenodd"
    d="M13 3C13 2.44772 12.5523 2 12 2C11.4477 2 11 2.44772 11 3V21C11 21.5523 11.4477 22 12 22C12.5523 22 13 21.5523 13 21V3ZM16.6173 9.07615C16.991 8.92137 17.4211 9.00692 17.7071 9.29292L19.7071 11.2929C20.0976 11.6834 20.0976 12.3166 19.7071 12.7071L17.7071 14.7071C17.4211 14.9931 16.991 15.0787 16.6173 14.9239C16.2436 14.7691 16 14.4045 16 14V10C16 9.59557 16.2436 9.23093 16.6173 9.07615ZM7.38268 9.07618C7.00901 8.9214 6.57889 9.00695 6.29289 9.29295L4.29289 11.293C3.90237 11.6835 3.90237 12.3166 4.29289 12.7072L6.29289 14.7072C6.57889 14.9932 7.00901 15.0787 7.38268 14.9239C7.75636 14.7692 8 14.4045 8 14.0001V10.0001C8 9.5956 7.75636 9.23096 7.38268 9.07618Z"
    clip-rule="evenodd"
  />
</svg>
