<svg xmlns="http://www.w3.org/2000/svg" width="24" height="24" fill="none" viewBox="0 0 24 24">
  <rect x="3" y="3" width="18" height="18" rx="3" fill="var(--tbl--colors--icons--enrichment--apollo-secondary)"/>
  <path
    d="M16.5 7.5H15L15.7775 9L16.5 7.5Z"
    fill="var(--tbl--colors--icons--enrichment--apollo-primary)"
  />
  <path
    d="M17.76 14.2704L16.4664 12.0905L12.3836 5.25L5.25 17.25H9.07058C9.58124 17.2494 10.0825 17.1196 10.5254 16.8733C10.9683 16.6271 11.3372 16.2727 11.5963 15.8451L13.5492 12.5359L12.4646 10.7117L10.107 14.6979C9.97334 14.9194 9.78262 15.1026 9.55364 15.2299C9.32466 15.3577 9.06556 15.4246 8.80144 15.4252H8.51161L12.3849 8.90917L17.3441 17.25H18.75V15.9221L17.7651 14.271H17.76V14.2704Z"
    fill="var(--tbl--colors--icons--enrichment--apollo-primary)"
  />
</svg>
