<svg xmlns="http://www.w3.org/2000/svg" width="32" height="32" fill="none" viewBox="0 0 32 32">
  <path fill="var(--tbl--colors--icons--clean--primary)" d="M13.885 4.125a3 3 0 0 1 4.242.001l9.883 9.884a3 3 0 0 1 .002 4.24l-9.89 9.908a3 3 0 0 1-4.245 0l-9.893-9.9a3 3 0 0 1 .002-4.243l9.899-9.89Z"/>
  <path fill="#fff" fill-rule="evenodd" d="M16.25 12.5a2.5 2.5 0 0 1 2.5-2.5h.5a1 1 0 1 1 0 2h-.5a.5.5 0 0 0-.5.5V14h1a1 1 0 1 1 0 2h-1v5a1 1 0 1 1-2 0v-5a1 1 0 1 1 0-2v-1.5Zm-3 1.5a1 1 0 0 1 1 1v6a1 1 0 1 1-2 0v-6a1 1 0 0 1 1-1Zm0-3a1.25 1.25 0 1 0 0 2.5 1.25 1.25 0 0 0 0-2.5Z" clip-rule="evenodd"/>
</svg>
