<svg xmlns="http://www.w3.org/2000/svg" width="24" height="24" fill="none" viewBox="0 0 24 24">
  <path fill="var(--tbl--colors--icons--clean--primary)" fill-rule="evenodd" d="M14.12 1.72a3 3 0 0 0-4.241 0L2.102 9.49a3 3 0 0 0-.002 4.243l7.777 7.784a3 3 0 0 0 4.246-.001l7.77-7.784a3 3 0 0 0-.002-4.241l-7.77-7.77ZM14.5 6A2.5 2.5 0 0 0 12 8.5V10a1 1 0 1 0 0 2v3a1 1 0 1 0 2 0v-3h1a1 1 0 1 0 0-2h-1V8.5a.5.5 0 0 1 .5-.5h.5a1 1 0 1 0 0-2h-.5ZM10 11a1 1 0 1 0-2 0v4a1 1 0 1 0 2 0v-4ZM7.75 8.25a1.25 1.25 0 1 1 2.5 0 1.25 1.25 0 0 1-2.5 0Z" clip-rule="evenodd"/>
</svg>
