<svg xmlns="http://www.w3.org/2000/svg" width="16" height="16" fill="none" viewBox="0 0 16 16">
  <path fill="currentColor" fill-rule="evenodd" d="M6.94 1.453a1.5 1.5 0 0 1 2.12 0l5.495 5.486a1.5 1.5 0 0 1 0 2.122L9.06 14.548a1.5 1.5 0 0 1-2.121-.001L1.454 9.061a1.5 1.5 0 0 1 0-2.122L6.94 1.453Zm1.414.707a.5.5 0 0 0-.707 0L2.161 7.646a.5.5 0 0 0 0 .708l5.486 5.486a.5.5 0 0 0 .707 0l5.494-5.486a.5.5 0 0 0 0-.708L8.354 2.16ZM6 5.504a.5.5 0 1 1 1 0v5a.5.5 0 0 1-1 0v-5ZM9 5a1 1 0 0 0-1 1v4.5a.5.5 0 0 0 1 0V7.992h.5a.5.5 0 0 0 0-1H9V6h1a.5.5 0 0 0 0-1H9Z" clip-rule="evenodd"/>
</svg>
