<svg xmlns="http://www.w3.org/2000/svg" width="24" height="24" fill="none" viewBox="0 0 24 24">
  <path
    fill="var(--tbl--colors--icons--clean--primary)"
    fill-rule="evenodd"
    d="M14.2012 1.87868C13.03 0.707468 11.1312 0.707053 9.95953 1.87775L1.87961 9.95061C0.707526 11.1217 0.706692 13.0212 1.87775 14.1933L9.95767 22.2803C11.1298 23.4535 13.0314 23.4531 14.2031 22.2794L22.2759 14.1923C23.4457 13.0205 23.4449 11.1224 22.2741 9.95155L14.2012 1.87868ZM14.4292 6.30924C13.0484 6.30924 11.9292 7.42853 11.9292 8.80924V10.3094C11.3769 10.3094 10.9292 10.7571 10.9292 11.3094C10.9292 11.8616 11.3769 12.3094 11.9292 12.3094V15.3093C11.9292 15.8615 12.3769 16.3093 12.9292 16.3093C13.4814 16.3093 13.9292 15.8615 13.9292 15.3093V12.3094H14.9292C15.4814 12.3094 15.9292 11.8616 15.9292 11.3094C15.9292 10.7571 15.4814 10.3094 14.9292 10.3094H13.9292V8.80924C13.9292 8.5331 14.153 8.30924 14.4292 8.30924H14.9292C15.4814 8.30924 15.9292 7.86153 15.9292 7.30924C15.9292 6.75696 15.4814 6.30924 14.9292 6.30924H14.4292ZM9.9292 11.3093C9.9292 10.757 9.4815 10.3093 8.92921 10.3093C8.37693 10.3093 7.92921 10.757 7.92921 11.3093V15.3093C7.92921 15.8615 8.37693 16.3093 8.92921 16.3093C9.4815 16.3093 9.9292 15.8615 9.9292 15.3093V11.3093ZM7.67921 8.55924C7.67921 7.86889 8.23886 7.30924 8.92921 7.30924C9.61957 7.30924 10.1792 7.86889 10.1792 8.55924C10.1792 9.2496 9.61957 9.80924 8.92921 9.80924C8.23886 9.80924 7.67921 9.2496 7.67921 8.55924Z"
    clip-rule="evenodd"
  />
</svg>
