<svg xmlns="http://www.w3.org/2000/svg" width="24" height="24" fill="none" viewBox="0 0 24 24">
  <path
    d="M19.8571 2H4.14286C2.95939 2 2 2.95939 2 4.14286V19.8571C2 21.0406 2.95939 22 4.14286 22H19.8571C21.0406 22 22 21.0406 22 19.8571V4.14286C22 2.95939 21.0406 2 19.8571 2Z"
    fill="var(--tbl--ui-node-icon--enrichment--company-enrich-primary)"
  />
  <path
    d="M11.1067 16.9999C10.6954 16.9999 10.284 16.8366 9.97064 16.5116L6.75675 13.1784C6.12843 12.5268 6.12843 11.4735 6.75675 10.8219L9.97064 7.48867C10.599 6.83705 11.6145 6.83705 12.2429 7.48867C12.8712 8.14034 12.8712 9.19363 12.2429 9.84525L10.1651 12.0001L12.2429 14.1551C12.8712 14.8067 12.8712 15.86 12.2429 16.5116C11.9295 16.8366 11.5181 16.9999 11.1067 16.9999Z"
    fill="var(--tbl--ui-node-icon--enrichment--company-enrich-secondary)"
  />
  <path
    d="M12.8931 16.9999C12.4817 16.9999 12.0704 16.8366 11.757 16.5116C11.1287 15.86 11.1287 14.8067 11.757 14.1551L13.8347 12.0001L11.757 9.84525C11.1287 9.19363 11.1287 8.14034 11.757 7.48867C12.3853 6.83705 13.4009 6.83705 14.0292 7.48867L17.243 10.8219C17.8714 11.4735 17.8714 12.5268 17.243 13.1784L14.0292 16.5116C13.7158 16.8366 13.3045 16.9999 12.8931 16.9999Z"
    fill="var(--tbl--ui-node-icon--enrichment--company-enrich-secondary)"
    fill-opacity="0.71"
  />
</svg>
