<svg width="24" height="24" viewBox="0 0 24 24" fill="none" xmlns="http://www.w3.org/2000/svg">
  <path fill-rule="evenodd" clip-rule="evenodd" d="M5 4C3.34315 4 2 5.34315 2 7V18C2 19.6569 3.34315 21 5 21H19C20.6569 21 22 19.6569 22 18V10C22 8.34315 20.6569 7 19 7H13L11.8906 5.3359C11.3342 4.5013 10.3975 4 9.39445 4H5Z" fill="var(--tbl--colors--icons--misc--folder)"/>
  <path d="M2 6C2 4.89543 2.89543 4 4 4H9.39445C10.3975 4 11.3342 4.5013 11.8906 5.3359L13 7H2V6Z" fill="white" fill-opacity="0.3"/>
</svg>
