<svg xmlns="http://www.w3.org/2000/svg" width="24" height="24" fill="none" viewBox="0 0 24 24">
  <path fill="var(--tbl--colors--icons--source--secondary)" fill-rule="evenodd" d="M3 3a2 2 0 0 0-2 2v14a2 2 0 0 0 2 2h6.755A8 8 0 0 1 21 9.755V5a2 2 0 0 0-2-2H3Z" clip-rule="evenodd"/>
  <path fill="var(--tbl--colors--icons--source--primary)" fill-rule="evenodd" d="M3 3a2 2 0 0 0-2 2v1h20V5a2 2 0 0 0-2-2H3Zm21 13a8 8 0 1 1-16 0 8 8 0 0 1 16 0Zm-8-4a1 1 0 0 0-1 1v2h-2a1 1 0 1 0 0 2h2v2a1 1 0 1 0 2 0v-2h2a1 1 0 1 0 0-2h-2v-2a1 1 0 0 0-1-1Z" clip-rule="evenodd"/>
</svg>
