<svg xmlns="http://www.w3.org/2000/svg" width="24" height="24" fill="none" viewBox="0 0 24 24">
  <path
    d="M2.48968 8.50369C2.48968 8.50369 9.43199 13.3872 12.199 14.0529C10.8668 15.6272 7.17257 18.7182 7.22182 18.6869C11.1586 16.3569 19.4227 9.36211 19.4227 9.36211C19.679 9.1987 19.9439 9.31997 20.0139 9.63072L21.9871 18.3936C22.057 18.7043 21.8365 19.0073 21.4937 19.0704L5.63285 21.9918C5.29043 22.0548 4.93214 21.7476 4.83256 21.3053L2.02483 8.83618C1.92527 8.39404 2.13412 8.2474 2.48968 8.50369ZM3.35212 7.23338C3.35212 7.23338 12.3866 1.79579 13.478 2.00594C14.5434 2.21109 18.6828 7.98355 18.8793 8.25832L18.8866 8.26844C19.0512 8.45224 18.9429 8.5862 18.6443 8.56843L3.29762 7.65974C2.9986 7.64213 3.02365 7.4505 3.35212 7.23338Z"
    fill="var(--tbl--ui-node-icon--enrichment--anymail-finder)"
  />
</svg>
