<svg xmlns="http://www.w3.org/2000/svg" width="32" height="32" fill="none" viewBox="0 0 32 32">
  <path
    d="M2.68555 11.1052C2.68555 11.1052 12.4048 17.9422 16.2786 18.8741C14.4136 21.078 9.2416 25.4056 9.31055 25.3617C14.822 22.0997 26.3918 12.307 26.3918 12.307C26.7506 12.0782 27.1215 12.248 27.2195 12.683L29.9819 24.951C30.0798 25.3861 29.7711 25.8103 29.2912 25.8986L7.08599 29.9886C6.60661 30.0768 6.105 29.6466 5.96559 29.0275L2.03477 11.5707C1.89538 10.9517 2.18776 10.7464 2.68555 11.1052ZM3.89296 9.32674C3.89296 9.32674 16.5412 1.7141 18.0692 2.00831C19.5608 2.29552 25.356 10.377 25.6311 10.7617L25.6412 10.7758C25.8717 11.0332 25.7201 11.2207 25.3021 11.1958L3.81667 9.92365C3.39804 9.89899 3.43311 9.63071 3.89296 9.32674Z"
    fill="var(--tbl--ui-node-icon--enrichment--anymail-finder)"
  />
</svg>
