<svg xmlns="http://www.w3.org/2000/svg" width="32" height="32" fill="none" viewBox="0 0 32 32">
  <path fill="var(--tbl--colors--brand--snowflake)" fill-rule="evenodd" d="M11.821 12.105 5.896 8.693a1.735 1.735 0 0 1-.638-2.373 1.743 1.743 0 0 1 2.378-.634l3.365 1.938V3.73c0-.956.777-1.731 1.736-1.731.956 0 1.733.775 1.733 1.731v6.84c0 .502-.215.955-.56 1.272a1.744 1.744 0 0 1-2.089.262Zm-.494 3.918a1.701 1.701 0 0 0-.85-1.5L4.55 11.111a1.703 1.703 0 0 0-2.323.621c-.469.81-.189 1.85.623 2.318l3.416 1.965-3.416 1.968a1.677 1.677 0 0 0-.792 1.029 1.68 1.68 0 0 0 .17 1.288 1.706 1.706 0 0 0 2.322.622l5.926-3.412c.53-.307.855-.876.85-1.487Zm9.675 12.298A1.732 1.732 0 0 1 19.27 30a1.733 1.733 0 0 1-1.736-1.729v-6.673c-.035-.35.038-.71.225-1.036a1.746 1.746 0 0 1 2.379-.637l1.556.897a5.997 5.997 0 0 1 2.683-1.6l-2.915-1.68a1.732 1.732 0 0 1-.87-1.52 1.738 1.738 0 0 1 .87-1.534l5.925-3.412c.833-.48 1.9-.196 2.379.636a1.73 1.73 0 0 1-.638 2.37l-3.355 1.933 3.355 1.933c.832.48 1.12 1.542.638 2.372l-.003.006a6 6 0 1 1-8.76 7.995ZM19.22 16.299a.67.67 0 0 1-.17.408l-2.348 2.343a.667.667 0 0 1-.409.168h-.597a.667.667 0 0 1-.409-.168l-2.35-2.343a.669.669 0 0 1-.17-.408v-.596c0-.133.076-.314.17-.407l2.35-2.346a.667.667 0 0 1 .409-.168h.597c.132 0 .316.075.41.168l2.348 2.346a.658.658 0 0 1 .169.407v.596Zm-2.097-.286v-.026a.496.496 0 0 0-.123-.299l-.694-.69a.475.475 0 0 0-.3-.125h-.025a.486.486 0 0 0-.3.126l-.692.689a.484.484 0 0 0-.123.3v.025c0 .098.055.231.123.299l.691.692c.071.068.205.123.3.123h.026a.486.486 0 0 0 .3-.123l.694-.692a.484.484 0 0 0 .123-.3Zm8.94-7.32-5.925 3.412a1.736 1.736 0 0 1-2.603-1.67V3.73c0-.956.776-1.731 1.735-1.731.956 0 1.733.775 1.733 1.731v3.867l3.32-1.912a1.743 1.743 0 0 1 2.378.634c.482.83.194 1.895-.638 2.373Zm-13.054 11.03a1.73 1.73 0 0 0-1.188.202L5.896 23.34a1.731 1.731 0 0 0-.638 2.37 1.742 1.742 0 0 0 2.378.636l3.365-1.937v3.862c0 .954.777 1.729 1.736 1.729.956 0 1.733-.775 1.733-1.729v-6.839c0-.863-.633-1.577-1.46-1.708ZM26 30a5 5 0 1 0 0-10 5 5 0 0 0 0 10Zm0-8a.5.5 0 0 1 .5.5v4.293l1.146-1.147a.5.5 0 0 1 .708.708l-2 2a.5.5 0 0 1-.708 0l-2-2a.5.5 0 0 1 .708-.708l1.146 1.147V22.5a.5.5 0 0 1 .5-.5Z" clip-rule="evenodd"/>
</svg>
