<svg xmlns="http://www.w3.org/2000/svg" width="32" height="32" fill="none" viewBox="0 0 32 32">
  <path
    d="M21.4401 17.1515C20.9985 17.1515 20.5569 17.1759 20.1644 17.249L15.4048 24.6117C15.969 27.3178 18.1771 29 21.5628 29C23.8199 29 25.5864 28.2442 26.8131 26.9034L24.3352 24.4898C23.6237 25.1724 22.7895 25.5137 21.9799 25.5137C21.0476 25.5137 20.3606 25.0505 20.0417 24.1484H27.5737C27.8435 19.9064 25.4883 17.1515 21.4401 17.1515ZM22.8386 21.9543H19.9681C20.1644 20.9791 20.6551 20.3209 21.4892 20.3209C22.3234 20.3209 22.8877 21.0035 22.8386 21.9543Z"
    fill="var(--tbl--ui-node-icon--enrichment--email-list-verify)"
  />
  <path
    d="M3.9719 15.3962C2.08278 13.5677 1.44489 14.0065 2.52439 16.3957L7.35759 26.9034C8.43709 29.2926 10.547 29.4388 11.97 27.2691L29.0457 1.74355C30.4932 -0.426236 30.2724 -0.596894 28.5305 1.37786L13.6874 18.1998C11.9455 20.1746 9.00138 20.2721 7.11226 18.4436L3.9719 15.3962Z"
    fill="var(--tbl--ui-node-icon--enrichment--email-list-verify)"
  />
</svg>
