<svg xmlns="http://www.w3.org/2000/svg" width="24" height="24" fill="none" viewBox="0 0 24 24">
  <path
    d="M15.8858 13.8286C15.5704 13.8286 15.2549 13.8454 14.9746 13.8959L11.5748 18.9736C11.9779 20.8399 13.5551 22 15.9734 22C17.5857 22 18.8474 21.4788 19.7236 20.554L17.9537 18.8895C17.4455 19.3603 16.8497 19.5957 16.2714 19.5957C15.6054 19.5957 15.1147 19.2762 14.8869 18.6541H20.2669C20.4597 15.7285 18.7773 13.8286 15.8858 13.8286ZM16.8847 17.1409H14.8344C14.9746 16.4683 15.325 16.0144 15.9209 16.0144C16.5167 16.0144 16.9198 16.4852 16.8847 17.1409Z"
    fill="var(--tbl--ui-node-icon--enrichment--email-list-verify)"
  />
  <path
    d="M3.4085 12.618C2.05913 11.357 1.60349 11.6597 2.37456 13.3074L5.82685 20.554C6.59792 22.2018 8.10501 22.3026 9.12142 20.8062L21.3183 3.20245C22.3523 1.70604 22.1946 1.58835 20.9503 2.95025L10.3481 14.5516C9.1039 15.9135 7.00098 15.9808 5.65161 14.7197L3.4085 12.618Z"
    fill="var(--tbl--ui-node-icon--enrichment--email-list-verify)"
  />
</svg>
