<svg width="16" height="16" viewBox="0 0 16 16" fill="none" xmlns="http://www.w3.org/2000/svg">
  <path
    d="M10.7201 9.87146C10.4993 9.87146 10.2785 9.88407 10.0822 9.9219L7.70238 13.7302C7.98452 15.1299 9.08856 16 10.7814 16C11.91 16 12.7932 15.6091 13.4065 14.9155L12.1676 13.6671C11.8118 14.0202 11.3948 14.1967 10.9899 14.1967C10.5238 14.1967 10.1803 13.9572 10.0209 13.4906H13.7868C13.9218 11.2964 12.7441 9.87146 10.7201 9.87146ZM11.4193 12.3557H9.98405C10.0822 11.8513 10.3275 11.5108 10.7446 11.5108C11.1617 11.5108 11.4438 11.8639 11.4193 12.3557Z"
    fill="var(--tbl--ui-node-icon--enrichment--email-list-verify)"
  />
  <path
    d="M1.98595 8.96353C1.04139 8.01777 0.722446 8.24475 1.26219 9.48054L3.6788 14.9155C4.21855 16.1513 5.27351 16.227 5.98499 15.1047L14.5228 1.90184C15.2466 0.779533 15.1362 0.691262 14.2652 1.71268L6.84369 10.4137C5.97273 11.4351 4.50069 11.4856 3.55613 10.5398L1.98595 8.96353Z"
    fill="var(--tbl--ui-node-icon--enrichment--email-list-verify)"
  />
</svg>
