<svg width="16" height="16" viewBox="0 0 16 16" fill="none" xmlns="http://www.w3.org/2000/svg">
  <path
    fill-rule="evenodd"
    clip-rule="evenodd"
    d="M6.85884 7.42113V2.5H8.35938V7.57156C8.35938 8.62455 8.05045 9.44116 7.41051 9.99989C6.72644 10.5801 5.84378 10.9025 4.93904 10.8595C4.0343 10.9025 3.15164 10.5801 2.46757 9.99989C1.80557 9.44116 1.49663 8.62455 1.49663 7.57156V5.93834L2.42343 5.44408H-0.00390625L3.0413 2.5V5.10025V7.42113C3.0413 8.83945 3.79157 9.52712 4.96111 9.52712C6.13064 9.52712 6.85884 8.83945 6.85884 7.42113ZM11.4548 9.08164C10.7262 8.33098 10.7262 7.16084 11.4548 6.41018C11.808 6.05693 12.2938 5.85822 12.7795 5.85822C13.2652 5.83614 13.7509 6.03485 14.0821 6.3881C14.7665 7.16084 14.7665 8.3089 14.0821 9.05956C13.7288 9.41281 13.2652 9.61152 12.7795 9.61152C12.2938 9.63359 11.808 9.43489 11.4548 9.08164ZM11.0132 13.144V9.92061C11.2561 10.4946 12.0067 10.9141 12.934 10.9583C13.7509 10.9804 14.5457 10.6271 15.1198 10.031C15.7159 9.41281 16.025 8.59592 16.0029 7.75695C16.025 6.91797 15.7159 6.10108 15.1198 5.48289C14.5457 4.8647 13.7509 4.53353 12.934 4.55561C11.9626 4.55561 11.2561 4.8647 10.8366 5.50497C10.7924 5.21795 10.6158 4.95301 10.3509 4.77639C10.108 4.62184 9.79893 4.55561 9.51191 4.57768C9.26905 4.55561 9.02619 4.59976 8.80541 4.666V5.83614C8.9158 5.81407 9.00411 5.81407 9.1145 5.81407C9.44568 5.81407 9.55607 5.99069 9.55607 6.52057V13.144H11.0132Z"
    fill="var(--tbl--ui-node-icon--enrichment--up-lead)"
  />
</svg>
