<svg xmlns="http://www.w3.org/2000/svg" width="32" height="32" fill="none" viewBox="0 0 32 32">
  <path
    fill-rule="evenodd"
    clip-rule="evenodd"
    d="M6 4C4.34315 4 3 5.34315 3 7V25C3 26.6569 4.34315 28 6 28H16.2917C14.8666 26.4077 14 24.3051 14 22C14 17.0294 18.0294 13 23 13C25.3051 13 27.4077 13.8666 29 15.2917V7C29 5.34315 27.6569 4 26 4H6Z"
    fill="var(--tbl--colors--icons--clean--secondary)"
  />
  <path
    fill-rule="evenodd"
    clip-rule="evenodd"
    d="M6 4C4.34315 4 3 5.34315 3 7V8H29V7C29 5.34315 27.6569 4 26 4H6ZM23 31C27.9706 31 32 26.9706 32 22C32 17.0294 27.9706 13 23 13C18.0294 13 14 17.0294 14 22C14 26.9706 18.0294 31 23 31ZM24.7474 18.6585C24.3837 18.2429 24.4259 17.6111 24.8415 17.2475C25.2571 16.8838 25.8889 16.9259 26.2526 17.3415L29.7526 21.3415C30.0825 21.7186 30.0825 22.2815 29.7526 22.6585L26.2526 26.6585C25.8889 27.0742 25.2571 27.1163 24.8415 26.7526C24.4259 26.3889 24.3837 25.7572 24.7474 25.3415L27.6712 22L24.7474 18.6585ZM21.1585 26.7526C21.5741 26.3889 21.6163 25.7571 21.2526 25.3415L18.3288 22L21.2526 18.6585C21.6163 18.2429 21.5741 17.6111 21.1585 17.2474C20.7429 16.8837 20.1111 16.9259 19.7474 17.3415L16.2474 21.3415C15.9175 21.7185 15.9175 22.2815 16.2474 22.6585L19.7474 26.6585C20.1111 27.0741 20.7429 27.1163 21.1585 26.7526Z"
    fill="var(--tbl--colors--icons--clean--primary)"
  />
</svg>
