<svg xmlns="http://www.w3.org/2000/svg" width="24" height="24" fill="none" viewBox="0 0 24 24">
  <path
    fill-rule="evenodd"
    clip-rule="evenodd"
    d="M4 3C2.89543 3 2 3.89543 2 5V17C2 18.1046 2.89543 19 4 19H8.07026C7.38958 17.8233 7 16.4571 7 15C7 10.5817 10.5817 7 15 7C17.3894 7 19.5341 8.04751 21 9.70835V5C21 3.89543 20.1046 3 19 3H4Z"
    fill="var(--tbl--colors--icons--clean--secondary)"
  />
  <path
    fill-rule="evenodd"
    clip-rule="evenodd"
    d="M4 3C2.89543 3 2 3.89543 2 5V6H21V5C21 3.89543 20.1046 3 19 3H4ZM23 15C23 19.4183 19.4183 23 15 23C10.5817 23 7 19.4183 7 15C7 10.5817 10.5817 7 15 7C19.4183 7 23 10.5817 23 15ZM13.7071 12.707C14.0976 12.3165 14.0976 11.6833 13.7071 11.2928C13.3166 10.9023 12.6834 10.9023 12.2929 11.2928L9.29289 14.2928C8.90237 14.6833 8.90237 15.3165 9.29289 15.707L12.2929 18.707C12.6834 19.0975 13.3166 19.0975 13.7071 18.707C14.0976 18.3165 14.0976 17.6833 13.7071 17.2928L11.4142 14.9999L13.7071 12.707ZM16.2929 12.707C15.9023 12.3165 15.9023 11.6833 16.2929 11.2928C16.6834 10.9023 17.3165 10.9023 17.7071 11.2928L20.7071 14.2928C21.0976 14.6833 21.0976 15.3165 20.7071 15.707L17.7071 18.707C17.3165 19.0975 16.6834 19.0975 16.2929 18.707C15.9023 18.3165 15.9023 17.6833 16.2929 17.2928L18.5858 14.9999L16.2929 12.707Z"
    fill="var(--tbl--colors--icons--clean--primary)"
  />
</svg>
