<svg xmlns="http://www.w3.org/2000/svg" width="16" height="16" fill="none" viewBox="0 0 16 16">
  <path fill="currentColor" d="M10.675 7.837a4.837 4.837 0 1 1-9.675 0 4.837 4.837 0 0 1 9.675 0Z" opacity=".08"/>
  <path fill="currentColor" fill-rule="evenodd" d="M7.124 11.454a3.837 3.837 0 1 1 0-7.232A4.825 4.825 0 0 0 5.5 7.836c0 1.439.628 2.73 1.624 3.617Zm.963.667a4.837 4.837 0 1 1 0-8.567 4.837 4.837 0 1 1 0 8.567Zm.963-7.9a3.837 3.837 0 1 1 0 7.232 4.825 4.825 0 0 0 1.625-3.616c0-1.438-.628-2.73-1.625-3.616Zm-.963.507a3.832 3.832 0 0 1 1.588 3.11 3.832 3.832 0 0 1-1.588 3.108A3.832 3.832 0 0 1 6.5 7.837c0-1.279.625-2.411 1.587-3.109Z" clip-rule="evenodd"/>
</svg>
