<svg xmlns="http://www.w3.org/2000/svg" width="24" height="24" fill="none" viewBox="0 0 24 24">
  <path fill="var(--tbl--colors--icons--transformation--primary)" fill-rule="evenodd" d="M2.48 6.269a3 3 0 0 1 2.138-3.666L12.354.566l6.363 4.528 2.802 10.637a3 3 0 0 1-2.137 3.666l-9.67 2.547a3 3 0 0 1-3.665-2.137L2.48 6.269Zm7.508 6.717c.047.24.051.467.013.68a1.52 1.52 0 0 1-.662 1.023 2.084 2.084 0 0 1-.644.284 1.778 1.778 0 0 1-.779.043 1.588 1.588 0 0 1-.655-.287 2.04 2.04 0 0 1-.51-.576 3.056 3.056 0 0 1-.342-.822l-.166-.632a2.919 2.919 0 0 1-.103-.888c.014-.28.072-.532.174-.757.101-.224.246-.415.432-.573.188-.16.415-.275.682-.345.258-.068.497-.092.717-.071.221.02.42.079.598.177.178.098.334.234.467.408.133.175.243.382.33.621l-.904.238a1.535 1.535 0 0 0-.162-.35.68.68 0 0 0-.214-.224.581.581 0 0 0-.28-.095.985.985 0 0 0-.357.035.735.735 0 0 0-.341.187.75.75 0 0 0-.189.332c-.036.134-.047.29-.035.469.012.176.046.372.103.587l.168.639c.122.463.277.788.464.975.19.188.426.244.708.17.236-.063.407-.174.512-.335.104-.164.127-.388.068-.674l.907-.239Zm3.211-.584a.634.634 0 0 0-.107-.223.538.538 0 0 0-.202-.165 1.039 1.039 0 0 0-.32-.102 2.542 2.542 0 0 0-.46-.038 4.18 4.18 0 0 1-.642-.055 2.22 2.22 0 0 1-.57-.174 1.478 1.478 0 0 1-.451-.323 1.172 1.172 0 0 1-.269-.509 1.19 1.19 0 0 1-.016-.572c.041-.184.121-.352.24-.505.118-.153.27-.287.457-.4a2.3 2.3 0 0 1 .634-.267c.245-.065.478-.088.7-.07.222.017.424.07.604.161a1.389 1.389 0 0 1 .738.914l-.884.233a.925.925 0 0 0-.135-.276.657.657 0 0 0-.492-.27 1 1 0 0 0-.357.035 1.1 1.1 0 0 0-.31.13.686.686 0 0 0-.204.185.54.54 0 0 0 .04.693c.065.06.146.107.246.143.098.034.213.059.344.075.133.016.28.024.441.025.232.006.45.03.655.073.204.043.387.11.55.2.163.088.301.203.414.343.115.138.197.304.248.497.055.207.061.402.02.585-.04.181-.118.347-.235.497a1.65 1.65 0 0 1-.457.39c-.187.109-.4.195-.64.258a2.49 2.49 0 0 1-.91.064 1.941 1.941 0 0 1-.43-.111 1.507 1.507 0 0 1-.381-.214c-.114-.09-.214-.2-.3-.328-.085-.13-.15-.28-.196-.453l.891-.234c.042.14.099.256.17.345.072.09.156.156.253.2a.825.825 0 0 0 .328.065c.122 0 .25-.018.386-.054.12-.031.224-.074.309-.126a.751.751 0 0 0 .208-.179.527.527 0 0 0 .102-.217.542.542 0 0 0-.01-.246Zm3.059-4.52.004 3.62-1.77-3.154-1 .263 2.658 4.326.923-.243.185-5.075-1 .264Z" clip-rule="evenodd"/>
  <path fill="#fff" fill-opacity=".7" d="M18.717 5.094 12.354.566l1.019 3.868a2 2 0 0 0 2.443 1.424l2.901-.764Z"/>
  <path fill="var(--tbl--colors--icons--clean--primary)" fill-rule="evenodd" d="M9 3a3 3 0 0 0-3 3v14a3 3 0 0 0 3 3h10a3 3 0 0 0 3-3V8l-5-5H9Z" clip-rule="evenodd"/>
  <path fill="#fff" fill-rule="evenodd" d="M13.5 11H11a1 1 0 0 0-1 1v2h3.5v-3Zm1 0v3H18v-2a1 1 0 0 0-1-1h-2.5Zm-1 4H10v2a1 1 0 0 0 1 1h2.5v-3Zm1 3v-3H18v2a1 1 0 0 1-1 1h-2.5Zm0 1H11a2 2 0 0 1-2-2v-5a2 2 0 0 1 2-2h6a2 2 0 0 1 2 2v5a2 2 0 0 1-2 2h-2.5Z" clip-rule="evenodd"/>
  <path fill="#fff" fill-opacity=".5" d="m22 8-5-5v3a2 2 0 0 0 2 2h3Z"/>
</svg>
