<svg xmlns="http://www.w3.org/2000/svg" width="32" height="32" fill="none" viewBox="0 0 32 32">
  <path
    d="M29.5162 19.7462L28.6781 12.7559V12.7504V12.7449C28.6781 12.7394 28.6781 12.7339 28.6781 12.7339C28.6781 12.7339 28.6781 12.7339 28.6781 12.7283C28.6781 12.7228 28.6781 12.7173 28.6725 12.7173V12.7118C28.6725 12.7063 28.6669 12.7007 28.6669 12.7007C28.6669 12.7007 28.6669 12.7007 28.6669 12.6952C28.6669 12.6897 28.6612 12.6897 28.6612 12.6842C28.6612 12.6787 28.6556 12.6787 28.6556 12.6732C28.6556 12.6732 28.6556 12.6676 28.65 12.6676C28.65 12.6621 28.6444 12.6621 28.6444 12.6566C28.6444 12.6566 28.6444 12.6566 28.6444 12.6511C28.6444 12.6456 28.6387 12.6456 28.6331 12.6401C28.6275 12.6345 28.6275 12.6345 28.6219 12.629C28.6219 12.629 28.6219 12.629 28.6163 12.6235L28.6106 12.618L22.9069 6.54359C22.9069 6.53807 22.9013 6.53807 22.9013 6.53807C22.8955 6.52704 22.8843 6.52153 22.873 6.516C22.8674 6.516 22.8674 6.51048 22.8618 6.51048H22.8562C22.8505 6.50497 22.8505 6.50497 22.8449 6.50497C22.8393 6.50497 22.8393 6.49945 22.8337 6.49945C22.8281 6.49945 22.8224 6.49394 22.8168 6.49394C22.8112 6.49394 22.8056 6.48842 22.8056 6.48842H22.7999C22.7943 6.48842 22.7943 6.48842 22.7887 6.48842C22.7887 6.48842 22.7887 6.48842 22.7831 6.48842L10.0424 3.88431H10.0368C10.0256 3.8788 10.0087 3.8788 9.9918 3.8788C9.98618 3.8788 9.98055 3.8788 9.97493 3.8788C9.96931 3.8788 9.96368 3.8788 9.96368 3.8788C9.95243 3.8788 9.94681 3.88431 9.93555 3.88431C9.92993 3.88431 9.92431 3.88983 9.91867 3.88983C9.90743 3.88983 9.90181 3.89534 9.89055 3.90087H9.88493C9.87931 3.90087 9.87368 3.90639 9.86805 3.90639C9.86243 3.90639 9.8568 3.9119 9.8568 3.9119C9.85118 3.91742 9.84556 3.91742 9.83993 3.92293C9.8343 3.92845 9.82868 3.92845 9.82868 3.93398L9.82306 3.93949L2.61742 10.5877C2.61179 10.5932 2.61179 10.5932 2.60617 10.5987C2.60054 10.6042 2.60054 10.6042 2.60054 10.6097C2.60054 10.6153 2.59492 10.6153 2.59492 10.6208C2.58929 10.6263 2.58367 10.6318 2.58367 10.6373C2.58367 10.6428 2.57804 10.6428 2.57804 10.6484C2.57242 10.6539 2.57242 10.6649 2.56679 10.6704C2.56679 10.6759 2.56116 10.6759 2.56116 10.6815C2.55554 10.687 2.55554 10.698 2.55554 10.7035C2.55554 10.7091 2.55554 10.7091 2.55554 10.7146C2.55554 10.7201 2.55554 10.7201 2.55554 10.7256C2.55554 10.7311 2.55554 10.7366 2.55554 10.7422C2.55554 10.7477 2.55554 10.7532 2.55554 10.7587C2.55554 10.7642 2.55554 10.7697 2.55554 10.7753C2.55554 10.7808 2.55554 10.7863 2.55554 10.7918C2.55554 10.7973 2.55554 10.8028 2.55554 10.8084C2.55554 10.8139 2.55554 10.8194 2.56116 10.8249V10.8304L4.31054 17.451V17.4621C4.31054 17.4675 4.31617 17.4731 4.31617 17.4786C4.33304 17.5228 4.35555 17.5559 4.39493 17.5834C4.40055 17.589 4.40055 17.589 4.40617 17.5944C4.41179 17.6 4.41743 17.6 4.42305 17.6055C4.42867 17.6055 4.43429 17.611 4.43429 17.611C4.44555 17.6165 4.45679 17.6221 4.46242 17.6221C4.46805 17.6221 4.47367 17.6275 4.4793 17.6275C4.48492 17.6275 4.49054 17.6275 4.49617 17.6331H4.5018L7.36492 18.1903L10.1718 21.6165C10.1774 21.6219 10.1831 21.6275 10.1831 21.633C10.1831 21.633 10.1831 21.633 10.1887 21.6386C10.1943 21.644 10.1999 21.6496 10.2056 21.6496C10.2224 21.6606 10.2393 21.6716 10.2562 21.6827C10.2618 21.6827 10.2618 21.6882 10.2674 21.6882C10.2731 21.6882 10.2731 21.6937 10.2787 21.6937C10.2843 21.6937 10.2843 21.6937 10.2899 21.6993C10.2956 21.6993 10.2956 21.6993 10.3012 21.7047C10.3068 21.7047 10.3124 21.7047 10.3181 21.7103C10.3237 21.7103 10.3237 21.7103 10.3293 21.7103C10.3349 21.7103 10.3349 21.7103 10.3406 21.7103L14.3906 22.1958L16.8768 26.0633C16.8881 26.0799 16.8993 26.0964 16.9162 26.1074C16.9218 26.113 16.9218 26.113 16.9274 26.113C16.9387 26.124 16.9555 26.135 16.9668 26.1406C16.9724 26.1406 16.9724 26.1461 16.978 26.1461C16.9894 26.1516 16.995 26.1516 17.0062 26.1571C17.0119 26.1571 17.0175 26.1627 17.0231 26.1627C17.0287 26.1627 17.0287 26.1627 17.0344 26.1627C17.0512 26.1681 17.0625 26.1681 17.0793 26.1681C17.0962 26.1681 17.1187 26.1681 17.1412 26.1627C17.1637 26.1571 17.1862 26.1461 17.203 26.135L17.2086 26.1461L18.5306 28.0274C18.5756 28.0936 18.6487 28.1268 18.7275 28.1268C18.7444 28.1268 18.7612 28.1268 18.7781 28.1212L21.0843 27.6136C21.1913 27.5915 21.2643 27.5033 21.27 27.393L21.3768 25.0978L25.1288 24.1599H25.1344C25.14 24.1599 25.14 24.1599 25.1456 24.1599C25.1513 24.1599 25.1513 24.1599 25.1569 24.1544C25.1737 24.1489 25.1906 24.1434 25.2019 24.1323C25.2075 24.1323 25.2075 24.1268 25.2131 24.1268C25.2187 24.1268 25.2187 24.1212 25.2243 24.1212C25.2356 24.1158 25.2412 24.1047 25.2525 24.0992L25.2581 24.0937C25.2693 24.0827 25.2806 24.0661 25.2862 24.0496C25.2862 24.0496 25.2862 24.044 25.2918 24.044C25.2918 24.0386 25.2974 24.033 25.2974 24.0275L26.0962 22.1296L29.4206 19.9778C29.4881 19.9227 29.5274 19.8344 29.5162 19.7462ZM28.0087 12.6732L25.7362 13.3904C25.5281 13.0263 25.1344 12.7835 24.6787 12.7835C24.6563 12.7835 24.6338 12.7835 24.6112 12.7835L23.2106 7.55875L28.0087 12.6732ZM22.8505 18.2455C22.8112 18.24 22.7718 18.24 22.7325 18.24C22.378 18.24 22.0631 18.4165 21.8718 18.6813L16.7024 16.7062C16.7136 16.6455 16.7193 16.5849 16.7193 16.5187C16.7193 16.491 16.7193 16.4634 16.7136 16.4413L23.6043 14.5104C23.7056 14.7035 23.863 14.869 24.0487 14.9793L22.8505 18.2455ZM23.3343 19.2662C23.3343 19.4152 23.2781 19.5475 23.1881 19.6524C23.0812 19.7737 22.9294 19.851 22.755 19.8621C22.7437 19.8621 22.7381 19.8621 22.7269 19.8621C22.6424 19.8621 22.5693 19.8455 22.4962 19.8178C22.3443 19.7572 22.2206 19.6358 22.1644 19.4813C22.1418 19.4206 22.1305 19.36 22.1249 19.2937C22.1249 19.2883 22.1249 19.2772 22.1249 19.2716C22.1249 19.1116 22.1925 18.9627 22.2993 18.8524C22.4005 18.7531 22.5412 18.6869 22.6931 18.6759C22.7044 18.6759 22.7156 18.6759 22.7325 18.6759C22.8899 18.6759 23.0362 18.7365 23.1486 18.8359C23.2612 18.9406 23.3343 19.0952 23.3343 19.2662ZM19.6555 21.8703C19.4418 21.7213 19.1774 21.633 18.8905 21.633C18.7612 21.633 18.6318 21.6496 18.5137 21.6882L16.2862 17.4124C16.3818 17.3407 16.4605 17.2524 16.5281 17.1531L21.6975 19.1283C21.6919 19.1724 21.6863 19.2221 21.6863 19.2716C21.6863 19.4647 21.7425 19.6413 21.8324 19.7958L19.6555 21.8703ZM19.7344 22.9296C19.7344 23.0565 19.7063 23.1834 19.6499 23.2937C19.515 23.5696 19.2225 23.7627 18.8849 23.7627C18.8118 23.7627 18.7444 23.7516 18.6712 23.735C18.5081 23.6965 18.3674 23.6081 18.2606 23.4924C18.1199 23.3434 18.0356 23.1447 18.0356 22.9296C18.0356 22.6924 18.1368 22.4771 18.3 22.3283C18.418 22.2178 18.5643 22.1462 18.7275 22.113C18.7781 22.1019 18.8287 22.0965 18.8849 22.0965C19.0368 22.0965 19.1774 22.135 19.3012 22.2013C19.4418 22.2786 19.56 22.3944 19.633 22.5378C19.678 22.6261 19.7119 22.7199 19.7231 22.8247C19.7344 22.8578 19.7344 22.8909 19.7344 22.9296ZM16.2637 16.5241C16.2637 16.7007 16.1962 16.8552 16.0893 16.9765C16.0837 16.9821 16.0781 16.9875 16.0725 16.9931C15.9655 17.1034 15.8306 17.1807 15.673 17.2028L15.6674 17.2413L15.6506 17.2083C15.6224 17.2138 15.5943 17.2138 15.5606 17.2138C15.4312 17.2138 15.3075 17.1807 15.2005 17.12C14.9924 16.9987 14.8518 16.7779 14.8518 16.5241C14.8518 16.309 14.953 16.1103 15.1162 15.9834C15.2343 15.8897 15.3918 15.829 15.5606 15.829C15.5662 15.829 15.5662 15.829 15.5718 15.829C15.6337 15.829 15.6899 15.84 15.7461 15.851C15.9037 15.8952 16.0387 15.989 16.1343 16.1159L16.1512 16.1103L16.1399 16.1213C16.213 16.2428 16.2637 16.3807 16.2637 16.5241ZM16.0162 15.4813C15.8756 15.4207 15.7236 15.3876 15.5606 15.3876C15.5156 15.3876 15.4649 15.3931 15.4199 15.3987L14.7112 13.3738C14.9868 13.1973 15.1724 12.8938 15.1724 12.5463C15.1724 12.4856 15.1668 12.4194 15.1556 12.3587L19.2619 10.5049C19.3125 10.5822 19.3743 10.6484 19.4361 10.7146L16.0162 15.4813ZM13.2937 13.0263L10.9874 15.1503L13.5131 9.14218L13.5243 9.11459L13.5299 9.14218L13.8169 11.6249C13.4343 11.7628 13.1643 12.1214 13.1643 12.5463C13.1643 12.7228 13.2149 12.8828 13.2937 13.0263ZM19.0593 10.0801L14.953 11.9339C14.7956 11.7408 14.565 11.6083 14.3006 11.5752L14.0136 9.09252C14.2443 9.00977 14.4355 8.83873 14.5481 8.62356L19.02 9.62768C19.02 9.65527 19.02 9.68286 19.02 9.71045C19.0087 9.83733 19.0256 9.95871 19.0593 10.0801ZM14.1431 8.34218C14.1206 8.40287 14.0868 8.45805 14.0475 8.5077C14.0193 8.5408 13.9911 8.56287 13.9574 8.59046C13.8731 8.64563 13.7774 8.67874 13.6706 8.67874C13.5131 8.67874 13.3724 8.607 13.2768 8.49667C13.2037 8.40839 13.1643 8.30356 13.1643 8.18219C13.1643 8.1215 13.1756 8.06633 13.1981 8.01115C13.2543 7.85668 13.3893 7.7353 13.5581 7.70219C13.5975 7.69116 13.6368 7.69116 13.6762 7.69116C13.8393 7.69116 13.9855 7.7684 14.0756 7.88427C14.115 7.93391 14.1431 7.99461 14.1656 8.0553C14.1768 8.09943 14.1824 8.14356 14.1824 8.18771C14.1656 8.23736 14.1599 8.29253 14.1431 8.34218ZM13.8731 12.0663C13.9574 12.0166 14.0644 11.9835 14.1712 11.9835C14.233 11.9835 14.295 11.9945 14.3512 12.0111C14.4243 12.0332 14.4918 12.0718 14.5481 12.1159C14.6718 12.2207 14.7505 12.3697 14.7505 12.5463C14.7505 12.7063 14.683 12.8497 14.5706 12.9545C14.4693 13.0483 14.3287 13.109 14.1768 13.109C14.1599 13.109 14.1374 13.109 14.1206 13.1035C14.0644 13.098 14.0136 13.0869 13.963 13.0649C13.8112 13.0042 13.6874 12.8773 13.6368 12.7228C13.62 12.6676 13.6087 12.607 13.6087 12.5407C13.5918 12.3421 13.7043 12.1601 13.8731 12.0663ZM19.8299 10.9849C20.0212 11.0732 20.2294 11.1228 20.4544 11.1228C20.7581 11.1228 21.0393 11.029 21.2756 10.869L23.6887 13.2966C23.5537 13.4897 23.475 13.7159 23.475 13.9697C23.475 14.0028 23.475 14.0304 23.4806 14.0635L16.59 15.9944C16.545 15.9062 16.483 15.8234 16.4155 15.7518L19.8299 10.9849ZM19.5318 9.70492C19.5318 9.55045 19.5712 9.40699 19.6387 9.28011C19.7962 8.99321 20.0999 8.80011 20.4544 8.80011C20.9606 8.80011 21.3768 9.20286 21.3768 9.70492C21.3768 9.87596 21.3318 10.0304 21.2475 10.1684C21.163 10.3063 21.045 10.4166 20.9043 10.4939C20.7693 10.5656 20.6174 10.6097 20.4544 10.6097C20.3418 10.6097 20.235 10.5932 20.1393 10.5546C19.8356 10.4442 19.6049 10.1794 19.5487 9.8594C19.5431 9.82079 19.5375 9.78217 19.5375 9.74355C19.5318 9.73251 19.5318 9.72148 19.5318 9.70492ZM24.0487 14.3945C23.9644 14.2731 23.9194 14.1297 23.9194 13.9697C23.9194 13.9587 23.9194 13.9476 23.9194 13.9421C23.925 13.8263 23.9531 13.7214 24.0037 13.6221C24.0656 13.5063 24.1556 13.4069 24.2681 13.3407C24.2962 13.3242 24.3187 13.3076 24.3468 13.2966C24.4481 13.2469 24.5606 13.2194 24.6844 13.2194C24.7012 13.2194 24.7181 13.2194 24.7293 13.2194C24.9656 13.2304 25.1737 13.3518 25.3031 13.5283C25.3931 13.6552 25.4494 13.8042 25.4494 13.9697V13.9752C25.4494 14.2676 25.2749 14.5214 25.0274 14.6428C24.9262 14.6924 24.8081 14.72 24.6844 14.72C24.6787 14.72 24.6675 14.72 24.6619 14.72C24.6224 14.72 24.5887 14.7145 24.5549 14.709C24.4256 14.6869 24.3074 14.6373 24.2119 14.56C24.15 14.5159 24.0937 14.4552 24.0487 14.3945ZM24.15 12.9049C24.1049 12.9269 24.0656 12.949 24.0262 12.9711L21.6187 10.5435C21.7931 10.3118 21.8999 10.0194 21.8999 9.70492C21.8999 8.92149 21.2531 8.28702 20.4544 8.28702C19.8524 8.28702 19.3349 8.65115 19.1212 9.16424L14.9024 8.2153L22.5581 6.96841L24.15 12.9049ZM21.4275 6.676L14.565 7.79599C14.4131 7.45393 14.0644 7.21116 13.6593 7.21116C13.4962 7.21116 13.3387 7.24978 13.2037 7.32151L10.6499 4.48568L21.4275 6.676ZM10.1099 4.60155L12.8437 7.63599C12.7368 7.79047 12.6693 7.97805 12.6693 8.18219C12.6693 8.50218 12.8268 8.78356 13.0687 8.96011L10.4868 15.1007C10.4362 15.0952 10.3912 15.0897 10.3406 15.0897C10.2674 15.0897 10.1943 15.0952 10.1268 15.1118L8.86118 12.618C9.18743 12.3807 9.40118 11.9945 9.40118 11.5642C9.40118 11.0346 9.08055 10.5766 8.6193 10.3725L10.1099 4.60155ZM8.64181 12.1766C8.52368 12.2814 8.37743 12.3587 8.2143 12.3863C8.16367 12.3973 8.11868 12.3973 8.06805 12.3973C7.99493 12.3973 7.92181 12.3863 7.8543 12.3697C7.69117 12.3311 7.55054 12.2428 7.44367 12.127C7.32555 12.0056 7.2468 11.8456 7.2243 11.669C7.21867 11.6359 7.21867 11.5973 7.21867 11.5587C7.21867 11.4318 7.2468 11.3104 7.29742 11.2056C7.42679 10.9297 7.70805 10.7366 8.0343 10.7256C8.04556 10.7256 8.0568 10.7256 8.06805 10.7256C8.22555 10.7256 8.3718 10.7697 8.50118 10.8415C8.74868 10.9849 8.91743 11.2552 8.91743 11.5587C8.91181 11.807 8.81056 12.0276 8.64181 12.1766ZM9.55868 4.83879L8.15805 10.2622C8.12993 10.2622 8.09618 10.2566 8.06805 10.2566C7.48305 10.2566 6.98805 10.6263 6.80242 11.1394L3.30366 10.6042L9.55868 4.83879ZM3.10117 11.0456L6.72367 11.5973C6.73492 11.978 6.90931 12.3201 7.18493 12.5518L4.61992 16.789L3.10117 11.0456ZM7.59555 12.8001C7.7418 12.8552 7.89931 12.8828 8.06242 12.8828C8.19181 12.8828 8.31556 12.8663 8.43367 12.8332L9.69931 15.3269C9.48555 15.5035 9.35055 15.7683 9.34493 16.0607L5.0193 17.0428L7.59555 12.8001ZM5.67179 17.3738L9.14243 16.5849L7.43243 17.7159L5.67179 17.3738ZM10.1043 20.7944L7.8318 18.0193L9.67681 16.7944C9.79494 16.8993 9.94117 16.9765 10.1043 17.0207V20.7944ZM10.3462 16.5959C10.2618 16.5959 10.1774 16.5738 10.1043 16.5407L10.0818 16.5297C10.0256 16.4965 9.97493 16.4579 9.92993 16.4083C9.86805 16.331 9.82306 16.2428 9.8118 16.1379C9.80618 16.1159 9.80618 16.0938 9.80618 16.0718C9.80618 16.0276 9.8118 15.989 9.82306 15.9503C9.83992 15.8787 9.87368 15.8179 9.91305 15.7572C10.0031 15.6413 10.1437 15.5587 10.3012 15.5476L10.3181 15.5035L10.3406 15.5476C10.4024 15.5476 10.4643 15.5587 10.5206 15.5807C10.6049 15.6138 10.6837 15.6634 10.7399 15.7297C10.7906 15.7849 10.8243 15.851 10.8468 15.9228C10.8637 15.9724 10.8693 16.0221 10.8693 16.0718C10.8693 16.16 10.8468 16.2483 10.8018 16.32C10.7512 16.4138 10.6724 16.491 10.5712 16.5352C10.5206 16.5628 10.4643 16.5793 10.4081 16.5849C10.3968 16.5903 10.3687 16.5959 10.3462 16.5959ZM10.5881 21.2524V17.0207C10.6274 17.0097 10.6668 16.9987 10.7062 16.9875L14.0136 21.6716L10.5881 21.2524ZM11.0943 16.7172C11.2518 16.5462 11.3418 16.32 11.3418 16.0718C11.3418 15.8952 11.2968 15.7352 11.2124 15.5918L13.62 13.3738C13.7775 13.4731 13.963 13.5338 14.1656 13.5338C14.1937 13.5338 14.2218 13.5338 14.2555 13.5283L14.9643 15.5531C14.6268 15.7518 14.4018 16.1159 14.4018 16.5297C14.4018 17.0041 14.6943 17.4069 15.1162 17.5779L14.3849 21.3682L11.0943 16.7172ZM17.0568 25.4786L14.7675 21.9199L15.5831 17.6662C15.6787 17.6662 15.7687 17.6496 15.8587 17.6275L18.0862 21.9034C17.7712 22.1406 17.5687 22.5103 17.5687 22.9296C17.5687 23.3158 17.7431 23.6634 18.0187 23.9006L17.0568 25.4786ZM20.7862 27.1889L18.8175 27.6246L17.6868 26.0137L20.8818 25.2137L20.7862 27.1889ZM17.5687 25.5558L18.4293 24.1378C18.57 24.193 18.7275 24.2206 18.8905 24.2206C19.4644 24.2206 19.9481 23.8619 20.1337 23.3655L23.9025 23.9778L17.5687 25.5558ZM20.2069 22.9019C20.2013 22.6427 20.1224 22.4055 19.9875 22.2068L22.17 20.1268C22.3331 20.2262 22.5243 20.2868 22.7325 20.2868C22.8112 20.2868 22.8899 20.2758 22.9631 20.2593L24.645 23.6137L20.2069 22.9019ZM25.0443 23.3544L23.3905 20.0552C23.6212 19.8675 23.7731 19.5806 23.7731 19.2662C23.7731 18.9075 23.5818 18.5931 23.3006 18.4055L24.5043 15.1449C24.5437 15.1503 24.583 15.1559 24.6224 15.1559L25.6519 21.9309L25.0443 23.3544ZM26.0737 21.5668L25.0949 15.0897C25.5618 14.9241 25.8938 14.4883 25.8938 13.9697C25.8938 13.9256 25.8938 13.8814 25.8881 13.8373L28.2393 13.0925L29.0268 19.6524L26.0737 21.5668Z"
    fill="var(--tbl--colors--icons--enrichment--people-data-labs)"
    stroke="var(--tbl--colors--icons--enrichment--people-data-labs)"
    stroke-width="0.325758"
    stroke-linejoin="round"
  />
</svg>
