<svg xmlns="http://www.w3.org/2000/svg" width="24" height="24" fill="none" viewBox="0 0 24 24">
  <path
    d="M22.1371 14.8096L21.5085 9.56692V9.56279V9.55865C21.5085 9.55451 21.5085 9.55038 21.5085 9.55038C21.5085 9.55038 21.5085 9.55038 21.5085 9.54623C21.5085 9.5421 21.5085 9.53796 21.5043 9.53796V9.53382C21.5043 9.52969 21.5001 9.52555 21.5001 9.52555C21.5001 9.52555 21.5001 9.52555 21.5001 9.52141C21.5001 9.51727 21.4959 9.51727 21.4959 9.51313C21.4959 9.509 21.4917 9.509 21.4917 9.50486C21.4917 9.50486 21.4917 9.50072 21.4875 9.50072C21.4875 9.49658 21.4832 9.49658 21.4832 9.49244C21.4832 9.49244 21.4832 9.49244 21.4832 9.48831C21.4832 9.48417 21.479 9.48417 21.4748 9.48003C21.4706 9.4759 21.4706 9.4759 21.4664 9.47176C21.4664 9.47176 21.4664 9.47176 21.4622 9.46762L21.4579 9.46348L17.1801 4.90768C17.1801 4.90354 17.1759 4.90354 17.1759 4.90354C17.1716 4.89527 17.1632 4.89113 17.1547 4.88699C17.1505 4.88699 17.1505 4.88285 17.1463 4.88285H17.1421C17.1379 4.87872 17.1379 4.87872 17.1337 4.87872C17.1294 4.87872 17.1294 4.87458 17.1252 4.87458C17.121 4.87458 17.1168 4.87044 17.1126 4.87044C17.1084 4.87044 17.1041 4.86631 17.1041 4.86631H17.0999C17.0957 4.86631 17.0957 4.86631 17.0915 4.86631C17.0915 4.86631 17.0915 4.86631 17.0873 4.86631L7.5318 2.91322H7.52757C7.51914 2.90909 7.50648 2.90909 7.49382 2.90909C7.4896 2.90909 7.48538 2.90909 7.48117 2.90909C7.47695 2.90909 7.47273 2.90909 7.47273 2.90909C7.46429 2.90909 7.46008 2.91322 7.45163 2.91322C7.44742 2.91322 7.4432 2.91736 7.43897 2.91736C7.43054 2.91736 7.42632 2.9215 7.41788 2.92564H7.41366C7.40945 2.92564 7.40523 2.92978 7.40101 2.92978C7.39679 2.92978 7.39257 2.93392 7.39257 2.93392C7.38836 2.93805 7.38414 2.93805 7.37991 2.94219C7.3757 2.94632 7.37148 2.94632 7.37148 2.95047L7.36726 2.95461L1.96304 7.94074C1.95881 7.94488 1.95881 7.94488 1.95459 7.94902C1.95038 7.95316 1.95038 7.95316 1.95038 7.9573C1.95038 7.96143 1.94616 7.96143 1.94616 7.96557C1.94194 7.96971 1.93772 7.97384 1.93772 7.97798C1.93772 7.98212 1.9335 7.98212 1.9335 7.98626C1.92929 7.9904 1.92929 7.99867 1.92506 8.00281C1.92506 8.00695 1.92084 8.00695 1.92084 8.01109C1.91663 8.01522 1.91663 8.0235 1.91663 8.02763C1.91663 8.03178 1.91663 8.03178 1.91663 8.03591C1.91663 8.04005 1.91663 8.04005 1.91663 8.04419C1.91663 8.04832 1.91663 8.05246 1.91663 8.05661C1.91663 8.06074 1.91663 8.06488 1.91663 8.06902C1.91663 8.07315 1.91663 8.0773 1.91663 8.08143C1.91663 8.08557 1.91663 8.08971 1.91663 8.09384C1.91663 8.09798 1.91663 8.10212 1.91663 8.10626C1.91663 8.1104 1.91663 8.11453 1.92084 8.11867V8.12281L3.23288 13.0883V13.0965C3.23288 13.1006 3.23709 13.1048 3.23709 13.1089C3.24975 13.1421 3.26663 13.1669 3.29616 13.1875C3.30038 13.1917 3.30038 13.1917 3.3046 13.1958C3.30881 13.2 3.31304 13.2 3.31726 13.2041C3.32147 13.2041 3.32569 13.2083 3.32569 13.2083C3.33413 13.2124 3.34257 13.2165 3.34678 13.2165C3.35101 13.2165 3.35522 13.2206 3.35944 13.2206C3.36366 13.2206 3.36787 13.2206 3.3721 13.2248H3.37632L5.52366 13.6427L7.62883 16.2124C7.63304 16.2165 7.63726 16.2206 7.63726 16.2247C7.63726 16.2247 7.63726 16.2247 7.64148 16.2289C7.6457 16.233 7.64992 16.2372 7.65413 16.2372C7.66679 16.2455 7.67945 16.2537 7.6921 16.262C7.69632 16.262 7.69632 16.2662 7.70054 16.2662C7.70476 16.2662 7.70476 16.2703 7.70898 16.2703C7.71319 16.2703 7.71319 16.2703 7.71742 16.2745C7.72164 16.2745 7.72164 16.2745 7.72585 16.2785C7.73007 16.2785 7.73429 16.2785 7.73851 16.2827C7.74273 16.2827 7.74273 16.2827 7.74695 16.2827C7.75116 16.2827 7.75116 16.2827 7.75539 16.2827L10.7929 16.6468L12.6576 19.5475C12.666 19.5599 12.6744 19.5723 12.6871 19.5805C12.6913 19.5847 12.6913 19.5847 12.6955 19.5847C12.704 19.593 12.7166 19.6013 12.725 19.6054C12.7293 19.6054 12.7293 19.6095 12.7335 19.6095C12.742 19.6137 12.7462 19.6137 12.7547 19.6178C12.7589 19.6178 12.7631 19.622 12.7673 19.622C12.7715 19.622 12.7715 19.622 12.7757 19.622C12.7884 19.6261 12.7968 19.6261 12.8095 19.6261C12.8221 19.6261 12.839 19.6261 12.8559 19.622C12.8727 19.6178 12.8896 19.6095 12.9022 19.6013L12.9065 19.6095L13.8979 21.0205C13.9317 21.0702 13.9865 21.0951 14.0456 21.0951C14.0582 21.0951 14.0709 21.0951 14.0835 21.0909L15.8132 20.7102C15.8934 20.6936 15.9482 20.6275 15.9524 20.5447L16.0326 18.8234L18.8465 18.1199H18.8508C18.855 18.1199 18.855 18.1199 18.8592 18.1199C18.8634 18.1199 18.8634 18.1199 18.8676 18.1158C18.8803 18.1116 18.8929 18.1075 18.9014 18.0992C18.9056 18.0992 18.9056 18.0951 18.9098 18.0951C18.914 18.0951 18.914 18.0909 18.9182 18.0909C18.9267 18.0868 18.9309 18.0785 18.9393 18.0744L18.9435 18.0703C18.952 18.062 18.9604 18.0495 18.9646 18.0372C18.9646 18.0372 18.9646 18.033 18.9688 18.033C18.9688 18.0289 18.973 18.0247 18.973 18.0206L19.5721 16.5972L22.0654 14.9834C22.116 14.942 22.1455 14.8758 22.1371 14.8096ZM21.0065 9.50486L19.3021 10.0428C19.146 9.76968 18.8508 9.58762 18.509 9.58762C18.4922 9.58762 18.4753 9.58762 18.4583 9.58762L17.4079 5.66905L21.0065 9.50486ZM17.1379 13.6841C17.1084 13.68 17.0788 13.68 17.0493 13.68C16.7835 13.68 16.5473 13.8124 16.4038 14.011L12.5268 12.5296C12.5352 12.4841 12.5394 12.4386 12.5394 12.389C12.5394 12.3683 12.5394 12.3475 12.5352 12.331L17.7032 10.8828C17.7792 11.0276 17.8972 11.1517 18.0365 11.2345L17.1379 13.6841ZM17.5007 14.4496C17.5007 14.5614 17.4585 14.6606 17.3911 14.7393C17.3109 14.8303 17.197 14.8883 17.0662 14.8965C17.0578 14.8965 17.0535 14.8965 17.0451 14.8965C16.9818 14.8965 16.927 14.8841 16.8721 14.8634C16.7582 14.8179 16.6654 14.7268 16.6233 14.611C16.6063 14.5655 16.5979 14.52 16.5936 14.4703C16.5936 14.4662 16.5936 14.4579 16.5936 14.4537C16.5936 14.3337 16.6443 14.222 16.7245 14.1393C16.8004 14.0648 16.9059 14.0152 17.0198 14.0069C17.0282 14.0069 17.0367 14.0069 17.0493 14.0069C17.1674 14.0069 17.2771 14.0524 17.3615 14.1269C17.4459 14.2055 17.5007 14.3214 17.5007 14.4496ZM14.7416 16.4027C14.5813 16.291 14.383 16.2247 14.1679 16.2247C14.0709 16.2247 13.9738 16.2372 13.8853 16.2662L12.2146 13.0593C12.2863 13.0055 12.3454 12.9393 12.3961 12.8648L16.2731 14.3462C16.2689 14.3793 16.2647 14.4165 16.2647 14.4537C16.2647 14.5985 16.3068 14.731 16.3743 14.8468L14.7416 16.4027ZM14.8007 17.1972C14.8007 17.2924 14.7797 17.3875 14.7374 17.4703C14.6362 17.6772 14.4168 17.822 14.1637 17.822C14.1088 17.822 14.0582 17.8137 14.0033 17.8013C13.8811 17.7724 13.7755 17.7061 13.6954 17.6193C13.5899 17.5075 13.5267 17.3585 13.5267 17.1972C13.5267 17.0193 13.6026 16.8578 13.7249 16.7462C13.8135 16.6634 13.9232 16.6096 14.0456 16.5847C14.0835 16.5765 14.1215 16.5724 14.1637 16.5724C14.2776 16.5724 14.383 16.6013 14.4759 16.651C14.5813 16.7089 14.6699 16.7958 14.7248 16.9034C14.7585 16.9695 14.7839 17.0399 14.7923 17.1185C14.8007 17.1434 14.8007 17.1682 14.8007 17.1972ZM12.1978 12.3931C12.1978 12.5255 12.1471 12.6414 12.067 12.7324C12.0628 12.7365 12.0585 12.7406 12.0543 12.7448C11.9741 12.8275 11.8729 12.8855 11.7548 12.9021L11.7505 12.931L11.7379 12.9062C11.7168 12.9104 11.6957 12.9104 11.6704 12.9104C11.5733 12.9104 11.4806 12.8855 11.4004 12.84C11.2443 12.749 11.1388 12.5835 11.1388 12.3931C11.1388 12.2317 11.2147 12.0827 11.3371 11.9875C11.4257 11.9173 11.5438 11.8717 11.6704 11.8717C11.6746 11.8717 11.6746 11.8717 11.6789 11.8717C11.7252 11.8717 11.7674 11.88 11.8096 11.8883C11.9277 11.9214 12.029 11.9917 12.1007 12.0869L12.1134 12.0827L12.1049 12.091C12.1597 12.1821 12.1978 12.2855 12.1978 12.3931ZM12.0122 11.611C11.9066 11.5655 11.7927 11.5407 11.6704 11.5407C11.6367 11.5407 11.5986 11.5448 11.5649 11.549L11.0333 10.0304C11.24 9.89796 11.3793 9.67037 11.3793 9.40969C11.3793 9.36417 11.3751 9.31452 11.3666 9.269L14.4464 7.87868C14.4843 7.93661 14.5307 7.98626 14.5771 8.03591L12.0122 11.611ZM9.97023 9.76968L8.24054 11.3627L10.1348 6.85662L10.1432 6.83593L10.1474 6.85662L10.3626 8.71866C10.0757 8.82211 9.8732 9.09107 9.8732 9.40969C9.8732 9.5421 9.91117 9.6621 9.97023 9.76968ZM14.2945 7.56006L11.2147 8.95039C11.0967 8.80556 10.9237 8.70625 10.7254 8.68142L10.5102 6.81938C10.6832 6.75732 10.8266 6.62903 10.9111 6.46766L14.2649 7.22075C14.2649 7.24144 14.2649 7.26213 14.2649 7.28282C14.2565 7.37799 14.2692 7.46902 14.2945 7.56006ZM10.6073 6.25662C10.5904 6.30214 10.5651 6.34352 10.5356 6.38076C10.5144 6.40559 10.4933 6.42214 10.468 6.44283C10.4048 6.48421 10.333 6.50904 10.2529 6.50904C10.1348 6.50904 10.0293 6.45524 9.95758 6.37249C9.90274 6.30628 9.8732 6.22766 9.8732 6.13663C9.8732 6.09112 9.88164 6.04973 9.89851 6.00835C9.9407 5.8925 10.042 5.80146 10.1686 5.77663C10.1981 5.76836 10.2276 5.76836 10.2571 5.76836C10.3795 5.76836 10.4891 5.82629 10.5567 5.91319C10.5862 5.95042 10.6073 5.99594 10.6241 6.04146C10.6326 6.07456 10.6368 6.10766 10.6368 6.14077C10.6241 6.17801 10.6199 6.21939 10.6073 6.25662ZM10.4048 9.04969C10.468 9.01245 10.5482 8.98762 10.6284 8.98762C10.6747 8.98762 10.7212 8.9959 10.7634 9.00831C10.8182 9.02487 10.8688 9.05383 10.9111 9.08693C11.0038 9.16555 11.0629 9.27728 11.0629 9.40969C11.0629 9.52969 11.0122 9.63727 10.9279 9.71589C10.8519 9.78623 10.7465 9.83175 10.6326 9.83175C10.6199 9.83175 10.6031 9.83175 10.5904 9.82761C10.5482 9.82348 10.5102 9.8152 10.4722 9.79865C10.3584 9.75313 10.2655 9.65796 10.2276 9.5421C10.2149 9.50072 10.2065 9.45521 10.2065 9.40555C10.1939 9.25659 10.2782 9.12003 10.4048 9.04969ZM14.8724 8.23867C15.0159 8.30488 15.172 8.34211 15.3407 8.34211C15.5685 8.34211 15.7795 8.27177 15.9567 8.15177L17.7665 9.97244C17.6652 10.1173 17.6062 10.2869 17.6062 10.4773C17.6062 10.5021 17.6062 10.5228 17.6104 10.5476L12.4424 11.9958C12.4087 11.9296 12.3622 11.8675 12.3116 11.8138L14.8724 8.23867ZM14.6489 7.27868C14.6489 7.16282 14.6784 7.05523 14.729 6.96007C14.8471 6.7449 15.0749 6.60007 15.3407 6.60007C15.7204 6.60007 16.0326 6.90213 16.0326 7.27868C16.0326 7.40696 15.9988 7.52281 15.9356 7.62626C15.8722 7.72971 15.7837 7.81247 15.6782 7.8704C15.577 7.92419 15.463 7.9573 15.3407 7.9573C15.2563 7.9573 15.1762 7.94488 15.1044 7.91592C14.8766 7.83316 14.7037 7.63454 14.6615 7.39454C14.6573 7.36558 14.6531 7.33662 14.6531 7.30765C14.6489 7.29937 14.6489 7.2911 14.6489 7.27868ZM18.0365 10.7959C17.9732 10.7048 17.9395 10.5973 17.9395 10.4773C17.9395 10.469 17.9395 10.4607 17.9395 10.4566C17.9437 10.3697 17.9648 10.2911 18.0028 10.2166C18.0491 10.1297 18.1167 10.0552 18.201 10.0055C18.2221 9.99312 18.239 9.98071 18.2601 9.97244C18.3361 9.9352 18.4204 9.91451 18.5132 9.91451C18.5259 9.91451 18.5385 9.91451 18.547 9.91451C18.7242 9.92279 18.8803 10.0138 18.9773 10.1462C19.0448 10.2414 19.087 10.3531 19.087 10.4773V10.4814C19.087 10.7007 18.9562 10.8911 18.7706 10.9821C18.6947 11.0193 18.606 11.04 18.5132 11.04C18.509 11.04 18.5006 11.04 18.4964 11.04C18.4668 11.04 18.4415 11.0359 18.4162 11.0317C18.3192 11.0152 18.2305 10.9779 18.1589 10.92C18.1125 10.8869 18.0702 10.8414 18.0365 10.7959ZM18.1125 9.67865C18.0786 9.6952 18.0491 9.71175 18.0196 9.72831L16.214 7.90764C16.3448 7.73385 16.4249 7.51454 16.4249 7.27868C16.4249 6.69111 15.9398 6.21525 15.3407 6.21525C14.8893 6.21525 14.5012 6.48835 14.3409 6.87317L11.1768 6.16146L16.9185 5.2263L18.1125 9.67865ZM16.0706 5.00699L10.9237 5.84698C10.8098 5.59043 10.5482 5.40836 10.2445 5.40836C10.1221 5.40836 10.004 5.43732 9.90274 5.49112L7.98742 3.36425L16.0706 5.00699ZM7.58241 3.45115L9.63273 5.72698C9.55258 5.84284 9.50195 5.98352 9.50195 6.13663C9.50195 6.37662 9.62007 6.58766 9.80148 6.72007L7.86508 11.3255C7.82711 11.3214 7.79336 11.3173 7.75539 11.3173C7.70054 11.3173 7.6457 11.3214 7.59507 11.3338L6.64586 9.46348C6.89054 9.28555 7.05086 8.9959 7.05086 8.67314C7.05086 8.27591 6.81038 7.93247 6.46445 7.77937L7.58241 3.45115ZM6.48132 9.13245C6.39273 9.21107 6.28304 9.269 6.16069 9.28969C6.12272 9.29796 6.08898 9.29796 6.051 9.29796C5.99617 9.29796 5.94132 9.28969 5.8907 9.27728C5.76835 9.24831 5.66288 9.18211 5.58272 9.09521C5.49413 9.00418 5.43507 8.88418 5.41819 8.75177C5.41398 8.72694 5.41398 8.69797 5.41398 8.66901C5.41398 8.57383 5.43507 8.48281 5.47304 8.40419C5.57007 8.19729 5.78101 8.05246 6.02569 8.04419C6.03414 8.04419 6.04257 8.04419 6.051 8.04419C6.16913 8.04419 6.27882 8.07729 6.37585 8.13109C6.56148 8.23867 6.68804 8.44142 6.68804 8.66901C6.68382 8.85521 6.60789 9.02072 6.48132 9.13245ZM7.16898 3.62908L6.11851 7.69661C6.09741 7.69661 6.0721 7.69247 6.051 7.69247C5.61226 7.69247 5.24101 7.96971 5.10179 8.35453L2.47772 7.95316L7.16898 3.62908ZM2.32584 8.28419L5.04272 8.69797C5.05116 8.98349 5.18195 9.24003 5.38867 9.41382L3.46491 12.5917L2.32584 8.28419ZM5.69663 9.60003C5.80632 9.64141 5.92445 9.6621 6.04679 9.6621C6.14383 9.6621 6.23664 9.64969 6.32522 9.62486L7.27445 11.4952C7.11414 11.6276 7.01288 11.8262 7.00866 12.0455L3.76444 12.7821L5.69663 9.60003ZM4.25381 13.0304L6.85679 12.4386L5.57429 13.2869L4.25381 13.0304ZM7.5782 15.5958L5.87382 13.5145L7.25758 12.5958C7.34617 12.6745 7.45585 12.7324 7.5782 12.7655V15.5958ZM7.75961 12.4469C7.69632 12.4469 7.63304 12.4304 7.5782 12.4055L7.56132 12.3973C7.51914 12.3724 7.48117 12.3435 7.44742 12.3062C7.40101 12.2483 7.36726 12.1821 7.35882 12.1035C7.3546 12.0869 7.3546 12.0704 7.3546 12.0538C7.3546 12.0207 7.35882 11.9917 7.36726 11.9627C7.37991 11.909 7.40523 11.8635 7.43476 11.8179C7.50226 11.731 7.60773 11.669 7.72585 11.6607L7.73851 11.6276L7.75539 11.6607C7.80179 11.6607 7.8482 11.669 7.89039 11.6855C7.95366 11.7104 8.01273 11.7475 8.05492 11.7973C8.09289 11.8386 8.1182 11.8883 8.13507 11.9421C8.14773 11.9793 8.15195 12.0165 8.15195 12.0538C8.15195 12.12 8.13507 12.1862 8.10132 12.24C8.06335 12.3104 8.00429 12.3683 7.92835 12.4014C7.89039 12.4221 7.8482 12.4345 7.80601 12.4386C7.79757 12.4427 7.77648 12.4469 7.75961 12.4469ZM7.94101 15.9393V12.7655C7.97054 12.7573 8.00007 12.749 8.0296 12.7406L10.5102 16.2537L7.94101 15.9393ZM8.3207 12.5379C8.43883 12.4096 8.50632 12.24 8.50632 12.0538C8.50632 11.9214 8.47257 11.8014 8.40929 11.6938L10.2149 10.0304C10.3331 10.1049 10.4722 10.1504 10.6241 10.1504C10.6452 10.1504 10.6663 10.1504 10.6916 10.1462L11.2232 11.6648C10.9701 11.8138 10.8013 12.0869 10.8013 12.3973C10.8013 12.7531 11.0207 13.0552 11.3371 13.1835L10.7887 16.0262L8.3207 12.5379ZM12.7926 19.1089L11.0756 16.4399L11.6873 13.2496C11.759 13.2496 11.8265 13.2372 11.894 13.2206L13.5646 16.4275C13.3284 16.6055 13.1765 16.8827 13.1765 17.1972C13.1765 17.4868 13.3073 17.7475 13.514 17.9255L12.7926 19.1089ZM15.5896 20.3916L14.1131 20.7185L13.2651 19.5103L15.6613 18.9103L15.5896 20.3916ZM13.1765 19.1668L13.8219 18.1034C13.9274 18.1447 14.0456 18.1655 14.1679 18.1655C14.5983 18.1655 14.9611 17.8965 15.1002 17.5241L17.9269 17.9834L13.1765 19.1668ZM15.1551 17.1764C15.1509 16.982 15.0918 16.8041 14.9906 16.6551L16.6275 15.0951C16.7498 15.1696 16.8932 15.2151 17.0493 15.2151C17.1084 15.2151 17.1674 15.2068 17.2223 15.1945L18.4837 17.7103L15.1551 17.1764ZM18.7832 17.5158L17.5429 15.0414C17.7158 14.9006 17.8298 14.6855 17.8298 14.4496C17.8298 14.1806 17.6863 13.9448 17.4754 13.8041L18.3782 11.3586C18.4077 11.3627 18.4373 11.3669 18.4668 11.3669L19.2389 16.4482L18.7832 17.5158ZM19.5552 16.1751L18.8211 11.3173C19.1713 11.1931 19.4203 10.8662 19.4203 10.4773C19.4203 10.4442 19.4203 10.4111 19.4161 10.378L21.1795 9.81933L21.7701 14.7393L19.5552 16.1751Z"
    fill="var(--tbl--colors--icons--enrichment--people-data-labs)"
    stroke="var(--tbl--colors--icons--enrichment--people-data-labs)"
    stroke-width="0.325758"
    stroke-linejoin="round"
  />
</svg>
