<svg xmlns="http://www.w3.org/2000/svg" width="32" height="32" fill="none" viewBox="0 0 32 32">
  <path
    d="M30.7449 20.2145L29.8307 12.3504V12.3442V12.338C29.8307 12.3318 29.8307 12.3256 29.8307 12.3256C29.8307 12.3256 29.8307 12.3256 29.8307 12.3194C29.8307 12.3131 29.8307 12.3069 29.8245 12.3069V12.3007C29.8245 12.2945 29.8184 12.2883 29.8184 12.2883C29.8184 12.2883 29.8184 12.2883 29.8184 12.2821C29.8184 12.2759 29.8123 12.2759 29.8123 12.2697C29.8123 12.2635 29.8061 12.2635 29.8061 12.2573C29.8061 12.2573 29.8061 12.2511 29.8 12.2511C29.8 12.2449 29.7939 12.2449 29.7939 12.2387C29.7939 12.2387 29.7939 12.2387 29.7939 12.2325C29.7939 12.2263 29.7877 12.2263 29.7816 12.2201C29.7755 12.2138 29.7755 12.2138 29.7693 12.2076C29.7693 12.2076 29.7693 12.2076 29.7632 12.2014L29.7571 12.1952L23.5348 5.36152C23.5348 5.35532 23.5287 5.35532 23.5287 5.35532C23.5224 5.34291 23.5101 5.3367 23.4979 5.33049C23.4917 5.33049 23.4917 5.32428 23.4856 5.32428H23.4795C23.4733 5.31808 23.4733 5.31808 23.4672 5.31808C23.4611 5.31808 23.4611 5.31187 23.4549 5.31187C23.4488 5.31187 23.4427 5.30567 23.4365 5.30567C23.4304 5.30567 23.4243 5.29946 23.4243 5.29946H23.4181C23.412 5.29946 23.412 5.29946 23.4059 5.29946C23.4059 5.29946 23.4059 5.29946 23.3997 5.29946L9.50086 2.36984H9.49471C9.48244 2.36364 9.46403 2.36364 9.44561 2.36364C9.43948 2.36364 9.43335 2.36364 9.42721 2.36364C9.42108 2.36364 9.41494 2.36364 9.41494 2.36364C9.40267 2.36364 9.39653 2.36984 9.38426 2.36984C9.37812 2.36984 9.37199 2.37605 9.36584 2.37605C9.35358 2.37605 9.34744 2.38225 9.33516 2.38847H9.32903C9.3229 2.38847 9.31676 2.39467 9.31062 2.39467C9.30448 2.39467 9.29835 2.40088 9.29835 2.40088C9.29222 2.40708 9.28608 2.40708 9.27994 2.41329C9.2738 2.41949 9.26767 2.41949 9.26767 2.42571L9.26154 2.43191L1.40084 9.91112C1.3947 9.91732 1.3947 9.91732 1.38856 9.92353C1.38243 9.92975 1.38243 9.92975 1.38243 9.93595C1.38243 9.94215 1.3763 9.94215 1.3763 9.94836C1.37015 9.95456 1.36402 9.96077 1.36402 9.96697C1.36402 9.97319 1.35788 9.97319 1.35788 9.97939C1.35175 9.9856 1.35175 9.99801 1.3456 10.0042C1.3456 10.0104 1.33947 10.0104 1.33947 10.0166C1.33334 10.0228 1.33334 10.0352 1.33334 10.0415C1.33334 10.0477 1.33334 10.0477 1.33334 10.0539C1.33334 10.0601 1.33334 10.0601 1.33334 10.0663C1.33334 10.0725 1.33334 10.0787 1.33334 10.0849C1.33334 10.0911 1.33334 10.0973 1.33334 10.1035C1.33334 10.1097 1.33334 10.1159 1.33334 10.1222C1.33334 10.1284 1.33334 10.1346 1.33334 10.1408C1.33334 10.147 1.33334 10.1532 1.33334 10.1594C1.33334 10.1656 1.33334 10.1718 1.33947 10.178V10.1842L3.24788 17.6324V17.6448C3.24788 17.651 3.25402 17.6572 3.25402 17.6634C3.27243 17.7131 3.29698 17.7504 3.33994 17.7813C3.34607 17.7876 3.34607 17.7876 3.3522 17.7937C3.35834 17.8 3.36448 17.8 3.37062 17.8061C3.37675 17.8061 3.38288 17.8124 3.38288 17.8124C3.39516 17.8185 3.40743 17.8248 3.41356 17.8248C3.41971 17.8248 3.42584 17.831 3.43198 17.831C3.43811 17.831 3.44424 17.831 3.45039 17.8372H3.45652L6.57994 18.4641L9.64199 22.3185C9.64812 22.3247 9.65426 22.331 9.65426 22.3371C9.65426 22.3371 9.65425 22.3371 9.6604 22.3434C9.66654 22.3495 9.67267 22.3558 9.6788 22.3558C9.69722 22.3682 9.71563 22.3806 9.73403 22.393C9.74016 22.393 9.74016 22.3993 9.74631 22.3993C9.75244 22.3993 9.75244 22.4054 9.75858 22.4054C9.76471 22.4054 9.76471 22.4054 9.77085 22.4117C9.77699 22.4117 9.77699 22.4117 9.78312 22.4178C9.78926 22.4178 9.79539 22.4178 9.80154 22.4241C9.80767 22.4241 9.80767 22.4241 9.8138 22.4241C9.81994 22.4241 9.81993 22.4241 9.82608 22.4241L14.2443 22.9702L16.9565 27.3212C16.9688 27.3399 16.9811 27.3584 16.9995 27.3708C17.0056 27.3771 17.0056 27.3771 17.0117 27.3771C17.024 27.3895 17.0424 27.4019 17.0547 27.4082C17.0608 27.4082 17.0608 27.4143 17.0669 27.4143C17.0793 27.4206 17.0855 27.4206 17.0977 27.4267C17.1039 27.4267 17.11 27.433 17.1161 27.433C17.1223 27.433 17.1223 27.433 17.1284 27.433C17.1468 27.4391 17.1591 27.4391 17.1775 27.4391C17.1959 27.4391 17.2204 27.4391 17.2449 27.433C17.2695 27.4267 17.294 27.4143 17.3124 27.4019L17.3185 27.4143L18.7607 29.5308C18.8097 29.6053 18.8895 29.6426 18.9755 29.6426C18.9939 29.6426 19.0123 29.6426 19.0307 29.6364L21.5465 29.0653C21.6632 29.0405 21.7429 28.9412 21.7491 28.8171L21.8656 26.235L25.9587 25.1799H25.9648C25.9709 25.1799 25.9709 25.1799 25.9771 25.1799C25.9832 25.1799 25.9832 25.1799 25.9893 25.1737C26.0077 25.1675 26.0261 25.1613 26.0384 25.1488C26.0445 25.1488 26.0445 25.1426 26.0507 25.1426C26.0568 25.1426 26.0568 25.1364 26.0629 25.1364C26.0752 25.1302 26.0813 25.1178 26.0936 25.1115L26.0997 25.1054C26.112 25.093 26.1243 25.0743 26.1304 25.0558C26.1304 25.0558 26.1304 25.0495 26.1365 25.0495C26.1365 25.0434 26.1427 25.0371 26.1427 25.031L27.014 22.8958L30.6407 20.475C30.7143 20.413 30.7572 20.3137 30.7449 20.2145ZM29.1004 12.2573L26.6213 13.0642C26.3943 12.6545 25.9648 12.3814 25.4677 12.3814C25.4432 12.3814 25.4187 12.3814 25.394 12.3814L23.8661 6.50358L29.1004 12.2573ZM23.4733 18.5261C23.4304 18.52 23.3875 18.52 23.3445 18.52C22.9579 18.52 22.6143 18.7185 22.4056 19.0165L16.7663 16.7945C16.7785 16.7261 16.7847 16.658 16.7847 16.5835C16.7847 16.5524 16.7847 16.5213 16.7785 16.4965L24.2956 14.3242C24.4061 14.5414 24.5779 14.7276 24.7804 14.8517L23.4733 18.5261ZM24.0011 19.6745C24.0011 19.842 23.9397 19.991 23.8416 20.1089C23.7249 20.2454 23.5593 20.3324 23.3691 20.3448C23.3568 20.3448 23.3507 20.3448 23.3384 20.3448C23.2463 20.3448 23.1665 20.3261 23.0868 20.295C22.9211 20.2269 22.7861 20.0902 22.7248 19.9165C22.7001 19.8482 22.6879 19.78 22.6817 19.7054C22.6817 19.6993 22.6817 19.6869 22.6817 19.6806C22.6817 19.5006 22.7555 19.333 22.872 19.2089C22.9824 19.0972 23.1359 19.0228 23.3016 19.0104C23.3139 19.0104 23.3261 19.0104 23.3445 19.0104C23.5163 19.0104 23.6759 19.0785 23.7985 19.1904C23.9213 19.3082 24.0011 19.482 24.0011 19.6745ZM19.9879 22.6041C19.7547 22.4365 19.4663 22.3371 19.1533 22.3371C19.0123 22.3371 18.8711 22.3558 18.7423 22.3993L16.3123 17.5889C16.4165 17.5083 16.5024 17.4089 16.5761 17.2972L22.2155 19.5193C22.2093 19.5689 22.2032 19.6248 22.2032 19.6806C22.2032 19.8978 22.2645 20.0965 22.3627 20.2702L19.9879 22.6041ZM20.0739 23.7958C20.0739 23.9385 20.0432 24.0813 19.9817 24.2054C19.8345 24.5158 19.5155 24.733 19.1472 24.733C19.0675 24.733 18.9939 24.7206 18.914 24.7019C18.7361 24.6585 18.5827 24.5591 18.4661 24.4289C18.3127 24.2613 18.2207 24.0378 18.2207 23.7958C18.2207 23.5289 18.3311 23.2867 18.5091 23.1193C18.6379 22.995 18.7975 22.9145 18.9755 22.8771C19.0307 22.8647 19.0859 22.8585 19.1472 22.8585C19.3129 22.8585 19.4663 22.9019 19.6013 22.9765C19.7547 23.0634 19.8836 23.1937 19.9633 23.355C20.0124 23.4543 20.0493 23.5599 20.0616 23.6778C20.0739 23.715 20.0739 23.7523 20.0739 23.7958ZM16.2877 16.5896C16.2877 16.7883 16.214 16.962 16.0975 17.0985C16.0913 17.1048 16.0852 17.111 16.0791 17.1172C15.9624 17.2413 15.8152 17.3283 15.6433 17.3531L15.6372 17.3965L15.6188 17.3593C15.5881 17.3655 15.5575 17.3655 15.5207 17.3655C15.3795 17.3655 15.2445 17.3283 15.1279 17.26C14.9008 17.1235 14.7475 16.8752 14.7475 16.5896C14.7475 16.3476 14.8579 16.1241 15.0359 15.9813C15.1647 15.8759 15.3365 15.8076 15.5207 15.8076C15.5268 15.8076 15.5268 15.8076 15.5329 15.8076C15.6004 15.8076 15.6617 15.82 15.7231 15.8324C15.8949 15.882 16.0423 15.9876 16.1465 16.1304L16.1649 16.1241L16.1527 16.1365C16.2324 16.2731 16.2877 16.4283 16.2877 16.5896ZM16.0177 15.4165C15.8643 15.3483 15.6985 15.3111 15.5207 15.3111C15.4716 15.3111 15.4163 15.3172 15.3672 15.3235L14.594 13.0456C14.8947 12.8469 15.0972 12.5056 15.0972 12.1145C15.0972 12.0463 15.0911 11.9718 15.0788 11.9035L19.5584 9.81802C19.6136 9.90491 19.6811 9.9794 19.7485 10.0539L16.0177 15.4165ZM13.0477 12.6545L10.5318 15.0441L13.287 8.28494L13.2993 8.2539L13.3054 8.28494L13.6184 11.078C13.2011 11.2332 12.9065 11.6366 12.9065 12.1145C12.9065 12.3131 12.9618 12.4931 13.0477 12.6545ZM19.3375 9.34009L14.8579 11.4256C14.6861 11.2083 14.4345 11.0594 14.1461 11.0221L13.8331 8.22907C14.0847 8.13598 14.2933 7.94355 14.4161 7.7015L19.2945 8.83113C19.2945 8.86217 19.2945 8.8932 19.2945 8.92424C19.2823 9.06699 19.3007 9.20354 19.3375 9.34009ZM13.9743 7.38494C13.9497 7.45322 13.9129 7.51529 13.87 7.57115C13.8392 7.60839 13.8085 7.63322 13.7717 7.66425C13.6797 7.72633 13.5753 7.76357 13.4588 7.76357C13.287 7.76357 13.1336 7.68287 13.0293 7.55874C12.9495 7.45942 12.9065 7.3415 12.9065 7.20495C12.9065 7.13668 12.9188 7.0746 12.9433 7.01253C13.0047 6.83875 13.152 6.7022 13.3361 6.66495C13.3791 6.65255 13.422 6.65254 13.4649 6.65254C13.6429 6.65254 13.8024 6.73944 13.9007 6.86979C13.9436 6.92564 13.9743 6.99392 13.9988 7.0622C14.0111 7.11185 14.0172 7.1615 14.0172 7.21116C13.9988 7.26701 13.9927 7.32909 13.9743 7.38494ZM13.6797 11.5745C13.7717 11.5187 13.8884 11.4814 14.0049 11.4814C14.0724 11.4814 14.14 11.4938 14.2013 11.5125C14.2811 11.5373 14.3547 11.5808 14.4161 11.6304C14.5511 11.7483 14.6369 11.9159 14.6369 12.1145C14.6369 12.2945 14.5633 12.4559 14.4407 12.5738C14.3301 12.6794 14.1768 12.7476 14.0111 12.7476C13.9927 12.7476 13.9681 12.7476 13.9497 12.7414C13.8884 12.7352 13.8331 12.7228 13.7779 12.698C13.6123 12.6297 13.4772 12.4869 13.422 12.3131C13.4036 12.2511 13.3913 12.1828 13.3913 12.1083C13.3729 11.8849 13.4956 11.6801 13.6797 11.5745ZM20.1781 10.358C20.3868 10.4573 20.6139 10.5132 20.8593 10.5132C21.1907 10.5132 21.4975 10.4077 21.7552 10.2277L24.3877 12.9587C24.2404 13.1759 24.1545 13.4304 24.1545 13.7159C24.1545 13.7531 24.1545 13.7842 24.1607 13.8214L16.6436 15.9937C16.5945 15.8945 16.5269 15.8013 16.4533 15.7207L20.1781 10.358ZM19.8529 8.91802C19.8529 8.74424 19.8959 8.58285 19.9695 8.44011C20.1413 8.11735 20.4727 7.90011 20.8593 7.90011C21.4116 7.90011 21.8656 8.3532 21.8656 8.91802C21.8656 9.11045 21.8165 9.28423 21.7245 9.43939C21.6324 9.59458 21.5036 9.71871 21.3501 9.8056C21.2029 9.88629 21.0372 9.93595 20.8593 9.93595C20.7365 9.93595 20.62 9.91732 20.5156 9.87388C20.1843 9.74975 19.9327 9.45182 19.8713 9.09182C19.8652 9.04837 19.8591 9.00493 19.8591 8.96148C19.8529 8.94906 19.8529 8.93665 19.8529 8.91802ZM24.7804 14.1938C24.6884 14.0573 24.6393 13.8959 24.6393 13.7159C24.6393 13.7035 24.6393 13.6911 24.6393 13.6849C24.6455 13.5545 24.6761 13.4366 24.7313 13.3249C24.7988 13.1945 24.8971 13.0828 25.0197 13.0083C25.0504 12.9897 25.0749 12.9711 25.1056 12.9587C25.2161 12.9028 25.3388 12.8718 25.4739 12.8718C25.4923 12.8718 25.5107 12.8718 25.5229 12.8718C25.7807 12.8842 26.0077 13.0207 26.1488 13.2194C26.2471 13.3621 26.3084 13.5297 26.3084 13.7159V13.7221C26.3084 14.0511 26.1181 14.3366 25.8481 14.4731C25.7377 14.529 25.6088 14.56 25.4739 14.56C25.4677 14.56 25.4555 14.56 25.4493 14.56C25.4063 14.56 25.3695 14.5538 25.3327 14.5476C25.1916 14.5228 25.0627 14.4669 24.9584 14.38C24.8909 14.3304 24.8295 14.2621 24.7804 14.1938ZM24.8909 12.518C24.8417 12.5428 24.7988 12.5676 24.7559 12.5925L22.1295 9.86147C22.3197 9.60078 22.4363 9.27182 22.4363 8.91802C22.4363 8.03666 21.7307 7.32288 20.8593 7.32288C20.2027 7.32288 19.6381 7.73253 19.4049 8.30976L14.8027 7.2422L23.1543 5.83945L24.8909 12.518ZM21.9209 5.51049L14.4345 6.77047C14.2688 6.38565 13.8884 6.11255 13.4465 6.11255C13.2686 6.11255 13.0968 6.15599 12.9495 6.23669L10.1636 3.04638L21.9209 5.51049ZM9.57448 3.17673L12.5568 6.59047C12.4402 6.76427 12.3665 6.97529 12.3665 7.20495C12.3665 7.56494 12.5383 7.88149 12.8022 8.08011L9.98563 14.9883C9.9304 14.982 9.88131 14.9759 9.82608 14.9759C9.74631 14.9759 9.66654 14.982 9.5929 15.0007L8.21222 12.1952C8.56812 11.9283 8.80131 11.4938 8.80131 11.0097C8.80131 10.4139 8.45152 9.89871 7.94835 9.66906L9.57448 3.17673ZM7.9729 11.6987C7.84403 11.8166 7.68448 11.9035 7.50652 11.9345C7.4513 11.9469 7.40222 11.9469 7.34698 11.9469C7.26722 11.9469 7.18744 11.9345 7.1138 11.9159C6.93584 11.8725 6.78243 11.7732 6.66584 11.6428C6.53698 11.5063 6.45107 11.3263 6.42652 11.1277C6.42039 11.0904 6.42039 11.047 6.42039 11.0035C6.42039 10.8608 6.45107 10.7242 6.5063 10.6063C6.64743 10.2959 6.95426 10.0787 7.31016 10.0663C7.32244 10.0663 7.33471 10.0663 7.34698 10.0663C7.5188 10.0663 7.67835 10.1159 7.81948 10.1966C8.08948 10.358 8.27358 10.6621 8.27358 11.0035C8.26744 11.2828 8.15699 11.5311 7.9729 11.6987ZM8.97312 3.44362L7.44516 9.54491C7.41448 9.54491 7.37767 9.53871 7.34698 9.53871C6.7088 9.53871 6.1688 9.95456 5.9663 10.5318L2.14947 9.92975L8.97312 3.44362ZM1.92856 10.4263L5.88039 11.047C5.89266 11.4752 6.0829 11.8601 6.38358 12.1207L3.58539 16.8876L1.92856 10.4263ZM6.83152 12.4001C6.99107 12.4621 7.1629 12.4932 7.34084 12.4932C7.48199 12.4932 7.61699 12.4745 7.74584 12.4373L9.12654 15.2428C8.89335 15.4415 8.74607 15.7393 8.73994 16.0683L4.02107 17.1731L6.83152 12.4001ZM4.73288 17.5455L8.51903 16.658L6.65358 17.9304L4.73288 17.5455ZM9.56835 21.3937L7.08926 18.2717L9.10199 16.8937C9.23086 17.0117 9.39039 17.0985 9.56835 17.1483V21.3937ZM9.83222 16.6704C9.74016 16.6704 9.64812 16.6455 9.56835 16.6083L9.5438 16.5959C9.48244 16.5585 9.42722 16.5152 9.37812 16.4593C9.31062 16.3724 9.26154 16.2731 9.24926 16.1552C9.24312 16.1304 9.24312 16.1055 9.24312 16.0807C9.24312 16.0311 9.24926 15.9876 9.26154 15.9441C9.27994 15.8635 9.31676 15.7952 9.35971 15.7269C9.4579 15.5965 9.61131 15.5035 9.78312 15.4911L9.80154 15.4415L9.82608 15.4911C9.89357 15.4911 9.96108 15.5035 10.0224 15.5283C10.1145 15.5655 10.2004 15.6213 10.2618 15.6959C10.317 15.758 10.3538 15.8324 10.3783 15.9131C10.3968 15.9689 10.4029 16.0248 10.4029 16.0807C10.4029 16.18 10.3783 16.2793 10.3293 16.36C10.274 16.4655 10.1881 16.5524 10.0777 16.602C10.0224 16.6331 9.96108 16.6517 9.89971 16.658C9.88744 16.6641 9.85676 16.6704 9.83222 16.6704ZM10.0961 21.9089V17.1483C10.139 17.1359 10.182 17.1235 10.2249 17.111L13.8331 22.3806L10.0961 21.9089ZM10.6483 16.8069C10.8202 16.6145 10.9183 16.36 10.9183 16.0807C10.9183 15.882 10.8693 15.702 10.7772 15.5407L13.4036 13.0456C13.5755 13.1573 13.7779 13.2256 13.9988 13.2256C14.0295 13.2256 14.0601 13.2256 14.0969 13.2194L14.8701 15.4972C14.502 15.7207 14.2565 16.1304 14.2565 16.5959C14.2565 17.1296 14.5756 17.5828 15.0359 17.7752L14.2381 22.0393L10.6483 16.8069ZM17.1529 26.6634L14.6555 22.6599L15.5452 17.8745C15.6495 17.8745 15.7477 17.8558 15.8459 17.831L18.2759 22.6413C17.9323 22.9082 17.7113 23.3241 17.7113 23.7958C17.7113 24.2302 17.9016 24.6213 18.2023 24.8882L17.1529 26.6634ZM21.2213 28.5875L19.0736 29.0777L17.8401 27.2654L21.3256 26.3654L21.2213 28.5875ZM17.7113 26.7502L18.6501 25.155C18.8036 25.2171 18.9755 25.2482 19.1533 25.2482C19.7793 25.2482 20.3071 24.8447 20.5095 24.2861L24.6209 24.975L17.7113 26.7502ZM20.5893 23.7647C20.5832 23.473 20.4972 23.2061 20.35 22.9826L22.7309 20.6426C22.9088 20.7545 23.1175 20.8226 23.3445 20.8226C23.4304 20.8226 23.5163 20.8102 23.5961 20.7917L25.4309 24.5654L20.5893 23.7647ZM25.8665 24.2737L24.0624 20.562C24.314 20.351 24.4797 20.0282 24.4797 19.6745C24.4797 19.271 24.2711 18.9172 23.9643 18.7061L25.2775 15.038C25.3204 15.0441 25.3633 15.0504 25.4063 15.0504L26.5293 22.6723L25.8665 24.2737ZM26.9895 22.2626L25.9217 14.9759C26.4311 14.7896 26.7932 14.2993 26.7932 13.7159C26.7932 13.6662 26.7932 13.6166 26.7871 13.5669L29.352 12.729L30.2111 20.1089L26.9895 22.2626Z"
    fill="var(--tbl--ui-node-icon--enrichment--people-data-labs)"
    stroke="var(--tbl--ui-node-icon--enrichment--people-data-labs)"
    stroke-width="0.325758"
    stroke-linejoin="round"
  />
</svg>
