<svg xmlns="http://www.w3.org/2000/svg" width="24" height="24" fill="none" viewBox="0 0 24 24">
  <path
    fill="var(--tbl--colors--icons--clean--secondary)"
    fill-rule="evenodd"
    d="M12 4C12 2.89543 11.1046 2 10 2H4C2.89543 2 2 2.89543 2 4V20C2 21.1046 2.89543 22 4 22L10 22C10.3566 22 10.6914 21.9067 10.9813 21.7431C7.54034 20.8485 5 17.7209 5 14C5 9.92038 8.05369 6.55399 12 6.06189V4Z"
    clip-rule="evenodd"
  />
  <path
    fill="var(--tbl--colors--icons--clean--primary)"
    fill-rule="evenodd"
    d="M13 22C17.4183 22 21 18.4183 21 14C21 9.58172 17.4183 6 13 6C8.58172 6 5 9.58172 5 14C5 18.4183 8.58172 22 13 22ZM12 11C12 10.4477 12.4477 10 13 10C13.5523 10 14 10.4477 14 11V13H16C16.5523 13 17 13.4477 17 14C17 14.5523 16.5523 15 16 15H14V17C14 17.5523 13.5523 18 13 18C12.4477 18 12 17.5523 12 17V15H10C9.44772 15 9 14.5523 9 14C9 13.4477 9.44772 13 10 13H12V11Z"
    clip-rule="evenodd"
  />
</svg>
