<svg xmlns="http://www.w3.org/2000/svg" width="24" height="24" fill="none" viewBox="0 0 24 24">
  <path fill="var(--tbl--colors--icons--clean--secondary)" fill-rule="evenodd" d="M11 4a2 2 0 0 0-2-2H5a2 2 0 0 0-2 2v15a2 2 0 0 0 2 2h4c.293 0 .571-.063.822-.176A8.003 8.003 0 0 1 11 6.582V4Z" clip-rule="evenodd"/>
  <path fill="var(--tbl--colors--icons--clean--primary)" fill-rule="evenodd" d="M14 22a8 8 0 1 0 0-16 8 8 0 0 0 0 16Zm-1-11a1 1 0 1 1 2 0v2h2a1 1 0 1 1 0 2h-2v2a1 1 0 1 1-2 0v-2h-2a1 1 0 1 1 0-2h2v-2Z" clip-rule="evenodd"/>
</svg>
