<svg xmlns="http://www.w3.org/2000/svg" width="32" height="32" fill="none" viewBox="0 0 32 32">
  <path fill="var(--tbl--colors--icons--clean--secondary)" fill-rule="evenodd" d="M17 6a3 3 0 0 0-3-3H8a3 3 0 0 0-3 3v20a3 3 0 0 0 3 3h6c.109 0 .216-.006.322-.017A9.004 9.004 0 0 1 17 13.513V6Z" clip-rule="evenodd"/>
  <path fill="var(--tbl--colors--icons--clean--primary)" fill-rule="evenodd" d="M20 31a9 9 0 1 0 0-18 9 9 0 0 0 0 18Zm-1-12a1 1 0 1 1 2 0v2h2a1 1 0 1 1 0 2h-2v2a1 1 0 1 1-2 0v-2h-2a1 1 0 1 1 0-2h2v-2Z" clip-rule="evenodd"/>
</svg>
