<svg xmlns="http://www.w3.org/2000/svg" width="24" height="24" fill="none" viewBox="0 0 24 24">
  <path
    d="M20.3788 2.04422C19.2439 2.04422 18.1091 2.04422 16.9889 2.02948C14.675 2.02948 12.3758 2.01474 10.0619 2.01474C8.19013 2.01474 6.31835 2 4.46131 2H3.68018C2.78113 2.01474 2.05895 2.73692 2.04422 3.63596C2.04422 4.77082 2.04422 5.90567 2.02948 7.02579C2.02948 9.33972 2.01474 11.6389 2.01474 13.9528C2.01474 15.8099 2 17.6817 2 19.5387V20.3198C2.01474 21.2189 2.73692 21.941 3.63596 21.9558C4.77082 21.9558 5.90567 21.9558 7.02579 21.9705C9.33972 21.9705 11.6389 21.9853 13.9528 21.9853C15.8099 21.9853 17.6817 22 19.5387 22H20.3198C21.2189 21.9853 21.941 21.2631 21.9558 20.364C21.9558 19.2292 21.9558 18.0943 21.9705 16.9742C21.9705 14.6603 21.9853 12.3611 21.9853 10.0472C21.9853 8.19013 22 6.31835 22 4.46131V3.68018C22 2.78113 21.2778 2.05895 20.3788 2.04422ZM4.84451 14.9108V10.8283H7.21739C8.29329 10.8283 8.94178 11.4768 8.94178 12.5527V14.9256L4.84451 14.9108ZM12.5232 18.9786C12.2432 19.5682 11.4768 20.0545 10.7841 20.084H10.7546L8.58806 20.0103L16.2078 3.91599H19.5387L12.5232 18.9786Z"
    fill="var(--tbl--ui-node-icon--enrichment--kickbox)"
  />
</svg>
