<svg width="16" height="16" viewBox="0 0 16 16" fill="none" xmlns="http://www.w3.org/2000/svg">
  <path
    d="M13.8651 1.03095C13.0707 1.03095 12.2763 1.03095 11.4923 1.02063C9.87251 1.02063 8.26308 1.01032 6.64333 1.01032C5.33309 1.01032 4.02284 1 2.72292 1H2.17612C1.54679 1.01032 1.04127 1.51584 1.03095 2.14517C1.03095 2.93957 1.03095 3.73397 1.02063 4.51805C1.02063 6.1378 1.01032 7.74724 1.01032 9.36699C1.01032 10.6669 1 11.9772 1 13.2771V13.8239C1.01032 14.4532 1.51584 14.9587 2.14517 14.969C2.93957 14.969 3.73397 14.969 4.51805 14.9794C6.1378 14.9794 7.74724 14.9897 9.36699 14.9897C10.6669 14.9897 11.9772 15 13.2771 15H13.8239C14.4532 14.9897 14.9587 14.4842 14.969 13.8548C14.969 13.0604 14.969 12.266 14.9794 11.4819C14.9794 9.8622 14.9897 8.25276 14.9897 6.63301C14.9897 5.33309 15 4.02284 15 2.72292V2.17612C15 1.54679 14.4945 1.04127 13.8651 1.03095ZM2.99116 10.0376V7.17981H4.65217C5.40531 7.17981 5.85925 7.63375 5.85925 8.38688V10.0479L2.99116 10.0376ZM8.36625 12.885C8.17023 13.2977 7.63375 13.6382 7.14886 13.6588H7.12822L5.61164 13.6072L10.9455 2.34119H13.2771L8.36625 12.885Z"
    fill="var(--tbl--ui-node-icon--enrichment--kickbox)"
  />
</svg>
