<svg xmlns="http://www.w3.org/2000/svg" width="24" height="24" fill="none" viewBox="0 0 24 24">
  <path
    d="M11.853 2.28825C11.3243 2.33325 10.0343 2.55525 9.69 2.65575C9.6285 2.67525 9.3675 2.75025 9.11925 2.829C6.86025 3.5055 4.743 5.004 3.40725 6.8685C2.54925 8.067 1.98675 9.2955 1.69575 10.626C1.52325 11.3993 1.49625 11.6813 1.50075 12.6735C1.5045 13.7325 1.56525 14.2095 1.80675 15.0323C2.02338 15.8084 2.35236 16.5488 2.78325 17.2298C3.69825 18.7223 4.73925 19.7325 6.2055 20.5598C7.31843 21.188 8.54621 21.5864 9.816 21.7313C10.4513 21.8063 11.7075 21.7838 12.2933 21.6938C14.1308 21.4043 15.7845 20.6678 17.328 19.4543C17.856 19.0344 18.3524 18.5762 18.813 18.0833C19.0125 17.8763 19.2113 17.6888 19.257 17.6663C19.2998 17.6438 19.5713 17.5425 19.8547 17.4443C20.4975 17.223 21.198 16.8998 21.6 16.6365C22.0065 16.3703 22.5878 15.7913 22.806 15.4343C23.0858 14.9798 23.1585 14.7578 23.1623 14.3445C23.166 14.0258 23.1547 13.965 23.0588 13.7738C22.845 13.3418 22.3778 13.0598 21.8835 13.056C21.4358 13.056 21.087 13.233 20.9228 13.5368L20.8305 13.7138L20.5095 13.6875C20.1345 13.6613 19.548 13.5225 19.2645 13.395C18.8895 13.2255 18.6293 12.921 18.6293 12.6465C18.6293 12.5415 18.6713 12.4815 18.924 12.2445C19.2803 11.9145 20.7195 10.9635 20.8688 10.9635C20.8808 10.9635 20.8883 10.9898 20.8883 11.0235C20.8883 11.121 21.1297 11.328 21.2902 11.373C21.5122 11.433 21.6923 11.4255 21.9413 11.3393C22.251 11.2343 22.4423 11.1143 22.6763 10.8885C23.0588 10.509 23.2238 10.0508 23.2238 9.3705C23.2238 9.1485 23.2013 8.89725 23.166 8.769C23.0288 8.2545 22.596 7.68 22.1018 7.35675C21.8948 7.22175 21.861 7.17675 21.7493 6.9285C21.4358 6.222 21.0608 5.71875 20.2943 4.99725C19.4528 4.197 18.369 3.53925 17.1053 3.0585C15.4365 2.4195 13.5488 2.142 11.853 2.28825ZM14.073 3.35925C14.3378 3.38925 14.82 3.4755 15.1455 3.5505C17.0408 3.975 18.6292 4.77525 19.7745 5.88375C20.0572 6.16125 20.559 6.7515 20.5282 6.7815C20.4068 6.75326 20.2866 6.71948 20.1683 6.68025C19.7475 6.54525 19.1963 6.44775 19.0583 6.47775C18.9007 6.51525 18.8205 6.60525 18.8205 6.73275C18.8243 6.94725 18.8625 6.96975 19.491 7.11225C20.3333 7.30425 21.252 7.77375 21.7185 8.247C22.0635 8.5965 22.236 8.9535 22.2585 9.35925C22.278 9.72375 22.182 10.0283 21.9795 10.242L21.8565 10.3733L21.612 10.3058C21.4245 10.2533 21.2445 10.2345 20.85 10.2383C20.0497 10.242 19.2728 10.3928 17.7105 10.8585C17.3618 10.9598 16.7955 11.1285 16.4468 11.2305C14.3798 11.8425 12.7643 12.132 11.7608 12.0683C11.2673 12.0383 11.271 12.027 11.8755 11.79C12.3885 11.5875 12.5078 11.4375 12.2895 11.268C12.1553 11.163 12.0023 11.1705 11.6385 11.2868C11.1788 11.433 10.827 11.6288 10.566 11.8838C9.7395 12.6915 9.8775 13.9538 10.842 14.4315C11.1143 14.5628 11.2208 14.5815 11.355 14.514C11.451 14.4653 11.4698 14.4315 11.4698 14.3265C11.4698 14.2095 11.4473 14.1758 11.2898 14.0708C10.995 13.8713 10.773 13.6575 10.7003 13.4993C10.6125 13.3155 10.5968 12.8423 10.6778 12.8423C10.7078 12.8423 11.0033 13.0035 11.3325 13.1993C13.0013 14.1833 14.1998 14.604 16.0448 14.856C16.65 14.9423 18.051 14.9498 18.687 14.8748C19.6553 14.7623 20.4668 14.5628 21.2895 14.232C21.8295 14.0183 21.9255 14.007 22.0747 14.1495C22.2743 14.3483 22.2097 14.5815 21.8183 15.0585C21.0413 16.002 19.6785 16.671 17.7683 17.046C16.7955 17.2335 16.5503 17.256 15.3368 17.256C14.1383 17.256 13.6755 17.208 12.978 17.0123C12.6225 16.911 12.4463 16.9148 12.3735 17.0198C12.3404 17.0625 12.3192 17.1132 12.312 17.1668C12.312 17.2493 12.4845 17.4518 12.5723 17.4743C12.6068 17.4855 12.7178 17.5118 12.8213 17.538C12.921 17.565 13.0013 17.595 13.0013 17.61C13.0013 17.6438 12.4043 17.7525 11.9483 17.805C11.4623 17.8613 10.4055 17.8275 9.996 17.745C9.52875 17.6513 9.03075 17.475 8.70975 17.2943C8.33025 17.0798 8.2575 17.0618 8.12775 17.163C7.89375 17.3468 8.05125 17.6025 8.57925 17.895C9.138 18.207 9.83475 18.3878 10.7003 18.4403C11.7608 18.504 12.6495 18.3953 13.7483 18.0533L14.1308 17.937L15.0758 17.9325C15.597 17.9325 16.011 17.9438 15.9953 17.9595C15.9458 18.0045 15.0113 18.354 14.4563 18.534C12.27 19.2368 11.313 19.6425 10.2713 20.3153L9.747 20.6528L9.4095 20.5965C7.767 20.319 6.18675 19.5218 5.04525 18.399L4.68525 18.0495L4.8315 17.9333C5.2755 17.5913 5.838 17.016 5.9565 16.7873C6.05625 16.5923 6.1485 16.2233 6.1485 16.0133C6.14475 15.5168 5.70375 15.1493 5.283 15.2843C5.18325 15.318 4.9305 15.528 4.45575 15.9833C4.077 16.3433 3.74775 16.6365 3.72075 16.6365C3.675 16.6365 3.48375 16.3365 3.3 15.9683L3.20025 15.7733L3.90075 15.0848C4.5285 14.4765 4.62075 14.3678 4.74675 14.1158C4.866 13.8833 4.89225 13.7888 4.88925 13.605C4.88925 13.3418 4.839 13.1993 4.701 13.056C4.491 12.8385 4.203 12.7785 3.95475 12.9023C3.88575 12.936 3.57525 13.2098 3.26475 13.5105C2.94 13.8263 2.68725 14.0445 2.66775 14.022C2.54925 13.8975 2.511 12.2258 2.61075 11.568C2.90925 9.56175 3.74775 7.90125 5.19825 6.432C5.4705 6.15825 5.84175 5.80875 6.018 5.658C7.683 4.257 9.774 3.4605 12.255 3.28425C12.5918 3.26175 13.5788 3.29925 14.073 3.35925ZM12.9098 19.947C12.81 20.052 12.6683 20.2395 12.5955 20.3595C12.4425 20.6003 12.4538 20.5965 11.9295 20.6528C11.2635 20.7278 11.202 20.7353 11.202 20.7165C11.202 20.6303 12.8595 19.7738 13.0508 19.7588C13.0703 19.755 13.0058 19.8413 12.9098 19.9463V19.947Z"
    fill="var(--tbl--ui-node-icon--enrichment--muraena)"
  />
  <path
    d="M7.94549 5.475C7.78424 5.523 7.68149 5.5875 7.22174 5.92125C6.05024 6.774 5.85899 7.011 6.01199 7.413C6.13424 7.725 6.45974 7.84875 6.76949 7.698C6.86174 7.6575 7.09949 7.49175 7.29824 7.3305C7.49699 7.1685 7.84949 6.8985 8.07974 6.729C8.56199 6.369 8.63849 6.279 8.63849 6.03825C8.63849 5.6775 8.27099 5.37675 7.94549 5.47425V5.475ZM13.62 6.624C13.0537 6.744 12.591 7.176 12.3877 7.77C12.3187 7.96875 12.3075 8.0775 12.3187 8.37075C12.33 8.679 12.3487 8.76525 12.4567 8.98725C12.6142 9.31725 12.7897 9.528 13.0462 9.69375C13.3642 9.9 13.6432 9.98625 13.9912 9.98625C14.5087 9.98625 14.9377 9.81375 15.2632 9.47175C15.6997 9.01725 15.8452 8.4915 15.6997 7.89C15.546 7.25925 15.114 6.819 14.4592 6.62775C14.2102 6.5565 13.9485 6.5565 13.62 6.624ZM14.115 7.413C14.49 7.60425 14.4472 8.157 14.049 8.292C13.8502 8.3595 13.7122 8.32575 13.5442 8.16075C13.4175 8.037 13.4137 8.02125 13.4287 7.82625C13.4595 7.44675 13.7895 7.251 14.115 7.413ZM4.65374 8.34075C4.27499 8.59275 3.73874 9.6375 3.42449 10.734C3.29474 11.1998 3.28724 11.2943 3.39074 11.493C3.53174 11.76 3.79574 11.8538 4.06424 11.73C4.27424 11.6325 4.37849 11.475 4.50074 11.0648C4.72649 10.3283 4.85324 10.0013 5.12099 9.47175C5.42324 8.8635 5.45399 8.7465 5.35424 8.56275C5.20499 8.28525 4.89149 8.18325 4.65374 8.34075ZM19.68 8.841C19.5502 8.96475 19.5465 9.2235 19.6725 9.3405C19.8645 9.51675 20.2357 9.3855 20.2357 9.141C20.2357 8.814 19.89 8.63025 19.68 8.841ZM20.9062 8.841C20.784 8.95725 20.7765 9.18225 20.8912 9.3255C21.0022 9.46425 21.2362 9.46425 21.366 9.3255C21.477 9.20925 21.4845 9.093 21.4035 8.93475C21.297 8.72775 21.0637 8.68275 20.9062 8.841Z"
    fill="var(--tbl--ui-node-icon--enrichment--muraena)"
  />
</svg>
