<svg xmlns="http://www.w3.org/2000/svg" width="32" height="32" fill="none" viewBox="0 0 32 32">
  <path fill="var(--tbl--colors--brand--postgres)" d="M17.242 1c-.961.007-1.917.143-2.84.403l-.065.02c-.582-.1-1.171-.155-1.762-.165-1.214-.02-2.258.266-3.099.742-.828-.279-2.548-.76-4.36-.664-1.261.067-2.639.439-3.659 1.484C.44 3.865-.098 5.482.015 7.682c.03.607.21 1.597.505 2.88.296 1.281.711 2.782 1.23 4.151.518 1.37 1.086 2.6 1.974 3.436.443.42 1.053.771 1.773.742.505-.02.961-.235 1.355-.552.192.245.397.352.583.451.235.125.464.21.701.266.426.103 1.155.241 2.008.1a3.88 3.88 0 0 0 .902-.27c.011.33.025.653.038.98.043 1.036.07 1.993.39 2.832.051.137.193.843.75 1.466.556.624 1.646 1.013 2.889.755.876-.182 1.99-.51 2.73-1.532.732-1.01 1.062-2.459 1.127-4.809.016-.127.036-.235.056-.336l.175.015h.02c.935.041 1.95-.088 2.797-.47.75-.337 1.318-.678 1.731-1.283.103-.15.217-.33.248-.643.03-.312-.154-.8-.46-1.025-.613-.452-.999-.28-1.412-.197a6.649 6.649 0 0 1-1.24.146c1.192-1.947 2.047-4.015 2.534-5.845.289-1.08.45-2.076.464-2.947.014-.871-.06-1.642-.598-2.309-1.68-2.084-4.044-2.66-5.873-2.68-.057-.001-.113-.002-.17-.001V1Zm-.048.64c1.73-.016 3.94.455 5.526 2.422.356.442.462 1.088.45 1.884-.013.795-.165 1.747-.442 2.79-.538 2.02-1.555 4.375-2.986 6.488.05.035.105.064.162.086.3.12.98.223 2.34-.048.343-.07.593-.117.853.075a.521.521 0 0 1 .188.425.691.691 0 0 1-.134.336c-.262.383-.78.746-1.446 1.045-.588.266-1.432.405-2.18.413-.376.004-.722-.024-1.016-.113l-.019-.007c-.113 1.06-.374 3.153-.544 4.108-.136.77-.374 1.382-.829 1.84-.453.458-1.095.734-1.96.914-1.07.223-1.85-.017-2.352-.428-.502-.41-.732-.954-.87-1.287-.095-.23-.145-.528-.192-.926a19.705 19.705 0 0 1-.106-1.434 49.942 49.942 0 0 1-.031-2.523 3.195 3.195 0 0 1-1.6.76c-.71.117-1.344.002-1.722-.09a2.396 2.396 0 0 1-.536-.2c-.176-.092-.343-.195-.454-.398a.546.546 0 0 1-.059-.38.61.61 0 0 1 .225-.332c.204-.16.474-.25.881-.333.742-.148 1-.249 1.158-.37.134-.104.285-.314.553-.622a1.114 1.114 0 0 1-.003-.04 3.123 3.123 0 0 1-1.37-.359 44.38 44.38 0 0 0-1.907 2.092c-.406.47-.853.74-1.325.76-.472.02-.899-.212-1.262-.553-.724-.683-1.302-1.858-1.807-3.186-.503-1.328-.912-2.807-1.202-4.067C.884 9.122.712 8.106.687 7.616c-.108-2.082.394-3.485 1.254-4.37.862-.885 2.043-1.22 3.195-1.284 2.066-.115 4.029.584 4.426.734.765-.504 1.75-.818 2.98-.798a7.838 7.838 0 0 1 1.733.218l.021-.009c.25-.085.504-.157.762-.214.7-.158 1.416-.243 2.135-.251V1.64Zm.156.67h-.15a9.273 9.273 0 0 0-1.757.192 7.688 7.688 0 0 1 2.938 2.25 8.388 8.388 0 0 1 1.167 1.92c.113.264.19.487.233.66.021.087.036.16.041.236a.426.426 0 0 1-.012.144c0 .003-.005.01-.006.013.03.876-.193 1.47-.22 2.306-.02.606.14 1.318.178 2.095.037.73-.053 1.532-.542 2.32.041.047.078.095.118.143 1.292-1.975 2.224-4.16 2.72-6.023.267-1.003.408-1.912.42-2.632.01-.72-.128-1.242-.304-1.46-1.383-1.716-3.255-2.153-4.824-2.165v.001Zm-4.937.256c-1.218.003-2.093.36-2.755.895-.684.553-1.142 1.31-1.443 2.085-.358.92-.48 1.81-.53 2.414l.014-.008c.368-.2.852-.4 1.37-.516.517-.115 1.074-.15 1.58.04.504.19.922.636 1.073 1.314.726 3.257-.225 4.468-.576 5.382a9.44 9.44 0 0 0-.341 1.013c.044-.01.089-.022.133-.026.247-.02.441.06.556.108.353.142.595.44.726.78.034.09.059.185.073.284.016.04.023.084.021.127a53.493 53.493 0 0 0 .013 3.738c.024.538.06 1.012.103 1.386.045.373.108.657.148.753.132.32.325.74.673 1.024.348.284.848.474 1.761.284.792-.165 1.28-.394 1.607-.723.326-.329.521-.787.646-1.488.186-1.05.561-4.095.607-4.668-.02-.432.045-.764.187-1.017.147-.26.374-.419.57-.505.097-.043.19-.072.264-.093a6.024 6.024 0 0 0-.25-.325 4.431 4.431 0 0 1-.687-1.099 8.228 8.228 0 0 0-.264-.483c-.138-.24-.31-.54-.492-.877-.363-.675-.758-1.493-.963-2.29-.204-.796-.234-1.62.29-2.2.463-.517 1.278-.731 2.5-.61-.036-.106-.057-.193-.118-.333a7.772 7.772 0 0 0-1.073-1.764c-1.036-1.285-2.713-2.559-5.304-2.6h-.12v-.002Zm-6.846.052c-.131 0-.262.004-.392.011-1.041.058-2.026.351-2.73 1.075-.705.724-1.168 1.911-1.067 3.876.02.372.186 1.414.473 2.652.285 1.238.69 2.695 1.177 3.982.487 1.287 1.078 2.407 1.639 2.937.282.265.527.372.75.363.224-.01.493-.135.822-.518.6-.701 1.221-1.384 1.865-2.048a3.497 3.497 0 0 1-1.017-1.426 3.4 3.4 0 0 1-.186-1.724c.107-.739.121-1.43.109-1.976-.013-.532-.052-.886-.052-1.107v-.03a9.63 9.63 0 0 1 .61-3.377c.288-.744.718-1.5 1.362-2.112-.633-.202-1.756-.51-2.973-.568a8.083 8.083 0 0 0-.391-.01ZM18.346 7.9c-.7.01-1.093.184-1.299.413-.291.325-.32.895-.138 1.597.18.703.554 1.49.904 2.142.175.327.345.621.483.86.138.24.239.41.3.555.057.134.12.252.184.362.271-.555.32-1.1.292-1.668-.036-.703-.204-1.422-.18-2.15.028-.85.201-1.405.217-2.063a6.154 6.154 0 0 0-.763-.048Zm-8.487.115a2.993 2.993 0 0 0-.635.074 4.898 4.898 0 0 0-1.189.45 2.5 2.5 0 0 0-.36.227l-.022.02c.006.146.036.5.048 1.021.013.57-.002 1.297-.115 2.084-.246 1.71 1.033 3.126 2.535 3.128.088-.35.232-.707.377-1.082.418-1.094 1.242-1.892.548-5.006-.113-.51-.338-.716-.647-.832a1.562 1.562 0 0 0-.54-.084Zm8.16.204h.052a.93.93 0 0 1 .185.022c.056.012.103.03.143.055a.166.166 0 0 1 .077.11l-.001.008a.234.234 0 0 1-.036.135.67.67 0 0 1-.114.15.704.704 0 0 1-.398.212.622.622 0 0 1-.422-.103.62.62 0 0 1-.134-.118.257.257 0 0 1-.065-.127.164.164 0 0 1 .043-.128.396.396 0 0 1 .12-.09c.1-.054.234-.094.385-.116.057-.008.113-.012.165-.013v.003Zm-8.06.168c.054 0 .112.005.17.013.159.021.299.062.406.122a.458.458 0 0 1 .137.106.222.222 0 0 1 .056.17.298.298 0 0 1-.078.154.66.66 0 0 1-.147.13.675.675 0 0 1-.462.113.757.757 0 0 1-.433-.228.711.711 0 0 1-.121-.164.273.273 0 0 1-.043-.177c.016-.108.108-.164.197-.195a.918.918 0 0 1 .317-.04v-.004Zm9.338 7.343-.003.001c-.151.053-.276.075-.381.12a.461.461 0 0 0-.246.214c-.065.115-.121.32-.105.666a.53.53 0 0 0 .153.07c.176.052.472.086.802.081.658-.007 1.467-.156 1.896-.35.353-.159.68-.366.973-.615h-.002c-1.435.288-2.247.211-2.744.012a1.365 1.365 0 0 1-.343-.2v.001Zm-8.278.094h-.021c-.055.005-.134.023-.288.188-.359.39-.484.635-.78.864-.296.228-.68.35-1.448.503a2.02 2.02 0 0 0-.476.144c.03.024.027.03.073.053.112.06.256.113.373.142.33.08.872.173 1.438.08.566-.094 1.154-.357 1.656-1.04.087-.118.096-.292.025-.479-.072-.187-.23-.348-.341-.393a.691.691 0 0 0-.21-.06v-.002Z"/>
  <rect width="23" height="11" x="8.5" y="19.5" fill="var(--tbl--colors--brand--postgres)" stroke="#fff" rx="2.5"/>
  <path fill="#fff" d="M14.987 23.1a.982.982 0 0 0-.397-.725c-.23-.173-.53-.26-.9-.26-.26 0-.482.042-.668.125a.997.997 0 0 0-.427.337.853.853 0 0 0-.15.487.77.77 0 0 0 .097.394.918.918 0 0 0 .272.285c.114.075.24.14.38.191.138.052.278.096.42.132l.644.17c.26.064.51.15.749.26.242.109.458.246.648.412.193.165.345.365.457.6.112.235.168.51.168.824 0 .426-.103.802-.31 1.126a2.068 2.068 0 0 1-.893.757c-.387.18-.856.27-1.407.27-.535 0-1-.088-1.394-.263a2.1 2.1 0 0 1-.92-.767c-.22-.337-.338-.746-.356-1.23h1.226c.018.254.092.465.222.633.13.168.298.294.507.377.21.082.445.124.705.124.271 0 .508-.043.712-.128.206-.088.367-.209.484-.362a.908.908 0 0 0 .178-.547.72.72 0 0 0-.158-.47 1.157 1.157 0 0 0-.433-.312 4.013 4.013 0 0 0-.645-.227l-.783-.213c-.566-.155-1.014-.388-1.343-.7-.327-.315-.49-.733-.49-1.254 0-.429.11-.804.329-1.127a2.2 2.2 0 0 1 .903-.749c.38-.18.812-.27 1.293-.27.488 0 .916.09 1.283.27.37.178.66.425.87.742.21.315.32.678.326 1.087h-1.2ZM19.953 25.93h1.129l.668.917.477.597L23.372 29h-1.209l-.779-1.044-.332-.498-1.099-1.527Zm3.584-1.193c0 .784-.139 1.455-.416 2.014-.276.557-.652.983-1.129 1.28a2.99 2.99 0 0 1-1.615.443 3.007 3.007 0 0 1-1.62-.444c-.474-.298-.85-.726-1.128-1.282-.275-.56-.413-1.23-.413-2.01 0-.785.138-1.455.413-2.011.278-.56.654-.987 1.129-1.283A3.007 3.007 0 0 1 20.377 21c.602 0 1.14.148 1.615.444.477.296.853.724 1.129 1.283.277.556.416 1.226.416 2.01Zm-1.253 0c0-.552-.081-1.017-.245-1.396-.161-.381-.385-.669-.672-.863a1.71 1.71 0 0 0-.99-.295 1.71 1.71 0 0 0-.991.295c-.287.194-.512.482-.675.863-.162.379-.242.844-.242 1.396 0 .552.08 1.019.242 1.4.163.379.388.666.675.863.286.194.617.291.99.291.374 0 .705-.097.991-.291.287-.197.51-.484.672-.863.164-.381.245-.848.245-1.4ZM24.724 28.375v-7.276h1.247v6.171H29v1.105h-4.276Z"/>
</svg>
