<svg xmlns="http://www.w3.org/2000/svg" width="32" height="32" fill="none" viewBox="0 0 32 32">
  <path fill="var(--tbl--colors--icons--transformation--tertiary)" d="M7 3C8.65685 3 10 4.34315 10 6L10 27C10 28.1046 9.10457 29 8 29L5 29C3.89543 29 3 28.1046 3 27L3 6C3 4.34315 4.34315 3 6 3L7 3Z" />
  <path fill="var(--tbl--colors--icons--transformation--primary)" fill-rule="evenodd" d="M5 3C3.89543 3 3 3.89543 3 5V10H27C28.1046 10 29 9.10457 29 8V5C29 3.89543 28.1046 3 27 3H5ZM24.7929 12.7929C25.1834 12.4024 25.8166 12.4024 26.2071 12.7929L29.2071 15.7929C29.5976 16.1834 29.5976 16.8166 29.2071 17.2071C28.8166 17.5976 28.1834 17.5976 27.7929 17.2071L26.463 15.8773C26.3047 18.7313 25.6106 21.4602 23.8722 23.5729C21.8234 26.0627 18.4921 27.5 13.5 27.5C12.9477 27.5 12.5 27.0523 12.5 26.5C12.5 25.9477 12.9477 25.5 13.5 25.5C18.1079 25.5 20.7766 24.1873 22.3278 22.3021C23.6616 20.6812 24.2896 18.4956 24.4545 15.9597L23.2071 17.2071C22.8166 17.5976 22.1834 17.5976 21.7929 17.2071C21.4024 16.8166 21.4024 16.1834 21.7929 15.7929L24.7929 12.7929Z" clip-rule="evenodd" />
</svg>
