<svg xmlns="http://www.w3.org/2000/svg" width="24" height="24" fill="none" viewBox="0 0 24 24">
  <path fill="var(--tbl--colors--icons--transformation--tertiary)" d="M6.5 3A1.5 1.5 0 0 1 8 4.5v15A1.5 1.5 0 0 1 6.5 21h-2A1.5 1.5 0 0 1 3 19.5v-15A1.5 1.5 0 0 1 4.5 3h2Z"/>
  <path fill="var(--tbl--colors--icons--transformation--primary)" fill-rule="evenodd" d="M4.5 3A1.5 1.5 0 0 0 3 4.5V8h16.5A1.5 1.5 0 0 0 21 6.5v-2A1.5 1.5 0 0 0 19.5 3h-15Zm15.924 9.883a1 1 0 0 0-.217-1.09l-2-2a1 1 0 0 0-1.414 0l-2 2A1 1 0 0 0 15.5 13.5h1c0 1.565-.445 2.796-1.228 3.627-.773.822-1.987 1.373-3.772 1.373a1 1 0 1 0 0 2c2.215 0 4.001-.698 5.228-2.002 1.217-1.294 1.772-3.063 1.772-4.998h1a1 1 0 0 0 .924-.617Z" clip-rule="evenodd"/>
</svg>
