<svg xmlns="http://www.w3.org/2000/svg" width="32" height="32" fill="none" viewBox="0 0 32 32">
  <path fill="var(--tbl--colors--icons--transformation--tertiary)" d="M7 3a3 3 0 0 1 3 3v20a3 3 0 0 1-3 3H6a3 3 0 0 1-3-3V6a3 3 0 0 1 3-3h1Z"/>
  <path fill="var(--tbl--colors--icons--transformation--primary)" fill-rule="evenodd" d="M6 3a3 3 0 0 0-3 3v4h23a3 3 0 0 0 3-3V6a3 3 0 0 0-3-3H6Zm18.793 9.793a1 1 0 0 1 1.414 0l3 3a1 1 0 0 1-1.414 1.414l-1.33-1.33c-.158 2.854-.852 5.583-2.59 7.696-2.05 2.49-5.38 3.927-10.373 3.927a1 1 0 1 1 0-2c4.608 0 7.277-1.313 8.828-3.198 1.334-1.62 1.962-3.806 2.127-6.342l-1.248 1.247a1 1 0 0 1-1.414-1.414l3-3Z" clip-rule="evenodd"/>
</svg>
