<svg xmlns="http://www.w3.org/2000/svg" width="24" height="24" fill="none" viewBox="0 0 24 24">
  <path
    fill-rule="evenodd"
    clip-rule="evenodd"
    d="M7.43651 15.6888C7.73598 15.2411 8.03929 14.7959 8.34407 14.3518C8.37259 14.3102 8.42302 14.2555 8.46403 14.2548C8.81535 14.2494 9.16676 14.2498 9.52809 14.2502L9.82822 14.2505V18.9392H10.5V20.2625H9.83733V21.75H8.44023V20.2853H5.25416C5.25416 20.1743 5.25312 20.0622 5.25208 19.9501C5.25104 19.8378 5.25 19.7255 5.25 19.6141C5.27747 19.148 5.3257 18.7438 5.62083 18.3639C5.84295 18.078 6.03972 17.7726 6.23654 17.4671L6.23654 17.4671C6.33173 17.3193 6.42693 17.1716 6.52501 17.026C6.64127 16.8535 6.7286 16.7272 6.82426 16.5889C6.96773 16.3816 7.12993 16.1471 7.43651 15.6888ZM7.25246 18.3317L6.86227 18.9271H8.42133V16.6811L8.39253 16.667L8.39189 16.668L8.39186 16.668C8.0175 17.2164 7.64314 17.7647 7.25246 18.3317ZM11.925 14.2738C12.7891 14.2576 13.2558 14.2534 14.1102 14.25C14.138 14.2499 14.1657 14.2528 14.1976 14.2562C14.2138 14.2579 14.2311 14.2597 14.25 14.2613V21.75H12.75C12.721 20.6083 12.732 19.466 12.743 18.3205V18.3204C12.7515 17.4318 12.7601 16.5412 12.75 15.6473H11.0625C11.2436 15.4074 11.3739 15.1758 11.5028 14.9466C11.6294 14.7217 11.7545 14.4993 11.925 14.2738ZM18.4227 14.25C17.5683 14.2534 17.1016 14.2576 16.2375 14.2738C16.067 14.4993 15.9419 14.7217 15.8153 14.9466C15.6864 15.1758 15.5561 15.4074 15.375 15.6473H17.0625C17.0726 16.5412 17.064 17.4318 17.0555 18.3204C17.0445 19.466 17.0335 20.6083 17.0625 21.75H18.5625V14.2613C18.5436 14.2597 18.5263 14.2579 18.5101 14.2562C18.4782 14.2528 18.4505 14.2499 18.4227 14.25Z"
    fill="var(--tbl--ui-node-icon--enrichment--lead411-primary)"
  />
  <path
    fill-rule="evenodd"
    clip-rule="evenodd"
    d="M1.73401 3.096H0.234009V12H1.73401V3.096ZM9.23402 9.276C9.25002 9.084 9.25803 8.936 9.25803 8.832C9.25803 8.176 9.11802 7.6 8.83802 7.104C8.56602 6.6 8.18202 6.212 7.68602 5.94C7.19802 5.66 6.64202 5.52 6.01802 5.52C5.38602 5.52 4.81802 5.66 4.31402 5.94C3.81002 6.22 3.41402 6.612 3.12602 7.116C2.84602 7.612 2.70602 8.172 2.70602 8.796C2.70602 9.428 2.85002 9.996 3.13802 10.5C3.43402 10.996 3.85002 11.384 4.38602 11.664C4.92202 11.944 5.54202 12.084 6.24602 12.084C6.79802 12.084 7.29402 11.996 7.73402 11.82C8.17402 11.644 8.53802 11.384 8.82603 11.04L8.02202 10.116C7.56602 10.58 6.98602 10.812 6.28202 10.812C5.73002 10.812 5.26602 10.676 4.89002 10.404C4.52202 10.124 4.29402 9.748 4.20602 9.276H9.23402ZM4.79402 7.152C5.13002 6.864 5.53802 6.72 6.01802 6.72C6.50602 6.72 6.91402 6.864 7.24202 7.152C7.57002 7.44 7.76602 7.816 7.83002 8.28H4.19402C4.26602 7.808 4.46602 7.432 4.79402 7.152ZM16.542 5.592V12H15.114V11.172C14.866 11.476 14.558 11.704 14.19 11.856C13.83 12.008 13.43 12.084 12.99 12.084C12.366 12.084 11.806 11.948 11.31 11.676C10.822 11.404 10.438 11.02 10.158 10.524C9.886 10.028 9.75 9.452 9.75 8.796C9.75 8.14 9.886 7.568 10.158 7.08C10.438 6.584 10.822 6.2 11.31 5.928C11.806 5.656 12.366 5.52 12.99 5.52C13.406 5.52 13.786 5.592 14.13 5.736C14.482 5.88 14.786 6.092 15.042 6.372V5.592H16.542ZM13.158 10.8C13.71 10.8 14.166 10.616 14.526 10.248C14.886 9.88 15.066 9.396 15.066 8.796C15.066 8.196 14.886 7.712 14.526 7.344C14.166 6.976 13.71 6.792 13.158 6.792C12.606 6.792 12.15 6.976 11.79 7.344C11.438 7.712 11.262 8.196 11.262 8.796C11.262 9.396 11.438 9.88 11.79 10.248C12.15 10.616 12.606 10.8 13.158 10.8ZM24.054 12V3.096H22.554V6.384C22.306 6.096 22.006 5.88 21.654 5.736C21.302 5.592 20.914 5.52 20.49 5.52C19.874 5.52 19.318 5.656 18.822 5.928C18.334 6.2 17.95 6.584 17.67 7.08C17.39 7.576 17.25 8.148 17.25 8.796C17.25 9.44401 17.39 10.02 17.67 10.524C17.95 11.02 18.334 11.404 18.822 11.676C19.318 11.948 19.874 12.084 20.49 12.084C20.93 12.084 21.33 12.008 21.69 11.856C22.058 11.704 22.366 11.476 22.614 11.172V12H24.054ZM21.642 10.56C21.354 10.72 21.03 10.8 20.67 10.8C20.31 10.8 19.986 10.72 19.698 10.56C19.41 10.392 19.182 10.156 19.014 9.85201C18.846 9.548 18.762 9.196 18.762 8.796C18.762 8.39601 18.846 8.044 19.014 7.74C19.182 7.43601 19.41 7.204 19.698 7.044C19.986 6.876 20.31 6.792 20.67 6.792C21.03 6.792 21.354 6.876 21.642 7.044C21.93 7.204 22.158 7.43601 22.326 7.74C22.494 8.044 22.578 8.39601 22.578 8.796C22.578 9.196 22.494 9.548 22.326 9.85201C22.158 10.156 21.93 10.392 21.642 10.56Z"
    fill="var(--tbl--ui-node-icon--enrichment--lead411-secondary)"
  />
</svg>
