<svg xmlns="http://www.w3.org/2000/svg" width="32" height="32" fill="none" viewBox="0 0 32 32">
  <path
    fill-rule="evenodd"
    clip-rule="evenodd"
    d="M24.5636 19C23.4244 19.0045 22.8022 19.0101 21.65 19.0317C21.4227 19.3323 21.2558 19.629 21.0871 19.9289C20.9152 20.2344 20.7414 20.5432 20.5 20.8631H22.75C22.7634 22.055 22.752 23.2424 22.7406 24.4273C22.726 25.9547 22.7113 27.4777 22.75 29H24.75V19.0151C24.7248 19.013 24.7018 19.0105 24.6802 19.0083C24.6377 19.0038 24.6006 18.9999 24.5636 19ZM15.9 19.0317C17.0522 19.0101 17.6744 19.0045 18.8136 19C18.8506 18.9999 18.8877 19.0038 18.9302 19.0083C18.9518 19.0105 18.9748 19.013 19 19.0151V29H17C16.9613 27.4777 16.976 25.9547 16.9906 24.4273V24.4273V24.4272C17.002 23.2424 17.0134 22.0549 17 20.8631H14.75C14.9914 20.5432 15.1652 20.2344 15.3371 19.9289C15.5058 19.629 15.6727 19.3323 15.9 19.0317ZM9.91534 20.9184C10.3146 20.3214 10.7191 19.7279 11.1254 19.1357C11.1635 19.0803 11.2307 19.0073 11.2854 19.0064C11.7538 18.9992 12.2223 18.9997 12.7041 19.0003C12.8364 19.0005 12.9697 19.0006 13.1043 19.0006V25.2523H14V27.0167H13.1164V29H11.2536V27.0471H7.00554C7.00554 26.8991 7.00416 26.7496 7.00277 26.6001C7.00139 26.4504 7 26.3006 7 26.1521C7.03662 25.5306 7.10093 24.9918 7.49444 24.4852C7.7906 24.104 8.05296 23.6968 8.31538 23.2895L8.31538 23.2895L8.31539 23.2895C8.44231 23.0925 8.56924 22.8954 8.70002 22.7013C8.85502 22.4713 8.97147 22.303 9.09901 22.1186L9.09902 22.1186C9.29031 21.8421 9.50657 21.5295 9.91534 20.9184ZM9.66995 24.4423L9.1497 25.2361H11.2284V22.2415L11.19 22.2227L11.1892 22.2239L11.189 22.2243C10.6899 22.9554 10.1908 23.6864 9.66995 24.4423Z"
    fill="var(--tbl--colors--icons--enrichment--lead411-primary)"
  />
  <path
    fill-rule="evenodd"
    clip-rule="evenodd"
    d="M2.31201 4.12801H0.312012V16H2.31201V4.12801ZM12.312 12.368C12.3334 12.112 12.344 11.9147 12.344 11.776C12.344 10.9013 12.1574 10.1333 11.784 9.472C11.4214 8.8 10.9094 8.28267 10.248 7.92C9.59737 7.54667 8.85603 7.36 8.02403 7.36C7.18137 7.36 6.42403 7.54667 5.75203 7.92C5.08003 8.29333 4.55203 8.816 4.16803 9.488C3.7947 10.1493 3.60803 10.896 3.60803 11.728C3.60803 12.5707 3.80003 13.328 4.18403 14C4.5787 14.6613 5.13337 15.1787 5.84803 15.552C6.5627 15.9253 7.38937 16.112 8.32803 16.112C9.06403 16.112 9.72537 15.9947 10.312 15.76C10.8987 15.5253 11.384 15.1787 11.768 14.72L10.696 13.488C10.088 14.1067 9.3147 14.416 8.37603 14.416C7.64003 14.416 7.02137 14.2347 6.52003 13.872C6.02937 13.4987 5.72537 12.9973 5.60803 12.368H12.312ZM6.39203 9.536C6.84003 9.152 7.38403 8.96 8.02403 8.96C8.6747 8.96 9.2187 9.152 9.65603 9.536C10.0934 9.92 10.3547 10.4213 10.44 11.04H5.59203C5.68803 10.4107 5.9547 9.90933 6.39203 9.536ZM22.056 16H20.152V14.896C19.8213 15.3013 19.4107 15.6053 18.92 15.808C18.44 16.0107 17.9067 16.112 17.32 16.112C16.488 16.112 15.7413 15.9307 15.08 15.568C14.4293 15.2053 13.9173 14.6933 13.544 14.032C13.1813 13.3707 13 12.6027 13 11.728C13 10.8533 13.1813 10.0907 13.544 9.44C13.9173 8.77867 14.4293 8.26667 15.08 7.904C15.7413 7.54133 16.488 7.36 17.32 7.36C17.8747 7.36 18.3813 7.456 18.84 7.648C19.3093 7.84 19.7147 8.12267 20.056 8.496V7.456H22.056V16ZM17.544 14.4C18.28 14.4 18.888 14.1547 19.368 13.664C19.848 13.1733 20.088 12.528 20.088 11.728C20.088 10.928 19.848 10.2827 19.368 9.792C18.888 9.30133 18.28 9.056 17.544 9.056C16.808 9.056 16.2 9.30133 15.72 9.792C15.2507 10.2827 15.016 10.928 15.016 11.728C15.016 12.528 15.2507 13.1733 15.72 13.664C16.2 14.1547 16.808 14.4 17.544 14.4ZM32.072 16V4.12801H30.072V8.51201C29.7413 8.12801 29.3413 7.84001 28.872 7.64801C28.4027 7.45601 27.8853 7.36001 27.32 7.36001C26.4987 7.36001 25.7573 7.54134 25.096 7.90401C24.4453 8.26667 23.9333 8.77867 23.56 9.44001C23.1867 10.1013 23 10.864 23 11.728C23 12.592 23.1867 13.36 23.56 14.032C23.9333 14.6933 24.4453 15.2053 25.096 15.568C25.7573 15.9307 26.4987 16.112 27.32 16.112C27.9067 16.112 28.44 16.0107 28.92 15.808C29.4107 15.6053 29.8213 15.3013 30.152 14.896V16H32.072ZM28.856 14.08C28.472 14.2933 28.04 14.4 27.56 14.4C27.08 14.4 26.648 14.2933 26.264 14.08C25.88 13.856 25.576 13.5413 25.352 13.136C25.128 12.7307 25.016 12.2613 25.016 11.728C25.016 11.1947 25.128 10.7253 25.352 10.32C25.576 9.91467 25.88 9.60534 26.264 9.39201C26.648 9.16801 27.08 9.05601 27.56 9.05601C28.04 9.05601 28.472 9.16801 28.856 9.39201C29.24 9.60534 29.544 9.91467 29.768 10.32C29.992 10.7253 30.104 11.1947 30.104 11.728C30.104 12.2613 29.992 12.7307 29.768 13.136C29.544 13.5413 29.24 13.856 28.856 14.08Z"
    fill="var(--tbl--colors--icons--enrichment--lead411-secondary)"
  />
</svg>
