<svg xmlns="http://www.w3.org/2000/svg" width="32" height="32" fill="none" viewBox="0 0 32 32">
  <path fill="var(--tbl--colors--icons--transformation--tertiary)" d="M10 25C10 23.8954 10.8954 23 12 23H27C28.1046 23 29 23.8954 29 25V28C29 29.1046 28.1046 30 27 30H12C10.8954 30 10 29.1046 10 28V25Z" />
  <path fill="var(--tbl--colors--icons--transformation--secondary)" d="M10 16C10 14.8954 10.8954 14 12 14H27C28.1046 14 29 14.8954 29 16V19C29 20.1046 28.1046 21 27 21H12C10.8954 21 10 20.1046 10 19V16Z" />
  <path fill="var(--tbl--colors--icons--transformation--primary)" fill-rule="evenodd" d="M5 5C3.89543 5 3 5.89543 3 7V9.5V12V18V24C3 25.6569 4.34315 27 6 27H8.5V25H6C5.44772 25 5 24.5523 5 24V19H8.5V17H5V12H27C28.1046 12 29 11.1046 29 10V7C29 5.89543 28.1046 5 27 5H5Z" clip-rule="evenodd" />
</svg>
