<svg xmlns="http://www.w3.org/2000/svg" width="24" height="24" fill="none" viewBox="0 0 24 24">
  <rect width="13" height="5" x="9" y="17" fill="var(--tbl--colors--icons--transformation--tertiary)" rx="2"/>
  <rect width="13" height="5" x="9" y="11" fill="var(--tbl--colors--icons--transformation--secondary)" rx="2"/>
  <path fill="var(--tbl--colors--icons--transformation--primary)" fill-rule="evenodd" d="M4 4a2 2 0 0 0-2 2v1c0 .173.022.34.063.5H2v10a3 3 0 0 0 3 3h3v-2H5a1 1 0 0 1-1-1v-3h4v-2H4V9h16a2 2 0 0 0 2-2V6a2 2 0 0 0-2-2H4Z" clip-rule="evenodd"/>
</svg>
