<svg xmlns="http://www.w3.org/2000/svg" width="32" height="32" fill="none" viewBox="0 0 32 32">
  <path fill="var(--tbl--colors--icons--transformation--tertiary)" d="M10 26a3 3 0 0 1 3-3h13a3 3 0 0 1 3 3v1a3 3 0 0 1-3 3H13a3 3 0 0 1-3-3v-1Z"/>
  <path fill="var(--tbl--colors--icons--transformation--secondary)" d="M10 17a3 3 0 0 1 3-3h13a3 3 0 0 1 3 3v1a3 3 0 0 1-3 3H13a3 3 0 0 1-3-3v-1Z"/>
  <path fill="var(--tbl--colors--icons--transformation--primary)" fill-rule="evenodd" d="M6 5a3 3 0 0 0-3 3v16a3 3 0 0 0 3 3h2.5v-2H6a1 1 0 0 1-1-1v-5h3.5v-2H5v-5h21a3 3 0 0 0 3-3V8a3 3 0 0 0-3-3H6Z" clip-rule="evenodd"/>
</svg>
