<svg width="24" height="24" viewBox="0 0 24 24" fill="none" xmlns="http://www.w3.org/2000/svg">
  <path
    fill-rule="evenodd"
    clip-rule="evenodd"
    d="M17 2C18.1046 2 19 2.89543 19 4V12.5908C18.9693 12.556 18.9366 12.5223 18.9004 12.4912C18.4811 12.1318 17.8506 12.1803 17.4912 12.5996L14.7822 15.7588L13.6689 14.7568C13.2584 14.3874 12.6263 14.4206 12.2568 14.8311C11.9596 15.1613 11.923 15.635 12.1338 16H4C2.89543 16 2 15.1046 2 14V4C2 2.89543 2.89543 2 4 2H17ZM4.30176 3.31348C3.92256 3.1468 3.48016 3.31905 3.31348 3.69824C3.1468 4.07744 3.31905 4.51984 3.69824 4.68652L10.5234 7.68652C10.7247 7.77493 10.9546 7.77075 11.1523 7.6748L17.3281 4.6748C17.7005 4.49373 17.8558 4.04437 17.6748 3.67188C17.4937 3.29947 17.0444 3.14423 16.6719 3.3252L10.8086 6.17285L4.30176 3.31348Z"
    fill="var(--tbl--colors--icons--enrich--tertiary)"
  />
  <path
    fill-rule="evenodd"
    clip-rule="evenodd"
    d="M14.0881 7.40635C14.8685 6.62884 16.1309 6.62891 16.9114 7.40635L18.0979 8.58896C18.4171 8.90703 18.8348 9.10799 19.2825 9.15928L20.9475 9.3497C22.0421 9.47512 22.8287 10.4627 22.7073 11.5577L22.5227 13.2228C22.473 13.6706 22.5766 14.122 22.8157 14.504L23.7043 15.9249C24.2885 16.8587 24.0079 18.089 23.0764 18.6769L21.6594 19.5714C21.2782 19.8118 20.9887 20.1736 20.8391 20.5987L20.2834 22.1788C19.9177 23.2181 18.7801 23.7664 17.7395 23.4044L16.1575 22.8536C15.7319 22.7055 15.2686 22.7056 14.843 22.8536L13.26 23.4044C12.2195 23.7663 11.0818 23.2181 10.7161 22.1788L10.1604 20.5987C10.0109 20.1738 9.72203 19.8118 9.34106 19.5714L7.92407 18.6769C6.99231 18.0891 6.71097 16.8588 7.29517 15.9249L8.18384 14.504C8.42294 14.122 8.52648 13.6707 8.47681 13.2228L8.29224 11.5577C8.17079 10.4626 8.95829 9.47499 10.053 9.3497L11.717 9.15928C12.1648 9.10803 12.5824 8.90708 12.9016 8.58896L14.0881 7.40635ZM18.9006 12.4913C18.4814 12.1319 17.8509 12.1805 17.4915 12.5997L14.7825 15.7589L13.6692 14.7569C13.2587 14.3876 12.6266 14.4208 12.2571 14.8312C11.8877 15.2416 11.9208 15.8738 12.3313 16.2433L14.2063 17.9308C14.4065 18.1108 14.671 18.203 14.9397 18.1856C15.2084 18.1682 15.4588 18.0424 15.634 17.838L19.009 13.9005C19.3683 13.4812 19.3197 12.8507 18.9006 12.4913Z"
    fill="var(--tbl--ui-node-icon--verify-email-m)"
  />

  <defs>
    <linearGradient id="tbl--ui-node-icon--verify-email-m" x1="23.0368" y1="23.0969" x2="2.83921" y2="11.3224" gradientUnits="userSpaceOnUse">
      <stop stop-color="#836EE7"/>
      <stop offset="1" stop-color="#B1A2FB"/>
    </linearGradient>
  </defs>
</svg>
