<svg width="32" height="32" viewBox="0 0 32 32" fill="none" xmlns="http://www.w3.org/2000/svg">
  <path
    d="M24 2C26.2091 2 28 3.79086 28 6V18C28 20.2091 26.2091 22 24 22H23.8125L26.751 18.6602C27.1154 18.2456 27.0746 17.6138 26.6602 17.249C26.2455 16.8845 25.6138 16.9254 25.249 17.3398L21.1465 22H19.5254L18.1758 20.7627C17.7687 20.3896 17.1359 20.4171 16.7627 20.8242C16.4604 21.1541 16.4212 21.632 16.6338 22H6C3.79086 22 2 20.2091 2 18V6C2 3.79086 3.79086 2 6 2H24ZM25.9219 4.6123C25.7076 4.10343 25.1212 3.8641 24.6123 4.07812L15.4814 7.92188L5.35645 4.06543C4.84046 3.86887 4.26217 4.12769 4.06543 4.64355C3.86887 5.15954 4.12769 5.73783 4.64355 5.93457L15.1436 9.93457C15.3839 10.0261 15.6507 10.0216 15.8877 9.92188L25.3877 5.92188C25.8966 5.70761 26.1359 5.12122 25.9219 4.6123Z"
    fill="var(--tbl--colors--icons--enrich--tertiary)"
  />
  <path
    d="M20.0886 11.4065C20.8691 10.6291 22.1315 10.6289 22.9119 11.4065L24.7498 13.2375C25.0689 13.5556 25.4857 13.7566 25.9333 13.8079L28.5115 14.1028C29.6059 14.2283 30.3927 15.2158 30.2712 16.3108L29.9851 18.8889C29.9354 19.3367 30.0391 19.7882 30.2781 20.1702L31.6541 22.3694C32.2386 23.3033 31.958 24.5345 31.0261 25.1223L28.8318 26.5061C28.4506 26.7465 28.162 27.1093 28.0125 27.5344L27.1511 29.9807C26.7854 31.0201 25.6478 31.5684 24.6072 31.2063L22.157 30.3538C21.7314 30.2057 21.2681 30.2057 20.8425 30.3538L18.3923 31.2063C17.3518 31.5682 16.2141 31.02 15.8484 29.9807L14.988 27.5344C14.8384 27.1093 14.5489 26.7465 14.1677 26.5061L11.9744 25.1223C11.0424 24.5345 10.7609 23.3034 11.3455 22.3694L12.7224 20.1702C12.9613 19.7883 13.0641 19.3367 13.0144 18.8889L12.7283 16.3108C12.6068 15.2157 13.3943 14.2281 14.489 14.1028L17.0662 13.8079C17.5139 13.7566 17.9315 13.5557 18.2507 13.2375L20.0886 11.4065ZM25.6501 18.2415C25.2308 17.8821 24.6004 17.9305 24.241 18.3499L20.407 22.8215L18.6687 21.2571C18.2582 20.8877 17.626 20.9209 17.2566 21.3313C16.8874 21.7418 16.9205 22.374 17.3308 22.7434L19.8308 24.9934C20.0309 25.1735 20.2955 25.2656 20.5642 25.2483C20.8329 25.2309 21.0832 25.105 21.2585 24.9006L25.7585 19.6506C26.118 19.2313 26.0695 18.6009 25.6501 18.2415Z"
    fill="var(--tbl--ui-node-icon--verify-email-l)"
  />

  <defs>
    <linearGradient id="tbl--ui-node-icon--verify-email-l" x1="30.7643" y1="30.8034" x2="5.95271" y2="16.3225" gradientUnits="userSpaceOnUse">
      <stop stop-color="#836EE7"/>
      <stop offset="1" stop-color="#B1A2FB"/>
    </linearGradient>
  </defs>
</svg>
