<svg width="24" height="24" viewBox="0 0 24 24" fill="none" xmlns="http://www.w3.org/2000/svg">
  <path
    fill-rule="evenodd"
    clip-rule="evenodd"
    d="M2 4C2 2.89543 2.89543 2 4 2H17C18.1046 2 19 2.89543 19 4V12.5884C18.9696 12.5541 18.9366 12.5214 18.9008 12.4908C18.4815 12.1313 17.8502 12.1799 17.4907 12.5992L14.7825 15.7588L13.6689 14.7567C13.2584 14.3872 12.6261 14.4205 12.2567 14.8311C11.9595 15.1613 11.9229 15.635 12.1337 16H4C2.89543 16 2 15.1046 2 14V4ZM17.2202 15.988C18.2211 15.8784 19 15.0302 19 14V13.9116L17.2202 15.988ZM3.3134 3.6982C3.48008 3.319 3.9226 3.14672 4.3018 3.3134L10.8093 6.17382L16.6723 3.3254C17.0448 3.14439 17.4936 3.29969 17.6746 3.67226C17.8556 4.04483 17.7003 4.49359 17.3277 4.6746L11.1527 7.6746C10.9548 7.77076 10.7246 7.77515 10.5232 7.6866L3.6982 4.6866C3.319 4.51992 3.14672 4.0774 3.3134 3.6982Z"
    fill="var(--tbl--colors--icons--enrich--tertiary)"
  />
  <path
    fill-rule="evenodd"
    clip-rule="evenodd"
    d="M16.9117 7.40655C16.1312 6.62881 14.8687 6.62881 14.0882 7.40655L12.9014 8.58915C12.5822 8.90727 12.1649 9.10824 11.7171 9.15949L10.0526 9.34999C8.95791 9.47528 8.17075 10.4623 8.2922 11.5575L8.47686 13.2226C8.52654 13.6706 8.42347 14.1222 8.18436 14.5042L7.29549 15.9243C6.71092 16.8583 6.99185 18.0892 7.92377 18.677L9.3408 19.5709C9.72198 19.8113 10.0108 20.1734 10.1604 20.5986L10.7165 22.179C11.0822 23.2183 12.2197 23.7661 13.2603 23.404L14.8427 22.8534C15.2683 22.7053 15.7315 22.7053 16.1572 22.8534L17.7395 23.404C18.7801 23.7661 19.9176 23.2183 20.2834 22.179L20.8395 20.5986C20.9891 20.1734 21.2779 19.8113 21.6591 19.5709L23.0761 18.677C24.008 18.0892 24.2889 16.8583 23.7044 15.9243L22.8155 14.5042C22.5764 14.1222 22.4733 13.6706 22.523 13.2226L22.7077 11.5575C22.8291 10.4623 22.0419 9.47528 20.9473 9.34999L19.2827 9.15949C18.835 9.10824 18.4176 8.90727 18.0984 8.58915L16.9117 7.40655ZM19.0092 13.9008C19.3687 13.4815 19.3201 12.8502 18.9008 12.4908C18.4815 12.1313 17.8502 12.1799 17.4907 12.5992L14.7825 15.7588L13.6689 14.7567C13.2584 14.3872 12.6261 14.4205 12.2567 14.8311C11.8872 15.2416 11.9205 15.8739 12.3311 16.2433L14.2061 17.9307C14.4063 18.1109 14.6708 18.2027 14.9396 18.1853C15.2085 18.1679 15.4589 18.0428 15.6342 17.8382L19.0092 13.9008Z"
    fill="var(--tbl--colors--icons--enrich--primary)"
  />
</svg>

