<svg width="32" height="32" viewBox="0 0 32 32" fill="none" xmlns="http://www.w3.org/2000/svg">
  <path
    fill-rule="evenodd"
    clip-rule="evenodd"
    d="M2 5C2 3.34315 3.34315 2 5 2H25C26.6569 2 28 3.34315 28 5V19C28 20.6569 26.6569 22 25 22H23.812L26.7507 18.6605C27.1156 18.2459 27.0752 17.614 26.6606 17.2492C26.246 16.8843 25.6141 16.9246 25.2493 17.3393L21.1479 22H19.5254L18.1757 20.7627C17.7686 20.3895 17.1361 20.417 16.7629 20.8241C16.4604 21.154 16.4211 21.632 16.6337 22H5C3.34315 22 2 20.6569 2 19V5ZM4.06551 4.644C4.26212 4.1279 4.83989 3.8689 5.356 4.06551L15.4814 7.92281L24.6119 4.07836C25.1209 3.86405 25.7073 4.10294 25.9216 4.61194C26.136 5.12095 25.8971 5.70732 25.3881 5.92164L15.8881 9.92164C15.6509 10.0215 15.3844 10.0261 15.144 9.93449L4.644 5.93449C4.1279 5.73788 3.8689 5.16011 4.06551 4.644Z"
    fill="var(--tbl--colors--icons--enrich--tertiary)"
  />
  <path
    fill-rule="evenodd"
    clip-rule="evenodd"
    d="M22.9117 11.4068C22.1313 10.6291 20.8687 10.6291 20.0883 11.4068L18.2507 13.2379C17.9314 13.5561 17.5141 13.757 17.0664 13.8083L14.489 14.1033C13.3943 14.2285 12.6072 15.2156 12.7286 16.3107L13.0145 18.8891C13.0642 19.337 12.9611 19.7886 12.722 20.1706L11.3457 22.3696C10.7611 23.3036 11.0421 24.5344 11.974 25.1223L14.1681 26.5063C14.5493 26.7468 14.8381 27.1089 14.9877 27.534L15.8488 29.9811C16.2145 31.0205 17.352 31.5683 18.3926 31.2062L20.8428 30.3537C21.2684 30.2056 21.7316 30.2056 22.1572 30.3537L24.6074 31.2062C25.648 31.5683 26.7855 31.0205 27.1512 29.9812L28.0123 27.534C28.1619 27.1089 28.4507 26.7468 28.8319 26.5063L31.026 25.1223C31.9579 24.5344 32.2389 23.3036 31.6543 22.3696L30.278 20.1706C30.0388 19.7886 29.9358 19.337 29.9855 18.8891L30.2714 16.3107C30.3928 15.2156 29.6057 14.2285 28.511 14.1033L25.9336 13.8083C25.4859 13.757 25.0685 13.5561 24.7493 13.2379L22.9117 11.4068ZM25.7592 19.6508C26.1187 19.2315 26.0701 18.6002 25.6508 18.2408C25.2315 17.8813 24.6002 17.9299 24.2407 18.3492L20.4074 22.8213L18.6689 21.2567C18.2584 20.8872 17.6261 20.9205 17.2567 21.3311C16.8872 21.7416 16.9205 22.3739 17.331 22.7433L19.831 24.9932C20.0313 25.1734 20.2958 25.2652 20.5646 25.2478C20.8335 25.2304 21.0839 25.1052 21.2592 24.9007L25.7592 19.6508Z"
    fill="var(--tbl--colors--icons--enrich--primary)"
  />
</svg>
