<svg xmlns="http://www.w3.org/2000/svg" width="32" height="32" fill="none" viewBox="0 0 32 32">
  <path
    fill-rule="evenodd"
    clip-rule="evenodd"
    d="M4.91397 8H27.0855L24.2929 10.7926C23.9024 11.1832 23.9024 11.8163 24.2929 12.2069C24.6834 12.5974 25.3166 12.5974 25.7071 12.2069L28.9966 8.91734C28.9989 8.9446 29 8.97217 29 9V23C29 23.5523 28.5523 24 28 24H4C3.44772 24 3 23.5523 3 23V9C3 8.97232 3.00112 8.9449 3.00333 8.91779L6.29265 12.2071C6.68317 12.5976 7.31634 12.5976 7.70686 12.2071C8.09739 11.8166 8.09739 11.1834 7.70686 10.7929L4.91397 8ZM4 6C2.34315 6 1 7.34315 1 9V23C1 24.6569 2.34315 26 4 26H28C29.6569 26 31 24.6569 31 23V9C31 7.34315 29.6569 6 28 6H4Z"
    fill="var(--tbl--ui-node-icon--enrichment--findymail-secondary)"
  />
  <path
    fill-rule="evenodd"
    clip-rule="evenodd"
    d="M10.9616 11.7646C9.84581 12.8804 9.84581 14.6894 10.9616 15.8052L15.09 19.9336C15.3438 20.1874 15.676 20.3147 16.0085 20.3157C16.3437 20.3167 16.6792 20.1893 16.9349 19.9336L21.0633 15.8052C22.1791 14.6894 22.1791 12.8804 21.0633 11.7646C19.9475 10.6488 18.1385 10.6488 17.0227 11.7646L16.0125 12.7748L15.0022 11.7646C13.8864 10.6488 12.0774 10.6488 10.9616 11.7646Z"
    fill="var(--tbl--ui-node-icon--enrichment--findymail-primary)"
  />
</svg>
