<svg width="16" height="16" viewBox="0 0 16 16" fill="none" xmlns="http://www.w3.org/2000/svg">
  <path
    fill-rule="evenodd"
    clip-rule="evenodd"
    d="M2.66669 4H13.0428L11.6465 5.39632C11.4512 5.59159 11.4512 5.90817 11.6465 6.10343C11.8417 6.29869 12.1583 6.29869 12.3536 6.10343L14.0996 4.35741C14.2455 4.5312 14.3334 4.75534 14.3334 5V11C14.3334 11.5523 13.8856 12 13.3334 12H2.66669C2.1144 12 1.66669 11.5523 1.66669 11V5C1.66669 4.84184 1.7034 4.69226 1.76877 4.55932L3.31301 6.10355C3.50827 6.29882 3.82486 6.29882 4.02012 6.10355C4.21538 5.90829 4.21538 5.59171 4.02012 5.39645L2.62454 4.00087C2.63852 4.00029 2.65257 4 2.66669 4ZM2.66669 3C1.56212 3 0.666687 3.89543 0.666687 5V11C0.666687 12.1046 1.56212 13 2.66669 13H13.3334C14.4379 13 15.3334 12.1046 15.3334 11V5C15.3334 3.89543 14.4379 3 13.3334 3H2.66669Z"
    fill="var(--tbl--ui-node-icon--enrichment--findymail-secondary)"
  />
  <path
    fill-rule="evenodd"
    clip-rule="evenodd"
    d="M5.4808 5.88229C4.92291 6.44018 4.92291 7.3447 5.4808 7.90259L7.54502 9.96682C7.67288 10.0947 7.84061 10.1583 8.00818 10.1578C8.17445 10.1573 8.34057 10.0937 8.46743 9.96682L10.5317 7.90259C11.0896 7.3447 11.0896 6.44018 10.5317 5.88229C9.97377 5.32439 9.06925 5.32439 8.51135 5.88229L8.00623 6.38741L7.5011 5.88229C6.94321 5.32439 6.03869 5.32439 5.4808 5.88229Z"
    fill="var(--tbl--ui-node-icon--enrichment--findymail-primary)"
  />
</svg>
