<svg xmlns="http://www.w3.org/2000/svg" width="24" height="24" fill="none" viewBox="0 0 24 24">
  <path
    fill-rule="evenodd"
    clip-rule="evenodd"
    d="M4 6H19.5642L17.4697 8.09449C17.1768 8.38738 17.1768 8.86225 17.4697 9.15515C17.7626 9.44804 18.2374 9.44804 18.5303 9.15515L21.1494 6.53612C21.3682 6.7968 21.5 7.13301 21.5 7.5V16.5C21.5 17.3284 20.8284 18 20 18H4C3.17157 18 2.5 17.3284 2.5 16.5V7.5C2.5 7.26277 2.55507 7.0384 2.65313 6.83897L4.96949 9.15533C5.26238 9.44822 5.73725 9.44822 6.03015 9.15533C6.32304 8.86244 6.32304 8.38756 6.03015 8.09467L3.93679 6.00131C3.95775 6.00044 3.97882 6 4 6ZM4 4.5C2.34315 4.5 1 5.84315 1 7.5V16.5C1 18.1569 2.34315 19.5 4 19.5H20C21.6569 19.5 23 18.1569 23 16.5V7.5C23 5.84315 21.6569 4.5 20 4.5H4Z"
    fill="var(--tbl--ui-node-icon--enrichment--findymail-secondary)"
  />
  <path
    fill-rule="evenodd"
    clip-rule="evenodd"
    d="M15.7975 8.82343C16.6343 9.66027 16.6343 11.017 15.7975 11.8539L12.7012 14.9502C12.5101 15.1413 12.2597 15.2368 12.0093 15.2368C11.759 15.2368 11.5086 15.1413 11.3175 14.9502L8.2212 11.8539C7.38436 11.017 7.38436 9.66027 8.2212 8.82343C9.05803 7.98659 10.4148 7.98659 11.2517 8.82343L12.0093 9.58112L12.767 8.82343C13.6039 7.98659 14.9607 7.98659 15.7975 8.82343Z"
    fill="var(--tbl--ui-node-icon--enrichment--findymail-primary)"
  />
</svg>
