<svg width="16" height="16" viewBox="0 0 16 16" fill="none" xmlns="http://www.w3.org/2000/svg">
  <path
    fill-rule="evenodd"
    clip-rule="evenodd"
    d="M15.8893 2.64212V2.07959H14.9616C14.7978 2.07959 14.6651 2.12994 14.5632 2.23064C14.4577 2.32787 14.405 2.45461 14.405 2.61087V4.22553C14.405 4.32623 14.3558 4.37658 14.2576 4.37658H13.6299V5.00161H14.2576C14.3558 5.00161 14.405 5.05196 14.405 5.15266V6.76733C14.405 6.92358 14.4577 7.05033 14.5632 7.14755C14.6651 7.24826 14.7978 7.2986 14.9616 7.2986H15.8893V6.73608H15.2181C15.1198 6.73608 15.0708 6.68399 15.0708 6.57982V5.15266C15.0708 5.0346 15.0325 4.93564 14.9562 4.85578C14.876 4.7759 14.7725 4.73598 14.6451 4.73598H14.5578V4.64222H14.6451C14.7725 4.64222 14.876 4.60228 14.9562 4.52242C15.0325 4.44255 15.0708 4.34359 15.0708 4.22553V2.79838C15.0708 2.6942 15.1198 2.64212 15.2181 2.64212H15.8893ZM0.503662 3.75234V7.4677H1.2084V6.09579H1.30908C1.35009 6.15629 1.40417 6.21679 1.47127 6.27729C1.54212 6.33424 1.63348 6.3805 1.74535 6.41608C1.86094 6.45522 2.00262 6.4748 2.17042 6.4748C2.39415 6.4748 2.60109 6.42319 2.79126 6.32C2.98143 6.21324 3.13431 6.05842 3.2499 5.85558C3.3655 5.65273 3.42329 5.40717 3.42329 5.1189V5.03349C3.42329 4.74524 3.3655 4.49968 3.2499 4.29683C3.13431 4.09398 2.98143 3.94095 2.79126 3.83775C2.60109 3.73099 2.39415 3.67761 2.17042 3.67761C1.9206 3.67761 1.72856 3.71853 1.59432 3.80038C1.46009 3.87867 1.36128 3.96942 1.29789 4.07262H1.19721V3.75234H0.503662ZM2.50041 5.69009C2.35873 5.82176 2.17788 5.88761 1.95789 5.88761C1.74162 5.88761 1.56076 5.82176 1.41535 5.69009C1.26993 5.55485 1.19721 5.35913 1.19721 5.1029V5.04951C1.19721 4.79328 1.26993 4.59933 1.41535 4.46765C1.56076 4.33242 1.74162 4.2648 1.95789 4.2648C2.17415 4.2648 2.355 4.33242 2.50041 4.46765C2.64584 4.59933 2.71855 4.79328 2.71855 5.04951V5.1029C2.71855 5.35913 2.64584 5.55485 2.50041 5.69009ZM4.07039 3.75234V6.40007H4.77512V4.8947C4.77512 4.70609 4.83293 4.5673 4.94851 4.47833C5.0641 4.3858 5.21139 4.33953 5.39038 4.33953H5.73714V3.74166H5.40156C5.27478 3.74166 5.16292 3.76658 5.06597 3.8164C4.97275 3.86622 4.90563 3.9445 4.86461 4.05127H4.76394V3.75234H4.07039ZM6.76577 6.31466C6.98575 6.42142 7.23373 6.4748 7.50965 6.4748C7.78558 6.4748 8.03354 6.42142 8.25354 6.31466C8.47354 6.20789 8.64692 6.05309 8.7737 5.85024C8.90048 5.64738 8.96387 5.40361 8.96387 5.1189V5.03349C8.96387 4.7488 8.90048 4.50501 8.7737 4.30217C8.64692 4.09932 8.47354 3.9445 8.25354 3.83775C8.03354 3.73099 7.78558 3.67761 7.50965 3.67761C7.23373 3.67761 6.98575 3.73099 6.76577 3.83775C6.54577 3.9445 6.37237 4.09932 6.2456 4.30217C6.11882 4.50501 6.05543 4.7488 6.05543 5.03349V5.1189C6.05543 5.40361 6.11882 5.64738 6.2456 5.85024C6.37237 6.05309 6.54577 6.20789 6.76577 6.31466ZM8.04659 5.67941C7.9049 5.81109 7.72592 5.87693 7.50965 5.87693C7.29339 5.87693 7.1144 5.81109 6.97271 5.67941C6.83101 5.54418 6.76017 5.35201 6.76017 5.1029V5.04951C6.76017 4.8004 6.83101 4.61 6.97271 4.47833C7.1144 4.34309 7.29339 4.27548 7.50965 4.27548C7.72964 4.27548 7.90863 4.34309 8.04659 4.47833C8.18829 4.61 8.25914 4.8004 8.25914 5.04951V5.1029C8.25914 5.35201 8.18829 5.54418 8.04659 5.67941ZM9.48014 5.00146V5.08687C9.48014 5.36446 9.53794 5.6029 9.65354 5.8022C9.76912 5.99792 9.922 6.14918 10.1122 6.25594C10.3061 6.35915 10.5168 6.41074 10.7442 6.41074C10.9157 6.41074 11.0574 6.39118 11.1693 6.35203C11.2812 6.31288 11.3706 6.26483 11.4378 6.20789C11.5049 6.14739 11.5571 6.08868 11.5944 6.03174H11.695V6.72036C11.695 6.82713 11.6428 6.88051 11.5384 6.88051H9.9276V7.4677H11.7845C11.971 7.4677 12.1201 7.41253 12.232 7.30222C12.3439 7.19546 12.3998 7.05132 12.3998 6.86983V3.75234H11.7062V4.07262H11.6056C11.5459 3.98009 11.4508 3.89112 11.3203 3.80572C11.1898 3.72031 10.9978 3.67761 10.7442 3.67761C10.5168 3.67761 10.3061 3.73099 10.1122 3.83775C9.922 3.94095 9.76912 4.0922 9.65354 4.2915C9.53794 4.48722 9.48014 4.72389 9.48014 5.00146ZM11.4881 5.62603C11.3427 5.75771 11.1618 5.82355 10.9456 5.82355C10.7293 5.82355 10.5485 5.75771 10.403 5.62603C10.2576 5.49435 10.1849 5.30931 10.1849 5.07087V5.01748C10.1849 4.77548 10.2576 4.59042 10.403 4.46231C10.5485 4.33064 10.7293 4.2648 10.9456 4.2648C11.1656 4.2648 11.3464 4.33064 11.4881 4.46231C11.6335 4.59042 11.7062 4.77548 11.7062 5.01748V5.07087C11.7062 5.30931 11.6335 5.49435 11.4881 5.62603ZM0.565321 12.1994C0.669726 12.2919 0.796505 12.3382 0.945656 12.3382C1.09853 12.3382 1.22531 12.2919 1.32599 12.1994C1.42667 12.1033 1.477 11.9805 1.477 11.8311C1.477 11.6816 1.42667 11.5606 1.32599 11.4681C1.22531 11.372 1.09853 11.324 0.945656 11.324C0.796505 11.324 0.669726 11.372 0.565321 11.4681C0.464644 11.5606 0.414307 11.6816 0.414307 11.8311C0.414307 11.9805 0.464644 12.1033 0.565321 12.1994ZM2.49972 12.2421C2.65633 12.3062 2.83344 12.3382 3.03107 12.3382C3.22496 12.3382 3.37785 12.3115 3.48971 12.2581C3.60157 12.2047 3.68361 12.1443 3.73581 12.0766C3.78802 12.0055 3.82157 11.9485 3.83648 11.9058H3.94275V11.9111C3.94275 12.0179 3.9875 12.1033 4.07699 12.1674C4.16648 12.2314 4.28021 12.2635 4.41817 12.2635H4.888V11.7083H4.66427C4.55987 11.7083 4.50766 11.6549 4.50766 11.5482V10.5606C4.50766 10.2296 4.40138 9.97697 4.18886 9.80258C3.97631 9.6282 3.68734 9.54102 3.32191 9.54102C3.08327 9.54102 2.88006 9.5766 2.71226 9.64778C2.54819 9.71539 2.41583 9.80614 2.31515 9.92002C2.2182 10.0303 2.14735 10.1531 2.1026 10.2883L2.75142 10.4965C2.77751 10.3755 2.83344 10.2777 2.9192 10.2029C3.00496 10.1246 3.13547 10.0855 3.31073 10.0855C3.48971 10.0855 3.62022 10.1264 3.70225 10.2083C3.78429 10.2866 3.8253 10.388 3.8253 10.5126V10.662H3.06463C2.85581 10.662 2.66938 10.694 2.50532 10.7581C2.34498 10.8186 2.2182 10.9111 2.12498 11.0357C2.03549 11.1567 1.99074 11.3079 1.99074 11.4894C1.99074 11.6709 2.03549 11.8257 2.12498 11.9538C2.2182 12.0784 2.34311 12.1745 2.49972 12.2421ZM3.63513 11.6389C3.51208 11.7421 3.35174 11.7937 3.15412 11.7937C3.00496 11.7937 2.89124 11.7635 2.81294 11.703C2.73463 11.6425 2.69549 11.5642 2.69549 11.4681C2.69549 11.372 2.73277 11.2973 2.80734 11.2439C2.88191 11.1905 2.98446 11.1638 3.11497 11.1638H3.8253V11.2172C3.8253 11.3916 3.76191 11.5321 3.63513 11.6389ZM5.40327 9.61575V12.2635H6.108V9.61575H5.40327ZM5.43123 9.18869C5.52072 9.26699 5.62886 9.30613 5.75564 9.30613C5.88614 9.30613 5.99428 9.26699 6.08003 9.18869C6.16579 9.1104 6.20868 9.00719 6.20868 8.87907C6.20868 8.75096 6.16579 8.64776 6.08003 8.56947C5.99428 8.49118 5.88614 8.45203 5.75564 8.45203C5.62886 8.45203 5.52072 8.49118 5.43123 8.56947C5.34547 8.64776 5.30259 8.75096 5.30259 8.87907C5.30259 9.00719 5.34547 9.1104 5.43123 9.18869ZM7.14038 12.9378V12.3752H7.81163C7.90987 12.3752 7.95898 12.3231 7.95898 12.219V10.7918C7.95898 10.6738 7.99719 10.5748 8.0736 10.4949C8.15364 10.4151 8.25733 10.3751 8.38466 10.3751H8.47199V10.2814H8.38466C8.25733 10.2814 8.15364 10.2414 8.0736 10.1616C7.99719 10.0817 7.95898 9.98276 7.95898 9.8647V8.43755C7.95898 8.33337 7.90987 8.28128 7.81163 8.28128H7.14038V7.71875H8.06813C8.23186 7.71875 8.36465 7.76911 8.46652 7.8698C8.57204 7.96703 8.62479 8.09378 8.62479 8.25003V9.8647C8.62479 9.96539 8.67391 10.0157 8.77214 10.0157H9.39974V10.6408H8.77214C8.67391 10.6408 8.62479 10.6911 8.62479 10.7918V12.4065C8.62479 12.5627 8.57204 12.6895 8.46652 12.7867C8.36465 12.8874 8.23186 12.9378 8.06813 12.9378H7.14038Z"
    fill="var(--tbl--ui-node-icon--enrichment--progai)"
  />
</svg>
