<svg width="24" height="24" viewBox="0 0 24 24" fill="none" xmlns="http://www.w3.org/2000/svg">
  <rect x="1.5" y="1.5" width="21" height="21" rx="8" fill="var(--tbl--ui-node-icon--enrichment--bouncer-secondary)"/>
  <path
    d="M12.7281 5.88423H2.49271H0.445625V7.93132L-2.625 13.049L5.22215 24.308L15.7988 21.5785L14.0928 11.3431L12.7281 5.88423Z"
    fill="white"
  />
  <path
    d="M9.37683 1.51385C8.53302 1.57682 5.94318 1.71849 5.40458 1.82868C3.42971 2.23796 1.29327 4.83973 0.521279 6.02034L0.19812 6.49259L5.39119 6.55555C9.35887 6.65 10.6515 6.85464 11.8544 7.61023C12.5546 8.03525 13.147 9.12141 13.147 9.92423C13.147 10.6011 12.4648 11.9706 11.8903 12.4271C11.5671 12.6947 11.5671 12.6947 11.9082 13.1827C12.5725 14.1429 12.9854 15.6699 13.0932 17.5431C13.1829 19.196 12.2534 22.3693 11.9123 23.1406C11.8046 23.3767 11.9482 23.3925 13.4024 23.298C15.1977 23.1721 17.1686 22.3072 17.779 22.0396C18.3355 21.7877 18.8921 19.4006 18.8921 18.0311C18.8921 16.7403 18.5869 15.8115 17.5276 13.8124C16.7556 12.3484 16.7377 12.254 16.8634 11.341C17.0608 9.9872 16.989 9.65663 16.3607 9.1529C15.8939 8.7751 15.7862 8.53898 15.6425 7.62597C15.1433 4.20394 12.8382 1.27299 9.37683 1.51385Z"
    fill="var(--tbl--ui-node-icon--enrichment--bouncer-primary)"
  />
  <path
    d="M1.38771 8.3973C0.813203 8.50749 0.74139 8.68065 0.490044 10.3965L0.382324 11.215L1.24408 10.9789C2.17765 10.7113 5.51697 10.6011 6.36077 10.8215C6.82756 10.9317 6.84551 10.9159 6.73779 10.4122C6.5403 9.32605 8.08429 8.66491 8.87423 9.4992C9.25125 9.90848 9.34102 10.4909 8.98195 10.1761C8.64084 9.877 7.97657 9.95571 7.76113 10.302C7.47388 10.7743 7.79704 11.1363 8.82037 11.4669L9.71804 11.7502L10.1669 11.2937C11.28 10.1918 11.2261 9.34179 10.0232 8.86954C8.73061 8.36582 3.16509 8.06673 1.38771 8.3973Z"
    fill="var(--tbl--ui-node-icon--enrichment--bouncer-primary)"
  />
  <path
    d="M2.17755 11.5928C1.20807 11.8132 0.615609 12.8522 1.20807 13.2929C1.62099 13.592 2.62638 13.3559 3.52404 12.742L4.31399 12.2068L4.6551 12.5373C5.35528 13.23 6.95312 13.529 7.41991 13.0411C7.6174 12.8364 7.59944 12.7105 7.33014 12.2697C7.0788 11.8604 6.82745 11.703 6.21704 11.5771C5.30142 11.3725 3.07521 11.3725 2.17755 11.5928Z"
    fill="var(--tbl--ui-node-icon--enrichment--bouncer-primary)"
  />
  <path
    d="M10.0053 15.0875C9.70009 15.2764 9.68214 15.3551 9.87963 15.7329C10.0053 15.9847 10.0412 16.2208 9.96939 16.2996C9.70009 16.5199 6.77371 17.0394 5.33744 17.1339C4.5475 17.1811 3.27281 17.1653 2.50082 17.1024L1.10046 16.9764L1.20818 17.37C1.28 17.5904 1.42362 17.8265 1.53134 17.9052C1.65702 17.9682 3.03942 17.9996 4.61931 17.9524C6.7378 17.9052 7.86886 17.795 8.91015 17.5589C9.68214 17.37 10.3464 17.2283 10.3823 17.2283C10.4003 17.2283 10.4541 17.4959 10.49 17.8107C10.5439 18.3302 10.5978 18.4089 10.9927 18.4089C11.4236 18.4089 11.4416 18.3774 11.3877 17.4802C11.3338 16.5672 10.7414 14.8671 10.4721 14.8671C10.4003 14.8671 10.1848 14.9615 10.0053 15.0875Z"
    fill="var(--tbl--ui-node-icon--enrichment--bouncer-primary)"
  />
</svg>
