<svg xmlns="http://www.w3.org/2000/svg" width="32" height="32" fill="none" viewBox="0 0 32 32">
  <path fill="var(--tbl--colors--icons--clean--secondary)" fill-rule="evenodd" d="M10 10H8a4 4 0 0 0-4 4v10a4 4 0 0 0 4 4h10a4 4 0 0 0 4-4v-2h-8a4 4 0 0 1-4-4v-8Z" clip-rule="evenodd"/>
  <path fill="var(--tbl--colors--icons--clean--primary)" fill-rule="evenodd" d="M14 4a4 4 0 0 0-4 4v10a4 4 0 0 0 4 4h10a4 4 0 0 0 4-4V8a4 4 0 0 0-4-4H14Zm0 5a1 1 0 0 1 1-1h8a1 1 0 1 1 0 2h-3v7a1 1 0 1 1-2 0v-7h-3a1 1 0 0 1-1-1Z" clip-rule="evenodd"/>
</svg>
