<svg xmlns="http://www.w3.org/2000/svg" width="24" height="24" fill="none" viewBox="0 0 24 24">
  <path fill="var(--tbl--colors--icons--clean--secondary)" fill-rule="evenodd" d="M7 5H6a3 3 0 0 0-3 3v10a3 3 0 0 0 3 3h10a3 3 0 0 0 3-3v-1h-9a3 3 0 0 1-3-3V5Z" clip-rule="evenodd"/>
  <path fill="var(--tbl--colors--icons--clean--primary)" fill-rule="evenodd" d="M10 1a3 3 0 0 0-3 3v10a3 3 0 0 0 3 3h10a3 3 0 0 0 3-3V4a3 3 0 0 0-3-3H10Zm1 5a1 1 0 0 1 1-1h6a1 1 0 1 1 0 2h-2v5a1 1 0 1 1-2 0V7h-2a1 1 0 0 1-1-1Z" clip-rule="evenodd"/>
</svg>
