<svg xmlns="http://www.w3.org/2000/svg" width="24" height="24" fill="none" viewBox="0 0 24 24">
  <path
    fill="var(--tbl--colors--icons--clean--primary)"
    fill-rule="evenodd"
    d="M11 3C11 2.44772 10.5523 2 10 2C9.44772 2 9 2.44772 9 3V21C9 21.5523 9.44772 22 10 22C10.5523 22 11 21.5523 11 21V3ZM19.2929 9.29289C19.5789 9.0069 20.009 8.92134 20.3827 9.07612C20.7564 9.2309 21 9.59554 21 10V14C21 14.4045 20.7564 14.7691 20.3827 14.9239C20.009 15.0787 19.5789 14.9931 19.2929 14.7071L17.2929 12.7071C16.9024 12.3166 16.9024 11.6834 17.2929 11.2929L19.2929 9.29289ZM14 2C14.5523 2 15 2.44772 15 3V21C15 21.5523 14.5523 22 14 22C13.4477 22 13 21.5523 13 21V3C13 2.44772 13.4477 2 14 2ZM4.70711 9.29289C4.42111 9.0069 3.99099 8.92134 3.61732 9.07612C3.24364 9.2309 3 9.59554 3 10V14C3 14.4045 3.24364 14.7691 3.61732 14.9239C3.99099 15.0787 4.42111 14.9931 4.70711 14.7071L6.70711 12.7071C7.09763 12.3166 7.09763 11.6834 6.70711 11.2929L4.70711 9.29289Z"
    clip-rule="evenodd"
  />
</svg>
