<svg xmlns="http://www.w3.org/2000/svg" width="16" height="16" fill="none" viewBox="0 0 16 16">
  <path fill="currentColor" fill-rule="evenodd" d="M5 5V3H2v10h3v-2h1v2a1 1 0 0 1-1 1H2a1 1 0 0 1-1-1V3a1 1 0 0 1 1-1h3a1 1 0 0 1 1 1v2H5Zm5 6v2a1 1 0 0 0 1 1h3a1 1 0 0 0 1-1V3a1 1 0 0 0-1-1h-3a1 1 0 0 0-1 1v2h1V3h3v10h-3v-2h-1ZM5.146 6.146a.5.5 0 0 1 .708 0l1.5 1.5a.5.5 0 0 1 0 .708l-1.5 1.5a.5.5 0 0 1-.708-.708L6.293 8 5.146 6.854a.5.5 0 0 1 0-.708Zm5 0a.5.5 0 0 1 .708.708L9.707 8l1.147 1.146a.5.5 0 0 1-.708.708l-1.5-1.5a.5.5 0 0 1 0-.708l1.5-1.5Z" clip-rule="evenodd"/>
</svg>
