<svg width="32" height="32" viewBox="0 0 32 32" fill="none" xmlns="http://www.w3.org/2000/svg">
  <rect
    x="5"
    y="8"
    width="21"
    height="15"
    rx="2"
    stroke="var(--tbl--ui-node-icon--enrichment--mails-secondary)"
    stroke-opacity="0.8"
  />
  <path
    d="M4.12815 11.6468C2.68217 12.622 1.13531 15.5812 1.03442 17.6325C0.933542 18.944 1.03442 19.1457 1.60609 19.1457C2.1105 19.1457 2.31227 18.8431 2.51403 17.7334C2.95119 15.0432 4.66619 12.5884 6.04492 12.5884C8.12982 12.5884 8.86962 13.7653 9.13864 17.4643C9.30678 19.8183 9.40766 20.1545 9.97933 20.1545C10.4165 20.1545 10.9882 19.4484 11.8288 17.8006C13.4766 14.6733 14.8553 14.4042 14.8889 17.1953C14.8889 18.7422 15.4606 19.9864 16.1332 19.9864C16.4358 19.9864 17.2429 19.4484 17.9154 18.8094L19.126 17.6325L20.5047 18.1705C21.8162 18.6749 22.0852 18.6749 24.1029 18.1705C25.3135 17.8679 27.2638 17.6325 28.4744 17.6325C30.5593 17.6325 31.4337 17.229 30.7947 16.59C30.3239 16.1192 26.3895 16.1192 23.9347 16.6237C21.9843 17.0272 21.5472 16.9936 20.3366 16.5228C19.0251 15.9847 18.9579 15.9847 17.8145 16.7918C16.5367 17.6325 16.234 17.4643 16.234 15.8166C16.234 14.606 15.2925 13.5972 14.1491 13.5972C13.443 13.5972 12.804 13.9335 11.9634 14.7741C11.2908 15.4467 10.7191 15.9175 10.6855 15.8839C10.6519 15.8166 10.4501 15.1777 10.2484 14.4379C9.40766 11.445 6.41482 10.0999 4.12815 11.6468Z"
    fill="var(--tbl--ui-node-icon--enrichment--mails-primary)"
  />
</svg>

