<svg width="24" height="24" viewBox="0 0 24 24" fill="none" xmlns="http://www.w3.org/2000/svg">
  <rect
    x="3.19995"
    y="6"
    width="16.8"
    height="12"
    rx="2"
    stroke="var(--tbl--ui-node-icon--enrichment--mails-secondary)"
    stroke-opacity="0.8"
  />
  <path
    d="M2.50252 8.91743C1.34574 9.69759 0.108245 12.065 0.0275392 13.706C-0.0531667 14.7552 0.0275392 14.9166 0.484873 14.9166C0.888402 14.9166 1.04981 14.6745 1.21123 13.7867C1.56095 11.6345 2.93295 9.67069 4.03593 9.67069C5.70386 9.67069 6.2957 10.6123 6.51092 13.5715C6.64542 15.4546 6.72613 15.7236 7.18346 15.7236C7.53319 15.7236 7.99052 15.1587 8.66307 13.8405C9.98127 11.3386 11.0843 11.1234 11.1112 13.3563C11.1112 14.5937 11.5685 15.5891 12.1065 15.5891C12.3486 15.5891 12.9943 15.1587 13.5323 14.6476L14.5008 13.706L15.6038 14.1364C16.653 14.5399 16.8682 14.5399 18.4823 14.1364C19.4508 13.8943 21.0111 13.706 21.9796 13.706C23.6475 13.706 24.3469 13.3832 23.8358 12.872C23.4592 12.4954 20.3116 12.4954 18.3478 12.8989C16.7875 13.2217 16.4377 13.1948 15.4693 12.8182C14.4201 12.3878 14.3663 12.3878 13.4516 13.0334C12.4293 13.706 12.1872 13.5715 12.1872 12.2533C12.1872 11.2848 11.434 10.4777 10.5193 10.4777C9.95437 10.4777 9.44323 10.7468 8.77068 11.4193C8.23264 11.9574 7.77531 12.334 7.74841 12.3071C7.7215 12.2533 7.56009 11.7421 7.39868 11.1503C6.72613 8.75602 4.33186 7.67994 2.50252 8.91743Z"
    fill="var(--tbl--ui-node-icon--enrichment--mails-primary)"
  />
</svg>
