<svg width="32" height="32" viewBox="0 0 32 32" fill="none" xmlns="http://www.w3.org/2000/svg">
  <rect x="2" y="2" width="28" height="28" rx="4" fill="var(--tbl--ui-node-icon--enrichment--perplexity-secondary)" />
  <path
    d="M16.5 21.0479L21.793 25.2168L22.6025 25.8545V20.5176H24.999V12.208H22.6025V6.53027L21.7812 7.2168L16.5 11.6377V6H15.5V11.7383L10.2188 7.31738L9.39746 6.63086V12.3086H7V20.6182H9.39746V25.9551L10.207 25.3174L15.5 21.1484V26.126H16.5V21.0479ZM21.6025 8.67188V12.208H17.376L21.6025 8.67188ZM10.3975 12.3086V8.77246L14.624 12.3086H10.3975ZM22.6025 17.4775L22.4189 17.3281L17.3984 13.208H23.999V19.5176H22.6025V17.4775ZM8.00098 19.6182V13.3086H14.6016L9.58105 17.4287L9.39746 17.5781V19.6182H8.00098ZM16.5 19.7754V13.7646L21.6025 17.9512V23.7949L16.5 19.7754ZM10.3975 18.0518L15.5 13.8652V19.8447L15.4346 19.9268L10.3975 23.8955V18.0518Z"
    fill="var(--tbl--ui-node-icon--enrichment--perplexity-primary)"
  />
</svg>
