<svg width="24" height="24" viewBox="0 0 24 24" fill="none" xmlns="http://www.w3.org/2000/svg">
  <rect x="1.5" y="1.5" width="21" height="21" rx="3" fill="var(--tbl--ui-node-icon--enrichment--perplexity-secondary)" />
  <path
    d="M12.3755 15.7859L16.3452 18.9128L16.9517 19.3904V15.3884H18.7495V9.15503H16.9517V4.89722L16.3364 5.41284L12.3755 8.72827V4.49976H11.6255V8.80347L7.66455 5.48804L7.04932 4.97241V9.23022H5.25146V15.4636H7.04932V19.4656L7.65576 18.988L11.6255 15.8611V19.5945H12.3755V15.7859ZM16.2017 6.50464V9.15503H13.0327L16.2017 6.50464ZM7.79932 9.23022V6.57983L10.9683 9.23022H7.79932ZM16.9517 13.1082L16.8149 12.9958L13.0483 9.90503H17.9995V14.6384H16.9517V13.1082ZM6.00146 14.7136V9.98022H10.9526L7.18604 13.071L7.04932 13.1833V14.7136H6.00146ZM12.3755 14.8318V10.324L16.2017 13.4636V17.8455L12.3755 14.8318ZM7.79932 13.5388L11.6255 10.3992V14.8835L11.5786 14.9431L7.79932 17.9207V13.5388Z"
    fill="var(--tbl--ui-node-icon--enrichment--perplexity-primary)"
  />
</svg>
