<svg width="16" height="16" viewBox="0 0 16 16" fill="none" xmlns="http://www.w3.org/2000/svg">
  <rect x="1" y="1" width="14" height="14" rx="2" fill="var(--tbl--ui-node-icon--enrichment--perplexity-secondary)" />
  <path
    d="M8.25 10.5249L10.8965 12.6089L11.3008 12.9282V10.2593H12.5V6.104H11.3008V3.26514L10.8906 3.60889L8.25 5.81982V2.99951H7.75V5.86963L5.10938 3.65869L4.69922 3.31494V6.15381H3.5V10.3091H4.69922V12.978L5.10352 12.6587L7.75 10.5747V13.063H8.25V10.5249ZM10.8008 4.3374V6.104H8.68848L10.8008 4.3374ZM5.19922 6.15381V4.38721L7.31152 6.15381H5.19922ZM11.3008 8.73975L11.21 8.66455L8.69824 6.604H12V9.75928H11.3008V8.73975ZM4 9.80908V6.65381H7.30176L4.79004 8.71436L4.69922 8.78955V9.80908H4ZM8.25 9.88916V6.8833L10.8008 8.97607V11.8979L8.25 9.88916ZM5.19922 9.02588L7.75 6.93311V9.92334L7.71777 9.96338L5.19922 11.9478V9.02588Z"
    fill="var(--tbl--ui-node-icon--enrichment--perplexity-primary)"
  />
</svg>
