<svg xmlns="http://www.w3.org/2000/svg" width="32" height="32" fill="none" viewBox="0 0 32 32">
  <path
    fill-rule="evenodd"
    clip-rule="evenodd"
    d="M5.75787 11.7046C5.99164 11.4717 6.37066 11.4717 6.60443 11.7046L12.8344 17.9106C13.0682 18.1434 13.0682 18.521 12.8344 18.7539C12.6006 18.9867 12.2216 18.9867 11.9878 18.7539L5.75787 12.5479C5.5241 12.315 5.5241 11.9375 5.75787 11.7046ZM14.3038 13.69C14.5282 13.4664 14.8865 13.4575 15.1216 13.6632L15.1503 13.69L15.9798 14.5163C16.2136 14.7491 16.2136 15.1267 15.9798 15.3596C15.7554 15.5831 15.3971 15.5921 15.162 15.3864L15.1332 15.3596L14.3038 14.5333C14.07 14.3004 14.07 13.9229 14.3038 13.69ZM3.77045 16.4696C4.00423 16.2367 4.38324 16.2367 4.61701 16.4696L9.35717 21.1915C9.59094 21.4243 9.59094 21.8019 9.35717 22.0348C9.1234 22.2676 8.74438 22.2676 8.51061 22.0348L3.77045 17.3129C3.53668 17.08 3.53668 16.7024 3.77045 16.4696ZM17.2849 3.16735C17.5187 2.93448 17.8977 2.93448 18.1315 3.16735L22.8716 7.88927C23.1054 8.12214 23.1054 8.4997 22.8716 8.73257C22.6378 8.96544 22.2588 8.96544 22.0251 8.73257L17.2849 4.01066C17.0511 3.77778 17.0511 3.40023 17.2849 3.16735ZM3.17423 2.57173C3.408 2.33886 3.78702 2.33886 4.02079 2.57173L13.1918 11.7075C13.4256 11.9404 13.4256 12.3179 13.1918 12.5508C12.9581 12.7837 12.5791 12.7837 12.3453 12.5508L3.17423 3.41503C2.94046 3.18216 2.94046 2.8046 3.17423 2.57173ZM9.53397 2.17465C9.76774 1.94178 10.1468 1.94178 10.3805 2.17465L14.6551 6.4328C14.8889 6.66567 14.8889 7.04323 14.6551 7.2761C14.4214 7.50897 14.0423 7.50897 13.8086 7.2761L9.53397 3.01795C9.30019 2.78508 9.30019 2.40752 9.53397 2.17465ZM23.8546 9.72603L30 15.8478L24.4149 21.4112L29.0567 26.035C29.6736 26.6496 29.6736 27.6459 29.0567 28.2604C28.4398 28.8749 27.4397 28.8749 26.8228 28.2604L22.1809 23.6366L16.5961 29.2L10.4507 23.0783L23.8546 9.72603Z"
    fill="var(--tbl--ui-node-icon--enrichment--cleanify-primary)"
  />
  <path
    fill-rule="evenodd"
    clip-rule="evenodd"
    d="M10.4508 23.0784L23.8547 9.72612L25.5307 11.3957L12.1268 24.7479L10.4508 23.0784Z"
    fill="var(--tbl--ui-node-icon--enrichment--cleanify-secondary)"
  />
  <path
    fill-rule="evenodd"
    clip-rule="evenodd"
    d="M17.3378 9.9789L16.8168 11.2906L16.2917 9.97729L14.9733 9.45418L16.29 8.93512L16.8111 7.62342L17.3362 8.93674L18.6546 9.45985L17.3378 9.9789Z"
    fill="var(--tbl--ui-node-icon--enrichment--cleanify-tertiary)"
  />
  <path
    fill-rule="evenodd"
    clip-rule="evenodd"
    d="M4.36458 10.3759L3.84352 11.6876L3.31839 10.3743L2 9.85116L3.31677 9.33211L3.83783 8.02041L4.36296 9.33372L5.68135 9.85683L4.36458 10.3759Z"
    fill="var(--tbl--ui-node-icon--enrichment--cleanify-tertiary)"
  />
</svg>
