<svg xmlns="http://www.w3.org/2000/svg" width="24" height="24" fill="none" viewBox="0 0 24 24">
  <path fill="var(--tbl--colors--icons--clean--secondary)" d="M5.5 5h13a2 2 0 0 1 2 2v3.66a1 1 0 0 0 .316.73L22 12.5l-1.184 1.11a1 1 0 0 0-.316.73V18a2 2 0 0 1-2 2h-13a2 2 0 0 1-2-2v-3.66a1 1 0 0 0-.316-.73L2 12.5l1.184-1.11a1 1 0 0 0 .316-.73V7a2 2 0 0 1 2-2Z"/>
  <path fill="var(--tbl--colors--icons--clean--primary)" fill-rule="evenodd" d="M6.5 4a1 1 0 1 1 0 2h-1a1 1 0 0 0-1 1v3.586A2 2 0 0 1 3.914 12l-.5.5.5.5a2 2 0 0 1 .586 1.414V18a1 1 0 0 0 1 1h1a1 1 0 1 1 0 2h-1a3 3 0 0 1-3-3v-3.586l-.5-.5a2 2 0 0 1 0-2.828l.5-.5V7a3 3 0 0 1 3-3h1ZM18 4a1 1 0 1 0 0 2h1a1 1 0 0 1 1 1v3.586A2 2 0 0 0 20.586 12l.5.5-.5.5A2 2 0 0 0 20 14.414V18a1 1 0 0 1-1 1h-1a1 1 0 1 0 0 2h1a3 3 0 0 0 3-3v-3.586l.5-.5a2 2 0 0 0 0-2.828l-.5-.5V7a3 3 0 0 0-3-3h-1Z" clip-rule="evenodd"/>
</svg>
