<svg xmlns="http://www.w3.org/2000/svg" width="16" height="16" fill="none" viewBox="0 0 16 16">
  <path fill="currentColor" fill-rule="evenodd" d="M5 3a2.5 2.5 0 0 0-2.5 2.5v1.086a.5.5 0 0 1-.146.353L1.146 8.146a.5.5 0 0 0 0 .708l1.208 1.207a.5.5 0 0 1 .146.353V11.5A2.5 2.5 0 0 0 5 14h1a.5.5 0 0 0 0-1H5a1.5 1.5 0 0 1-1.5-1.5v-1.086a1.5 1.5 0 0 0-.44-1.06L2.208 8.5l.854-.854a1.5 1.5 0 0 0 .439-1.06V5.5A1.5 1.5 0 0 1 5 4h1a.5.5 0 0 0 0-1H5Zm6 0a2.5 2.5 0 0 1 2.5 2.5v1.086a.5.5 0 0 0 .146.353l1.208 1.207a.5.5 0 0 1 0 .708l-1.208 1.207a.5.5 0 0 0-.146.353V11.5A2.5 2.5 0 0 1 11 14h-1a.5.5 0 0 1 0-1h1a1.5 1.5 0 0 0 1.5-1.5v-1.086c0-.398.158-.78.44-1.06l.853-.854-.854-.854a1.5 1.5 0 0 1-.439-1.06V5.5A1.5 1.5 0 0 0 11 4h-1a.5.5 0 0 1 0-1h1Z" clip-rule="evenodd"/>
</svg>
