<svg xmlns="http://www.w3.org/2000/svg" width="32" height="32" fill="none" viewBox="0 0 32 32">
  <path fill="var(--tbl--colors--icons--clean--secondary)" d="M6.5 6H25a2 2 0 0 1 2 2v5.586a1 1 0 0 0 .293.707L28.5 15.5l-1.207 1.207a1 1 0 0 0-.293.707V24a2 2 0 0 1-2 2H6.5a2 2 0 0 1-2-2v-6.586a1 1 0 0 0-.293-.707L3 15.5l1.207-1.207a1 1 0 0 0 .293-.707V8a2 2 0 0 1 2-2Z"/>
  <path fill="var(--tbl--colors--icons--clean--primary)" fill-rule="evenodd" d="M7.5 4a1 1 0 1 1 0 2h-1a1 1 0 0 0-1 1v6.586A2 2 0 0 1 4.914 15l-.5.5.5.5a2 2 0 0 1 .586 1.414V25a1 1 0 0 0 1 1h1a1 1 0 1 1 0 2h-1a3 3 0 0 1-3-3v-7.586l-.5-.5a2 2 0 0 1 0-2.828l.5-.5V7a3 3 0 0 1 3-3h1ZM24 4a1 1 0 1 0 0 2h1a1 1 0 0 1 1 1v6.586A2 2 0 0 0 26.586 15l.5.5-.5.5A2 2 0 0 0 26 17.414V25a1 1 0 0 1-1 1h-1a1 1 0 1 0 0 2h1a3 3 0 0 0 3-3v-7.586l.5-.5a2 2 0 0 0 0-2.828l-.5-.5V7a3 3 0 0 0-3-3h-1Z" clip-rule="evenodd"/>
</svg>
