<svg xmlns="http://www.w3.org/2000/svg" width="24" height="24" fill="none" viewBox="0 0 24 24">
  <path
    fill="var(--tbl--colors--icons--clean--secondary)"
    d="M5.5 4H6.5H17.5C18.6046 4 19.5 4.89543 19.5 6V10.6605C19.5 10.9369 19.6144 11.201 19.8161 11.3901L21 12.5L19.8161 13.6099C19.6144 13.799 19.5 14.0631 19.5 14.3395V18C19.5 19.1046 18.6046 20 17.5 20H6.5H5.5C4.39543 20 3.5 19.1046 3.5 18V14.3395C3.5 14.0631 3.38559 13.799 3.18394 13.6099L2 12.5L3.18394 11.3901C3.38559 11.201 3.5 10.9369 3.5 10.6605V6C3.5 4.89543 4.39543 4 5.5 4Z"
  />
  <path
    fill="var(--tbl--colors--icons--clean--primary)"
    fill-rule="evenodd"
    d="M6.99997 3C7.55226 3 7.99997 3.44772 7.99997 4C7.99997 4.55228 7.55226 5 6.99997 5H5.99997C5.44769 5 4.99997 5.44772 4.99997 6V10.0858C4.99997 10.6162 4.78926 11.1249 4.41418 11.5L3.91418 12L4.41418 12.5C4.78926 12.8751 4.99997 13.3838 4.99997 13.9142V18C4.99997 18.5523 5.44769 19 5.99997 19H6.99997C7.55226 19 7.99997 19.4477 7.99997 20C7.99997 20.5523 7.55226 21 6.99997 21H5.99997C4.34312 21 2.99997 19.6569 2.99997 18V13.9142L2.49997 13.4142C1.71892 12.6332 1.71892 11.3668 2.49997 10.5858L2.99997 10.0858V6C2.99997 4.34315 4.34312 3 5.99997 3H6.99997ZM17 3C16.4477 3 16 3.44772 16 4C16 4.55228 16.4477 5 17 5H18C18.5523 5 19 5.44772 19 6V10.0858C19 10.6162 19.2107 11.1249 19.5858 11.5L20.0858 12L19.5858 12.5C19.2107 12.8751 19 13.3838 19 13.9142V18C19 18.5523 18.5523 19 18 19H17C16.4477 19 16 19.4477 16 20C16 20.5523 16.4477 21 17 21H18C19.6569 21 21 19.6569 21 18V13.9142L21.5 13.4142C22.281 12.6332 22.281 11.3668 21.5 10.5858L21 10.0858V6C21 4.34315 19.6569 3 18 3H17Z"
    clip-rule="evenodd"
  />
</svg>
