<svg xmlns="http://www.w3.org/2000/svg" width="32" height="32" fill="none" viewBox="0 0 32 32">
  <path fill="var(--tbl--colors--icons--transformation--secondary)" fill-rule="evenodd" d="M11 27C4.925 27 0 22.075 0 16S4.925 5 11 5c1.8 0 3.5.433 5 1.2 1.5-.767 3.2-1.2 5-1.2 6.075 0 11 4.925 11 11s-4.925 11-11 11c-1.8 0-3.5-.433-5-1.2-1.5.767-3.2 1.2-5 1.2Z" clip-rule="evenodd"/>
  <path fill="var(--tbl--colors--icons--transformation--primary)" fill-rule="evenodd" d="M16 25.8a11 11 0 0 1-6-9.8 11 11 0 0 1 6-9.8 11 11 0 0 1 6 9.8 11 11 0 0 1-6 9.8Z" clip-rule="evenodd"/>
</svg>
