<svg width="32" height="32" viewBox="0 0 32 32" fill="none" xmlns="http://www.w3.org/2000/svg">
  <path
    d="M16 2L28 8.9282M16 2L4 8.9282M16 2V29.7128M28 8.9282V22.7846M28 8.9282L4 22.7846M28 22.7846L16 29.7128M28 22.7846L4 8.9282M16 29.7128L4 22.7846M4 22.7846V8.9282"
    stroke="var(--tbl--colors--icons--enrich--tertiary)"
  />
  <circle cx="16" cy="16" r="7" fill="var(--tbl--colors--icons--enrich--tertiary)" />
  <path
    fill-rule="evenodd"
    clip-rule="evenodd"
    d="M17.6667 2.5C17.6667 3.32843 16.9951 4 16.1667 4C15.3382 4 14.6667 3.32843 14.6667 2.5C14.6667 1.67157 15.3382 1 16.1667 1C16.9951 1 17.6667 1.67157 17.6667 2.5ZM20 15.9999C20 18.2091 18.2091 19.9999 16 19.9999C13.7909 19.9999 12 18.2091 12 15.9999C12 13.7908 13.7909 11.9999 16 11.9999C18.2091 11.9999 20 13.7908 20 15.9999ZM16.1667 30.9999C16.9951 30.9999 17.6667 30.3283 17.6667 29.4999C17.6667 28.6715 16.9951 27.9999 16.1667 27.9999C15.3382 27.9999 14.6667 28.6715 14.6667 29.4999C14.6667 30.3283 15.3382 30.9999 16.1667 30.9999ZM29 9.49992C29 10.3283 28.3284 10.9999 27.5 10.9999C26.6716 10.9999 26 10.3283 26 9.49992C26 8.67149 26.6716 7.99992 27.5 7.99992C28.3284 7.99992 29 8.67149 29 9.49992ZM27.5 24.3333C28.3284 24.3333 29 23.6617 29 22.8333C29 22.0048 28.3284 21.3333 27.5 21.3333C26.6716 21.3333 26 22.0048 26 22.8333C26 23.6617 26.6716 24.3333 27.5 24.3333ZM6 9.5C6 10.3284 5.32843 11 4.5 11C3.67157 11 3 10.3284 3 9.5C3 8.67157 3.67157 8 4.5 8C5.32843 8 6 8.67157 6 9.5ZM4.5 24.3333C5.32843 24.3333 6 23.6617 6 22.8333C6 22.0048 5.32843 21.3333 4.5 21.3333C3.67157 21.3333 3 22.0048 3 22.8333C3 23.6617 3.67157 24.3333 4.5 24.3333Z"
    fill="var(--tbl--ui-node-icon--enrichment-all-l)"
  />

  <defs>
    <linearGradient id="tbl--ui-node-icon--enrichment-all-l" x1="27.5148" y1="30.2468" x2="-5.67729" y2="13.7981" gradientUnits="userSpaceOnUse">
      <stop stop-color="#836EE7"/>
      <stop offset="1" stop-color="#B1A2FB"/>
    </linearGradient>
  </defs>
</svg>
