<svg xmlns="http://www.w3.org/2000/svg" width="16" height="16" fill="none" viewBox="0 0 16 16">
  <path
    fill-rule="evenodd"
    clip-rule="evenodd"
    d="M3 4C3 3.44772 3.44772 3 4 3H6C6.55228 3 7 3.44772 7 4V5.79971C7.29071 5.45034 7.63056 5.2 8 5.08001V4C8 2.89543 7.10457 2 6 2H4C2.89543 2 2 2.89543 2 4V11C2 12.1046 2.89543 13 4 13H5.07315C5.0257 12.8563 5 12.7027 5 12.5429C5 12.3585 5.01333 12.1772 5.03908 12H4C3.44772 12 3 11.5523 3 11V4ZM6.05401 11.9986C6.30649 10.7445 7.41438 9.80001 8.74286 9.80001H9.08077H10.16H11.2393H11.2571C12.772 9.80001 14 11.028 14 12.5429C14 12.7953 13.7945 13 13.542 13H6.45802C6.40667 13 6.35727 12.9916 6.31114 12.9759C6.13045 12.9148 6 12.744 6 12.5429C6 12.3565 6.01859 12.1745 6.05401 11.9986ZM11.16 7C11.16 7.55228 10.7123 8 10.16 8C9.60773 8 9.16002 7.55228 9.16002 7C9.16002 6.44772 9.60773 6 10.16 6C10.7123 6 11.16 6.44772 11.16 7ZM10.16 9C9.8471 9 9.55097 8.92814 9.28722 8.80001C8.61997 8.47588 8.16002 7.79165 8.16002 7C8.16002 5.89543 9.05545 5 10.16 5C11.2646 5 12.16 5.89543 12.16 7C12.16 7.79165 11.7001 8.47588 11.0328 8.80001C10.7691 8.92814 10.4729 9 10.16 9ZM12.9138 12H7.0862C7.31437 11.3033 7.96985 10.8 8.74286 10.8H11.2571C12.0302 10.8 12.6856 11.3033 12.9138 12Z"
    fill="currentColor"
  />
</svg>
