<svg width="24" height="24" viewBox="0 0 24 24" fill="none" xmlns="http://www.w3.org/2000/svg">
  <path
    d="M12.0001 2L20.6604 7M12.0001 2L3.33984 7M12.0001 2V22M20.6604 7V17M20.6604 7L3.33984 17M20.6604 17L12.0001 22M20.6604 17L3.33984 7M12.0001 22L3.33984 17M3.33984 17V7"
    stroke="var(--tbl--colors--icons--enrich--tertiary)"
  />
  <circle cx="12" cy="12" r="5" fill="var(--tbl--colors--icons--enrich--tertiary)"/>
  <path
    fill-rule="evenodd"
    clip-rule="evenodd"
    d="M13 2C13 2.55228 12.5523 3 12 3C11.4477 3 11 2.55228 11 2C11 1.44772 11.4477 1 12 1C12.5523 1 13 1.44772 13 2ZM15 12C15 13.6569 13.6569 15 12 15C10.3431 15 9 13.6569 9 12C9 10.3431 10.3431 9 12 9C13.6569 9 15 10.3431 15 12ZM12 23C12.5523 23 13 22.5523 13 22C13 21.4477 12.5523 21 12 21C11.4477 21 11 21.4477 11 22C11 22.5523 11.4477 23 12 23ZM21.5 7C21.5 7.55228 21.0523 8 20.5 8C19.9477 8 19.5 7.55228 19.5 7C19.5 6.44772 19.9477 6 20.5 6C21.0523 6 21.5 6.44772 21.5 7ZM20.5 18C21.0523 18 21.5 17.5523 21.5 17C21.5 16.4477 21.0523 16 20.5 16C19.9477 16 19.5 16.4477 19.5 17C19.5 17.5523 19.9477 18 20.5 18ZM4.5 7C4.5 7.55228 4.05228 8 3.5 8C2.94772 8 2.5 7.55228 2.5 7C2.5 6.44772 2.94772 6 3.5 6C4.05228 6 4.5 6.44772 4.5 7ZM3.5 18C4.05228 18 4.5 17.5523 4.5 17C4.5 16.4477 4.05228 16 3.5 16C2.94772 16 2.5 16.4477 2.5 17C2.5 17.5523 2.94772 18 3.5 18Z"
    fill="var(--tbl--colors--icons--enrich--primary)"
  />
</svg>
