<svg width="32" height="32" viewBox="0 0 32 32" fill="none" xmlns="http://www.w3.org/2000/svg">
  <path
    d="M15.2213 9.81333C15.0987 9.85067 14.9813 9.94934 14.9307 10.064C14.8827 10.1707 14.88 10.4613 14.88 19.4427V28.712L14.9413 28.8293C14.9813 28.9013 15.0427 28.968 15.1093 29.0053L15.2133 29.0667H17.128C19.248 29.0667 19.128 29.0773 19.272 28.8907C19.336 28.8027 19.3467 28.7627 19.3627 28.5227C19.384 28.1707 19.4213 28.0853 19.6 27.976C19.72 27.904 19.928 27.9013 20.04 27.9707C20.0853 27.9973 20.232 28.104 20.368 28.2053C21.112 28.768 22.0373 29.1227 23.0267 29.2293C23.424 29.272 24.2533 29.2453 24.7307 29.1733C26.072 28.9733 27.1733 28.4427 28.0773 27.5627C28.5733 27.0773 28.9173 26.6133 29.24 25.992C29.656 25.1893 29.92 24.2933 30.0453 23.2533C30.1013 22.7813 30.1093 21.5787 30.0587 21.1333C29.8507 19.312 29.2293 17.872 28.1787 16.7813C27.2027 15.7707 25.952 15.1627 24.44 14.9707C23.9573 14.9093 23.0133 14.9093 22.6533 14.9707C21.72 15.128 20.944 15.4667 20.2267 16.0267C20.0107 16.1947 19.96 16.2187 19.8133 16.2187C19.68 16.2187 19.5973 16.1867 19.4987 16.096C19.352 15.9653 19.36 16.1173 19.36 13.0747C19.36 11.168 19.3493 10.2213 19.3307 10.152C19.2907 10 19.144 9.85333 19 9.816C18.8613 9.78133 15.336 9.77867 15.2213 9.81333ZM23.08 18.4373C24.0187 18.64 24.712 19.1867 25.1573 20.072C25.728 21.208 25.728 22.8187 25.1573 23.9547C24.584 25.0987 23.56 25.72 22.3333 25.672C21.576 25.6427 20.968 25.376 20.4373 24.8427C19.7867 24.1893 19.4373 23.304 19.3947 22.2C19.3493 20.9867 19.6987 19.9333 20.384 19.232C20.824 18.7787 21.3973 18.4907 22.032 18.4C22.264 18.368 22.856 18.3893 23.08 18.4373Z"
    fill="var(--tbl--ui-node-icon--enrichment--zero-bounce-primary)"
  />
  <path
    d="M0.712029 15.24C0.586695 15.2827 0.496028 15.3627 0.442695 15.48C0.405362 15.5573 0.400028 15.7493 0.400028 16.9013C0.400028 17.7813 0.410695 18.2613 0.429362 18.312C0.466695 18.4133 0.581362 18.5333 0.685362 18.576C0.757362 18.608 1.22936 18.6133 3.4187 18.6133C6.0587 18.6133 6.06403 18.6133 6.18136 18.6693C6.34403 18.7493 6.43736 18.8987 6.43736 19.0773C6.43736 19.152 6.41869 19.2453 6.39736 19.2853C6.37603 19.3253 4.9867 20.944 3.3067 22.88C1.6267 24.8187 0.226695 26.4533 0.192028 26.512C0.133362 26.6213 0.133362 26.6293 0.133362 27.744C0.133362 28.776 0.138695 28.8747 0.184028 28.9733C0.242695 29.1013 0.301362 29.1573 0.434695 29.2133C0.520028 29.248 1.1947 29.2533 6.56536 29.2533C12.4027 29.2533 12.6027 29.2507 12.7094 29.2027C12.9227 29.1067 13.0374 28.8507 12.9627 28.6373C12.9467 28.592 12.5654 27.9733 12.1174 27.264C11.4614 26.2267 11.2827 25.9627 11.2054 25.9147L11.1067 25.8533L8.8667 25.84C7.18136 25.8293 6.61336 25.8187 6.57069 25.7947C6.47203 25.7387 6.34936 25.5787 6.3307 25.48C6.30936 25.3627 6.33336 25.2347 6.39736 25.1333C6.42403 25.088 7.82136 23.4587 9.50403 21.5093C11.888 18.744 12.5654 17.9413 12.5867 17.8613C12.6054 17.7973 12.6134 17.3573 12.608 16.6453C12.6 15.5387 12.6 15.5333 12.5387 15.4347C12.504 15.3813 12.432 15.3093 12.3787 15.2747L12.28 15.2133L6.5467 15.208C1.7387 15.2027 0.797362 15.208 0.712029 15.24Z"
    fill="var(--tbl--ui-node-icon--enrichment--zero-bounce-primary)"
  />
  <path
    d="M24.2527 12.8571C18.9787 1.49539 6.83205 1.28869 1.08516 2.65835C0.900161 2.70245 0.718798 2.58105 0.688022 2.39338C0.662094 2.23528 0.755515 2.08206 0.908454 2.03432C3.88375 1.10556 10.1668 -0.50497 15.3366 1.36164C20.1318 3.09296 23.3339 7.83581 24 10.5C24.0467 10.6867 24.375 10.6973 24.4099 10.5C25.0355 6.96622 28.6787 4.90125 30.7716 4.03184C30.9725 3.94838 31.1965 4.07242 31.2391 4.28576C31.2673 4.42674 31.2073 4.57005 31.0873 4.64932C29.2697 5.85073 25.9937 8.29218 24.2527 12.8571Z"
    fill="var(--tbl--ui-node-icon--enrichment--zero-bounce-secondary)"
  />
</svg>
