<svg width="16" height="17" viewBox="0 0 16 17" fill="none" xmlns="http://www.w3.org/2000/svg">
  <path
    d="M7.61067 5.90666C7.54934 5.92533 7.49067 5.97467 7.46534 6.032C7.44134 6.08533 7.44 6.23067 7.44 10.7213V15.356L7.47067 15.4147C7.49067 15.4507 7.52134 15.484 7.55467 15.5027L7.60667 15.5333H8.564C9.624 15.5333 9.564 15.5387 9.636 15.4453C9.668 15.4013 9.67334 15.3813 9.68134 15.2613C9.692 15.0853 9.71067 15.0427 9.8 14.988C9.86 14.952 9.964 14.9507 10.02 14.9853C10.0427 14.9987 10.116 15.052 10.184 15.1027C10.556 15.384 11.0187 15.5613 11.5133 15.6147C11.712 15.636 12.1267 15.6227 12.3653 15.5867C13.036 15.4867 13.5867 15.2213 14.0387 14.7813C14.2867 14.5387 14.4587 14.3067 14.62 13.996C14.828 13.5947 14.96 13.1467 15.0227 12.6267C15.0507 12.3907 15.0547 11.7893 15.0293 11.5667C14.9253 10.656 14.6147 9.936 14.0893 9.39067C13.6013 8.88533 12.976 8.58133 12.22 8.48533C11.9787 8.45467 11.5067 8.45467 11.3267 8.48533C10.86 8.564 10.472 8.73333 10.1133 9.01333C10.0053 9.09733 9.98 9.10933 9.90667 9.10933C9.84 9.10933 9.79867 9.09333 9.74934 9.048C9.676 8.98267 9.68 9.05867 9.68 7.53733C9.68 6.584 9.67467 6.11067 9.66534 6.076C9.64534 6 9.572 5.92667 9.5 5.908C9.43067 5.89067 7.668 5.88933 7.61067 5.90666ZM11.54 10.2187C12.0093 10.32 12.356 10.5933 12.5787 11.036C12.864 11.604 12.864 12.4093 12.5787 12.9773C12.292 13.5493 11.78 13.86 11.1667 13.836C10.788 13.8213 10.484 13.688 10.2187 13.4213C9.89334 13.0947 9.71867 12.652 9.69734 12.1C9.67467 11.4933 9.84934 10.9667 10.192 10.616C10.412 10.3893 10.6987 10.2453 11.016 10.2C11.132 10.184 11.428 10.1947 11.54 10.2187Z"
    fill="var(--tbl--ui-node-icon--enrichment--zero-bounce-primary)"
  />
  <path
    d="M0.355984 8.62C0.293317 8.64134 0.247984 8.68134 0.221317 8.74C0.20265 8.77867 0.199984 8.87467 0.199984 9.45067C0.199984 9.89067 0.205317 10.1307 0.21465 10.156C0.233317 10.2067 0.29065 10.2667 0.34265 10.288C0.37865 10.304 0.61465 10.3067 1.70932 10.3067C3.02932 10.3067 3.03198 10.3067 3.09065 10.3347C3.17198 10.3747 3.21865 10.4493 3.21865 10.5387C3.21865 10.576 3.20932 10.6227 3.19865 10.6427C3.18798 10.6627 2.49332 11.472 1.65332 12.44C0.813317 13.4093 0.113317 14.2267 0.0959837 14.256C0.0666504 14.3107 0.0666504 14.3147 0.0666504 14.872C0.0666504 15.388 0.0693171 15.4373 0.0919837 15.4867C0.121317 15.5507 0.15065 15.5787 0.217317 15.6067C0.259984 15.624 0.597317 15.6267 3.28265 15.6267C6.20132 15.6267 6.30132 15.6253 6.35465 15.6013C6.46132 15.5533 6.51865 15.4253 6.48132 15.3187C6.47332 15.296 6.28265 14.9867 6.05865 14.632C5.73065 14.1133 5.64132 13.9813 5.60265 13.9573L5.55332 13.9267L4.43332 13.92C3.59065 13.9147 3.30665 13.9093 3.28532 13.8973C3.23598 13.8693 3.17465 13.7893 3.16532 13.74C3.15465 13.6813 3.16665 13.6173 3.19865 13.5667C3.21198 13.544 3.91065 12.7293 4.75198 11.7547C5.94398 10.372 6.28265 9.97067 6.29332 9.93067C6.30265 9.89867 6.30665 9.67867 6.30398 9.32267C6.29998 8.76934 6.29998 8.76667 6.26932 8.71734C6.25198 8.69067 6.21598 8.65467 6.18932 8.63734L6.13998 8.60667L3.27332 8.604C0.869317 8.60134 0.39865 8.604 0.355984 8.62Z"
    fill="var(--tbl--ui-node-icon--enrichment--zero-bounce-primary)"
  />
  <path
    d="M12.1263 7.42857C9.49682 1.76388 3.45057 1.64498 0.567185 2.32334C0.461547 2.34819 0.357492 2.27908 0.33993 2.17199C0.328588 2.10283 0.356802 2.03297 0.415985 1.99543C1.54511 1.27919 5.07928 0.39914 7.66667 1.33333C10.0643 2.199 11.5883 3.79284 11.9214 5.12494C11.9447 5.21831 12.0824 5.21501 12.1263 5.12494C12.7953 3.7531 14.1246 3.20043 14.9707 3.01676C15.2658 2.9527 15.4788 3.2353 15.3823 3.52144C15.3506 3.6155 15.2884 3.6959 15.205 3.74971L15.1913 3.75854C14.3032 4.33148 12.9826 5.18346 12.1263 7.42857Z"
    fill="var(--tbl--ui-node-icon--enrichment--zero-bounce-secondary)"
  />
</svg>
